<?xml version="1.0" standalone="no"?>
<!DOCTYPE svg PUBLIC "-//W3C//DTD SVG 1.1//EN" "http://www.w3.org/Graphics/SVG/1.1/DTD/svg11.dtd" >
<svg xmlns="http://www.w3.org/2000/svg" xmlns:xlink="http://www.w3.org/1999/xlink" version="1.1">
<metadata>
Created by FontForge 20170924 at Mon Oct 15 14:17:15 2018
 By www-data
(c) 2018 Banco Santander, S.A. All rights reserved.
</metadata>
<defs>
<font id="SantanderTextW05-Italic" horiz-adv-x="550" >
  <font-face 
    font-family="SantanderTextW05-Italic"
    font-weight="400"
    font-style="italic"
    font-stretch="normal"
    units-per-em="1000"
    panose-1="2 11 5 4 2 2 1 1 1 4"
    ascent="800"
    descent="-200"
    x-height="496"
    cap-height="700"
    bbox="-297 -305 1135 1103"
    underline-thickness="50"
    underline-position="-125"
    slope="-8"
    unicode-range="U+000D-FEFF"
  />
<missing-glyph horiz-adv-x="745" 
d="M148 0v692h476v-692h-476zM206 54h360v584h-360v-584z" />
    <glyph glyph-name="f_f.liga" unicode="ff" horiz-adv-x="594" 
d="M498 611q-26 -24 -34 -76l-5 -39h163q-5 -29 -19 -72h-155l-59 -424h-84l59 424h-182l-59 -424h-84l75 537q24 170 182 170q45 0 84 -14q-6 -34 -17 -69q-35 11 -63 11q-45 0 -69.5 -24.5t-32.5 -75.5l-5 -39h181l6 41q12 85 58.5 127.5t131.5 42.5q50 0 89 -11
q-3 -23 -9 -45t-7 -26q-33 10 -68 10q-51 0 -77 -24z" />
    <glyph glyph-name="f_f_i.liga" unicode="ffi" horiz-adv-x="797" 
d="M777 696.5q15 -15.5 15 -41.5q0 -24 -15 -40t-39 -16t-40 15.5t-16 40.5q0 26 16 41.5t40 15.5t39 -15.5zM599 424h-145l-58 -424h-85l60 424h-189l-59 -424h-84l75 537q24 170 182 170q45 0 84 -14q-6 -34 -17 -69q-35 11 -63 11q-45 0 -69.5 -24.5t-32.5 -75.5l-5 -39
h188l6 42q12 84 59 126.5t127 42.5q45 0 79 -10q-5 -35 -16 -72q-33 10 -65 10q-44 0 -68.5 -24t-32.5 -74l-6 -41h154q-10 -43 -19 -72zM673 496h85l-70 -496h-85z" />
    <glyph glyph-name="f_f_l.liga" unicode="ffl" horiz-adv-x="838" 
d="M599 424h-145l-58 -424h-85l60 424h-189l-59 -424h-84l75 537q24 170 182 170q45 0 84 -14q-6 -34 -17 -69q-35 11 -63 11q-45 0 -69.5 -24.5t-32.5 -75.5l-5 -39h188l6 42q12 84 59 126.5t127 42.5q45 0 79 -10q-5 -35 -16 -72q-33 10 -65 10q-44 0 -68.5 -24t-32.5 -74
l-6 -41h154q-10 -43 -19 -72zM795 70q-6 -38 -20 -73q-28 -9 -65 -9q-47 0 -72 25t-25 75q0 20 2 31l80 573q38 13 86 13l-81 -576q-2 -16 -2 -21q0 -47 45 -47q27 0 52 9z" />
    <glyph glyph-name="uniFB01" unicode="fi" horiz-adv-x="524" 
d="M504.5 696.5q15.5 -15.5 15.5 -41.5q0 -24 -15.5 -40t-39.5 -16q-23 0 -39 16t-16 40q0 26 15.5 41.5t39.5 15.5t39.5 -15.5zM327 424h-145l-59 -424h-84l76 538q11 84 58 126.5t128 42.5q45 0 79 -10q-5 -25 -16 -72q-33 10 -65 10q-44 0 -68.5 -24t-32.5 -74l-6 -41
h154q-10 -43 -19 -72zM401 496h84l-70 -496h-84z" />
    <glyph glyph-name="uniFB02" unicode="fl" horiz-adv-x="566" 
d="M327 424h-145l-59 -424h-84l76 538q11 84 58 126.5t128 42.5q45 0 79 -10q-5 -25 -16 -72q-33 10 -65 10q-44 0 -68.5 -24t-32.5 -74l-6 -41h154q-10 -43 -19 -72zM523 70q-6 -34 -21 -73q-27 -9 -65 -9q-46 0 -71 25t-25 75q0 20 2 31l80 573q36 13 86 13l-82 -576
q-1 -7 -1 -19q0 -25 11 -37t34 -12q27 0 52 9z" />
    <glyph glyph-name="exclam_L.liga" unicode="&#x21;L" horiz-adv-x="1310" 
d="M991.5 453.5q67.5 -39.5 105.5 -90.5t38 -107q0 -79 -71.5 -145.5t-193.5 -105.5t-266 -39t-266 39t-193.5 105.5t-71.5 145.5q0 56 38 107t106 90.5t157 63.5q0 -75 31 -126l167 -288q18 -31 25 -72l6 14q27 64 27 123t-27 106l-132 231q-33 58 -33 111t33 120l6 12
q3 -18 9.5 -34t17.5 -36l199 -345q18 -32 25 -71l8 12q30 54 30 116q0 63 -30 115l-133 231q-30 53 -30 115q0 63 30 115l7 12q4 -17 11 -36.5t15 -33.5l169 -288q25 -43 30 -103q89 -24 156.5 -63.5z" />
    <glyph glyph-name=".notdef" horiz-adv-x="745" 
d="M148 0v692h476v-692h-476zM206 54h360v584h-360v-584z" />
    <glyph glyph-name="glyph1" horiz-adv-x="0" 
 />
    <glyph glyph-name="glyph1" horiz-adv-x="0" 
 />
    <glyph glyph-name="uni000D" unicode="&#xd;" horiz-adv-x="216" 
 />
    <glyph glyph-name="space" unicode=" " horiz-adv-x="216" 
 />
    <glyph glyph-name="A" unicode="A" horiz-adv-x="565" 
d="M405 174h-265l-78 -174h-86l313 684q22 6 53 9.5t55 3.5l122 -697h-86zM392 252l-57 357l-160 -357h217z" />
    <glyph glyph-name="Aacute" unicode="&#xc1;" horiz-adv-x="565" 
d="M405 174h-265l-78 -174h-86l313 684q22 6 53 9.5t55 3.5l122 -697h-86zM392 252l-57 357l-160 -357h217zM378 877q9 3 24.5 4.5t30.5 1.5q37 0 58 -8q-35 -43 -82.5 -75t-94.5 -37h-17z" />
    <glyph glyph-name="Abreve" unicode="&#x102;" horiz-adv-x="565" 
d="M405 174h-265l-78 -174h-86l313 684q22 6 53 9.5t55 3.5l122 -697h-86zM392 252l-57 357l-160 -357h217zM259.5 791.5q-33.5 31.5 -35.5 84.5q14 2 31 3.5t31 1.5q8 -62 71 -62t86 62q14 0 31 -1.5t31 -3.5q-34 -116 -149 -116q-63 0 -96.5 31.5z" />
    <glyph glyph-name="Acircumflex" unicode="&#xc2;" horiz-adv-x="565" 
d="M405 174h-265l-78 -174h-86l313 684q22 6 53 9.5t55 3.5l122 -697h-86zM392 252l-57 357l-160 -357h217zM329 884q24 6 53 6t51 -6l77 -122h-33q-31 5 -55 24.5t-47 52.5q-68 -68 -129 -77h-28z" />
    <glyph glyph-name="Adieresis" unicode="&#xc4;" horiz-adv-x="565" 
d="M405 174h-265l-78 -174h-86l313 684q22 6 53 9.5t55 3.5l122 -697h-86zM392 252l-57 357l-160 -357h217zM230 782.5q-15 15.5 -15 39.5q0 23 15.5 38t38.5 15t38 -15t15 -38q0 -24 -15 -39.5t-38 -15.5q-24 0 -39 15.5zM423 782.5q-15 15.5 -15 39.5q0 23 15 38t38 15
t38 -15t15 -38q0 -24 -15 -39.5t-38 -15.5t-38 15.5z" />
    <glyph glyph-name="Agrave" unicode="&#xc0;" horiz-adv-x="565" 
d="M405 174h-265l-78 -174h-86l313 684q22 6 53 9.5t55 3.5l122 -697h-86zM392 252l-57 357l-160 -357h217zM414 763q-47 5 -95 37t-83 75q22 8 59 8q15 0 30.5 -1.5t24.5 -4.5l80 -114h-16z" />
    <glyph glyph-name="Amacron" unicode="&#x100;" horiz-adv-x="565" 
d="M405 174h-265l-78 -174h-86l313 684q22 6 53 9.5t55 3.5l122 -697h-86zM392 252l-57 357l-160 -357h217zM250 855h244q-4 -25 -17 -64h-245q5 30 18 64z" />
    <glyph glyph-name="Aogonek" unicode="&#x104;" horiz-adv-x="565" 
d="M464 -158q22 0 47 9q-4 -26 -15 -58q-25 -9 -58 -9q-40 0 -63.5 21.5t-23.5 64.5q0 32 23.5 67t70.5 63h-12l-28 174h-265l-78 -174h-86l313 684q22 6 53 9.5t55 3.5l122 -697h-12q-40 -22 -63.5 -54.5t-23.5 -64.5q0 -39 44 -39zM392 252l-57 357l-160 -357h217z" />
    <glyph glyph-name="Aring" unicode="&#xc5;" horiz-adv-x="565" 
d="M405 174h-265l-78 -174h-86l313 684q22 6 53 9.5t55 3.5l122 -697h-86zM392 252l-57 357l-160 -357h217zM312.5 756q-23.5 13 -37 35t-13.5 50q0 27 13.5 49.5t37 35t53.5 12.5t53.5 -13t37 -35t13.5 -50q0 -27 -13.5 -49t-37.5 -35t-53 -13q-30 0 -53.5 13zM404 804
q14 14 14 36t-14.5 36t-37.5 14t-37.5 -14t-14.5 -35q0 -23 14 -37t38 -14t38 14z" />
    <glyph glyph-name="Aringacute" unicode="&#x1fa;" horiz-adv-x="565" 
d="M405 174h-265l-78 -174h-86l313 684q22 6 53 9.5t55 3.5l122 -697h-86zM392 252l-57 357l-160 -357h217zM412 1097q9 3 24.5 4.5t30.5 1.5q37 0 58 -8q-35 -43 -82.5 -75t-94.5 -37h-17zM312.5 756q-23.5 13 -37 35t-13.5 50q0 27 13.5 49.5t37 35t53.5 12.5t53.5 -13
t37 -35t13.5 -50q0 -27 -13.5 -49t-37.5 -35t-53 -13q-30 0 -53.5 13zM404 804q14 14 14 36t-14.5 36t-37.5 14t-37.5 -14t-14.5 -35q0 -23 14 -37t38 -14t38 14z" />
    <glyph glyph-name="Atilde" unicode="&#xc3;" horiz-adv-x="565" 
d="M405 174h-265l-78 -174h-86l313 684q22 6 53 9.5t55 3.5l122 -697h-86zM392 252l-57 357l-160 -357h217zM388.5 757.5q-20.5 10.5 -45.5 28.5l-13.5 9t-17.5 10.5t-12 3.5q-10 0 -14.5 -6.5t-6.5 -21.5l-4 -32h-65l6 42q6 42 25 62t52 20q22 0 42 -10.5t45 -29.5
q12 -9 23.5 -15.5t18.5 -6.5q9 0 15 6.5t7 20.5l5 33h64l-7 -45q-7 -42 -25.5 -60.5t-51.5 -18.5q-20 0 -40.5 10.5z" />
    <glyph glyph-name="AE" unicode="&#xc6;" horiz-adv-x="837" 
d="M546 613l-31 -223h265q-2 -18 -7.5 -40t-12.5 -39h-256l-33 -232h300q-2 -19 -7.5 -40.5t-12.5 -38.5h-377l26 183h-240q-63 -106 -105 -183h-94q93 169 217.5 358t239.5 334h438q-2 -18 -7.5 -40t-12.5 -39h-290zM460 613h-10q-111 -137 -243 -353h203z" />
    <glyph glyph-name="AEacute" unicode="&#x1fc;" horiz-adv-x="837" 
d="M546 613l-31 -223h265q-2 -18 -7.5 -40t-12.5 -39h-256l-33 -232h300q-2 -19 -7.5 -40.5t-12.5 -38.5h-377l26 183h-240q-63 -106 -105 -183h-94q93 169 217.5 358t239.5 334h438q-2 -18 -7.5 -40t-12.5 -39h-290zM460 613h-10q-111 -137 -243 -353h203zM657 877
q9 3 24.5 4.5t30.5 1.5q37 0 58 -8q-35 -43 -82.5 -75t-94.5 -37h-17z" />
    <glyph glyph-name="B" unicode="B" horiz-adv-x="574" 
d="M500 302q26 -39 26 -89q0 -68 -32.5 -116t-90.5 -72.5t-135 -24.5h-217l97 693q35 7 81 10.5t88 3.5q115 0 172 -42t57 -120q0 -66 -33 -113t-91 -71q52 -20 78 -59zM424 606.5q-33 23.5 -110 23.5q-44 0 -89 -5l-33 -231h106q49 0 85 17t55 48.5t19 74.5q0 49 -33 72.5z
M359 93q39 16 60 47.5t21 74.5q0 102 -137 102h-122l-33 -240h120q52 0 91 16z" />
    <glyph glyph-name="C" unicode="C" horiz-adv-x="543" 
d="M174.5 20.5q-59.5 35.5 -89.5 100.5t-30 152q0 119 43.5 218t125 157.5t191.5 58.5q95 0 151 -37q-5 -33 -21 -76q-53 34 -126 34q-86 0 -148 -48.5t-94 -127.5t-32 -169q0 -108 49.5 -163.5t138.5 -55.5q81 0 149 26q-5 -44 -20 -83q-74 -22 -142 -22q-86 0 -145.5 35.5
z" />
    <glyph glyph-name="Cacute" unicode="&#x106;" horiz-adv-x="543" 
d="M174.5 20.5q-59.5 35.5 -89.5 100.5t-30 152q0 119 43.5 218t125 157.5t191.5 58.5q95 0 151 -37q-5 -33 -21 -76q-53 34 -126 34q-86 0 -148 -48.5t-94 -127.5t-32 -169q0 -108 49.5 -163.5t138.5 -55.5q81 0 149 26q-5 -44 -20 -83q-74 -22 -142 -22q-86 0 -145.5 35.5
zM433 877q9 3 24.5 4.5t30.5 1.5q37 0 58 -8q-35 -43 -82.5 -75t-94.5 -37h-17z" />
    <glyph glyph-name="Ccaron" unicode="&#x10c;" horiz-adv-x="543" 
d="M174.5 20.5q-59.5 35.5 -89.5 100.5t-30 152q0 119 43.5 218t125 157.5t191.5 58.5q95 0 151 -37q-5 -33 -21 -76q-53 34 -126 34q-86 0 -148 -48.5t-94 -127.5t-32 -169q0 -108 49.5 -163.5t138.5 -55.5q81 0 149 26q-5 -44 -20 -83q-74 -22 -142 -22q-86 0 -145.5 35.5
zM453 766q-20 -5 -53 -5q-32 0 -51 5l-76 123h32q32 -6 56.5 -25.5t45.5 -51.5q66 66 130 77h27z" />
    <glyph glyph-name="Ccedilla" unicode="&#xc7;" horiz-adv-x="543" 
d="M271 579.5q-62 -48.5 -94 -127.5t-32 -169q0 -108 49.5 -163.5t138.5 -55.5q81 0 149 26q-5 -44 -20 -83q-68 -21 -129 -22l-17 -35q31 -9 47.5 -25.5t16.5 -44.5q0 -40 -28 -63t-74 -23q-18 0 -37.5 4t-32.5 10q2 13 5 23.5t9 21.5q26 -10 50 -10q23 0 36 9t13 25
q0 18 -18.5 27t-57.5 11l34 72q-73 8 -123.5 45.5t-75.5 99t-25 141.5q0 119 43.5 218t125 157.5t191.5 58.5q95 0 151 -37q-5 -33 -21 -76q-53 34 -126 34q-86 0 -148 -48.5z" />
    <glyph glyph-name="Ccircumflex" unicode="&#x108;" horiz-adv-x="543" 
d="M174.5 20.5q-59.5 35.5 -89.5 100.5t-30 152q0 119 43.5 218t125 157.5t191.5 58.5q95 0 151 -37q-5 -33 -21 -76q-53 34 -126 34q-86 0 -148 -48.5t-94 -127.5t-32 -169q0 -108 49.5 -163.5t138.5 -55.5q81 0 149 26q-5 -44 -20 -83q-74 -22 -142 -22q-86 0 -145.5 35.5
zM385 884q24 6 53 6t51 -6l77 -122h-33q-31 5 -55 24.5t-47 52.5q-68 -68 -129 -77h-28z" />
    <glyph glyph-name="Cdotaccent" unicode="&#x10a;" horiz-adv-x="543" 
d="M174.5 20.5q-59.5 35.5 -89.5 100.5t-30 152q0 119 43.5 218t125 157.5t191.5 58.5q95 0 151 -37q-5 -33 -21 -76q-53 34 -126 34q-86 0 -148 -48.5t-94 -127.5t-32 -169q0 -108 49.5 -163.5t138.5 -55.5q81 0 149 26q-5 -44 -20 -83q-74 -22 -142 -22q-86 0 -145.5 35.5
zM381 781.5q-15 14.5 -15 38.5t15 39t38 15t38 -15t15 -39t-15 -38.5t-38 -14.5t-38 14.5z" />
    <glyph glyph-name="D" unicode="D" horiz-adv-x="642" 
d="M486 670.5q66 -36.5 97 -101.5t31 -152q0 -123 -44 -217.5t-129 -147t-205 -52.5h-185l97 692q78 15 172 15q100 0 166 -36.5zM400 122.5q63 45.5 94 123t31 172.5q0 105 -50 158.5t-157 53.5q-46 0 -92 -6l-78 -547h98q91 0 154 45.5z" />
    <glyph glyph-name="Eth" unicode="&#xd0;" horiz-adv-x="658" 
d="M502 670.5q66 -36.5 97 -101.5t31 -152q0 -123 -44 -217.5t-129 -147t-205 -52.5h-185l45 318h-87q6 42 18 65h78l43 309q78 15 172 15q100 0 166 -36.5zM416 122.5q63 45.5 94 123t31 172.5q0 105 -50 158.5t-157 53.5q-45 0 -92 -6l-34 -241h154q-6 -41 -18 -65h-146
l-34 -241h98q91 0 154 45.5z" />
    <glyph glyph-name="Dcaron" unicode="&#x10e;" horiz-adv-x="642" 
d="M486 670.5q66 -36.5 97 -101.5t31 -152q0 -123 -44 -217.5t-129 -147t-205 -52.5h-185l97 692q78 15 172 15q100 0 166 -36.5zM400 122.5q63 45.5 94 123t31 172.5q0 105 -50 158.5t-157 53.5q-46 0 -92 -6l-78 -547h98q91 0 154 45.5zM399 766q-20 -5 -53 -5
q-32 0 -51 5l-76 123h32q32 -6 56.5 -25.5t45.5 -51.5q66 66 130 77h27z" />
    <glyph glyph-name="Dcroat" unicode="&#x110;" horiz-adv-x="658" 
d="M502 670.5q66 -36.5 97 -101.5t31 -152q0 -123 -44 -217.5t-129 -147t-205 -52.5h-185l45 318h-87q6 42 18 65h78l43 309q78 15 172 15q100 0 166 -36.5zM416 122.5q63 45.5 94 123t31 172.5q0 105 -50 158.5t-157 53.5q-45 0 -92 -6l-34 -241h154q-6 -41 -18 -65h-146
l-34 -241h98q91 0 154 45.5z" />
    <glyph glyph-name="E" unicode="E" horiz-adv-x="514" 
d="M223 613l-31 -223h265q-2 -18 -7.5 -40t-12.5 -39h-256l-33 -232h300q-2 -19 -7.5 -40.5t-12.5 -38.5h-377l97 692h385q-2 -18 -7.5 -39.5t-11.5 -39.5h-291z" />
    <glyph glyph-name="Eacute" unicode="&#xc9;" horiz-adv-x="514" 
d="M223 613l-31 -223h265q-2 -18 -7.5 -40t-12.5 -39h-256l-33 -232h300q-2 -19 -7.5 -40.5t-12.5 -38.5h-377l97 692h385q-2 -18 -7.5 -39.5t-11.5 -39.5h-291zM379 877q9 3 24.5 4.5t30.5 1.5q37 0 58 -8q-35 -43 -82.5 -75t-94.5 -37h-17z" />
    <glyph glyph-name="Ebreve" unicode="&#x114;" horiz-adv-x="514" 
d="M223 613l-31 -223h265q-2 -18 -7.5 -40t-12.5 -39h-256l-33 -232h300q-2 -19 -7.5 -40.5t-12.5 -38.5h-377l97 692h385q-2 -18 -7.5 -39.5t-11.5 -39.5h-291zM260.5 791.5q-33.5 31.5 -35.5 84.5q14 2 31 3.5t31 1.5q8 -62 71 -62t86 62q14 0 31 -1.5t31 -3.5
q-34 -116 -149 -116q-63 0 -96.5 31.5z" />
    <glyph glyph-name="Ecaron" unicode="&#x11a;" horiz-adv-x="514" 
d="M223 613l-31 -223h265q-2 -18 -7.5 -40t-12.5 -39h-256l-33 -232h300q-2 -19 -7.5 -40.5t-12.5 -38.5h-377l97 692h385q-2 -18 -7.5 -39.5t-11.5 -39.5h-291zM399 766q-20 -5 -53 -5q-32 0 -51 5l-76 123h32q32 -6 56.5 -25.5t45.5 -51.5q66 66 130 77h27z" />
    <glyph glyph-name="Ecircumflex" unicode="&#xca;" horiz-adv-x="514" 
d="M223 613l-31 -223h265q-2 -18 -7.5 -40t-12.5 -39h-256l-33 -232h300q-2 -19 -7.5 -40.5t-12.5 -38.5h-377l97 692h385q-2 -18 -7.5 -39.5t-11.5 -39.5h-291zM330 884q24 6 53 6t51 -6l77 -122h-33q-31 5 -55 24.5t-47 52.5q-68 -68 -129 -77h-28z" />
    <glyph glyph-name="Edieresis" unicode="&#xcb;" horiz-adv-x="514" 
d="M223 613l-31 -223h265q-2 -18 -7.5 -40t-12.5 -39h-256l-33 -232h300q-2 -19 -7.5 -40.5t-12.5 -38.5h-377l97 692h385q-2 -18 -7.5 -39.5t-11.5 -39.5h-291zM231 782.5q-15 15.5 -15 39.5q0 23 15.5 38t38.5 15t38 -15t15 -38q0 -24 -15 -39.5t-38 -15.5q-24 0 -39 15.5
zM424 782.5q-15 15.5 -15 39.5q0 23 15 38t38 15t38 -15t15 -38q0 -24 -15 -39.5t-38 -15.5t-38 15.5z" />
    <glyph glyph-name="Edotaccent" unicode="&#x116;" horiz-adv-x="514" 
d="M223 613l-31 -223h265q-2 -18 -7.5 -40t-12.5 -39h-256l-33 -232h300q-2 -19 -7.5 -40.5t-12.5 -38.5h-377l97 692h385q-2 -18 -7.5 -39.5t-11.5 -39.5h-291zM326 781.5q-15 14.5 -15 38.5t15 39t38 15t38 -15t15 -39t-15 -38.5t-38 -14.5t-38 14.5z" />
    <glyph glyph-name="Egrave" unicode="&#xc8;" horiz-adv-x="514" 
d="M223 613l-31 -223h265q-2 -18 -7.5 -40t-12.5 -39h-256l-33 -232h300q-2 -19 -7.5 -40.5t-12.5 -38.5h-377l97 692h385q-2 -18 -7.5 -39.5t-11.5 -39.5h-291zM415 763q-47 5 -95 37t-83 75q22 8 59 8q15 0 30.5 -1.5t24.5 -4.5l80 -114h-16z" />
    <glyph glyph-name="Emacron" unicode="&#x112;" horiz-adv-x="514" 
d="M223 613l-31 -223h265q-2 -18 -7.5 -40t-12.5 -39h-256l-33 -232h300q-2 -19 -7.5 -40.5t-12.5 -38.5h-377l97 692h385q-2 -18 -7.5 -39.5t-11.5 -39.5h-291zM252 855h244q-4 -25 -17 -64h-245q5 30 18 64z" />
    <glyph glyph-name="Eogonek" unicode="&#x118;" horiz-adv-x="514" 
d="M223 613l-31 -223h265q-2 -18 -7.5 -40t-12.5 -39h-256l-33 -232h300q-2 -19 -7.5 -40.5t-12.5 -38.5h-37q-40 -22 -63.5 -54.5t-23.5 -64.5q0 -39 43 -39q23 0 48 9q-2 -15 -6 -28.5t-10 -29.5q-22 -9 -57 -9q-40 0 -63.5 21.5t-23.5 64.5q0 32 23.5 67t70.5 63h-278
l97 692h385q-2 -18 -7.5 -39.5t-11.5 -39.5h-291z" />
    <glyph glyph-name="F" unicode="F" horiz-adv-x="486" 
d="M223 613l-31 -223h263q-2 -18 -7.5 -40.5t-12.5 -38.5h-254l-44 -311h-86l97 692h372q-2 -18 -8 -40t-13 -39h-276z" />
    <glyph glyph-name="G" unicode="G" horiz-adv-x="627" 
d="M275.5 582q-65.5 -46 -98.5 -124t-33 -171q0 -110 49.5 -166.5t145.5 -56.5q52 0 107 13l39 286h88l-47 -342q-40 -17 -92.5 -26.5t-101.5 -9.5q-92 0 -154 35t-92.5 100t-30.5 154q0 125 44.5 223.5t130 154t205.5 55.5q53 0 98 -9t78 -26q-6 -29 -23 -75
q-66 31 -155 31q-92 0 -157.5 -46z" />
    <glyph glyph-name="Gbreve" unicode="&#x11e;" horiz-adv-x="627" 
d="M275.5 582q-65.5 -46 -98.5 -124t-33 -171q0 -110 49.5 -166.5t145.5 -56.5q52 0 107 13l39 286h88l-47 -342q-40 -17 -92.5 -26.5t-101.5 -9.5q-92 0 -154 35t-92.5 100t-30.5 154q0 125 44.5 223.5t130 154t205.5 55.5q53 0 98 -9t78 -26q-6 -29 -23 -75
q-66 31 -155 31q-92 0 -157.5 -46zM339.5 791.5q-33.5 31.5 -35.5 84.5q14 2 31 3.5t31 1.5q8 -62 71 -62t86 62q14 0 31 -1.5t31 -3.5q-34 -116 -149 -116q-63 0 -96.5 31.5z" />
    <glyph glyph-name="Gcircumflex" unicode="&#x11c;" horiz-adv-x="627" 
d="M275.5 582q-65.5 -46 -98.5 -124t-33 -171q0 -110 49.5 -166.5t145.5 -56.5q52 0 107 13l39 286h88l-47 -342q-40 -17 -92.5 -26.5t-101.5 -9.5q-92 0 -154 35t-92.5 100t-30.5 154q0 125 44.5 223.5t130 154t205.5 55.5q53 0 98 -9t78 -26q-6 -29 -23 -75
q-66 31 -155 31q-92 0 -157.5 -46zM409 884q24 6 53 6t51 -6l77 -122h-33q-31 5 -55 24.5t-47 52.5q-68 -68 -129 -77h-28z" />
    <glyph glyph-name="uni0122" unicode="&#x122;" horiz-adv-x="627" 
d="M275.5 582q-65.5 -46 -98.5 -124t-33 -171q0 -110 49.5 -166.5t145.5 -56.5q52 0 107 13l39 286h88l-47 -342q-40 -17 -92.5 -26.5t-101.5 -9.5q-92 0 -154 35t-92.5 100t-30.5 154q0 125 44.5 223.5t130 154t205.5 55.5q53 0 98 -9t78 -26q-6 -29 -23 -75
q-66 31 -155 31q-92 0 -157.5 -46zM267 -161q8 39 14 86q40 13 85 14q-12 -57 -37 -102.5t-59 -77.5h-23q12 41 20 80z" />
    <glyph glyph-name="Gdotaccent" unicode="&#x120;" horiz-adv-x="627" 
d="M275.5 582q-65.5 -46 -98.5 -124t-33 -171q0 -110 49.5 -166.5t145.5 -56.5q52 0 107 13l39 286h88l-47 -342q-40 -17 -92.5 -26.5t-101.5 -9.5q-92 0 -154 35t-92.5 100t-30.5 154q0 125 44.5 223.5t130 154t205.5 55.5q53 0 98 -9t78 -26q-6 -29 -23 -75
q-66 31 -155 31q-92 0 -157.5 -46zM406 781.5q-15 14.5 -15 38.5t15 39t38 15t38 -15t15 -39t-15 -38.5t-38 -14.5t-38 14.5z" />
    <glyph glyph-name="H" unicode="H" horiz-adv-x="655" 
d="M587 696q26 4 45 4l-98 -700h-86l44 313h-311l-44 -313h-86l97 686q18 6 43 10t44 4l-43 -306h311l41 292q17 6 43 10z" />
    <glyph glyph-name="Hbar" unicode="&#x126;" horiz-adv-x="675" 
d="M688 507h-73l-71 -507h-86l44 313h-311l-44 -313h-86l72 507h-81q3 29 17 66h73l16 113q18 6 43 10t44 4l-18 -127h311l16 113q17 6 43 10t45 4l-18 -127h82q-5 -35 -18 -66zM529 507h-311l-16 -113h311z" />
    <glyph glyph-name="Hcircumflex" unicode="&#x124;" horiz-adv-x="655" 
d="M587 696q26 4 45 4l-98 -700h-86l44 313h-311l-44 -313h-86l97 686q18 6 43 10t44 4l-43 -306h311l41 292q17 6 43 10zM375 884q24 6 53 6t51 -6l77 -122h-33q-31 5 -55 24.5t-47 52.5q-68 -68 -129 -77h-28z" />
    <glyph glyph-name="I" unicode="I" horiz-adv-x="259" 
d="M148 686q18 6 43 10t44 4l-98 -700h-86z" />
    <glyph glyph-name="IJ" unicode="&#x132;" horiz-adv-x="589" 
d="M148 686q18 6 43 10t44 4l-98 -700h-86zM230 2q6 38 17 73q28 -5 54 -5q56 0 87 32.5t42 108.5l67 475q18 6 43 10t45 4l-70 -499q-15 -103 -68.5 -155.5t-140.5 -52.5q-43 0 -76 9z" />
    <glyph glyph-name="Iacute" unicode="&#xcd;" horiz-adv-x="259" 
d="M148 686q18 6 43 10t44 4l-98 -700h-86zM225 877q9 3 24.5 4.5t30.5 1.5q37 0 58 -8q-35 -43 -82.5 -75t-94.5 -37h-17z" />
    <glyph glyph-name="Ibreve" unicode="&#x12c;" horiz-adv-x="259" 
d="M148 686q18 6 43 10t44 4l-98 -700h-86zM142 776q-26 15 -39 40t-14 53q20 4 60 4q6 -52 58 -52q27 0 43.5 13t25.5 39q13 0 28 -1t28 -3q-12 -46 -42.5 -77t-84.5 -31q-37 0 -63 15z" />
    <glyph glyph-name="Icircumflex" unicode="&#xce;" horiz-adv-x="259" 
d="M148 686q18 6 43 10t44 4l-98 -700h-86zM172 872q10 3 23.5 4.5t24.5 1.5q25 0 44 -6l67 -109h-37q-28 16 -45.5 29t-33.5 36q-22 -23 -43 -36t-52 -29h-46z" />
    <glyph glyph-name="Idieresis" unicode="&#xcf;" horiz-adv-x="259" 
d="M148 686q18 6 43 10t44 4l-98 -700h-86zM97.5 782.5q-14.5 15.5 -14.5 38.5q0 24 14 39t38 15q23 0 37.5 -15.5t14.5 -38.5t-14.5 -38.5t-37.5 -15.5t-37.5 15.5zM246.5 782.5q-14.5 15.5 -14.5 38.5t14.5 38.5t37.5 15.5q24 0 38.5 -15t14.5 -39q0 -23 -14.5 -38.5
t-38.5 -15.5q-23 0 -37.5 15.5z" />
    <glyph glyph-name="Idotaccent" unicode="&#x130;" horiz-adv-x="259" 
d="M148 686q18 6 43 10t44 4l-98 -700h-86zM172 781.5q-15 14.5 -15 38.5t15 39t38 15t38 -15t15 -39t-15 -38.5t-38 -14.5t-38 14.5z" />
    <glyph glyph-name="Igrave" unicode="&#xcc;" horiz-adv-x="259" 
d="M148 686q18 6 43 10t44 4l-98 -700h-86zM261 763q-47 5 -95 37t-83 75q22 8 59 8q15 0 30.5 -1.5t24.5 -4.5l80 -114h-16z" />
    <glyph glyph-name="Imacron" unicode="&#x12a;" horiz-adv-x="259" 
d="M148 686q18 6 43 10t44 4l-98 -700h-86zM114 854h210q-7 -35 -18 -64h-210q5 30 18 64z" />
    <glyph glyph-name="Iogonek" unicode="&#x12e;" horiz-adv-x="259" 
d="M69.5 -147.5q10.5 -9.5 29.5 -9.5q11 0 23 3t20 7q-8 -38 -15 -58q-9 -4 -23 -6.5t-29 -2.5q-39 0 -60.5 21t-21.5 59q0 41 20.5 71t61.5 63h-24l97 686q18 6 43 10t44 4l-98 -700q-40 -35 -59 -63.5t-19 -56.5q0 -18 10.5 -27.5z" />
    <glyph glyph-name="Itilde" unicode="&#x128;" horiz-adv-x="259" 
d="M148 686q18 6 43 10t44 4l-98 -700h-86zM227 753q-17 11 -37 30q-8 9 -16.5 15t-13.5 6q-7 0 -11 -5t-6 -19l-6 -34h-58l8 52q6 40 23 56.5t42 16.5q20 0 37 -11t37 -30q8 -9 16 -15t14 -6q8 0 12 5.5t6 18.5l6 34h58l-8 -51q-6 -41 -23 -57.5t-42 -16.5q-21 0 -38 11z
" />
    <glyph glyph-name="J" unicode="J" horiz-adv-x="331" 
d="M-29 2q6 38 17 73q28 -5 54 -5q56 0 87 32.5t42 108.5l67 475q18 6 43 10t45 4l-70 -499q-15 -103 -68.5 -155.5t-140.5 -52.5q-43 0 -76 9z" />
    <glyph glyph-name="Jcircumflex" unicode="&#x134;" horiz-adv-x="331" 
d="M-29 2q6 38 17 73q28 -5 54 -5q56 0 87 32.5t42 108.5l67 475q18 6 43 10t45 4l-70 -499q-15 -103 -68.5 -155.5t-140.5 -52.5q-43 0 -76 9zM260 872q10 3 23.5 4.5t24.5 1.5q25 0 44 -6l67 -109h-37q-28 16 -45.5 29t-33.5 36q-22 -23 -43 -36t-52 -29h-46z" />
    <glyph glyph-name="K" unicode="K" horiz-adv-x="549" 
d="M191 696q25 4 45 4l-99 -700h-86l97 686q18 6 43 10zM287 352l223 -352h-99l-220 349l1 9l299 334h98z" />
    <glyph glyph-name="uni0136" unicode="&#x136;" horiz-adv-x="549" 
d="M191 696q25 4 45 4l-99 -700h-86l97 686q18 6 43 10zM287 352l223 -352h-99l-220 349l1 9l299 334h98zM205 -161q8 39 14 86q40 13 85 14q-12 -57 -37 -102.5t-59 -77.5h-23q12 41 20 80z" />
    <glyph glyph-name="L" unicode="L" horiz-adv-x="439" 
d="M148 686q18 6 43 10t44 4l-86 -621h260q-2 -18 -7.5 -39.5t-11.5 -39.5h-339z" />
    <glyph glyph-name="Lacute" unicode="&#x139;" horiz-adv-x="439" 
d="M148 686q18 6 43 10t44 4l-86 -621h260q-2 -18 -7.5 -39.5t-11.5 -39.5h-339zM243 877q9 3 24.5 4.5t30.5 1.5q37 0 58 -8q-35 -43 -82.5 -75t-94.5 -37h-17z" />
    <glyph glyph-name="Lcaron" unicode="&#x13d;" horiz-adv-x="439" 
d="M148 686q18 6 43 10t44 4l-86 -621h260q-2 -18 -7.5 -39.5t-11.5 -39.5h-339zM361 606q8 39 14 86q40 13 85 14q-12 -57 -37 -102.5t-59 -77.5h-23q12 41 20 80z" />
    <glyph glyph-name="uni013B" unicode="&#x13b;" horiz-adv-x="439" 
d="M148 686q18 6 43 10t44 4l-86 -621h260q-2 -18 -7.5 -39.5t-11.5 -39.5h-339zM167 -161q8 39 14 86q40 13 85 14q-12 -57 -37 -102.5t-59 -77.5h-23q12 41 20 80z" />
    <glyph glyph-name="Ldot" unicode="&#x13f;" horiz-adv-x="439" 
d="M148 686q18 6 43 10t44 4l-86 -621h260q-2 -18 -7.5 -39.5t-11.5 -39.5h-339zM340.5 369.5q-18.5 18.5 -18.5 44.5q0 27 18.5 45.5t44.5 18.5q17 0 32 -8.5t23.5 -23t8.5 -32.5q0 -17 -8.5 -31.5t-23.5 -23t-32 -8.5q-26 0 -44.5 18.5z" />
    <glyph glyph-name="Lslash" unicode="&#x141;" horiz-adv-x="444" 
d="M414 79q-2 -18 -7.5 -39.5t-11.5 -39.5h-339l38 272l-82 -45q2 18 7 43t11 42l76 41l47 333q18 6 43 10t44 4l-41 -296l154 83q-2 -19 -7 -43t-12 -42l-146 -79l-34 -244h260z" />
    <glyph glyph-name="M" unicode="M" horiz-adv-x="842" 
d="M793 700l-55 -700h-85l25 297l4 45q11 134 23 232q-71 -155 -156 -320l-133 -254h-64l-64 271q-38 163 -61 302q-15 -92 -54 -293l-56 -280h-82l140 686q21 6 51 10t53 4l122 -578l277 564q40 14 115 14z" />
    <glyph glyph-name="N" unicode="N" horiz-adv-x="654" 
d="M588.5 696q22.5 4 42.5 4l-98 -700h-72l-197 434q-37 79 -55 136q-12 -116 -34 -267l-43 -303h-81l97 686q17 6 40 10t42 4l193 -415q26 -57 55 -138q20 183 36 296l34 243q18 6 40.5 10z" />
    <glyph glyph-name="Nacute" unicode="&#x143;" horiz-adv-x="654" 
d="M588.5 696q22.5 4 42.5 4l-98 -700h-72l-197 434q-37 79 -55 136q-12 -116 -34 -267l-43 -303h-81l97 686q17 6 40 10t42 4l193 -415q26 -57 55 -138q20 183 36 296l34 243q18 6 40.5 10zM422 877q9 3 24.5 4.5t30.5 1.5q37 0 58 -8q-35 -43 -82.5 -75t-94.5 -37h-17z
" />
    <glyph glyph-name="Ncaron" unicode="&#x147;" horiz-adv-x="654" 
d="M588.5 696q22.5 4 42.5 4l-98 -700h-72l-197 434q-37 79 -55 136q-12 -116 -34 -267l-43 -303h-81l97 686q17 6 40 10t42 4l193 -415q26 -57 55 -138q20 183 36 296l34 243q18 6 40.5 10zM442 766q-20 -5 -53 -5q-32 0 -51 5l-76 123h32q32 -6 56.5 -25.5t45.5 -51.5
q66 66 130 77h27z" />
    <glyph glyph-name="uni0145" unicode="&#x145;" horiz-adv-x="654" 
d="M588.5 696q22.5 4 42.5 4l-98 -700h-72l-197 434q-37 79 -55 136q-12 -116 -34 -267l-43 -303h-81l97 686q17 6 40 10t42 4l193 -415q26 -57 55 -138q20 183 36 296l34 243q18 6 40.5 10zM234 -161q8 39 14 86q40 13 85 14q-12 -57 -37 -102.5t-59 -77.5h-23q12 41 20 80
z" />
    <glyph glyph-name="Eng" unicode="&#x14a;" horiz-adv-x="654" 
d="M588.5 696q22.5 4 42.5 4l-98 -700q-17 -120 -67.5 -172t-133.5 -52q-39 0 -82 9q10 50 19 77q23 -6 54 -6q39 0 64.5 14.5t42.5 48t25 90.5v3l-191 422q-37 79 -55 136q-12 -116 -34 -267l-43 -303h-81l97 686q17 6 40 10t42 4l193 -415q26 -57 55 -138q20 183 36 296
l34 243q18 6 40.5 10z" />
    <glyph glyph-name="Ntilde" unicode="&#xd1;" horiz-adv-x="654" 
d="M588.5 696q22.5 4 42.5 4l-98 -700h-72l-197 434q-37 79 -55 136q-12 -116 -34 -267l-43 -303h-81l97 686q17 6 40 10t42 4l193 -415q26 -57 55 -138q20 183 36 296l34 243q18 6 40.5 10zM433.5 757.5q-20.5 10.5 -45.5 28.5l-13.5 9t-17.5 10.5t-12 3.5
q-10 0 -14.5 -6.5t-6.5 -21.5l-4 -32h-65l6 42q6 42 25 62t52 20q22 0 42 -10.5t45 -29.5q12 -9 23.5 -15.5t18.5 -6.5q9 0 15 6.5t7 20.5l5 33h64l-7 -45q-7 -42 -25.5 -60.5t-51.5 -18.5q-20 0 -40.5 10.5z" />
    <glyph glyph-name="O" unicode="O" horiz-adv-x="679" 
d="M169 19.5q-57 34.5 -85.5 99t-28.5 153.5q0 117 40 216.5t118 159t186 59.5q83 0 139.5 -35t85 -99.5t28.5 -154.5q0 -117 -40 -215.5t-118 -158t-186 -59.5q-82 0 -139 34.5zM450 113q57 50 85 131.5t28 174.5q0 103 -42.5 156t-124.5 53t-139 -50t-85 -131.5
t-28 -173.5q0 -104 42.5 -157t124.5 -53t139 50z" />
    <glyph glyph-name="Oacute" unicode="&#xd3;" horiz-adv-x="679" 
d="M169 19.5q-57 34.5 -85.5 99t-28.5 153.5q0 117 40 216.5t118 159t186 59.5q83 0 139.5 -35t85 -99.5t28.5 -154.5q0 -117 -40 -215.5t-118 -158t-186 -59.5q-82 0 -139 34.5zM450 113q57 50 85 131.5t28 174.5q0 103 -42.5 156t-124.5 53t-139 -50t-85 -131.5
t-28 -173.5q0 -104 42.5 -157t124.5 -53t139 50zM430 877q9 3 24.5 4.5t30.5 1.5q37 0 58 -8q-35 -43 -82.5 -75t-94.5 -37h-17z" />
    <glyph glyph-name="Obreve" unicode="&#x14e;" horiz-adv-x="679" 
d="M169 19.5q-57 34.5 -85.5 99t-28.5 153.5q0 117 40 216.5t118 159t186 59.5q83 0 139.5 -35t85 -99.5t28.5 -154.5q0 -117 -40 -215.5t-118 -158t-186 -59.5q-82 0 -139 34.5zM450 113q57 50 85 131.5t28 174.5q0 103 -42.5 156t-124.5 53t-139 -50t-85 -131.5
t-28 -173.5q0 -104 42.5 -157t124.5 -53t139 50zM311.5 791.5q-33.5 31.5 -35.5 84.5q14 2 31 3.5t31 1.5q8 -62 71 -62t86 62q14 0 31 -1.5t31 -3.5q-34 -116 -149 -116q-63 0 -96.5 31.5z" />
    <glyph glyph-name="Ocircumflex" unicode="&#xd4;" horiz-adv-x="679" 
d="M169 19.5q-57 34.5 -85.5 99t-28.5 153.5q0 117 40 216.5t118 159t186 59.5q83 0 139.5 -35t85 -99.5t28.5 -154.5q0 -117 -40 -215.5t-118 -158t-186 -59.5q-82 0 -139 34.5zM450 113q57 50 85 131.5t28 174.5q0 103 -42.5 156t-124.5 53t-139 -50t-85 -131.5
t-28 -173.5q0 -104 42.5 -157t124.5 -53t139 50zM381 884q24 6 53 6t51 -6l77 -122h-33q-31 5 -55 24.5t-47 52.5q-68 -68 -129 -77h-28z" />
    <glyph glyph-name="Odieresis" unicode="&#xd6;" horiz-adv-x="679" 
d="M169 19.5q-57 34.5 -85.5 99t-28.5 153.5q0 117 40 216.5t118 159t186 59.5q83 0 139.5 -35t85 -99.5t28.5 -154.5q0 -117 -40 -215.5t-118 -158t-186 -59.5q-82 0 -139 34.5zM450 113q57 50 85 131.5t28 174.5q0 103 -42.5 156t-124.5 53t-139 -50t-85 -131.5
t-28 -173.5q0 -104 42.5 -157t124.5 -53t139 50zM283 782.5q-15 15.5 -15 39.5q0 23 15.5 38t38.5 15t38 -15t15 -38q0 -24 -15 -39.5t-38 -15.5q-24 0 -39 15.5zM476 782.5q-15 15.5 -15 39.5q0 23 15 38t38 15t38 -15t15 -38q0 -24 -15 -39.5t-38 -15.5t-38 15.5z" />
    <glyph glyph-name="Ograve" unicode="&#xd2;" horiz-adv-x="679" 
d="M169 19.5q-57 34.5 -85.5 99t-28.5 153.5q0 117 40 216.5t118 159t186 59.5q83 0 139.5 -35t85 -99.5t28.5 -154.5q0 -117 -40 -215.5t-118 -158t-186 -59.5q-82 0 -139 34.5zM450 113q57 50 85 131.5t28 174.5q0 103 -42.5 156t-124.5 53t-139 -50t-85 -131.5
t-28 -173.5q0 -104 42.5 -157t124.5 -53t139 50zM466 763q-47 5 -95 37t-83 75q22 8 59 8q15 0 30.5 -1.5t24.5 -4.5l80 -114h-16z" />
    <glyph glyph-name="Ohungarumlaut" unicode="&#x150;" horiz-adv-x="679" 
d="M169 19.5q-57 34.5 -85.5 99t-28.5 153.5q0 117 40 216.5t118 159t186 59.5q83 0 139.5 -35t85 -99.5t28.5 -154.5q0 -117 -40 -215.5t-118 -158t-186 -59.5q-82 0 -139 34.5zM450 113q57 50 85 131.5t28 174.5q0 103 -42.5 156t-124.5 53t-139 -50t-85 -131.5
t-28 -173.5q0 -104 42.5 -157t124.5 -53t139 50zM373 879q19 5 55 5q30 0 39 -2q-14 -27 -42.5 -53.5t-62 -45t-63.5 -21.5h-13zM511 879q18 5 54 5q31 0 40 -2q-14 -26 -42.5 -52.5t-62.5 -45t-64 -22.5h-12z" />
    <glyph glyph-name="Omacron" unicode="&#x14c;" horiz-adv-x="679" 
d="M169 19.5q-57 34.5 -85.5 99t-28.5 153.5q0 117 40 216.5t118 159t186 59.5q83 0 139.5 -35t85 -99.5t28.5 -154.5q0 -117 -40 -215.5t-118 -158t-186 -59.5q-82 0 -139 34.5zM450 113q57 50 85 131.5t28 174.5q0 103 -42.5 156t-124.5 53t-139 -50t-85 -131.5
t-28 -173.5q0 -104 42.5 -157t124.5 -53t139 50zM303 855h244q-4 -25 -17 -64h-245q5 30 18 64z" />
    <glyph glyph-name="Oslash" unicode="&#xd8;" horiz-adv-x="679" 
d="M613 594q39 -70 39 -176q0 -117 -40 -215.5t-118 -158t-186 -59.5q-111 0 -177 64l-93 -104q-10 15 -16 29t-10 32l82 92q-39 69 -39 174q0 117 40 216.5t118 159t186 59.5q56 0 101 -16.5t77 -48.5l90 102q17 -30 20 -67zM158 171l361 406q-42 51 -123 51
q-82 0 -139 -50t-85 -131.5t-28 -173.5q0 -58 14 -102zM549 521l-361 -407q42 -51 123 -51q82 0 139 50t85 131.5t28 174.5q0 58 -14 102z" />
    <glyph glyph-name="Oslashacute" unicode="&#x1fe;" horiz-adv-x="679" 
d="M613 594q39 -70 39 -176q0 -117 -40 -215.5t-118 -158t-186 -59.5q-111 0 -177 64l-93 -104q-10 15 -16 29t-10 32l82 92q-39 69 -39 174q0 117 40 216.5t118 159t186 59.5q56 0 101 -16.5t77 -48.5l90 102q17 -30 20 -67zM158 171l361 406q-42 51 -123 51
q-82 0 -139 -50t-85 -131.5t-28 -173.5q0 -58 14 -102zM549 521l-361 -407q42 -51 123 -51q82 0 139 50t85 131.5t28 174.5q0 58 -14 102zM433 877q9 3 24.5 4.5t30.5 1.5q37 0 58 -8q-35 -43 -82.5 -75t-94.5 -37h-17z" />
    <glyph glyph-name="Otilde" unicode="&#xd5;" horiz-adv-x="679" 
d="M169 19.5q-57 34.5 -85.5 99t-28.5 153.5q0 117 40 216.5t118 159t186 59.5q83 0 139.5 -35t85 -99.5t28.5 -154.5q0 -117 -40 -215.5t-118 -158t-186 -59.5q-82 0 -139 34.5zM450 113q57 50 85 131.5t28 174.5q0 103 -42.5 156t-124.5 53t-139 -50t-85 -131.5
t-28 -173.5q0 -104 42.5 -157t124.5 -53t139 50zM441.5 757.5q-20.5 10.5 -45.5 28.5l-13.5 9t-17.5 10.5t-12 3.5q-10 0 -14.5 -6.5t-6.5 -21.5l-4 -32h-65l6 42q6 42 25 62t52 20q22 0 42 -10.5t45 -29.5q12 -9 23.5 -15.5t18.5 -6.5q9 0 15 6.5t7 20.5l5 33h64l-7 -45
q-7 -42 -25.5 -60.5t-51.5 -18.5q-20 0 -40.5 10.5z" />
    <glyph glyph-name="OE" unicode="&#x152;" horiz-adv-x="865" 
d="M573 613l-31 -223h266q-3 -19 -8.5 -39.5t-11.5 -39.5h-257l-32 -232h299q-4 -37 -19 -79h-327v-1h-137q-127 0 -192.5 74t-65.5 212q0 119 39 211t117.5 144t190.5 52h480q-4 -34 -20 -79h-291zM488 614h-92q-85 0 -141.5 -44.5t-83 -119t-26.5 -168.5q0 -204 177 -204
h91z" />
    <glyph glyph-name="P" unicode="P" horiz-adv-x="554" 
d="M449 682.5q53 -24.5 77.5 -66t24.5 -95.5q0 -84 -35.5 -146t-101 -95t-154.5 -33h-88l-35 -247h-86l97 692q39 7 83 11t82 4q83 0 136 -24.5zM371 346.5q44 23.5 67 66.5t23 99q0 58 -35 88.5t-111 30.5q-45 0 -90 -7l-42 -302h84q60 1 104 24.5z" />
    <glyph glyph-name="Thorn" unicode="&#xde;" horiz-adv-x="553" 
d="M431 559.5q53 -24.5 77.5 -66t24.5 -95.5q0 -84 -35.5 -146t-101 -95t-154.5 -33h-87l-18 -124h-86l97 686q18 6 43 10t45 4l-17 -120q33 4 76 4q83 0 136 -24.5zM353 223.5q44 23.5 67 66t23 99.5q0 58 -35 88.5t-111 30.5q-46 0 -89 -7l-43 -303l84 1q60 1 104 24.5z
" />
    <glyph glyph-name="Q" unicode="Q" horiz-adv-x="679" 
d="M619.5 222q-32.5 -91 -94.5 -151l99 -120q-11 -13 -29 -26.5t-35 -24.5l-99 123q-70 -38 -153 -38q-82 0 -139 34.5t-85.5 99t-28.5 153.5q0 117 40 216.5t118 159t186 59.5q83 0 139.5 -35t85 -99.5t28.5 -154.5q0 -105 -32.5 -196zM410 86l-85 105l59 52l89 -108
q44 49 67 124.5t23 159.5q0 103 -42.5 156t-124.5 53t-139 -50t-85 -131.5t-28 -173.5q0 -104 42.5 -157t124.5 -53q55 0 99 23z" />
    <glyph glyph-name="R" unicode="R" horiz-adv-x="537" 
d="M509.5 408.5q-25.5 -48.5 -67 -78t-91.5 -42.5l132 -288h-95l-121 279h-91l-39 -279h-86l97 692q90 15 163 15q76 0 126 -24.5t74 -66t24 -93.5q0 -66 -25.5 -114.5zM187 354h91q48 0 86 17.5t60 53.5t22 89q0 56 -33.5 86.5t-99.5 30.5q-45 0 -88 -7z" />
    <glyph glyph-name="Racute" unicode="&#x154;" horiz-adv-x="537" 
d="M509.5 408.5q-25.5 -48.5 -67 -78t-91.5 -42.5l132 -288h-95l-121 279h-91l-39 -279h-86l97 692q90 15 163 15q76 0 126 -24.5t74 -66t24 -93.5q0 -66 -25.5 -114.5zM187 354h91q48 0 86 17.5t60 53.5t22 89q0 56 -33.5 86.5t-99.5 30.5q-45 0 -88 -7zM366 877
q9 3 24.5 4.5t30.5 1.5q37 0 58 -8q-35 -43 -82.5 -75t-94.5 -37h-17z" />
    <glyph glyph-name="Rcaron" unicode="&#x158;" horiz-adv-x="537" 
d="M509.5 408.5q-25.5 -48.5 -67 -78t-91.5 -42.5l132 -288h-95l-121 279h-91l-39 -279h-86l97 692q90 15 163 15q76 0 126 -24.5t74 -66t24 -93.5q0 -66 -25.5 -114.5zM187 354h91q48 0 86 17.5t60 53.5t22 89q0 56 -33.5 86.5t-99.5 30.5q-45 0 -88 -7zM386 766
q-20 -5 -53 -5q-32 0 -51 5l-76 123h32q32 -6 56.5 -25.5t45.5 -51.5q66 66 130 77h27z" />
    <glyph glyph-name="uni0156" unicode="&#x156;" horiz-adv-x="537" 
d="M509.5 408.5q-25.5 -48.5 -67 -78t-91.5 -42.5l132 -288h-95l-121 279h-91l-39 -279h-86l97 692q90 15 163 15q76 0 126 -24.5t74 -66t24 -93.5q0 -66 -25.5 -114.5zM187 354h91q48 0 86 17.5t60 53.5t22 89q0 56 -33.5 86.5t-99.5 30.5q-45 0 -88 -7zM191 -161
q8 39 14 86q40 13 85 14q-12 -57 -37 -102.5t-59 -77.5h-23q12 41 20 80z" />
    <glyph glyph-name="S" unicode="S" horiz-adv-x="503" 
d="M95.5 -2q-50.5 13 -82.5 35q3 22 7.5 38.5t11.5 34.5q36 -22 80 -33.5t88 -11.5q50 0 87.5 16t58.5 46t21 70q0 31 -10.5 51.5t-32 35.5t-59.5 30l-43 17q-67 28 -103.5 69.5t-36.5 104.5t31.5 110t87 71.5t125.5 24.5q47 0 88.5 -9t82.5 -27q-4 -20 -8.5 -37.5
t-11.5 -34.5q-68 32 -151 32q-49 0 -84.5 -15.5t-53.5 -42.5t-18 -61q0 -31 11.5 -52t34.5 -36t63 -31l38 -15q64 -25 102 -66t38 -111q0 -67 -32 -116t-91 -74.5t-139 -25.5q-49 0 -99.5 13z" />
    <glyph glyph-name="Sacute" unicode="&#x15a;" horiz-adv-x="503" 
d="M95.5 -2q-50.5 13 -82.5 35q3 22 7.5 38.5t11.5 34.5q36 -22 80 -33.5t88 -11.5q50 0 87.5 16t58.5 46t21 70q0 31 -10.5 51.5t-32 35.5t-59.5 30l-43 17q-67 28 -103.5 69.5t-36.5 104.5t31.5 110t87 71.5t125.5 24.5q47 0 88.5 -9t82.5 -27q-4 -20 -8.5 -37.5
t-11.5 -34.5q-68 32 -151 32q-49 0 -84.5 -15.5t-53.5 -42.5t-18 -61q0 -31 11.5 -52t34.5 -36t63 -31l38 -15q64 -25 102 -66t38 -111q0 -67 -32 -116t-91 -74.5t-139 -25.5q-49 0 -99.5 13zM356 877q9 3 24.5 4.5t30.5 1.5q37 0 58 -8q-35 -43 -82.5 -75t-94.5 -37h-17z
" />
    <glyph glyph-name="Scaron" unicode="&#x160;" horiz-adv-x="503" 
d="M95.5 -2q-50.5 13 -82.5 35q3 22 7.5 38.5t11.5 34.5q36 -22 80 -33.5t88 -11.5q50 0 87.5 16t58.5 46t21 70q0 31 -10.5 51.5t-32 35.5t-59.5 30l-43 17q-67 28 -103.5 69.5t-36.5 104.5t31.5 110t87 71.5t125.5 24.5q47 0 88.5 -9t82.5 -27q-4 -20 -8.5 -37.5
t-11.5 -34.5q-68 32 -151 32q-49 0 -84.5 -15.5t-53.5 -42.5t-18 -61q0 -31 11.5 -52t34.5 -36t63 -31l38 -15q64 -25 102 -66t38 -111q0 -67 -32 -116t-91 -74.5t-139 -25.5q-49 0 -99.5 13zM376 766q-20 -5 -53 -5q-32 0 -51 5l-76 123h32q32 -6 56.5 -25.5t45.5 -51.5
q66 66 130 77h27z" />
    <glyph glyph-name="Scedilla" unicode="&#x15e;" horiz-adv-x="503" 
d="M241.5 615.5q-35.5 -15.5 -53.5 -42.5t-18 -61q0 -31 11.5 -52t34.5 -36t63 -31l38 -15q64 -25 102 -66t38 -111q0 -62 -27 -108t-77 -73t-119 -33l-18 -37q31 -9 47.5 -25.5t16.5 -44.5q0 -41 -27.5 -63.5t-73.5 -22.5q-18 0 -37.5 4t-33.5 10q4 23 14 45q26 -10 50 -10
t37 9t13 25q0 18 -18.5 27.5t-58.5 10.5l33 70q-46 2 -91 15t-74 33q3 22 7.5 38.5t11.5 34.5q36 -22 80 -33.5t88 -11.5q50 0 87.5 16t58.5 46t21 70q0 31 -10.5 51.5t-32 35.5t-59.5 30l-43 17q-67 28 -103.5 69.5t-36.5 104.5t31.5 110t87 71.5t125.5 24.5q47 0 88.5 -9
t82.5 -27q-4 -20 -8.5 -37.5t-11.5 -34.5q-68 32 -151 32q-49 0 -84.5 -15.5z" />
    <glyph glyph-name="Scircumflex" unicode="&#x15c;" horiz-adv-x="503" 
d="M95.5 -2q-50.5 13 -82.5 35q3 22 7.5 38.5t11.5 34.5q36 -22 80 -33.5t88 -11.5q50 0 87.5 16t58.5 46t21 70q0 31 -10.5 51.5t-32 35.5t-59.5 30l-43 17q-67 28 -103.5 69.5t-36.5 104.5t31.5 110t87 71.5t125.5 24.5q47 0 88.5 -9t82.5 -27q-4 -20 -8.5 -37.5
t-11.5 -34.5q-68 32 -151 32q-49 0 -84.5 -15.5t-53.5 -42.5t-18 -61q0 -31 11.5 -52t34.5 -36t63 -31l38 -15q64 -25 102 -66t38 -111q0 -67 -32 -116t-91 -74.5t-139 -25.5q-49 0 -99.5 13zM307 884q24 6 53 6t51 -6l77 -122h-33q-31 5 -55 24.5t-47 52.5
q-68 -68 -129 -77h-28z" />
    <glyph glyph-name="uni0218" unicode="&#x218;" horiz-adv-x="503" 
d="M95.5 -2q-50.5 13 -82.5 35q3 22 7.5 38.5t11.5 34.5q36 -22 80 -33.5t88 -11.5q50 0 87.5 16t58.5 46t21 70q0 31 -10.5 51.5t-32 35.5t-59.5 30l-43 17q-67 28 -103.5 69.5t-36.5 104.5t31.5 110t87 71.5t125.5 24.5q47 0 88.5 -9t82.5 -27q-4 -20 -8.5 -37.5
t-11.5 -34.5q-68 32 -151 32q-49 0 -84.5 -15.5t-53.5 -42.5t-18 -61q0 -31 11.5 -52t34.5 -36t63 -31l38 -15q64 -25 102 -66t38 -111q0 -67 -32 -116t-91 -74.5t-139 -25.5q-49 0 -99.5 13zM149 -161q8 39 14 86q40 13 85 14q-12 -57 -37 -102.5t-59 -77.5h-23
q12 41 20 80z" />
    <glyph glyph-name="uni1E9E" unicode="&#x1e9e;" horiz-adv-x="654" 
d="M639 627l-185 -219q44 -7 78.5 -31t54.5 -63.5t20 -90.5q0 -69 -32 -122t-88 -82.5t-127 -29.5q-60 0 -107 15q8 38 23 72q19 -5 37 -7.5t44 -2.5q49 0 85 20t55.5 56t19.5 85q0 58 -37.5 87t-100.5 29h-36q0 12 3.5 31t9.5 30l176 211h-137q-87 0 -134 -38t-59 -127
l-64 -450h-87l65 460q16 111 84 171.5t210 60.5h245q-5 -35 -16 -65z" />
    <glyph glyph-name="uni018F" unicode="&#x18f;" horiz-adv-x="625" 
d="M533 633.5q65 -73.5 65 -206.5q0 -119 -36 -219.5t-107 -161.5t-170 -61q-121 0 -178 67t-57 181q0 34 3 64.5t11 72.5h443q2 38 2 59q0 101 -44 149.5t-142 48.5q-109 0 -204 -52q2 21 7.5 45t14.5 42q36 19 84.5 32t106.5 13q136 0 201 -73.5zM422.5 127.5
q52.5 62.5 73.5 165.5h-357q-3 -27 -3 -55q0 -86 37.5 -129.5t111.5 -43.5q85 0 137.5 62.5z" />
    <glyph glyph-name="T" unicode="T" horiz-adv-x="499" 
d="M547.5 652.5q-5.5 -20.5 -11.5 -39.5h-193l-86 -613h-87l86 613h-198q2 18 7.5 39.5t11.5 39.5h479q-3 -19 -8.5 -39.5z" />
    <glyph glyph-name="Tbar" unicode="&#x166;" horiz-adv-x="499" 
d="M343 613l-31 -222h139q-5 -40 -17 -69h-132l-45 -322h-87l45 322h-136q3 17 7 35.5t10 33.5h129l31 222h-198q2 18 7.5 39.5t11.5 39.5h479q-3 -19 -8.5 -39.5t-11.5 -39.5h-193z" />
    <glyph glyph-name="Tcaron" unicode="&#x164;" horiz-adv-x="499" 
d="M547.5 652.5q-5.5 -20.5 -11.5 -39.5h-193l-86 -613h-87l86 613h-198q2 18 7.5 39.5t11.5 39.5h479q-3 -19 -8.5 -39.5zM364 766q-20 -5 -53 -5q-32 0 -51 5l-76 123h32q32 -6 56.5 -25.5t45.5 -51.5q66 66 130 77h27z" />
    <glyph glyph-name="uni0162" unicode="&#x162;" horiz-adv-x="499" 
d="M243 0l-24 -50q31 -9 47 -25.5t16 -44.5q0 -41 -27.5 -63.5t-73.5 -22.5q-18 0 -37.5 4t-33.5 10q2 13 5.5 23.5t9.5 21.5q26 -10 50 -10q23 0 36 9t13 25q0 18 -18.5 27.5t-58.5 10.5l40 85h-17l86 613h-198q2 18 7.5 39.5t11.5 39.5h479q-3 -19 -8.5 -39.5t-11.5 -39.5
h-193l-86 -613h-14z" />
    <glyph glyph-name="uni021A" unicode="&#x21a;" horiz-adv-x="499" 
d="M547.5 652.5q-5.5 -20.5 -11.5 -39.5h-193l-86 -613h-87l86 613h-198q2 18 7.5 39.5t11.5 39.5h479q-3 -19 -8.5 -39.5zM151 -161q8 39 14 86q40 13 85 14q-12 -57 -37 -102.5t-59 -77.5h-23q12 41 20 80z" />
    <glyph glyph-name="U" unicode="U" horiz-adv-x="629" 
d="M170 10q-51 25 -79 71.5t-28 109.5q0 20 3 41l64 454q19 6 43.5 10t44.5 4l-67 -471q-2 -12 -2 -33q0 -66 38 -99t106 -33q76 0 121.5 41.5t57.5 124.5l64 456q18 6 43 10t45 4l-67 -475q-10 -73 -43.5 -126.5t-90 -83.5t-133.5 -30q-69 0 -120 25z" />
    <glyph glyph-name="Uacute" unicode="&#xda;" horiz-adv-x="629" 
d="M170 10q-51 25 -79 71.5t-28 109.5q0 20 3 41l64 454q19 6 43.5 10t44.5 4l-67 -471q-2 -12 -2 -33q0 -66 38 -99t106 -33q76 0 121.5 41.5t57.5 124.5l64 456q18 6 43 10t45 4l-67 -475q-10 -73 -43.5 -126.5t-90 -83.5t-133.5 -30q-69 0 -120 25zM409 877q9 3 24.5 4.5
t30.5 1.5q37 0 58 -8q-35 -43 -82.5 -75t-94.5 -37h-17z" />
    <glyph glyph-name="Ubreve" unicode="&#x16c;" horiz-adv-x="629" 
d="M170 10q-51 25 -79 71.5t-28 109.5q0 20 3 41l64 454q19 6 43.5 10t44.5 4l-67 -471q-2 -12 -2 -33q0 -66 38 -99t106 -33q76 0 121.5 41.5t57.5 124.5l64 456q18 6 43 10t45 4l-67 -475q-10 -73 -43.5 -126.5t-90 -83.5t-133.5 -30q-69 0 -120 25zM290.5 791.5
q-33.5 31.5 -35.5 84.5q14 2 31 3.5t31 1.5q8 -62 71 -62t86 62q14 0 31 -1.5t31 -3.5q-34 -116 -149 -116q-63 0 -96.5 31.5z" />
    <glyph glyph-name="Ucircumflex" unicode="&#xdb;" horiz-adv-x="629" 
d="M170 10q-51 25 -79 71.5t-28 109.5q0 20 3 41l64 454q19 6 43.5 10t44.5 4l-67 -471q-2 -12 -2 -33q0 -66 38 -99t106 -33q76 0 121.5 41.5t57.5 124.5l64 456q18 6 43 10t45 4l-67 -475q-10 -73 -43.5 -126.5t-90 -83.5t-133.5 -30q-69 0 -120 25zM360 884q24 6 53 6
t51 -6l77 -122h-33q-31 5 -55 24.5t-47 52.5q-68 -68 -129 -77h-28z" />
    <glyph glyph-name="Udieresis" unicode="&#xdc;" horiz-adv-x="629" 
d="M170 10q-51 25 -79 71.5t-28 109.5q0 20 3 41l64 454q19 6 43.5 10t44.5 4l-67 -471q-2 -12 -2 -33q0 -66 38 -99t106 -33q76 0 121.5 41.5t57.5 124.5l64 456q18 6 43 10t45 4l-67 -475q-10 -73 -43.5 -126.5t-90 -83.5t-133.5 -30q-69 0 -120 25zM261 782.5
q-15 15.5 -15 39.5q0 23 15.5 38t38.5 15t38 -15t15 -38q0 -24 -15 -39.5t-38 -15.5q-24 0 -39 15.5zM454 782.5q-15 15.5 -15 39.5q0 23 15 38t38 15t38 -15t15 -38q0 -24 -15 -39.5t-38 -15.5t-38 15.5z" />
    <glyph glyph-name="Ugrave" unicode="&#xd9;" horiz-adv-x="629" 
d="M170 10q-51 25 -79 71.5t-28 109.5q0 20 3 41l64 454q19 6 43.5 10t44.5 4l-67 -471q-2 -12 -2 -33q0 -66 38 -99t106 -33q76 0 121.5 41.5t57.5 124.5l64 456q18 6 43 10t45 4l-67 -475q-10 -73 -43.5 -126.5t-90 -83.5t-133.5 -30q-69 0 -120 25zM445 763q-47 5 -95 37
t-83 75q22 8 59 8q15 0 30.5 -1.5t24.5 -4.5l80 -114h-16z" />
    <glyph glyph-name="Uhungarumlaut" unicode="&#x170;" horiz-adv-x="629" 
d="M170 10q-51 25 -79 71.5t-28 109.5q0 20 3 41l64 454q19 6 43.5 10t44.5 4l-67 -471q-2 -12 -2 -33q0 -66 38 -99t106 -33q76 0 121.5 41.5t57.5 124.5l64 456q18 6 43 10t45 4l-67 -475q-10 -73 -43.5 -126.5t-90 -83.5t-133.5 -30q-69 0 -120 25zM351 879q19 5 55 5
q30 0 39 -2q-14 -27 -42.5 -53.5t-62 -45t-63.5 -21.5h-13zM489 879q18 5 54 5q31 0 40 -2q-14 -26 -42.5 -52.5t-62.5 -45t-64 -22.5h-12z" />
    <glyph glyph-name="Umacron" unicode="&#x16a;" horiz-adv-x="629" 
d="M170 10q-51 25 -79 71.5t-28 109.5q0 20 3 41l64 454q19 6 43.5 10t44.5 4l-67 -471q-2 -12 -2 -33q0 -66 38 -99t106 -33q76 0 121.5 41.5t57.5 124.5l64 456q18 6 43 10t45 4l-67 -475q-10 -73 -43.5 -126.5t-90 -83.5t-133.5 -30q-69 0 -120 25zM282 855h244
q-4 -25 -17 -64h-245q5 30 18 64z" />
    <glyph glyph-name="Uogonek" unicode="&#x172;" horiz-adv-x="629" 
d="M579 696q25 4 45 4l-67 -475q-11 -84 -54.5 -142.5t-114.5 -82.5q-33 -22 -52 -51.5t-19 -57.5q0 -39 44 -39q21 0 48 9q-2 -14 -6 -28t-10 -30q-22 -9 -58 -9q-40 0 -63.5 21.5t-23.5 64.5q0 25 15 53t45 52h-18q-69 0 -120 25t-79 71.5t-28 109.5q0 20 3 41l64 454
q19 6 43.5 10t44.5 4l-67 -471q-2 -12 -2 -33q0 -66 38 -99t106 -33q76 0 121.5 41.5t57.5 124.5l64 456q18 6 43 10z" />
    <glyph glyph-name="Uring" unicode="&#x16e;" horiz-adv-x="629" 
d="M170 10q-51 25 -79 71.5t-28 109.5q0 20 3 41l64 454q19 6 43.5 10t44.5 4l-67 -471q-2 -12 -2 -33q0 -66 38 -99t106 -33q76 0 121.5 41.5t57.5 124.5l64 456q18 6 43 10t45 4l-67 -475q-10 -73 -43.5 -126.5t-90 -83.5t-133.5 -30q-69 0 -120 25zM343.5 756
q-23.5 13 -37 35t-13.5 50q0 27 13.5 49.5t37 35t53.5 12.5t53.5 -13t37 -35t13.5 -50q0 -27 -13.5 -49t-37.5 -35t-53 -13q-30 0 -53.5 13zM435 804q14 14 14 36t-14.5 36t-37.5 14t-37.5 -14t-14.5 -35q0 -23 14 -37t38 -14t38 14z" />
    <glyph glyph-name="Utilde" unicode="&#x168;" horiz-adv-x="629" 
d="M170 10q-51 25 -79 71.5t-28 109.5q0 20 3 41l64 454q19 6 43.5 10t44.5 4l-67 -471q-2 -12 -2 -33q0 -66 38 -99t106 -33q76 0 121.5 41.5t57.5 124.5l64 456q18 6 43 10t45 4l-67 -475q-10 -73 -43.5 -126.5t-90 -83.5t-133.5 -30q-69 0 -120 25zM419.5 757.5
q-20.5 10.5 -45.5 28.5l-13.5 9t-17.5 10.5t-12 3.5q-10 0 -14.5 -6.5t-6.5 -21.5l-4 -32h-65l6 42q6 42 25 62t52 20q22 0 42 -10.5t45 -29.5q12 -9 23.5 -15.5t18.5 -6.5q9 0 15 6.5t7 20.5l5 33h64l-7 -45q-7 -42 -25.5 -60.5t-51.5 -18.5q-20 0 -40.5 10.5z" />
    <glyph glyph-name="V" unicode="V" horiz-adv-x="556" 
d="M608 692l-316 -692h-97l-122 692h90l91 -603l264 603h90z" />
    <glyph glyph-name="W" unicode="W" horiz-adv-x="918" 
d="M959 692l-292 -692h-102l-64 547l-218 -547h-104l-96 692h89l69 -603l237 603h83l69 -601l237 601h92z" />
    <glyph glyph-name="Wacute" unicode="&#x1e82;" horiz-adv-x="918" 
d="M959 692l-292 -692h-102l-64 547l-218 -547h-104l-96 692h89l69 -603l237 603h83l69 -601l237 601h92zM551 877q9 3 24.5 4.5t30.5 1.5q37 0 58 -8q-35 -43 -82.5 -75t-94.5 -37h-17z" />
    <glyph glyph-name="Wcircumflex" unicode="&#x174;" horiz-adv-x="918" 
d="M959 692l-292 -692h-102l-64 547l-218 -547h-104l-96 692h89l69 -603l237 603h83l69 -601l237 601h92zM502 884q24 6 53 6t51 -6l77 -122h-33q-31 5 -55 24.5t-47 52.5q-68 -68 -129 -77h-28z" />
    <glyph glyph-name="Wdieresis" unicode="&#x1e84;" horiz-adv-x="918" 
d="M959 692l-292 -692h-102l-64 547l-218 -547h-104l-96 692h89l69 -603l237 603h83l69 -601l237 601h92zM403 782.5q-15 15.5 -15 39.5q0 23 15.5 38t38.5 15t38 -15t15 -38q0 -24 -15 -39.5t-38 -15.5q-24 0 -39 15.5zM596 782.5q-15 15.5 -15 39.5q0 23 15 38t38 15
t38 -15t15 -38q0 -24 -15 -39.5t-38 -15.5t-38 15.5z" />
    <glyph glyph-name="Wgrave" unicode="&#x1e80;" horiz-adv-x="918" 
d="M959 692l-292 -692h-102l-64 547l-218 -547h-104l-96 692h89l69 -603l237 603h83l69 -601l237 601h92zM587 763q-47 5 -95 37t-83 75q22 8 59 8q15 0 30.5 -1.5t24.5 -4.5l80 -114h-16z" />
    <glyph glyph-name="X" unicode="X" horiz-adv-x="541" 
d="M330 356l172 -356h-91l-133 285l-212 -285h-97l274 360l-157 332h90l118 -265l196 265h93z" />
    <glyph glyph-name="Y" unicode="Y" horiz-adv-x="514" 
d="M304 273l-38 -273h-87l39 276l-162 416h91l123 -338l219 338h93z" />
    <glyph glyph-name="Yacute" unicode="&#xdd;" horiz-adv-x="514" 
d="M304 273l-38 -273h-87l39 276l-162 416h91l123 -338l219 338h93zM352 877q9 3 24.5 4.5t30.5 1.5q37 0 58 -8q-35 -43 -82.5 -75t-94.5 -37h-17z" />
    <glyph glyph-name="Ycircumflex" unicode="&#x176;" horiz-adv-x="514" 
d="M304 273l-38 -273h-87l39 276l-162 416h91l123 -338l219 338h93zM303 884q24 6 53 6t51 -6l77 -122h-33q-31 5 -55 24.5t-47 52.5q-68 -68 -129 -77h-28z" />
    <glyph glyph-name="Ydieresis" unicode="&#x178;" horiz-adv-x="514" 
d="M304 273l-38 -273h-87l39 276l-162 416h91l123 -338l219 338h93zM205 782.5q-15 15.5 -15 39.5q0 23 15.5 38t38.5 15t38 -15t15 -38q0 -24 -15 -39.5t-38 -15.5q-24 0 -39 15.5zM398 782.5q-15 15.5 -15 39.5q0 23 15 38t38 15t38 -15t15 -38q0 -24 -15 -39.5t-38 -15.5
t-38 15.5z" />
    <glyph glyph-name="Ygrave" unicode="&#x1ef2;" horiz-adv-x="514" 
d="M304 273l-38 -273h-87l39 276l-162 416h91l123 -338l219 338h93zM388 763q-47 5 -95 37t-83 75q22 8 59 8q15 0 30.5 -1.5t24.5 -4.5l80 -114h-16z" />
    <glyph glyph-name="Z" unicode="Z" horiz-adv-x="519" 
d="M532 626l-404 -547h339q-12 -57 -20 -79h-442q3 30 13 69l404 544h-337q8 47 19 79h442q-5 -36 -14 -66z" />
    <glyph glyph-name="Zacute" unicode="&#x179;" horiz-adv-x="519" 
d="M532 626l-404 -547h339q-12 -57 -20 -79h-442q3 30 13 69l404 544h-337q8 47 19 79h442q-5 -36 -14 -66zM353 877q9 3 24.5 4.5t30.5 1.5q37 0 58 -8q-35 -43 -82.5 -75t-94.5 -37h-17z" />
    <glyph glyph-name="Zcaron" unicode="&#x17d;" horiz-adv-x="519" 
d="M532 626l-404 -547h339q-12 -57 -20 -79h-442q3 30 13 69l404 544h-337q8 47 19 79h442q-5 -36 -14 -66zM373 766q-20 -5 -53 -5q-32 0 -51 5l-76 123h32q32 -6 56.5 -25.5t45.5 -51.5q66 66 130 77h27z" />
    <glyph glyph-name="Zdotaccent" unicode="&#x17b;" horiz-adv-x="519" 
d="M532 626l-404 -547h339q-12 -57 -20 -79h-442q3 30 13 69l404 544h-337q8 47 19 79h442q-5 -36 -14 -66zM300 781.5q-15 14.5 -15 38.5t15 39t38 15t38 -15t15 -39t-15 -38.5t-38 -14.5t-38 14.5z" />
    <glyph glyph-name="a" unicode="a" horiz-adv-x="524" 
d="M483 479l-68 -479h-77l4 63q-25 -37 -58 -56t-78 -19q-79 0 -124 48t-45 143q0 94 30.5 168.5t92 117.5t150.5 43q99 0 173 -29zM291.5 72q28.5 13 54.5 36l45 319q-38 10 -82 10q-63 0 -104.5 -34t-61 -90t-19.5 -125q0 -65 25 -97t81 -32q33 0 61.5 13z" />
    <glyph glyph-name="aacute" unicode="&#xe1;" horiz-adv-x="524" 
d="M483 479l-68 -479h-77l4 63q-25 -37 -58 -56t-78 -19q-79 0 -124 48t-45 143q0 94 30.5 168.5t92 117.5t150.5 43q99 0 173 -29zM291.5 72q28.5 13 54.5 36l45 319q-38 10 -82 10q-63 0 -104.5 -34t-61 -90t-19.5 -125q0 -65 25 -97t81 -32q33 0 61.5 13zM306 716
q21 8 50.5 12t53.5 4q-14 -37 -39.5 -70t-57 -56t-63.5 -31h-5z" />
    <glyph glyph-name="abreve" unicode="&#x103;" horiz-adv-x="524" 
d="M483 479l-68 -479h-77l4 63q-25 -37 -58 -56t-78 -19q-79 0 -124 48t-45 143q0 94 30.5 168.5t92 117.5t150.5 43q99 0 173 -29zM291.5 72q28.5 13 54.5 36l45 319q-38 10 -82 10q-63 0 -104.5 -34t-61 -90t-19.5 -125q0 -65 25 -97t81 -32q33 0 61.5 13zM243.5 594
q-28.5 18 -42 48.5t-12.5 68.5q25 6 61 6q0 -36 16 -58t49 -22q34 0 56 21.5t32 58.5q41 0 60 -6q-16 -61 -52 -98t-96 -37q-43 0 -71.5 18z" />
    <glyph glyph-name="acircumflex" unicode="&#xe2;" horiz-adv-x="524" 
d="M483 479l-68 -479h-77l4 63q-25 -37 -58 -56t-78 -19q-79 0 -124 48t-45 143q0 94 30.5 168.5t92 117.5t150.5 43q99 0 173 -29zM291.5 72q28.5 13 54.5 36l45 319q-38 10 -82 10q-63 0 -104.5 -34t-61 -90t-19.5 -125q0 -65 25 -97t81 -32q33 0 61.5 13zM452 582h-45
q-21 17 -36.5 34t-38.5 54q-35 -36 -58 -55t-47 -33h-45l112 145q17 4 44 4q23 0 41 -3z" />
    <glyph glyph-name="adieresis" unicode="&#xe4;" horiz-adv-x="524" 
d="M483 479l-68 -479h-77l4 63q-25 -37 -58 -56t-78 -19q-79 0 -124 48t-45 143q0 94 30.5 168.5t92 117.5t150.5 43q99 0 173 -29zM291.5 72q28.5 13 54.5 36l45 319q-38 10 -82 10q-63 0 -104.5 -34t-61 -90t-19.5 -125q0 -65 25 -97t81 -32q33 0 61.5 13zM200.5 618
q-14.5 15 -14.5 39q0 23 14.5 38t37.5 15t38 -14.5t15 -38.5t-15 -39t-38 -15t-37.5 15zM377.5 618q-14.5 15 -14.5 38q0 25 14.5 39.5t37.5 14.5t37.5 -15t14.5 -39q0 -23 -14.5 -38t-37.5 -15t-37.5 15z" />
    <glyph glyph-name="agrave" unicode="&#xe0;" horiz-adv-x="524" 
d="M483 479l-68 -479h-77l4 63q-25 -37 -58 -56t-78 -19q-79 0 -124 48t-45 143q0 94 30.5 168.5t92 117.5t150.5 43q99 0 173 -29zM291.5 72q28.5 13 54.5 36l45 319q-38 10 -82 10q-63 0 -104.5 -34t-61 -90t-19.5 -125q0 -65 25 -97t81 -32q33 0 61.5 13zM371 575
q-32 8 -63.5 31t-57 56t-39.5 70q23 0 53 -4t51 -12l61 -141h-5z" />
    <glyph glyph-name="amacron" unicode="&#x101;" horiz-adv-x="524" 
d="M483 479l-68 -479h-77l4 63q-25 -37 -58 -56t-78 -19q-79 0 -124 48t-45 143q0 94 30.5 168.5t92 117.5t150.5 43q99 0 173 -29zM291.5 72q28.5 13 54.5 36l45 319q-38 10 -82 10q-63 0 -104.5 -34t-61 -90t-19.5 -125q0 -65 25 -97t81 -32q33 0 61.5 13zM215 688h242
q-6 -32 -18 -67h-242q6 35 18 67z" />
    <glyph glyph-name="aogonek" unicode="&#x105;" horiz-adv-x="524" 
d="M331.5 -54.5q-23.5 -32.5 -23.5 -64.5q0 -39 44 -39q21 0 48 9q-6 -28 -16 -58q-22 -9 -58 -9q-40 0 -63.5 21.5t-23.5 64.5q0 33 24.5 68.5t74.5 64.5l4 60q-25 -37 -58 -56t-78 -19q-79 0 -124 48t-45 143q0 94 30.5 168.5t92 117.5t150.5 43q99 0 173 -29l-68 -479
h-20q-40 -22 -63.5 -54.5zM291.5 72q28.5 13 54.5 36l45 319q-38 10 -82 10q-63 0 -104.5 -34t-61 -90t-19.5 -125q0 -65 25 -97t81 -32q33 0 61.5 13z" />
    <glyph glyph-name="aring" unicode="&#xe5;" horiz-adv-x="524" 
d="M483 479l-68 -479h-77l4 63q-25 -37 -58 -56t-78 -19q-79 0 -124 48t-45 143q0 94 30.5 168.5t92 117.5t150.5 43q99 0 173 -29zM291.5 72q28.5 13 54.5 36l45 319q-38 10 -82 10q-63 0 -104.5 -34t-61 -90t-19.5 -125q0 -65 25 -97t81 -32q33 0 61.5 13zM275 579
q-24 13 -38 36.5t-14 52.5q0 30 14 53t38 36t53 13t52.5 -13t37.5 -36.5t14 -52.5t-13.5 -52.5t-37.5 -36.5t-53 -13t-53 13zM365 630q14 15 14 38q0 22 -14 37.5t-37 15.5t-37.5 -15t-14.5 -38t14.5 -38t37.5 -15t37 15z" />
    <glyph glyph-name="aringacute" unicode="&#x1fb;" horiz-adv-x="524" 
d="M483 479l-68 -479h-77l4 63q-25 -37 -58 -56t-78 -19q-79 0 -124 48t-45 143q0 94 30.5 168.5t92 117.5t150.5 43q99 0 173 -29zM291.5 72q28.5 13 54.5 36l45 319q-38 10 -82 10q-63 0 -104.5 -34t-61 -90t-19.5 -125q0 -65 25 -97t81 -32q33 0 61.5 13zM275 579
q-24 13 -38 36.5t-14 52.5q0 30 14 53t38 36t53 13t52.5 -13t37.5 -36.5t14 -52.5t-13.5 -52.5t-37.5 -36.5t-53 -13t-53 13zM365 630q14 15 14 38q0 22 -14 37.5t-37 15.5t-37.5 -15t-14.5 -38t14.5 -38t37.5 -15t37 15zM342 955q21 8 50.5 12t53.5 4q-14 -37 -39.5 -70
t-57 -56t-63.5 -31h-5z" />
    <glyph glyph-name="atilde" unicode="&#xe3;" horiz-adv-x="524" 
d="M483 479l-68 -479h-77l4 63q-25 -37 -58 -56t-78 -19q-79 0 -124 48t-45 143q0 94 30.5 168.5t92 117.5t150.5 43q99 0 173 -29zM291.5 72q28.5 13 54.5 36l45 319q-38 10 -82 10q-63 0 -104.5 -34t-61 -90t-19.5 -125q0 -65 25 -97t81 -32q33 0 61.5 13zM351.5 599
q-13.5 9 -33.5 27q-14 13 -22.5 19t-16.5 6t-13 -6t-7 -21l-4 -32h-49l8 57q9 56 60 56q15 0 29 -9.5t32 -26.5q11 -10 21.5 -17.5t17.5 -7.5q9 0 13.5 6t6.5 21l4 32h49l-8 -57q-9 -56 -59 -56q-15 0 -28.5 9z" />
    <glyph glyph-name="ae" unicode="&#xe6;" horiz-adv-x="778" 
d="M406 229q-1 -9 -1 -27q0 -77 33 -110t103 -33q38 0 78 10.5t78 29.5q-5 -42 -19 -79q-32 -15 -70.5 -23.5t-77.5 -8.5q-129 0 -177 82q-35 -42 -79 -62t-104 -20q-42 0 -75 16t-51.5 45.5t-18.5 69.5q0 65 37 102t102 53.5t161 22.5l8 1q10 37 10 66q0 40 -21.5 56.5
t-67.5 16.5q-80 0 -163 -36q0 16 3 36.5t8 37.5q34 15 77.5 24t89.5 9q106 0 136 -67q64 67 163 67q86 0 131.5 -46.5t45.5 -126.5q0 -23 -5 -55t-12 -51h-322zM467 399q-36 -38 -51 -102h239q4 20 4 42q0 98 -98 98q-58 0 -94 -38zM266 74q39 17 67 48q-8 35 -8 72
q0 25 1 37h-4q-70 -3 -116 -13t-71.5 -32t-25.5 -60q0 -31 20 -50t56 -19q42 0 81 17z" />
    <glyph glyph-name="aeacute" unicode="&#x1fd;" horiz-adv-x="778" 
d="M406 229q-1 -9 -1 -27q0 -77 33 -110t103 -33q38 0 78 10.5t78 29.5q-5 -42 -19 -79q-32 -15 -70.5 -23.5t-77.5 -8.5q-129 0 -177 82q-35 -42 -79 -62t-104 -20q-42 0 -75 16t-51.5 45.5t-18.5 69.5q0 65 37 102t102 53.5t161 22.5l8 1q10 37 10 66q0 40 -21.5 56.5
t-67.5 16.5q-80 0 -163 -36q0 16 3 36.5t8 37.5q34 15 77.5 24t89.5 9q106 0 136 -67q64 67 163 67q86 0 131.5 -46.5t45.5 -126.5q0 -23 -5 -55t-12 -51h-322zM467 399q-36 -38 -51 -102h239q4 20 4 42q0 98 -98 98q-58 0 -94 -38zM266 74q39 17 67 48q-8 35 -8 72
q0 25 1 37h-4q-70 -3 -116 -13t-71.5 -32t-25.5 -60q0 -31 20 -50t56 -19q42 0 81 17zM427 716q21 8 50.5 12t53.5 4q-14 -37 -39.5 -70t-57 -56t-63.5 -31h-5z" />
    <glyph glyph-name="b" unicode="b" horiz-adv-x="524" 
d="M442 460q45 -48 45 -143q0 -94 -30.5 -168.5t-92 -117.5t-150.5 -43q-99 0 -173 29l95 675q38 13 86 13l-37 -269q25 36 57 54t77 18q78 0 123 -48zM319.5 93q41.5 34 61 90t19.5 125q0 65 -25 97t-81 32q-34 0 -62 -13t-54 -37l-45 -318q34 -10 82 -10q63 0 104.5 34z
" />
    <glyph glyph-name="c" unicode="c" horiz-adv-x="420" 
d="M128 10.5q-44 22.5 -68.5 68.5t-24.5 113q0 92 31 163.5t92 112t148 40.5q61 0 107 -22q-1 -16 -5 -36t-9 -34q-25 10 -47.5 14.5t-46.5 4.5q-59 0 -100.5 -30.5t-62.5 -84t-21 -121.5q0 -67 32 -103.5t92 -36.5q27 0 57 7t54 18q-2 -18 -6.5 -39t-11.5 -38
q-20 -9 -48.5 -14t-57.5 -5q-60 0 -104 22.5z" />
    <glyph glyph-name="cacute" unicode="&#x107;" horiz-adv-x="420" 
d="M128 10.5q-44 22.5 -68.5 68.5t-24.5 113q0 92 31 163.5t92 112t148 40.5q61 0 107 -22q-1 -16 -5 -36t-9 -34q-25 10 -47.5 14.5t-46.5 4.5q-59 0 -100.5 -30.5t-62.5 -84t-21 -121.5q0 -67 32 -103.5t92 -36.5q27 0 57 7t54 18q-2 -18 -6.5 -39t-11.5 -38
q-20 -9 -48.5 -14t-57.5 -5q-60 0 -104 22.5zM292 716q21 8 50.5 12t53.5 4q-14 -37 -39.5 -70t-57 -56t-63.5 -31h-5z" />
    <glyph glyph-name="ccaron" unicode="&#x10d;" horiz-adv-x="420" 
d="M128 10.5q-44 22.5 -68.5 68.5t-24.5 113q0 92 31 163.5t92 112t148 40.5q61 0 107 -22q-1 -16 -5 -36t-9 -34q-25 10 -47.5 14.5t-46.5 4.5q-59 0 -100.5 -30.5t-62.5 -84t-21 -121.5q0 -67 32 -103.5t92 -36.5q27 0 57 7t54 18q-2 -18 -6.5 -39t-11.5 -38
q-20 -9 -48.5 -14t-57.5 -5q-60 0 -104 22.5zM446 728l-112 -145q-17 -4 -43 -4q-25 0 -41 4l-73 145h45q22 -18 36.5 -34.5t38.5 -53.5q34 37 57 55.5t48 32.5h44z" />
    <glyph glyph-name="ccedilla" unicode="&#xe7;" horiz-adv-x="420" 
d="M204.5 404.5q-41.5 -30.5 -62.5 -84t-21 -121.5q0 -67 32 -103.5t92 -36.5q27 0 57 7t54 18q-2 -18 -6.5 -39t-11.5 -38q-18 -8 -43.5 -13t-51.5 -6l-18 -38q31 -9 47.5 -25.5t16.5 -44.5q0 -40 -28 -63t-74 -23q-18 0 -37.5 4t-32.5 10q2 13 5 23.5t9 21.5
q26 -10 50 -10q23 0 36 9t13 25q0 18 -18.5 27t-57.5 11l36 76q-73 12 -114 62.5t-41 138.5q0 92 31 163.5t92 112t148 40.5q61 0 107 -22q-1 -16 -5 -36t-9 -34q-25 10 -47.5 14.5t-46.5 4.5q-59 0 -100.5 -30.5z" />
    <glyph glyph-name="ccircumflex" unicode="&#x109;" horiz-adv-x="420" 
d="M128 10.5q-44 22.5 -68.5 68.5t-24.5 113q0 92 31 163.5t92 112t148 40.5q61 0 107 -22q-1 -16 -5 -36t-9 -34q-25 10 -47.5 14.5t-46.5 4.5q-59 0 -100.5 -30.5t-62.5 -84t-21 -121.5q0 -67 32 -103.5t92 -36.5q27 0 57 7t54 18q-2 -18 -6.5 -39t-11.5 -38
q-20 -9 -48.5 -14t-57.5 -5q-60 0 -104 22.5zM437 582h-45q-21 17 -36.5 34t-38.5 54q-35 -36 -58 -55t-47 -33h-45l112 145q17 4 44 4q23 0 41 -3z" />
    <glyph glyph-name="cdotaccent" unicode="&#x10b;" horiz-adv-x="420" 
d="M128 10.5q-44 22.5 -68.5 68.5t-24.5 113q0 92 31 163.5t92 112t148 40.5q61 0 107 -22q-1 -16 -5 -36t-9 -34q-25 10 -47.5 14.5t-46.5 4.5q-59 0 -100.5 -30.5t-62.5 -84t-21 -121.5q0 -67 32 -103.5t92 -36.5q27 0 57 7t54 18q-2 -18 -6.5 -39t-11.5 -38
q-20 -9 -48.5 -14t-57.5 -5q-60 0 -104 22.5zM273 614.5q-16 15.5 -16 40.5q0 26 16 41.5t40 15.5t39 -15.5t15 -41.5q0 -24 -15.5 -40t-38.5 -16q-24 0 -40 15.5z" />
    <glyph glyph-name="d" unicode="d" horiz-adv-x="525" 
d="M515 705l-99 -705h-79l4 62q-25 -36 -57.5 -55t-77.5 -19q-79 0 -124 48t-45 143q0 94 30.5 168.5t92 117.5t150.5 43q53 0 91 -7l27 191q36 13 87 13zM292 72q28 13 54 37l45 318q-40 10 -82 10q-63 0 -104.5 -34t-61 -90t-19.5 -125q0 -65 25 -97t81 -32q34 0 62 13z
" />
    <glyph glyph-name="eth" unicode="&#xf0;" horiz-adv-x="511" 
d="M390 603q41 -49 62 -113.5t21 -138.5q0 -102 -26.5 -184t-83 -130.5t-142.5 -48.5q-55 0 -97 23.5t-65 67.5t-23 104q0 76 28 140t81.5 102t127.5 38q76 0 113 -44q-14 81 -67 140l-132 -82q3 32 16 72l77 48q-42 32 -99 52q8 15 23.5 32t29.5 26q67 -22 118 -65l131 81
q-5 -38 -18 -73zM321 100.5q37 41.5 54 107.5t17 141v5q-48 37 -112 37q-82 0 -120.5 -57.5t-38.5 -152.5q0 -56 26.5 -89t78.5 -33q58 0 95 41.5z" />
    <glyph glyph-name="dcaron" unicode="&#x10f;" horiz-adv-x="525" 
d="M515 705l-99 -705h-79l4 62q-25 -36 -57.5 -55t-77.5 -19q-79 0 -124 48t-45 143q0 94 30.5 168.5t92 117.5t150.5 43q53 0 91 -7l27 191q36 13 87 13zM292 72q28 13 54 37l45 318q-40 10 -82 10q-63 0 -104.5 -34t-61 -90t-19.5 -125q0 -65 25 -97t81 -32q34 0 62 13z
M584 606q8 39 14 86q40 13 85 14q-12 -57 -37 -102.5t-59 -77.5h-23q12 41 20 80z" />
    <glyph glyph-name="dcroat" unicode="&#x111;" horiz-adv-x="525" 
d="M565 572h-69l-80 -572h-79l4 62q-25 -36 -57.5 -55t-77.5 -19q-79 0 -124 48t-45 143q0 94 30.5 168.5t92 117.5t150.5 43q53 0 91 -7l10 71h-161q5 33 17 59h152l9 61q36 13 87 13l-10 -74h76q-2 -30 -16 -59zM292 72q28 13 54 37l45 318q-40 10 -82 10
q-63 0 -104.5 -34t-61 -90t-19.5 -125q0 -65 25 -97t81 -32q34 0 62 13z" />
    <glyph glyph-name="e" unicode="e" horiz-adv-x="496" 
d="M122 217v-15q0 -77 33 -110t103 -33q38 0 78 10.5t78 29.5q-5 -38 -20 -79q-31 -15 -69.5 -23.5t-77.5 -8.5q-106 0 -158.5 53.5t-52.5 152.5q0 89 28.5 160t85 112.5t135.5 41.5q58 0 97.5 -22.5t59.5 -63t20 -94.5q0 -22 -5.5 -57t-12.5 -54h-322zM181.5 396
q-36.5 -41 -50.5 -108h241q4 32 4 44q0 50 -24 77.5t-74 27.5q-60 0 -96.5 -41z" />
    <glyph glyph-name="eacute" unicode="&#xe9;" horiz-adv-x="496" 
d="M122 217v-15q0 -77 33 -110t103 -33q38 0 78 10.5t78 29.5q-5 -38 -20 -79q-31 -15 -69.5 -23.5t-77.5 -8.5q-106 0 -158.5 53.5t-52.5 152.5q0 89 28.5 160t85 112.5t135.5 41.5q58 0 97.5 -22.5t59.5 -63t20 -94.5q0 -22 -5.5 -57t-12.5 -54h-322zM181.5 396
q-36.5 -41 -50.5 -108h241q4 32 4 44q0 50 -24 77.5t-74 27.5q-60 0 -96.5 -41zM289 716q21 8 50.5 12t53.5 4q-14 -37 -39.5 -70t-57 -56t-63.5 -31h-5z" />
    <glyph glyph-name="ebreve" unicode="&#x115;" horiz-adv-x="496" 
d="M122 217v-15q0 -77 33 -110t103 -33q38 0 78 10.5t78 29.5q-5 -38 -20 -79q-31 -15 -69.5 -23.5t-77.5 -8.5q-106 0 -158.5 53.5t-52.5 152.5q0 89 28.5 160t85 112.5t135.5 41.5q58 0 97.5 -22.5t59.5 -63t20 -94.5q0 -22 -5.5 -57t-12.5 -54h-322zM181.5 396
q-36.5 -41 -50.5 -108h241q4 32 4 44q0 50 -24 77.5t-74 27.5q-60 0 -96.5 -41zM226.5 594q-28.5 18 -42 48.5t-12.5 68.5q25 6 61 6q0 -36 16 -58t49 -22q34 0 56 21.5t32 58.5q41 0 60 -6q-16 -61 -52 -98t-96 -37q-43 0 -71.5 18z" />
    <glyph glyph-name="ecaron" unicode="&#x11b;" horiz-adv-x="496" 
d="M122 217v-15q0 -77 33 -110t103 -33q38 0 78 10.5t78 29.5q-5 -38 -20 -79q-31 -15 -69.5 -23.5t-77.5 -8.5q-106 0 -158.5 53.5t-52.5 152.5q0 89 28.5 160t85 112.5t135.5 41.5q58 0 97.5 -22.5t59.5 -63t20 -94.5q0 -22 -5.5 -57t-12.5 -54h-322zM181.5 396
q-36.5 -41 -50.5 -108h241q4 32 4 44q0 50 -24 77.5t-74 27.5q-60 0 -96.5 -41zM444 728l-112 -145q-17 -4 -43 -4q-25 0 -41 4l-73 145h45q22 -18 36.5 -34.5t38.5 -53.5q34 37 57 55.5t48 32.5h44z" />
    <glyph glyph-name="ecircumflex" unicode="&#xea;" horiz-adv-x="496" 
d="M122 217v-15q0 -77 33 -110t103 -33q38 0 78 10.5t78 29.5q-5 -38 -20 -79q-31 -15 -69.5 -23.5t-77.5 -8.5q-106 0 -158.5 53.5t-52.5 152.5q0 89 28.5 160t85 112.5t135.5 41.5q58 0 97.5 -22.5t59.5 -63t20 -94.5q0 -22 -5.5 -57t-12.5 -54h-322zM181.5 396
q-36.5 -41 -50.5 -108h241q4 32 4 44q0 50 -24 77.5t-74 27.5q-60 0 -96.5 -41zM435 582h-45q-21 17 -36.5 34t-38.5 54q-35 -36 -58 -55t-47 -33h-45l112 145q17 4 44 4q23 0 41 -3z" />
    <glyph glyph-name="edieresis" unicode="&#xeb;" horiz-adv-x="496" 
d="M122 217v-15q0 -77 33 -110t103 -33q38 0 78 10.5t78 29.5q-5 -38 -20 -79q-31 -15 -69.5 -23.5t-77.5 -8.5q-106 0 -158.5 53.5t-52.5 152.5q0 89 28.5 160t85 112.5t135.5 41.5q58 0 97.5 -22.5t59.5 -63t20 -94.5q0 -22 -5.5 -57t-12.5 -54h-322zM181.5 396
q-36.5 -41 -50.5 -108h241q4 32 4 44q0 50 -24 77.5t-74 27.5q-60 0 -96.5 -41zM184.5 618q-14.5 15 -14.5 39q0 23 14.5 38t37.5 15t38 -14.5t15 -38.5t-15 -39t-38 -15t-37.5 15zM361.5 618q-14.5 15 -14.5 38q0 25 14.5 39.5t37.5 14.5t37.5 -15t14.5 -39
q0 -23 -14.5 -38t-37.5 -15t-37.5 15z" />
    <glyph glyph-name="edotaccent" unicode="&#x117;" horiz-adv-x="496" 
d="M122 217v-15q0 -77 33 -110t103 -33q38 0 78 10.5t78 29.5q-5 -38 -20 -79q-31 -15 -69.5 -23.5t-77.5 -8.5q-106 0 -158.5 53.5t-52.5 152.5q0 89 28.5 160t85 112.5t135.5 41.5q58 0 97.5 -22.5t59.5 -63t20 -94.5q0 -22 -5.5 -57t-12.5 -54h-322zM181.5 396
q-36.5 -41 -50.5 -108h241q4 32 4 44q0 50 -24 77.5t-74 27.5q-60 0 -96.5 -41zM271 614.5q-16 15.5 -16 40.5q0 26 16 41.5t40 15.5t39 -15.5t15 -41.5q0 -24 -15.5 -40t-38.5 -16q-24 0 -40 15.5z" />
    <glyph glyph-name="egrave" unicode="&#xe8;" horiz-adv-x="496" 
d="M122 217v-15q0 -77 33 -110t103 -33q38 0 78 10.5t78 29.5q-5 -38 -20 -79q-31 -15 -69.5 -23.5t-77.5 -8.5q-106 0 -158.5 53.5t-52.5 152.5q0 89 28.5 160t85 112.5t135.5 41.5q58 0 97.5 -22.5t59.5 -63t20 -94.5q0 -22 -5.5 -57t-12.5 -54h-322zM181.5 396
q-36.5 -41 -50.5 -108h241q4 32 4 44q0 50 -24 77.5t-74 27.5q-60 0 -96.5 -41zM354 575q-32 8 -63.5 31t-57 56t-39.5 70q23 0 53 -4t51 -12l61 -141h-5z" />
    <glyph glyph-name="emacron" unicode="&#x113;" horiz-adv-x="496" 
d="M122 217v-15q0 -77 33 -110t103 -33q38 0 78 10.5t78 29.5q-5 -38 -20 -79q-31 -15 -69.5 -23.5t-77.5 -8.5q-106 0 -158.5 53.5t-52.5 152.5q0 89 28.5 160t85 112.5t135.5 41.5q58 0 97.5 -22.5t59.5 -63t20 -94.5q0 -22 -5.5 -57t-12.5 -54h-322zM181.5 396
q-36.5 -41 -50.5 -108h241q4 32 4 44q0 50 -24 77.5t-74 27.5q-60 0 -96.5 -41zM199 688h242q-6 -32 -18 -67h-242q6 35 18 67z" />
    <glyph glyph-name="eogonek" unicode="&#x119;" horiz-adv-x="496" 
d="M122 217v-15q0 -77 33 -110t103 -33q38 0 78 10.5t78 29.5q-5 -38 -20 -79q-24 -12 -62 -22q-38 -23 -60.5 -54.5t-22.5 -62.5q0 -39 43 -39q23 0 48 9q-2 -15 -6 -28.5t-10 -29.5q-22 -9 -58 -9q-40 0 -63.5 21.5t-23.5 64.5q0 29 19 60t58 58h-9q-106 0 -158.5 53.5
t-52.5 152.5q0 89 28.5 160t85 112.5t135.5 41.5q58 0 97.5 -22.5t59.5 -63t20 -94.5q0 -22 -5.5 -57t-12.5 -54h-322zM181.5 396q-36.5 -41 -50.5 -108h241q4 32 4 44q0 50 -24 77.5t-74 27.5q-60 0 -96.5 -41z" />
    <glyph glyph-name="uni0259" unicode="&#x259;" horiz-adv-x="496" 
d="M407.5 454.5q52.5 -53.5 52.5 -152.5q0 -89 -28.5 -160t-85 -112.5t-135.5 -41.5q-57 0 -97 22.5t-60 63t-20 94.5q0 22 5.5 57t12.5 54h322v15q0 52 -15 83.5t-44.5 45.5t-76.5 14q-76 0 -156 -40q5 38 20 79q31 15 69.5 23.5t77.5 8.5q106 0 158.5 -53.5zM314.5 100
q36.5 41 50.5 108h-241q-4 -32 -4 -44q0 -50 24 -77.5t74 -27.5q60 0 96.5 41z" />
    <glyph glyph-name="f" unicode="f" horiz-adv-x="328" 
d="M231 611q-26 -24 -33 -76l-5 -39h163q-5 -29 -19 -72h-155l-59 -424h-84l75 537q12 85 58.5 127.5t131.5 42.5q50 0 89 -11q-3 -23 -9 -45t-7 -26q-33 10 -68 10q-52 0 -78 -24z" />
    <glyph glyph-name="g" unicode="g" horiz-adv-x="525" 
d="M483 479l-66 -474q-16 -113 -74.5 -171t-176.5 -58q-39 0 -76.5 8.5t-69.5 24.5q1 30 14 75q28 -17 63 -25.5t65 -8.5q77 0 117.5 37.5t51.5 112.5l8 58q-25 -35 -57 -52.5t-76 -17.5q-79 0 -124 48t-45 143q0 94 30.5 168.5t92 117.5t150.5 43q99 0 173 -29zM291.5 72
q28.5 13 54.5 36l44 319q-33 10 -81 10q-63 0 -104.5 -34t-61 -90t-19.5 -125q0 -65 25 -97t81 -32q33 0 61.5 13z" />
    <glyph glyph-name="gbreve" unicode="&#x11f;" horiz-adv-x="525" 
d="M483 479l-66 -474q-16 -113 -74.5 -171t-176.5 -58q-39 0 -76.5 8.5t-69.5 24.5q1 30 14 75q28 -17 63 -25.5t65 -8.5q77 0 117.5 37.5t51.5 112.5l8 58q-25 -35 -57 -52.5t-76 -17.5q-79 0 -124 48t-45 143q0 94 30.5 168.5t92 117.5t150.5 43q99 0 173 -29zM291.5 72
q28.5 13 54.5 36l44 319q-33 10 -81 10q-63 0 -104.5 -34t-61 -90t-19.5 -125q0 -65 25 -97t81 -32q33 0 61.5 13zM238.5 594q-28.5 18 -42 48.5t-12.5 68.5q25 6 61 6q0 -36 16 -58t49 -22q34 0 56 21.5t32 58.5q41 0 60 -6q-16 -61 -52 -98t-96 -37q-43 0 -71.5 18z" />
    <glyph glyph-name="gcircumflex" unicode="&#x11d;" horiz-adv-x="525" 
d="M483 479l-66 -474q-16 -113 -74.5 -171t-176.5 -58q-39 0 -76.5 8.5t-69.5 24.5q1 30 14 75q28 -17 63 -25.5t65 -8.5q77 0 117.5 37.5t51.5 112.5l8 58q-25 -35 -57 -52.5t-76 -17.5q-79 0 -124 48t-45 143q0 94 30.5 168.5t92 117.5t150.5 43q99 0 173 -29zM291.5 72
q28.5 13 54.5 36l44 319q-33 10 -81 10q-63 0 -104.5 -34t-61 -90t-19.5 -125q0 -65 25 -97t81 -32q33 0 61.5 13zM447 582h-45q-21 17 -36.5 34t-38.5 54q-35 -36 -58 -55t-47 -33h-45l112 145q17 4 44 4q23 0 41 -3z" />
    <glyph glyph-name="uni0123" unicode="&#x123;" horiz-adv-x="525" 
d="M349 571q-23 -7 -42.5 -10.5t-41.5 -3.5q24 111 96 180h22q-21 -78 -34 -166zM483 479l-66 -474q-16 -113 -74.5 -171t-176.5 -58q-39 0 -76.5 8.5t-69.5 24.5q1 30 14 75q28 -17 63 -25.5t65 -8.5q77 0 117.5 37.5t51.5 112.5l8 58q-25 -35 -57 -52.5t-76 -17.5
q-79 0 -124 48t-45 143q0 94 30.5 168.5t92 117.5t150.5 43q99 0 173 -29zM291.5 72q28.5 13 54.5 36l44 319q-33 10 -81 10q-63 0 -104.5 -34t-61 -90t-19.5 -125q0 -65 25 -97t81 -32q33 0 61.5 13z" />
    <glyph glyph-name="gdotaccent" unicode="&#x121;" horiz-adv-x="525" 
d="M483 479l-66 -474q-16 -113 -74.5 -171t-176.5 -58q-39 0 -76.5 8.5t-69.5 24.5q1 30 14 75q28 -17 63 -25.5t65 -8.5q77 0 117.5 37.5t51.5 112.5l8 58q-25 -35 -57 -52.5t-76 -17.5q-79 0 -124 48t-45 143q0 94 30.5 168.5t92 117.5t150.5 43q99 0 173 -29zM291.5 72
q28.5 13 54.5 36l44 319q-33 10 -81 10q-63 0 -104.5 -34t-61 -90t-19.5 -125q0 -65 25 -97t81 -32q33 0 61.5 13zM283 614.5q-16 15.5 -16 40.5q0 26 16 41.5t40 15.5t39 -15.5t15 -41.5q0 -24 -15.5 -40t-38.5 -16q-24 0 -40 15.5z" />
    <glyph glyph-name="h" unicode="h" horiz-adv-x="527" 
d="M436 470q36 -38 36 -105q0 -18 -3 -39l-46 -326h-84l44 312q3 21 3 39q0 44 -20.5 65t-64.5 21q-35 0 -67 -16t-57 -40l-53 -381h-85l97 692q36 13 86 13l-39 -280q32 41 69.5 62t82.5 21q65 0 101 -38z" />
    <glyph glyph-name="hbar" unicode="&#x127;" horiz-adv-x="534" 
d="M443 469.5q36 -38.5 36 -106.5q0 -17 -3 -37l-46 -326h-85l44 312q3 21 3 39q0 44 -20.5 65t-64.5 21q-35 0 -67.5 -16.5t-56.5 -40.5l-53 -380h-84l80 572h-77q5 33 17 59h68l9 61q35 13 86 13l-10 -74h162q-3 -31 -16 -59h-155l-20 -147q32 41 69 62t83 21
q65 0 101 -38.5z" />
    <glyph glyph-name="hcircumflex" unicode="&#x125;" horiz-adv-x="527" 
d="M436 470q36 -38 36 -105q0 -18 -3 -39l-46 -326h-84l44 312q3 21 3 39q0 44 -20.5 65t-64.5 21q-35 0 -67 -16t-57 -40l-53 -381h-85l97 692q36 13 86 13l-39 -280q32 41 69.5 62t82.5 21q65 0 101 -38zM313 884q24 6 53 6t51 -6l77 -122h-33q-31 5 -55 24.5t-47 52.5
q-68 -68 -129 -77h-28z" />
    <glyph glyph-name="i" unicode="i" horiz-adv-x="232" 
d="M134 614.5q-16 15.5 -16 40.5q0 26 16 41.5t40 15.5t39 -15.5t15 -41.5q0 -24 -15.5 -40t-38.5 -16q-24 0 -40 15.5zM109 496h84l-69 -496h-85z" />
    <glyph glyph-name="dotlessi" unicode="&#x131;" horiz-adv-x="232" 
d="M109 496h84l-69 -496h-85z" />
    <glyph glyph-name="iacute" unicode="&#xed;" horiz-adv-x="232" 
d="M109 496h84l-69 -496h-85zM152 716q21 8 50.5 12t53.5 4q-14 -37 -39.5 -70t-57 -56t-63.5 -31h-5z" />
    <glyph glyph-name="ibreve" unicode="&#x12d;" horiz-adv-x="232" 
d="M109 496h84l-69 -496h-85zM83 613q-26 35 -22 92q20 5 58 5q-1 -33 9.5 -51t36.5 -18q49 0 62 69q37 0 56 -5q-25 -127 -120 -127q-54 0 -80 35z" />
    <glyph glyph-name="icircumflex" unicode="&#xee;" horiz-adv-x="232" 
d="M109 496h84l-69 -496h-85zM278 579h-29q-34 19 -73 88q-32 -38 -53.5 -58t-43.5 -30h-33l97 145q16 4 39 4q21 0 39 -3z" />
    <glyph glyph-name="idieresis" unicode="&#xef;" horiz-adv-x="232" 
d="M109 496h84l-69 -496h-85zM63.5 618q-14.5 15 -14.5 38t14.5 38t37.5 15q22 0 36 -15t14 -38t-14 -38t-36 -15q-23 0 -37.5 15zM211 618q-14 15 -14 38t14 38t36 15q23 0 37 -15t14 -38q0 -24 -14 -38.5t-37 -14.5q-22 0 -36 15z" />
    <glyph glyph-name="igrave" unicode="&#xec;" horiz-adv-x="232" 
d="M109 496h84l-69 -496h-85zM217 575q-32 8 -63.5 31t-57 56t-39.5 70q23 0 53 -4t51 -12l61 -141h-5z" />
    <glyph glyph-name="ij" unicode="&#x133;" horiz-adv-x="465" 
d="M134 614.5q-16 15.5 -16 40.5q0 26 16 41.5t40 15.5t39 -15.5t15 -41.5q0 -24 -15.5 -40t-38.5 -16q-24 0 -40 15.5zM109 496h84l-69 -496h-85zM366 614.5q-16 15.5 -16 40.5q0 26 16 41.5t40 15.5t39 -15.5t15 -41.5q0 -24 -15 -40t-39 -16t-40 15.5zM128 -218
q7 37 19 68q22 -5 38 -5q33 0 51 17.5t24 56.5l81 577h85l-82 -571q-11 -78 -48.5 -115t-101.5 -37q-35 0 -66 9z" />
    <glyph glyph-name="imacron" unicode="&#x12b;" horiz-adv-x="232" 
d="M109 496h84l-69 -496h-85zM80 690h206q-5 -30 -18 -66h-207q5 29 19 66z" />
    <glyph glyph-name="iogonek" unicode="&#x12f;" horiz-adv-x="232" 
d="M213 696.5q15 -15.5 15 -41.5q0 -24 -15.5 -40t-38.5 -16q-24 0 -40 15.5t-16 40.5q0 26 16 41.5t40 15.5t39 -15.5zM109 496h84l-69 -496h-8q-40 -35 -59 -63.5t-19 -56.5q0 -18 10 -27.5t29 -9.5q23 0 43 10q-4 -29 -15 -58q-8 -3 -22.5 -6t-29.5 -3q-39 0 -60.5 21
t-21.5 59q0 41 20.5 71t61.5 63h-14z" />
    <glyph glyph-name="itilde" unicode="&#x129;" horiz-adv-x="232" 
d="M109 496h84l-69 -496h-85zM188 599.5q-13 9.5 -32 28.5q-7 8 -13.5 14t-11.5 6q-7 0 -11 -5.5t-5 -18.5l-5 -32h-51l7 47q6 37 20 51.5t37 14.5q18 0 31 -9.5t32 -28.5q7 -8 13.5 -14t11.5 -6q7 0 11 5.5t5 19.5l5 31h51l-7 -47q-6 -37 -20.5 -51.5t-36.5 -14.5
q-18 0 -31 9.5z" />
    <glyph glyph-name="j" unicode="j" horiz-adv-x="233" 
d="M134 614.5q-16 15.5 -16 40.5q0 26 16 41.5t40 15.5t39 -15.5t15 -41.5q0 -24 -15 -40t-39 -16t-40 15.5zM-104 -218q7 37 19 68q22 -5 38 -5q33 0 51 17.5t24 56.5l81 577h85l-82 -571q-11 -78 -48.5 -115t-101.5 -37q-35 0 -66 9z" />
    <glyph glyph-name="uni0237" unicode="&#x237;" horiz-adv-x="232" 
d="M-104 -218q7 37 19 68q22 -5 38 -5q33 0 51 17.5t24 56.5l81 577h85l-82 -571q-11 -78 -48.5 -115t-101.5 -37q-35 0 -66 9z" />
    <glyph glyph-name="jcircumflex" unicode="&#x135;" horiz-adv-x="232" 
d="M-104 -218q7 37 19 68q22 -5 38 -5q33 0 51 17.5t24 56.5l81 577h85l-82 -571q-11 -78 -48.5 -115t-101.5 -37q-35 0 -66 9zM278 579h-29q-34 19 -73 88q-32 -38 -53.5 -58t-43.5 -30h-33l97 145q16 4 39 4q21 0 39 -3z" />
    <glyph glyph-name="k" unicode="k" horiz-adv-x="479" 
d="M222 705l-98 -705h-85l97 692q36 13 86 13zM266 260l170 -260h-97l-166 261l1 6l216 229h96z" />
    <glyph glyph-name="uni0137" unicode="&#x137;" horiz-adv-x="479" 
d="M222 705l-98 -705h-85l97 692q36 13 86 13zM266 260l170 -260h-97l-166 261l1 6l216 229h96zM157 -161q8 39 14 86q40 13 85 14q-12 -57 -37 -102.5t-59 -77.5h-23q12 41 20 80z" />
    <glyph glyph-name="kgreenlandic" unicode="&#x138;" horiz-adv-x="479" 
d="M193 496l-69 -496h-85l70 496h84zM266 260l170 -260h-97l-166 261l1 6l216 229h96z" />
    <glyph glyph-name="l" unicode="l" horiz-adv-x="274" 
d="M74 13q-25 25 -25 75q0 20 2 31l80 573q38 13 86 13l-82 -576q-1 -7 -1 -19q0 -25 11 -37t34 -12q27 0 52 9q-6 -34 -21 -73q-27 -9 -65 -9q-46 0 -71 25z" />
    <glyph glyph-name="lacute" unicode="&#x13a;" horiz-adv-x="274" 
d="M74 13q-25 25 -25 75q0 20 2 31l80 573q38 13 86 13l-82 -576q-1 -7 -1 -19q0 -25 11 -37t34 -12q27 0 52 9q-6 -34 -21 -73q-27 -9 -65 -9q-46 0 -71 25zM230 877q9 3 24.5 4.5t30.5 1.5q37 0 58 -8q-35 -43 -82.5 -75t-94.5 -37h-17z" />
    <glyph glyph-name="lcaron" unicode="&#x13e;" horiz-adv-x="274" 
d="M74 13q-25 25 -25 75q0 20 2 31l80 573q38 13 86 13l-82 -576q-1 -7 -1 -19q0 -25 11 -37t34 -12q27 0 52 9q-6 -34 -21 -73q-27 -9 -65 -9q-46 0 -71 25zM270 606q8 39 14 86q40 13 85 14q-12 -57 -37 -102.5t-59 -77.5h-23q12 41 20 80z" />
    <glyph glyph-name="uni013C" unicode="&#x13c;" horiz-adv-x="274" 
d="M74 13q-25 25 -25 75q0 20 2 31l80 573q38 13 86 13l-82 -576q-1 -7 -1 -19q0 -25 11 -37t34 -12q27 0 52 9q-6 -34 -21 -73q-27 -9 -65 -9q-46 0 -71 25zM75 -161q8 39 14 86q40 13 85 14q-12 -57 -37 -102.5t-59 -77.5h-23q12 41 20 80z" />
    <glyph glyph-name="ldot" unicode="&#x140;" horiz-adv-x="366" 
d="M74 13q-25 25 -25 75q0 20 2 31l80 573q38 13 86 13l-82 -576q-1 -7 -1 -19q0 -25 11 -37t34 -12q27 0 52 9q-6 -34 -21 -73q-27 -9 -65 -9q-46 0 -71 25zM277 345.5q-16 15.5 -16 40.5q0 26 16 41.5t40 15.5t39 -15.5t15 -41.5q0 -24 -15.5 -40t-38.5 -16
q-24 0 -40 15.5z" />
    <glyph glyph-name="lslash" unicode="&#x142;" horiz-adv-x="274" 
d="M135 129q-1 -7 -1 -19q0 -25 11 -37t34 -12q27 0 52 9q-6 -34 -21 -73q-27 -9 -65 -9q-46 0 -71 25t-25 75q0 20 2 31l27 197l-67 -42q1 18 5.5 41.5t11.5 40.5l61 38l42 298q38 13 86 13l-36 -255l108 67q-8 -58 -18 -82l-101 -63z" />
    <glyph glyph-name="m" unicode="m" horiz-adv-x="827" 
d="M736 469.5q36 -38.5 36 -106.5q0 -17 -3 -37l-46 -326h-85l44 312q3 21 3 39q0 44 -20.5 65t-64.5 21q-64 0 -129 -60q1 -21 -2 -51l-46 -326h-84l43 312q3 21 3 39q0 45 -20.5 65.5t-64.5 20.5q-35 0 -66.5 -16t-56.5 -40l-53 -381h-85l70 496h77l-5 -73
q33 42 70.5 63.5t83.5 21.5q51 0 84 -23.5t46 -67.5q71 91 170 91q65 0 101 -38.5z" />
    <glyph glyph-name="n" unicode="n" horiz-adv-x="527" 
d="M436 470q36 -38 36 -105q0 -18 -3 -39l-46 -326h-84l44 312q3 21 3 39q0 44 -20.5 65t-64.5 21q-35 0 -67 -16t-57 -40l-53 -381h-85l70 496h77l-5 -73q33 42 70.5 63.5t83.5 21.5q65 0 101 -38z" />
    <glyph glyph-name="nacute" unicode="&#x144;" horiz-adv-x="527" 
d="M436 470q36 -38 36 -105q0 -18 -3 -39l-46 -326h-84l44 312q3 21 3 39q0 44 -20.5 65t-64.5 21q-35 0 -67 -16t-57 -40l-53 -381h-85l70 496h77l-5 -73q33 42 70.5 63.5t83.5 21.5q65 0 101 -38zM310 716q21 8 50.5 12t53.5 4q-14 -37 -39.5 -70t-57 -56t-63.5 -31h-5z
" />
    <glyph glyph-name="napostrophe" unicode="&#x149;" horiz-adv-x="650" 
d="M559 470q36 -38 36 -105q0 -18 -3 -39l-46 -326h-84l44 312q3 21 3 39q0 44 -20.5 65t-64.5 21q-35 0 -67 -16t-57 -40l-53 -381h-85l70 496h77l-5 -73q33 42 70.5 63.5t83.5 21.5q65 0 101 -38zM124.5 577q14.5 54 25.5 115q24 8 42 11t42 3q-15 -70 -36.5 -128.5
t-51.5 -119.5h-58q22 65 36.5 119z" />
    <glyph glyph-name="ncaron" unicode="&#x148;" horiz-adv-x="527" 
d="M436 470q36 -38 36 -105q0 -18 -3 -39l-46 -326h-84l44 312q3 21 3 39q0 44 -20.5 65t-64.5 21q-35 0 -67 -16t-57 -40l-53 -381h-85l70 496h77l-5 -73q33 42 70.5 63.5t83.5 21.5q65 0 101 -38zM465 728l-112 -145q-17 -4 -43 -4q-25 0 -41 4l-73 145h45
q22 -18 36.5 -34.5t38.5 -53.5q34 37 57 55.5t48 32.5h44z" />
    <glyph glyph-name="uni0146" unicode="&#x146;" horiz-adv-x="527" 
d="M436 470q36 -38 36 -105q0 -18 -3 -39l-46 -326h-84l44 312q3 21 3 39q0 44 -20.5 65t-64.5 21q-35 0 -67 -16t-57 -40l-53 -381h-85l70 496h77l-5 -73q33 42 70.5 63.5t83.5 21.5q65 0 101 -38zM174 -161q8 39 14 86q40 13 85 14q-12 -57 -37 -102.5t-59 -77.5h-23
q12 41 20 80z" />
    <glyph glyph-name="eng" unicode="&#x14b;" horiz-adv-x="527" 
d="M436 470q36 -38 36 -105q0 -18 -3 -39l-46 -326l-12 -81q-11 -74 -41.5 -108.5t-90.5 -34.5q-35 0 -62 9q6 34 18 66q20 -4 31 -4q50 0 59 65l14 88l44 312q3 21 3 39q0 44 -20.5 65t-64.5 21q-35 0 -67 -16t-57 -40l-53 -381h-85l70 496h77l-5 -73q33 42 70.5 63.5
t83.5 21.5q65 0 101 -38z" />
    <glyph glyph-name="ntilde" unicode="&#xf1;" horiz-adv-x="527" 
d="M436 470q36 -38 36 -105q0 -18 -3 -39l-46 -326h-84l44 312q3 21 3 39q0 44 -20.5 65t-64.5 21q-35 0 -67 -16t-57 -40l-53 -381h-85l70 496h77l-5 -73q33 42 70.5 63.5t83.5 21.5q65 0 101 -38zM355.5 599q-13.5 9 -33.5 27q-14 13 -22.5 19t-16.5 6t-13 -6t-7 -21
l-4 -32h-49l8 57q9 56 60 56q15 0 29 -9.5t32 -26.5q11 -10 21.5 -17.5t17.5 -7.5q9 0 13.5 6t6.5 21l4 32h49l-8 -57q-9 -56 -59 -56q-15 0 -28.5 9z" />
    <glyph glyph-name="o" unicode="o" horiz-adv-x="520" 
d="M84.5 41q-49.5 53 -49.5 150q0 88 30 160.5t88 114.5t139 42q62 0 105.5 -24.5t65.5 -70t22 -108.5q0 -89 -30.5 -161.5t-88.5 -114t-138 -41.5q-94 0 -143.5 53zM325.5 93q37.5 34 56 89t18.5 117q0 68 -28 103t-84 35t-94 -34t-56 -88.5t-18 -116.5q0 -69 28 -104
t84 -35t93.5 34z" />
    <glyph glyph-name="oacute" unicode="&#xf3;" horiz-adv-x="520" 
d="M84.5 41q-49.5 53 -49.5 150q0 88 30 160.5t88 114.5t139 42q62 0 105.5 -24.5t65.5 -70t22 -108.5q0 -89 -30.5 -161.5t-88.5 -114t-138 -41.5q-94 0 -143.5 53zM325.5 93q37.5 34 56 89t18.5 117q0 68 -28 103t-84 35t-94 -34t-56 -88.5t-18 -116.5q0 -69 28 -104
t84 -35t93.5 34zM294 716q21 8 50.5 12t53.5 4q-14 -37 -39.5 -70t-57 -56t-63.5 -31h-5z" />
    <glyph glyph-name="obreve" unicode="&#x14f;" horiz-adv-x="520" 
d="M84.5 41q-49.5 53 -49.5 150q0 88 30 160.5t88 114.5t139 42q62 0 105.5 -24.5t65.5 -70t22 -108.5q0 -89 -30.5 -161.5t-88.5 -114t-138 -41.5q-94 0 -143.5 53zM325.5 93q37.5 34 56 89t18.5 117q0 68 -28 103t-84 35t-94 -34t-56 -88.5t-18 -116.5q0 -69 28 -104
t84 -35t93.5 34zM231.5 594q-28.5 18 -42 48.5t-12.5 68.5q25 6 61 6q0 -36 16 -58t49 -22q34 0 56 21.5t32 58.5q41 0 60 -6q-16 -61 -52 -98t-96 -37q-43 0 -71.5 18z" />
    <glyph glyph-name="ocircumflex" unicode="&#xf4;" horiz-adv-x="520" 
d="M84.5 41q-49.5 53 -49.5 150q0 88 30 160.5t88 114.5t139 42q62 0 105.5 -24.5t65.5 -70t22 -108.5q0 -89 -30.5 -161.5t-88.5 -114t-138 -41.5q-94 0 -143.5 53zM325.5 93q37.5 34 56 89t18.5 117q0 68 -28 103t-84 35t-94 -34t-56 -88.5t-18 -116.5q0 -69 28 -104
t84 -35t93.5 34zM440 582h-45q-21 17 -36.5 34t-38.5 54q-35 -36 -58 -55t-47 -33h-45l112 145q17 4 44 4q23 0 41 -3z" />
    <glyph glyph-name="odieresis" unicode="&#xf6;" horiz-adv-x="520" 
d="M84.5 41q-49.5 53 -49.5 150q0 88 30 160.5t88 114.5t139 42q62 0 105.5 -24.5t65.5 -70t22 -108.5q0 -89 -30.5 -161.5t-88.5 -114t-138 -41.5q-94 0 -143.5 53zM325.5 93q37.5 34 56 89t18.5 117q0 68 -28 103t-84 35t-94 -34t-56 -88.5t-18 -116.5q0 -69 28 -104
t84 -35t93.5 34zM188.5 618q-14.5 15 -14.5 39q0 23 14.5 38t37.5 15t38 -14.5t15 -38.5t-15 -39t-38 -15t-37.5 15zM365.5 618q-14.5 15 -14.5 38q0 25 14.5 39.5t37.5 14.5t37.5 -15t14.5 -39q0 -23 -14.5 -38t-37.5 -15t-37.5 15z" />
    <glyph glyph-name="ograve" unicode="&#xf2;" horiz-adv-x="520" 
d="M84.5 41q-49.5 53 -49.5 150q0 88 30 160.5t88 114.5t139 42q62 0 105.5 -24.5t65.5 -70t22 -108.5q0 -89 -30.5 -161.5t-88.5 -114t-138 -41.5q-94 0 -143.5 53zM325.5 93q37.5 34 56 89t18.5 117q0 68 -28 103t-84 35t-94 -34t-56 -88.5t-18 -116.5q0 -69 28 -104
t84 -35t93.5 34zM359 575q-32 8 -63.5 31t-57 56t-39.5 70q23 0 53 -4t51 -12l61 -141h-5z" />
    <glyph glyph-name="ohungarumlaut" unicode="&#x151;" horiz-adv-x="520" 
d="M84.5 41q-49.5 53 -49.5 150q0 88 30 160.5t88 114.5t139 42q62 0 105.5 -24.5t65.5 -70t22 -108.5q0 -89 -30.5 -161.5t-88.5 -114t-138 -41.5q-94 0 -143.5 53zM325.5 93q37.5 34 56 89t18.5 117q0 68 -28 103t-84 35t-94 -34t-56 -88.5t-18 -116.5q0 -69 28 -104
t84 -35t93.5 34zM273 719q15 6 42.5 9t48.5 3q-42 -75 -84 -112t-86 -47h-7zM412 719q16 6 43 9t47 3q-41 -75 -84 -113.5t-85 -45.5h-7z" />
    <glyph glyph-name="omacron" unicode="&#x14d;" horiz-adv-x="520" 
d="M84.5 41q-49.5 53 -49.5 150q0 88 30 160.5t88 114.5t139 42q62 0 105.5 -24.5t65.5 -70t22 -108.5q0 -89 -30.5 -161.5t-88.5 -114t-138 -41.5q-94 0 -143.5 53zM325.5 93q37.5 34 56 89t18.5 117q0 68 -28 103t-84 35t-94 -34t-56 -88.5t-18 -116.5q0 -69 28 -104
t84 -35t93.5 34zM203 688h242q-6 -32 -18 -67h-242q6 35 18 67z" />
    <glyph glyph-name="oslash" unicode="&#xf8;" horiz-adv-x="520" 
d="M453 430q32 -50 32 -125q0 -89 -30.5 -161.5t-88.5 -114t-138 -41.5q-75 0 -124 35l-72 -84q-22 25 -27 57l60 70q-30 50 -30 125q0 88 30 160.5t88 114.5t139 42q75 0 122 -35l70 82q9 -14 15.5 -31.5t7.5 -30.5zM123 134l241 281q-26 22 -76 22q-58 0 -96.5 -34
t-57.5 -88.5t-19 -116.5q0 -35 8 -64zM397 365l-242 -283q28 -23 77 -23q57 0 96.5 34t58.5 89t19 117q0 38 -9 66z" />
    <glyph glyph-name="oslashacute" unicode="&#x1ff;" horiz-adv-x="520" 
d="M453 430q32 -50 32 -125q0 -89 -30.5 -161.5t-88.5 -114t-138 -41.5q-75 0 -124 35l-72 -84q-22 25 -27 57l60 70q-30 50 -30 125q0 88 30 160.5t88 114.5t139 42q75 0 122 -35l70 82q9 -14 15.5 -31.5t7.5 -30.5zM123 134l241 281q-26 22 -76 22q-58 0 -96.5 -34
t-57.5 -88.5t-19 -116.5q0 -35 8 -64zM397 365l-242 -283q28 -23 77 -23q57 0 96.5 34t58.5 89t19 117q0 38 -9 66zM299 716q21 8 50.5 12t53.5 4q-14 -37 -39.5 -70t-57 -56t-63.5 -31h-5z" />
    <glyph glyph-name="otilde" unicode="&#xf5;" horiz-adv-x="520" 
d="M84.5 41q-49.5 53 -49.5 150q0 88 30 160.5t88 114.5t139 42q62 0 105.5 -24.5t65.5 -70t22 -108.5q0 -89 -30.5 -161.5t-88.5 -114t-138 -41.5q-94 0 -143.5 53zM325.5 93q37.5 34 56 89t18.5 117q0 68 -28 103t-84 35t-94 -34t-56 -88.5t-18 -116.5q0 -69 28 -104
t84 -35t93.5 34zM338.5 599q-13.5 9 -33.5 27q-14 13 -22.5 19t-16.5 6t-13 -6t-7 -21l-4 -32h-49l8 57q9 56 60 56q15 0 29 -9.5t32 -26.5q11 -10 21.5 -17.5t17.5 -7.5q9 0 13.5 6t6.5 21l4 32h49l-8 -57q-9 -56 -59 -56q-15 0 -28.5 9z" />
    <glyph glyph-name="oe" unicode="&#x153;" horiz-adv-x="845" 
d="M470 217v-15q0 -77 33 -110t103 -33q38 0 78 10.5t79 29.5q-7 -45 -20 -79q-32 -15 -70.5 -23.5t-77.5 -8.5q-137 0 -179 103q-32 -49 -79.5 -76t-108.5 -27q-94 0 -143.5 53t-49.5 150q0 88 30 160.5t88 114.5t139 42q62 0 103 -26t60 -74q31 48 76 74t102 26
q58 0 97.5 -22.5t59.5 -63t20 -94.5q0 -23 -5 -58t-12 -53h-323zM325.5 93q37.5 34 56 89t18.5 117q0 68 -28 103t-84 35t-94 -34t-56 -88.5t-18 -116.5q0 -69 28 -104t84 -35t93.5 34zM530 396q-37 -41 -51 -108h242q4 32 4 44q0 50 -24 77.5t-74 27.5q-60 0 -97 -41z" />
    <glyph glyph-name="p" unicode="p" horiz-adv-x="525" 
d="M443 460q45 -48 45 -143q0 -94 -30.5 -168.5t-92 -117.5t-150.5 -43q-44 0 -93 7l-29 -207h-84l100 708h78l-5 -64q26 38 59 57t79 19q78 0 123 -48zM320.5 93q41.5 34 61 90t19.5 125q0 65 -25 97t-81 32q-63 0 -117 -51l-45 -317q40 -10 83 -10q63 0 104.5 34z" />
    <glyph glyph-name="thorn" unicode="&#xfe;" horiz-adv-x="524" 
d="M442 460q45 -48 45 -143q0 -94 -30.5 -168.5t-92 -117.5t-150.5 -43q-53 0 -91 7l-29 -207h-85l127 904q36 13 86 13l-38 -269q26 35 58.5 53.5t76.5 18.5q78 0 123 -48zM319.5 93q41.5 34 61 90t19.5 125q0 65 -25 97t-81 32q-63 0 -116 -50l-45 -318q40 -10 82 -10
q63 0 104.5 34z" />
    <glyph glyph-name="q" unicode="q" horiz-adv-x="524" 
d="M483 479l-98 -691h-85l38 269q-24 -34 -56.5 -51.5t-75.5 -17.5q-79 0 -124 48t-45 143q0 94 30.5 168.5t92 117.5t150.5 43q99 0 173 -29zM391 427q-34 10 -82 10q-63 0 -104.5 -34t-61 -90t-19.5 -125q0 -65 25 -97t81 -32q61 0 115 49z" />
    <glyph glyph-name="r" unicode="r" horiz-adv-x="340" 
d="M372 500q-2 -20 -7.5 -41.5t-12.5 -36.5q-26 6 -58 6q-31 0 -62 -12t-55 -36l-54 -380h-84l70 496h79l-6 -66q25 39 59 58t74 19q31 0 57 -7z" />
    <glyph glyph-name="racute" unicode="&#x155;" horiz-adv-x="340" 
d="M372 500q-2 -20 -7.5 -41.5t-12.5 -36.5q-26 6 -58 6q-31 0 -62 -12t-55 -36l-54 -380h-84l70 496h79l-6 -66q25 39 59 58t74 19q31 0 57 -7zM249 716q21 8 50.5 12t53.5 4q-14 -37 -39.5 -70t-57 -56t-63.5 -31h-5z" />
    <glyph glyph-name="rcaron" unicode="&#x159;" horiz-adv-x="340" 
d="M372 500q-2 -20 -7.5 -41.5t-12.5 -36.5q-26 6 -58 6q-31 0 -62 -12t-55 -36l-54 -380h-84l70 496h79l-6 -66q25 39 59 58t74 19q31 0 57 -7zM385 726l-97 -145q-16 -4 -39 -4q-21 0 -39 3l-57 146h29q34 -19 73 -88q31 37 53 57.5t44 30.5h33z" />
    <glyph glyph-name="uni0157" unicode="&#x157;" horiz-adv-x="340" 
d="M372 500q-2 -20 -7.5 -41.5t-12.5 -36.5q-26 6 -58 6q-31 0 -62 -12t-55 -36l-54 -380h-84l70 496h79l-6 -66q25 39 59 58t74 19q31 0 57 -7zM16 -161q8 39 14 86q40 13 85 14q-12 -57 -37 -102.5t-59 -77.5h-23q12 41 20 80z" />
    <glyph glyph-name="s" unicode="s" horiz-adv-x="429" 
d="M83.5 -1.5q-41.5 10.5 -69.5 27.5q3 20 9 36t13 32q27 -17 63.5 -26t71.5 -9q54 0 84 20.5t30 57.5q0 26 -16.5 43t-53.5 30l-42 15q-52 18 -81.5 49t-29.5 84q0 72 51 111t143 39q36 0 74 -7t70 -19q-5 -29 -21 -69q-61 24 -125 24q-53 0 -79.5 -19.5t-26.5 -55.5
q0 -48 72 -73l43 -15q56 -19 83 -50.5t27 -81.5q0 -44 -24.5 -79t-69.5 -55t-106 -20q-48 0 -89.5 10.5z" />
    <glyph glyph-name="sacute" unicode="&#x15b;" horiz-adv-x="429" 
d="M83.5 -1.5q-41.5 10.5 -69.5 27.5q3 20 9 36t13 32q27 -17 63.5 -26t71.5 -9q54 0 84 20.5t30 57.5q0 26 -16.5 43t-53.5 30l-42 15q-52 18 -81.5 49t-29.5 84q0 72 51 111t143 39q36 0 74 -7t70 -19q-5 -29 -21 -69q-61 24 -125 24q-53 0 -79.5 -19.5t-26.5 -55.5
q0 -48 72 -73l43 -15q56 -19 83 -50.5t27 -81.5q0 -44 -24.5 -79t-69.5 -55t-106 -20q-48 0 -89.5 10.5zM253 716q21 8 50.5 12t53.5 4q-14 -37 -39.5 -70t-57 -56t-63.5 -31h-5z" />
    <glyph glyph-name="scaron" unicode="&#x161;" horiz-adv-x="429" 
d="M83.5 -1.5q-41.5 10.5 -69.5 27.5q3 20 9 36t13 32q27 -17 63.5 -26t71.5 -9q54 0 84 20.5t30 57.5q0 26 -16.5 43t-53.5 30l-42 15q-52 18 -81.5 49t-29.5 84q0 72 51 111t143 39q36 0 74 -7t70 -19q-5 -29 -21 -69q-61 24 -125 24q-53 0 -79.5 -19.5t-26.5 -55.5
q0 -48 72 -73l43 -15q56 -19 83 -50.5t27 -81.5q0 -44 -24.5 -79t-69.5 -55t-106 -20q-48 0 -89.5 10.5zM407 728l-112 -145q-17 -4 -43 -4q-25 0 -41 4l-73 145h45q22 -18 36.5 -34.5t38.5 -53.5q34 37 57 55.5t48 32.5h44z" />
    <glyph glyph-name="scedilla" unicode="&#x15f;" horiz-adv-x="429" 
d="M174.5 417.5q-26.5 -19.5 -26.5 -55.5q0 -48 72 -73l43 -15q56 -19 83 -50.5t27 -81.5q0 -40 -21 -73t-60 -54.5t-91 -25.5l-19 -39q31 -9 47.5 -25.5t16.5 -44.5q0 -40 -28 -63t-74 -23q-18 0 -37.5 4t-33.5 10q3 13 6 24t9 21q26 -10 50 -10q23 0 36 9t13 25
q0 18 -18.5 27.5t-58.5 10.5l35 74q-40 3 -73.5 13t-57.5 24q3 20 9 36t13 32q27 -17 63.5 -26t71.5 -9q54 0 84 20.5t30 57.5q0 26 -16.5 43t-53.5 30l-42 15q-52 18 -81.5 49t-29.5 84q0 72 51 111t143 39q36 0 74 -7t70 -19q-5 -29 -21 -69q-61 24 -125 24
q-53 0 -79.5 -19.5z" />
    <glyph glyph-name="scircumflex" unicode="&#x15d;" horiz-adv-x="429" 
d="M83.5 -1.5q-41.5 10.5 -69.5 27.5q3 20 9 36t13 32q27 -17 63.5 -26t71.5 -9q54 0 84 20.5t30 57.5q0 26 -16.5 43t-53.5 30l-42 15q-52 18 -81.5 49t-29.5 84q0 72 51 111t143 39q36 0 74 -7t70 -19q-5 -29 -21 -69q-61 24 -125 24q-53 0 -79.5 -19.5t-26.5 -55.5
q0 -48 72 -73l43 -15q56 -19 83 -50.5t27 -81.5q0 -44 -24.5 -79t-69.5 -55t-106 -20q-48 0 -89.5 10.5zM399 582h-45q-21 17 -36.5 34t-38.5 54q-35 -36 -58 -55t-47 -33h-45l112 145q17 4 44 4q23 0 41 -3z" />
    <glyph glyph-name="uni0219" unicode="&#x219;" horiz-adv-x="429" 
d="M83.5 -1.5q-41.5 10.5 -69.5 27.5q3 20 9 36t13 32q27 -17 63.5 -26t71.5 -9q54 0 84 20.5t30 57.5q0 26 -16.5 43t-53.5 30l-42 15q-52 18 -81.5 49t-29.5 84q0 72 51 111t143 39q36 0 74 -7t70 -19q-5 -29 -21 -69q-61 24 -125 24q-53 0 -79.5 -19.5t-26.5 -55.5
q0 -48 72 -73l43 -15q56 -19 83 -50.5t27 -81.5q0 -44 -24.5 -79t-69.5 -55t-106 -20q-48 0 -89.5 10.5zM115 -161q8 39 14 86q40 13 85 14q-12 -57 -37 -102.5t-59 -77.5h-23q12 41 20 80z" />
    <glyph glyph-name="germandbls" unicode="&#xdf;" horiz-adv-x="549" 
d="M476.5 315q26.5 -40 26.5 -98q0 -66 -25 -117.5t-74.5 -81t-120.5 -29.5q-26 0 -52 4t-43 11q4 36 20 72q31 -11 73 -11q69 0 101.5 40.5t32.5 112.5q0 114 -134 114h-26l10 72h23q43 0 75 16.5t48.5 46.5t16.5 70q0 43 -26 69.5t-77 26.5q-111 0 -131 -134l-70 -499h-85
l71 507q14 96 69.5 148t150.5 52q59 0 101 -21t63 -59t21 -89q0 -58 -31 -103t-83 -64q49 -16 75.5 -56z" />
    <glyph glyph-name="longs" unicode="&#x17f;" horiz-adv-x="318" 
d="M114 537q12 85 58.5 127.5t131.5 42.5q50 0 89 -11q-3 -23 -9 -45t-7 -26q-33 10 -68 10q-52 0 -78 -24t-33 -76l-75 -535h-84z" />
    <glyph glyph-name="t" unicode="t" horiz-adv-x="335" 
d="M138 142q-2 -16 -2 -21q0 -59 59 -59q21 0 44 5t41 14q-8 -43 -22 -79q-42 -14 -87 -14q-56 0 -88 29.5t-32 87.5q0 21 2 32l70 495q38 13 86 13l-21 -149h152q-5 -34 -19 -72h-143z" />
    <glyph glyph-name="tbar" unicode="&#x167;" horiz-adv-x="335" 
d="M178 424l-15 -108h133q-7 -35 -17 -59h-125l-16 -115q-2 -16 -2 -21q0 -59 59 -59q21 0 44 5t41 14q-8 -43 -22 -79q-42 -14 -87 -14q-56 0 -88 29.5t-32 87.5q0 21 2 32l17 120h-83q5 31 16 59h75l45 316q38 13 86 13l-21 -149h152q-5 -34 -19 -72h-143z" />
    <glyph glyph-name="tcaron" unicode="&#x165;" horiz-adv-x="335" 
d="M329 529h-22q11 39 19 76.5t15 86.5q42 13 84 13q-24 -109 -96 -176zM188 496h152q-5 -34 -19 -72h-143l-40 -282q-2 -16 -2 -21q0 -59 59 -59q21 0 44 5t41 14q-8 -43 -22 -79q-42 -14 -87 -14q-56 0 -88 29.5t-32 87.5q0 21 2 32l70 495q38 13 86 13z" />
    <glyph glyph-name="uni0163" unicode="&#x163;" horiz-adv-x="335" 
d="M138 142q-2 -16 -2 -21q0 -59 59 -59q21 0 44 5t41 14q-8 -43 -22 -79q-38 -13 -76 -14l-18 -38q31 -9 47.5 -25.5t16.5 -44.5q0 -41 -27.5 -63.5t-73.5 -22.5q-18 0 -37.5 4t-33.5 10q4 23 14 45q26 -10 50 -10t37 9t13 25q0 18 -18.5 27.5t-58.5 10.5l36 78
q-37 10 -57.5 38.5t-20.5 74.5q0 9 2 31l70 495q38 13 86 13l-21 -149h152q-5 -34 -19 -72h-143z" />
    <glyph glyph-name="uni021B" unicode="&#x21b;" horiz-adv-x="335" 
d="M138 142q-2 -16 -2 -21q0 -59 59 -59q21 0 44 5t41 14q-8 -43 -22 -79q-42 -14 -87 -14q-56 0 -88 29.5t-32 87.5q0 21 2 32l70 495q38 13 86 13l-21 -149h152q-5 -34 -19 -72h-143zM97 -161q8 39 14 86q40 13 85 14q-12 -57 -37 -102.5t-59 -77.5h-23q12 41 20 80z" />
    <glyph glyph-name="u" unicode="u" horiz-adv-x="527" 
d="M488 496l-70 -496h-77l5 73q-33 -42 -70.5 -63.5t-83.5 -21.5q-65 0 -101 38.5t-36 106.5q0 18 3 37l46 326h84l-43 -312q-3 -21 -3 -39q0 -45 20.5 -65.5t64.5 -20.5q35 0 66.5 16t56.5 40l54 381h84z" />
    <glyph glyph-name="uacute" unicode="&#xfa;" horiz-adv-x="527" 
d="M488 496l-70 -496h-77l5 73q-33 -42 -70.5 -63.5t-83.5 -21.5q-65 0 -101 38.5t-36 106.5q0 18 3 37l46 326h84l-43 -312q-3 -21 -3 -39q0 -45 20.5 -65.5t64.5 -20.5q35 0 66.5 16t56.5 40l54 381h84zM300 716q21 8 50.5 12t53.5 4q-14 -37 -39.5 -70t-57 -56t-63.5 -31
h-5z" />
    <glyph glyph-name="ubreve" unicode="&#x16d;" horiz-adv-x="527" 
d="M488 496l-70 -496h-77l5 73q-33 -42 -70.5 -63.5t-83.5 -21.5q-65 0 -101 38.5t-36 106.5q0 18 3 37l46 326h84l-43 -312q-3 -21 -3 -39q0 -45 20.5 -65.5t64.5 -20.5q35 0 66.5 16t56.5 40l54 381h84zM237.5 594q-28.5 18 -42 48.5t-12.5 68.5q25 6 61 6q0 -36 16 -58
t49 -22q34 0 56 21.5t32 58.5q41 0 60 -6q-16 -61 -52 -98t-96 -37q-43 0 -71.5 18z" />
    <glyph glyph-name="ucircumflex" unicode="&#xfb;" horiz-adv-x="527" 
d="M488 496l-70 -496h-77l5 73q-33 -42 -70.5 -63.5t-83.5 -21.5q-65 0 -101 38.5t-36 106.5q0 18 3 37l46 326h84l-43 -312q-3 -21 -3 -39q0 -45 20.5 -65.5t64.5 -20.5q35 0 66.5 16t56.5 40l54 381h84zM446 582h-45q-21 17 -36.5 34t-38.5 54q-35 -36 -58 -55t-47 -33
h-45l112 145q17 4 44 4q23 0 41 -3z" />
    <glyph glyph-name="udieresis" unicode="&#xfc;" horiz-adv-x="527" 
d="M488 496l-70 -496h-77l5 73q-33 -42 -70.5 -63.5t-83.5 -21.5q-65 0 -101 38.5t-36 106.5q0 18 3 37l46 326h84l-43 -312q-3 -21 -3 -39q0 -45 20.5 -65.5t64.5 -20.5q35 0 66.5 16t56.5 40l54 381h84zM194.5 618q-14.5 15 -14.5 39q0 23 14.5 38t37.5 15t38 -14.5
t15 -38.5t-15 -39t-38 -15t-37.5 15zM371.5 618q-14.5 15 -14.5 38q0 25 14.5 39.5t37.5 14.5t37.5 -15t14.5 -39q0 -23 -14.5 -38t-37.5 -15t-37.5 15z" />
    <glyph glyph-name="ugrave" unicode="&#xf9;" horiz-adv-x="527" 
d="M488 496l-70 -496h-77l5 73q-33 -42 -70.5 -63.5t-83.5 -21.5q-65 0 -101 38.5t-36 106.5q0 18 3 37l46 326h84l-43 -312q-3 -21 -3 -39q0 -45 20.5 -65.5t64.5 -20.5q35 0 66.5 16t56.5 40l54 381h84zM365 575q-32 8 -63.5 31t-57 56t-39.5 70q23 0 53 -4t51 -12
l61 -141h-5z" />
    <glyph glyph-name="uhungarumlaut" unicode="&#x171;" horiz-adv-x="527" 
d="M488 496l-70 -496h-77l5 73q-33 -42 -70.5 -63.5t-83.5 -21.5q-65 0 -101 38.5t-36 106.5q0 18 3 37l46 326h84l-43 -312q-3 -21 -3 -39q0 -45 20.5 -65.5t64.5 -20.5q35 0 66.5 16t56.5 40l54 381h84zM278 719q15 6 42.5 9t48.5 3q-42 -75 -84 -112t-86 -47h-7zM417 719
q16 6 43 9t47 3q-41 -75 -84 -113.5t-85 -45.5h-7z" />
    <glyph glyph-name="umacron" unicode="&#x16b;" horiz-adv-x="527" 
d="M488 496l-70 -496h-77l5 73q-33 -42 -70.5 -63.5t-83.5 -21.5q-65 0 -101 38.5t-36 106.5q0 18 3 37l46 326h84l-43 -312q-3 -21 -3 -39q0 -45 20.5 -65.5t64.5 -20.5q35 0 66.5 16t56.5 40l54 381h84zM209 688h242q-6 -32 -18 -67h-242q6 35 18 67z" />
    <glyph glyph-name="uogonek" unicode="&#x173;" horiz-adv-x="527" 
d="M333.5 -54.5q-23.5 -32.5 -23.5 -64.5q0 -39 44 -39q23 0 48 9q-2 -14 -6 -28t-10 -30q-23 -9 -58 -9q-40 0 -63.5 21.5t-23.5 64.5q0 33 25 69t75 64l5 70q-33 -42 -70.5 -63.5t-83.5 -21.5q-65 0 -101 38.5t-36 106.5q0 18 3 37l46 326h84l-43 -312q-3 -21 -3 -39
q0 -45 20.5 -65.5t64.5 -20.5q35 0 66.5 16t56.5 40l54 381h84l-70 -496h-21q-40 -22 -63.5 -54.5z" />
    <glyph glyph-name="uring" unicode="&#x16f;" horiz-adv-x="527" 
d="M488 496l-70 -496h-77l5 73q-33 -42 -70.5 -63.5t-83.5 -21.5q-65 0 -101 38.5t-36 106.5q0 18 3 37l46 326h84l-43 -312q-3 -21 -3 -39q0 -45 20.5 -65.5t64.5 -20.5q35 0 66.5 16t56.5 40l54 381h84zM269 579q-24 13 -38 36.5t-14 52.5q0 30 14 53t38 36t53 13
t52.5 -13t37.5 -36.5t14 -52.5t-13.5 -52.5t-37.5 -36.5t-53 -13t-53 13zM359 630q14 15 14 38q0 22 -14 37.5t-37 15.5t-37.5 -15t-14.5 -38t14.5 -38t37.5 -15t37 15z" />
    <glyph glyph-name="utilde" unicode="&#x169;" horiz-adv-x="527" 
d="M488 496l-70 -496h-77l5 73q-33 -42 -70.5 -63.5t-83.5 -21.5q-65 0 -101 38.5t-36 106.5q0 18 3 37l46 326h84l-43 -312q-3 -21 -3 -39q0 -45 20.5 -65.5t64.5 -20.5q35 0 66.5 16t56.5 40l54 381h84zM344.5 599q-13.5 9 -33.5 27q-14 13 -22.5 19t-16.5 6t-13 -6
t-7 -21l-4 -32h-49l8 57q9 56 60 56q15 0 29 -9.5t32 -26.5q11 -10 21.5 -17.5t17.5 -7.5q9 0 13.5 6t6.5 21l4 32h49l-8 -57q-9 -56 -59 -56q-15 0 -28.5 9z" />
    <glyph glyph-name="v" unicode="v" horiz-adv-x="459" 
d="M486 496l-252 -496h-82l-110 496h87l75 -412l191 412h91z" />
    <glyph glyph-name="w" unicode="w" horiz-adv-x="760" 
d="M783 496l-233 -496h-81l-69 378l-178 -378h-77l-98 496h84l65 -401l179 401h76l72 -405l172 405h88z" />
    <glyph glyph-name="wacute" unicode="&#x1e83;" horiz-adv-x="760" 
d="M783 496l-233 -496h-81l-69 378l-178 -378h-77l-98 496h84l65 -401l179 401h76l72 -405l172 405h88zM412 716q21 8 50.5 12t53.5 4q-14 -37 -39.5 -70t-57 -56t-63.5 -31h-5z" />
    <glyph glyph-name="wcircumflex" unicode="&#x175;" horiz-adv-x="760" 
d="M783 496l-233 -496h-81l-69 378l-178 -378h-77l-98 496h84l65 -401l179 401h76l72 -405l172 405h88zM558 582h-45q-21 17 -36.5 34t-38.5 54q-35 -36 -58 -55t-47 -33h-45l112 145q17 4 44 4q23 0 41 -3z" />
    <glyph glyph-name="wdieresis" unicode="&#x1e85;" horiz-adv-x="760" 
d="M783 496l-233 -496h-81l-69 378l-178 -378h-77l-98 496h84l65 -401l179 401h76l72 -405l172 405h88zM307.5 618q-14.5 15 -14.5 39q0 23 14.5 38t37.5 15t38 -14.5t15 -38.5t-15 -39t-38 -15t-37.5 15zM484.5 618q-14.5 15 -14.5 38q0 25 14.5 39.5t37.5 14.5t37.5 -15
t14.5 -39q0 -23 -14.5 -38t-37.5 -15t-37.5 15z" />
    <glyph glyph-name="wgrave" unicode="&#x1e81;" horiz-adv-x="760" 
d="M783 496l-233 -496h-81l-69 378l-178 -378h-77l-98 496h84l65 -401l179 401h76l72 -405l172 405h88zM477 575q-32 8 -63.5 31t-57 56t-39.5 70q23 0 53 -4t51 -12l61 -141h-5z" />
    <glyph glyph-name="x" unicode="x" horiz-adv-x="453" 
d="M270 248l140 -248h-92l-99 185l-146 -185h-99l206 252l-132 244h93l92 -180l147 180h96z" />
    <glyph glyph-name="y" unicode="y" horiz-adv-x="472" 
d="M499 496l-267 -557q-39 -82 -84.5 -122.5t-108.5 -40.5q-16 0 -31 2.5t-25 7.5q5 32 17 70q20 -5 40 -5q28 0 48.5 10.5t39.5 36.5t40 74l-126 524h87l88 -417l194 417h88z" />
    <glyph glyph-name="yacute" unicode="&#xfd;" horiz-adv-x="472" 
d="M499 496l-267 -557q-39 -82 -84.5 -122.5t-108.5 -40.5q-16 0 -31 2.5t-25 7.5q5 32 17 70q20 -5 40 -5q28 0 48.5 10.5t39.5 36.5t40 74l-126 524h87l88 -417l194 417h88zM270 716q21 8 50.5 12t53.5 4q-14 -37 -39.5 -70t-57 -56t-63.5 -31h-5z" />
    <glyph glyph-name="ycircumflex" unicode="&#x177;" horiz-adv-x="472" 
d="M499 496l-267 -557q-39 -82 -84.5 -122.5t-108.5 -40.5q-16 0 -31 2.5t-25 7.5q5 32 17 70q20 -5 40 -5q28 0 48.5 10.5t39.5 36.5t40 74l-126 524h87l88 -417l194 417h88zM416 582h-45q-21 17 -36.5 34t-38.5 54q-35 -36 -58 -55t-47 -33h-45l112 145q17 4 44 4
q23 0 41 -3z" />
    <glyph glyph-name="ydieresis" unicode="&#xff;" horiz-adv-x="472" 
d="M499 496l-267 -557q-39 -82 -84.5 -122.5t-108.5 -40.5q-16 0 -31 2.5t-25 7.5q5 32 17 70q20 -5 40 -5q28 0 48.5 10.5t39.5 36.5t40 74l-126 524h87l88 -417l194 417h88zM164.5 618q-14.5 15 -14.5 39q0 23 14.5 38t37.5 15t38 -14.5t15 -38.5t-15 -39t-38 -15
t-37.5 15zM341.5 618q-14.5 15 -14.5 38q0 25 14.5 39.5t37.5 14.5t37.5 -15t14.5 -39q0 -23 -14.5 -38t-37.5 -15t-37.5 15z" />
    <glyph glyph-name="ygrave" unicode="&#x1ef3;" horiz-adv-x="472" 
d="M499 496l-267 -557q-39 -82 -84.5 -122.5t-108.5 -40.5q-16 0 -31 2.5t-25 7.5q5 32 17 70q20 -5 40 -5q28 0 48.5 10.5t39.5 36.5t40 74l-126 524h87l88 -417l194 417h88zM335 575q-32 8 -63.5 31t-57 56t-39.5 70q23 0 53 -4t51 -12l61 -141h-5z" />
    <glyph glyph-name="z" unicode="z" horiz-adv-x="455" 
d="M430 444l-302 -371h263q-6 -37 -20 -73h-366q2 27 11 54l298 369h-247q7 38 22 73h352q-1 -25 -11 -52z" />
    <glyph glyph-name="zacute" unicode="&#x17a;" horiz-adv-x="455" 
d="M430 444l-302 -371h263q-6 -37 -20 -73h-366q2 27 11 54l298 369h-247q7 38 22 73h352q-1 -25 -11 -52zM260 716q21 8 50.5 12t53.5 4q-14 -37 -39.5 -70t-57 -56t-63.5 -31h-5z" />
    <glyph glyph-name="zcaron" unicode="&#x17e;" horiz-adv-x="455" 
d="M430 444l-302 -371h263q-6 -37 -20 -73h-366q2 27 11 54l298 369h-247q7 38 22 73h352q-1 -25 -11 -52zM414 728l-112 -145q-17 -4 -43 -4q-25 0 -41 4l-73 145h45q22 -18 36.5 -34.5t38.5 -53.5q34 37 57 55.5t48 32.5h44z" />
    <glyph glyph-name="zdotaccent" unicode="&#x17c;" horiz-adv-x="455" 
d="M430 444l-302 -371h263q-6 -37 -20 -73h-366q2 27 11 54l298 369h-247q7 38 22 73h352q-1 -25 -11 -52zM241 614.5q-16 15.5 -16 40.5q0 26 16 41.5t40 15.5t39 -15.5t15 -41.5q0 -24 -15.5 -40t-38.5 -16q-24 0 -40 15.5z" />
    <glyph glyph-name="f_b.dlig" horiz-adv-x="816" 
d="M327 424h-145l-59 -424h-84l76 538q11 84 58 126.5t128 42.5q45 0 79 -10q-5 -25 -16 -72q-33 10 -65 10q-44 0 -68.5 -24t-32.5 -74l-6 -41h154q-10 -43 -19 -72zM734 460q45 -48 45 -143q0 -94 -30.5 -168.5t-92 -117.5t-150.5 -43q-99 0 -173 29l95 675q36 13 86 13
l-37 -269q25 36 57 54t77 18q78 0 123 -48zM611.5 93q41.5 34 61 90t19.5 125q0 65 -25 97t-81 32q-34 0 -62 -13t-54 -37l-45 -318q34 -10 82 -10q63 0 104.5 34z" />
    <glyph glyph-name="f_f_b.dlig" horiz-adv-x="1087" 
d="M607 458.5q-5 -20.5 -10 -34.5h-144l-59 -424h-84l59 424h-187l-59 -424h-84l75 537q24 170 182 170q45 0 84 -14q-6 -34 -17 -69q-35 11 -63 11q-45 0 -69.5 -24.5t-32.5 -75.5l-5 -39h186l6 42q12 84 59 126.5t128 42.5q43 0 79 -10q-7 -38 -17 -72q-33 10 -64 10
q-45 0 -69 -24t-32 -74l-6 -41h153q-4 -17 -9 -37.5zM1004.5 460.5q44.5 -47.5 44.5 -143.5q0 -94 -30.5 -168.5t-92 -117.5t-150.5 -43q-98 0 -172 29l95 675q36 13 86 13l-38 -269q25 35 57.5 53.5t76.5 18.5q79 0 123.5 -47.5zM881.5 93q41.5 34 61 90t19.5 125
q0 65 -25 97t-80 32q-61 0 -117 -49l-45 -319q40 -10 82 -10q63 0 104.5 34z" />
    <glyph glyph-name="f_f_h.dlig" horiz-adv-x="1091" 
d="M599 424h-145l-58 -424h-85l60 424h-189l-59 -424h-84l75 537q24 170 182 170q45 0 84 -14q-6 -34 -17 -69q-35 11 -63 11q-45 0 -69.5 -24.5t-32.5 -75.5l-5 -39h188l6 42q12 84 59 126.5t127 42.5q45 0 79 -10q-5 -35 -16 -72q-33 10 -65 10q-44 0 -68.5 -24t-32.5 -74
l-6 -41h154q-10 -43 -19 -72zM1000.5 469.5q36.5 -38.5 36.5 -106.5q0 -17 -3 -37l-46 -326h-85l44 312q3 21 3 39q0 44 -20.5 65t-64.5 21q-35 0 -67 -16t-57 -40l-53 -381h-85l97 692q36 13 86 13l-39 -280q33 41 70 62t82 21q65 0 101.5 -38.5z" />
    <glyph glyph-name="f_f_j.dlig" horiz-adv-x="797" 
d="M778 696.5q15 -15.5 15 -41.5q0 -24 -15.5 -40t-38.5 -16q-24 0 -40 15.5t-16 40.5q0 26 16 41.5t40 15.5t39 -15.5zM455 424l-59 -424h-84l60 424h-190l-59 -424h-84l75 537q24 170 182 170q45 0 84 -14q-6 -34 -17 -69q-35 11 -63 11q-45 0 -69.5 -24.5t-32.5 -75.5
l-5 -39h189l6 42q11 84 58.5 126.5t127.5 42.5q45 0 79 -10q-5 -25 -16 -72q-33 10 -65 10q-44 0 -68.5 -24t-32.5 -74l-6 -41h154q-10 -43 -19 -72h-145zM674 496h84l-81 -571q-11 -78 -49 -115t-102 -37q-33 0 -66 9q9 41 20 68q20 -5 38 -5q33 0 51 17.5t24 56.5z" />
    <glyph glyph-name="f_f_k.dlig" horiz-adv-x="1040" 
d="M599 424h-145l-58 -424h-85l60 424h-189l-59 -424h-84l75 537q24 170 182 170q45 0 84 -14q-6 -34 -17 -69q-35 11 -63 11q-45 0 -69.5 -24.5t-32.5 -75.5l-5 -39h188l6 42q12 84 59 126.5t127 42.5q45 0 79 -10q-5 -35 -16 -72q-33 10 -65 10q-44 0 -68.5 -24t-32.5 -74
l-6 -41h154q-10 -43 -19 -72zM783 705l-99 -705h-84l97 692q35 13 86 13zM827 260l170 -260h-97l-166 261l1 6l215 229h96z" />
    <glyph glyph-name="f_h.dlig" horiz-adv-x="819" 
d="M327 424h-145l-59 -424h-84l76 538q11 84 58 126.5t128 42.5q45 0 79 -10q-5 -25 -16 -72q-33 10 -65 10q-44 0 -68.5 -24t-32.5 -74l-6 -41h154q-10 -43 -19 -72zM728 470q36 -38 36 -105q0 -18 -3 -39l-46 -326h-84l44 312q3 21 3 39q0 44 -20.5 65t-64.5 21
q-36 0 -68 -16.5t-57 -40.5l-53 -380h-84l97 692q35 13 86 13l-39 -280q32 41 69.5 62t82.5 21q65 0 101 -38z" />
    <glyph glyph-name="f_j.dlig" horiz-adv-x="524" 
d="M504.5 696.5q15.5 -15.5 15.5 -41.5q0 -24 -15.5 -40t-39.5 -16q-23 0 -39 16t-16 40q0 26 15.5 41.5t39.5 15.5t39.5 -15.5zM182 424l-59 -424h-84l76 538q11 84 58 126.5t128 42.5q45 0 79 -10q-5 -25 -16 -72q-33 10 -65 10q-44 0 -68.5 -24t-32.5 -74l-6 -41h154
q-10 -43 -19 -72h-145zM401 496h84l-81 -571q-11 -78 -49 -115t-102 -37q-33 0 -66 9q6 33 20 68q20 -5 38 -5q33 0 51 17.5t24 56.5z" />
    <glyph glyph-name="f_k.dlig" horiz-adv-x="768" 
d="M327 424h-145l-59 -424h-84l76 538q11 84 58 126.5t128 42.5q45 0 79 -10q-5 -25 -16 -72q-33 10 -65 10q-44 0 -68.5 -24t-32.5 -74l-6 -41h154q-10 -43 -19 -72zM511 705l-99 -705h-84l97 692q35 13 86 13zM555 260l170 -260h-97l-166 261v6l216 229h96z" />
    <glyph glyph-name="t_f.dlig" horiz-adv-x="619" 
d="M138 142q-2 -16 -2 -21q0 -59 59 -59q21 0 44 5t41 14q-8 -43 -22 -79q-42 -14 -87 -14q-56 0 -88 29.5t-32 87.5q0 21 2 32l70 495q38 13 86 13l-21 -149h152q-5 -34 -19 -72h-143zM522 611q-26 -24 -33 -76l-5 -39h163q-5 -29 -19 -72h-155l-59 -424h-84l75 537
q12 85 58.5 127.5t131.5 42.5q50 0 89 -11q-3 -23 -9 -45t-7 -26q-33 10 -68 10q-52 0 -78 -24z" />
    <glyph glyph-name="t_t.dlig" horiz-adv-x="636" 
d="M138 142q-2 -16 -2 -21q0 -59 59 -59q21 0 44 5t41 14q-8 -43 -22 -79q-42 -14 -87 -14q-56 0 -88 29.5t-32 87.5q0 21 2 32l70 495q38 13 86 13l-21 -149h152q-5 -34 -19 -72h-143zM439 142q-2 -16 -2 -21q0 -59 59 -59q21 0 44 5t41 14q-8 -43 -22 -79q-42 -14 -87 -14
q-56 0 -88 29.5t-32 87.5q0 21 2 32l70 495q38 13 86 13l-21 -149h152q-5 -34 -19 -72h-143z" />
    <glyph glyph-name="ordfeminine" unicode="&#xaa;" horiz-adv-x="392" 
d="M335 694.5q30 -5.5 64 -16.5l-54 -384h-70l2 42q-20 -26 -44 -39t-54 -13q-33 0 -60 16.5t-43 49t-16 78.5q0 82 25.5 143.5t72 95t107.5 33.5q40 0 70 -5.5zM242 353q18 11 40 35l35 249q-24 7 -51 7q-39 0 -68.5 -25t-46 -72.5t-16.5 -111.5q0 -93 63 -93q26 0 44 11z
" />
    <glyph glyph-name="ordmasculine" unicode="&#xba;" horiz-adv-x="407" 
d="M100 327.5q-38 43.5 -38 122.5q0 69 23 126.5t68.5 91.5t108.5 34q73 0 111 -44t38 -124q0 -69 -24 -126t-69.5 -90.5t-107.5 -33.5q-72 0 -110 43.5zM281 377.5q27 27.5 40 69.5t13 86q0 53 -18.5 78.5t-57.5 25.5q-40 0 -67 -27.5t-39.5 -70t-12.5 -86.5q0 -53 18 -78
t57 -25q40 0 67 27.5z" />
    <glyph glyph-name="uni207F" unicode="&#x207f;" horiz-adv-x="408" 
d="M373.5 672q26.5 -30 26.5 -85q0 -17 -3 -38l-36 -255h-76l35 251q3 18 3 32q0 30 -13.5 45t-43.5 15q-26 0 -48.5 -12t-39.5 -31l-43 -300h-76l56 398h70l-3 -57q22 34 49 50.5t63 16.5q53 0 79.5 -30z" />
    <glyph glyph-name="uni0394" unicode="&#x394;" 
d="M497 0h-512l298 684q21 6 49.5 9t55.5 3zM399 77l-72 528l-224 -528h296z" />
    <glyph glyph-name="uni0394" unicode="&#x3b4;" 
d="M497 0h-512l298 684q21 6 49.5 9t55.5 3zM399 77l-72 528l-224 -528h296z" />
    <glyph glyph-name="uni03A9" unicode="&#x3a9;" 
d="M347 80h126q-5 -47 -19 -80h-177v1h-1l21 147q50 14 82.5 63.5t48 114.5t15.5 127q0 89 -30 133t-85 44q-60 0 -101 -48.5t-61 -120t-20 -140.5q0 -78 20 -119t60 -54l-17 -121l-4 -27h-190q1 17 6.5 40.5t11.5 39.5h126l4 24q-49 26 -76.5 82.5t-27.5 143.5
q0 98 32.5 184.5t95 139.5t148.5 53q64 0 108.5 -30t67 -86t22.5 -133q0 -72 -21.5 -144t-63 -129t-99.5 -83z" />
    <glyph glyph-name="uni03A9" unicode="&#x3c9;" 
d="M347 80h126q-5 -47 -19 -80h-177v1h-1l21 147q50 14 82.5 63.5t48 114.5t15.5 127q0 89 -30 133t-85 44q-60 0 -101 -48.5t-61 -120t-20 -140.5q0 -78 20 -119t60 -54l-17 -121l-4 -27h-190q1 17 6.5 40.5t11.5 39.5h126l4 24q-49 26 -76.5 82.5t-27.5 143.5
q0 98 32.5 184.5t95 139.5t148.5 53q64 0 108.5 -30t67 -86t22.5 -133q0 -72 -21.5 -144t-63 -129t-99.5 -83z" />
    <glyph glyph-name="uni03BC" unicode="&#x3bc;" 
d="M501 496l-69 -496h-78l6 74q-33 -43 -71 -64.5t-84 -21.5q-48 0 -80 21q-4 -80 -15 -151l-10 -70h-82l51 368l2 14l46 326h85l-44 -312q-3 -21 -3 -39q0 -44 20.5 -65t64.5 -21q35 0 67.5 16.5t56.5 40.5l53 380h84z" />
    <glyph glyph-name="pi" unicode="&#x3c0;" 
d="M416 115q-1 -5 -1 -15q0 -41 39 -41q25 0 46 7q-2 -14 -7.5 -33.5t-11.5 -34.5q-13 -5 -31 -7.5t-36 -2.5q-40 0 -62.5 22.5t-22.5 62.5q0 14 1 21l46 333h-170l-60 -427h-85l60 427h-82q5 32 17 69h510q-9 -40 -19 -69h-86z" />
    <glyph glyph-name="uni2099" unicode="&#x2099;" horiz-adv-x="408" 
d="M302.5 166q26.5 -30 26.5 -85q0 -17 -3 -38l-36 -255h-76l35 251q3 18 3 32q0 30 -13.5 45t-43.5 15q-26 0 -48.5 -12t-39.5 -31l-43 -300h-76l56 398h70l-3 -57q22 34 49 50.5t63 16.5q53 0 79.5 -30z" />
    <glyph glyph-name="zero" unicode="0" 
d="M99.5 44q-45.5 59 -45.5 180q0 128 30 238t94 177.5t159 67.5q94 0 139.5 -59t45.5 -181q0 -127 -30 -236.5t-94 -177.5t-159 -68q-94 0 -139.5 59zM369 146q46 81 61 204q6 60 6 119q0 83 -24.5 121t-79.5 38q-78 0 -123.5 -80.5t-60.5 -203.5q-8 -55 -8 -122
q0 -83 25 -120t80 -37q78 0 124 81z" />
    <glyph glyph-name="zero.pnum" horiz-adv-x="554" 
d="M103.5 44q-46.5 59 -46.5 179q0 130 29 239.5t92 177t160 67.5q95 0 141 -59t46 -180q0 -129 -29 -238.5t-92 -177t-159 -67.5q-95 0 -141.5 59zM373 150q46 85 60 215q6 56 6 112q-1 78 -25.5 114.5t-79.5 36.5q-79 0 -124.5 -81.5t-59.5 -206.5q-7 -60 -7 -125
q0 -78 24.5 -114t79.5 -36q80 0 126 85z" />
    <glyph glyph-name="one" unicode="1" 
d="M425 707l-97 -707h-86l86 617q-51 -9 -105.5 -24t-98.5 -32q3 41 15 82q162 60 286 64z" />
    <glyph glyph-name="one.pnum" horiz-adv-x="367" 
d="M205.5 687q63.5 15 121.5 20l-98 -707h-85l86 615q-42 -10 -85.5 -23t-76.5 -27q1 19 5 43t10 43q59 21 122.5 36z" />
    <glyph glyph-name="two" unicode="2" 
d="M219 195.5q-33 -26.5 -55 -54.5t-33 -61h310q-2 -17 -7 -40t-12 -40h-396l5 34q8 61 40.5 111.5t78.5 91.5t111 86q71 49 107 95t36 104q0 55 -31.5 80.5t-97.5 25.5q-38 0 -77.5 -9t-76.5 -25q2 42 15 82q33 15 72.5 23t81.5 8q104 0 153.5 -46t49.5 -130
q0 -81 -51 -147t-138 -126q-52 -36 -85 -62.5z" />
    <glyph glyph-name="two.pnum" horiz-adv-x="471" 
d="M190.5 196q-32.5 -27 -54.5 -55t-33 -61h309q-2 -17 -7.5 -40t-12.5 -40h-394l5 34q8 61 40 111.5t78 91.5t111 86q71 49 107 95t36 104q0 55 -31.5 80.5t-97.5 25.5q-36 0 -75 -9t-76 -25q2 40 14 82q68 31 152 31q104 0 153.5 -46t49.5 -130q0 -81 -51 -147t-138 -126
q-52 -35 -84.5 -62z" />
    <glyph glyph-name="three" unicode="3" 
d="M434 308.5q31 -37.5 31 -98.5q0 -72 -37.5 -122.5t-103 -76.5t-149.5 -26q-86 0 -150 22q1 27 17 74q52 -17 126 -17q95 0 152 36.5t57 109.5q0 57 -38.5 82.5t-124.5 25.5h-85l11 77h74q55 0 97.5 16t67 48t24.5 77q0 43 -32.5 67.5t-101.5 24.5q-72 0 -152 -29
q0 13 4.5 36.5t11.5 42.5q64 29 146 29q67 0 114 -20t71.5 -57t24.5 -88q0 -42 -18 -79t-50.5 -63t-73.5 -40q56 -14 87 -51.5z" />
    <glyph glyph-name="three.pnum" horiz-adv-x="477" 
d="M398 309q30 -37 30 -99q0 -72 -36 -122.5t-99 -76.5t-144 -26q-87 0 -150 22q1 16 6 36.5t11 37.5q26 -9 59 -13t66 -4q92 0 146 36.5t54 109.5q0 38 -16.5 62t-51.5 35t-92 11h-78l11 77h67q54 0 96 16t66 48t24 77q0 92 -125 92q-72 0 -152 -29q1 14 6 37t11 42
q64 29 145 29q98 0 149.5 -43.5t51.5 -121.5q0 -43 -18 -79.5t-49.5 -62.5t-72.5 -40q55 -14 85 -51z" />
    <glyph glyph-name="four" unicode="4" 
d="M514.5 212.5q-5.5 -22.5 -12.5 -36.5h-82l-24 -176h-83l25 176h-306q2 23 5 43t9 37q63 106 159.5 223t199.5 215q35 5 87 5l-61 -446h92q-3 -18 -8.5 -40.5zM349 253l46 330q-160 -165 -265 -330h219z" />
    <glyph glyph-name="four.pnum" horiz-adv-x="518" 
d="M495.5 213.5q-5.5 -22.5 -12.5 -37.5h-83l-24 -176h-83l25 176h-306q4 46 14 80q63 106 159.5 223t199.5 215q35 5 87 5l-61 -446h92q-2 -17 -7.5 -39.5zM329 253l46 330q-160 -165 -265 -330h219z" />
    <glyph glyph-name="five" unicode="5" 
d="M249 612l-40 -179q24 4 57 4q62 0 107 -22t69.5 -64t24.5 -102q0 -85 -34.5 -144.5t-98 -89.5t-149.5 -30q-88 0 -148 22q3 31 18 74q54 -17 125 -17q61 0 106.5 21.5t70 62.5t24.5 98q0 58 -37 86.5t-106 28.5q-67 0 -131 -18l74 349h332q-7 -41 -19 -80h-245z" />
    <glyph glyph-name="five.pnum" horiz-adv-x="496" 
d="M229 612l-40 -179q24 4 57 4q62 0 107 -22t69.5 -64t24.5 -102q0 -85 -34.5 -144.5t-98 -89.5t-149.5 -30q-88 0 -148 22q3 31 18 74q54 -17 125 -17q61 0 106.5 21.5t70 62.5t24.5 98q0 58 -37 86.5t-106 28.5q-67 0 -131 -18l74 349h332q-7 -41 -19 -80h-245z" />
    <glyph glyph-name="six" unicode="6" 
d="M279.5 600.5q-49.5 -27.5 -80.5 -86.5t-46 -155q66 84 177 84q52 0 90.5 -21.5t59 -64t20.5 -102.5q0 -74 -29.5 -136t-84.5 -98t-129 -36q-94 0 -145 57.5t-51 171.5q0 62 5 119q12 113 52.5 197t112 130.5t172.5 46.5q36 0 65.5 -6.5t51.5 -18.5q-1 -16 -4.5 -36
t-9.5 -39q-20 10 -48 15.5t-56 5.5q-73 0 -122.5 -27.5zM145 287q-3 -39 -3 -69q0 -78 28.5 -116t86.5 -38q49 0 84.5 26.5t53.5 70t18 94.5q0 55 -28 83t-77 28q-86 0 -163 -79z" />
    <glyph glyph-name="six.pnum" horiz-adv-x="542" 
d="M274.5 600.5q-49.5 -27.5 -80.5 -86.5t-46 -155q66 84 177 84q52 0 90.5 -21.5t59 -64t20.5 -102.5q0 -74 -29.5 -136t-84.5 -98t-129 -36q-94 0 -145 57.5t-51 171.5q0 62 5 119q12 113 52.5 197t112 130.5t172.5 46.5q36 0 65.5 -6.5t51.5 -18.5q-1 -16 -4.5 -36
t-9.5 -39q-20 10 -48 15.5t-56 5.5q-73 0 -122.5 -27.5zM140 287q-3 -39 -3 -69q0 -78 28.5 -116t86.5 -38q49 0 84.5 26.5t53.5 70t18 94.5q0 55 -28 83t-77 28q-86 0 -163 -79z" />
    <glyph glyph-name="seven" unicode="7" 
d="M558 692q-5 -38 -15 -68q-112 -145 -198.5 -302.5t-144.5 -321.5h-89q54 159 138 314.5t189 297.5h-338q2 19 8 42t12 38h438z" />
    <glyph glyph-name="seven.pnum" horiz-adv-x="452" 
d="M501 692q-6 -44 -15 -68q-107 -138 -186.5 -293.5t-140.5 -330.5h-90q57 168 135.5 322.5t177.5 289.5h-319q3 19 8.5 42t11.5 38h418z" />
    <glyph glyph-name="eight" unicode="8" 
d="M494 190q0 -60 -32 -106.5t-89 -72.5t-128 -26q-64 0 -111.5 20t-73 58.5t-25.5 93.5q0 66 43.5 117t119.5 78q-92 53 -92 159q0 58 28.5 102.5t80.5 69t118 24.5q60 0 103 -19.5t65.5 -55.5t22.5 -85q0 -124 -140 -187q110 -52 110 -170zM253.5 617.5
q-31.5 -17.5 -47 -46t-15.5 -60.5q0 -47 25.5 -74t75.5 -43l7 -3q141 56 141 152q0 43 -28.5 67.5t-81.5 24.5q-45 0 -76.5 -17.5zM330 74.5q37 17.5 58 48.5t21 70q0 86 -106 118l-27 9q-73 -24 -113.5 -64t-40.5 -98q0 -51 33.5 -76t90.5 -25q47 0 84 17.5z" />
    <glyph glyph-name="eight.pnum" horiz-adv-x="547" 
d="M492 190q0 -60 -32 -106.5t-89 -72.5t-128 -26q-64 0 -111.5 20t-73 58.5t-25.5 93.5q0 66 43.5 117t119.5 78q-92 53 -92 159q0 58 28.5 102.5t80.5 69t118 24.5q60 0 103 -19.5t65.5 -55.5t22.5 -85q0 -124 -140 -187q110 -52 110 -170zM251.5 617.5
q-31.5 -17.5 -47 -46t-15.5 -60.5q0 -47 25.5 -74t75.5 -43l7 -3q141 56 141 152q0 43 -28.5 67.5t-81.5 24.5q-45 0 -76.5 -17.5zM328 74.5q37 17.5 58 48.5t21 70q0 86 -106 118l-27 9q-73 -24 -113.5 -64t-40.5 -98q0 -51 33.5 -76t90.5 -25q47 0 84 17.5z" />
    <glyph glyph-name="nine" unicode="9" 
d="M466 650.5q51 -57.5 51 -171.5q0 -62 -5 -119q-12 -113 -52.5 -197t-112 -130.5t-172.5 -46.5q-36 0 -65.5 6.5t-51.5 18.5q1 16 4.5 36t9.5 39q20 -10 48 -15.5t56 -5.5q73 0 122.5 27.5t80.5 86.5t46 155q-66 -84 -177 -84q-52 0 -90.5 21.5t-59 64t-20.5 102.5
q0 74 29.5 136t84.5 98t129 36q94 0 145 -57.5zM433 406q3 39 3 69q0 78 -28.5 116t-86.5 38q-49 0 -84.5 -26.5t-53.5 -70t-18 -94.5q0 -55 28 -83t77 -28q86 0 163 79z" />
    <glyph glyph-name="nine.pnum" horiz-adv-x="542" 
d="M463 650q51 -58 51 -172q0 -49 -6 -119q-12 -113 -52.5 -197t-112 -130.5t-172.5 -46.5q-35 0 -65 7t-51 19q0 15 3.5 35.5t10.5 39.5q19 -10 47 -16t56 -6q73 0 123 28t81 87.5t45 155.5q-33 -44 -78 -65t-98 -21q-80 0 -125 49t-45 140q0 74 29 136t84 98t129 36
q95 0 146 -58zM430 406q3 39 3 68q0 79 -28.5 117t-86.5 38q-49 0 -84.5 -26.5t-54 -70t-18.5 -94.5q0 -56 28 -83.5t78 -27.5q86 0 163 79z" />
    <glyph glyph-name="uni2080" unicode="&#x2080;" horiz-adv-x="388" 
d="M37.5 -190.5q-31.5 32.5 -31.5 93.5q0 108 42.5 172.5t126.5 64.5q63 0 94 -32t31 -94q0 -70 -18.5 -123.5t-56.5 -83.5t-94 -30q-62 0 -93.5 32.5zM177 -149.5q18 12.5 29 39t18 70.5q4 28 4 55q0 32 -13 48t-41 16q-27 0 -44.5 -12.5t-28.5 -38.5t-18 -70
q-5 -37 -5 -57q0 -63 54 -63q27 0 45 12.5z" />
    <glyph glyph-name="uni2081" unicode="&#x2081;" horiz-adv-x="263" 
d="M90 130.5q44 8.5 83 9.5l-48 -352h-71l40 285q-55 -10 -99 -25q2 22 4 35.5t8 26.5q39 12 83 20.5z" />
    <glyph glyph-name="uni2082" unicode="&#x2082;" horiz-adv-x="317" 
d="M74 -124.5q-20 -14.5 -26 -32.5h177q-1 -12 -4.5 -28t-8.5 -27h-244l4 26q4 31 15 53.5t34.5 42t63.5 38.5q31 15 49 26.5t27.5 26t9.5 35.5q0 22 -18 32.5t-57 10.5t-87 -13q1 16 3.5 31.5t7.5 28.5q39 13 93 13q64 0 96.5 -26t32.5 -76q0 -43 -27 -73.5t-81 -54.5
q-40 -19 -60 -33.5z" />
    <glyph glyph-name="uni2083" unicode="&#x2083;" horiz-adv-x="321" 
d="M211.5 -60.5q16.5 -18.5 16.5 -48.5q0 -55 -43 -84.5t-123 -29.5q-45 0 -95 12q0 26 12 55q36 -10 82 -10q96 0 96 58q0 24 -21 33t-64 9h-45l9 55h30q50 0 74.5 11t24.5 41q0 21 -14 31t-49 10q-48 0 -92 -13q0 13 2.5 29t7.5 29q39 12 90 12q60 0 94 -22t34 -65
q0 -33 -20.5 -55.5t-57.5 -31.5q35 -7 51.5 -25.5z" />
    <glyph glyph-name="uni2084" unicode="&#x2084;" horiz-adv-x="341" 
d="M273 -113q-4 -13 -10 -29h-50l-10 -70h-63l10 70h-184q2 16 4.5 30t7.5 30q40 56 95 116.5t104 100.5q19 3 37.5 3.5t36.5 0.5l-31 -225h59q-2 -14 -6 -27zM158 -86l21 149q-73 -67 -135 -149h114z" />
    <glyph glyph-name="uni2085" unicode="&#x2085;" horiz-adv-x="351" 
d="M120 72l-15 -64h11q64 0 102.5 -25.5t38.5 -75.5q0 -66 -47 -98.5t-129 -32.5q-25 0 -51 3.5t-44 10.5q1 23 13 58q37 -10 78 -10q52 0 79 15.5t27 45.5q0 27 -20 38.5t-69 11.5q-30 0 -72 -7l41 190h216q-1 -14 -5 -32.5t-8 -27.5h-146z" />
    <glyph glyph-name="uni2086" unicode="&#x2086;" horiz-adv-x="377" 
d="M230 -0.5q25 -12.5 39 -35.5t14 -53q0 -38 -16 -68.5t-47 -48.5t-76 -18q-65 0 -102 36.5t-37 100.5q0 22 3 44q25 183 189 183q29 0 54 -5t41 -14q1 -11 -2.5 -27t-9.5 -28q-35 16 -81 16q-50 0 -77.5 -26t-40.5 -78q17 16 40.5 25t50.5 9q33 0 58 -12.5zM195.5 -147.5
q18.5 19.5 18.5 50.5q0 22 -15 36.5t-44 14.5q-21 0 -43 -8t-40 -22q-1 -6 -1 -18q0 -34 18.5 -53.5t50.5 -19.5q37 0 55.5 19.5z" />
    <glyph glyph-name="uni2087" unicode="&#x2087;" horiz-adv-x="298" 
d="M267 130q-1 -13 -4.5 -29.5t-7.5 -30.5q-125 -145 -179 -282h-74q28 74 71.5 147t98.5 138h-184q1 11 5 29t8 28h266z" />
    <glyph glyph-name="uni2088" unicode="&#x2088;" horiz-adv-x="387" 
d="M289 -117q0 -51 -40.5 -79t-115.5 -28q-66 0 -103.5 24t-37.5 65q0 31 19.5 54.5t67.5 36.5q-26 14 -40 34.5t-14 46.5q0 31 17 54.5t50 36.5t78 13q65 0 99 -24.5t34 -65.5q0 -33 -20 -53t-58 -32q64 -27 64 -83zM113.5 74.5q-18.5 -13.5 -18.5 -35.5q0 -20 15.5 -32
t46.5 -20l7 -2q36 9 54 23t18 38q0 17 -17 29.5t-49 12.5q-38 0 -56.5 -13.5zM198.5 -154q22.5 14 22.5 37q0 19 -14 30t-49 19l-15 4q-38 -9 -59 -25.5t-21 -38.5q0 -20 19.5 -30t53.5 -10q40 0 62.5 14z" />
    <glyph glyph-name="uni2089" unicode="&#x2089;" horiz-adv-x="377" 
d="M225.5 124.5q31.5 -16.5 48 -47.5t16.5 -73q0 -21 -3 -44q-12 -89 -59 -136t-130 -47q-29 0 -53.5 5t-41.5 13q-1 11 2.5 27.5t8.5 28.5q36 -16 82 -16q50 0 77.5 26.5t40.5 78.5q-17 -17 -40.5 -26t-50.5 -9q-50 0 -80.5 27.5t-30.5 73.5q0 38 15.5 69t47 48.5
t76.5 17.5q43 0 74.5 -16.5zM182 -29q22 8 41 22q1 6 1 18q0 34 -18.5 53t-50.5 19q-38 0 -56.5 -19t-18.5 -50q0 -22 15.5 -36.5t44.5 -14.5q20 0 42 8z" />
    <glyph glyph-name="zero.dnom" horiz-adv-x="388" 
d="M67.5 21.5q-31.5 32.5 -31.5 93.5q0 108 42.5 172.5t126.5 64.5q63 0 94 -32t31 -94q0 -70 -18.5 -123.5t-56.5 -83.5t-94 -30q-62 0 -93.5 32.5zM207 62.5q18 12.5 29 39t18 70.5q4 28 4 55q0 32 -13 48t-41 16q-27 0 -44.5 -12.5t-28.5 -38.5t-18 -70q-5 -37 -5 -57
q0 -63 54 -63q27 0 45 12.5z" />
    <glyph glyph-name="one.dnom" horiz-adv-x="263" 
d="M120 342.5q44 8.5 83 9.5l-48 -352h-71l40 285q-55 -10 -99 -25q2 22 4 35.5t8 26.5q39 12 83 20.5z" />
    <glyph glyph-name="two.dnom" horiz-adv-x="317" 
d="M104 87.5q-20 -14.5 -26 -32.5h177q-1 -12 -4.5 -28t-8.5 -27h-244l4 26q4 31 15 53.5t34.5 42t63.5 38.5q31 15 49 26.5t27.5 26t9.5 35.5q0 22 -18 32.5t-57 10.5t-87 -13q1 16 3.5 31.5t7.5 28.5q39 13 93 13q64 0 96.5 -26t32.5 -76q0 -43 -27 -73.5t-81 -54.5
q-40 -19 -60 -33.5z" />
    <glyph glyph-name="three.dnom" horiz-adv-x="321" 
d="M241.5 151.5q16.5 -18.5 16.5 -48.5q0 -55 -43 -84.5t-123 -29.5q-45 0 -95 12q0 26 12 55q36 -10 82 -10q96 0 96 58q0 24 -21 33t-64 9h-45l9 55h30q50 0 74.5 11t24.5 41q0 21 -14 31t-49 10q-48 0 -92 -13q0 13 2.5 29t7.5 29q39 12 90 12q60 0 94 -22t34 -65
q0 -33 -20.5 -55.5t-57.5 -31.5q35 -7 51.5 -25.5z" />
    <glyph glyph-name="four.dnom" horiz-adv-x="341" 
d="M303 99q-4 -13 -10 -29h-50l-10 -70h-63l10 70h-184q2 16 4.5 30t7.5 30q40 56 95 116.5t104 100.5q19 3 37.5 3.5t36.5 0.5l-31 -225h59q-2 -14 -6 -27zM188 126l21 149q-73 -67 -135 -149h114z" />
    <glyph glyph-name="five.dnom" horiz-adv-x="351" 
d="M150 284l-15 -64h11q64 0 102.5 -25.5t38.5 -75.5q0 -66 -47 -98.5t-129 -32.5q-25 0 -51 3.5t-44 10.5q1 23 13 58q37 -10 78 -10q52 0 79 15.5t27 45.5q0 27 -20 38.5t-69 11.5q-30 0 -72 -7l41 190h216q-1 -14 -5 -32.5t-8 -27.5h-146z" />
    <glyph glyph-name="six.dnom" horiz-adv-x="377" 
d="M260 211.5q25 -12.5 39 -35.5t14 -53q0 -38 -16 -68.5t-47 -48.5t-76 -18q-65 0 -102 36.5t-37 100.5q0 22 3 44q25 183 189 183q29 0 54 -5t41 -14q1 -11 -2.5 -27t-9.5 -28q-35 16 -81 16q-50 0 -77.5 -26t-40.5 -78q17 16 40.5 25t50.5 9q33 0 58 -12.5zM225.5 64.5
q18.5 19.5 18.5 50.5q0 22 -15 36.5t-44 14.5q-21 0 -43 -8t-40 -22q-1 -6 -1 -18q0 -34 18.5 -53.5t50.5 -19.5q37 0 55.5 19.5z" />
    <glyph glyph-name="seven.dnom" horiz-adv-x="298" 
d="M297 342q-1 -13 -4.5 -29.5t-7.5 -30.5q-125 -145 -179 -282h-74q28 74 71.5 147t98.5 138h-184q1 11 5 29t8 28h266z" />
    <glyph glyph-name="eight.dnom" horiz-adv-x="387" 
d="M319 95q0 -51 -40.5 -79t-115.5 -28q-66 0 -103.5 24t-37.5 65q0 31 19.5 54.5t67.5 36.5q-26 14 -40 34.5t-14 46.5q0 31 17 54.5t50 36.5t78 13q65 0 99 -24.5t34 -65.5q0 -33 -20 -53t-58 -32q64 -27 64 -83zM143.5 286.5q-18.5 -13.5 -18.5 -35.5q0 -20 15.5 -32
t46.5 -20l7 -2q36 9 54 23t18 38q0 17 -17 29.5t-49 12.5q-38 0 -56.5 -13.5zM228.5 58q22.5 14 22.5 37q0 19 -14 30t-49 19l-15 4q-38 -9 -59 -25.5t-21 -38.5q0 -20 19.5 -30t53.5 -10q40 0 62.5 14z" />
    <glyph glyph-name="nine.dnom" horiz-adv-x="377" 
d="M255.5 336.5q31.5 -16.5 48 -47.5t16.5 -73q0 -21 -3 -44q-12 -89 -59 -136t-130 -47q-29 0 -53.5 5t-41.5 13q-1 11 2.5 27.5t8.5 28.5q36 -16 82 -16q50 0 77.5 26.5t40.5 78.5q-17 -17 -40.5 -26t-50.5 -9q-50 0 -80.5 27.5t-30.5 73.5q0 38 15.5 69t47 48.5
t76.5 17.5q43 0 74.5 -16.5zM212 183q22 8 41 22q1 6 1 18q0 34 -18.5 53t-50.5 19q-38 0 -56.5 -19t-18.5 -50q0 -22 15.5 -36.5t44.5 -14.5q20 0 42 8z" />
    <glyph glyph-name="zero.numr" horiz-adv-x="388" 
d="M115.5 366.5q-31.5 32.5 -31.5 93.5q0 108 42.5 172.5t126.5 64.5q63 0 94 -32t31 -94q0 -70 -18.5 -123.5t-56.5 -83.5t-94 -30q-62 0 -93.5 32.5zM255 407.5q18 12.5 29 39t18 70.5q4 28 4 55q0 32 -13 48t-41 16q-27 0 -44.5 -12.5t-28.5 -38.5t-18 -70q-5 -37 -5 -57
q0 -63 54 -63q27 0 45 12.5z" />
    <glyph glyph-name="one.numr" horiz-adv-x="263" 
d="M168 687.5q44 8.5 83 9.5l-48 -352h-71l40 285q-55 -10 -99 -25q2 22 4 35.5t8 26.5q39 12 83 20.5z" />
    <glyph glyph-name="two.numr" horiz-adv-x="317" 
d="M152 432.5q-20 -14.5 -26 -32.5h177q-1 -12 -4.5 -28t-8.5 -27h-244l4 26q4 31 15 53.5t34.5 42t63.5 38.5q31 15 49 26.5t27.5 26t9.5 35.5q0 22 -18 32.5t-57 10.5t-87 -13q1 16 3.5 31.5t7.5 28.5q39 13 93 13q64 0 96.5 -26t32.5 -76q0 -43 -27 -73.5t-81 -54.5
q-40 -19 -60 -33.5z" />
    <glyph glyph-name="three.numr" horiz-adv-x="321" 
d="M289.5 496.5q16.5 -18.5 16.5 -48.5q0 -55 -43 -84.5t-123 -29.5q-45 0 -95 12q0 26 12 55q36 -10 82 -10q96 0 96 58q0 24 -21 33t-64 9h-45l9 55h30q50 0 74.5 11t24.5 41q0 21 -14 31t-49 10q-48 0 -92 -13q0 13 2.5 29t7.5 29q39 12 90 12q60 0 94 -22t34 -65
q0 -33 -20.5 -55.5t-57.5 -31.5q35 -7 51.5 -25.5z" />
    <glyph glyph-name="four.numr" horiz-adv-x="341" 
d="M351 444q-4 -13 -10 -29h-50l-10 -70h-63l10 70h-184q2 16 4.5 30t7.5 30q40 56 95 116.5t104 100.5q19 3 37.5 3.5t36.5 0.5l-31 -225h59q-2 -14 -6 -27zM236 471l21 149q-73 -67 -135 -149h114z" />
    <glyph glyph-name="five.numr" horiz-adv-x="351" 
d="M198 629l-15 -64h11q64 0 102.5 -25.5t38.5 -75.5q0 -66 -47 -98.5t-129 -32.5q-25 0 -51 3.5t-44 10.5q1 23 13 58q37 -10 78 -10q52 0 79 15.5t27 45.5q0 27 -20 38.5t-69 11.5q-30 0 -72 -7l41 190h216q-1 -14 -5 -32.5t-8 -27.5h-146z" />
    <glyph glyph-name="six.numr" horiz-adv-x="377" 
d="M308 556.5q25 -12.5 39 -35.5t14 -53q0 -38 -16 -68.5t-47 -48.5t-76 -18q-65 0 -102 36.5t-37 100.5q0 22 3 44q25 183 189 183q29 0 54 -5t41 -14q1 -11 -2.5 -27t-9.5 -28q-35 16 -81 16q-50 0 -77.5 -26t-40.5 -78q17 16 40.5 25t50.5 9q33 0 58 -12.5zM273.5 409.5
q18.5 19.5 18.5 50.5q0 22 -15 36.5t-44 14.5q-21 0 -43 -8t-40 -22q-1 -6 -1 -18q0 -34 18.5 -53.5t50.5 -19.5q37 0 55.5 19.5z" />
    <glyph glyph-name="seven.numr" horiz-adv-x="298" 
d="M345 687q-1 -13 -4.5 -29.5t-7.5 -30.5q-125 -145 -179 -282h-74q28 74 71.5 147t98.5 138h-184q1 11 5 29t8 28h266z" />
    <glyph glyph-name="eight.numr" horiz-adv-x="387" 
d="M367 440q0 -51 -40.5 -79t-115.5 -28q-66 0 -103.5 24t-37.5 65q0 31 19.5 54.5t67.5 36.5q-26 14 -40 34.5t-14 46.5q0 31 17 54.5t50 36.5t78 13q65 0 99 -24.5t34 -65.5q0 -33 -20 -53t-58 -32q64 -27 64 -83zM191.5 631.5q-18.5 -13.5 -18.5 -35.5q0 -20 15.5 -32
t46.5 -20l7 -2q36 9 54 23t18 38q0 17 -17 29.5t-49 12.5q-38 0 -56.5 -13.5zM276.5 403q22.5 14 22.5 37q0 19 -14 30t-49 19l-15 4q-38 -9 -59 -25.5t-21 -38.5q0 -20 19.5 -30t53.5 -10q40 0 62.5 14z" />
    <glyph glyph-name="nine.numr" horiz-adv-x="377" 
d="M303.5 681.5q31.5 -16.5 48 -47.5t16.5 -73q0 -21 -3 -44q-12 -89 -59 -136t-130 -47q-29 0 -53.5 5t-41.5 13q-1 11 2.5 27.5t8.5 28.5q36 -16 82 -16q50 0 77.5 26.5t40.5 78.5q-17 -17 -40.5 -26t-50.5 -9q-50 0 -80.5 27.5t-30.5 73.5q0 38 15.5 69t47 48.5
t76.5 17.5q43 0 74.5 -16.5zM260 528q22 8 41 22q1 6 1 18q0 34 -18.5 53t-50.5 19q-38 0 -56.5 -19t-18.5 -50q0 -22 15.5 -36.5t44.5 -14.5q20 0 42 8z" />
    <glyph glyph-name="uni2070" unicode="&#x2070;" horiz-adv-x="388" 
d="M133.5 488.5q-31.5 32.5 -31.5 93.5q0 108 42.5 172.5t126.5 64.5q63 0 94 -32t31 -94q0 -70 -18.5 -123.5t-56.5 -83.5t-94 -30q-62 0 -93.5 32.5zM273 529.5q18 12.5 29 39t18 70.5q4 28 4 55q0 32 -13 48t-41 16q-27 0 -44.5 -12.5t-28.5 -38.5t-18 -70q-5 -37 -5 -57
q0 -63 54 -63q27 0 45 12.5z" />
    <glyph glyph-name="uni00B9" unicode="&#xb9;" horiz-adv-x="263" 
d="M186 809.5q44 8.5 83 9.5l-48 -352h-71l40 285q-55 -10 -99 -25q2 22 4 35.5t8 26.5q39 12 83 20.5z" />
    <glyph glyph-name="uni00B2" unicode="&#xb2;" horiz-adv-x="317" 
d="M170 554.5q-20 -14.5 -26 -32.5h177q-1 -12 -4.5 -28t-8.5 -27h-244l4 26q4 31 15 53.5t34.5 42t63.5 38.5q31 15 49 26.5t27.5 26t9.5 35.5q0 22 -18 32.5t-57 10.5t-87 -13q1 16 3.5 31.5t7.5 28.5q39 13 93 13q64 0 96.5 -26t32.5 -76q0 -43 -27 -73.5t-81 -54.5
q-40 -19 -60 -33.5z" />
    <glyph glyph-name="uni00B3" unicode="&#xb3;" horiz-adv-x="321" 
d="M307.5 618.5q16.5 -18.5 16.5 -48.5q0 -55 -43 -84.5t-123 -29.5q-45 0 -95 12q0 26 12 55q36 -10 82 -10q96 0 96 58q0 24 -21 33t-64 9h-45l9 55h30q50 0 74.5 11t24.5 41q0 21 -14 31t-49 10q-48 0 -92 -13q0 13 2.5 29t7.5 29q39 12 90 12q60 0 94 -22t34 -65
q0 -33 -20.5 -55.5t-57.5 -31.5q35 -7 51.5 -25.5z" />
    <glyph glyph-name="uni2074" unicode="&#x2074;" horiz-adv-x="341" 
d="M369 566q-4 -13 -10 -29h-50l-10 -70h-63l10 70h-184q2 16 4.5 30t7.5 30q40 56 95 116.5t104 100.5q19 3 37.5 3.5t36.5 0.5l-31 -225h59q-2 -14 -6 -27zM254 593l21 149q-73 -67 -135 -149h114z" />
    <glyph glyph-name="uni2075" unicode="&#x2075;" horiz-adv-x="351" 
d="M216 751l-15 -64h11q64 0 102.5 -25.5t38.5 -75.5q0 -66 -47 -98.5t-129 -32.5q-25 0 -51 3.5t-44 10.5q1 23 13 58q37 -10 78 -10q52 0 79 15.5t27 45.5q0 27 -20 38.5t-69 11.5q-30 0 -72 -7l41 190h216q-1 -14 -5 -32.5t-8 -27.5h-146z" />
    <glyph glyph-name="uni2076" unicode="&#x2076;" horiz-adv-x="377" 
d="M326 678.5q25 -12.5 39 -35.5t14 -53q0 -38 -16 -68.5t-47 -48.5t-76 -18q-65 0 -102 36.5t-37 100.5q0 22 3 44q25 183 189 183q29 0 54 -5t41 -14q1 -11 -2.5 -27t-9.5 -28q-35 16 -81 16q-50 0 -77.5 -26t-40.5 -78q17 16 40.5 25t50.5 9q33 0 58 -12.5zM291.5 531.5
q18.5 19.5 18.5 50.5q0 22 -15 36.5t-44 14.5q-21 0 -43 -8t-40 -22q-1 -6 -1 -18q0 -34 18.5 -53.5t50.5 -19.5q37 0 55.5 19.5z" />
    <glyph glyph-name="uni2077" unicode="&#x2077;" horiz-adv-x="298" 
d="M363 809q-1 -13 -4.5 -29.5t-7.5 -30.5q-125 -145 -179 -282h-74q28 74 71.5 147t98.5 138h-184q1 11 5 29t8 28h266z" />
    <glyph glyph-name="uni2078" unicode="&#x2078;" horiz-adv-x="387" 
d="M385 562q0 -51 -40.5 -79t-115.5 -28q-66 0 -103.5 24t-37.5 65q0 31 19.5 54.5t67.5 36.5q-26 14 -40 34.5t-14 46.5q0 31 17 54.5t50 36.5t78 13q65 0 99 -24.5t34 -65.5q0 -33 -20 -53t-58 -32q64 -27 64 -83zM209.5 753.5q-18.5 -13.5 -18.5 -35.5q0 -20 15.5 -32
t46.5 -20l7 -2q36 9 54 23t18 38q0 17 -17 29.5t-49 12.5q-38 0 -56.5 -13.5zM294.5 525q22.5 14 22.5 37q0 19 -14 30t-49 19l-15 4q-38 -9 -59 -25.5t-21 -38.5q0 -20 19.5 -30t53.5 -10q40 0 62.5 14z" />
    <glyph glyph-name="uni2079" unicode="&#x2079;" horiz-adv-x="377" 
d="M321.5 803.5q31.5 -16.5 48 -47.5t16.5 -73q0 -21 -3 -44q-12 -89 -59 -136t-130 -47q-29 0 -53.5 5t-41.5 13q-1 11 2.5 27.5t8.5 28.5q36 -16 82 -16q50 0 77.5 26.5t40.5 78.5q-17 -17 -40.5 -26t-50.5 -9q-50 0 -80.5 27.5t-30.5 73.5q0 38 15.5 69t47 48.5
t76.5 17.5q43 0 74.5 -16.5zM278 650q22 8 41 22q1 6 1 18q0 34 -18.5 53t-50.5 19q-38 0 -56.5 -19t-18.5 -50q0 -22 15.5 -36.5t44.5 -14.5q20 0 42 8z" />
    <glyph glyph-name="fraction" unicode="&#x2044;" horiz-adv-x="207" 
d="M253 692q39 6 80 7l-353 -699q-39 -6 -79 -7z" />
    <glyph glyph-name="onehalf" unicode="&#xbd;" horiz-adv-x="745" 
d="M168 687.5q44 8.5 83 9.5l-48 -352h-71l40 285q-55 -10 -99 -25q2 22 4 35.5t8 26.5q39 12 83 20.5zM458 692q39 6 80 7l-353 -699q-39 -6 -79 -7zM494 87.5q-20 -14.5 -26 -32.5h177q-1 -12 -4.5 -28t-8.5 -27h-244l4 26q4 31 15 53.5t34.5 42t63.5 38.5q31 15 49 26.5
t27.5 26t9.5 35.5q0 22 -18 32.5t-57 10.5t-87 -13q1 16 3.5 31.5t7.5 28.5q39 13 93 13q64 0 96.5 -26t32.5 -76q0 -43 -27 -73.5t-81 -54.5q-40 -19 -60 -33.5z" />
    <glyph glyph-name="onequarter" unicode="&#xbc;" horiz-adv-x="731" 
d="M168 687.5q44 8.5 83 9.5l-48 -352h-71l40 285q-55 -10 -99 -25q2 22 4 35.5t8 26.5q39 12 83 20.5zM463 692q39 6 80 7l-353 -699q-39 -6 -79 -7zM635 99q-4 -13 -10 -29h-50l-10 -70h-63l10 70h-184q2 16 4.5 30t7.5 30q40 56 95 116.5t104 100.5q19 3 37.5 3.5
t36.5 0.5l-31 -225h59q-2 -14 -6 -27zM520 126l21 149q-73 -67 -135 -149h114z" />
    <glyph glyph-name="threequarters" unicode="&#xbe;" horiz-adv-x="751" 
d="M289.5 496.5q16.5 -18.5 16.5 -48.5q0 -55 -43 -84.5t-123 -29.5q-45 0 -95 12q0 26 12 55q36 -10 82 -10q96 0 96 58q0 24 -21 33t-64 9h-45l9 55h30q50 0 74.5 11t24.5 41q0 21 -14 31t-49 10q-48 0 -92 -13q0 13 2.5 29t7.5 29q39 12 90 12q60 0 94 -22t34 -65
q0 -33 -20.5 -55.5t-57.5 -31.5q35 -7 51.5 -25.5zM527 692q39 6 80 7l-353 -699q-39 -6 -79 -7zM687 99q-4 -13 -10 -29h-50l-10 -70h-63l10 70h-184q2 16 4.5 30t7.5 30q40 56 95 116.5t104 100.5q19 3 37.5 3.5t36.5 0.5l-31 -225h59q-2 -14 -6 -27zM572 126l21 149
q-73 -67 -135 -149h114z" />
    <glyph glyph-name="oneeighth" unicode="&#x215b;" horiz-adv-x="790" 
d="M168 687.5q44 8.5 83 9.5l-48 -352h-71l40 285q-55 -10 -99 -25q2 22 4 35.5t8 26.5q39 12 83 20.5zM469 692q39 6 80 7l-353 -699q-39 -6 -79 -7zM695 95q0 -51 -40.5 -79t-115.5 -28q-66 0 -103.5 24t-37.5 65q0 31 19.5 54.5t67.5 36.5q-26 14 -40 34.5t-14 46.5
q0 31 17 54.5t50 36.5t78 13q65 0 99 -24.5t34 -65.5q0 -33 -20 -53t-58 -32q64 -27 64 -83zM519.5 286.5q-18.5 -13.5 -18.5 -35.5q0 -20 15.5 -32t46.5 -20l7 -2q36 9 54 23t18 38q0 17 -17 29.5t-49 12.5q-38 0 -56.5 -13.5zM604.5 58q22.5 14 22.5 37q0 19 -14 30
t-49 19l-15 4q-38 -9 -59 -25.5t-21 -38.5q0 -20 19.5 -30t53.5 -10q40 0 62.5 14z" />
    <glyph glyph-name="threeeighths" unicode="&#x215c;" horiz-adv-x="803" 
d="M289.5 496.5q16.5 -18.5 16.5 -48.5q0 -55 -43 -84.5t-123 -29.5q-45 0 -95 12q0 26 12 55q36 -10 82 -10q96 0 96 58q0 24 -21 33t-64 9h-45l9 55h30q50 0 74.5 11t24.5 41q0 21 -14 31t-49 10q-48 0 -92 -13q0 13 2.5 29t7.5 29q39 12 90 12q60 0 94 -22t34 -65
q0 -33 -20.5 -55.5t-57.5 -31.5q35 -7 51.5 -25.5zM523 692q39 6 80 7l-353 -699q-39 -6 -79 -7zM739 95q0 -51 -40.5 -79t-115.5 -28q-66 0 -103.5 24t-37.5 65q0 31 19.5 54.5t67.5 36.5q-26 14 -40 34.5t-14 46.5q0 31 17 54.5t50 36.5t78 13q65 0 99 -24.5t34 -65.5
q0 -33 -20 -53t-58 -32q64 -27 64 -83zM563.5 286.5q-18.5 -13.5 -18.5 -35.5q0 -20 15.5 -32t46.5 -20l7 -2q36 9 54 23t18 38q0 17 -17 29.5t-49 12.5q-38 0 -56.5 -13.5zM648.5 58q22.5 14 22.5 37q0 19 -14 30t-49 19l-15 4q-38 -9 -59 -25.5t-21 -38.5q0 -20 19.5 -30
t53.5 -10q40 0 62.5 14z" />
    <glyph glyph-name="fiveeighths" unicode="&#x215d;" horiz-adv-x="822" 
d="M198 629l-15 -64h11q64 0 102.5 -25.5t38.5 -75.5q0 -66 -47 -98.5t-129 -32.5q-25 0 -51 3.5t-44 10.5q1 23 13 58q37 -10 78 -10q52 0 79 15.5t27 45.5q0 27 -20 38.5t-69 11.5q-30 0 -72 -7l41 190h216q-1 -14 -5 -32.5t-8 -27.5h-146zM533 692q39 6 80 7l-353 -699
q-39 -6 -79 -7zM754 95q0 -51 -40.5 -79t-115.5 -28q-66 0 -103.5 24t-37.5 65q0 31 19.5 54.5t67.5 36.5q-26 14 -40 34.5t-14 46.5q0 31 17 54.5t50 36.5t78 13q65 0 99 -24.5t34 -65.5q0 -33 -20 -53t-58 -32q64 -27 64 -83zM578.5 286.5q-18.5 -13.5 -18.5 -35.5
q0 -20 15.5 -32t46.5 -20l7 -2q36 9 54 23t18 38q0 17 -17 29.5t-49 12.5q-38 0 -56.5 -13.5zM663.5 58q22.5 14 22.5 37q0 19 -14 30t-49 19l-15 4q-38 -9 -59 -25.5t-21 -38.5q0 -20 19.5 -30t53.5 -10q40 0 62.5 14z" />
    <glyph glyph-name="seveneighths" unicode="&#x215e;" horiz-adv-x="680" 
d="M345 687q-1 -13 -4.5 -29.5t-7.5 -30.5q-125 -145 -179 -282h-74q28 74 71.5 147t98.5 138h-184q1 11 5 29t8 28h266zM443 692q39 6 80 7l-353 -699q-39 -6 -79 -7zM642 95q0 -51 -40.5 -79t-115.5 -28q-66 0 -103.5 24t-37.5 65q0 31 19.5 54.5t67.5 36.5
q-26 14 -40 34.5t-14 46.5q0 31 17 54.5t50 36.5t78 13q65 0 99 -24.5t34 -65.5q0 -33 -20 -53t-58 -32q64 -27 64 -83zM466.5 286.5q-18.5 -13.5 -18.5 -35.5q0 -20 15.5 -32t46.5 -20l7 -2q36 9 54 23t18 38q0 17 -17 29.5t-49 12.5q-38 0 -56.5 -13.5zM551.5 58
q22.5 14 22.5 37q0 19 -14 30t-49 19l-15 4q-38 -9 -59 -25.5t-21 -38.5q0 -20 19.5 -30t53.5 -10q40 0 62.5 14z" />
    <glyph glyph-name="period" unicode="." horiz-adv-x="253" 
d="M68 -2.5q-14 8.5 -22.5 22.5t-8.5 31q0 25 18 43t44 18q16 0 30 -8t22.5 -22t8.5 -31t-8.5 -31t-22.5 -22.5t-30 -8.5q-17 0 -31 8.5z" />
    <glyph glyph-name="comma" unicode="," horiz-adv-x="253" 
d="M35.5 -30.5q12.5 52.5 23.5 120.5q18 4 35.5 7t34.5 3q14 0 21 -1q-17 -84 -38 -143t-53 -105l-56 5q20 61 32.5 113.5z" />
    <glyph glyph-name="colon" unicode=":" horiz-adv-x="253" 
d="M68 -2.5q-14 8.5 -22.5 22.5t-8.5 31q0 25 18 43t44 18q16 0 30 -8t22.5 -22t8.5 -31t-8.5 -31t-22.5 -22.5t-30 -8.5q-17 0 -31 8.5zM121 361.5q-14 8.5 -22.5 22.5t-8.5 31q0 25 18 43t44 18q16 0 30 -8t22.5 -22t8.5 -31t-8.5 -31t-22.5 -22.5t-30 -8.5q-17 0 -31 8.5
z" />
    <glyph glyph-name="colon.aalt" horiz-adv-x="255" 
d="M82 100.5q-14 8.5 -22.5 22.5t-8.5 31q0 25 18 43t44 18q16 0 30 -8t22.5 -22t8.5 -31t-8.5 -31t-22.5 -22.5t-30 -8.5q-17 0 -31 8.5zM135 464.5q-14 8.5 -22.5 22.5t-8.5 31q0 25 18 43t44 18q16 0 30 -8t22.5 -22t8.5 -31t-8.5 -31t-22.5 -22.5t-30 -8.5
q-17 0 -31 8.5z" />
    <glyph glyph-name="semicolon" unicode=";" horiz-adv-x="253" 
d="M39.5 -30.5q12.5 52.5 23.5 120.5q18 4 35.5 7t34.5 3q14 0 21 -1q-17 -84 -38 -143t-53 -105l-56 5q20 61 32.5 113.5zM114 361.5q-14 8.5 -22.5 22.5t-8.5 31q0 25 18 43t44 18q16 0 30 -8t22.5 -22t8.5 -31t-8.5 -31t-22.5 -22.5t-30 -8.5q-17 0 -31 8.5z" />
    <glyph glyph-name="ellipsis" unicode="&#x2026;" horiz-adv-x="768" 
d="M86.5 7q-16.5 17 -16.5 41t16.5 40.5t40.5 16.5t41 -16.5t17 -40.5t-17 -41t-41 -17t-40.5 17zM315.5 7q-16.5 17 -16.5 41t16.5 40.5t40.5 16.5t41 -16.5t17 -40.5t-17 -41t-41 -17t-40.5 17zM542 7q-17 17 -17 41t17 40.5t41 16.5q23 0 40 -16.5t17 -40.5t-17 -41
t-40 -17q-24 0 -41 17z" />
    <glyph glyph-name="exclam" unicode="!" horiz-adv-x="310" 
d="M167 693q17 5 43.5 8.5t46.5 3.5l-76 -485h-71zM86.5 7.5q-16.5 16.5 -16.5 40.5q0 23 16.5 39.5t39.5 16.5q24 0 40.5 -16.5t16.5 -39.5q0 -24 -16.5 -40.5t-40.5 -16.5q-23 0 -39.5 16.5z" />
    <glyph glyph-name="exclamdown" unicode="&#xa1;" horiz-adv-x="310" 
d="M222.5 489.5q16.5 -16.5 16.5 -39.5q0 -24 -16.5 -40.5t-40.5 -16.5q-23 0 -39.5 16.5t-16.5 40.5q0 23 16.5 39.5t39.5 16.5q24 0 40.5 -16.5zM142 -195q-17 -5 -43.5 -9t-46.5 -4l76 486h71z" />
    <glyph glyph-name="glyph367" horiz-adv-x="310" 
d="M250.5 688.5q16.5 -16.5 16.5 -39.5q0 -24 -16.5 -40.5t-40.5 -16.5q-23 0 -39.5 16.5t-16.5 40.5q0 23 16.5 39.5t39.5 16.5q24 0 40.5 -16.5zM170 4q-17 -5 -43.5 -9t-46.5 -4l76 486h71z" />
    <glyph glyph-name="question" unicode="?" horiz-adv-x="440" 
d="M138 247q7 48 31.5 81.5t71.5 69.5q55 37 81 71.5t26 84.5q0 36 -25.5 56.5t-82.5 20.5q-34 0 -74 -9t-71 -23q2 26 15 78q29 14 67 22t76 8q90 0 136.5 -38.5t46.5 -107.5q0 -21 -2 -32q-6 -40 -24 -71.5t-45.5 -56.5t-68.5 -54q-44 -28 -65 -54.5t-27 -67.5
q0 -7 -2 -13h-66q0 23 2 35zM89 6q-16 16 -16 39q0 25 16 42t40 17q23 0 39 -16.5t16 -40.5q-1 -24 -17 -40.5t-39 -16.5t-39 16z" />
    <glyph glyph-name="questiondown" unicode="&#xbf;" horiz-adv-x="440" 
d="M351 489.5q16 -16.5 16 -40.5t-16.5 -40.5t-39.5 -16.5t-39 16.5t-16 40.5t16.5 40.5t39.5 16.5t39 -16.5zM302 250q-7 -48 -31.5 -82t-71.5 -70q-50 -33 -75.5 -64.5t-31.5 -73.5q-1 -6 -1 -16q0 -36 26 -57t83 -21q35 0 75 8.5t70 22.5q-2 -26 -15 -78q-30 -14 -68 -22
t-76 -8q-90 0 -136.5 39t-46.5 108q0 9 2 31q6 40 24.5 71.5t45.5 56.5t69 55q44 27 64.5 53t26.5 68q0 4 3 13h66q0 -10 -2 -34z" />
    <glyph glyph-name="glyph370" horiz-adv-x="440" 
d="M379 687.5q16 -16.5 16 -40.5t-16.5 -40.5t-39.5 -16.5t-39 16.5t-16 40.5t16.5 40.5t39.5 16.5t39 -16.5zM330 448q-7 -48 -31.5 -82t-71.5 -70q-50 -33 -75.5 -64.5t-31.5 -73.5q-1 -6 -1 -16q0 -36 26 -57t83 -21q35 0 75 8.5t70 22.5q-2 -26 -15 -78q-30 -14 -68 -22
t-76 -8q-90 0 -136.5 39t-46.5 108q0 9 2 31q6 40 24.5 71.5t45.5 56.5t69 55q44 27 64.5 53t26.5 68q0 4 3 13h66q0 -10 -2 -34z" />
    <glyph glyph-name="periodcentered" unicode="&#xb7;" horiz-adv-x="329" 
d="M131.5 285.5q-18.5 18.5 -18.5 44.5q0 27 18.5 45.5t44.5 18.5q17 0 32 -8.5t23.5 -23t8.5 -32.5q0 -17 -8.5 -31.5t-23.5 -23t-32 -8.5q-26 0 -44.5 18.5z" />
    <glyph glyph-name="bullet" unicode="&#x2022;" horiz-adv-x="409" 
d="M163 243.5q-24 13.5 -37 36.5t-13 51t13 51.5t37 37t55 13.5q30 0 53 -13.5t35.5 -36.5t12.5 -52t-12.5 -52t-35.5 -36t-53 -13q-31 0 -55 13.5z" />
    <glyph glyph-name="bullet.aalt" horiz-adv-x="409" 
d="M162.5 242q-23.5 13 -36.5 36.5t-13 51.5t13 51.5t36.5 37t54.5 13.5t54 -13.5t35.5 -36.5t12.5 -52t-12.5 -52t-35.5 -36t-54 -13t-54.5 13z" />
    <glyph glyph-name="asterisk" unicode="*" horiz-adv-x="428" 
d="M286 524l92 -99q-7 -8 -25 -22q-4 -2 -13.5 -8t-16.5 -9l-66 117l-65 -118q-9 4 -29 17q-15 11 -25 22l90 100l-133 27q1 7 4 17.5t4 14.5q5 18 13 31l123 -55l-16 133q10 3 33 3q24 0 34 -3l-15 -134l121 57q6 -9 14 -31q1 -3 4 -14t3 -18z" />
    <glyph glyph-name="numbersign" unicode="#" 
d="M452 439l-62 -186h113q-3 -30 -17 -67h-119l-62 -186h-68l61 186h-130l-62 -186h-69l62 186h-92q5 32 18 67h96l62 186h-109q7 37 19 67h112l60 181q29 13 74 13l-65 -194h130l60 181q29 13 75 13l-65 -194h96q-4 -32 -17 -67h-101zM382 439h-130l-62 -186h131z" />
    <glyph glyph-name="slash" unicode="/" horiz-adv-x="347" 
d="M352 792q37 6 83 8l-431 -1012h-79z" />
    <glyph glyph-name="slash.case" horiz-adv-x="347" 
d="M316 686q42 7 84 9l-345 -695h-80z" />
    <glyph glyph-name="backslash" unicode="\" horiz-adv-x="347" 
d="M68 792q37 9 74 8l149 -1012h-75z" />
    <glyph glyph-name="backslash.aalt" horiz-adv-x="319" 
d="M218 0l-148 686q36 10 73 10l151 -696h-76z" />
    <glyph glyph-name="uni208D" unicode="&#x208d;" horiz-adv-x="304" 
d="M53 -209.5q-10 48.5 -10 101.5q0 98 28.5 193t83.5 175q35 -2 60 -19q-49 -83 -74.5 -172t-25.5 -177q0 -54 7 -98.5t21 -84.5q-18 -7 -31 -9.5t-32 -4.5q-17 47 -27 95.5z" />
    <glyph glyph-name="uni208E" unicode="&#x208e;" horiz-adv-x="304" 
d="M186 63q0 -97 -28.5 -192t-83.5 -176q-37 3 -61 19q50 82 75 171t25 178q0 54 -6.5 98.5t-20.5 85.5q19 7 32 9.5t30 3.5q38 -97 38 -197z" />
    <glyph glyph-name="parenleft" unicode="(" horiz-adv-x="313" 
d="M101 -42.5q-19 86.5 -19 188.5q0 172 54.5 347t155.5 317q18 0 35 -5.5t30 -14.5q-95 -146 -144.5 -312t-49.5 -332q0 -99 15 -183t43 -160q-19 -8 -34.5 -11.5t-32.5 -3.5q-34 83 -53 169.5z" />
    <glyph glyph-name="parenleft.case" horiz-adv-x="308" 
d="M107 19.5q-18 73.5 -18 165.5q0 172 49 326t148 298q37 0 69 -16q-94 -139 -140 -293t-46 -315q0 -87 13.5 -156t41.5 -143q-33 -20 -65 -20q-34 80 -52 153.5z" />
    <glyph glyph-name="parenright" unicode=")" horiz-adv-x="313" 
d="M226 640.5q19 -86.5 19 -188.5q0 -172 -54.5 -347t-155.5 -317q-18 0 -35 5.5t-30 14.5q95 146 144.5 312t49.5 332q0 99 -15 183t-43 160q19 8 34.5 11.5t32.5 3.5q34 -83 53 -169.5z" />
    <glyph glyph-name="parenright.case" horiz-adv-x="308" 
d="M226 656.5q18 -73.5 18 -165.5q0 -171 -49 -325.5t-148 -298.5q-37 0 -69 16q94 139 140 293t46 315q0 87 -13.5 156t-41.5 143q33 20 65 20q34 -80 52 -153.5z" />
    <glyph glyph-name="braceleft" unicode="{" horiz-adv-x="354" 
d="M417 820q-4 -35 -18 -67h-56q-26 0 -42 -10t-24.5 -31t-13.5 -56l-33 -233q-13 -105 -107 -121q36 -7 55.5 -34t19.5 -65q0 -7 -2 -23l-32 -228q-4 -32 -4 -42q0 -30 13 -42.5t44 -12.5h65q-5 -36 -19 -67h-55q-68 0 -97 31t-29 93q0 27 4 54l30 214q2 14 2 20
q0 31 -17.5 48t-52.5 23l10 65q44 2 65.5 23.5t27.5 65.5l32 232q8 54 24.5 89t51.5 54.5t94 19.5h64z" />
    <glyph glyph-name="braceleft.aalt" horiz-adv-x="354" 
d="M416 810q-4 -35 -18 -67h-56q-26 0 -42 -10t-24.5 -31t-13.5 -56l-27 -188q-13 -106 -108 -120q36 -7 56 -35t20 -65q0 -7 -2 -23l-26 -185q-4 -32 -4 -42q0 -30 13 -42.5t44 -12.5h65q-5 -36 -19 -67h-55q-68 0 -97 31t-29 93q0 27 4 54l24 171q2 14 2 20q0 31 -17.5 48
t-52.5 23l9 65q44 3 65.5 24t28.5 65l26 187q8 54 24.5 89t51.5 54.5t93 19.5h65z" />
    <glyph glyph-name="braceright" unicode="}" horiz-adv-x="355" 
d="M252 408q0 -31 17.5 -48t52.5 -23l-10 -65q-43 -2 -64.5 -23.5t-27.5 -65.5l-33 -232q-8 -54 -24.5 -89t-51.5 -54.5t-93 -19.5h-64q2 29 17 67h56q26 0 42 10t24.5 31t13.5 56l33 233q7 54 34.5 83.5t73.5 37.5q-37 7 -56.5 34t-19.5 65q0 7 2 23l32 228q4 32 4 42
q0 30 -12.5 42.5t-43.5 12.5h-65q3 34 18 67h56q67 0 96 -30.5t29 -91.5q0 -29 -4 -56l-30 -214q-2 -14 -2 -20z" />
    <glyph glyph-name="braceright.aalt" horiz-adv-x="355" 
d="M257 442q0 -32 17.5 -48.5t52.5 -22.5l-9 -66q-44 -2 -65.5 -23t-27.5 -66l-27 -187q-7 -53 -24 -88t-52 -54.5t-93 -19.5h-64q2 29 17 67h56q26 0 42 10t24.5 31t13.5 56l27 188q7 55 34 84t74 36q-36 7 -56 35t-20 65q0 7 2 23l26 185q4 32 4 42q0 30 -12.5 42.5
t-43.5 12.5h-65q3 34 18 67h56q67 0 96 -31t29 -92q0 -29 -4 -56l-24 -170q-2 -14 -2 -20z" />
    <glyph glyph-name="bracketleft" unicode="[" horiz-adv-x="323" 
d="M166 820h215q-2 -29 -17 -67h-128l-126 -899h135q-1 -26 -17 -66h-207z" />
    <glyph glyph-name="bracketleft.aalt" horiz-adv-x="323" 
d="M165 810h215q-3 -35 -18 -67h-126l-109 -777h135q-3 -26 -18 -66h-207z" />
    <glyph glyph-name="bracketright" unicode="]" horiz-adv-x="323" 
d="M172 -212h-215q2 29 17 67h128l126 899h-135q3 32 18 66h206z" />
    <glyph glyph-name="bracketright.aalt" horiz-adv-x="324" 
d="M188 -100h-214q3 34 17 67h127l109 777h-135q3 32 18 66h206z" />
    <glyph glyph-name="uni207D" unicode="&#x207d;" horiz-adv-x="304" 
d="M147 460.5q-10 48.5 -10 101.5q0 98 28.5 193t83.5 175q35 -2 60 -19q-49 -83 -74.5 -172t-25.5 -177q0 -54 7 -98.5t21 -84.5q-18 -7 -31 -9.5t-32 -4.5q-17 47 -27 95.5z" />
    <glyph glyph-name="uni207E" unicode="&#x207e;" horiz-adv-x="304" 
d="M282 733q0 -97 -28.5 -192t-83.5 -176q-37 3 -61 19q50 82 75 171t25 178q0 54 -6.5 98.5t-20.5 85.5q19 7 32 9.5t30 3.5q38 -97 38 -197z" />
    <glyph glyph-name="hyphen" unicode="-" horiz-adv-x="364" 
d="M50 297.5q5 20.5 12 37.5h272q-3 -32 -19 -75h-272q2 17 7 37.5z" />
    <glyph glyph-name="hyphen.aalt" horiz-adv-x="351" 
d="M44 357.5q2 20.5 6 37.5h278q0 -27 -8 -75h-278q0 17 2 37.5z" />
    <glyph glyph-name="uni00AD" unicode="&#xad;" horiz-adv-x="369" 
d="M50 297.5q5 20.5 12 37.5h272q-3 -32 -19 -75h-272q2 17 7 37.5z" />
    <glyph glyph-name="endash" unicode="&#x2013;" horiz-adv-x="527" 
d="M50 297.5q5 20.5 12 37.5h436q-3 -32 -19 -75h-436q2 17 7 37.5z" />
    <glyph glyph-name="endash.aalt" horiz-adv-x="531" 
d="M62 395h446q-2 -41 -9 -75h-444q0 35 7 75z" />
    <glyph glyph-name="emdash" unicode="&#x2014;" horiz-adv-x="877" 
d="M49.5 298q4.5 20 12.5 37h786q-2 -17 -7 -37t-12 -38h-786q2 18 6.5 38z" />
    <glyph glyph-name="emdash.aalt" horiz-adv-x="888" 
d="M62 395h803q-2 -37 -8 -75h-802q0 33 7 75z" />
    <glyph glyph-name="uni2011" unicode="&#x2011;" horiz-adv-x="364" 
d="M50 297.5q5 20.5 12 37.5h272q-3 -32 -19 -75h-272q2 17 7 37.5z" />
    <glyph glyph-name="underscore" unicode="_" horiz-adv-x="515" 
d="M-1 -104h426q-6 -35 -16 -60h-426q5 34 16 60z" />
    <glyph glyph-name="quotesinglbase" unicode="&#x201a;" horiz-adv-x="252" 
d="M39.5 -32q14.5 54 25.5 115q24 8 42 11t42 3q-15 -70 -36.5 -128.5t-51.5 -119.5h-58q22 65 36.5 119z" />
    <glyph glyph-name="quotedblbase" unicode="&#x201e;" horiz-adv-x="400" 
d="M39.5 -32q14.5 54 25.5 115q24 8 42 11t42 3q-15 -70 -36.5 -128.5t-51.5 -119.5h-58q22 65 36.5 119zM187.5 -31q14.5 54 25.5 115q24 8 42 11t42 3q-15 -70 -36.5 -128.5t-51.5 -119.5h-58q22 65 36.5 119z" />
    <glyph glyph-name="quotedblleft" unicode="&#x201c;" horiz-adv-x="400" 
d="M217.5 585.5q-15.5 -56.5 -27.5 -120.5h-77q19 82 36 130t49 101q43 10 59 10q-24 -64 -39.5 -120.5zM367.5 585.5q-15.5 -56.5 -27.5 -120.5h-77q19 82 36 130t49 101q43 10 59 10q-24 -64 -39.5 -120.5z" />
    <glyph glyph-name="quotedblright" unicode="&#x201d;" horiz-adv-x="400" 
d="M124.5 577q14.5 54 25.5 115q24 8 42 11t42 3q-15 -70 -36.5 -128.5t-51.5 -119.5h-58q22 65 36.5 119zM273.5 577q14.5 54 25.5 115q24 8 42 11t42 3q-15 -70 -36.5 -128.5t-51.5 -119.5h-58q22 65 36.5 119z" />
    <glyph glyph-name="quoteleft" unicode="&#x2018;" horiz-adv-x="251" 
d="M217.5 585.5q-15.5 -56.5 -27.5 -120.5h-77q19 82 36 130t49 101q43 10 59 10q-24 -64 -39.5 -120.5z" />
    <glyph glyph-name="quoteright" unicode="&#x2019;" horiz-adv-x="212" 
d="M124.5 577q14.5 54 25.5 115q24 8 42 11t42 3q-15 -70 -36.5 -128.5t-51.5 -119.5h-58q22 65 36.5 119z" />
    <glyph glyph-name="guillemotleft" unicode="&#xab;" horiz-adv-x="500" 
d="M253 275l181 229q28 -8 62 -35l-158 -197l99 -196q-14 -9 -32.5 -17t-35.5 -12zM49 275l181 229q28 -8 62 -35l-158 -197l99 -196q-14 -9 -32.5 -17t-35.5 -12z" />
    <glyph glyph-name="guillemotleft.aalt" horiz-adv-x="489" 
d="M253 356l181 229q28 -8 62 -35l-158 -197l99 -196q-14 -9 -32.5 -17t-35.5 -12zM60 356l181 229q28 -8 62 -35l-158 -197l99 -196q-14 -9 -32.5 -17t-35.5 -12z" />
    <glyph glyph-name="guillemotright" unicode="&#xbb;" horiz-adv-x="500" 
d="M255 276l-181 -229q-27 6 -62 34l158 198l-99 195q14 9 32 17.5t35 12.5zM459 276l-181 -229q-14 4 -30.5 13t-30.5 21l157 198l-99 195q14 9 32 17.5t36 12.5z" />
    <glyph glyph-name="guillemotright.aalt" horiz-adv-x="490" 
d="M267 356l-181 -229q-15 4 -31.5 13.5t-30.5 21.5l158 198l-99 195q27 18 67 30zM460 356l-181 -229q-15 4 -31.5 13.5t-30.5 21.5l158 198l-99 195q27 18 67 30z" />
    <glyph glyph-name="guilsinglleft" unicode="&#x2039;" horiz-adv-x="297" 
d="M49 275l181 229q28 -8 62 -35l-158 -197l99 -196q-14 -9 -32.5 -17t-35.5 -12z" />
    <glyph glyph-name="guilsinglleft.aalt" horiz-adv-x="296" 
d="M60 356l181 229q28 -8 62 -35l-158 -197l99 -196q-14 -9 -32.5 -17t-35.5 -12z" />
    <glyph glyph-name="guilsinglright" unicode="&#x203a;" horiz-adv-x="296" 
d="M255 276l-181 -229q-27 6 -62 34l158 198l-99 195q14 9 32 17.5t35 12.5z" />
    <glyph glyph-name="guilsinglright.aalt" horiz-adv-x="297" 
d="M267 356l-181 -229q-15 4 -31.5 13.5t-30.5 21.5l158 198l-99 195q27 18 67 30z" />
    <glyph glyph-name="quotedbl" unicode="&#x22;" horiz-adv-x="382" 
d="M143 692q15 6 36.5 9.5t37.5 3.5l-40 -227h-55zM291 692q15 6 36.5 9.5t37.5 3.5l-40 -227h-55z" />
    <glyph glyph-name="quotesingle" unicode="'" horiz-adv-x="234" 
d="M143 692q15 6 36.5 9.5t37.5 3.5l-40 -227h-55z" />
    <glyph glyph-name="uni00A0" unicode="&#xa0;" horiz-adv-x="216" 
 />
    <glyph glyph-name="uniFEFF" unicode="&#xfeff;" horiz-adv-x="0" 
 />
    <glyph glyph-name="uni20A8" unicode="&#x20a8;" 
d="M307 395.5q-28 -70.5 -85 -103.5l51 -292h-76l-41 275h-36l-38 -275h-71l95 690q16 7 45 11.5t50 4.5q134 0 134 -152q0 -88 -28 -158.5zM130 350h32q34 0 56.5 32t32.5 78t10 88q0 44 -14 63.5t-44 19.5q-19 0 -34 -4zM420 410.5q-19 -21.5 -19 -58.5q0 -22 8 -38.5
t24 -31.5l14 -15q29 -28 45 -57.5t16 -70.5q0 -43 -15 -77.5t-44.5 -54t-71.5 -19.5q-21 0 -44 8.5t-37 22.5q5 47 13 69q12 -14 28.5 -20.5t33.5 -6.5q32 0 47.5 19.5t15.5 51.5q0 26 -9 44t-26 34l-14 14q-53 51 -53 126q0 45 16 81t45 56.5t68 20.5q47 0 77 -26
q-2 -25 -13 -72q-13 12 -26 17t-28 5q-32 0 -51 -21.5z" />
    <glyph glyph-name="uni0E3F" unicode="&#xe3f;" 
d="M446 302q25 -39 25 -89q0 -64 -28.5 -110.5t-80 -72t-118.5 -29.5l-18 -132h-55l18 131h-145l97 693q72 14 147 14l13 92q12 6 28 9.5t29 3.5l-15 -108q73 -10 111 -51t38 -107q0 -68 -31.5 -114.5t-90.5 -70.5q51 -20 76 -59zM278 633q-43 -2 -64 -5l-33 -233h64z
M389.5 596.5q-19.5 24.5 -57.5 32.5l-32 -229q52 11 80.5 46t28.5 88q0 38 -19.5 62.5zM200 73l34 250h-63l-35 -250h64zM351 119.5q34 36.5 34 95.5q0 44 -24.5 71t-71.5 34l-34 -245q62 8 96 44.5z" />
    <glyph glyph-name="uni20BF" unicode="&#x20bf;" 
d="M446 302q25 -39 25 -89q0 -59 -24 -103t-67 -70.5t-101 -35.5l-19 -135h-56l18 131h-1h-46l-18 -131h-56l19 131h-76l97 693q26 5 78 11l13 95q12 6 28.5 9.5t29.5 3.5l-15 -105h21q17 0 25 -1l13 93q12 6 29 9.5t30 3.5l-16 -115q57 -16 86 -54.5t29 -96.5
q0 -68 -31.5 -114.5t-90.5 -70.5q51 -20 76 -59zM378.5 607q-30.5 26 -86.5 26q-41 0 -78 -5l-33 -233h71q49 0 84.5 17t54 48t18.5 74q0 47 -30.5 73zM309 90q37 17 56.5 49t19.5 76q0 52 -34.5 80t-100.5 28h-79l-35 -250h85q51 0 88 17z" />
    <glyph glyph-name="uni20B5" unicode="&#x20b5;" 
d="M456.5 619q-23.5 7 -49.5 9l-79 -564q27 2 55.5 9.5t50.5 19.5q-8 -41 -23 -87q-41 -16 -94 -20l-16 -117h-67l17 120q-77 14 -117 78t-40 174q0 119 27.5 218.5t85 165.5t145.5 79l13 95q13 6 32.5 9.5t35.5 3.5l-15 -106q30 -2 57 -10t46 -20q-6 -39 -23 -77
q-18 13 -41.5 20zM201.5 128.5q20.5 -41.5 61.5 -56.5l77 550q-57 -18 -92.5 -74.5t-51 -136t-15.5 -170.5q0 -71 20.5 -112.5z" />
    <glyph glyph-name="cent" unicode="&#xa2;" 
d="M344 532l-52 -375q25 2 51 8.5t48 15.5q-6 -46 -19 -76q-17 -8 -41 -13t-49 -6l-14 -98h-69l14 102q-71 13 -111 63.5t-40 136.5q0 82 25.5 148.5t75.5 109t122 54.5l12 84q11 6 31.5 10t38.5 4l-13 -94q54 -3 95 -22q-1 -17 -5 -36.5t-9 -33.5q-46 18 -91 18zM169 213.5
q19 -33.5 55 -47.5l50 355q-60 -21 -92 -81t-32 -143q0 -50 19 -83.5z" />
    <glyph glyph-name="cent.aalt" horiz-adv-x="429" 
d="M331 532l-52 -375q25 2 51 8.5t48 15.5q-6 -46 -19 -76q-17 -8 -41 -13t-49 -6l-14 -98h-69l14 102q-71 13 -111 63.5t-40 136.5q0 82 25.5 148.5t75.5 109t122 54.5l12 84q11 6 31.5 10t38.5 4l-13 -94q54 -3 95 -22q-1 -17 -5 -36.5t-9 -33.5q-46 18 -91 18zM156 213.5
q19 -33.5 55 -47.5l50 355q-60 -21 -92 -81t-32 -143q0 -50 19 -83.5z" />
    <glyph glyph-name="colonmonetary" unicode="&#x20a1;" 
d="M475 616l-169 -552h1q60 0 130 29q-8 -40 -22 -85q-28 -12 -62 -17.5t-67 -5.5h-4l-36 -117h-61l38 124q-31 8 -55 22l-45 -145h-61l57 186q-29 34 -44.5 84.5t-15.5 116.5q0 112 27.5 204.5t85 155.5t144.5 83l31 100q12 5 33 9t33 4l-32 -105h12q24 0 48 -3l29 94
q10 6 31 9.5t34 3.5l-37 -120q24 -8 42 -17q-6 -34 -23 -75q-21 11 -42 17zM418 627q-24 2 -35 2q-18 0 -27 -1l-161 -525q22 -21 53 -31zM156 176l132 432q-73 -37 -107.5 -128.5t-34.5 -213.5q0 -54 10 -90z" />
    <glyph glyph-name="currency" unicode="&#xa4;" 
d="M474.5 294.5q-8.5 -27.5 -23.5 -50.5l66 -65l-56 -55l-66 65q-23 -15 -50 -23t-56 -8q-59 0 -107 31l-66 -65l-54 55l65 64q-32 50 -32 108q0 29 8 56.5t23 50.5l-65 65l55 55l65 -65q50 32 108 32t108 -32l65 65l55 -55l-65 -65q15 -23 23 -50.5t8 -56.5t-8.5 -56.5z
M186.5 290.5q15.5 -26.5 42.5 -41.5t60 -15q32 0 59 15t43 41.5t16 60.5t-16 61.5t-43 42.5t-59 15q-33 0 -60 -15t-42.5 -42.5t-15.5 -61.5t15.5 -60.5z" />
    <glyph glyph-name="currency.aalt" horiz-adv-x="593" 
d="M495.5 294.5q-8.5 -27.5 -23.5 -50.5l66 -65l-55 -55l-66 65q-23 -15 -50 -23t-56 -8q-59 0 -107 31l-66 -65l-54 55l65 64q-32 50 -32 108q0 29 8 56.5t23 50.5l-65 65l55 55l65 -65q50 32 108 32q29 0 56.5 -8.5t50.5 -23.5l66 65l55 -55l-66 -65q31 -48 31 -107
q0 -29 -8.5 -56.5zM208.5 290.5q15.5 -26.5 42.5 -41.5t60 -15q32 0 59 15t43 41.5t16 60.5t-16 61.5t-43 42.5t-59 15q-33 0 -60 -15t-42.5 -42.5t-15.5 -61.5t15.5 -60.5z" />
    <glyph glyph-name="dollar" unicode="$" 
d="M400.5 621q-31.5 7 -63.5 9l-34 -245l8 -4q66 -31 99.5 -74.5t33.5 -105.5q0 -57 -23.5 -102.5t-67.5 -74.5t-106 -36l-17 -119h-66l16 117q-42 2 -83.5 14t-67.5 30q4 22 8.5 37.5t13.5 34.5q26 -18 64.5 -28t75.5 -13l37 264l-15 8q-60 30 -91 67.5t-31 97.5
q0 58 23 102t66 71t102 34l13 94q14 6 33 9.5t35 3.5l-15 -106q72 -4 133 -33q-3 -21 -9 -37t-15 -34q-25 12 -56.5 19zM192.5 456.5q16.5 -23.5 48.5 -41.5l30 211q-46 -10 -70.5 -40.5t-24.5 -74.5q0 -31 16.5 -54.5zM342.5 247q-15.5 23 -52.5 46l-32 -226q48 12 74 44
t26 80q0 33 -15.5 56z" />
    <glyph glyph-name="dollar.aalt" horiz-adv-x="481" 
d="M391.5 621q-31.5 7 -63.5 9l-34 -245l8 -4q66 -31 99.5 -74.5t33.5 -105.5q0 -57 -23.5 -102.5t-67.5 -74t-106 -36.5l-17 -119h-66l16 117q-42 2 -83 14t-68 30q3 21 8 36.5t14 35.5q26 -18 64.5 -28t75.5 -13l37 264l-16 8q-39 20 -65.5 41.5t-41 51.5t-14.5 72
q0 58 23 102t66 71t102 34l13 94q13 6 32.5 9.5t35.5 3.5l-15 -106q72 -4 133 -33q-3 -21 -9 -37t-15 -34q-25 12 -56.5 19zM183.5 456.5q16.5 -23.5 48.5 -41.5l30 211q-46 -10 -70.5 -40.5t-24.5 -74.5q0 -31 16.5 -54.5zM333.5 246q-15.5 23 -52.5 46l-32 -225
q48 12 74 44t26 79q0 33 -15.5 56z" />
    <glyph glyph-name="Euro" unicode="&#x20ac;" 
d="M322 581.5q-46 -47.5 -71 -128.5h241q-3 -29 -18 -72h-240q-6 -38 -9 -81h236q-5 -38 -19 -72h-219q2 -84 36 -124t101 -40q27 0 59.5 7.5t56.5 21.5q-10 -52 -25 -87q-26 -10 -55.5 -15.5t-55.5 -5.5q-94 0 -147 61t-57 182h-94l10 72h85q3 43 9 81h-82l10 72h88
q32 116 101.5 185t175.5 69q35 0 69 -9t55 -24q-5 -34 -22 -75q-20 15 -47.5 22.5t-56.5 7.5q-69 0 -115 -47.5z" />
    <glyph glyph-name="Euro.aalt" horiz-adv-x="540" 
d="M307 581.5q-46 -47.5 -71 -128.5h242q-5 -36 -19 -72h-240q-6 -38 -9 -81h236q-5 -38 -19 -72h-219q2 -84 36 -124t101 -40q27 0 59.5 7.5t56.5 21.5q-10 -52 -24 -87q-27 -10 -56.5 -15.5t-55.5 -5.5q-94 0 -147 61t-57 182h-94l10 72h85q3 43 9 81h-82l10 72h88
q32 116 101.5 185t175.5 69q35 0 69 -9t56 -24q-7 -35 -23 -75q-20 15 -47.5 22.5t-56.5 7.5q-69 0 -115 -47.5z" />
    <glyph glyph-name="florin" unicode="&#x192;" 
d="M374.5 612.5q-17.5 -21.5 -23.5 -68.5l-12 -83h120q-5 -35 -18 -69h-112l-34 -243q-11 -80 -51 -120.5t-111 -40.5q-45 0 -81 13q3 34 18 69q31 -9 56 -9q39 0 59 23t26 69l34 239h-102l10 69h102l12 87q11 79 51 119t111 40q44 0 77 -12q-3 -36 -17 -72q-27 11 -57 11
q-40 0 -57.5 -21.5z" />
    <glyph glyph-name="florin.aalt" horiz-adv-x="392" 
d="M305.5 612.5q-17.5 -21.5 -23.5 -68.5l-12 -83h120q-5 -35 -18 -69h-112l-34 -243q-11 -80 -51 -120.5t-111 -40.5q-45 0 -81 13q3 34 18 69q31 -9 56 -9q39 0 59 23t26 69l34 239h-102l10 69h102l12 87q11 79 51 119t111 40q44 0 77 -12q-3 -36 -17 -72q-27 11 -57 11
q-40 0 -57.5 -21.5z" />
    <glyph glyph-name="franc" unicode="&#x20a3;" 
d="M278 615l-32 -225h221q-1 -15 -7 -36.5t-12 -40.5h-213l-15 -108h139q-7 -38 -19 -69h-130l-19 -136h-83l19 136h-92l9 69h93l69 487h326q-4 -39 -18 -77h-236z" />
    <glyph glyph-name="uni20B2" unicode="&#x20b2;" 
d="M316 62q33 1 66 11l40 282h83l-47 -333q-30 -15 -71 -24.5t-82 -11.5l-17 -117h-67l17 119q-93 12 -138 82t-45 189q0 113 31.5 209.5t96 159.5t157.5 76l14 95q14 6 33.5 9.5t35.5 3.5l-15 -105q86 -4 139 -31q-7 -28 -23 -76q-58 28 -127 31zM249 66l80 559
q-65 -16 -107 -70t-61.5 -131.5t-19.5 -165.5q0 -166 108 -192z" />
    <glyph glyph-name="uni20B4" unicode="&#x20b4;" 
d="M533 453q-6 -34 -18 -72h-450l10 72h315q36 38 36 91q0 41 -28 64t-87 23q-34 0 -73.5 -7.5t-72.5 -21.5q-8 30 -8 59l1 14q74 32 162 32q95 0 144 -35.5t49 -101.5q0 -68 -41 -117h61zM53 300h449q-6 -36 -18 -72h-314q-19 -32 -19 -71q0 -46 30.5 -71t88.5 -25
q39 0 82 11t80 32q7 -25 7 -56q0 -13 -1 -21q-34 -20 -80 -31t-93 -11q-66 0 -111 18.5t-67.5 52t-22.5 76.5q0 54 29 96h-49z" />
    <glyph glyph-name="uni20AD" unicode="&#x20ad;" 
d="M454 319h-133l145 -319h-91l-143 319h-23l-45 -319h-83l45 319h-87l10 68h87l42 299q18 6 41.5 10t43.5 4l-44 -313h20l222 305h89l-222 -305h145q-10 -42 -19 -68z" />
    <glyph glyph-name="uni20BA" unicode="&#x20ba;" 
d="M512 262q-20 -129 -90.5 -195.5t-191.5 -66.5h-144l37 263l-85 -31l10 69l84 31l12 82l-84 -31l10 69l83 30l29 204q19 6 45 10t46 4l-26 -184l176 64q-3 -34 -14 -69l-171 -63l-12 -82l176 64q-6 -45 -14 -70l-172 -63l-30 -216h59q55 0 91 17t59.5 54.5t37.5 101.5
q46 7 79 8z" />
    <glyph glyph-name="uni20BA.aalt" horiz-adv-x="552" 
d="M527 254q-19 -127 -89 -190.5t-192 -63.5h-144l36 260l-84 -28l10 69l84 28l11 82l-83 -28l9 69l84 28l29 206q19 6 45 10t46 4l-26 -190l176 58q-3 -34 -14 -69l-172 -57l-11 -83l176 58q-7 -45 -14 -69l-172 -57l-30 -216h58q55 0 92 17t61 54t38 100q32 6 76 8z" />
    <glyph glyph-name="uni20BC" unicode="&#x20bc;" 
d="M471.5 481.5q41.5 -50.5 41.5 -130.5q0 -22 -3 -46l-43 -305h-83l43 304q4 34 4 48q0 52 -22 81t-67 37l-44 -314h-72l44 314q-56 -10 -88 -50.5t-42 -115.5l-43 -304h-83l43 305q15 104 72 167t151 73l21 147q13 6 35.5 9.5t38.5 3.5l-23 -162q78 -11 119.5 -61.5z" />
    <glyph glyph-name="uni20BC.aalt" horiz-adv-x="616" 
d="M512.5 479.5q45.5 -52.5 45.5 -133.5q0 -21 -3 -42l-43 -304h-83l42 296q3 21 3 40q0 56 -25.5 87t-74.5 38l-43 -305h-73l43 305q-59 -9 -95.5 -50.5t-46.5 -115.5l-42 -295h-83l43 304q10 67 41 119t80.5 84t114.5 38l21 147q14 6 35.5 9.5t38.5 3.5l-23 -162
q82 -11 127.5 -63.5z" />
    <glyph glyph-name="uni20A5" unicode="&#x20a5;" 
d="M506 557.5q21 -28.5 21 -79.5q0 -21 -3 -45l-50 -355h-82l49 348q2 20 2 27q0 26 -11 39t-35 13t-47 -20l-6 -20l-3 -28l-50 -359h-70l-29 -90h-66l124 392l7 50q2 18 2 25q0 50 -44 50q-27 0 -54 -27l-56 -400h-82l69 496h75l-3 -52q19 32 42 48t52 16q31 0 52 -16
l38 119q13 6 34.5 9.5t36.5 3.5l-42 -131q27 15 64 15q44 0 65 -28.5z" />
    <glyph glyph-name="uni20A6" unicode="&#x20a6;" 
d="M561 360.5q-5 -22.5 -12 -41.5h-67l-45 -319h-74l-100 319h-95l-2 -11l-43 -308h-79l45 319h-69l9 68h69l42 299q22 6 47.5 10t33.5 4l102 -313h89l7 48l36 251q36 14 81 14l-44 -313h75q-1 -4 -6 -26.5zM241 387l-15 48q-17 52 -29 103l-20 -151h64zM392 220q3 36 11 99
h-58l5 -15q11 -33 37 -125z" />
    <glyph glyph-name="uni20B1" unicode="&#x20b1;" 
d="M500 501q-2 -45 -10 -81h67q-6 -38 -19 -72h-72q-31 -67 -87.5 -105t-133.5 -38h-82l-29 -204h-82l49 347h-77l11 72h76l11 81h-76l9 72h77l17 119q34 7 67.5 11t76.5 4q87 0 136.5 -35.5t63.5 -98.5h95q-3 -27 -18 -72h-70zM214 573h188q-13 31 -42.5 46.5t-77.5 15.5
q-31 0 -60 -4zM412 501h-208l-11 -81h208q9 35 11 81zM321 294.5q31 19.5 51 53.5h-189l-11 -73h78q40 0 71 19.5z" />
    <glyph glyph-name="uni20BD" unicode="&#x20bd;" 
d="M212 264l-11 -79h215q-5 -36 -18 -68h-207l-16 -116h-82l16 116h-83l9 68h84l11 79h-83l9 68h83l51 360q40 7 74.5 11t76.5 4q106 0 154.5 -48.5t48.5 -131.5q0 -80 -31.5 -139.5t-91.5 -91.5t-142 -32h-67zM426 607q-29 28 -94 28q-33 0 -68 -6l-42 -292h62q85 0 128 49
t43 138q0 55 -29 83z" />
    <glyph glyph-name="uni20B9" unicode="&#x20b9;" 
d="M524 624h-124q39 -39 39 -99v-4h74q-7 -38 -20 -69h-62q-19 -80 -83 -122.5t-174 -46.5l211 -282h-98l-213 280l9 68h84q73 0 117.5 25t59.5 78h-246l10 69h244q-1 55 -36.5 79t-108.5 24h-86l10 68h412q-4 -33 -19 -68z" />
    <glyph glyph-name="uni20B9.aalt" horiz-adv-x="529" 
d="M542 624h-124q39 -39 39 -99v-4h74q-7 -38 -20 -69h-62q-19 -80 -83 -122.5t-174 -46.5l211 -282h-98l-213 280l9 68h84q73 0 117.5 25t59.5 78h-246l10 69h244q-1 55 -36.5 79t-108.5 24h-86l10 68h412q-4 -33 -19 -68z" />
    <glyph glyph-name="sterling" unicode="&#xa3;" 
d="M340.5 609.5q-29.5 -19.5 -41 -54t-14.5 -92.5l-3 -60h171q-10 -43 -18 -70h-157l-3 -62q-4 -70 -24 -115.5t-62 -74.5h264q-11 -52 -21 -81h-386l11 77q53 13 80 37t37 58.5t13 91.5l4 69h-104l10 70h97l3 56q5 84 27.5 138t71 82t130.5 28q59 0 102 -12q-4 -35 -17 -77
q-38 11 -85 11q-56 0 -85.5 -19.5z" />
    <glyph glyph-name="sterling.aalt" horiz-adv-x="495" 
d="M298.5 609.5q-29.5 -19.5 -41 -54t-14.5 -92.5l-3 -60h171q-10 -43 -18 -70h-157l-3 -62q-4 -70 -24 -115.5t-62 -74.5h264q-11 -52 -21 -81h-386l11 77q53 13 80 37t37 58.5t13 91.5l4 69h-104l10 70h97l3 56q5 84 27.5 138t71 82t130.5 28q59 0 102 -12q-4 -35 -17 -77
q-38 11 -85 11q-56 0 -85.5 -19.5z" />
    <glyph glyph-name="uni20B8" unicode="&#x20b8;" 
d="M559 692q-5 -37 -18 -72h-435l10 72h443zM95 539h434q-7 -40 -20 -72h-163l-64 -467h-83l65 467h-179z" />
    <glyph glyph-name="uni20AE" unicode="&#x20ae;" 
d="M368 615l-25 -182l138 44q-3 -35 -14 -70l-134 -43l-11 -82l138 44q-6 -45 -14 -69l-134 -43l-30 -214h-83l26 186l-128 -42l10 70l128 41l12 81l-129 -41l10 69l128 41l30 210h-173q4 24 18 77h420q-7 -43 -18 -77h-165z" />
    <glyph glyph-name="uni20A9" unicode="&#x20a9;" 
d="M513 403h50q-7 -36 -18 -69h-51l-93 -334h-93l4 334h-45l-84 -334h-100l-2 334h-53l10 69h42l-2 289h83l-3 -289h63l68 289h104l-11 -289h58l71 289h83zM313 403l1 116l-29 -116h28zM204 334h-47l-3 -210zM423 334h-44l-9 -213z" />
    <glyph glyph-name="uni20A9.aalt" horiz-adv-x="768" 
d="M702 403h78l-17 -69h-86l-120 -334h-102l-20 334h-83l-115 -334h-103l-25 334h-87l10 69h72l-22 289h92l13 -289h118l99 289h82l18 -289h119l95 289h88zM431 403l-8 137l-48 -137h56zM282 334h-92l10 -239zM601 334h-93l15 -237z" />
    <glyph glyph-name="yen" unicode="&#xa5;" 
d="M358 370h137q-3 -15 -8 -34t-11 -32h-150l-10 -73h158q-9 -39 -19 -67h-149l-23 -164h-85l23 164h-157l9 67h157l10 73h-156l9 66h134l-139 322h93l115 -290l197 290h94z" />
    <glyph glyph-name="yen.aalt" horiz-adv-x="528" 
d="M346 370h137q-3 -15 -8 -34t-11 -32h-150l-10 -73h158q-9 -39 -19 -67h-149l-23 -164h-85l23 164h-157l9 67h157l10 73h-156l9 66h134l-139 322h93l115 -290l197 290h94z" />
    <glyph glyph-name="uni2219" unicode="&#x2219;" 
d="M245.5 302.5q-17.5 17.5 -17.5 43.5q0 27 17.5 44.5t43.5 17.5t43.5 -17.5t17.5 -44.5q0 -26 -17.5 -43.5t-43.5 -17.5t-43.5 17.5z" />
    <glyph glyph-name="uni2215" unicode="&#x2215;" 
d="M437 792q37 6 83 8l-431 -1012h-79z" />
    <glyph glyph-name="plus" unicode="+" 
d="M469 301h-151l-22 -157h-71l22 157h-159q8 46 19 73h150l22 158h72l-22 -158h159q-4 -27 -19 -73z" />
    <glyph glyph-name="minus" unicode="&#x2212;" 
d="M107 374h381q-6 -35 -19 -73h-381q7 39 19 73z" />
    <glyph glyph-name="multiply" unicode="&#xd7;" 
d="M337 332l104 -124l-54 -49l-104 124l-138 -122l-45 53l138 122l-105 125l55 48l104 -124l138 122l45 -53z" />
    <glyph glyph-name="divide" unicode="&#xf7;" 
d="M270 452q-16 16 -16 39t16 39.5t39 16.5t39 -16.5t16 -39.5q0 -22 -16 -38.5t-39 -16.5t-39 16zM107 374h380q-4 -32 -18 -73h-381q7 39 19 73zM226 145q-16 16 -16 39t16.5 39t38.5 16q23 0 39 -16t16 -39t-16 -39t-39 -16t-39 16z" />
    <glyph glyph-name="equal" unicode="=" 
d="M94 287h381q-6 -35 -19 -73h-381q7 39 19 73zM119 457h381q-6 -35 -19 -73h-381q7 39 19 73z" />
    <glyph glyph-name="notequal" unicode="&#x2260;" 
d="M354 384l-61 -96h182q-2 -15 -7.5 -35.5t-10.5 -38.5h-211l-85 -134l-50 29l66 105h-101q6 33 18 74h130l61 96h-185q7 39 19 73h212l83 131l50 -30l-64 -101h100q-6 -35 -19 -73h-127z" />
    <glyph glyph-name="greater" unicode="&#x3e;" 
d="M478 366q-4 -29 -14 -61l-390 -156q5 46 15 82l286 109l-260 109q6 30 21 74z" />
    <glyph glyph-name="less" unicode="&#x3c;" 
d="M491 441l-285 -109l259 -109q-3 -17 -8.5 -36t-12.5 -38l-342 157q2 14 7 33t7 28l391 156q-5 -39 -16 -82z" />
    <glyph glyph-name="greaterequal" unicode="&#x2265;" 
d="M484 416q-2 -21 -14 -61l-388 -140q5 43 15 80l276 93l-255 94q3 17 9 36.5t13 38.5zM78 173h381q-6 -37 -19 -73h-380q4 32 18 73z" />
    <glyph glyph-name="lessequal" unicode="&#x2264;" 
d="M495 515.5q-4 -21.5 -9 -39.5l-275 -93l254 -93q-6 -37 -21 -75l-344 141q2 22 14 61l388 140q-3 -20 -7 -41.5zM78 173h381q-6 -37 -19 -73h-380q4 32 18 73z" />
    <glyph glyph-name="plusminus" unicode="&#xb1;" 
d="M497 446q-6 -35 -19 -73h-150l-20 -143h-70l20 143h-161q7 39 19 73h152l21 151h70l-21 -151h159zM78 175h381q-6 -35 -19 -73h-380q5 35 18 73z" />
    <glyph glyph-name="approxequal" unicode="&#x2248;" 
d="M326 378q-19 9 -43 26q-18 13 -30.5 19t-24.5 6q-19 0 -31.5 -13t-25.5 -43q-42 6 -62 15q24 61 54 84.5t67 23.5q22 0 41 -9t43 -26q19 -13 31.5 -19.5t25.5 -6.5q18 0 32 14t30 52q37 -3 61 -15q-25 -64 -58 -90.5t-69 -26.5q-22 0 -41 9zM300 194q-19 9 -43 26
q-18 13 -30.5 19t-24.5 6q-19 0 -31.5 -13t-25.5 -43q-42 6 -62 15q24 61 54 84.5t67 23.5q22 0 41 -9t43 -26q19 -13 31.5 -19.5t25.5 -6.5q18 0 32 14t30 52q37 -3 61 -15q-25 -64 -58 -90.5t-69 -26.5q-22 0 -41 9z" />
    <glyph glyph-name="asciitilde" unicode="~" 
d="M314 287q-19 9 -43 26q-18 13 -30.5 19t-24.5 6q-19 0 -31.5 -13t-25.5 -43q-42 6 -62 15q24 61 54 84.5t67 23.5q22 0 41 -9t43 -26q19 -13 31.5 -19.5t25.5 -6.5q18 0 32 14t30 52q37 -3 61 -15q-25 -64 -58 -90.5t-69 -26.5q-22 0 -41 9z" />
    <glyph glyph-name="logicalnot" unicode="&#xac;" 
d="M487 375l-34 -238h-71l23 165h-318q6 35 19 73h381z" />
    <glyph glyph-name="asciicircum" unicode="^" 
d="M393 274l-63 346l-162 -346h-80l200 410q41 12 96 12l85 -422h-76z" />
    <glyph glyph-name="infinity" unicode="&#x221e;" horiz-adv-x="636" 
d="M527.5 497q28.5 -20 44 -57.5t15.5 -86.5q0 -47 -15.5 -85.5t-44 -60.5t-65.5 -22q-44 0 -73.5 20t-56.5 70q-25 -46 -54 -67t-75 -21q-37 0 -65.5 20.5t-44 57.5t-15.5 86q0 47 15.5 85.5t44 60.5t66.5 22q30 0 52.5 -8.5t41 -28.5t37.5 -57q25 48 53 70t74 22
q37 0 65.5 -20zM244 266.5q13 8.5 26 28t29 54.5q-17 40 -28.5 61t-24.5 30.5t-32 9.5q-20 0 -35 -12.5t-23.5 -35t-8.5 -50.5q0 -41 17.5 -67.5t49.5 -26.5q17 0 30 8.5zM498.5 282q16.5 27 16.5 70q0 42 -16 68t-45 26q-18 0 -30.5 -9t-25 -28.5t-30.5 -58.5
q16 -39 28 -58.5t25.5 -28t33.5 -8.5q27 0 43.5 27z" />
    <glyph glyph-name="emptyset" unicode="&#x2205;" horiz-adv-x="825" 
d="M707 577q40 -47 61.5 -106t21.5 -126q0 -102 -49 -184.5t-132.5 -129.5t-182.5 -47q-68 0 -130.5 23t-111.5 65l-99 -96l-41 38l101 98q-40 47 -61.5 106.5t-21.5 126.5q0 102 49 184t132.5 129t182.5 47q69 0 131 -23t110 -65l100 97l41 -39zM157.5 249
q15.5 -45 44.5 -82l409 396q-38 32 -85 49t-100 17q-78 0 -143 -37t-103 -102t-38 -145q0 -51 15.5 -96zM694.5 441q-15.5 45 -44.5 81l-409 -396q37 -32 84.5 -49t100.5 -17q78 0 143 37t103 102t38 146q0 51 -15.5 96z" />
    <glyph glyph-name="integral" unicode="&#x222b;" 
d="M64 -220.5q-20 3.5 -40 10.5q3 26 17 69q30 -10 59 -10q77 0 91 95l85 603q11 77 54 118.5t114 41.5q41 0 80 -13q-4 -35 -16 -70q-33 11 -59 11q-39 0 -61 -23t-29 -69l-85 -602q-11 -80 -54 -122.5t-108 -42.5q-28 0 -48 3.5z" />
    <glyph glyph-name="Omega" unicode="&#x2126;" 
d="M347 80h126q-5 -47 -19 -80h-177v1h-1l21 147q50 14 82.5 63.5t48 114.5t15.5 127q0 89 -30 133t-85 44q-60 0 -101 -48.5t-61 -120t-20 -140.5q0 -78 20 -119t60 -54l-17 -121l-4 -27h-190q1 17 6.5 40.5t11.5 39.5h126l4 24q-49 26 -76.5 82.5t-27.5 143.5
q0 98 32.5 184.5t95 139.5t148.5 53q64 0 108.5 -30t67 -86t22.5 -133q0 -72 -21.5 -144t-63 -129t-99.5 -83z" />
    <glyph glyph-name="Delta" unicode="&#x2206;" 
d="M497 0h-512l298 684q21 6 49.5 9t55.5 3zM399 77l-72 528l-224 -528h296z" />
    <glyph glyph-name="product" unicode="&#x220f;" 
d="M131 692h414l-128 -904h-85l116 825h-243l-115 -825h-86z" />
    <glyph glyph-name="summation" unicode="&#x2211;" 
d="M538.5 653q-5.5 -22 -12.5 -40h-303l196 -352l-291 -395h302q-2 -17 -7.5 -39t-11.5 -39h-407q4 29 14 66l308 411l-204 363q7 35 19 64h405q-2 -17 -7.5 -39z" />
    <glyph glyph-name="radical" unicode="&#x221a;" horiz-adv-x="882" 
d="M899.5 655q-6.5 -20 -15.5 -38h-266l-401 -829h-93l-108 447h84l81 -358l383 815h344q-2 -17 -8.5 -37z" />
    <glyph glyph-name="partialdiff" unicode="&#x2202;" 
d="M479.5 651.5q46.5 -55.5 46.5 -150.5q0 -123 -39.5 -242t-112 -195t-165.5 -76q-84 0 -126 49.5t-42 133.5q0 81 33 159t93.5 128t137.5 50q51 0 83 -20.5t47 -60.5q5 42 5 73q0 70 -29 102t-85 32q-63 0 -118 -21q0 16 5.5 37t14.5 41q31 8 56 12t51 4q98 0 144.5 -55.5
zM301.5 107q41.5 39 72 103.5t47.5 138.5q-27 88 -108 88q-53 0 -96 -41.5t-66.5 -104.5t-23.5 -122q0 -101 87 -101q46 0 87.5 39z" />
    <glyph glyph-name="mu" unicode="&#xb5;" 
d="M501 496l-69 -496h-78l6 74q-33 -43 -71 -64.5t-84 -21.5q-48 0 -80 21q-4 -80 -15 -151l-10 -70h-82l51 368l2 14l46 326h85l-44 -312q-3 -21 -3 -39q0 -44 20.5 -65t64.5 -21q35 0 67.5 16.5t56.5 40.5l53 380h84z" />
    <glyph glyph-name="percent" unicode="%" horiz-adv-x="814" 
d="M117.5 373q-32.5 35 -32.5 96q0 69 19.5 123.5t58 85.5t94.5 31q59 0 90.5 -33t31.5 -94q0 -70 -19 -125t-56.5 -87t-92.5 -32q-61 0 -93.5 35zM601 692q39 6 79 7l-444 -699q-37 -5 -78 -7zM271.5 431.5q21.5 30.5 30.5 93.5q5 24 5 53q0 36 -13 53t-41 17
q-37 0 -59 -30.5t-31 -92.5q-5 -25 -5 -55q0 -35 13 -52t42 -17q37 0 58.5 30.5zM496.5 20q-32.5 35 -32.5 96q0 69 19.5 123.5t58 85.5t94.5 31q59 0 90.5 -33.5t31.5 -93.5q0 -70 -19 -125t-56.5 -87t-92.5 -32q-61 0 -93.5 35zM650.5 78q21.5 30 31.5 94q4 25 4 53
q0 36 -13 53t-41 17q-37 0 -59 -30.5t-31 -92.5q-5 -25 -5 -56q0 -68 55 -68q37 0 58.5 30z" />
    <glyph glyph-name="perthousand" unicode="&#x2030;" horiz-adv-x="1152" 
d="M117.5 373q-32.5 35 -32.5 96q0 69 19.5 123.5t58 85.5t94.5 31q59 0 90.5 -33t31.5 -94q0 -70 -19 -125t-56.5 -87t-92.5 -32q-61 0 -93.5 35zM601 692q39 6 79 7l-444 -699q-37 -5 -78 -7zM271.5 431.5q21.5 30.5 30.5 93.5q5 24 5 53q0 36 -13 53t-41 17
q-37 0 -59 -30.5t-31 -92.5q-5 -25 -5 -55q0 -35 13 -52t42 -17q37 0 58.5 30.5zM496.5 20q-32.5 35 -32.5 96q0 69 19.5 123.5t58 85.5t94.5 31q59 0 90.5 -33.5t31.5 -93.5q0 -70 -19 -125t-56.5 -87t-92.5 -32q-61 0 -93.5 35zM849.5 19q-32.5 35 -32.5 96q0 69 19 123.5
t57.5 85.5t94.5 31q59 0 90.5 -33t31.5 -94q0 -70 -19 -125t-56.5 -87t-92.5 -32q-60 0 -92.5 35zM650.5 78q21.5 30 31.5 94q4 25 4 53q0 36 -13 53t-41 17q-37 0 -59 -30.5t-31 -92.5q-5 -25 -5 -56q0 -68 55 -68q37 0 58.5 30zM1002.5 77q21.5 30 31.5 94q4 25 4 53
q0 36 -13 53t-41 17q-72 0 -90 -123q-5 -35 -5 -56q0 -34 13.5 -51t42.5 -17q36 0 57.5 30z" />
    <glyph glyph-name="arrowup" unicode="&#x2191;" horiz-adv-x="675" 
d="M629 409q-7 -14 -17.5 -27.5t-22.5 -22.5l-219 193l2 -505h-69l2 504l-217 -192q-22 15 -41 50l291 254z" />
    <glyph glyph-name="uni2197" unicode="&#x2197;" horiz-adv-x="640" 
d="M562 187q-15 -6 -32 -9.5t-31 -2.5l-38 290l-331 -381l-51 45l332 378l-290 -2q-2 14 -2 21q0 21 5 43h386z" />
    <glyph glyph-name="arrowright" unicode="&#x2192;" horiz-adv-x="640" 
d="M627 362l-254 -290q-14 7 -28 18t-22 22l192 217l-504 -2v69l505 -2l-193 219q8 11 22 22t28 18z" />
    <glyph glyph-name="uni2198" unicode="&#x2198;" horiz-adv-x="640" 
d="M518 508.5q17 -3.5 31 -9.5l-52 -382h-385q-5 20 -5 41q0 9 2 23l289 -2l-332 378l52 46l330 -381l38 289q15 1 32 -2.5z" />
    <glyph glyph-name="arrowdown" unicode="&#x2193;" horiz-adv-x="640" 
d="M611 312l-290 -254l-291 254q7 14 17.5 27.5t22.5 22.5l217 -191l-1 503h68l-1 -505l218 193q23 -16 40 -50z" />
    <glyph glyph-name="uni2199" unicode="&#x2199;" horiz-adv-x="640" 
d="M518 219q2 -14 2 -21q0 -21 -5 -43h-386l-52 382q15 6 32 9.5t31 2.5l38 -290l331 381l51 -45l-332 -378z" />
    <glyph glyph-name="arrowleft" unicode="&#x2190;" horiz-adv-x="640" 
d="M628 321l-504 2l192 -217q-14 -20 -50 -41l-254 291l254 291q14 -7 28 -18t22 -22l-193 -219l505 2v-69z" />
    <glyph glyph-name="uni2196" unicode="&#x2196;" horiz-adv-x="640" 
d="M510 84l-331 381l-38 -290q-14 -1 -31 2.5t-32 9.5l52 382h386q5 -22 5 -43q0 -7 -2 -21l-290 2l332 -378z" />
    <glyph glyph-name="arrowboth" unicode="&#x2194;" horiz-adv-x="772" 
d="M765 356l-254 -291q-36 21 -50 41l192 217h-25v-2h-478v2h-26l192 -217q-14 -20 -50 -41l-254 291l254 291q14 -7 28 -18t22 -22l-193 -219h27v2h478v-2h26l-193 219q8 11 22 22t28 18z" />
    <glyph glyph-name="arrowupdn" unicode="&#x2195;" horiz-adv-x="669" 
d="M612.5 269q10.5 -14 17.5 -28l-291 -253l-290 253q7 14 17.5 28t22.5 23l215 -190l1 241l-1 240l-215 -189q-12 9 -22.5 22.5t-17.5 27.5l290 254l291 -254q-7 -14 -17.5 -27.5t-22.5 -22.5l-217 191l-1 -242l1 -243l217 192q12 -9 22.5 -23z" />
    <glyph glyph-name="lozenge" unicode="&#x25ca;" horiz-adv-x="419" 
d="M26 355l200 337h94l103 -337l-202 -355h-90zM341 357l-76 262l-156 -267l76 -280z" />
    <glyph glyph-name="at" unicode="@" horiz-adv-x="871" 
d="M675.5 668q75.5 -39 116 -110t40.5 -163q0 -81 -25 -156t-72 -122t-111 -47q-46 0 -73 20.5t-32 55.5q-22 -33 -51 -50.5t-68 -17.5q-41 0 -72.5 20t-49 59.5t-17.5 94.5q0 80 25 139t75.5 91.5t125.5 32.5q42 0 74.5 -7.5t67.5 -20.5l-42 -296q-1 -5 -1 -14
q0 -20 10.5 -33t33.5 -13q41 0 71.5 42.5t46.5 105t16 120.5q0 78 -31.5 133.5t-92 84t-144.5 28.5q-110 0 -195 -57t-131.5 -153.5t-46.5 -212.5q0 -91 35 -154t97.5 -94.5t144.5 -31.5q55 0 109.5 11.5t97.5 30.5q-1 -31 -12 -67q-94 -37 -198 -37q-102 0 -179 41
t-119 118t-42 181q0 134 56 245.5t156.5 176.5t228.5 65q102 0 177.5 -39zM558 452q-37 10 -75 10q-52 0 -87 -27.5t-51.5 -74.5t-16.5 -105t22.5 -87.5t65.5 -29.5q29 0 55.5 14t49.5 37z" />
    <glyph glyph-name="ampersand" unicode="&#x26;" horiz-adv-x="679" 
d="M532 0l-56 72q-89 -86 -221 -86q-63 0 -111 23.5t-74.5 66.5t-26.5 102q0 78 47 138t129 92q-36 60 -36 115q0 58 27 99.5t75.5 63t113.5 21.5q79 0 149 -32q-3 -22 -9 -42.5t-13 -35.5q-27 15 -58.5 23t-63.5 8q-66 0 -100 -30t-34 -79q0 -23 10.5 -47.5t33.5 -55.5
l170 -217q45 80 71 207q43 10 81 8q-32 -170 -104 -276l108 -138h-108zM431 130l-171 220q-38 -11 -68.5 -36.5t-47.5 -60.5t-17 -74q0 -35 15 -61.5t44 -41.5t71 -15q105 0 174 69z" />
    <glyph glyph-name="paragraph" unicode="&#xb6;" horiz-adv-x="595" 
d="M287 227h-38q-183 0 -183 186q0 84 29.5 147t88.5 97.5t146 34.5h241l-115 -819h-60l107 757h-100l-106 -757h-59z" />
    <glyph glyph-name="section" unicode="&#xa7;" horiz-adv-x="514" 
d="M444 445.5q46 -30.5 46 -91.5q0 -44 -27 -77t-80 -52q59 -36 59 -98q0 -47 -28 -79t-76.5 -47.5t-110.5 -15.5q-51 0 -96.5 8t-98.5 29q0 14 5.5 34t11.5 34q48 -18 91 -26.5t87 -8.5q55 0 93 17.5t38 53.5q0 23 -14.5 37t-41.5 23t-77 20q-76 16 -122 46t-46 89
q0 45 27 78.5t79 52.5q-28 17 -43 41t-15 57q0 46 28 76.5t76.5 45.5t110.5 15q93 0 176 -27q0 -14 -5.5 -34t-11.5 -34q-38 13 -74.5 19.5t-84.5 6.5q-55 0 -93 -16t-38 -51q0 -24 14.5 -38t41 -22.5t77.5 -18.5q76 -16 122 -46.5zM383.5 289q26.5 23 26.5 59
q0 30 -29 48.5t-91 31.5q-26 5 -55 14q-98 -24 -98 -95q0 -28 29.5 -46.5t90.5 -31.5q36 -7 54 -14q46 11 72.5 34z" />
    <glyph glyph-name="copyright" unicode="&#xa9;" horiz-adv-x="904" 
d="M261.5 -18.5q-91.5 53.5 -145 148t-53.5 211.5q0 116 53.5 210t145 147.5t202.5 53.5t203.5 -53.5t146 -147.5t53.5 -210q0 -117 -53.5 -211.5t-146 -148t-203.5 -53.5t-202.5 53.5zM636.5 34.5q77.5 46.5 122.5 127t45 179.5q0 98 -45 178.5t-122.5 126.5t-172.5 46
q-94 0 -171.5 -46t-122 -126.5t-44.5 -178.5q0 -99 44.5 -179.5t122 -127t171.5 -46.5q95 0 172.5 46.5zM366 150q-48 27 -75.5 76.5t-27.5 112.5q0 64 27.5 114t75.5 77t110 27q70 0 110 -21q-2 -40 -10 -61q-18 10 -44 15.5t-55 5.5q-42 0 -75 -18.5t-51.5 -53.5
t-18.5 -82t19.5 -83t53.5 -55.5t76 -19.5q29 0 56 5.5t46 15.5q0 -26 -8 -66q-46 -16 -100 -16q-61 0 -109 27z" />
    <glyph glyph-name="registered" unicode="&#xae;" horiz-adv-x="457" 
d="M364.5 680.5q44.5 -25.5 70.5 -70t26 -99.5q0 -56 -26 -100.5t-70.5 -70t-98.5 -25.5q-55 0 -99.5 25.5t-70.5 70t-26 100.5q0 55 26 100t71 70t99 25t98.5 -25.5zM345.5 371.5q35.5 20.5 56.5 57t21 82.5t-20.5 82.5t-56.5 56.5t-80 20q-45 0 -81 -20t-56.5 -56.5
t-20.5 -82.5t20.5 -82.5t56.5 -57t81 -20.5q44 0 79.5 20.5zM330.5 517.5q-10.5 -15.5 -30.5 -23.5l56 -84h-43l-49 77h-23v-77h-37v203q27 6 57 6q37 0 58.5 -17.5t21.5 -46.5q0 -22 -10.5 -37.5zM241 521h19q23 0 33 7.5t10 24.5q0 33 -42 33q-14 0 -20 -1v-64z" />
    <glyph glyph-name="trademark" unicode="&#x2122;" horiz-adv-x="647" 
d="M578 694.5q15 2.5 35 2.5l-17 -316h-55l9 113q2 45 10 114q-28 -68 -51 -119l-52 -108h-41l-22 104q-7 32 -11.5 60.5t-8.5 63.5l-21 -114l-23 -114h-54l69 306q16 4 31 7t32 3l38 -241l100 231q17 5 32 7.5zM207 645l-38 -264h-51l37 264h-93q2 19 11 47h230
q-5 -28 -11 -47h-85z" />
    <glyph glyph-name="degree" unicode="&#xb0;" horiz-adv-x="397" 
d="M163 424q-35 18 -55 52t-20 80t19.5 80t54 52.5t79.5 18.5q44 0 79.5 -18.5t55.5 -53t20 -79.5q0 -46 -20 -80t-55 -52t-79 -18t-79 18zM287 475.5q20 11.5 31.5 32.5t11.5 48q0 28 -12 49.5t-32 33t-44 11.5q-25 0 -44.5 -11.5t-31 -33t-11.5 -49.5q0 -27 11 -48
t31 -32.5t45 -11.5t45 11.5z" />
    <glyph glyph-name="bar" unicode="|" horiz-adv-x="284" 
d="M182 787q15 5 35.5 9t37.5 4l-143 -1012h-71z" />
    <glyph glyph-name="brokenbar" unicode="&#xa6;" horiz-adv-x="284" 
d="M182 787q15 5 35.5 9t37.5 4l-63 -444h-71zM97 183h71l-56 -395h-71z" />
    <glyph glyph-name="dagger" unicode="&#x2020;" horiz-adv-x="533" 
d="M484 459.5q-5 -19.5 -11 -36.5h-148l-59 -423h-71l60 423h-154q5 39 18 73h146l28 196h70l-27 -196h156q-3 -17 -8 -36.5z" />
    <glyph glyph-name="uni2113" unicode="&#x2113;" horiz-adv-x="376" 
d="M155 120q0 -30 13 -44t43 -14q42 0 87 17q-5 -38 -19 -76q-40 -15 -91 -15q-57 0 -87 33t-30 91q0 21 2 33l57 411q10 72 46 111.5t98 39.5q53 0 81 -30t28 -85q0 -52 -28 -103.5t-73.5 -96t-101.5 -78.5l-23 -167q-2 -20 -2 -27zM233 614q-14 -21 -21 -71l-21 -150
q52 41 82 92.5t30 107.5q0 20 -8.5 31t-24.5 11q-23 0 -37 -21z" />
    <glyph glyph-name="daggerdbl" unicode="&#x2021;" horiz-adv-x="536" 
d="M332 447l-29 -202h155q-5 -39 -18 -73h-147l-24 -172h-72l24 172h-154q1 15 6.5 34.5t12.5 38.5h146l28 202h-154q5 39 19 73h146l24 172h71l-24 -172h156q-3 -17 -8 -37t-12 -36h-146z" />
    <glyph glyph-name="estimated" unicode="&#x212e;" horiz-adv-x="831" 
d="M204.5 38q-89.5 47 -137 126.5t-47.5 173.5q0 95 48 179t138 135t209 51q143 0 231.5 -53.5t126.5 -136.5t38 -177h-641q-3 0 -4 -1t-1 -3v-183q0 -22 7 -30q41 -48 103.5 -75t138.5 -27q78 0 139.5 29t118.5 82h70q-41 -48 -85 -78t-102 -44.5t-139 -14.5
q-122 0 -211.5 47zM660 358q3 0 4.5 1t1.5 4v187q0 7 -3 14t-8 12q-52 52 -118.5 77.5t-124.5 25.5q-62 0 -125 -25.5t-113 -75.5q-4 -4 -6.5 -12t-2.5 -16v-187q0 -3 1 -4t4 -1h490z" />
    <glyph glyph-name="uni02C9" unicode="&#x2c9;" horiz-adv-x="350" 
d="M120 688h242q-6 -32 -18 -67h-242q6 35 18 67z" />
    <glyph glyph-name="uni0308" unicode="&#x308;" horiz-adv-x="0" 
d="M-260.5 618q-14.5 15 -14.5 39q0 23 14.5 38t37.5 15t38 -14.5t15 -38.5t-15 -39t-38 -15t-37.5 15zM-83.5 618q-14.5 15 -14.5 38q0 25 14.5 39.5t37.5 14.5t37.5 -15t14.5 -39q0 -23 -14.5 -38t-37.5 -15t-37.5 15z" />
    <glyph glyph-name="uni0308.aalt" horiz-adv-x="0" 
d="M-253 782.5q-15 15.5 -15 39.5q0 23 15.5 38t38.5 15t38 -15t15 -38q0 -24 -15 -39.5t-38 -15.5q-24 0 -39 15.5zM-60 782.5q-15 15.5 -15 39.5q0 23 15 38t38 15t38 -15t15 -38q0 -24 -15 -39.5t-38 -15.5t-38 15.5z" />
    <glyph glyph-name="glyph517" horiz-adv-x="0" 
d="M-227.5 618q-14.5 15 -14.5 38t14.5 38t37.5 15q22 0 36 -15t14 -38t-14 -38t-36 -15q-23 0 -37.5 15zM-80 618q-14 15 -14 38t14 38t36 15q23 0 37 -15t14 -38q0 -24 -14 -38.5t-37 -14.5q-22 0 -36 15z" />
    <glyph glyph-name="glyph518" horiz-adv-x="0" 
d="M-209.5 782.5q-14.5 15.5 -14.5 38.5q0 24 14 39t38 15q23 0 37.5 -15.5t14.5 -38.5t-14.5 -38.5t-37.5 -15.5t-37.5 15.5zM-60.5 782.5q-14.5 15.5 -14.5 38.5t14.5 38.5t37.5 15.5q24 0 38.5 -15t14.5 -39q0 -23 -14.5 -38.5t-38.5 -15.5q-23 0 -37.5 15.5z" />
    <glyph glyph-name="uni0307" unicode="&#x307;" horiz-adv-x="0" 
d="M-88 614.5q-16 15.5 -16 40.5q0 26 16 41.5t40 15.5t39 -15.5t15 -41.5q0 -24 -15.5 -40t-38.5 -16q-24 0 -40 15.5z" />
    <glyph glyph-name="uni0307.aalt" horiz-adv-x="0" 
d="M-61 781.5q-15 14.5 -15 38.5t15 39t38 15t38 -15t15 -39t-15 -38.5t-38 -14.5t-38 14.5z" />
    <glyph glyph-name="gravecomb" unicode="&#x300;" horiz-adv-x="0" 
d="M-9 575q-32 8 -63.5 31t-57 56t-39.5 70q23 0 53 -4t51 -12l61 -141h-5z" />
    <glyph glyph-name="gravecomb.aalt" horiz-adv-x="0" 
d="M6 763q-47 5 -95 37t-83 75q22 8 59 8q15 0 30.5 -1.5t24.5 -4.5l80 -114h-16z" />
    <glyph glyph-name="acutecomb" unicode="&#x301;" horiz-adv-x="0" 
d="M-86 716q21 8 50.5 12t53.5 4q-14 -37 -39.5 -70t-57 -56t-63.5 -31h-5z" />
    <glyph glyph-name="acutecomb.aalt" horiz-adv-x="0" 
d="M-75 877q9 3 24.5 4.5t30.5 1.5q37 0 58 -8q-35 -43 -82.5 -75t-94.5 -37h-17z" />
    <glyph glyph-name="uni030B" unicode="&#x30b;" horiz-adv-x="0" 
d="M-211 719q15 6 42.5 9t48.5 3q-42 -75 -84 -112t-86 -47h-7zM-72 719q16 6 43 9t47 3q-41 -75 -84 -113.5t-85 -45.5h-7z" />
    <glyph glyph-name="uni030B.aalt" horiz-adv-x="0" 
d="M-193 879q19 5 55 5q30 0 39 -2q-14 -27 -42.5 -53.5t-62 -45t-63.5 -21.5h-13zM-55 879q18 5 54 5q31 0 40 -2q-14 -26 -42.5 -52.5t-62.5 -45t-64 -22.5h-12z" />
    <glyph glyph-name="glyph527" horiz-adv-x="0" 
d="M-85 606q8 39 14 86q40 13 85 14q-12 -57 -37 -102.5t-59 -77.5h-23q12 41 20 80z" />
    <glyph glyph-name="uni0302" unicode="&#x302;" horiz-adv-x="0" 
d="M-3 582h-45q-21 17 -36.5 34t-38.5 54q-35 -36 -58 -55t-47 -33h-45l112 145q17 4 44 4q23 0 41 -3z" />
    <glyph glyph-name="uni0302.aalt" horiz-adv-x="0" 
d="M-158 884q24 6 53 6t51 -6l77 -122h-33q-31 5 -55 24.5t-47 52.5q-68 -68 -129 -77h-28z" />
    <glyph glyph-name="glyph530" horiz-adv-x="0" 
d="M-4 579h-29q-34 19 -73 88q-32 -38 -53.5 -58t-43.5 -30h-33l97 145q16 4 39 4q21 0 39 -3z" />
    <glyph glyph-name="glyph531" horiz-adv-x="0" 
d="M-137 872q10 3 23.5 4.5t24.5 1.5q25 0 44 -6l67 -109h-37q-28 16 -45.5 29t-33.5 36q-22 -23 -43 -36t-52 -29h-46z" />
    <glyph glyph-name="uni030C" unicode="&#x30c;" horiz-adv-x="0" 
d="M17 728l-112 -145q-17 -4 -43 -4q-25 0 -41 4l-73 145h45q22 -18 36.5 -34.5t38.5 -53.5q34 37 57 55.5t48 32.5h44z" />
    <glyph glyph-name="uni030C.aalt" horiz-adv-x="0" 
d="M-71 766q-20 -5 -53 -5q-32 0 -51 5l-76 123h32q32 -6 56.5 -25.5t45.5 -51.5q66 66 130 77h27z" />
    <glyph glyph-name="glyph534" horiz-adv-x="0" 
d="M17 726l-97 -145q-16 -4 -39 -4q-21 0 -39 3l-57 146h29q34 -19 73 -88q31 37 53 57.5t44 30.5h33z" />
    <glyph glyph-name="uni0306" unicode="&#x306;" horiz-adv-x="0" 
d="M-204.5 594q-28.5 18 -42 48.5t-12.5 68.5q25 6 61 6q0 -36 16 -58t49 -22q34 0 56 21.5t32 58.5q41 0 60 -6q-16 -61 -52 -98t-96 -37q-43 0 -71.5 18z" />
    <glyph glyph-name="uni0306.aalt" horiz-adv-x="0" 
d="M-206.5 791.5q-33.5 31.5 -35.5 84.5q14 2 31 3.5t31 1.5q8 -62 71 -62t86 62q14 0 31 -1.5t31 -3.5q-34 -116 -149 -116q-63 0 -96.5 31.5z" />
    <glyph glyph-name="glyph537" horiz-adv-x="0" 
d="M-186 613q-26 35 -22 92q20 5 58 5q-1 -33 9.5 -51t36.5 -18q49 0 62 69q37 0 56 -5q-25 -127 -120 -127q-54 0 -80 35z" />
    <glyph glyph-name="glyph538" horiz-adv-x="0" 
d="M-153 776q-26 15 -39 40t-14 53q20 4 60 4q6 -52 58 -52q27 0 43.5 13t25.5 39q13 0 28 -1t28 -3q-12 -46 -42.5 -77t-84.5 -31q-37 0 -63 15z" />
    <glyph glyph-name="uni030A" unicode="&#x30a;" horiz-adv-x="0" 
d="M-149 579q-24 13 -38 36.5t-14 52.5q0 30 14 53t38 36t53 13t52.5 -13t37.5 -36.5t14 -52.5t-13.5 -52.5t-37.5 -36.5t-53 -13t-53 13zM-59 630q14 15 14 38q0 22 -14 37.5t-37 15.5t-37.5 -15t-14.5 -38t14.5 -38t37.5 -15t37 15z" />
    <glyph glyph-name="uni030A.aalt" horiz-adv-x="0" 
d="M-125.5 756q-23.5 13 -37 35t-13.5 50q0 27 13.5 49.5t37 35t53.5 12.5t53.5 -13t37 -35t13.5 -50q0 -27 -13.5 -49t-37.5 -35t-53 -13q-30 0 -53.5 13zM-34 804q14 14 14 36t-14.5 36t-37.5 14t-37.5 -14t-14.5 -35q0 -23 14 -37t38 -14t38 14z" />
    <glyph glyph-name="tildecomb" unicode="&#x303;" horiz-adv-x="0" 
d="M-81.5 599q-13.5 9 -33.5 27q-14 13 -22.5 19t-16.5 6t-13 -6t-7 -21l-4 -32h-49l8 57q9 56 60 56q15 0 29 -9.5t32 -26.5q11 -10 21.5 -17.5t17.5 -7.5q9 0 13.5 6t6.5 21l4 32h49l-8 -57q-9 -56 -59 -56q-15 0 -28.5 9z" />
    <glyph glyph-name="tildecomb.aalt" horiz-adv-x="0" 
d="M-86.5 757.5q-20.5 10.5 -45.5 28.5l-13.5 9t-17.5 10.5t-12 3.5q-10 0 -14.5 -6.5t-6.5 -21.5l-4 -32h-65l6 42q6 42 25 62t52 20q22 0 42 -10.5t45 -29.5q12 -9 23.5 -15.5t18.5 -6.5q9 0 15 6.5t7 20.5l5 33h64l-7 -45q-7 -42 -25.5 -60.5t-51.5 -18.5
q-20 0 -40.5 10.5z" />
    <glyph glyph-name="glyph543" horiz-adv-x="0" 
d="M-81 599.5q-13 9.5 -32 28.5q-7 8 -13.5 14t-11.5 6q-7 0 -11 -5.5t-5 -18.5l-5 -32h-51l7 47q6 37 20 51.5t37 14.5q18 0 31 -9.5t32 -28.5q7 -8 13.5 -14t11.5 -6q7 0 11 5.5t5 19.5l5 31h51l-7 -47q-6 -37 -20.5 -51.5t-36.5 -14.5q-18 0 -31 9.5z" />
    <glyph glyph-name="glyph544" horiz-adv-x="0" 
d="M-74 753q-17 11 -37 30q-8 9 -16.5 15t-13.5 6q-7 0 -11 -5t-6 -19l-6 -34h-58l8 52q6 40 23 56.5t42 16.5q20 0 37 -11t37 -30q8 -9 16 -15t14 -6q8 0 12 5.5t6 18.5l6 34h58l-8 -51q-6 -41 -23 -57.5t-42 -16.5q-21 0 -38 11z" />
    <glyph glyph-name="uni0304" unicode="&#x304;" horiz-adv-x="0" 
d="M-230 688h242q-6 -32 -18 -67h-242q6 35 18 67z" />
    <glyph glyph-name="uni0304.aalt" horiz-adv-x="0" 
d="M-209 855h244q-4 -25 -17 -64h-245q5 30 18 64z" />
    <glyph glyph-name="glyph547" horiz-adv-x="0" 
d="M-193 690h206q-5 -30 -18 -66h-207q5 29 19 66z" />
    <glyph glyph-name="glyph548" horiz-adv-x="0" 
d="M-175 854h210q-7 -35 -18 -64h-210q5 30 18 64z" />
    <glyph glyph-name="uni0313" unicode="&#x313;" horiz-adv-x="0" 
d="M-83 617q8 39 14 86q40 13 85 14q-12 -57 -37 -102.5t-59 -77.5h-23q12 41 20 80z" />
    <glyph glyph-name="uni0326" unicode="&#x326;" horiz-adv-x="0" 
d="M-192 -161q8 39 14 86q40 13 85 14q-12 -57 -37 -102.5t-59 -77.5h-23q12 41 20 80z" />
    <glyph glyph-name="uni0327" unicode="&#x327;" horiz-adv-x="0" 
d="M-118.5 -75.5q16.5 -16.5 16.5 -44.5q0 -41 -27.5 -63.5t-73.5 -22.5q-18 0 -37.5 4t-33.5 10q4 23 14 45q26 -10 50 -10t37 9t13 25q0 18 -18.5 27.5t-58.5 10.5l44 94h55l-28 -59q31 -9 47.5 -25.5z" />
    <glyph glyph-name="uni0328" unicode="&#x328;" horiz-adv-x="0" 
d="M-242.5 -194.5q-23.5 21.5 -23.5 64.5q0 37 31 76.5t93 69.5l32 -16q-40 -22 -63.5 -54.5t-23.5 -64.5q0 -39 44 -39q21 0 48 9q-6 -28 -16 -58q-23 -9 -58 -9q-40 0 -63.5 21.5z" />
    <glyph glyph-name="glyph553" horiz-adv-x="0" 
d="M-232.5 -193q-21.5 21 -21.5 59q0 32 13 57.5t34 45.5t56 47l41 -16q-40 -35 -59 -63.5t-19 -56.5q0 -18 10.5 -27.5t29.5 -9.5q11 0 23 3t20 7q-4 -29 -15 -58q-9 -4 -23 -6.5t-29 -2.5q-39 0 -60.5 21z" />
    <glyph glyph-name="acute" unicode="&#xb4;" horiz-adv-x="243" 
d="M157 716q21 8 50.5 12t53.5 4q-14 -37 -39.5 -70t-57 -56t-63.5 -31h-5z" />
    <glyph glyph-name="breve" unicode="&#x2d8;" horiz-adv-x="374" 
d="M169.5 594q-28.5 18 -42 48.5t-12.5 68.5q25 6 61 6q0 -36 16 -58t49 -22q34 0 56 21.5t32 58.5q41 0 60 -6q-16 -61 -52 -98t-96 -37q-43 0 -71.5 18z" />
    <glyph glyph-name="caron" unicode="&#x2c7;" horiz-adv-x="370" 
d="M387 728l-112 -145q-17 -4 -43 -4q-25 0 -41 4l-73 145h45q22 -18 36.5 -34.5t38.5 -53.5q34 37 57 55.5t48 32.5h44z" />
    <glyph glyph-name="cedilla" unicode="&#xb8;" horiz-adv-x="262" 
d="M143.5 -75.5q16.5 -16.5 16.5 -44.5q0 -41 -27.5 -63.5t-73.5 -22.5q-18 0 -37.5 4t-33.5 10q4 23 14 45q26 -10 50 -10t37 9t13 25q0 18 -18.5 27.5t-58.5 10.5l44 94h55l-28 -59q31 -9 47.5 -25.5z" />
    <glyph glyph-name="circumflex" unicode="&#x2c6;" horiz-adv-x="370" 
d="M367 582h-45q-21 17 -36.5 34t-38.5 54q-35 -36 -58 -55t-47 -33h-45l112 145q17 4 44 4q23 0 41 -3z" />
    <glyph glyph-name="dieresis" unicode="&#xa8;" horiz-adv-x="383" 
d="M122.5 618q-14.5 15 -14.5 39q0 23 14.5 38t37.5 15t38 -14.5t15 -38.5t-15 -39t-38 -15t-37.5 15zM299.5 618q-14.5 15 -14.5 38q0 25 14.5 39.5t37.5 14.5t37.5 -15t14.5 -39q0 -23 -14.5 -38t-37.5 -15t-37.5 15z" />
    <glyph glyph-name="dotaccent" unicode="&#x2d9;" horiz-adv-x="212" 
d="M124 614.5q-16 15.5 -16 40.5q0 26 16 41.5t40 15.5t39 -15.5t15 -41.5q0 -24 -15.5 -40t-38.5 -16q-24 0 -40 15.5z" />
    <glyph glyph-name="grave" unicode="`" horiz-adv-x="287" 
d="M278 575q-32 8 -63.5 31t-57 56t-39.5 70q23 0 53 -4t51 -12l61 -141h-5z" />
    <glyph glyph-name="hungarumlaut" unicode="&#x2dd;" horiz-adv-x="393" 
d="M182 719q15 6 42.5 9t48.5 3q-42 -75 -84 -112t-86 -47h-7zM321 719q16 6 43 9t47 3q-41 -75 -84 -113.5t-85 -45.5h-7z" />
    <glyph glyph-name="macron" unicode="&#xaf;" horiz-adv-x="350" 
d="M120 688h242q-6 -32 -18 -67h-242q6 35 18 67z" />
    <glyph glyph-name="ogonek" unicode="&#x2db;" horiz-adv-x="264" 
d="M21.5 -194.5q-23.5 21.5 -23.5 64.5q0 37 31 76.5t93 69.5l32 -16q-40 -22 -63.5 -54.5t-23.5 -64.5q0 -39 44 -39q21 0 48 9q-6 -28 -16 -58q-23 -9 -58 -9q-40 0 -63.5 21.5z" />
    <glyph glyph-name="ring" unicode="&#x2da;" horiz-adv-x="311" 
d="M162 579q-24 13 -38 36.5t-14 52.5q0 30 14 53t38 36t53 13t52.5 -13t37.5 -36.5t14 -52.5t-13.5 -52.5t-37.5 -36.5t-53 -13t-53 13zM252 630q14 15 14 38q0 22 -14 37.5t-37 15.5t-37.5 -15t-14.5 -38t14.5 -38t37.5 -15t37 15z" />
    <glyph glyph-name="tilde" unicode="&#x2dc;" horiz-adv-x="325" 
d="M243.5 599q-13.5 9 -33.5 27q-14 13 -22.5 19t-16.5 6t-13 -6t-7 -21l-4 -32h-49l8 57q9 56 60 56q15 0 29 -9.5t32 -26.5q11 -10 21.5 -17.5t17.5 -7.5q9 0 13.5 6t6.5 21l4 32h49l-8 -57q-9 -56 -59 -56q-15 0 -28.5 9z" />
    </font>
</defs>
</svg>
