<?xml version="1.0" standalone="no"?>
<!DOCTYPE svg PUBLIC "-//W3C//DTD SVG 1.1//EN" "http://www.w3.org/Graphics/SVG/1.1/DTD/svg11.dtd" >
<svg xmlns="http://www.w3.org/2000/svg" xmlns:xlink="http://www.w3.org/1999/xlink" version="1.1">
<metadata>
Created by FontForge 20170924 at Mon Oct 15 14:17:23 2018
 By www-data
(c) 2018 Banco Santander, S.A. All rights reserved.
</metadata>
<defs>
<font id="SantanderTextW05-Bold" horiz-adv-x="550" >
  <font-face 
    font-family="SantanderTextW05-Bold"
    font-weight="700"
    font-stretch="normal"
    units-per-em="1000"
    panose-1="2 11 8 4 2 2 1 2 1 4"
    ascent="800"
    descent="-200"
    x-height="499"
    cap-height="701"
    bbox="-429 -309 1219 1133"
    underline-thickness="50"
    underline-position="-125"
    unicode-range="U+000D-FEFF"
  />
<missing-glyph horiz-adv-x="678" 
d="M81 0v692h516v-692h-516zM170 82h338v528h-338v-528z" />
    <glyph glyph-name="f_f.liga" unicode="ff" horiz-adv-x="641" 
d="M484 499h149q-4 -63 -11 -101h-138v-398h-128v398h-165v-398h-127v528q0 88 45.5 135t136.5 47q27 0 48 -2.5t43 -8.5q-1 -49 -12 -100q-30 9 -62 9q-72 0 -72 -78v-31h165v29q0 89 48 135.5t146 46.5q49 0 90 -11q-1 -44 -11 -100q-38 9 -68 9q-41 0 -59 -19.5
t-18 -62.5v-27z" />
    <glyph glyph-name="f_f_i.liga" unicode="ffi" horiz-adv-x="854" 
d="M673 603q-21 21 -21 54t21 54t54 21q32 0 52.5 -21t20.5 -54q0 -32 -21 -53.5t-52 -21.5q-33 0 -54 21zM501 588.5q-18 -19.5 -18 -58.5v-31h134q-3 -51 -11 -101h-123v-398h-127v398h-165v-398h-127v528q0 88 45.5 135t136.5 47q27 0 48 -2.5t43 -8.5q-1 -49 -12 -100
q-30 9 -62 9q-72 0 -72 -78v-31h165v29q0 88 45.5 135t136.5 47q46 0 85 -11q-2 -55 -11 -99q-30 8 -59 8q-34 0 -52 -19.5zM662 499h128v-499h-128v499z" />
    <glyph glyph-name="f_f_l.liga" unicode="ffl" horiz-adv-x="893" 
d="M501 588.5q-18 -19.5 -18 -58.5v-31h134q-3 -51 -11 -101h-123v-398h-127v398h-165v-398h-127v528q0 88 45.5 135t136.5 47q27 0 48 -2.5t43 -8.5q-1 -49 -12 -100q-30 9 -62 9q-72 0 -72 -78v-31h165v29q0 88 45.5 135t136.5 47q46 0 85 -11q-2 -55 -11 -99q-30 8 -59 8
q-34 0 -52 -19.5zM874 100q-1 -23 -4.5 -50.5t-8.5 -49.5q-28 -12 -71 -12q-66 0 -99.5 39.5t-33.5 114.5v550q63 18 128 18v-561q0 -28 11.5 -42.5t37.5 -14.5q22 0 40 8z" />
    <glyph glyph-name="uniFB01" unicode="fi" horiz-adv-x="562" 
d="M381 603q-21 21 -21 54t21 54t54 21q32 0 52.5 -21t20.5 -54q0 -32 -21 -53.5t-52 -21.5q-33 0 -54 21zM209 588.5q-18 -19.5 -18 -58.5v-31h134q-3 -51 -11 -101h-123v-398h-127v528q0 88 45.5 135t136.5 47q46 0 85 -11q-2 -55 -11 -99q-30 8 -59 8q-34 0 -52 -19.5z
M370 499h128v-499h-128v499z" />
    <glyph glyph-name="uniFB02" unicode="fl" horiz-adv-x="601" 
d="M209 588.5q-18 -19.5 -18 -58.5v-31h134q-3 -51 -11 -101h-123v-398h-127v528q0 88 45.5 135t136.5 47q46 0 85 -11q-2 -55 -11 -99q-30 8 -59 8q-34 0 -52 -19.5zM582 100q-1 -23 -4.5 -50.5t-8.5 -49.5q-28 -12 -71 -12q-66 0 -99.5 39.5t-33.5 114.5v550q63 18 128 18
v-561q0 -28 11.5 -42.5t37.5 -14.5q22 0 40 8z" />
    <glyph glyph-name="exclam_L.liga" unicode="&#x21;L" horiz-adv-x="1315" 
d="M991.5 453.5q67.5 -39.5 105.5 -90.5t38 -107q0 -79 -71.5 -145.5t-193.5 -105.5t-266 -39t-266 39t-193.5 105.5t-71.5 145.5q0 56 38 107t106 90.5t157 63.5q0 -75 31 -126l167 -288q18 -31 25 -72l6 14q27 64 27 123t-27 106l-132 231q-33 58 -33 111t33 120l6 12
q3 -18 9.5 -34t17.5 -36l199 -345q18 -32 25 -71l8 12q30 54 30 116q0 63 -30 115l-133 231q-30 53 -30 115q0 63 30 115l7 12q4 -17 11 -36.5t15 -33.5l169 -288q25 -43 30 -103q89 -24 156.5 -63.5z" />
    <glyph glyph-name=".notdef" horiz-adv-x="678" 
d="M81 0v692h516v-692h-516zM170 82h338v528h-338v-528z" />
    <glyph glyph-name="glyph1" horiz-adv-x="0" 
 />
    <glyph glyph-name="glyph1" horiz-adv-x="0" 
 />
    <glyph glyph-name="uni000D" unicode="&#xd;" horiz-adv-x="233" 
 />
    <glyph glyph-name="space" unicode=" " horiz-adv-x="233" 
 />
    <glyph glyph-name="A" unicode="A" horiz-adv-x="611" 
d="M426 144h-248l-42 -144h-128l214 682q27 8 72 12t91 4l218 -698h-137zM396 252l-91 324l-95 -324h186z" />
    <glyph glyph-name="Aacute" unicode="&#xc1;" horiz-adv-x="611" 
d="M426 144h-248l-42 -144h-128l214 682q27 8 72 12t91 4l218 -698h-137zM396 252l-91 324l-95 -324h186zM288 881q13 3 36.5 5t43.5 2q24 0 47.5 -3t37.5 -7q-34 -52 -88.5 -84.5t-116.5 -32.5h-21z" />
    <glyph glyph-name="Abreve" unicode="&#x102;" horiz-adv-x="611" 
d="M426 144h-248l-42 -144h-128l214 682q27 8 72 12t91 4l218 -698h-137zM396 252l-91 324l-95 -324h186zM191.5 794q-39.5 36 -48.5 91q21 2 45.5 4t45.5 2q8 -26 25.5 -39.5t47.5 -13.5q58 0 73 53q20 0 44.5 -2t45.5 -4q-8 -56 -47 -91.5t-116 -35.5q-76 0 -115.5 36z
" />
    <glyph glyph-name="Acircumflex" unicode="&#xc2;" horiz-adv-x="611" 
d="M426 144h-248l-42 -144h-128l214 682q27 8 72 12t91 4l218 -698h-137zM396 252l-91 324l-95 -324h186zM227 888q35 9 79 9q42 0 78 -9l93 -127h-63q-62 19 -108 68q-29 -28 -56 -43.5t-55 -24.5h-61z" />
    <glyph glyph-name="Adieresis" unicode="&#xc4;" horiz-adv-x="611" 
d="M426 144h-248l-42 -144h-128l214 682q27 8 72 12t91 4l218 -698h-137zM396 252l-91 324l-95 -324h186zM152.5 777q-19.5 20 -19.5 51t20 50.5t50 19.5t50 -19.5t20 -50.5t-20 -51t-50 -20q-31 0 -50.5 20zM359 777q-20 20 -20 51q0 30 20 50t51 20q29 0 48.5 -20
t19.5 -50q0 -31 -19.5 -51t-48.5 -20q-31 0 -51 20z" />
    <glyph glyph-name="Agrave" unicode="&#xc0;" horiz-adv-x="611" 
d="M426 144h-248l-42 -144h-128l214 682q27 8 72 12t91 4l218 -698h-137zM396 252l-91 324l-95 -324h186zM390 761q-62 0 -116.5 32.5t-88.5 84.5q14 4 38 7t48 3q20 0 43 -2t36 -5l61 -120h-21z" />
    <glyph glyph-name="Amacron" unicode="&#x100;" horiz-adv-x="611" 
d="M426 144h-248l-42 -144h-128l214 682q27 8 72 12t91 4l218 -698h-137zM396 252l-91 324l-95 -324h186zM162.5 825q2.5 21 8.5 46h282q-3 -49 -12 -92h-282q1 25 3.5 46z" />
    <glyph glyph-name="Aogonek" unicode="&#x104;" horiz-adv-x="611" 
d="M594.5 -134.5q11.5 3.5 20.5 6.5q-3 -46 -10 -84q-22 -9 -59 -9q-57 0 -90.5 28t-33.5 81q0 66 65 112h-21l-40 144h-248l-42 -144h-128l214 682q27 8 72 12t91 4l218 -698h-23q-29 -16 -43 -41.5t-14 -48.5q0 -48 49 -48q11 0 22.5 3.5zM396 252l-91 324l-95 -324h186z
" />
    <glyph glyph-name="Aring" unicode="&#xc5;" horiz-adv-x="611" 
d="M426 144h-248l-42 -144h-128l214 682q27 8 72 12t91 4l218 -698h-137zM396 252l-91 324l-95 -324h186zM244.5 755.5q-27.5 14.5 -43.5 39.5t-16 57q0 31 15.5 56t43 39.5t62.5 14.5t62.5 -14t43 -39t15.5 -57t-16 -57t-43.5 -39.5t-61.5 -14.5t-61.5 14.5zM341 817.5
q13 12.5 13 34.5q0 20 -13 33t-35 13t-35 -13t-13 -33q0 -21 13 -34t35 -13t35 12.5z" />
    <glyph glyph-name="Aringacute" unicode="&#x1fa;" horiz-adv-x="611" 
d="M426 144h-248l-42 -144h-128l214 682q27 8 72 12t91 4l218 -698h-137zM396 252l-91 324l-95 -324h186zM244.5 755.5q-27.5 14.5 -43.5 39.5t-16 57q0 31 15.5 56t43 39.5t62.5 14.5t62.5 -14t43 -39t15.5 -57t-16 -57t-43.5 -39.5t-61.5 -14.5t-61.5 14.5zM341 817.5
q13 12.5 13 34.5q0 20 -13 33t-35 13t-35 -13t-13 -33q0 -21 13 -34t35 -13t35 12.5zM288 1126q13 3 36.5 5t43.5 2q24 0 47.5 -3t37.5 -7q-34 -52 -88.5 -84.5t-116.5 -32.5h-21z" />
    <glyph glyph-name="Atilde" unicode="&#xc3;" horiz-adv-x="611" 
d="M426 144h-248l-42 -144h-128l214 682q27 8 72 12t91 4l218 -698h-137zM396 252l-91 324l-95 -324h186zM344 755q-24 10 -56 28q-5 3 -14 7.5t-17.5 8t-12.5 3.5q-9 0 -12.5 -6t-3.5 -20v-30h-85v53q0 46 20.5 68t55.5 22q24 0 49 -10.5t61 -28.5q5 -3 13 -7t15 -7t11 -3
q8 0 12 5.5t4 18.5v31h85v-55q0 -88 -80 -88q-21 0 -45 10z" />
    <glyph glyph-name="AE" unicode="&#xc6;" horiz-adv-x="871" 
d="M543 111h291q-1 -25 -4.5 -57.5t-7.5 -53.5h-409v152h-226q-32 -74 -60 -152h-134q64 170 155 355.5t183 336.5h504q0 -24 -3 -56.5t-8 -54.5h-281v-176h261q-1 -27 -4 -58.5t-7 -52.5h-250v-183zM413 261v320h-15q-77 -125 -164 -320h179z" />
    <glyph glyph-name="AEacute" unicode="&#x1fc;" horiz-adv-x="871" 
d="M543 111h291q-1 -25 -4.5 -57.5t-7.5 -53.5h-409v152h-226q-32 -74 -60 -152h-134q64 170 155 355.5t183 336.5h504q0 -24 -3 -56.5t-8 -54.5h-281v-176h261q-1 -27 -4 -58.5t-7 -52.5h-250v-183zM413 261v320h-15q-77 -125 -164 -320h179zM547 881q13 3 36.5 5t43.5 2
q24 0 47.5 -3t37.5 -7q-34 -52 -88.5 -84.5t-116.5 -32.5h-21z" />
    <glyph glyph-name="B" unicode="B" horiz-adv-x="612" 
d="M545.5 300q28.5 -44 28.5 -102q0 -60 -27.5 -104.5t-82.5 -69t-134 -24.5h-249v692q38 8 94 13t109 5q138 0 202 -49.5t64 -141.5q0 -51 -24 -90.5t-67 -62.5q58 -22 86.5 -66zM386 578q-32 25 -106 25q-25 0 -69 -4v-193h91q56 0 86 23.5t30 75.5q0 48 -32 73zM409 129
q32 23 32 74q0 50 -32 74.5t-96 24.5h-102v-196h104q62 0 94 23z" />
    <glyph glyph-name="C" unicode="C" horiz-adv-x="557" 
d="M192 27.5q-74 45.5 -113 128t-39 192.5t40 191.5t115 126t177 44.5q96 0 158 -31q-1 -65 -17 -110q-26 13 -60.5 20.5t-70.5 7.5q-65 0 -111 -28.5t-70.5 -84.5t-24.5 -137q0 -80 25.5 -136.5t72 -85.5t107.5 -29q43 0 80 8.5t66 23.5q-8 -75 -20 -123q-71 -23 -137 -23
q-104 0 -178 45.5z" />
    <glyph glyph-name="Cacute" unicode="&#x106;" horiz-adv-x="557" 
d="M192 27.5q-74 45.5 -113 128t-39 192.5t40 191.5t115 126t177 44.5q96 0 158 -31q-1 -65 -17 -110q-26 13 -60.5 20.5t-70.5 7.5q-65 0 -111 -28.5t-70.5 -84.5t-24.5 -137q0 -80 25.5 -136.5t72 -85.5t107.5 -29q43 0 80 8.5t66 23.5q-8 -75 -20 -123q-71 -23 -137 -23
q-104 0 -178 45.5zM334 881q13 3 36.5 5t43.5 2q24 0 47.5 -3t37.5 -7q-34 -52 -88.5 -84.5t-116.5 -32.5h-21z" />
    <glyph glyph-name="Ccaron" unicode="&#x10c;" horiz-adv-x="557" 
d="M192 27.5q-74 45.5 -113 128t-39 192.5t40 191.5t115 126t177 44.5q96 0 158 -31q-1 -65 -17 -110q-26 13 -60.5 20.5t-70.5 7.5q-65 0 -111 -28.5t-70.5 -84.5t-24.5 -137q0 -80 25.5 -136.5t72 -85.5t107.5 -29q43 0 80 8.5t66 23.5q-8 -75 -20 -123q-71 -23 -137 -23
q-104 0 -178 45.5zM430 768q-35 -9 -79 -9q-42 0 -78 9l-93 127h63q62 -19 108 -68q28 28 55 43.5t56 24.5h61z" />
    <glyph glyph-name="Ccedilla" unicode="&#xc7;" horiz-adv-x="557" 
d="M201.5 210.5q25.5 -56.5 72 -85.5t107.5 -29q43 0 80 8.5t66 23.5q-8 -75 -20 -123q-60 -20 -125 -23l-8 -26q76 -22 76 -84q0 -43 -30 -67.5t-86 -24.5q-41 0 -70 11q2 36 11 64q27 -9 50 -9q42 0 42 29q0 17 -19.5 25t-61.5 9l24 77q-85 13 -146 61t-92.5 125
t-31.5 176q0 110 40 191.5t115 126t177 44.5q96 0 158 -31q-1 -65 -17 -110q-26 13 -60.5 20.5t-70.5 7.5q-65 0 -111 -28.5t-70.5 -84.5t-24.5 -137q0 -80 25.5 -136.5z" />
    <glyph glyph-name="Ccircumflex" unicode="&#x108;" horiz-adv-x="557" 
d="M192 27.5q-74 45.5 -113 128t-39 192.5t40 191.5t115 126t177 44.5q96 0 158 -31q-1 -65 -17 -110q-26 13 -60.5 20.5t-70.5 7.5q-65 0 -111 -28.5t-70.5 -84.5t-24.5 -137q0 -80 25.5 -136.5t72 -85.5t107.5 -29q43 0 80 8.5t66 23.5q-8 -75 -20 -123q-71 -23 -137 -23
q-104 0 -178 45.5zM273 888q35 9 79 9q42 0 78 -9l93 -127h-63q-62 19 -108 68q-29 -28 -56 -43.5t-55 -24.5h-61z" />
    <glyph glyph-name="Cdotaccent" unicode="&#x10a;" horiz-adv-x="557" 
d="M192 27.5q-74 45.5 -113 128t-39 192.5t40 191.5t115 126t177 44.5q96 0 158 -31q-1 -65 -17 -110q-26 13 -60.5 20.5t-70.5 7.5q-65 0 -111 -28.5t-70.5 -84.5t-24.5 -137q0 -80 25.5 -136.5t72 -85.5t107.5 -29q43 0 80 8.5t66 23.5q-8 -75 -20 -123q-71 -23 -137 -23
q-104 0 -178 45.5zM299 773.5q-20 20.5 -20 52.5t20 52t53 20q31 0 51.5 -20t20.5 -52q0 -33 -20.5 -53t-51.5 -20q-33 0 -53 20.5z" />
    <glyph glyph-name="D" unicode="D" horiz-adv-x="673" 
d="M548 614q85 -96 85 -261q0 -112 -39 -191t-116 -120.5t-191 -41.5h-206v691q87 19 202 19q180 0 265 -96zM447 171.5q50 59.5 50 181.5q0 121 -51.5 183t-161.5 62q-40 0 -73 -4v-482h79q107 0 157 59.5z" />
    <glyph glyph-name="Eth" unicode="&#xd0;" horiz-adv-x="686" 
d="M560.5 614q84.5 -96 84.5 -261q0 -112 -38.5 -191t-115.5 -120.5t-191 -41.5h-206v298h-83q4 57 15 97h68v296q86 19 202 19q180 0 264.5 -96zM459.5 171.5q49.5 59.5 49.5 181.5q0 121 -51.5 183t-160.5 62q-40 0 -73 -4v-199h145q-4 -58 -14 -97h-131v-186h79
q107 0 156.5 59.5z" />
    <glyph glyph-name="Dcaron" unicode="&#x10e;" horiz-adv-x="673" 
d="M548 614q85 -96 85 -261q0 -112 -39 -191t-116 -120.5t-191 -41.5h-206v691q87 19 202 19q180 0 265 -96zM447 171.5q50 59.5 50 181.5q0 121 -51.5 183t-161.5 62q-40 0 -73 -4v-482h79q107 0 157 59.5zM384 768q-35 -9 -79 -9q-42 0 -78 9l-93 127h63q62 -19 108 -68
q28 28 55 43.5t56 24.5h61z" />
    <glyph glyph-name="Dcroat" unicode="&#x110;" horiz-adv-x="686" 
d="M560.5 614q84.5 -96 84.5 -261q0 -112 -38.5 -191t-115.5 -120.5t-191 -41.5h-206v298h-83q4 57 15 97h68v296q86 19 202 19q180 0 264.5 -96zM459.5 171.5q49.5 59.5 49.5 181.5q0 121 -51.5 183t-160.5 62q-40 0 -73 -4v-199h145q-4 -58 -14 -97h-131v-186h79
q107 0 156.5 59.5z" />
    <glyph glyph-name="E" unicode="E" horiz-adv-x="539" 
d="M211 111h291q-1 -27 -4 -59t-7 -52h-410v692h423q-1 -27 -4 -59t-7 -52h-282v-176h261q0 -24 -3 -56t-8 -55h-250v-183z" />
    <glyph glyph-name="Eacute" unicode="&#xc9;" horiz-adv-x="539" 
d="M211 111h291q-1 -27 -4 -59t-7 -52h-410v692h423q-1 -27 -4 -59t-7 -52h-282v-176h261q0 -24 -3 -56t-8 -55h-250v-183zM282 881q13 3 36.5 5t43.5 2q24 0 47.5 -3t37.5 -7q-34 -52 -88.5 -84.5t-116.5 -32.5h-21z" />
    <glyph glyph-name="Ebreve" unicode="&#x114;" horiz-adv-x="539" 
d="M211 111h291q-1 -27 -4 -59t-7 -52h-410v692h423q-1 -27 -4 -59t-7 -52h-282v-176h261q0 -24 -3 -56t-8 -55h-250v-183zM185.5 794q-39.5 36 -48.5 91q21 2 45.5 4t45.5 2q8 -26 25.5 -39.5t47.5 -13.5q58 0 73 53q20 0 44.5 -2t45.5 -4q-8 -56 -47 -91.5t-116 -35.5
q-76 0 -115.5 36z" />
    <glyph glyph-name="Ecaron" unicode="&#x11a;" horiz-adv-x="539" 
d="M211 111h291q-1 -27 -4 -59t-7 -52h-410v692h423q-1 -27 -4 -59t-7 -52h-282v-176h261q0 -24 -3 -56t-8 -55h-250v-183zM379 768q-35 -9 -79 -9q-42 0 -78 9l-93 127h63q62 -19 108 -68q28 28 55 43.5t56 24.5h61z" />
    <glyph glyph-name="Ecircumflex" unicode="&#xca;" horiz-adv-x="539" 
d="M211 111h291q-1 -27 -4 -59t-7 -52h-410v692h423q-1 -27 -4 -59t-7 -52h-282v-176h261q0 -24 -3 -56t-8 -55h-250v-183zM222 888q35 9 79 9q42 0 78 -9l93 -127h-63q-62 19 -108 68q-29 -28 -56 -43.5t-55 -24.5h-61z" />
    <glyph glyph-name="Edieresis" unicode="&#xcb;" horiz-adv-x="539" 
d="M211 111h291q-1 -27 -4 -59t-7 -52h-410v692h423q-1 -27 -4 -59t-7 -52h-282v-176h261q0 -24 -3 -56t-8 -55h-250v-183zM146.5 777q-19.5 20 -19.5 51t20 50.5t50 19.5t50 -19.5t20 -50.5t-20 -51t-50 -20q-31 0 -50.5 20zM353 777q-20 20 -20 51q0 30 20 50t51 20
q29 0 48.5 -20t19.5 -50q0 -31 -19.5 -51t-48.5 -20q-31 0 -51 20z" />
    <glyph glyph-name="Edotaccent" unicode="&#x116;" horiz-adv-x="539" 
d="M211 111h291q-1 -27 -4 -59t-7 -52h-410v692h423q-1 -27 -4 -59t-7 -52h-282v-176h261q0 -24 -3 -56t-8 -55h-250v-183zM248 773.5q-20 20.5 -20 52.5t20 52t53 20q31 0 51.5 -20t20.5 -52q0 -33 -20.5 -53t-51.5 -20q-33 0 -53 20.5z" />
    <glyph glyph-name="Egrave" unicode="&#xc8;" horiz-adv-x="539" 
d="M211 111h291q-1 -27 -4 -59t-7 -52h-410v692h423q-1 -27 -4 -59t-7 -52h-282v-176h261q0 -24 -3 -56t-8 -55h-250v-183zM385 761q-62 0 -116.5 32.5t-88.5 84.5q14 4 38 7t48 3q20 0 43 -2t36 -5l61 -120h-21z" />
    <glyph glyph-name="Emacron" unicode="&#x112;" horiz-adv-x="539" 
d="M211 111h291q-1 -27 -4 -59t-7 -52h-410v692h423q-1 -27 -4 -59t-7 -52h-282v-176h261q0 -24 -3 -56t-8 -55h-250v-183zM156.5 825q2.5 21 8.5 46h282q-3 -49 -12 -92h-282q1 25 3.5 46z" />
    <glyph glyph-name="Eogonek" unicode="&#x118;" horiz-adv-x="539" 
d="M211 111h291q-1 -27 -4 -59t-7 -52h-46q-29 -16 -43 -41.5t-14 -48.5q0 -48 49 -48q11 0 22.5 3.5t20.5 6.5q-2 -31 -10 -84q-22 -9 -59 -9q-57 0 -90.5 28t-33.5 81q0 66 65 112h-271v692h423q-1 -27 -4 -59t-7 -52h-282v-176h261q0 -24 -3 -56t-8 -55h-250v-183z" />
    <glyph glyph-name="F" unicode="F" horiz-adv-x="512" 
d="M211 581v-179h250q0 -24 -3 -56.5t-8 -55.5h-239v-290h-130v692h405q0 -25 -3 -56.5t-8 -54.5h-264z" />
    <glyph glyph-name="G" unicode="G" horiz-adv-x="651" 
d="M587 366v-346q-41 -17 -96.5 -26.5t-110.5 -9.5q-107 0 -183.5 44.5t-116.5 126t-40 192.5q0 112 40.5 193.5t121 125.5t198.5 44q104 0 183 -28q-5 -54 -20 -113q-41 14 -79.5 21t-82.5 7q-109 0 -167 -65.5t-58 -183.5q0 -120 55 -185.5t158 -65.5q34 0 67 6v263h131z
" />
    <glyph glyph-name="Gbreve" unicode="&#x11e;" horiz-adv-x="651" 
d="M587 366v-346q-41 -17 -96.5 -26.5t-110.5 -9.5q-107 0 -183.5 44.5t-116.5 126t-40 192.5q0 112 40.5 193.5t121 125.5t198.5 44q104 0 183 -28q-5 -54 -20 -113q-41 14 -79.5 21t-82.5 7q-109 0 -167 -65.5t-58 -183.5q0 -120 55 -185.5t158 -65.5q34 0 67 6v263h131z
M262.5 794q-39.5 36 -48.5 91q21 2 45.5 4t45.5 2q8 -26 25.5 -39.5t47.5 -13.5q58 0 73 53q20 0 44.5 -2t45.5 -4q-8 -56 -47 -91.5t-116 -35.5q-76 0 -115.5 36z" />
    <glyph glyph-name="Gcircumflex" unicode="&#x11c;" horiz-adv-x="651" 
d="M587 366v-346q-41 -17 -96.5 -26.5t-110.5 -9.5q-107 0 -183.5 44.5t-116.5 126t-40 192.5q0 112 40.5 193.5t121 125.5t198.5 44q104 0 183 -28q-5 -54 -20 -113q-41 14 -79.5 21t-82.5 7q-109 0 -167 -65.5t-58 -183.5q0 -120 55 -185.5t158 -65.5q34 0 67 6v263h131z
M299 888q35 9 79 9q42 0 78 -9l93 -127h-63q-62 19 -108 68q-29 -28 -56 -43.5t-55 -24.5h-61z" />
    <glyph glyph-name="uni0122" unicode="&#x122;" horiz-adv-x="651" 
d="M587 366v-346q-41 -17 -96.5 -26.5t-110.5 -9.5q-107 0 -183.5 44.5t-116.5 126t-40 192.5q0 112 40.5 193.5t121 125.5t198.5 44q104 0 183 -28q-5 -54 -20 -113q-41 14 -79.5 21t-82.5 7q-109 0 -167 -65.5t-58 -183.5q0 -120 55 -185.5t158 -65.5q34 0 67 6v263h131z
M316.5 -165q2.5 38 2.5 87q34 10 60.5 14t59.5 4q-4 -61 -31 -109t-72 -78h-27q5 44 7.5 82z" />
    <glyph glyph-name="Gdotaccent" unicode="&#x120;" horiz-adv-x="651" 
d="M587 366v-346q-41 -17 -96.5 -26.5t-110.5 -9.5q-107 0 -183.5 44.5t-116.5 126t-40 192.5q0 112 40.5 193.5t121 125.5t198.5 44q104 0 183 -28q-5 -54 -20 -113q-41 14 -79.5 21t-82.5 7q-109 0 -167 -65.5t-58 -183.5q0 -120 55 -185.5t158 -65.5q34 0 67 6v263h131z
M325 773.5q-20 20.5 -20 52.5t20 52t53 20q31 0 51.5 -20t20.5 -52q0 -33 -20.5 -53t-51.5 -20q-33 0 -53 20.5z" />
    <glyph glyph-name="H" unicode="H" horiz-adv-x="690" 
d="M540.5 696q36.5 5 68.5 5v-701h-130v296h-268v-296h-130v684q25 7 61.5 12t68.5 5v-291h268v274q25 7 61.5 12z" />
    <glyph glyph-name="Hbar" unicode="&#x126;" horiz-adv-x="710" 
d="M695 546.5q-3 -25.5 -7 -44.5h-69v-502h-130v296h-268v-296h-130v502h-80q0 22 3 46.5t8 44.5h69v91q25 7 61.5 12t68.5 5v-108h268v91q25 7 61.5 12t68.5 5v-108h80q-1 -21 -4 -46.5zM489 502h-268v-92h268v92z" />
    <glyph glyph-name="Hcircumflex" unicode="&#x124;" horiz-adv-x="690" 
d="M540.5 696q36.5 5 68.5 5v-701h-130v296h-268v-296h-130v684q25 7 61.5 12t68.5 5v-291h268v274q25 7 61.5 12zM267 888q35 9 79 9q42 0 78 -9l93 -127h-63q-62 19 -108 68q-29 -28 -56 -43.5t-55 -24.5h-61z" />
    <glyph glyph-name="I" unicode="I" horiz-adv-x="292" 
d="M81 684q25 7 61.5 12t68.5 5v-701h-130v684z" />
    <glyph glyph-name="IJ" unicode="&#x132;" horiz-adv-x="646" 
d="M81 684q25 7 61.5 12t68.5 5v-701h-130v684zM298 2q1 39 9 109q25 -7 55 -7q47 0 67.5 25.5t20.5 79.5v475q25 7 62 12t69 5v-496q0 -104 -50 -158t-152 -54q-49 0 -81 9z" />
    <glyph glyph-name="Iacute" unicode="&#xcd;" horiz-adv-x="292" 
d="M81 684q25 7 61.5 12t68.5 5v-701h-130v684zM128 881q13 3 36.5 5t43.5 2q24 0 47.5 -3t37.5 -7q-34 -52 -88.5 -84.5t-116.5 -32.5h-21z" />
    <glyph glyph-name="Ibreve" unicode="&#x12c;" horiz-adv-x="292" 
d="M81 684q25 7 61.5 12t68.5 5v-701h-130v684zM42 794q-35 35 -42 84q15 3 40 4.5t45 1.5q12 -44 61 -44q26 0 40 11.5t20 32.5q19 0 41.5 -2t42.5 -4q-7 -48 -41.5 -83.5t-102.5 -35.5q-69 0 -104 35z" />
    <glyph glyph-name="Icircumflex" unicode="&#xce;" horiz-adv-x="292" 
d="M81 684q25 7 61.5 12t68.5 5v-701h-130v684zM79 881q30 9 67 9q17 0 35 -2.5t32 -6.5l84 -119h-51q-30 8 -53.5 21t-46.5 42q-23 -29 -46.5 -42t-51.5 -21h-53z" />
    <glyph glyph-name="Idieresis" unicode="&#xcf;" horiz-adv-x="292" 
d="M81 684q25 7 61.5 12t68.5 5v-701h-130v684zM7.5 776.5q-19.5 20.5 -19.5 50.5t19.5 50t49.5 20t49.5 -20t19.5 -50t-19.5 -50.5t-49.5 -20.5t-49.5 20.5zM185.5 776.5q-19.5 20.5 -19.5 50.5t19.5 50t49.5 20t49.5 -20t19.5 -50t-19.5 -50.5t-49.5 -20.5t-49.5 20.5z
" />
    <glyph glyph-name="Idotaccent" unicode="&#x130;" horiz-adv-x="292" 
d="M81 684q25 7 61.5 12t68.5 5v-701h-130v684zM94 773.5q-20 20.5 -20 52.5t20 52t53 20q31 0 51.5 -20t20.5 -52q0 -33 -20.5 -53t-51.5 -20q-33 0 -53 20.5z" />
    <glyph glyph-name="Igrave" unicode="&#xcc;" horiz-adv-x="292" 
d="M81 684q25 7 61.5 12t68.5 5v-701h-130v684zM230 761q-62 0 -116.5 32.5t-88.5 84.5q14 4 38 7t48 3q20 0 43 -2t36 -5l61 -120h-21z" />
    <glyph glyph-name="Imacron" unicode="&#x12a;" horiz-adv-x="292" 
d="M81 684q25 7 61.5 12t68.5 5v-701h-130v684zM27 870h253q-1 -26 -3.5 -46.5t-8.5 -45.5h-253q1 47 12 92z" />
    <glyph glyph-name="Iogonek" unicode="&#x12e;" horiz-adv-x="292" 
d="M212 -133q10 3 16 7q-1 -39 -9 -85q-7 -4 -21 -6.5t-31 -2.5q-51 0 -83 28t-32 80q0 35 15 61t44 51h-30v684q25 7 61.5 12t68.5 5v-701h-9q-53 -45 -53 -92q0 -22 11 -33t31 -11q11 0 21 3z" />
    <glyph glyph-name="Itilde" unicode="&#x128;" horiz-adv-x="292" 
d="M81 684q25 7 61.5 12t68.5 5v-701h-130v684zM176.5 769.5q-18.5 9.5 -42.5 27.5q-9 7 -17.5 12t-13.5 5q-9 0 -12 -5.5t-3 -20.5v-27h-78v56q0 44 16 65.5t50 21.5q24 0 44.5 -10.5t42.5 -27.5q20 -16 27 -16q9 0 13 5.5t4 18.5v29h79v-49q0 -48 -17 -71t-53 -23
q-21 0 -39.5 9.5z" />
    <glyph glyph-name="J" unicode="J" horiz-adv-x="354" 
d="M6 2q1 39 9 109q25 -7 55 -7q47 0 67.5 25.5t20.5 79.5v475q25 7 62 12t69 5v-496q0 -104 -50 -158t-152 -54q-49 0 -81 9z" />
    <glyph glyph-name="Jcircumflex" unicode="&#x134;" horiz-adv-x="354" 
d="M6 2q1 39 9 109q25 -7 55 -7q47 0 67.5 25.5t20.5 79.5v475q25 7 62 12t69 5v-496q0 -104 -50 -158t-152 -54q-49 0 -81 9zM158 881q30 9 67 9q17 0 35 -2.5t32 -6.5l84 -119h-51q-30 8 -53.5 21t-46.5 42q-23 -29 -46.5 -42t-51.5 -21h-53z" />
    <glyph glyph-name="K" unicode="K" horiz-adv-x="596" 
d="M441 0l-230 336v-336h-130v684q25 7 61.5 12t68.5 5v-343l224 334h146l-236 -342l252 -350h-156z" />
    <glyph glyph-name="uni0136" unicode="&#x136;" horiz-adv-x="596" 
d="M441 0l-230 336v-336h-130v684q25 7 61.5 12t68.5 5v-343l224 334h146l-236 -342l252 -350h-156zM261.5 -165q2.5 38 2.5 87q34 10 60.5 14t59.5 4q-4 -61 -31 -109t-72 -78h-27q5 44 7.5 82z" />
    <glyph glyph-name="L" unicode="L" horiz-adv-x="462" 
d="M81 684q25 7 61.5 12t68.5 5v-588h245q-1 -24 -4 -55.5t-7 -57.5h-364v684z" />
    <glyph glyph-name="Lacute" unicode="&#x139;" horiz-adv-x="462" 
d="M81 684q25 7 61.5 12t68.5 5v-588h245q-1 -24 -4 -55.5t-7 -57.5h-364v684zM144 881q13 3 36.5 5t43.5 2q24 0 47.5 -3t37.5 -7q-34 -52 -88.5 -84.5t-116.5 -32.5h-21z" />
    <glyph glyph-name="Lcaron" unicode="&#x13d;" horiz-adv-x="462" 
d="M81 684q25 7 61.5 12t68.5 5v-588h245q-1 -24 -4 -55.5t-7 -57.5h-364v684zM308.5 605q2.5 38 2.5 87q34 10 60.5 14t59.5 4q-4 -61 -31 -109t-72 -78h-27q5 44 7.5 82z" />
    <glyph glyph-name="uni013B" unicode="&#x13b;" horiz-adv-x="462" 
d="M81 684q25 7 61.5 12t68.5 5v-588h245q-1 -24 -4 -55.5t-7 -57.5h-364v684zM208.5 -165q2.5 38 2.5 87q34 10 60.5 14t59.5 4q-4 -61 -31 -109t-72 -78h-27q5 44 7.5 82z" />
    <glyph glyph-name="Ldot" unicode="&#x13f;" horiz-adv-x="462" 
d="M81 684q25 7 61.5 12t68.5 5v-588h245q-1 -24 -4 -55.5t-7 -57.5h-364v684zM340 350.5q-18 10.5 -28.5 28.5t-10.5 40t10.5 40t28.5 29t41 11t41 -10.5t28.5 -29t10.5 -40.5t-10 -40t-28.5 -28.5t-41.5 -10.5t-41 10.5z" />
    <glyph glyph-name="Lslash" unicode="&#x141;" horiz-adv-x="467" 
d="M461 113q-1 -24 -4 -55.5t-7 -57.5h-364v260l-78 -40q0 25 2 57t6 52l70 36v319q25 7 61.5 12t68.5 5v-269l147 76q0 -27 -2.5 -59t-7.5 -51l-137 -71v-214h245z" />
    <glyph glyph-name="M" unicode="M" horiz-adv-x="878" 
d="M817 0h-124l-18 274q-8 149 -9 232q-39 -125 -93 -276l-84 -230h-104l-84 233q-41 111 -91 267q-1 -106 -10 -239l-16 -261h-124l50 684q31 8 73.5 12.5t79.5 4.5l178 -530l168 513q32 9 74.5 13t83.5 4z" />
    <glyph glyph-name="N" unicode="N" horiz-adv-x="685" 
d="M605 701v-701h-114l-230 381q-37 62 -59 112q3 -112 3 -241v-252h-124v684q28 8 60 12.5t62 4.5l218 -354q29 -47 65 -124q-5 101 -5 258v203q58 17 124 17z" />
    <glyph glyph-name="Nacute" unicode="&#x143;" horiz-adv-x="685" 
d="M605 701v-701h-114l-230 381q-37 62 -59 112q3 -112 3 -241v-252h-124v684q28 8 60 12.5t62 4.5l218 -354q29 -47 65 -124q-5 101 -5 258v203q58 17 124 17zM325 881q13 3 36.5 5t43.5 2q24 0 47.5 -3t37.5 -7q-34 -52 -88.5 -84.5t-116.5 -32.5h-21z" />
    <glyph glyph-name="Ncaron" unicode="&#x147;" horiz-adv-x="685" 
d="M605 701v-701h-114l-230 381q-37 62 -59 112q3 -112 3 -241v-252h-124v684q28 8 60 12.5t62 4.5l218 -354q29 -47 65 -124q-5 101 -5 258v203q58 17 124 17zM421 768q-35 -9 -79 -9q-42 0 -78 9l-93 127h63q62 -19 108 -68q28 28 55 43.5t56 24.5h61z" />
    <glyph glyph-name="uni0145" unicode="&#x145;" horiz-adv-x="685" 
d="M605 701v-701h-114l-230 381q-37 62 -59 112q3 -112 3 -241v-252h-124v684q28 8 60 12.5t62 4.5l218 -354q29 -47 65 -124q-5 101 -5 258v203q58 17 124 17zM284.5 -165q2.5 38 2.5 87q34 10 60.5 14t59.5 4q-4 -61 -31 -109t-72 -78h-27q5 44 7.5 82z" />
    <glyph glyph-name="Eng" unicode="&#x14a;" horiz-adv-x="685" 
d="M605 701v-701q0 -110 -51 -167t-155 -57q-46 0 -79 9q2 61 9 113q24 -7 58 -7q33 0 52.5 13t28 40.5t8.5 71.5v9l-215 356q-37 62 -59 112q3 -112 3 -241v-252h-124v684q28 8 60 12.5t62 4.5l218 -354q29 -47 65 -124q-5 101 -5 258v203q58 17 124 17z" />
    <glyph glyph-name="Ntilde" unicode="&#xd1;" horiz-adv-x="685" 
d="M605 701v-701h-114l-230 381q-37 62 -59 112q3 -112 3 -241v-252h-124v684q28 8 60 12.5t62 4.5l218 -354q29 -47 65 -124q-5 101 -5 258v203q58 17 124 17zM381 755q-24 10 -56 28q-5 3 -14 7.5t-17.5 8t-12.5 3.5q-9 0 -12.5 -6t-3.5 -20v-30h-85v53q0 46 20.5 68
t55.5 22q24 0 49 -10.5t61 -28.5q5 -3 13 -7t15 -7t11 -3q8 0 12 5.5t4 18.5v31h85v-55q0 -88 -80 -88q-21 0 -45 10z" />
    <glyph glyph-name="O" unicode="O" horiz-adv-x="710" 
d="M185 26q-71 44 -108 126t-37 194q0 113 37.5 194.5t108 125.5t168.5 44q101 0 172 -44.5t107.5 -126.5t36.5 -193q0 -114 -37 -196t-108 -125t-169 -43q-100 0 -171 44zM490 159q45 63 45 187q0 122 -46.5 186.5t-134.5 64.5t-133 -64t-45 -187q0 -122 46 -186t134 -64
q89 0 134 63z" />
    <glyph glyph-name="Oacute" unicode="&#xd3;" horiz-adv-x="710" 
d="M185 26q-71 44 -108 126t-37 194q0 113 37.5 194.5t108 125.5t168.5 44q101 0 172 -44.5t107.5 -126.5t36.5 -193q0 -114 -37 -196t-108 -125t-169 -43q-100 0 -171 44zM490 159q45 63 45 187q0 122 -46.5 186.5t-134.5 64.5t-133 -64t-45 -187q0 -122 46 -186t134 -64
q89 0 134 63zM336 881q13 3 36.5 5t43.5 2q24 0 47.5 -3t37.5 -7q-34 -52 -88.5 -84.5t-116.5 -32.5h-21z" />
    <glyph glyph-name="Obreve" unicode="&#x14e;" horiz-adv-x="710" 
d="M185 26q-71 44 -108 126t-37 194q0 113 37.5 194.5t108 125.5t168.5 44q101 0 172 -44.5t107.5 -126.5t36.5 -193q0 -114 -37 -196t-108 -125t-169 -43q-100 0 -171 44zM490 159q45 63 45 187q0 122 -46.5 186.5t-134.5 64.5t-133 -64t-45 -187q0 -122 46 -186t134 -64
q89 0 134 63zM239.5 794q-39.5 36 -48.5 91q21 2 45.5 4t45.5 2q8 -26 25.5 -39.5t47.5 -13.5q58 0 73 53q20 0 44.5 -2t45.5 -4q-8 -56 -47 -91.5t-116 -35.5q-76 0 -115.5 36z" />
    <glyph glyph-name="Ocircumflex" unicode="&#xd4;" horiz-adv-x="710" 
d="M185 26q-71 44 -108 126t-37 194q0 113 37.5 194.5t108 125.5t168.5 44q101 0 172 -44.5t107.5 -126.5t36.5 -193q0 -114 -37 -196t-108 -125t-169 -43q-100 0 -171 44zM490 159q45 63 45 187q0 122 -46.5 186.5t-134.5 64.5t-133 -64t-45 -187q0 -122 46 -186t134 -64
q89 0 134 63zM275 888q35 9 79 9q42 0 78 -9l93 -127h-63q-62 19 -108 68q-29 -28 -56 -43.5t-55 -24.5h-61z" />
    <glyph glyph-name="Odieresis" unicode="&#xd6;" horiz-adv-x="710" 
d="M185 26q-71 44 -108 126t-37 194q0 113 37.5 194.5t108 125.5t168.5 44q101 0 172 -44.5t107.5 -126.5t36.5 -193q0 -114 -37 -196t-108 -125t-169 -43q-100 0 -171 44zM490 159q45 63 45 187q0 122 -46.5 186.5t-134.5 64.5t-133 -64t-45 -187q0 -122 46 -186t134 -64
q89 0 134 63zM200.5 777q-19.5 20 -19.5 51t20 50.5t50 19.5t50 -19.5t20 -50.5t-20 -51t-50 -20q-31 0 -50.5 20zM407 777q-20 20 -20 51q0 30 20 50t51 20q29 0 48.5 -20t19.5 -50q0 -31 -19.5 -51t-48.5 -20q-31 0 -51 20z" />
    <glyph glyph-name="Ograve" unicode="&#xd2;" horiz-adv-x="710" 
d="M185 26q-71 44 -108 126t-37 194q0 113 37.5 194.5t108 125.5t168.5 44q101 0 172 -44.5t107.5 -126.5t36.5 -193q0 -114 -37 -196t-108 -125t-169 -43q-100 0 -171 44zM490 159q45 63 45 187q0 122 -46.5 186.5t-134.5 64.5t-133 -64t-45 -187q0 -122 46 -186t134 -64
q89 0 134 63zM438 761q-62 0 -116.5 32.5t-88.5 84.5q14 4 38 7t48 3q20 0 43 -2t36 -5l61 -120h-21z" />
    <glyph glyph-name="Ohungarumlaut" unicode="&#x150;" horiz-adv-x="710" 
d="M185 26q-71 44 -108 126t-37 194q0 113 37.5 194.5t108 125.5t168.5 44q101 0 172 -44.5t107.5 -126.5t36.5 -193q0 -114 -37 -196t-108 -125t-169 -43q-100 0 -171 44zM490 159q45 63 45 187q0 122 -46.5 186.5t-134.5 64.5t-133 -64t-45 -187q0 -122 46 -186t134 -64
q89 0 134 63zM254 882q31 6 78 6q38 0 61 -3q-11 -33 -40.5 -62t-69.5 -46t-81 -17h-13zM429 882q30 6 77 6q40 0 62 -3q-11 -33 -41 -62t-70 -46t-80 -17h-13z" />
    <glyph glyph-name="Omacron" unicode="&#x14c;" horiz-adv-x="710" 
d="M185 26q-71 44 -108 126t-37 194q0 113 37.5 194.5t108 125.5t168.5 44q101 0 172 -44.5t107.5 -126.5t36.5 -193q0 -114 -37 -196t-108 -125t-169 -43q-100 0 -171 44zM490 159q45 63 45 187q0 122 -46.5 186.5t-134.5 64.5t-133 -64t-45 -187q0 -122 46 -186t134 -64
q89 0 134 63zM209.5 825q2.5 21 8.5 46h282q-3 -49 -12 -92h-282q1 25 3.5 46z" />
    <glyph glyph-name="Oslash" unicode="&#xd8;" horiz-adv-x="710" 
d="M654.5 478.5q15.5 -60.5 15.5 -132.5q0 -114 -37 -196t-108 -125t-169 -43q-111 0 -189 56l-80 -100q-33 36 -47 83l65 81q-32 46 -48.5 108t-16.5 136q0 113 37.5 194.5t108 125.5t168.5 44q115 0 193 -59l77 95q15 -20 26 -43t16 -46l-58 -72q31 -46 46.5 -106.5z
M195 213l275 342q-44 42 -116 42q-88 0 -133 -64t-45 -187q0 -79 19 -133zM490 159q45 63 45 187q0 73 -17 127l-273 -339q44 -38 111 -38q89 0 134 63z" />
    <glyph glyph-name="Oslashacute" unicode="&#x1fe;" horiz-adv-x="710" 
d="M654.5 478.5q15.5 -60.5 15.5 -132.5q0 -114 -37 -196t-108 -125t-169 -43q-111 0 -189 56l-80 -100q-33 36 -47 83l65 81q-32 46 -48.5 108t-16.5 136q0 113 37.5 194.5t108 125.5t168.5 44q115 0 193 -59l77 95q15 -20 26 -43t16 -46l-58 -72q31 -46 46.5 -106.5z
M195 213l275 342q-44 42 -116 42q-88 0 -133 -64t-45 -187q0 -79 19 -133zM490 159q45 63 45 187q0 73 -17 127l-273 -339q44 -38 111 -38q89 0 134 63zM337 881q13 3 36.5 5t43.5 2q24 0 47.5 -3t37.5 -7q-34 -52 -88.5 -84.5t-116.5 -32.5h-21z" />
    <glyph glyph-name="Otilde" unicode="&#xd5;" horiz-adv-x="710" 
d="M185 26q-71 44 -108 126t-37 194q0 113 37.5 194.5t108 125.5t168.5 44q101 0 172 -44.5t107.5 -126.5t36.5 -193q0 -114 -37 -196t-108 -125t-169 -43q-100 0 -171 44zM490 159q45 63 45 187q0 122 -46.5 186.5t-134.5 64.5t-133 -64t-45 -187q0 -122 46 -186t134 -64
q89 0 134 63zM392 755q-24 10 -56 28q-5 3 -14 7.5t-17.5 8t-12.5 3.5q-9 0 -12.5 -6t-3.5 -20v-30h-85v53q0 46 20.5 68t55.5 22q24 0 49 -10.5t61 -28.5q5 -3 13 -7t15 -7t11 -3q8 0 12 5.5t4 18.5v31h85v-55q0 -88 -80 -88q-21 0 -45 10z" />
    <glyph glyph-name="OE" unicode="&#x152;" horiz-adv-x="903" 
d="M575 111h291q0 -24 -3 -56.5t-8 -54.5h-347v-1h-150q-157 0 -237.5 89t-80.5 258q0 170 81 258t236 88h511q-1 -27 -4 -59t-7 -52h-282v-176h261q0 -24 -3 -56t-8 -55h-250v-183zM218 169q46 -56 140 -56h87v467h-88q-94 0 -139.5 -56.5t-45.5 -177.5t46 -177z" />
    <glyph glyph-name="P" unicode="P" horiz-adv-x="585" 
d="M492.5 644.5q66.5 -64.5 66.5 -169.5q0 -74 -31.5 -129t-93 -85.5t-148.5 -30.5h-75v-230h-130v692q41 7 95 12t99 5q151 0 217.5 -64.5zM389.5 371.5q35.5 35.5 35.5 98.5q0 132 -147 132q-34 0 -67 -4v-262h74q69 0 104.5 35.5z" />
    <glyph glyph-name="Thorn" unicode="&#xde;" horiz-adv-x="585" 
d="M492.5 530q66.5 -65 66.5 -170q0 -74 -31.5 -129t-93 -85.5t-148.5 -30.5h-75v-115h-130v684q25 7 61.5 12t68.5 5v-109q33 3 64 3q151 0 217.5 -65zM390 258q35 35 35 97q0 64 -35 98.5t-115 34.5q-32 0 -64 -4v-263l74 1q70 1 105 36z" />
    <glyph glyph-name="Q" unicode="Q" horiz-adv-x="710" 
d="M596 -118l-107 125q-57 -25 -133 -25q-100 0 -171 44t-108 126t-37 194q0 113 37.5 194.5t108 125.5t168.5 44q101 0 172 -44.5t107.5 -126.5t36.5 -193q0 -88 -22 -156.5t-64 -115.5l107 -120q-53 -46 -95 -72zM222 160q46 -64 134 -64q89 0 134 63t45 187
q0 122 -46.5 186.5t-134.5 64.5t-133 -64t-45 -187q0 -122 46 -186z" />
    <glyph glyph-name="R" unicode="R" horiz-adv-x="580" 
d="M287 256h-76v-256h-130v689q83 20 191 20q95 0 156.5 -31t89 -81t27.5 -109q0 -75 -36.5 -127.5t-101.5 -78.5l162 -282h-148zM275 361q135 0 135 119q0 59 -34 90.5t-103 31.5q-31 0 -62 -3v-238h64z" />
    <glyph glyph-name="Racute" unicode="&#x154;" horiz-adv-x="580" 
d="M287 256h-76v-256h-130v689q83 20 191 20q95 0 156.5 -31t89 -81t27.5 -109q0 -75 -36.5 -127.5t-101.5 -78.5l162 -282h-148zM275 361q135 0 135 119q0 59 -34 90.5t-103 31.5q-31 0 -62 -3v-238h64zM276 881q13 3 36.5 5t43.5 2q24 0 47.5 -3t37.5 -7
q-34 -52 -88.5 -84.5t-116.5 -32.5h-21z" />
    <glyph glyph-name="Rcaron" unicode="&#x158;" horiz-adv-x="580" 
d="M287 256h-76v-256h-130v689q83 20 191 20q95 0 156.5 -31t89 -81t27.5 -109q0 -75 -36.5 -127.5t-101.5 -78.5l162 -282h-148zM275 361q135 0 135 119q0 59 -34 90.5t-103 31.5q-31 0 -62 -3v-238h64zM372 768q-35 -9 -79 -9q-42 0 -78 9l-93 127h63q62 -19 108 -68
q28 28 55 43.5t56 24.5h61z" />
    <glyph glyph-name="uni0156" unicode="&#x156;" horiz-adv-x="580" 
d="M287 256h-76v-256h-130v689q83 20 191 20q95 0 156.5 -31t89 -81t27.5 -109q0 -75 -36.5 -127.5t-101.5 -78.5l162 -282h-148zM275 361q135 0 135 119q0 59 -34 90.5t-103 31.5q-31 0 -62 -3v-238h64zM248.5 -165q2.5 38 2.5 87q34 10 60.5 14t59.5 4q-4 -61 -31 -109
t-72 -78h-27q5 44 7.5 82z" />
    <glyph glyph-name="S" unicode="S" horiz-adv-x="527" 
d="M125.5 -6.5q-51.5 11.5 -85.5 30.5q1 32 4 57t10 52q38 -20 85.5 -31t91.5 -11q61 0 95.5 23t34.5 66q0 27 -12 45t-36 32.5t-68 32.5l-57 24q-72 30 -111 76.5t-39 124.5q0 57 26 100.5t81.5 69t140.5 25.5q101 0 181 -32q-2 -29 -6 -54.5t-10 -51.5q-39 15 -81 22.5
t-78 7.5q-63 0 -92 -23t-29 -61q0 -27 10.5 -45t31.5 -31t58 -27l60 -23q76 -29 119.5 -76.5t43.5 -126.5q0 -60 -30 -107t-89 -73.5t-144 -26.5q-54 0 -105.5 11.5z" />
    <glyph glyph-name="Sacute" unicode="&#x15a;" horiz-adv-x="527" 
d="M125.5 -6.5q-51.5 11.5 -85.5 30.5q1 32 4 57t10 52q38 -20 85.5 -31t91.5 -11q61 0 95.5 23t34.5 66q0 27 -12 45t-36 32.5t-68 32.5l-57 24q-72 30 -111 76.5t-39 124.5q0 57 26 100.5t81.5 69t140.5 25.5q101 0 181 -32q-2 -29 -6 -54.5t-10 -51.5q-39 15 -81 22.5
t-78 7.5q-63 0 -92 -23t-29 -61q0 -27 10.5 -45t31.5 -31t58 -27l60 -23q76 -29 119.5 -76.5t43.5 -126.5q0 -60 -30 -107t-89 -73.5t-144 -26.5q-54 0 -105.5 11.5zM249 881q13 3 36.5 5t43.5 2q24 0 47.5 -3t37.5 -7q-34 -52 -88.5 -84.5t-116.5 -32.5h-21z" />
    <glyph glyph-name="Scaron" unicode="&#x160;" horiz-adv-x="527" 
d="M125.5 -6.5q-51.5 11.5 -85.5 30.5q1 32 4 57t10 52q38 -20 85.5 -31t91.5 -11q61 0 95.5 23t34.5 66q0 27 -12 45t-36 32.5t-68 32.5l-57 24q-72 30 -111 76.5t-39 124.5q0 57 26 100.5t81.5 69t140.5 25.5q101 0 181 -32q-2 -29 -6 -54.5t-10 -51.5q-39 15 -81 22.5
t-78 7.5q-63 0 -92 -23t-29 -61q0 -27 10.5 -45t31.5 -31t58 -27l60 -23q76 -29 119.5 -76.5t43.5 -126.5q0 -60 -30 -107t-89 -73.5t-144 -26.5q-54 0 -105.5 11.5zM345 768q-35 -9 -79 -9q-42 0 -78 9l-93 127h63q62 -19 108 -68q28 28 55 43.5t56 24.5h61z" />
    <glyph glyph-name="Scedilla" unicode="&#x15e;" horiz-adv-x="527" 
d="M471 93.5q-23 -42.5 -69 -70.5t-112 -37l-9 -30q76 -22 76 -84q0 -43 -30 -67.5t-86 -24.5q-41 0 -70 11q2 36 11 64q27 -9 50 -9q42 0 42 29q0 17 -19.5 25t-61.5 9l23 73q-50 1 -97 12.5t-79 29.5q1 32 4 57t10 52q38 -20 85.5 -31t91.5 -11q61 0 95.5 23t34.5 66
q0 27 -12 45t-36 32.5t-68 32.5l-57 24q-72 30 -111 76.5t-39 124.5q0 57 26 100.5t81.5 69t140.5 25.5q101 0 181 -32q-2 -29 -6 -54.5t-10 -51.5q-39 15 -81 22.5t-78 7.5q-63 0 -92 -23t-29 -61q0 -27 10.5 -45t31.5 -31t58 -27l60 -23q76 -29 119.5 -76.5t43.5 -126.5
q0 -53 -23 -95.5z" />
    <glyph glyph-name="Scircumflex" unicode="&#x15c;" horiz-adv-x="527" 
d="M125.5 -6.5q-51.5 11.5 -85.5 30.5q1 32 4 57t10 52q38 -20 85.5 -31t91.5 -11q61 0 95.5 23t34.5 66q0 27 -12 45t-36 32.5t-68 32.5l-57 24q-72 30 -111 76.5t-39 124.5q0 57 26 100.5t81.5 69t140.5 25.5q101 0 181 -32q-2 -29 -6 -54.5t-10 -51.5q-39 15 -81 22.5
t-78 7.5q-63 0 -92 -23t-29 -61q0 -27 10.5 -45t31.5 -31t58 -27l60 -23q76 -29 119.5 -76.5t43.5 -126.5q0 -60 -30 -107t-89 -73.5t-144 -26.5q-54 0 -105.5 11.5zM188 888q35 9 79 9q42 0 78 -9l93 -127h-63q-62 19 -108 68q-29 -28 -56 -43.5t-55 -24.5h-61z" />
    <glyph glyph-name="uni0218" unicode="&#x218;" horiz-adv-x="527" 
d="M125.5 -6.5q-51.5 11.5 -85.5 30.5q1 32 4 57t10 52q38 -20 85.5 -31t91.5 -11q61 0 95.5 23t34.5 66q0 27 -12 45t-36 32.5t-68 32.5l-57 24q-72 30 -111 76.5t-39 124.5q0 57 26 100.5t81.5 69t140.5 25.5q101 0 181 -32q-2 -29 -6 -54.5t-10 -51.5q-39 15 -81 22.5
t-78 7.5q-63 0 -92 -23t-29 -61q0 -27 10.5 -45t31.5 -31t58 -27l60 -23q76 -29 119.5 -76.5t43.5 -126.5q0 -60 -30 -107t-89 -73.5t-144 -26.5q-54 0 -105.5 11.5zM201.5 -165q2.5 38 2.5 87q34 10 60.5 14t59.5 4q-4 -61 -31 -109t-72 -78h-27q5 44 7.5 82z" />
    <glyph glyph-name="uni1E9E" unicode="&#x1e9e;" horiz-adv-x="694" 
d="M578 383.5q37 -27.5 58 -71t21 -99.5q0 -72 -32 -122.5t-89.5 -76.5t-134.5 -26q-52 0 -87 10q2 62 9 107q38 -8 70 -8q61 0 94.5 29.5t33.5 84.5q0 63 -40 89.5t-100 26.5h-38q0 17 1.5 36t3.5 36l131 184h-123q-50 0 -81.5 -13.5t-47 -45t-15.5 -84.5v-440h-131v451
q0 113 64 177t205 64h286q0 -43 -8 -89l-136 -182q49 -10 86 -37.5z" />
    <glyph glyph-name="uni018F" unicode="&#x18f;" horiz-adv-x="655" 
d="M615 341q0 -111 -33 -191.5t-99 -124t-162 -43.5q-149 0 -215 97.5t-66 257.5v51h438q-5 74 -28 119.5t-67.5 67t-117.5 21.5q-54 0 -104.5 -12t-90.5 -32q0 79 12 117q34 17 84.5 29t111.5 12q337 0 337 -369zM432 140.5q38 45.5 46 138.5h-302q5 -93 41.5 -138.5
t106.5 -45.5t108 45.5z" />
    <glyph glyph-name="T" unicode="T" horiz-adv-x="528" 
d="M518 635q-3 -33 -7 -55h-182v-580h-131v580h-192q1 24 4 57t7 55h505q-1 -24 -4 -57z" />
    <glyph glyph-name="Tbar" unicode="&#x166;" horiz-adv-x="528" 
d="M329 580v-194h128q-4 -56 -11 -95h-117v-291h-131v291h-128q0 45 8 95h120v194h-192q1 24 4 57t7 55h505q-1 -24 -4 -57t-7 -55h-182z" />
    <glyph glyph-name="Tcaron" unicode="&#x164;" horiz-adv-x="528" 
d="M518 635q-3 -33 -7 -55h-182v-580h-131v580h-192q1 24 4 57t7 55h505q-1 -24 -4 -57zM342 768q-35 -9 -79 -9q-42 0 -78 9l-93 127h63q62 -19 108 -68q28 28 55 43.5t56 24.5h61z" />
    <glyph glyph-name="uni0162" unicode="&#x162;" horiz-adv-x="528" 
d="M296 0l-14 -44q76 -22 76 -84q0 -43 -30 -67.5t-86 -24.5q-40 0 -69 11q2 40 10 64q27 -9 50 -9q42 0 42 29q0 17 -19.5 25t-61.5 9l29 91h-25v580h-192q1 24 4 57t7 55h505q-1 -24 -4 -57t-7 -55h-182v-580h-33z" />
    <glyph glyph-name="uni021A" unicode="&#x21a;" horiz-adv-x="528" 
d="M518 635q-3 -33 -7 -55h-182v-580h-131v580h-192q1 24 4 57t7 55h505q-1 -24 -4 -57zM202.5 -165q2.5 38 2.5 87q34 10 60.5 14t59.5 4q-4 -61 -31 -109t-72 -78h-27q5 44 7.5 82z" />
    <glyph glyph-name="U" unicode="U" horiz-adv-x="658" 
d="M188 12.5q-59 29.5 -91 84.5t-32 129v458q26 8 62 12.5t68 4.5v-471q0 -67 35 -101t99 -34q63 0 98.5 33.5t35.5 102.5v453q25 7 61.5 12t68.5 5v-475q0 -74 -32.5 -129t-92.5 -84.5t-140 -29.5q-81 0 -140 29.5z" />
    <glyph glyph-name="Uacute" unicode="&#xda;" horiz-adv-x="658" 
d="M188 12.5q-59 29.5 -91 84.5t-32 129v458q26 8 62 12.5t68 4.5v-471q0 -67 35 -101t99 -34q63 0 98.5 33.5t35.5 102.5v453q25 7 61.5 12t68.5 5v-475q0 -74 -32.5 -129t-92.5 -84.5t-140 -29.5q-81 0 -140 29.5zM314 881q13 3 36.5 5t43.5 2q24 0 47.5 -3t37.5 -7
q-34 -52 -88.5 -84.5t-116.5 -32.5h-21z" />
    <glyph glyph-name="Ubreve" unicode="&#x16c;" horiz-adv-x="658" 
d="M188 12.5q-59 29.5 -91 84.5t-32 129v458q26 8 62 12.5t68 4.5v-471q0 -67 35 -101t99 -34q63 0 98.5 33.5t35.5 102.5v453q25 7 61.5 12t68.5 5v-475q0 -74 -32.5 -129t-92.5 -84.5t-140 -29.5q-81 0 -140 29.5zM217.5 794q-39.5 36 -48.5 91q21 2 45.5 4t45.5 2
q8 -26 25.5 -39.5t47.5 -13.5q58 0 73 53q20 0 44.5 -2t45.5 -4q-8 -56 -47 -91.5t-116 -35.5q-76 0 -115.5 36z" />
    <glyph glyph-name="Ucircumflex" unicode="&#xdb;" horiz-adv-x="658" 
d="M188 12.5q-59 29.5 -91 84.5t-32 129v458q26 8 62 12.5t68 4.5v-471q0 -67 35 -101t99 -34q63 0 98.5 33.5t35.5 102.5v453q25 7 61.5 12t68.5 5v-475q0 -74 -32.5 -129t-92.5 -84.5t-140 -29.5q-81 0 -140 29.5zM253 888q35 9 79 9q42 0 78 -9l93 -127h-63
q-62 19 -108 68q-29 -28 -56 -43.5t-55 -24.5h-61z" />
    <glyph glyph-name="Udieresis" unicode="&#xdc;" horiz-adv-x="658" 
d="M188 12.5q-59 29.5 -91 84.5t-32 129v458q26 8 62 12.5t68 4.5v-471q0 -67 35 -101t99 -34q63 0 98.5 33.5t35.5 102.5v453q25 7 61.5 12t68.5 5v-475q0 -74 -32.5 -129t-92.5 -84.5t-140 -29.5q-81 0 -140 29.5zM178.5 777q-19.5 20 -19.5 51t20 50.5t50 19.5t50 -19.5
t20 -50.5t-20 -51t-50 -20q-31 0 -50.5 20zM385 777q-20 20 -20 51q0 30 20 50t51 20q29 0 48.5 -20t19.5 -50q0 -31 -19.5 -51t-48.5 -20q-31 0 -51 20z" />
    <glyph glyph-name="Ugrave" unicode="&#xd9;" horiz-adv-x="658" 
d="M188 12.5q-59 29.5 -91 84.5t-32 129v458q26 8 62 12.5t68 4.5v-471q0 -67 35 -101t99 -34q63 0 98.5 33.5t35.5 102.5v453q25 7 61.5 12t68.5 5v-475q0 -74 -32.5 -129t-92.5 -84.5t-140 -29.5q-81 0 -140 29.5zM416 761q-62 0 -116.5 32.5t-88.5 84.5q14 4 38 7t48 3
q20 0 43 -2t36 -5l61 -120h-21z" />
    <glyph glyph-name="Uhungarumlaut" unicode="&#x170;" horiz-adv-x="658" 
d="M188 12.5q-59 29.5 -91 84.5t-32 129v458q26 8 62 12.5t68 4.5v-471q0 -67 35 -101t99 -34q63 0 98.5 33.5t35.5 102.5v453q25 7 61.5 12t68.5 5v-475q0 -74 -32.5 -129t-92.5 -84.5t-140 -29.5q-81 0 -140 29.5zM232 882q31 6 78 6q38 0 61 -3q-11 -33 -40.5 -62
t-69.5 -46t-81 -17h-13zM407 882q30 6 77 6q40 0 62 -3q-11 -33 -41 -62t-70 -46t-80 -17h-13z" />
    <glyph glyph-name="Umacron" unicode="&#x16a;" horiz-adv-x="658" 
d="M188 12.5q-59 29.5 -91 84.5t-32 129v458q26 8 62 12.5t68 4.5v-471q0 -67 35 -101t99 -34q63 0 98.5 33.5t35.5 102.5v453q25 7 61.5 12t68.5 5v-475q0 -74 -32.5 -129t-92.5 -84.5t-140 -29.5q-81 0 -140 29.5zM187.5 825q2.5 21 8.5 46h282q-3 -49 -12 -92h-282
q1 25 3.5 46z" />
    <glyph glyph-name="Uogonek" unicode="&#x172;" horiz-adv-x="658" 
d="M524.5 696q36.5 5 68.5 5v-475q0 -77 -35.5 -133.5t-100.5 -84.5q-26 -17 -39 -41.5t-13 -46.5q0 -25 12.5 -36.5t35.5 -11.5q12 0 23.5 3t19.5 7q-3 -46 -10 -84q-8 -4 -23.5 -6.5t-34.5 -2.5q-58 0 -91.5 28t-33.5 81q0 47 35 85h-10q-81 0 -140 29.5t-91 84.5t-32 129
v458q26 8 62 12.5t68 4.5v-471q0 -67 35 -101t99 -34q63 0 98.5 33.5t35.5 102.5v453q25 7 61.5 12z" />
    <glyph glyph-name="Uring" unicode="&#x16e;" horiz-adv-x="658" 
d="M188 12.5q-59 29.5 -91 84.5t-32 129v458q26 8 62 12.5t68 4.5v-471q0 -67 35 -101t99 -34q63 0 98.5 33.5t35.5 102.5v453q25 7 61.5 12t68.5 5v-475q0 -74 -32.5 -129t-92.5 -84.5t-140 -29.5q-81 0 -140 29.5zM270.5 755.5q-27.5 14.5 -43.5 39.5t-16 57q0 31 15.5 56
t43 39.5t62.5 14.5t62.5 -14t43 -39t15.5 -57t-16 -57t-43.5 -39.5t-61.5 -14.5t-61.5 14.5zM367 817.5q13 12.5 13 34.5q0 20 -13 33t-35 13t-35 -13t-13 -33q0 -21 13 -34t35 -13t35 12.5z" />
    <glyph glyph-name="Utilde" unicode="&#x168;" horiz-adv-x="658" 
d="M188 12.5q-59 29.5 -91 84.5t-32 129v458q26 8 62 12.5t68 4.5v-471q0 -67 35 -101t99 -34q63 0 98.5 33.5t35.5 102.5v453q25 7 61.5 12t68.5 5v-475q0 -74 -32.5 -129t-92.5 -84.5t-140 -29.5q-81 0 -140 29.5zM370 755q-24 10 -56 28q-5 3 -14 7.5t-17.5 8t-12.5 3.5
q-9 0 -12.5 -6t-3.5 -20v-30h-85v53q0 46 20.5 68t55.5 22q24 0 49 -10.5t61 -28.5q5 -3 13 -7t15 -7t11 -3q8 0 12 5.5t4 18.5v31h85v-55q0 -88 -80 -88q-21 0 -45 10z" />
    <glyph glyph-name="V" unicode="V" horiz-adv-x="593" 
d="M585 692l-213 -692h-149l-215 692h142l149 -560l155 560h131z" />
    <glyph glyph-name="W" unicode="W" horiz-adv-x="942" 
d="M924 692l-183 -692h-149l-118 492l-119 -492h-152l-185 692h140l124 -558l127 558h132l129 -558l122 558h132z" />
    <glyph glyph-name="Wacute" unicode="&#x1e82;" horiz-adv-x="942" 
d="M924 692l-183 -692h-149l-118 492l-119 -492h-152l-185 692h140l124 -558l127 558h132l129 -558l122 558h132zM455 881q13 3 36.5 5t43.5 2q24 0 47.5 -3t37.5 -7q-34 -52 -88.5 -84.5t-116.5 -32.5h-21z" />
    <glyph glyph-name="Wcircumflex" unicode="&#x174;" horiz-adv-x="942" 
d="M924 692l-183 -692h-149l-118 492l-119 -492h-152l-185 692h140l124 -558l127 558h132l129 -558l122 558h132zM394 888q35 9 79 9q42 0 78 -9l93 -127h-63q-62 19 -108 68q-29 -28 -56 -43.5t-55 -24.5h-61z" />
    <glyph glyph-name="Wdieresis" unicode="&#x1e84;" horiz-adv-x="942" 
d="M924 692l-183 -692h-149l-118 492l-119 -492h-152l-185 692h140l124 -558l127 558h132l129 -558l122 558h132zM319.5 777q-19.5 20 -19.5 51t20 50.5t50 19.5t50 -19.5t20 -50.5t-20 -51t-50 -20q-31 0 -50.5 20zM526 777q-20 20 -20 51q0 30 20 50t51 20q29 0 48.5 -20
t19.5 -50q0 -31 -19.5 -51t-48.5 -20q-31 0 -51 20z" />
    <glyph glyph-name="Wgrave" unicode="&#x1e80;" horiz-adv-x="942" 
d="M924 692l-183 -692h-149l-118 492l-119 -492h-152l-185 692h140l124 -558l127 558h132l129 -558l122 558h132zM557 761q-62 0 -116.5 32.5t-88.5 84.5q14 4 38 7t48 3q20 0 43 -2t36 -5l61 -120h-21z" />
    <glyph glyph-name="X" unicode="X" horiz-adv-x="585" 
d="M439 0l-147 246l-147 -246h-147l229 354l-210 338h148l132 -223l128 223h146l-208 -331l224 -361h-148z" />
    <glyph glyph-name="Y" unicode="Y" horiz-adv-x="553" 
d="M342 282v-282h-131v283l-223 409h143l149 -297l148 297h137z" />
    <glyph glyph-name="Yacute" unicode="&#xdd;" horiz-adv-x="553" 
d="M342 282v-282h-131v283l-223 409h143l149 -297l148 297h137zM259 881q13 3 36.5 5t43.5 2q24 0 47.5 -3t37.5 -7q-34 -52 -88.5 -84.5t-116.5 -32.5h-21z" />
    <glyph glyph-name="Ycircumflex" unicode="&#x176;" horiz-adv-x="553" 
d="M342 282v-282h-131v283l-223 409h143l149 -297l148 297h137zM199 888q35 9 79 9q42 0 78 -9l93 -127h-63q-62 19 -108 68q-29 -28 -56 -43.5t-55 -24.5h-61z" />
    <glyph glyph-name="Ydieresis" unicode="&#x178;" horiz-adv-x="553" 
d="M342 282v-282h-131v283l-223 409h143l149 -297l148 297h137zM123.5 777q-19.5 20 -19.5 51t20 50.5t50 19.5t50 -19.5t20 -50.5t-20 -51t-50 -20q-31 0 -50.5 20zM330 777q-20 20 -20 51q0 30 20 50t51 20q29 0 48.5 -20t19.5 -50q0 -31 -19.5 -51t-48.5 -20
q-31 0 -51 20z" />
    <glyph glyph-name="Ygrave" unicode="&#x1ef2;" horiz-adv-x="553" 
d="M342 282v-282h-131v283l-223 409h143l149 -297l148 297h137zM361 761q-62 0 -116.5 32.5t-88.5 84.5q14 4 38 7t48 3q20 0 43 -2t36 -5l61 -120h-21z" />
    <glyph glyph-name="Z" unicode="Z" horiz-adv-x="538" 
d="M514 111q-1 -24 -4 -56.5t-7 -54.5h-469q0 41 6 86l304 495h-316q1 24 4 56.5t7 54.5h470q0 -42 -7 -89l-304 -492h316z" />
    <glyph glyph-name="Zacute" unicode="&#x179;" horiz-adv-x="538" 
d="M514 111q-1 -24 -4 -56.5t-7 -54.5h-469q0 41 6 86l304 495h-316q1 24 4 56.5t7 54.5h470q0 -42 -7 -89l-304 -492h316zM250 881q13 3 36.5 5t43.5 2q24 0 47.5 -3t37.5 -7q-34 -52 -88.5 -84.5t-116.5 -32.5h-21z" />
    <glyph glyph-name="Zcaron" unicode="&#x17d;" horiz-adv-x="538" 
d="M514 111q-1 -24 -4 -56.5t-7 -54.5h-469q0 41 6 86l304 495h-316q1 24 4 56.5t7 54.5h470q0 -42 -7 -89l-304 -492h316zM347 768q-35 -9 -79 -9q-42 0 -78 9l-93 127h63q62 -19 108 -68q28 28 55 43.5t56 24.5h61z" />
    <glyph glyph-name="Zdotaccent" unicode="&#x17b;" horiz-adv-x="538" 
d="M514 111q-1 -24 -4 -56.5t-7 -54.5h-469q0 41 6 86l304 495h-316q1 24 4 56.5t7 54.5h470q0 -42 -7 -89l-304 -492h316zM216 773.5q-20 20.5 -20 52.5t20 52t53 20q31 0 51.5 -20t20.5 -52q0 -33 -20.5 -53t-51.5 -20q-33 0 -53 20.5z" />
    <glyph glyph-name="a" unicode="a" horiz-adv-x="514" 
d="M409 468.5q49 -42.5 49 -130.5v-338h-116l-7 72q-39 -84 -140 -84q-46 0 -82.5 18t-57.5 52.5t-21 83.5q0 57 25 93.5t85 58t164 29.5l24 2v6q0 42 -20 61t-69 19q-54 0 -95 -8.5t-82 -25.5q0 23 2 50.5t6 48.5q37 16 83.5 25.5t96.5 9.5q106 0 155 -42.5zM289 97.5
q27 13.5 43 36.5v109l-17 -1q-66 -5 -100.5 -16.5t-46 -29t-11.5 -45.5q0 -31 19.5 -49t53.5 -18q32 0 59 13.5z" />
    <glyph glyph-name="aacute" unicode="&#xe1;" horiz-adv-x="514" 
d="M409 468.5q49 -42.5 49 -130.5v-338h-116l-7 72q-39 -84 -140 -84q-46 0 -82.5 18t-57.5 52.5t-21 83.5q0 57 25 93.5t85 58t164 29.5l24 2v6q0 42 -20 61t-69 19q-54 0 -95 -8.5t-82 -25.5q0 23 2 50.5t6 48.5q37 16 83.5 25.5t96.5 9.5q106 0 155 -42.5zM289 97.5
q27 13.5 43 36.5v109l-17 -1q-66 -5 -100.5 -16.5t-46 -29t-11.5 -45.5q0 -31 19.5 -49t53.5 -18q32 0 59 13.5zM235 719q30 10 71.5 15.5t74.5 5.5q-9 -43 -35 -80.5t-64 -60.5t-81 -26h-3z" />
    <glyph glyph-name="abreve" unicode="&#x103;" horiz-adv-x="514" 
d="M409 468.5q49 -42.5 49 -130.5v-338h-116l-7 72q-39 -84 -140 -84q-46 0 -82.5 18t-57.5 52.5t-21 83.5q0 57 25 93.5t85 58t164 29.5l24 2v6q0 42 -20 61t-69 19q-54 0 -95 -8.5t-82 -25.5q0 23 2 50.5t6 48.5q37 16 83.5 25.5t96.5 9.5q106 0 155 -42.5zM289 97.5
q27 13.5 43 36.5v109l-17 -1q-66 -5 -100.5 -16.5t-46 -29t-11.5 -45.5q0 -31 19.5 -49t53.5 -18q32 0 59 13.5zM148.5 612.5q-37.5 39.5 -47.5 101.5q19 4 43 6.5t47 2.5q14 -66 69 -66q56 0 70 66q23 0 47 -2.5t42 -6.5q-9 -61 -47.5 -101t-111.5 -40q-74 0 -111.5 39.5z
" />
    <glyph glyph-name="acircumflex" unicode="&#xe2;" horiz-adv-x="514" 
d="M409 468.5q49 -42.5 49 -130.5v-338h-116l-7 72q-39 -84 -140 -84q-46 0 -82.5 18t-57.5 52.5t-21 83.5q0 57 25 93.5t85 58t164 29.5l24 2v6q0 42 -20 61t-69 19q-54 0 -95 -8.5t-82 -25.5q0 23 2 50.5t6 48.5q37 16 83.5 25.5t96.5 9.5q106 0 155 -42.5zM289 97.5
q27 13.5 43 36.5v109l-17 -1q-66 -5 -100.5 -16.5t-46 -29t-11.5 -45.5q0 -31 19.5 -49t53.5 -18q32 0 59 13.5zM416 580h-68q-21 9 -38.5 23t-51.5 51q-33 -37 -54 -51.5t-45 -22.5h-56l93 150q24 5 63 5t60 -5z" />
    <glyph glyph-name="adieresis" unicode="&#xe4;" horiz-adv-x="514" 
d="M409 468.5q49 -42.5 49 -130.5v-338h-116l-7 72q-39 -84 -140 -84q-46 0 -82.5 18t-57.5 52.5t-21 83.5q0 57 25 93.5t85 58t164 29.5l24 2v6q0 42 -20 61t-69 19q-54 0 -95 -8.5t-82 -25.5q0 23 2 50.5t6 48.5q37 16 83.5 25.5t96.5 9.5q106 0 155 -42.5zM289 97.5
q27 13.5 43 36.5v109l-17 -1q-66 -5 -100.5 -16.5t-46 -29t-11.5 -45.5q0 -31 19.5 -49t53.5 -18q32 0 59 13.5zM112.5 607q-19.5 20 -19.5 50q0 31 19 50.5t50 19.5q30 0 49.5 -19.5t19.5 -50.5t-19.5 -50.5t-49.5 -19.5t-49.5 20zM307.5 606q-19.5 20 -19.5 50
q0 31 19.5 51t50.5 20q29 0 48.5 -20t19.5 -51q0 -30 -19.5 -50t-48.5 -20q-31 0 -50.5 20z" />
    <glyph glyph-name="agrave" unicode="&#xe0;" horiz-adv-x="514" 
d="M409 468.5q49 -42.5 49 -130.5v-338h-116l-7 72q-39 -84 -140 -84q-46 0 -82.5 18t-57.5 52.5t-21 83.5q0 57 25 93.5t85 58t164 29.5l24 2v6q0 42 -20 61t-69 19q-54 0 -95 -8.5t-82 -25.5q0 23 2 50.5t6 48.5q37 16 83.5 25.5t96.5 9.5q106 0 155 -42.5zM289 97.5
q27 13.5 43 36.5v109l-17 -1q-66 -5 -100.5 -16.5t-46 -29t-11.5 -45.5q0 -31 19.5 -49t53.5 -18q32 0 59 13.5zM326 573q-43 3 -80.5 26t-64 60.5t-34.5 80.5q32 0 74 -5.5t71 -15.5l38 -146h-4z" />
    <glyph glyph-name="amacron" unicode="&#x101;" horiz-adv-x="514" 
d="M409 468.5q49 -42.5 49 -130.5v-338h-116l-7 72q-39 -84 -140 -84q-46 0 -82.5 18t-57.5 52.5t-21 83.5q0 57 25 93.5t85 58t164 29.5l24 2v6q0 42 -20 61t-69 19q-54 0 -95 -8.5t-82 -25.5q0 23 2 50.5t6 48.5q37 16 83.5 25.5t96.5 9.5q106 0 155 -42.5zM289 97.5
q27 13.5 43 36.5v109l-17 -1q-66 -5 -100.5 -16.5t-46 -29t-11.5 -45.5q0 -31 19.5 -49t53.5 -18q32 0 59 13.5zM126 701h282q-1 -24 -3.5 -47t-8.5 -46h-282q1 42 12 93z" />
    <glyph glyph-name="aogonek" unicode="&#x105;" horiz-adv-x="514" 
d="M462 -128q-3 -46 -10 -84q-22 -9 -58 -9q-58 0 -91.5 28t-33.5 81q0 68 73 116l-7 68q-39 -84 -140 -84q-46 0 -82.5 18t-57.5 52.5t-21 83.5q0 57 25 93.5t85 58t164 29.5l24 2v6q0 42 -20 61t-69 19q-54 0 -95 -8.5t-82 -25.5q0 23 2 50.5t6 48.5q37 16 83.5 25.5
t96.5 9.5q106 0 155 -42.5t49 -130.5v-338h-31q-28 -16 -42 -41.5t-14 -48.5q0 -25 12.5 -36.5t35.5 -11.5q18 0 43 10zM289 97.5q27 13.5 43 36.5v109l-17 -1q-66 -5 -100.5 -16.5t-46 -29t-11.5 -45.5q0 -31 19.5 -49t53.5 -18q32 0 59 13.5z" />
    <glyph glyph-name="aring" unicode="&#xe5;" horiz-adv-x="514" 
d="M409 468.5q49 -42.5 49 -130.5v-338h-116l-7 72q-39 -84 -140 -84q-46 0 -82.5 18t-57.5 52.5t-21 83.5q0 57 25 93.5t85 58t164 29.5l24 2v6q0 42 -20 61t-69 19q-54 0 -95 -8.5t-82 -25.5q0 23 2 50.5t6 48.5q37 16 83.5 25.5t96.5 9.5q106 0 155 -42.5zM289 97.5
q27 13.5 43 36.5v109l-17 -1q-66 -5 -100.5 -16.5t-46 -29t-11.5 -45.5q0 -31 19.5 -49t53.5 -18q32 0 59 13.5zM200 574q-28 14 -43.5 40t-15.5 59q0 34 15.5 60t43.5 40t62 14q33 0 60.5 -14t43 -40t15.5 -60q0 -33 -15.5 -59t-43 -40t-60.5 -14q-34 0 -62 14zM295.5 637
q12.5 14 12.5 36q0 23 -12.5 37t-33.5 14q-22 0 -34.5 -14t-12.5 -37q0 -22 13 -36t34 -14t33.5 14z" />
    <glyph glyph-name="aringacute" unicode="&#x1fb;" horiz-adv-x="514" 
d="M409 468.5q49 -42.5 49 -130.5v-338h-116l-7 72q-39 -84 -140 -84q-46 0 -82.5 18t-57.5 52.5t-21 83.5q0 57 25 93.5t85 58t164 29.5l24 2v6q0 42 -20 61t-69 19q-54 0 -95 -8.5t-82 -25.5q0 23 2 50.5t6 48.5q37 16 83.5 25.5t96.5 9.5q106 0 155 -42.5zM289 97.5
q27 13.5 43 36.5v109l-17 -1q-66 -5 -100.5 -16.5t-46 -29t-11.5 -45.5q0 -31 19.5 -49t53.5 -18q32 0 59 13.5zM200 574q-28 14 -43.5 40t-15.5 59q0 34 15.5 60t43.5 40t62 14q33 0 60.5 -14t43 -40t15.5 -60q0 -33 -15.5 -59t-43 -40t-60.5 -14q-34 0 -62 14zM295.5 637
q12.5 14 12.5 36q0 23 -12.5 37t-33.5 14q-22 0 -34.5 -14t-12.5 -37q0 -22 13 -36t34 -14t33.5 14zM235 980q30 10 71.5 15.5t74.5 5.5q-9 -43 -35 -80.5t-64 -60.5t-81 -26h-3z" />
    <glyph glyph-name="atilde" unicode="&#xe3;" horiz-adv-x="514" 
d="M409 468.5q49 -42.5 49 -130.5v-338h-116l-7 72q-39 -84 -140 -84q-46 0 -82.5 18t-57.5 52.5t-21 83.5q0 57 25 93.5t85 58t164 29.5l24 2v6q0 42 -20 61t-69 19q-54 0 -95 -8.5t-82 -25.5q0 23 2 50.5t6 48.5q37 16 83.5 25.5t96.5 9.5q106 0 155 -42.5zM289 97.5
q27 13.5 43 36.5v109l-17 -1q-66 -5 -100.5 -16.5t-46 -29t-11.5 -45.5q0 -31 19.5 -49t53.5 -18q32 0 59 13.5zM289.5 594q-20.5 10 -44.5 26q-11 7 -21.5 13t-15.5 6q-8 0 -11 -6t-3 -19v-30h-72v58q0 40 18 59t49 19q21 0 42 -10.5t45 -27.5q11 -7 20.5 -12.5t14.5 -5.5
q15 0 15 25v30h72v-58q0 -40 -18.5 -58.5t-51.5 -18.5q-18 0 -38.5 10z" />
    <glyph glyph-name="ae" unicode="&#xe6;" horiz-adv-x="810" 
d="M765 212h-315q5 -46 22.5 -72.5t48 -38.5t76.5 -12q82 0 159 37q-5 -61 -16 -105q-73 -33 -155 -33q-134 0 -200 71q-29 -34 -74 -52.5t-102 -18.5q-51 0 -90.5 18t-62 52t-22.5 81q0 57 29.5 92.5t88 53t150.5 21.5l25 1q2 20 2 28q0 41 -24.5 59t-77.5 18
q-78 0 -160 -35q2 64 11 102q32 15 77 23.5t93 8.5q107 0 157 -48q57 48 149 48q73 0 121 -28.5t71.5 -78t23.5 -113.5q0 -46 -5 -79zM451 301h193q-1 52 -23.5 81t-68.5 29q-87 0 -101 -110zM295 96.5q30 11.5 49 32.5q-14 38 -19 91l-19 -1q-55 -3 -88 -11.5t-48 -24
t-15 -40.5q0 -29 20 -43.5t54 -14.5q36 0 66 11.5z" />
    <glyph glyph-name="aeacute" unicode="&#x1fd;" horiz-adv-x="810" 
d="M765 212h-315q5 -46 22.5 -72.5t48 -38.5t76.5 -12q82 0 159 37q-5 -61 -16 -105q-73 -33 -155 -33q-134 0 -200 71q-29 -34 -74 -52.5t-102 -18.5q-51 0 -90.5 18t-62 52t-22.5 81q0 57 29.5 92.5t88 53t150.5 21.5l25 1q2 20 2 28q0 41 -24.5 59t-77.5 18
q-78 0 -160 -35q2 64 11 102q32 15 77 23.5t93 8.5q107 0 157 -48q57 48 149 48q73 0 121 -28.5t71.5 -78t23.5 -113.5q0 -46 -5 -79zM451 301h193q-1 52 -23.5 81t-68.5 29q-87 0 -101 -110zM295 96.5q30 11.5 49 32.5q-14 38 -19 91l-19 -1q-55 -3 -88 -11.5t-48 -24
t-15 -40.5q0 -29 20 -43.5t54 -14.5q36 0 66 11.5zM382 719q30 10 71.5 15.5t74.5 5.5q-9 -43 -35 -80.5t-64 -60.5t-81 -26h-3z" />
    <glyph glyph-name="b" unicode="b" horiz-adv-x="551" 
d="M420 484.5q44 -27.5 69 -85t25 -142.5q0 -129 -60.5 -199t-195.5 -70q-107 0 -194 27v677q63 18 128 18v-274q20 37 50 56.5t76 19.5q58 0 102 -27.5zM354.5 132q28.5 41 28.5 119q0 82 -26 119.5t-81 37.5q-49 0 -84 -33v-278q29 -6 67 -6q67 0 95.5 41z" />
    <glyph glyph-name="c" unicode="c" horiz-adv-x="431" 
d="M146.5 17q-54.5 29 -84 87.5t-29.5 143.5q0 132 65.5 197.5t180.5 65.5q66 0 114 -17q-1 -26 -4 -54.5t-8 -48.5q-39 14 -84 14q-66 0 -100 -40t-34 -117q0 -76 35.5 -116.5t97.5 -40.5q25 0 50.5 6.5t46.5 17.5q-3 -52 -14 -105q-18 -10 -46.5 -16t-57.5 -6
q-74 0 -128.5 29z" />
    <glyph glyph-name="cacute" unicode="&#x107;" horiz-adv-x="431" 
d="M146.5 17q-54.5 29 -84 87.5t-29.5 143.5q0 132 65.5 197.5t180.5 65.5q66 0 114 -17q-1 -26 -4 -54.5t-8 -48.5q-39 14 -84 14q-66 0 -100 -40t-34 -117q0 -76 35.5 -116.5t97.5 -40.5q25 0 50.5 6.5t46.5 17.5q-3 -52 -14 -105q-18 -10 -46.5 -16t-57.5 -6
q-74 0 -128.5 29zM232 719q30 10 71.5 15.5t74.5 5.5q-9 -43 -35 -80.5t-64 -60.5t-81 -26h-3z" />
    <glyph glyph-name="ccaron" unicode="&#x10d;" horiz-adv-x="431" 
d="M146.5 17q-54.5 29 -84 87.5t-29.5 143.5q0 132 65.5 197.5t180.5 65.5q66 0 114 -17q-1 -26 -4 -54.5t-8 -48.5q-39 14 -84 14q-66 0 -100 -40t-34 -117q0 -76 35.5 -116.5t97.5 -40.5q25 0 50.5 6.5t46.5 17.5q-3 -52 -14 -105q-18 -10 -46.5 -16t-57.5 -6
q-74 0 -128.5 29zM412 733l-93 -150q-30 -6 -63 -6q-15 0 -30.5 1.5t-29.5 3.5l-97 151h67q22 -10 39.5 -24t51.5 -51q33 37 54 52t45 23h56z" />
    <glyph glyph-name="ccedilla" unicode="&#xe7;" horiz-adv-x="431" 
d="M198.5 131.5q35.5 -40.5 97.5 -40.5q25 0 50.5 6.5t46.5 17.5q-3 -52 -14 -105q-17 -10 -42.5 -15.5t-52.5 -6.5l-10 -32q76 -22 76 -84q0 -43 -30 -67.5t-86 -24.5q-40 0 -69 11q2 40 10 64q27 -9 50 -9q42 0 42 29q0 17 -19.5 25t-61.5 9l27 85q-85 17 -132.5 81.5
t-47.5 172.5q0 132 65.5 197.5t180.5 65.5q66 0 114 -17q-1 -26 -4 -54.5t-8 -48.5q-39 14 -84 14q-66 0 -100 -40t-34 -117q0 -76 35.5 -116.5z" />
    <glyph glyph-name="ccircumflex" unicode="&#x109;" horiz-adv-x="431" 
d="M204 602.5q-20 -14.5 -43 -22.5h-53l89 150q23 5 60 5q38 0 58 -5l92 -150h-64q-21 9 -38 23t-49 51q-32 -37 -52 -51.5zM197 365q-34 -40 -34 -117q0 -76 35.5 -116.5t97.5 -40.5q25 0 50.5 6.5t46.5 17.5q-3 -52 -14 -105q-18 -10 -46.5 -16t-57.5 -6q-74 0 -128.5 29
t-84 87.5t-29.5 143.5q0 132 65.5 197.5t180.5 65.5q66 0 114 -17q-1 -26 -4 -54.5t-8 -48.5q-39 14 -84 14q-66 0 -100 -40z" />
    <glyph glyph-name="cdotaccent" unicode="&#x10b;" horiz-adv-x="431" 
d="M146.5 17q-54.5 29 -84 87.5t-29.5 143.5q0 132 65.5 197.5t180.5 65.5q66 0 114 -17q-1 -26 -4 -54.5t-8 -48.5q-39 14 -84 14q-66 0 -100 -40t-34 -117q0 -76 35.5 -116.5t97.5 -40.5q25 0 50.5 6.5t46.5 17.5q-3 -52 -14 -105q-18 -10 -46.5 -16t-57.5 -6
q-74 0 -128.5 29zM204 603q-21 21 -21 54t21 54t54 21q32 0 52.5 -21t20.5 -54q0 -32 -21 -53.5t-52 -21.5q-33 0 -54 21z" />
    <glyph glyph-name="d" unicode="d" 
d="M486 710v-710h-118l-7 69q-20 -40 -51 -60.5t-78 -20.5q-58 0 -102 27.5t-69 84.5t-25 143q0 129 60.5 198.5t195.5 69.5q34 0 66 -3v184q63 18 128 18zM358 124v278q-29 6 -67 6q-67 0 -95.5 -40.5t-28.5 -119.5q0 -81 26.5 -119t80.5 -38q49 0 84 33z" />
    <glyph glyph-name="eth" unicode="&#xf0;" horiz-adv-x="539" 
d="M469 453q31 -84 31 -175q0 -93 -28 -158t-82 -98.5t-131 -33.5q-108 0 -165.5 61.5t-57.5 173.5q0 75 25.5 126.5t71.5 77.5t108 26q37 0 66 -12t50 -34q-25 77 -80 131l-129 -78q0 21 2.5 46.5t7.5 44.5l55 33q-48 26 -104 41q11 24 31 49.5t37 35.5q78 -17 142 -62
l129 78q-2 -54 -9 -90l-61 -37q60 -62 91 -146zM348.5 134q26.5 43 26.5 139q0 19 -2 53q-45 25 -99 25q-55 0 -83 -29.5t-28 -96.5q0 -66 26 -100t78 -34q55 0 81.5 43z" />
    <glyph glyph-name="dcaron" unicode="&#x10f;" 
d="M486 710v-710h-118l-7 69q-20 -40 -51 -60.5t-78 -20.5q-58 0 -102 27.5t-69 84.5t-25 143q0 129 60.5 198.5t195.5 69.5q34 0 66 -3v184q63 18 128 18zM358 124v278q-29 6 -67 6q-67 0 -95.5 -40.5t-28.5 -119.5q0 -81 26.5 -119t80.5 -38q49 0 84 33zM539.5 605
q2.5 38 2.5 87q34 10 60.5 14t59.5 4q-4 -61 -31 -109t-72 -78h-27q5 44 7.5 82z" />
    <glyph glyph-name="dcroat" unicode="&#x111;" 
d="M553 561h-67v-561h-118l-7 69q-20 -40 -51 -60.5t-78 -20.5q-58 0 -102 27.5t-69 84.5t-25 143q0 129 60.5 198.5t195.5 69.5q34 0 66 -3v53h-155q2 46 11 80h144v51q63 18 128 18v-69h78q-2 -46 -11 -80zM358 124v278q-29 6 -67 6q-67 0 -95.5 -40.5t-28.5 -119.5
q0 -81 26.5 -119t80.5 -38q49 0 84 33z" />
    <glyph glyph-name="e" unicode="e" horiz-adv-x="521" 
d="M479.5 242.5q-1.5 -23.5 -4.5 -41.5h-312q10 -61 44.5 -86.5t100.5 -25.5q82 0 159 37q-6 -64 -17 -105q-71 -33 -154 -33q-135 0 -199 69.5t-64 196.5q0 76 25.5 134t77.5 90.5t129 32.5q72 0 120.5 -28.5t72 -78.5t23.5 -114q0 -24 -1.5 -47.5zM191.5 382
q-25.5 -29 -30.5 -88h194q-1 56 -22.5 86.5t-68.5 30.5t-72.5 -29z" />
    <glyph glyph-name="eacute" unicode="&#xe9;" horiz-adv-x="521" 
d="M479.5 242.5q-1.5 -23.5 -4.5 -41.5h-312q10 -61 44.5 -86.5t100.5 -25.5q82 0 159 37q-6 -64 -17 -105q-71 -33 -154 -33q-135 0 -199 69.5t-64 196.5q0 76 25.5 134t77.5 90.5t129 32.5q72 0 120.5 -28.5t72 -78.5t23.5 -114q0 -24 -1.5 -47.5zM191.5 382
q-25.5 -29 -30.5 -88h194q-1 56 -22.5 86.5t-68.5 30.5t-72.5 -29zM237 719q30 10 71.5 15.5t74.5 5.5q-9 -43 -35 -80.5t-64 -60.5t-81 -26h-3z" />
    <glyph glyph-name="ebreve" unicode="&#x115;" horiz-adv-x="521" 
d="M479.5 242.5q-1.5 -23.5 -4.5 -41.5h-312q10 -61 44.5 -86.5t100.5 -25.5q82 0 159 37q-6 -64 -17 -105q-71 -33 -154 -33q-135 0 -199 69.5t-64 196.5q0 76 25.5 134t77.5 90.5t129 32.5q72 0 120.5 -28.5t72 -78.5t23.5 -114q0 -24 -1.5 -47.5zM191.5 382
q-25.5 -29 -30.5 -88h194q-1 56 -22.5 86.5t-68.5 30.5t-72.5 -29zM150.5 612.5q-37.5 39.5 -47.5 101.5q19 4 43 6.5t47 2.5q14 -66 69 -66q56 0 70 66q23 0 47 -2.5t42 -6.5q-9 -61 -47.5 -101t-111.5 -40q-74 0 -111.5 39.5z" />
    <glyph glyph-name="ecaron" unicode="&#x11b;" horiz-adv-x="521" 
d="M479.5 242.5q-1.5 -23.5 -4.5 -41.5h-312q10 -61 44.5 -86.5t100.5 -25.5q82 0 159 37q-6 -64 -17 -105q-71 -33 -154 -33q-135 0 -199 69.5t-64 196.5q0 76 25.5 134t77.5 90.5t129 32.5q72 0 120.5 -28.5t72 -78.5t23.5 -114q0 -24 -1.5 -47.5zM191.5 382
q-25.5 -29 -30.5 -88h194q-1 56 -22.5 86.5t-68.5 30.5t-72.5 -29zM418 733l-93 -150q-30 -6 -63 -6q-15 0 -30.5 1.5t-29.5 3.5l-97 151h67q22 -10 39.5 -24t51.5 -51q33 37 54 52t45 23h56z" />
    <glyph glyph-name="ecircumflex" unicode="&#xea;" horiz-adv-x="521" 
d="M479.5 242.5q-1.5 -23.5 -4.5 -41.5h-312q10 -61 44.5 -86.5t100.5 -25.5q82 0 159 37q-6 -64 -17 -105q-71 -33 -154 -33q-135 0 -199 69.5t-64 196.5q0 76 25.5 134t77.5 90.5t129 32.5q72 0 120.5 -28.5t72 -78.5t23.5 -114q0 -24 -1.5 -47.5zM191.5 382
q-25.5 -29 -30.5 -88h194q-1 56 -22.5 86.5t-68.5 30.5t-72.5 -29zM418 580h-68q-21 9 -38.5 23t-51.5 51q-33 -37 -54 -51.5t-45 -22.5h-56l93 150q24 5 63 5t60 -5z" />
    <glyph glyph-name="edieresis" unicode="&#xeb;" horiz-adv-x="521" 
d="M479.5 242.5q-1.5 -23.5 -4.5 -41.5h-312q10 -61 44.5 -86.5t100.5 -25.5q82 0 159 37q-6 -64 -17 -105q-71 -33 -154 -33q-135 0 -199 69.5t-64 196.5q0 76 25.5 134t77.5 90.5t129 32.5q72 0 120.5 -28.5t72 -78.5t23.5 -114q0 -24 -1.5 -47.5zM191.5 382
q-25.5 -29 -30.5 -88h194q-1 56 -22.5 86.5t-68.5 30.5t-72.5 -29zM114.5 607q-19.5 20 -19.5 50q0 31 19 50.5t50 19.5q30 0 49.5 -19.5t19.5 -50.5t-19.5 -50.5t-49.5 -19.5t-49.5 20zM309.5 606q-19.5 20 -19.5 50q0 31 19.5 51t50.5 20q29 0 48.5 -20t19.5 -51
q0 -30 -19.5 -50t-48.5 -20q-31 0 -50.5 20z" />
    <glyph glyph-name="edotaccent" unicode="&#x117;" horiz-adv-x="521" 
d="M479.5 242.5q-1.5 -23.5 -4.5 -41.5h-312q10 -61 44.5 -86.5t100.5 -25.5q82 0 159 37q-6 -64 -17 -105q-71 -33 -154 -33q-135 0 -199 69.5t-64 196.5q0 76 25.5 134t77.5 90.5t129 32.5q72 0 120.5 -28.5t72 -78.5t23.5 -114q0 -24 -1.5 -47.5zM191.5 382
q-25.5 -29 -30.5 -88h194q-1 56 -22.5 86.5t-68.5 30.5t-72.5 -29zM209 603q-21 21 -21 54t21 54t54 21q32 0 52.5 -21t20.5 -54q0 -32 -21 -53.5t-52 -21.5q-33 0 -54 21z" />
    <glyph glyph-name="egrave" unicode="&#xe8;" horiz-adv-x="521" 
d="M479.5 242.5q-1.5 -23.5 -4.5 -41.5h-312q10 -61 44.5 -86.5t100.5 -25.5q82 0 159 37q-6 -64 -17 -105q-71 -33 -154 -33q-135 0 -199 69.5t-64 196.5q0 76 25.5 134t77.5 90.5t129 32.5q72 0 120.5 -28.5t72 -78.5t23.5 -114q0 -24 -1.5 -47.5zM191.5 382
q-25.5 -29 -30.5 -88h194q-1 56 -22.5 86.5t-68.5 30.5t-72.5 -29zM328 573q-43 3 -80.5 26t-64 60.5t-34.5 80.5q32 0 74 -5.5t71 -15.5l38 -146h-4z" />
    <glyph glyph-name="emacron" unicode="&#x113;" horiz-adv-x="521" 
d="M479.5 242.5q-1.5 -23.5 -4.5 -41.5h-312q10 -61 44.5 -86.5t100.5 -25.5q82 0 159 37q-6 -64 -17 -105q-71 -33 -154 -33q-135 0 -199 69.5t-64 196.5q0 76 25.5 134t77.5 90.5t129 32.5q72 0 120.5 -28.5t72 -78.5t23.5 -114q0 -24 -1.5 -47.5zM191.5 382
q-25.5 -29 -30.5 -88h194q-1 56 -22.5 86.5t-68.5 30.5t-72.5 -29zM128 701h282q-1 -24 -3.5 -47t-8.5 -46h-282q1 42 12 93z" />
    <glyph glyph-name="eogonek" unicode="&#x119;" horiz-adv-x="521" 
d="M479.5 242.5q-1.5 -23.5 -4.5 -41.5h-312q10 -61 44.5 -86.5t100.5 -25.5q82 0 159 37q-6 -64 -17 -105q-20 -10 -52 -19q-28 -17 -41 -41.5t-13 -47.5q0 -25 12.5 -36.5t35.5 -11.5q18 0 43 10q-3 -48 -10 -84q-22 -9 -58 -9q-58 0 -91.5 28t-33.5 81q0 56 47 97
q-132 2 -194 71.5t-62 194.5q0 76 25.5 134t77.5 90.5t129 32.5q72 0 120.5 -28.5t72 -78.5t23.5 -114q0 -24 -1.5 -47.5zM191.5 382q-25.5 -29 -30.5 -88h194q-1 56 -22.5 86.5t-68.5 30.5t-72.5 -29z" />
    <glyph glyph-name="uni0259" unicode="&#x259;" horiz-adv-x="521" 
d="M424 441.5q64 -69.5 64 -196.5q0 -76 -25.5 -134t-77.5 -90.5t-129 -32.5q-72 0 -120.5 29t-72 78.5t-23.5 113.5q0 24 1.5 47.5t4.5 41.5h312q-9 61 -44 87t-101 26q-80 0 -159 -38q6 64 17 105q71 33 154 33q135 0 199 -69.5zM360 206h-194q0 -57 22 -87.5t70 -30.5
q91 0 102 118z" />
    <glyph glyph-name="f" unicode="f" horiz-adv-x="349" 
d="M192 499h149q-4 -64 -11 -101h-138v-398h-128v528q0 89 48 135.5t146 46.5q49 0 90 -11q-1 -44 -11 -100q-38 9 -68 9q-41 0 -59 -19.5t-18 -62.5v-27z" />
    <glyph glyph-name="g" unicode="g" 
d="M486 485v-469q0 -116 -65 -178t-189 -62q-43 0 -84.5 9t-72.5 25q2 56 11 104q31 -16 68 -24.5t70 -8.5q70 0 102 33t32 99v51q-20 -37 -50 -56.5t-76 -19.5q-58 0 -102 27.5t-69 84.5t-25 143q0 129 60.5 198.5t195.5 69.5q110 0 194 -26zM358 124v278q-29 6 -67 6
q-67 0 -95.5 -40.5t-28.5 -119.5q0 -81 26.5 -119t80.5 -38q49 0 84 33z" />
    <glyph glyph-name="gbreve" unicode="&#x11f;" 
d="M486 485v-469q0 -116 -65 -178t-189 -62q-43 0 -84.5 9t-72.5 25q2 56 11 104q31 -16 68 -24.5t70 -8.5q70 0 102 33t32 99v51q-20 -37 -50 -56.5t-76 -19.5q-58 0 -102 27.5t-69 84.5t-25 143q0 129 60.5 198.5t195.5 69.5q110 0 194 -26zM358 124v278q-29 6 -67 6
q-67 0 -95.5 -40.5t-28.5 -119.5q0 -81 26.5 -119t80.5 -38q49 0 84 33zM167.5 612.5q-37.5 39.5 -47.5 101.5q19 4 43 6.5t47 2.5q14 -66 69 -66q56 0 70 66q23 0 47 -2.5t42 -6.5q-9 -61 -47.5 -101t-111.5 -40q-74 0 -111.5 39.5z" />
    <glyph glyph-name="gcircumflex" unicode="&#x11d;" 
d="M486 485v-469q0 -116 -65 -178t-189 -62q-43 0 -84.5 9t-72.5 25q2 56 11 104q31 -16 68 -24.5t70 -8.5q70 0 102 33t32 99v51q-20 -37 -50 -56.5t-76 -19.5q-58 0 -102 27.5t-69 84.5t-25 143q0 129 60.5 198.5t195.5 69.5q110 0 194 -26zM358 124v278q-29 6 -67 6
q-67 0 -95.5 -40.5t-28.5 -119.5q0 -81 26.5 -119t80.5 -38q49 0 84 33zM435 580h-68q-21 9 -38.5 23t-51.5 51q-33 -37 -54 -51.5t-45 -22.5h-56l93 150q24 5 63 5t60 -5z" />
    <glyph glyph-name="uni0123" unicode="&#x123;" 
d="M340.5 664.5q-2.5 -38.5 -2.5 -87.5q-34 -10 -61 -14t-59 -4q4 61 31 109.5t71 77.5h28q-5 -43 -7.5 -81.5zM486 485v-469q0 -116 -65 -178t-189 -62q-43 0 -84.5 9t-72.5 25q2 56 11 104q31 -16 68 -24.5t70 -8.5q70 0 102 33t32 99v51q-20 -37 -50 -56.5t-76 -19.5
q-58 0 -102 27.5t-69 84.5t-25 143q0 129 60.5 198.5t195.5 69.5q110 0 194 -26zM358 124v278q-29 6 -67 6q-67 0 -95.5 -40.5t-28.5 -119.5q0 -81 26.5 -119t80.5 -38q49 0 84 33z" />
    <glyph glyph-name="gdotaccent" unicode="&#x121;" 
d="M486 485v-469q0 -116 -65 -178t-189 -62q-43 0 -84.5 9t-72.5 25q2 56 11 104q31 -16 68 -24.5t70 -8.5q70 0 102 33t32 99v51q-20 -37 -50 -56.5t-76 -19.5q-58 0 -102 27.5t-69 84.5t-25 143q0 129 60.5 198.5t195.5 69.5q110 0 194 -26zM358 124v278q-29 6 -67 6
q-67 0 -95.5 -40.5t-28.5 -119.5q0 -81 26.5 -119t80.5 -38q49 0 84 33zM226 603q-21 21 -21 54t21 54t54 21q32 0 52.5 -21t20.5 -54q0 -32 -21 -53.5t-52 -21.5q-33 0 -54 21z" />
    <glyph glyph-name="h" unicode="h" horiz-adv-x="549" 
d="M449.5 463.5q40.5 -47.5 40.5 -127.5v-336h-128v308q0 51 -19 75.5t-63 24.5q-26 0 -48.5 -11t-39.5 -28v-369h-128v692q60 18 128 18v-283q22 42 55 63t81 21q81 0 121.5 -47.5z" />
    <glyph glyph-name="hbar" unicode="&#x127;" horiz-adv-x="567" 
d="M467.5 463.5q40.5 -47.5 40.5 -127.5v-336h-128v308q0 51 -19 75.5t-63 24.5q-26 0 -49.5 -11.5t-39.5 -27.5v-369h-128v561h-73q2 46 11 80h62v51q62 18 128 18v-69h161q-2 -39 -11 -80h-150v-136q22 43 55 64.5t82 21.5q81 0 121.5 -47.5z" />
    <glyph glyph-name="hcircumflex" unicode="&#x125;" horiz-adv-x="549" 
d="M449.5 463.5q40.5 -47.5 40.5 -127.5v-336h-128v308q0 51 -19 75.5t-63 24.5q-26 0 -48.5 -11t-39.5 -28v-369h-128v692q60 18 128 18v-283q22 42 55 63t81 21q81 0 121.5 -47.5zM196 888q35 9 79 9q42 0 78 -9l93 -127h-63q-62 19 -108 68q-29 -28 -56 -43.5t-55 -24.5
h-61z" />
    <glyph glyph-name="i" unicode="i" horiz-adv-x="255" 
d="M74.5 603q-21.5 21 -21.5 54t21.5 54t53.5 21t53 -21t21 -54q0 -21 -9.5 -38t-26.5 -27t-38 -10q-32 0 -53.5 21zM64 499h128v-499h-128v499z" />
    <glyph glyph-name="dotlessi" unicode="&#x131;" horiz-adv-x="255" 
d="M64 499h128v-499h-128v499z" />
    <glyph glyph-name="iacute" unicode="&#xed;" horiz-adv-x="255" 
d="M64 499h128v-499h-128v499zM103 719q30 10 71.5 15.5t74.5 5.5q-9 -43 -35 -80.5t-64 -60.5t-81 -26h-3z" />
    <glyph glyph-name="ibreve" unicode="&#x12d;" horiz-adv-x="255" 
d="M64 499h128v-499h-128v499zM27.5 611.5q-34.5 37.5 -39.5 95.5q17 4 41.5 6.5t46.5 2.5q3 -27 15 -42t37 -15q23 0 35.5 14.5t17.5 42.5q53 0 85 -9q-3 -36 -19 -66t-46 -48.5t-73 -18.5q-66 0 -100.5 37.5z" />
    <glyph glyph-name="icircumflex" unicode="&#xee;" horiz-adv-x="255" 
d="M64 499h128v-499h-128v499zM269 578h-48q-21 7 -43.5 24.5t-52.5 51.5q-32 -36 -53 -52.5t-44 -23.5h-45l87 150q19 6 54 6q36 0 55 -5z" />
    <glyph glyph-name="idieresis" unicode="&#xef;" horiz-adv-x="255" 
d="M64 499h128v-499h-128v499zM-6 608q-19 20 -19 50q0 31 18.5 50.5t49.5 19.5q29 0 48.5 -19.5t19.5 -50.5q0 -30 -19.5 -50t-48.5 -20q-30 0 -49 20zM161 607.5q-19 19.5 -19 50.5q0 30 19 50t49 20t49 -20t19 -50q0 -31 -19 -50.5t-49 -19.5t-49 19.5z" />
    <glyph glyph-name="igrave" unicode="&#xec;" horiz-adv-x="255" 
d="M64 499h128v-499h-128v499zM193 573q-43 3 -80.5 26t-64 60.5t-34.5 80.5q32 0 74 -5.5t71 -15.5l38 -146h-4z" />
    <glyph glyph-name="ij" unicode="&#x133;" horiz-adv-x="509" 
d="M74.5 603q-21.5 21 -21.5 54t21.5 54t53.5 21t53 -21t21 -54q0 -21 -9.5 -38t-26.5 -27t-38 -10q-32 0 -53.5 21zM64 499h128v-499h-128v499zM328 603q-21 21 -21 54t21 54t54 21q32 0 52.5 -21t20.5 -54q0 -32 -21 -53.5t-52 -21.5q-33 0 -54 21zM215 -218q3 44 12 100
q17 -4 36 -4q29 0 42.5 14.5t13.5 47.5v559h128v-553q0 -87 -41 -130t-125 -43q-36 0 -66 9z" />
    <glyph glyph-name="imacron" unicode="&#x12b;" horiz-adv-x="255" 
d="M64 499h128v-499h-128v499zM12 703h246q-1 -24 -4 -46t-8 -46h-246q1 42 12 92z" />
    <glyph glyph-name="iogonek" unicode="&#x12f;" horiz-adv-x="255" 
d="M74.5 603q-21.5 21 -21.5 54t21.5 54t53.5 21t53 -21t21 -54q0 -21 -9.5 -38t-26.5 -27t-38 -10q-32 0 -53.5 21zM210 -122q-1 -39 -9 -85q-7 -4 -21 -6.5t-31 -2.5q-51 0 -83 28t-32 80q0 33 13 58.5t40 49.5h-23v499h128v-499h-13q-24 -22 -36 -43.5t-12 -44.5
q0 -22 11 -33t30 -11q23 0 38 10z" />
    <glyph glyph-name="itilde" unicode="&#x129;" horiz-adv-x="255" 
d="M64 499h128v-499h-128v499zM149 594.5q-18 10.5 -38 27.5q-7 6 -13.5 10.5t-9.5 4.5q-8 0 -11 -5.5t-3 -18.5v-29h-74v51q0 43 18 64t49 21q22 0 40 -11t40 -29q16 -14 21 -14q14 0 14 23v30h74v-53q0 -42 -18.5 -62t-51.5 -20q-19 0 -37 10.5z" />
    <glyph glyph-name="j" unicode="j" horiz-adv-x="254" 
d="M73 603q-21 21 -21 54t21 54t54 21q32 0 52.5 -21t20.5 -54q0 -32 -21 -53.5t-52 -21.5q-33 0 -54 21zM-40 -218q3 44 12 100q17 -4 36 -4q29 0 42.5 14.5t13.5 47.5v559h128v-553q0 -87 -41 -130t-125 -43q-36 0 -66 9z" />
    <glyph glyph-name="uni0237" unicode="&#x237;" horiz-adv-x="255" 
d="M-40 -218q3 44 12 100q17 -4 36 -4q29 0 42.5 14.5t13.5 47.5v559h128v-553q0 -87 -41 -130t-125 -43q-36 0 -66 9z" />
    <glyph glyph-name="jcircumflex" unicode="&#x135;" horiz-adv-x="255" 
d="M-40 -218q3 44 12 100q17 -4 36 -4q29 0 42.5 14.5t13.5 47.5v559h128v-553q0 -87 -41 -130t-125 -43q-36 0 -66 9zM268 578h-48q-21 7 -43.5 24.5t-52.5 51.5q-32 -36 -53 -52.5t-44 -23.5h-45l87 150q19 6 54 6q36 0 55 -5z" />
    <glyph glyph-name="k" unicode="k" horiz-adv-x="521" 
d="M64 692q63 18 128 18v-710h-128v692zM516 0h-152l-161 266v7l150 226h145l-164 -226z" />
    <glyph glyph-name="uni0137" unicode="&#x137;" horiz-adv-x="521" 
d="M64 692q63 18 128 18v-710h-128v692zM516 0h-152l-161 266v7l150 226h145l-164 -226zM207.5 -165q2.5 38 2.5 87q34 10 60.5 14t59.5 4q-4 -61 -31 -109t-72 -78h-27q5 44 7.5 82z" />
    <glyph glyph-name="kgreenlandic" unicode="&#x138;" horiz-adv-x="521" 
d="M364 0l-172 260v-260h-128v499h128v-221l161 221h145l-176 -227l194 -272h-152z" />
    <glyph glyph-name="l" unicode="l" horiz-adv-x="295" 
d="M92.5 27.5q-33.5 39.5 -33.5 114.5v550q63 18 128 18v-561q0 -28 11.5 -42.5t36.5 -14.5q23 0 41 8q-1 -23 -4.5 -50.5t-8.5 -49.5q-28 -12 -72 -12q-65 0 -98.5 39.5z" />
    <glyph glyph-name="lacute" unicode="&#x13a;" horiz-adv-x="295" 
d="M92.5 27.5q-33.5 39.5 -33.5 114.5v550q63 18 128 18v-561q0 -28 11.5 -42.5t36.5 -14.5q23 0 41 8q-1 -23 -4.5 -50.5t-8.5 -49.5q-28 -12 -72 -12q-65 0 -98.5 39.5zM132 881q13 3 36.5 5t43.5 2q24 0 47.5 -3t37.5 -7q-34 -52 -88.5 -84.5t-116.5 -32.5h-21z" />
    <glyph glyph-name="lcaron" unicode="&#x13e;" horiz-adv-x="295" 
d="M92.5 27.5q-33.5 39.5 -33.5 114.5v550q63 18 128 18v-561q0 -28 11.5 -42.5t36.5 -14.5q23 0 41 8q-1 -23 -4.5 -50.5t-8.5 -49.5q-28 -12 -72 -12q-65 0 -98.5 39.5zM224.5 605q2.5 38 2.5 87q34 10 60.5 14t59.5 4q-4 -61 -31 -109t-72 -78h-27q5 44 7.5 82z" />
    <glyph glyph-name="uni013C" unicode="&#x13c;" horiz-adv-x="295" 
d="M92.5 27.5q-33.5 39.5 -33.5 114.5v550q63 18 128 18v-561q0 -28 11.5 -42.5t36.5 -14.5q23 0 41 8q-1 -23 -4.5 -50.5t-8.5 -49.5q-28 -12 -72 -12q-65 0 -98.5 39.5zM121.5 -165q2.5 38 2.5 87q34 10 60.5 14t59.5 4q-4 -61 -31 -109t-72 -78h-27q5 44 7.5 82z" />
    <glyph glyph-name="ldot" unicode="&#x140;" horiz-adv-x="411" 
d="M92.5 27.5q-33.5 39.5 -33.5 114.5v550q63 18 128 18v-561q0 -28 11.5 -42.5t36.5 -14.5q23 0 41 8q-1 -23 -4.5 -50.5t-8.5 -49.5q-28 -12 -72 -12q-65 0 -98.5 39.5zM266 335q-21 21 -21 54t21 54t54 21q32 0 52.5 -21t20.5 -54q0 -32 -21 -53.5t-52 -21.5
q-33 0 -54 21z" />
    <glyph glyph-name="lslash" unicode="&#x142;" horiz-adv-x="295" 
d="M198.5 106.5q11.5 -14.5 36.5 -14.5q23 0 41 8q-1 -23 -4.5 -50.5t-8.5 -49.5q-28 -12 -72 -12q-65 0 -98.5 39.5t-33.5 114.5v159l-62 -39q2 65 10 100l52 33v297q63 18 128 18v-235l90 56q-2 -63 -9 -98l-81 -51v-233q0 -28 11.5 -42.5z" />
    <glyph glyph-name="m" unicode="m" horiz-adv-x="848" 
d="M750 463q39 -48 39 -132v-331h-128v307q0 52 -18.5 76.5t-63.5 24.5q-25 0 -48.5 -11t-41.5 -30q2 -20 2 -31v-336h-129v308q0 51 -18.5 75.5t-62.5 24.5q-27 0 -49.5 -11t-39.5 -28v-369h-128v499h116l10 -78q22 45 55.5 67.5t83.5 22.5q58 0 95.5 -25t53.5 -69
q24 47 59.5 70.5t92.5 23.5q81 0 120 -48z" />
    <glyph glyph-name="n" unicode="n" horiz-adv-x="549" 
d="M449.5 463.5q40.5 -47.5 40.5 -127.5v-336h-128v308q0 51 -19 75.5t-63 24.5q-26 0 -48.5 -11t-39.5 -28v-369h-128v499h116l9 -77q23 44 56 66.5t83 22.5q81 0 121.5 -47.5z" />
    <glyph glyph-name="nacute" unicode="&#x144;" horiz-adv-x="549" 
d="M449.5 463.5q40.5 -47.5 40.5 -127.5v-336h-128v308q0 51 -19 75.5t-63 24.5q-26 0 -48.5 -11t-39.5 -28v-369h-128v499h116l9 -77q23 44 56 66.5t83 22.5q81 0 121.5 -47.5zM263 719q30 10 71.5 15.5t74.5 5.5q-9 -43 -35 -80.5t-64 -60.5t-81 -26h-3z" />
    <glyph glyph-name="napostrophe" unicode="&#x149;" horiz-adv-x="700" 
d="M600.5 463.5q40.5 -47.5 40.5 -127.5v-336h-128v308q0 51 -19 75.5t-63 24.5q-26 0 -48.5 -11t-39.5 -28v-369h-128v499h116l9 -77q23 44 56 66.5t83 22.5q81 0 121.5 -47.5zM69.5 566q5.5 55 7.5 125q37 10 60.5 13.5t59.5 3.5q-4 -82 -18.5 -140.5t-43.5 -125.5h-83
q12 69 17.5 124z" />
    <glyph glyph-name="ncaron" unicode="&#x148;" horiz-adv-x="549" 
d="M449.5 463.5q40.5 -47.5 40.5 -127.5v-336h-128v308q0 51 -19 75.5t-63 24.5q-26 0 -48.5 -11t-39.5 -28v-369h-128v499h116l9 -77q23 44 56 66.5t83 22.5q81 0 121.5 -47.5zM443 733l-93 -150q-30 -6 -63 -6q-15 0 -30.5 1.5t-29.5 3.5l-97 151h67q22 -10 39.5 -24
t51.5 -51q33 37 54 52t45 23h56z" />
    <glyph glyph-name="uni0146" unicode="&#x146;" horiz-adv-x="549" 
d="M449.5 463.5q40.5 -47.5 40.5 -127.5v-336h-128v308q0 51 -19 75.5t-63 24.5q-26 0 -48.5 -11t-39.5 -28v-369h-128v499h116l9 -77q23 44 56 66.5t83 22.5q81 0 121.5 -47.5zM216.5 -165q2.5 38 2.5 87q34 10 60.5 14t59.5 4q-4 -61 -31 -109t-72 -78h-27q5 44 7.5 82z
" />
    <glyph glyph-name="eng" unicode="&#x14b;" horiz-adv-x="549" 
d="M449.5 463.5q40.5 -47.5 40.5 -127.5v-386q0 -89 -37.5 -131.5t-118.5 -42.5q-30 0 -62 8q3 50 12 99q22 -4 33 -4q23 0 34 14.5t11 45.5v369q0 51 -19 75.5t-63 24.5q-26 0 -48.5 -11t-39.5 -28v-369h-128v499h116l9 -77q23 44 56 66.5t83 22.5q81 0 121.5 -47.5z" />
    <glyph glyph-name="ntilde" unicode="&#xf1;" horiz-adv-x="549" 
d="M449.5 463.5q40.5 -47.5 40.5 -127.5v-336h-128v308q0 51 -19 75.5t-63 24.5q-26 0 -48.5 -11t-39.5 -28v-369h-128v499h116l9 -77q23 44 56 66.5t83 22.5q81 0 121.5 -47.5zM316.5 594q-20.5 10 -44.5 26q-11 7 -21.5 13t-15.5 6q-8 0 -11 -6t-3 -19v-30h-72v58
q0 40 18 59t49 19q21 0 42 -10.5t45 -27.5q11 -7 20.5 -12.5t14.5 -5.5q15 0 15 25v30h72v-58q0 -40 -18.5 -58.5t-51.5 -18.5q-18 0 -38.5 10z" />
    <glyph glyph-name="o" unicode="o" horiz-adv-x="547" 
d="M143 19.5q-54 31.5 -82 90t-28 139.5q0 82 28 141t82 90t130 31t130.5 -31t82.5 -90t28 -141q0 -81 -28.5 -139.5t-83 -90t-129.5 -31.5q-76 0 -130 31.5zM382 249q0 80 -26.5 119.5t-82.5 39.5t-82.5 -39t-26.5 -120q0 -80 27 -119t82 -39q109 0 109 158z" />
    <glyph glyph-name="oacute" unicode="&#xf3;" horiz-adv-x="547" 
d="M143 19.5q-54 31.5 -82 90t-28 139.5q0 82 28 141t82 90t130 31t130.5 -31t82.5 -90t28 -141q0 -81 -28.5 -139.5t-83 -90t-129.5 -31.5q-76 0 -130 31.5zM382 249q0 80 -26.5 119.5t-82.5 39.5t-82.5 -39t-26.5 -120q0 -80 27 -119t82 -39q109 0 109 158zM248 719
q30 10 71.5 15.5t74.5 5.5q-9 -43 -35 -80.5t-64 -60.5t-81 -26h-3z" />
    <glyph glyph-name="obreve" unicode="&#x14f;" horiz-adv-x="547" 
d="M143 19.5q-54 31.5 -82 90t-28 139.5q0 82 28 141t82 90t130 31t130.5 -31t82.5 -90t28 -141q0 -81 -28.5 -139.5t-83 -90t-129.5 -31.5q-76 0 -130 31.5zM382 249q0 80 -26.5 119.5t-82.5 39.5t-82.5 -39t-26.5 -120q0 -80 27 -119t82 -39q109 0 109 158zM161.5 612.5
q-37.5 39.5 -47.5 101.5q19 4 43 6.5t47 2.5q14 -66 69 -66q56 0 70 66q23 0 47 -2.5t42 -6.5q-9 -61 -47.5 -101t-111.5 -40q-74 0 -111.5 39.5z" />
    <glyph glyph-name="ocircumflex" unicode="&#xf4;" horiz-adv-x="547" 
d="M143 19.5q-54 31.5 -82 90t-28 139.5q0 82 28 141t82 90t130 31t130.5 -31t82.5 -90t28 -141q0 -81 -28.5 -139.5t-83 -90t-129.5 -31.5q-76 0 -130 31.5zM382 249q0 80 -26.5 119.5t-82.5 39.5t-82.5 -39t-26.5 -120q0 -80 27 -119t82 -39q109 0 109 158zM429 580h-68
q-21 9 -38.5 23t-51.5 51q-33 -37 -54 -51.5t-45 -22.5h-56l93 150q24 5 63 5t60 -5z" />
    <glyph glyph-name="odieresis" unicode="&#xf6;" horiz-adv-x="547" 
d="M143 19.5q-54 31.5 -82 90t-28 139.5q0 82 28 141t82 90t130 31t130.5 -31t82.5 -90t28 -141q0 -81 -28.5 -139.5t-83 -90t-129.5 -31.5q-76 0 -130 31.5zM382 249q0 80 -26.5 119.5t-82.5 39.5t-82.5 -39t-26.5 -120q0 -80 27 -119t82 -39q109 0 109 158zM124.5 607
q-19.5 20 -19.5 50q0 31 19 50.5t50 19.5q30 0 49.5 -19.5t19.5 -50.5t-19.5 -50.5t-49.5 -19.5t-49.5 20zM319.5 606q-19.5 20 -19.5 50q0 31 19.5 51t50.5 20q29 0 48.5 -20t19.5 -51q0 -30 -19.5 -50t-48.5 -20q-31 0 -50.5 20z" />
    <glyph glyph-name="ograve" unicode="&#xf2;" horiz-adv-x="547" 
d="M143 19.5q-54 31.5 -82 90t-28 139.5q0 82 28 141t82 90t130 31t130.5 -31t82.5 -90t28 -141q0 -81 -28.5 -139.5t-83 -90t-129.5 -31.5q-76 0 -130 31.5zM382 249q0 80 -26.5 119.5t-82.5 39.5t-82.5 -39t-26.5 -120q0 -80 27 -119t82 -39q109 0 109 158zM339 573
q-43 3 -80.5 26t-64 60.5t-34.5 80.5q32 0 74 -5.5t71 -15.5l38 -146h-4z" />
    <glyph glyph-name="ohungarumlaut" unicode="&#x151;" horiz-adv-x="547" 
d="M143 19.5q-54 31.5 -82 90t-28 139.5q0 82 28 141t82 90t130 31t130.5 -31t82.5 -90t28 -141q0 -81 -28.5 -139.5t-83 -90t-129.5 -31.5q-76 0 -130 31.5zM382 249q0 80 -26.5 119.5t-82.5 39.5t-82.5 -39t-26.5 -120q0 -80 27 -119t82 -39q109 0 109 158zM181 720
q22 8 61 12t72 4q-38 -88 -85.5 -126t-102.5 -39h-7zM352 720q21 8 59 11.5t71 3.5q-34 -86 -83 -124.5t-104 -39.5h-6z" />
    <glyph glyph-name="omacron" unicode="&#x14d;" horiz-adv-x="547" 
d="M143 19.5q-54 31.5 -82 90t-28 139.5q0 82 28 141t82 90t130 31t130.5 -31t82.5 -90t28 -141q0 -81 -28.5 -139.5t-83 -90t-129.5 -31.5q-76 0 -130 31.5zM382 249q0 80 -26.5 119.5t-82.5 39.5t-82.5 -39t-26.5 -120q0 -80 27 -119t82 -39q109 0 109 158zM139 701h282
q-1 -24 -3.5 -47t-8.5 -46h-282q1 42 12 93z" />
    <glyph glyph-name="oslash" unicode="&#xf8;" horiz-adv-x="551" 
d="M518 249q0 -81 -28.5 -140t-83 -90t-130.5 -31q-74 0 -128 30l-66 -85q-36 38 -46 73l50 64q-26 33 -39.5 78.5t-13.5 100.5q0 82 28.5 141t83 90t131.5 31q75 0 131 -31l66 84q14 -20 26.5 -42.5t15.5 -37.5l-46 -59q49 -67 49 -176zM169 176l169 216q-25 16 -62 16
q-58 0 -86.5 -39.5t-28.5 -119.5q0 -41 8 -73zM390 249q0 38 -6 68l-167 -212q25 -14 59 -14q114 0 114 158z" />
    <glyph glyph-name="oslashacute" unicode="&#x1ff;" horiz-adv-x="551" 
d="M518 249q0 -81 -28.5 -140t-83 -90t-130.5 -31q-74 0 -128 30l-66 -85q-36 38 -46 73l50 64q-26 33 -39.5 78.5t-13.5 100.5q0 82 28.5 141t83 90t131.5 31q75 0 131 -31l66 84q14 -20 26.5 -42.5t15.5 -37.5l-46 -59q49 -67 49 -176zM169 176l169 216q-25 16 -62 16
q-58 0 -86.5 -39.5t-28.5 -119.5q0 -41 8 -73zM390 249q0 38 -6 68l-167 -212q25 -14 59 -14q114 0 114 158zM251 719q30 10 71.5 15.5t74.5 5.5q-9 -43 -35 -80.5t-64 -60.5t-81 -26h-3z" />
    <glyph glyph-name="otilde" unicode="&#xf5;" horiz-adv-x="547" 
d="M143 19.5q-54 31.5 -82 90t-28 139.5q0 82 28 141t82 90t130 31t130.5 -31t82.5 -90t28 -141q0 -81 -28.5 -139.5t-83 -90t-129.5 -31.5q-76 0 -130 31.5zM382 249q0 80 -26.5 119.5t-82.5 39.5t-82.5 -39t-26.5 -120q0 -80 27 -119t82 -39q109 0 109 158zM301.5 594
q-20.5 10 -44.5 26q-11 7 -21.5 13t-15.5 6q-8 0 -11 -6t-3 -19v-30h-72v58q0 40 18 59t49 19q21 0 42 -10.5t45 -27.5q11 -7 20.5 -12.5t14.5 -5.5q15 0 15 25v30h72v-58q0 -40 -18.5 -58.5t-51.5 -18.5q-18 0 -38.5 10z" />
    <glyph glyph-name="oe" unicode="&#x153;" horiz-adv-x="868" 
d="M826.5 239.5q-1.5 -24.5 -3.5 -38.5h-312q9 -61 44 -86.5t99 -25.5q43 0 81 9t77 28q-9 -75 -16 -106q-38 -17 -75 -24.5t-79 -7.5q-135 0 -196 84q-28 -41 -71.5 -62.5t-101.5 -21.5q-76 0 -130 31.5t-82 90t-28 139.5q0 82 28 141t82 90t130 31q116 0 173 -81
q58 81 169 81q73 0 120.5 -29.5t70 -79.5t22.5 -115q0 -23 -1.5 -47.5zM539 382q-25 -29 -30 -88h194q-3 117 -94 117q-45 0 -70 -29zM382 249q0 80 -26.5 119.5t-82.5 39.5t-82.5 -39t-26.5 -120q0 -80 27 -119t82 -39q109 0 109 158z" />
    <glyph glyph-name="p" unicode="p" horiz-adv-x="551" 
d="M420 483.5q44 -27.5 69 -84.5t25 -143q0 -129 -60.5 -198.5t-195.5 -69.5q-34 0 -66 3v-203h-128v711h118l7 -69q20 40 51 60.5t78 20.5q58 0 102 -27.5zM354.5 131.5q28.5 40.5 28.5 119.5q0 81 -26.5 119t-80.5 38q-49 0 -84 -33v-278q29 -6 67 -6q67 0 95.5 40.5z" />
    <glyph glyph-name="thorn" unicode="&#xfe;" horiz-adv-x="551" 
d="M420 483.5q44 -27.5 69 -84.5t25 -143q0 -129 -60.5 -198.5t-195.5 -69.5q-34 0 -66 3v-203h-128v904q62 18 128 18v-275q20 37 50 56.5t76 19.5q58 0 102 -27.5zM354.5 131.5q28.5 40.5 28.5 119.5q0 81 -26.5 119t-80.5 38q-49 0 -84 -33v-278q29 -6 67 -6
q67 0 95.5 40.5z" />
    <glyph glyph-name="q" unicode="q" horiz-adv-x="551" 
d="M487 485v-697h-128v278q-19 -38 -49.5 -58t-77.5 -20q-58 0 -102 27.5t-69 84.5t-25 143q0 129 60.5 198.5t195.5 69.5q110 0 194 -26h1zM359 125v277q-29 6 -68 6q-67 0 -95.5 -40.5t-28.5 -119.5q0 -81 26.5 -119t80.5 -38q49 0 85 34z" />
    <glyph glyph-name="r" unicode="r" horiz-adv-x="365" 
d="M358 502q0 -28 -3 -57.5t-8 -50.5q-30 4 -56 4q-25 0 -52 -7.5t-47 -23.5v-367h-128v499h119l7 -71q18 38 48 60t66 22q34 0 54 -8z" />
    <glyph glyph-name="racute" unicode="&#x155;" horiz-adv-x="365" 
d="M358 502q0 -28 -3 -57.5t-8 -50.5q-30 4 -56 4q-25 0 -52 -7.5t-47 -23.5v-367h-128v499h119l7 -71q18 38 48 60t66 22q34 0 54 -8zM193 719q30 10 71.5 15.5t74.5 5.5q-9 -43 -35 -80.5t-64 -60.5t-81 -26h-3z" />
    <glyph glyph-name="rcaron" unicode="&#x159;" horiz-adv-x="365" 
d="M358 502q0 -28 -3 -57.5t-8 -50.5q-30 4 -56 4q-25 0 -52 -7.5t-47 -23.5v-367h-128v499h119l7 -71q18 38 48 60t66 22q34 0 54 -8zM362 733l-87 -150q-19 -6 -55 -6q-34 0 -54 4l-90 152h48q21 -7 43 -24.5t53 -51.5q32 37 53 53t44 23h45z" />
    <glyph glyph-name="uni0157" unicode="&#x157;" horiz-adv-x="365" 
d="M358 502q0 -28 -3 -57.5t-8 -50.5q-30 4 -56 4q-25 0 -52 -7.5t-47 -23.5v-367h-128v499h119l7 -71q18 38 48 60t66 22q34 0 54 -8zM62.5 -165q2.5 38 2.5 87q34 10 60.5 14t59.5 4q-4 -61 -31 -109t-72 -78h-27q5 44 7.5 82z" />
    <glyph glyph-name="s" unicode="s" horiz-adv-x="448" 
d="M117 -2.5q-43 9.5 -75 25.5q0 49 16 99q72 -35 139 -35q41 0 61 12t20 37q0 20 -14 32.5t-47 23.5l-43 14q-64 21 -98 57.5t-34 97.5q0 69 49.5 109.5t147.5 40.5q91 0 151 -23q-2 -48 -14 -98q-32 11 -62 16.5t-65 5.5q-43 0 -61.5 -11.5t-18.5 -33.5q0 -20 15.5 -33.5
t50.5 -24.5l47 -16q67 -22 98 -57.5t31 -92.5q0 -45 -22 -80t-67.5 -55t-112.5 -20q-49 0 -92 9.5z" />
    <glyph glyph-name="sacute" unicode="&#x15b;" horiz-adv-x="448" 
d="M117 -2.5q-43 9.5 -75 25.5q0 49 16 99q72 -35 139 -35q41 0 61 12t20 37q0 20 -14 32.5t-47 23.5l-43 14q-64 21 -98 57.5t-34 97.5q0 69 49.5 109.5t147.5 40.5q91 0 151 -23q-2 -48 -14 -98q-32 11 -62 16.5t-65 5.5q-43 0 -61.5 -11.5t-18.5 -33.5q0 -20 15.5 -33.5
t50.5 -24.5l47 -16q67 -22 98 -57.5t31 -92.5q0 -45 -22 -80t-67.5 -55t-112.5 -20q-49 0 -92 9.5zM198 719q30 10 71.5 15.5t74.5 5.5q-9 -43 -35 -80.5t-64 -60.5t-81 -26h-3z" />
    <glyph glyph-name="scaron" unicode="&#x161;" horiz-adv-x="448" 
d="M117 -2.5q-43 9.5 -75 25.5q0 49 16 99q72 -35 139 -35q41 0 61 12t20 37q0 20 -14 32.5t-47 23.5l-43 14q-64 21 -98 57.5t-34 97.5q0 69 49.5 109.5t147.5 40.5q91 0 151 -23q-2 -48 -14 -98q-32 11 -62 16.5t-65 5.5q-43 0 -61.5 -11.5t-18.5 -33.5q0 -20 15.5 -33.5
t50.5 -24.5l47 -16q67 -22 98 -57.5t31 -92.5q0 -45 -22 -80t-67.5 -55t-112.5 -20q-49 0 -92 9.5zM378 733l-93 -150q-30 -6 -63 -6q-15 0 -30.5 1.5t-29.5 3.5l-97 151h67q22 -10 39.5 -24t51.5 -51q33 37 54 52t45 23h56z" />
    <glyph glyph-name="scedilla" unicode="&#x15f;" horiz-adv-x="448" 
d="M371 40.5q-40 -41.5 -120 -50.5l-11 -34q39 -11 58 -32t19 -52q0 -43 -30 -67.5t-87 -24.5q-40 0 -69 11q2 36 11 64q27 -9 50 -9q42 0 42 29q0 17 -19.5 25t-61.5 9l25 80q-81 6 -136 34q0 49 16 99q72 -35 139 -35q41 0 61 12t20 37q0 20 -14 32.5t-47 23.5l-43 14
q-64 21 -98 57.5t-34 97.5q0 69 49.5 109.5t147.5 40.5q91 0 151 -23q-2 -48 -14 -98q-32 11 -62 16.5t-65 5.5q-43 0 -61.5 -11.5t-18.5 -33.5q0 -20 15.5 -33.5t50.5 -24.5l47 -16q67 -22 98 -57.5t31 -92.5q0 -61 -40 -102.5z" />
    <glyph glyph-name="scircumflex" unicode="&#x15d;" horiz-adv-x="448" 
d="M117 -2.5q-43 9.5 -75 25.5q0 49 16 99q72 -35 139 -35q41 0 61 12t20 37q0 20 -14 32.5t-47 23.5l-43 14q-64 21 -98 57.5t-34 97.5q0 69 49.5 109.5t147.5 40.5q91 0 151 -23q-2 -48 -14 -98q-32 11 -62 16.5t-65 5.5q-43 0 -61.5 -11.5t-18.5 -33.5q0 -20 15.5 -33.5
t50.5 -24.5l47 -16q67 -22 98 -57.5t31 -92.5q0 -45 -22 -80t-67.5 -55t-112.5 -20q-49 0 -92 9.5zM379 580h-68q-21 9 -38.5 23t-51.5 51q-33 -37 -54 -51.5t-45 -22.5h-56l93 150q24 5 63 5t60 -5z" />
    <glyph glyph-name="uni0219" unicode="&#x219;" horiz-adv-x="448" 
d="M117 -2.5q-43 9.5 -75 25.5q0 49 16 99q72 -35 139 -35q41 0 61 12t20 37q0 20 -14 32.5t-47 23.5l-43 14q-64 21 -98 57.5t-34 97.5q0 69 49.5 109.5t147.5 40.5q91 0 151 -23q-2 -48 -14 -98q-32 11 -62 16.5t-65 5.5q-43 0 -61.5 -11.5t-18.5 -33.5q0 -20 15.5 -33.5
t50.5 -24.5l47 -16q67 -22 98 -57.5t31 -92.5q0 -45 -22 -80t-67.5 -55t-112.5 -20q-49 0 -92 9.5zM161.5 -165q2.5 38 2.5 87q34 10 60.5 14t59.5 4q-4 -61 -31 -109t-72 -78h-27q5 44 7.5 82z" />
    <glyph glyph-name="germandbls" unicode="&#xdf;" horiz-adv-x="580" 
d="M519 310q28 -47 28 -110q0 -68 -26.5 -115.5t-74 -71.5t-111.5 -24q-23 0 -45.5 3.5t-38.5 9.5q1 45 10 102q24 -8 51 -8q48 0 74 25.5t26 79.5q0 58 -30 85.5t-93 27.5h-25v101h20q48 0 74.5 24.5t26.5 71.5q0 44 -23.5 68t-70.5 24q-51 0 -75 -27.5t-24 -84.5v-491
h-128v503q0 62 25 108.5t76.5 72.5t126.5 26q69 0 118.5 -22t75.5 -64t26 -100q0 -48 -19.5 -85.5t-57.5 -58.5q56 -23 84 -70z" />
    <glyph glyph-name="longs" unicode="&#x17f;" horiz-adv-x="332" 
d="M64 532q0 90 49 134t148 44q42 0 81 -11q0 -37 -11 -101q-24 8 -59 8q-43 0 -61.5 -20t-18.5 -65v-521h-128v532z" />
    <glyph glyph-name="t" unicode="t" horiz-adv-x="354" 
d="M203 112q16 -19 50 -19q17 0 35.5 4.5t33.5 11.5q-3 -53 -14 -103q-39 -18 -89 -18q-78 0 -119 42t-41 128v479q60 17 128 17v-155h141q-5 -60 -12 -101h-129v-226q0 -41 16 -60z" />
    <glyph glyph-name="tbar" unicode="&#x167;" horiz-adv-x="354" 
d="M203 112q16 -19 50 -19q17 0 35.5 4.5t33.5 11.5q-3 -53 -14 -103q-39 -18 -89 -18q-78 0 -119 42t-41 128v77h-78q2 45 11 79h67v323q60 17 128 17v-155h141q-5 -60 -12 -101h-129v-84h121q-2 -40 -11 -79h-110v-63q0 -41 16 -60z" />
    <glyph glyph-name="tcaron" unicode="&#x165;" horiz-adv-x="354" 
d="M337.5 696.5q26.5 3.5 59.5 3.5q-4 -57 -31 -103t-72 -75h-27q5 39 7 75.5t2 86.5q35 9 61.5 12.5zM187 398v-226q0 -41 16 -60t50 -19q17 0 35.5 4.5t33.5 11.5q-3 -53 -14 -103q-39 -18 -89 -18q-78 0 -119 42t-41 128v479q60 17 128 17v-155h141q-5 -60 -12 -101h-129
z" />
    <glyph glyph-name="uni0163" unicode="&#x163;" horiz-adv-x="354" 
d="M203 112q16 -19 50 -19q17 0 35.5 4.5t33.5 11.5q-3 -53 -14 -103q-36 -16 -83 -18l-11 -32q39 -11 58 -32t19 -52q0 -43 -30 -67.5t-87 -24.5q-40 0 -69 11q2 36 11 64q27 -9 50 -9q42 0 42 29q0 17 -19.5 25t-61.5 9l27 88q-95 31 -95 161v479q60 17 128 17v-155h141
q-5 -60 -12 -101h-129v-226q0 -41 16 -60z" />
    <glyph glyph-name="uni021B" unicode="&#x21b;" horiz-adv-x="354" 
d="M203 112q16 -19 50 -19q17 0 35.5 4.5t33.5 11.5q-3 -53 -14 -103q-39 -18 -89 -18q-78 0 -119 42t-41 128v479q60 17 128 17v-155h141q-5 -60 -12 -101h-129v-226q0 -41 16 -60zM135.5 -165q2.5 38 2.5 87q34 10 60.5 14t59.5 4q-4 -61 -31 -109t-72 -78h-27
q5 44 7.5 82z" />
    <glyph glyph-name="u" unicode="u" horiz-adv-x="549" 
d="M485 499v-499h-116l-9 77q-23 -44 -56 -66.5t-83 -22.5q-82 0 -122 47.5t-40 128.5v335h128v-308q0 -51 19 -75.5t63 -24.5q27 0 50 11.5t38 28.5v368h128z" />
    <glyph glyph-name="uacute" unicode="&#xfa;" horiz-adv-x="549" 
d="M485 499v-499h-116l-9 77q-23 -44 -56 -66.5t-83 -22.5q-82 0 -122 47.5t-40 128.5v335h128v-308q0 -51 19 -75.5t63 -24.5q27 0 50 11.5t38 28.5v368h128zM247 719q30 10 71.5 15.5t74.5 5.5q-9 -43 -35 -80.5t-64 -60.5t-81 -26h-3z" />
    <glyph glyph-name="ubreve" unicode="&#x16d;" horiz-adv-x="549" 
d="M485 499v-499h-116l-9 77q-23 -44 -56 -66.5t-83 -22.5q-82 0 -122 47.5t-40 128.5v335h128v-308q0 -51 19 -75.5t63 -24.5q27 0 50 11.5t38 28.5v368h128zM160.5 612.5q-37.5 39.5 -47.5 101.5q19 4 43 6.5t47 2.5q14 -66 69 -66q56 0 70 66q23 0 47 -2.5t42 -6.5
q-9 -61 -47.5 -101t-111.5 -40q-74 0 -111.5 39.5z" />
    <glyph glyph-name="ucircumflex" unicode="&#xfb;" horiz-adv-x="549" 
d="M485 499v-499h-116l-9 77q-23 -44 -56 -66.5t-83 -22.5q-82 0 -122 47.5t-40 128.5v335h128v-308q0 -51 19 -75.5t63 -24.5q27 0 50 11.5t38 28.5v368h128zM428 580h-68q-21 9 -38.5 23t-51.5 51q-33 -37 -54 -51.5t-45 -22.5h-56l93 150q24 5 63 5t60 -5z" />
    <glyph glyph-name="udieresis" unicode="&#xfc;" horiz-adv-x="549" 
d="M485 499v-499h-116l-9 77q-23 -44 -56 -66.5t-83 -22.5q-82 0 -122 47.5t-40 128.5v335h128v-308q0 -51 19 -75.5t63 -24.5q27 0 50 11.5t38 28.5v368h128zM124.5 607q-19.5 20 -19.5 50q0 31 19 50.5t50 19.5q30 0 49.5 -19.5t19.5 -50.5t-19.5 -50.5t-49.5 -19.5
t-49.5 20zM319.5 606q-19.5 20 -19.5 50q0 31 19.5 51t50.5 20q29 0 48.5 -20t19.5 -51q0 -30 -19.5 -50t-48.5 -20q-31 0 -50.5 20z" />
    <glyph glyph-name="ugrave" unicode="&#xf9;" horiz-adv-x="549" 
d="M485 499v-499h-116l-9 77q-23 -44 -56 -66.5t-83 -22.5q-82 0 -122 47.5t-40 128.5v335h128v-308q0 -51 19 -75.5t63 -24.5q27 0 50 11.5t38 28.5v368h128zM338 573q-43 3 -80.5 26t-64 60.5t-34.5 80.5q32 0 74 -5.5t71 -15.5l38 -146h-4z" />
    <glyph glyph-name="uhungarumlaut" unicode="&#x171;" horiz-adv-x="549" 
d="M485 499v-499h-116l-9 77q-23 -44 -56 -66.5t-83 -22.5q-82 0 -122 47.5t-40 128.5v335h128v-308q0 -51 19 -75.5t63 -24.5q27 0 50 11.5t38 28.5v368h128zM180 720q22 8 61 12t72 4q-38 -88 -85.5 -126t-102.5 -39h-7zM351 720q21 8 59 11.5t71 3.5q-34 -86 -83 -124.5
t-104 -39.5h-6z" />
    <glyph glyph-name="umacron" unicode="&#x16b;" horiz-adv-x="549" 
d="M485 499v-499h-116l-9 77q-23 -44 -56 -66.5t-83 -22.5q-82 0 -122 47.5t-40 128.5v335h128v-308q0 -51 19 -75.5t63 -24.5q27 0 50 11.5t38 28.5v368h128zM138 701h282q-1 -24 -3.5 -47t-8.5 -46h-282q1 42 12 93z" />
    <glyph glyph-name="uogonek" unicode="&#x173;" horiz-adv-x="549" 
d="M468.5 -134.5q11.5 3.5 20.5 6.5q-2 -31 -10 -84q-22 -9 -59 -9q-57 0 -90.5 28t-33.5 81q0 70 72 117l-8 72q-23 -44 -56 -66.5t-83 -22.5q-82 0 -122 47.5t-40 128.5v335h128v-308q0 -51 19 -75.5t63 -24.5q27 0 50 11.5t38 28.5v368h128v-499h-31q-29 -16 -43 -41.5
t-14 -48.5q0 -48 49 -48q11 0 22.5 3.5z" />
    <glyph glyph-name="uring" unicode="&#x16f;" horiz-adv-x="549" 
d="M485 499v-499h-116l-9 77q-23 -44 -56 -66.5t-83 -22.5q-82 0 -122 47.5t-40 128.5v335h128v-308q0 -51 19 -75.5t63 -24.5q27 0 50 11.5t38 28.5v368h128zM212 574q-28 14 -43.5 40t-15.5 59q0 34 15.5 60t43.5 40t62 14q33 0 60.5 -14t43 -40t15.5 -60q0 -33 -15.5 -59
t-43 -40t-60.5 -14q-34 0 -62 14zM307.5 637q12.5 14 12.5 36q0 23 -12.5 37t-33.5 14q-22 0 -34.5 -14t-12.5 -37q0 -22 13 -36t34 -14t33.5 14z" />
    <glyph glyph-name="utilde" unicode="&#x169;" horiz-adv-x="549" 
d="M485 499v-499h-116l-9 77q-23 -44 -56 -66.5t-83 -22.5q-82 0 -122 47.5t-40 128.5v335h128v-308q0 -51 19 -75.5t63 -24.5q27 0 50 11.5t38 28.5v368h128zM301.5 594q-20.5 10 -44.5 26q-11 7 -21.5 13t-15.5 6q-8 0 -11 -6t-3 -19v-30h-72v58q0 40 18 59t49 19
q21 0 42 -10.5t45 -27.5q11 -7 20.5 -12.5t14.5 -5.5q15 0 15 25v30h72v-58q0 -40 -18.5 -58.5t-51.5 -18.5q-18 0 -38.5 10z" />
    <glyph glyph-name="v" unicode="v" horiz-adv-x="492" 
d="M485 499l-176 -499h-125l-176 499h135l106 -366l105 366h131z" />
    <glyph glyph-name="w" unicode="w" horiz-adv-x="798" 
d="M785 499l-156 -499h-125l-103 338l-104 -338h-119l-165 499h134l94 -359l99 359h126l107 -364l86 364h126z" />
    <glyph glyph-name="wacute" unicode="&#x1e83;" horiz-adv-x="798" 
d="M785 499l-156 -499h-125l-103 338l-104 -338h-119l-165 499h134l94 -359l99 359h126l107 -364l86 364h126zM376 719q30 10 71.5 15.5t74.5 5.5q-9 -43 -35 -80.5t-64 -60.5t-81 -26h-3z" />
    <glyph glyph-name="wcircumflex" unicode="&#x175;" horiz-adv-x="798" 
d="M785 499l-156 -499h-125l-103 338l-104 -338h-119l-165 499h134l94 -359l99 359h126l107 -364l86 364h126zM557 580h-68q-21 9 -38.5 23t-51.5 51q-33 -37 -54 -51.5t-45 -22.5h-56l93 150q24 5 63 5t60 -5z" />
    <glyph glyph-name="wdieresis" unicode="&#x1e85;" horiz-adv-x="798" 
d="M785 499l-156 -499h-125l-103 338l-104 -338h-119l-165 499h134l94 -359l99 359h126l107 -364l86 364h126zM252.5 607q-19.5 20 -19.5 50q0 31 19 50.5t50 19.5q30 0 49.5 -19.5t19.5 -50.5t-19.5 -50.5t-49.5 -19.5t-49.5 20zM447.5 606q-19.5 20 -19.5 50q0 31 19.5 51
t50.5 20q29 0 48.5 -20t19.5 -51q0 -30 -19.5 -50t-48.5 -20q-31 0 -50.5 20z" />
    <glyph glyph-name="wgrave" unicode="&#x1e81;" horiz-adv-x="798" 
d="M785 499l-156 -499h-125l-103 338l-104 -338h-119l-165 499h134l94 -359l99 359h126l107 -364l86 364h126zM466 573q-43 3 -80.5 26t-64 60.5t-34.5 80.5q32 0 74 -5.5t71 -15.5l38 -146h-4z" />
    <glyph glyph-name="x" unicode="x" horiz-adv-x="491" 
d="M340 0l-97 147l-99 -147h-139l173 245l-171 254h144l95 -152l98 152h137l-170 -250l175 -249h-146z" />
    <glyph glyph-name="y" unicode="y" horiz-adv-x="508" 
d="M501 499l-184 -544q-29 -86 -81 -132.5t-133 -46.5q-25 0 -51 6q2 63 8 104q18 -4 32 -4q42 0 69.5 19.5t45.5 69.5l-199 528h132l124 -377l112 377h125z" />
    <glyph glyph-name="yacute" unicode="&#xfd;" horiz-adv-x="508" 
d="M501 499l-184 -544q-29 -86 -81 -132.5t-133 -46.5q-25 0 -51 6q2 63 8 104q18 -4 32 -4q42 0 69.5 19.5t45.5 69.5l-199 528h132l124 -377l112 377h125zM231 719q30 10 71.5 15.5t74.5 5.5q-9 -43 -35 -80.5t-64 -60.5t-81 -26h-3z" />
    <glyph glyph-name="ycircumflex" unicode="&#x177;" horiz-adv-x="508" 
d="M501 499l-184 -544q-29 -86 -81 -132.5t-133 -46.5q-25 0 -51 6q2 63 8 104q18 -4 32 -4q42 0 69.5 19.5t45.5 69.5l-199 528h132l124 -377l112 377h125zM412 580h-68q-21 9 -38.5 23t-51.5 51q-33 -37 -54 -51.5t-45 -22.5h-56l93 150q24 5 63 5t60 -5z" />
    <glyph glyph-name="ydieresis" unicode="&#xff;" horiz-adv-x="508" 
d="M501 499l-184 -544q-29 -86 -81 -132.5t-133 -46.5q-25 0 -51 6q2 63 8 104q18 -4 32 -4q42 0 69.5 19.5t45.5 69.5l-199 528h132l124 -377l112 377h125zM108.5 607q-19.5 20 -19.5 50q0 31 19 50.5t50 19.5q30 0 49.5 -19.5t19.5 -50.5t-19.5 -50.5t-49.5 -19.5
t-49.5 20zM303.5 606q-19.5 20 -19.5 50q0 31 19.5 51t50.5 20q29 0 48.5 -20t19.5 -51q0 -30 -19.5 -50t-48.5 -20q-31 0 -50.5 20z" />
    <glyph glyph-name="ygrave" unicode="&#x1ef3;" horiz-adv-x="508" 
d="M501 499l-184 -544q-29 -86 -81 -132.5t-133 -46.5q-25 0 -51 6q2 63 8 104q18 -4 32 -4q42 0 69.5 19.5t45.5 69.5l-199 528h132l124 -377l112 377h125zM322 573q-43 3 -80.5 26t-64 60.5t-34.5 80.5q32 0 74 -5.5t71 -15.5l38 -146h-4z" />
    <glyph glyph-name="z" unicode="z" horiz-adv-x="473" 
d="M435 104q-7 -70 -14 -104h-383q0 42 4 75l219 320h-221q5 63 15 104h370q0 -31 -7 -73l-221 -322h238z" />
    <glyph glyph-name="zacute" unicode="&#x17a;" horiz-adv-x="473" 
d="M435 104q-7 -70 -14 -104h-383q0 42 4 75l219 320h-221q5 63 15 104h370q0 -31 -7 -73l-221 -322h238zM208 719q30 10 71.5 15.5t74.5 5.5q-9 -43 -35 -80.5t-64 -60.5t-81 -26h-3z" />
    <glyph glyph-name="zcaron" unicode="&#x17e;" horiz-adv-x="473" 
d="M435 104q-7 -70 -14 -104h-383q0 42 4 75l219 320h-221q5 63 15 104h370q0 -31 -7 -73l-221 -322h238zM388 733l-93 -150q-30 -6 -63 -6q-15 0 -30.5 1.5t-29.5 3.5l-97 151h67q22 -10 39.5 -24t51.5 -51q33 37 54 52t45 23h56z" />
    <glyph glyph-name="zdotaccent" unicode="&#x17c;" horiz-adv-x="473" 
d="M435 104q-7 -70 -14 -104h-383q0 42 4 75l219 320h-221q5 63 15 104h370q0 -31 -7 -73l-221 -322h238zM180 603q-21 21 -21 54t21 54t54 21q32 0 52.5 -21t20.5 -54q0 -32 -21 -53.5t-52 -21.5q-33 0 -54 21z" />
    <glyph glyph-name="f_b.dlig" horiz-adv-x="857" 
d="M209 588.5q-18 -19.5 -18 -58.5v-31h134q-3 -51 -11 -101h-123v-398h-127v528q0 88 45.5 135t136.5 47q46 0 85 -11q-2 -55 -11 -99q-30 8 -59 8q-34 0 -52 -19.5zM727 484.5q44 -27.5 69 -85t25 -142.5q0 -129 -61 -199t-196 -70q-105 0 -194 27v677q63 18 128 18v-275
q39 77 127 77q58 0 102 -27.5zM661.5 132q28.5 41 28.5 119q0 81 -26.5 119t-80.5 38q-49 0 -85 -34v-277q29 -6 67 -6q68 0 96.5 41z" />
    <glyph glyph-name="f_f_b.dlig" horiz-adv-x="1149" 
d="M501 588.5q-18 -19.5 -18 -58.5v-31h134q-3 -51 -11 -101h-123v-398h-127v398h-165v-398h-127v528q0 88 45.5 135t136.5 47q27 0 48 -2.5t43 -8.5q-1 -49 -12 -100q-30 9 -62 9q-72 0 -72 -78v-31h165v29q0 88 45.5 135t136.5 47q46 0 85 -11q-2 -55 -11 -99q-30 8 -59 8
q-34 0 -52 -19.5zM1019 484.5q44 -27.5 69 -85t25 -142.5q0 -129 -61 -199t-196 -70q-105 0 -194 27v677q63 18 128 18v-275q39 77 127 77q58 0 102 -27.5zM953.5 132q28.5 41 28.5 119q0 81 -26.5 119t-80.5 38q-49 0 -85 -34v-277q28 -6 67 -6q68 0 96.5 41z" />
    <glyph glyph-name="f_f_h.dlig" horiz-adv-x="1148" 
d="M501 588.5q-18 -19.5 -18 -58.5v-31h134q-3 -51 -11 -101h-123v-398h-127v398h-165v-398h-127v528q0 88 45.5 135t136.5 47q27 0 48 -2.5t43 -8.5q-1 -49 -12 -100q-30 9 -62 9q-72 0 -72 -78v-31h165v29q0 88 45.5 135t136.5 47q46 0 85 -11q-2 -55 -11 -99q-30 8 -59 8
q-34 0 -52 -19.5zM1048.5 463.5q40.5 -47.5 40.5 -127.5v-336h-129v308q0 51 -18.5 75.5t-62.5 24.5q-27 0 -49.5 -11t-39.5 -28v-369h-128v692q62 18 128 18v-284q22 42 55 63.5t82 21.5q81 0 121.5 -47.5z" />
    <glyph glyph-name="f_f_j.dlig" horiz-adv-x="853" 
d="M672 603q-21 21 -21 54t21 54t54 21q32 0 52.5 -21t20.5 -54q0 -32 -21 -53.5t-52 -21.5q-33 0 -54 21zM484 398v-398h-128v398h-165v-398h-127v528q0 88 45.5 135t136.5 47q27 0 48 -2.5t43 -8.5q-1 -49 -12 -100q-30 9 -62 9q-72 0 -72 -78v-31h165v29q0 88 45.5 135
t136.5 47q26 0 45.5 -2.5t39.5 -8.5q0 -43 -10 -99q-30 8 -59 8q-34 0 -52 -19.5t-18 -58.5v-31h134q-1 -8 -4 -41t-7 -60h-123zM663 499h128v-553q0 -87 -41 -130t-125 -43q-36 0 -66 9q3 44 12 100q17 -4 36 -4q29 0 42.5 14.5t13.5 47.5v559z" />
    <glyph glyph-name="f_f_k.dlig" horiz-adv-x="1119" 
d="M501 588.5q-18 -19.5 -18 -58.5v-31h134q-3 -51 -11 -101h-123v-398h-127v398h-165v-398h-127v528q0 88 45.5 135t136.5 47q27 0 48 -2.5t43 -8.5q-1 -49 -12 -100q-30 9 -62 9q-72 0 -72 -78v-31h165v29q0 88 45.5 135t136.5 47q46 0 85 -11q-2 -55 -11 -99q-30 8 -59 8
q-34 0 -52 -19.5zM662 692q63 18 128 18v-710h-128v692zM1114 0h-152l-160 266v7l150 226h145l-165 -227z" />
    <glyph glyph-name="f_h.dlig" horiz-adv-x="856" 
d="M209 588.5q-18 -19.5 -18 -58.5v-31h134q-3 -51 -11 -101h-123v-398h-127v528q0 88 45.5 135t136.5 47q46 0 85 -11q-2 -55 -11 -99q-30 8 -59 8q-34 0 -52 -19.5zM756.5 463.5q40.5 -47.5 40.5 -127.5v-336h-129v308q0 51 -18.5 75.5t-62.5 24.5q-27 0 -49.5 -11
t-39.5 -28v-369h-128v692q61 18 128 18v-284q22 42 55 63.5t82 21.5q81 0 121.5 -47.5z" />
    <glyph glyph-name="f_j.dlig" horiz-adv-x="560" 
d="M379.5 603q-21.5 21 -21.5 54t21.5 54t53.5 21t53 -21t21 -54q0 -21 -9.5 -38t-26.5 -27t-38 -10q-32 0 -53.5 21zM191 398v-398h-127v528q0 88 45.5 135t136.5 47q46 0 85 -11q-2 -55 -11 -99q-30 8 -59 8q-34 0 -52 -19.5t-18 -58.5v-31h134q-3 -51 -11 -101h-123z
M370 499h128v-553q0 -87 -40.5 -130t-124.5 -43q-37 0 -67 9q3 44 12 100q17 -4 36 -4q30 0 43 14.5t13 47.5v559z" />
    <glyph glyph-name="f_k.dlig" horiz-adv-x="827" 
d="M209 588.5q-18 -19.5 -18 -58.5v-31h134q-3 -51 -11 -101h-123v-398h-127v528q0 88 45.5 135t136.5 47q46 0 85 -11q-2 -55 -11 -99q-30 8 -59 8q-34 0 -52 -19.5zM370 692q63 18 128 18v-710h-128v692zM822 0h-152l-160 266v7l150 226h145l-165 -227z" />
    <glyph glyph-name="t_f.dlig" horiz-adv-x="659" 
d="M203 112q16 -19 50 -19q17 0 35.5 4.5t33.5 11.5q-3 -53 -14 -103q-39 -18 -89 -18q-78 0 -119 42t-41 128v479q60 17 128 17v-155h141q-5 -60 -12 -101h-129v-226q0 -41 16 -60zM502 499h149q-4 -64 -11 -101h-138v-398h-128v528q0 89 48 135.5t146 46.5q49 0 90 -11
q-1 -44 -11 -100q-38 9 -68 9q-41 0 -59 -19.5t-18 -62.5v-27z" />
    <glyph glyph-name="t_t.dlig" horiz-adv-x="671" 
d="M203 112q16 -19 50 -19q17 0 35.5 4.5t33.5 11.5q-3 -53 -14 -103q-39 -18 -89 -18q-78 0 -119 42t-41 128v479q60 17 128 17v-155h141q-5 -60 -12 -101h-129v-226q0 -41 16 -60zM520 112q16 -19 50 -19q17 0 35.5 4.5t33.5 11.5q-3 -53 -14 -103q-39 -18 -89 -18
q-78 0 -119 42t-41 128v479q60 17 128 17v-155h141q-5 -60 -12 -101h-129v-226q0 -41 16 -60z" />
    <glyph glyph-name="ordfeminine" unicode="&#xaa;" horiz-adv-x="411" 
d="M361 563v-272h-102l-7 61q-27 -71 -101 -71q-34 0 -60.5 14.5t-42 42.5t-15.5 67q0 70 51.5 102.5t155.5 42.5l10 1v4q0 27 -14 42t-57 15q-59 0 -124 -28q2 60 11 93q27 12 62.5 18.5t70.5 6.5q162 0 162 -139zM221 376q18 9 29 26v77h-5q-55 -5 -81 -19.5t-26 -46.5
q0 -23 12 -34.5t34 -11.5q19 0 37 9z" />
    <glyph glyph-name="ordmasculine" unicode="&#xba;" horiz-adv-x="422" 
d="M110 307q-42 25 -64 72.5t-22 112.5q0 66 22 113t64 72t101 25t101 -25t64 -72t22 -113q0 -65 -22 -112.5t-64 -72.5t-101 -25t-101 25zM263 405q17 28 17 87q0 60 -17 87.5t-52 27.5q-36 0 -53 -28t-17 -87t17.5 -87t52.5 -28t52 28z" />
    <glyph glyph-name="uni207F" unicode="&#x207f;" horiz-adv-x="415" 
d="M345.5 663q28.5 -39 28.5 -105v-267h-113v246q0 34 -10.5 51.5t-39.5 17.5q-17 0 -31 -7t-24 -18v-290h-113v401h102l9 -63q14 36 38.5 54.5t63.5 18.5q61 0 89.5 -39z" />
    <glyph glyph-name="uni0394" unicode="&#x394;" 
d="M547 0h-544l191 682q78 16 152 16zM386 108l-112 439l-118 -439h230z" />
    <glyph glyph-name="uni0394" unicode="&#x3b4;" 
d="M547 0h-544l191 682q78 16 152 16zM386 108l-112 439l-118 -439h230z" />
    <glyph glyph-name="uni03A9" unicode="&#x3a9;" 
d="M394 112h125q-2 -67 -9 -112h-203v166q44 14 66 62.5t22 149.5q0 111 -31 165.5t-88 54.5q-56 0 -86.5 -54.5t-30.5 -162.5q0 -101 22 -150t66 -64v-167h-218q1 27 3 57.5t5 54.5h124v6q-127 77 -127 279q0 96 29 166t84 108t130 38q76 0 131 -38.5t83.5 -109
t28.5 -164.5q0 -106 -34 -174.5t-92 -102.5v-8z" />
    <glyph glyph-name="uni03A9" unicode="&#x3c9;" 
d="M394 112h125q-2 -67 -9 -112h-203v166q44 14 66 62.5t22 149.5q0 111 -31 165.5t-88 54.5q-56 0 -86.5 -54.5t-30.5 -162.5q0 -101 22 -150t66 -64v-167h-218q1 27 3 57.5t5 54.5h124v6q-127 77 -127 279q0 96 29 166t84 108t130 38q76 0 131 -38.5t83.5 -109
t28.5 -164.5q0 -106 -34 -174.5t-92 -102.5v-8z" />
    <glyph glyph-name="uni03BC" unicode="&#x3bc;" 
d="M488 499v-499h-117l-9 78q-22 -45 -55.5 -67.5t-83.5 -22.5q-24 0 -47 5q11 -94 11 -160v-45h-125v351q-1 8 -1 25v335h129v-308q0 -51 18.5 -75.5t62.5 -24.5q27 0 50 11.5t39 28.5v368h128z" />
    <glyph glyph-name="pi" unicode="&#x3c0;" 
d="M495 91q19 0 34 6q-1 -21 -4.5 -49t-7.5 -48q-12 -6 -31 -9t-37 -3q-59 0 -90.5 35.5t-31.5 99.5v277h-127v-400h-127v400h-67q1 40 10 99h521q-3 -45 -12 -99h-71v-267q0 -42 41 -42z" />
    <glyph glyph-name="uni2099" unicode="&#x2099;" horiz-adv-x="415" 
d="M345.5 160q28.5 -39 28.5 -105v-267h-113v246q0 34 -10.5 51.5t-39.5 17.5q-17 0 -31 -7t-24 -18v-290h-113v401h102l9 -63q14 36 38.5 54.5t63.5 18.5q61 0 89.5 -39z" />
    <glyph glyph-name="zero" unicode="0" 
d="M95.5 71q-58.5 88 -58.5 275q0 127 26 207.5t79 118.5t134 38q82 0 134.5 -38t78.5 -118.5t26 -207.5q0 -187 -58.5 -275t-180.5 -88t-180.5 88zM339.5 120q22.5 23 32 76.5t9.5 148.5t-9.5 149t-32.5 78t-63 24t-62.5 -24t-32.5 -78t-10 -149t9.5 -148.5t32 -76.5
t63.5 -23t63.5 23z" />
    <glyph glyph-name="one" unicode="1" 
d="M223.5 692q83.5 17 164.5 18v-710h-130v581q-49 -9 -98.5 -21.5t-85.5 -25.5q0 59 11 116q55 25 138.5 42z" />
    <glyph glyph-name="two" unicode="2" 
d="M488 112q-1 -25 -4.5 -58t-7.5 -54h-420v43q0 66 21 116t59 89.5t99 83.5q39 27 62 50.5t35 50t12 59.5q0 51 -33 77.5t-95 26.5q-70 0 -148 -32q2 63 11 117q32 13 72 21t83 8q82 0 136.5 -26.5t81 -73.5t26.5 -109q0 -53 -17.5 -97t-54 -82.5t-95.5 -78.5
q-38 -26 -60 -44t-38 -39t-23 -48h298z" />
    <glyph glyph-name="three" unicode="3" 
d="M458.5 302q34.5 -39 34.5 -107q0 -66 -33.5 -113.5t-99 -73t-160.5 -25.5q-79 0 -147 17q0 25 4 55.5t10 55.5q63 -15 123 -15q86 0 128.5 25.5t42.5 77.5t-40.5 76t-123.5 24h-83v107h82q74 0 111.5 23.5t37.5 74.5q0 44 -35 68t-107 24t-139 -24q0 16 3.5 50t8.5 63
q29 12 67.5 18.5t75.5 6.5q80 0 137 -21.5t87 -63.5t30 -101t-30 -102t-85 -65q66 -16 100.5 -55z" />
    <glyph glyph-name="four" unicode="4" 
d="M533 217q-4 -30 -9 -51h-77v-166h-121v166h-296q0 30 1 55t4 50q41 103 115.5 214.5t160.5 206.5q35 6 65 8t71 2v-429h92q-2 -26 -6 -56zM326 273v279q-105 -132 -175 -279h175z" />
    <glyph glyph-name="five" unicode="5" 
d="M372 421q55 -25 86 -75t31 -123q0 -116 -73.5 -178t-217.5 -62q-68 0 -137 16q0 54 16 112q19 -6 49 -10t62 -4q84 0 125 30t41 94q0 60 -39 88.5t-117 28.5q-60 0 -114 -14l27 368h363q-1 -24 -4 -55.5t-7 -57.5h-233l-10 -134q7 1 24 1q73 0 128 -25z" />
    <glyph glyph-name="six" unicode="6" 
d="M422 427q45 -26 70.5 -76t25.5 -121q0 -74 -26.5 -129.5t-79.5 -86.5t-129 -31q-120 0 -183 86t-63 257q0 128 31.5 212.5t99.5 128t177 43.5q40 0 75 -6.5t58 -18.5q0 -50 -12 -111q-22 10 -53.5 16.5t-62.5 6.5q-65 0 -104 -24.5t-57.5 -72.5t-22.5 -123
q22 37 61.5 56.5t90.5 19.5q59 0 104 -26zM361 130q26 34 26 94q0 61 -29 90t-78 29q-64 0 -114 -53q2 -69 15 -111.5t38 -62.5t65 -20q51 0 77 34z" />
    <glyph glyph-name="seven" unicode="7" 
d="M513 692q0 -42 -10 -96q-85 -149 -146.5 -299.5t-96.5 -296.5h-135q32 136 93 284t140 295h-318q4 75 11 113h462z" />
    <glyph glyph-name="eight" unicode="8" 
d="M522 186q0 -62 -29.5 -108t-85.5 -71t-134 -25q-76 0 -130 23.5t-82.5 67.5t-28.5 103q0 58 32 99.5t90 64.5q-48 28 -76 72.5t-28 104.5q0 58 26.5 101.5t78.5 67.5t125 24q71 0 121.5 -24t76.5 -65t26 -92q0 -54 -26.5 -94t-79.5 -67q124 -61 124 -182zM202 584
q-25 -24 -25 -64q0 -75 103 -108l8 -3q47 22 68 49.5t21 62.5q0 39 -25 63t-75 24t-75 -24zM364 112.5q29 25.5 29 69.5q0 81 -117 114l-15 4q-99 -40 -99 -116q0 -47 31.5 -72t85.5 -25q56 0 85 25.5z" />
    <glyph glyph-name="nine" unicode="9" 
d="M450 624q63 -86 63 -257q0 -192 -73 -288t-235 -96q-40 0 -75 6.5t-58 18.5q0 50 12 111q22 -10 53.5 -16.5t62.5 -6.5q65 0 104 24.5t57.5 72.5t22.5 123q-22 -37 -61.5 -56.5t-90.5 -19.5q-59 0 -104 26t-70.5 76t-25.5 121q0 74 26.5 129.5t79.5 86.5t129 31
q120 0 183 -86zM384 403q-2 69 -15 111.5t-38 62.5t-65 20q-51 0 -77 -34t-26 -94q0 -61 29 -90t78 -29q64 0 114 53z" />
    <glyph glyph-name="zero.pnum" horiz-adv-x="571" 
d="M104.5 71q-59.5 88 -59.5 275q0 127 26.5 207.5t79.5 118.5t135 38q81 0 134 -38t79.5 -118.5t26.5 -207.5q0 -187 -59 -275t-181 -88t-181.5 88zM350 120q23 23 33 76.5t10 148.5q0 94 -10.5 148.5t-33.5 78.5t-63 24t-63.5 -24t-34 -78.5t-10.5 -148.5q0 -95 10 -148.5
t33.5 -76.5t64.5 -23t64 23z" />
    <glyph glyph-name="one.pnum" horiz-adv-x="393" 
d="M159.5 690q69.5 16 136.5 20v-710h-129v577q-79 -19 -149 -45q0 61 11 119q61 23 130.5 39z" />
    <glyph glyph-name="two.pnum" horiz-adv-x="487" 
d="M458 112q-1 -25 -4.5 -58t-7.5 -54h-420v43q0 66 21 116t59 89.5t99 83.5q58 40 83.5 75t25.5 81q0 108 -137 108q-35 0 -71 -8.5t-65 -22.5q2 71 11 117q28 13 67.5 20.5t82.5 7.5q82 0 137 -26.5t81.5 -73.5t26.5 -109q0 -53 -17.5 -97t-53.5 -82.5t-95 -78.5
q-38 -26 -60.5 -44t-38 -39t-23.5 -48h299z" />
    <glyph glyph-name="three.pnum" horiz-adv-x="498" 
d="M425.5 302q34.5 -39 34.5 -107q0 -66 -32 -113.5t-94.5 -73t-152.5 -25.5q-80 0 -148 17q0 25 4 55.5t10 55.5q65 -15 124 -15q77 0 117 25.5t40 77.5q0 100 -150 100h-94v107h84q66 0 105 24t39 74q0 43 -32 67.5t-94 24.5q-72 0 -139 -24q0 18 3 51t9 62q29 12 67 18.5
t75 6.5q73 0 127 -22t83 -63.5t29 -100.5t-30 -102t-85 -65q66 -16 100.5 -55z" />
    <glyph glyph-name="four.pnum" horiz-adv-x="552" 
d="M536 217q-4 -30 -9 -51h-77v-166h-123v166h-309q0 30 1 55t4 50q43 103 119.5 215t164.5 206q34 6 67 8t76 2v-429h92q-2 -26 -6 -56zM327 273v285q-108 -134 -182 -285h182z" />
    <glyph glyph-name="five.pnum" horiz-adv-x="497" 
d="M348 421q55 -25 86 -75t31 -123q0 -116 -73.5 -178t-217.5 -62q-68 0 -137 16q0 54 16 112q19 -6 49 -10t62 -4q84 0 125 30t41 94q0 60 -39 88.5t-117 28.5q-60 0 -114 -14l27 368h363q-1 -24 -4 -55.5t-7 -57.5h-233l-10 -134q7 1 24 1q73 0 128 -25z" />
    <glyph glyph-name="six.pnum" horiz-adv-x="570" 
d="M432.5 427q45.5 -26 71.5 -76t26 -121q0 -74 -27 -129.5t-80 -86.5t-129 -31q-121 0 -185 86.5t-64 256.5q0 192 75 288t237 96q40 0 75 -6.5t58 -18.5q0 -50 -12 -111q-22 10 -53.5 16.5t-62.5 6.5q-64 0 -103.5 -24.5t-59 -73t-24.5 -125.5q21 37 61.5 58t91.5 21
q59 0 104.5 -26zM372.5 130q26.5 34 26.5 94t-30 89.5t-78 29.5q-67 0 -118 -56q3 -99 32 -145t89 -46q52 0 78.5 34z" />
    <glyph glyph-name="seven.pnum" horiz-adv-x="478" 
d="M465 692q0 -35 -9 -96q-79 -148 -136.5 -299t-91.5 -297h-134q31 137 88.5 285t131.5 294h-304q1 28 4 60.5t7 52.5h444z" />
    <glyph glyph-name="eight.pnum" horiz-adv-x="577" 
d="M502 295.5q33 -45.5 33 -109.5q0 -62 -30 -108t-86.5 -71t-134.5 -25q-76 0 -130.5 23.5t-83 66.5t-28.5 102t31.5 101t88.5 65q-48 29 -76 73.5t-28 103.5q0 58 27 101.5t79 67.5t125 24q75 0 126 -23.5t76.5 -64.5t25.5 -93q0 -107 -104 -161q56 -27 89 -72.5z
M211.5 583.5q-26.5 -24.5 -26.5 -63.5q0 -40 28.5 -67t76.5 -41l13 -4q47 22 68 50t21 63q0 38 -26.5 62.5t-76.5 24.5q-51 0 -77.5 -24.5zM375 112.5q30 25.5 30 69.5q0 79 -118 113l-17 5q-99 -39 -99 -116q0 -47 32 -72t87 -25t85 25.5z" />
    <glyph glyph-name="nine.pnum" horiz-adv-x="570" 
d="M461.5 624.5q64.5 -86.5 64.5 -256.5q0 -192 -75 -288t-238 -96q-40 0 -75 6.5t-58 18.5q0 50 12 111q22 -10 53.5 -16.5t62.5 -6.5q64 0 103.5 24.5t59 73t24.5 124.5q-21 -37 -61.5 -58t-91.5 -21q-59 0 -104.5 26t-71.5 76.5t-26 121.5q0 74 27 129.5t80 86.5t129 31
q121 0 185.5 -86.5zM341.5 365q29.5 14 55.5 41q-3 100 -31.5 146t-89.5 46q-52 0 -78.5 -34t-26.5 -94q0 -61 30 -90t79 -29q32 0 61.5 14z" />
    <glyph glyph-name="uni2080" unicode="&#x2080;" horiz-adv-x="408" 
d="M85.5 -184.5q-40.5 43.5 -40.5 139.5q0 95 40.5 139t118.5 44t119 -44t41 -139t-41 -139t-119 -44t-118.5 43.5zM234.5 -135.5q11.5 8.5 16.5 29.5t5 61t-5 61t-16.5 29t-30.5 8t-30 -8.5t-16 -29.5t-5 -60t5 -60.5t16 -30t30 -8.5t30.5 8.5z" />
    <glyph glyph-name="uni2081" unicode="&#x2081;" horiz-adv-x="278" 
d="M113 131q49 8 98 8v-351h-101v256q-46 -9 -92 -21q0 43 9 86q37 14 86 22z" />
    <glyph glyph-name="uni2082" unicode="&#x2082;" horiz-adv-x="321" 
d="M291 -134q-1 -19 -3.5 -39.5t-5.5 -38.5h-256v25q0 32 6.5 52.5t26 39.5t57.5 40q30 17 44.5 26.5t19.5 18.5t5 22q0 24 -18.5 35t-58.5 11q-20 0 -42 -3.5t-40 -8.5q0 40 9 83q17 5 42 8.5t53 3.5q79 0 118 -31.5t39 -83.5q0 -41 -21.5 -70.5t-69.5 -55.5
q-35 -18 -56 -34h151z" />
    <glyph glyph-name="uni2083" unicode="&#x2083;" horiz-adv-x="344" 
d="M306 -118q0 -50 -42.5 -78t-132.5 -28q-49 0 -98 9q0 31 11 79q39 -9 83 -9q40 0 57 7.5t17 25.5t-18.5 25t-57.5 7h-51v76h39q41 0 60 7t19 26q0 16 -15.5 23.5t-48.5 7.5q-45 0 -84 -13q0 43 10 79q36 13 92 13q68 0 108.5 -24t40.5 -74q0 -57 -71 -79q82 -15 82 -80z
" />
    <glyph glyph-name="uni2084" unicode="&#x2084;" horiz-adv-x="346" 
d="M332.5 -114.5q-2.5 -20.5 -7.5 -41.5h-41v-59h-89v59h-177q0 23 1 41t4 37q26 51 71.5 109.5t92.5 100.5q22 4 43.5 5.5t53.5 1.5v-215h52q-1 -18 -3.5 -38.5zM195 -76v112q-51 -55 -87 -112h87z" />
    <glyph glyph-name="uni2085" unicode="&#x2085;" horiz-adv-x="348" 
d="M273 -16.5q43 -27.5 43 -83.5q0 -60 -45.5 -92t-135.5 -32q-49 0 -98 9q0 42 11 83q38 -9 80 -9q45 0 64 9t19 30q0 18 -21 27t-70 9q-38 0 -68 -6l15 204h238q-2 -49 -8 -83h-140l-3 -38h3q73 0 116 -27.5z" />
    <glyph glyph-name="uni2086" unicode="&#x2086;" horiz-adv-x="396" 
d="M296 2.5q28 -13.5 44 -39.5t16 -62t-17 -65t-51 -46t-82 -17q-80 0 -120.5 45.5t-40.5 129.5q0 92 45 143t142 51q31 0 59.5 -5t44.5 -12q0 -30 -9 -81q-18 7 -42 11.5t-49 4.5q-46 0 -66.5 -20t-24.5 -60q13 17 35.5 26.5t50.5 9.5q37 0 65 -13.5zM242.5 -135.5
q12.5 12.5 12.5 31.5q0 20 -13.5 32t-37.5 12q-30 0 -59 -19q4 -34 17.5 -51.5t41.5 -17.5q26 0 38.5 12.5z" />
    <glyph glyph-name="uni2087" unicode="&#x2087;" horiz-adv-x="314" 
d="M301 130q0 -36 -6 -74q-87 -133 -130 -268h-103q17 61 49.5 128.5t74.5 131.5h-176q0 17 2.5 42t5.5 40h283z" />
    <glyph glyph-name="uni2088" unicode="&#x2088;" horiz-adv-x="407" 
d="M348.5 -62q16.5 -22 16.5 -53q0 -32 -19.5 -56.5t-56.5 -38.5t-88 -14q-76 0 -117.5 25.5t-41.5 71.5q0 55 67 76q-57 29 -57 86q0 32 18 56t52.5 37.5t83.5 13.5q47 0 80.5 -12t50.5 -33t17 -48q0 -25 -13 -43.5t-42 -30.5q33 -15 49.5 -37zM163.5 60.5
q-12.5 -8.5 -12.5 -22.5q0 -15 14.5 -24t42.5 -15l11 -2q38 13 38 41q0 13 -13 22t-39 9q-29 0 -41.5 -8.5zM251.5 -140.5q14.5 9.5 14.5 23.5q0 13 -12.5 21t-41.5 15l-23 5q-47 -13 -47 -40q0 -16 16.5 -25t46.5 -9q32 0 46.5 9.5z" />
    <glyph glyph-name="uni2089" unicode="&#x2089;" horiz-adv-x="396" 
d="M310 99q41 -45 41 -129q0 -92 -45 -143t-142 -51q-33 0 -61.5 4.5t-42.5 12.5q0 38 9 80q17 -7 41 -11.5t49 -4.5q46 0 66.5 20t24.5 61q-12 -17 -35 -26.5t-51 -9.5q-36 0 -64 13.5t-44 39.5t-16 62t17 65t51 45.5t82 16.5q79 0 120 -45zM250 -5q-3 35 -16.5 53
t-41.5 18q-26 0 -39 -12.5t-13 -32.5t13.5 -32t38.5 -12q30 0 58 18z" />
    <glyph glyph-name="zero.dnom" horiz-adv-x="408" 
d="M85.5 31.5q-40.5 43.5 -40.5 139.5q0 95 40.5 139t118.5 44t119 -44t41 -139t-41 -139t-119 -44t-118.5 43.5zM234.5 80.5q11.5 8.5 16.5 29.5t5 61t-5 61t-16.5 29t-30.5 8t-30 -8.5t-16 -29.5t-5 -60t5 -60.5t16 -30t30 -8.5t30.5 8.5z" />
    <glyph glyph-name="one.dnom" horiz-adv-x="278" 
d="M113 343q49 8 98 8v-351h-101v256q-46 -9 -92 -21q0 43 9 86q37 14 86 22z" />
    <glyph glyph-name="two.dnom" horiz-adv-x="321" 
d="M291 78q-1 -19 -3.5 -39.5t-5.5 -38.5h-256v25q0 32 6.5 52.5t26 39.5t57.5 40q30 17 44.5 26.5t19.5 18.5t5 22q0 24 -18.5 35t-58.5 11q-20 0 -42 -3.5t-40 -8.5q0 40 9 83q17 5 42 8.5t53 3.5q79 0 118 -31.5t39 -83.5q0 -41 -21.5 -70.5t-69.5 -55.5q-35 -18 -56 -34
h151z" />
    <glyph glyph-name="three.dnom" horiz-adv-x="344" 
d="M306 94q0 -50 -42.5 -78t-132.5 -28q-49 0 -98 9q0 31 11 79q39 -9 83 -9q40 0 57 7.5t17 25.5t-18.5 25t-57.5 7h-51v76h39q41 0 60 7t19 26q0 16 -15.5 23.5t-48.5 7.5q-45 0 -84 -13q0 43 10 79q36 13 92 13q68 0 108.5 -24t40.5 -74q0 -57 -71 -79q82 -15 82 -80z
" />
    <glyph glyph-name="four.dnom" horiz-adv-x="346" 
d="M332.5 97.5q-2.5 -20.5 -7.5 -41.5h-41v-59h-89v59h-177q0 23 1 41t4 37q26 51 71.5 109.5t92.5 100.5q22 4 43.5 5.5t53.5 1.5v-215h52q-1 -18 -3.5 -38.5zM195 136v112q-51 -55 -87 -112h87z" />
    <glyph glyph-name="five.dnom" horiz-adv-x="348" 
d="M273 195.5q43 -27.5 43 -83.5q0 -60 -45.5 -92t-135.5 -32q-49 0 -98 9q0 42 11 83q38 -9 80 -9q45 0 64 9t19 30q0 18 -21 27t-70 9q-38 0 -68 -6l15 204h238q-2 -49 -8 -83h-140l-3 -38h3q73 0 116 -27.5z" />
    <glyph glyph-name="six.dnom" horiz-adv-x="396" 
d="M296 214.5q28 -13.5 44 -39.5t16 -62t-17 -65t-51 -46t-82 -17q-80 0 -120.5 45.5t-40.5 129.5q0 92 45 143t142 51q31 0 59.5 -5t44.5 -12q0 -30 -9 -81q-18 7 -42 11.5t-49 4.5q-46 0 -66.5 -20t-24.5 -60q13 17 35.5 26.5t50.5 9.5q37 0 65 -13.5zM242.5 76.5
q12.5 12.5 12.5 31.5q0 20 -13.5 32t-37.5 12q-30 0 -59 -19q4 -34 17.5 -51.5t41.5 -17.5q26 0 38.5 12.5z" />
    <glyph glyph-name="seven.dnom" horiz-adv-x="314" 
d="M301 342q0 -36 -6 -74q-87 -133 -130 -268h-103q17 61 49.5 128.5t74.5 131.5h-176q0 17 2.5 42t5.5 40h283z" />
    <glyph glyph-name="eight.dnom" horiz-adv-x="407" 
d="M348.5 150q16.5 -22 16.5 -53q0 -32 -19.5 -56.5t-56.5 -38.5t-88 -14q-76 0 -117.5 25.5t-41.5 71.5q0 55 67 76q-57 29 -57 86q0 32 18 56t52.5 37.5t83.5 13.5q47 0 80.5 -12t50.5 -33t17 -48q0 -25 -13 -43.5t-42 -30.5q33 -15 49.5 -37zM163.5 272.5
q-12.5 -8.5 -12.5 -22.5q0 -15 14.5 -24t42.5 -15l11 -2q38 13 38 41q0 13 -13 22t-39 9q-29 0 -41.5 -8.5zM251.5 71.5q14.5 9.5 14.5 23.5q0 13 -12.5 21t-41.5 15l-23 5q-47 -13 -47 -40q0 -16 16.5 -25t46.5 -9q32 0 46.5 9.5z" />
    <glyph glyph-name="nine.dnom" horiz-adv-x="396" 
d="M310 311q41 -45 41 -129q0 -92 -45 -143t-142 -51q-33 0 -61.5 4.5t-42.5 12.5q0 38 9 80q17 -7 41 -11.5t49 -4.5q46 0 66.5 20t24.5 61q-12 -17 -35 -26.5t-51 -9.5q-36 0 -64 13.5t-44 39.5t-16 62t17 65t51 45.5t82 16.5q79 0 120 -45zM250 207q-3 35 -16.5 53
t-41.5 18q-26 0 -39 -12.5t-13 -32.5t13.5 -32t38.5 -12q30 0 58 18z" />
    <glyph glyph-name="zero.numr" horiz-adv-x="408" 
d="M85.5 375.5q-40.5 43.5 -40.5 139.5q0 95 40.5 139t118.5 44t119 -44t41 -139t-41 -139t-119 -44t-118.5 43.5zM234.5 424.5q11.5 8.5 16.5 29.5t5 61t-5 61t-16.5 29t-30.5 8t-30 -8.5t-16 -29.5t-5 -60t5 -60.5t16 -30t30 -8.5t30.5 8.5z" />
    <glyph glyph-name="one.numr" horiz-adv-x="278" 
d="M113 687q49 8 98 8v-351h-101v256q-46 -9 -92 -21q0 43 9 86q37 14 86 22z" />
    <glyph glyph-name="two.numr" horiz-adv-x="321" 
d="M291 422q-1 -19 -3.5 -39.5t-5.5 -38.5h-256v25q0 32 6.5 52.5t26 39.5t57.5 40q30 17 44.5 26.5t19.5 18.5t5 22q0 24 -18.5 35t-58.5 11q-20 0 -42 -3.5t-40 -8.5q0 40 9 83q17 5 42 8.5t53 3.5q79 0 118 -31.5t39 -83.5q0 -41 -21.5 -70.5t-69.5 -55.5
q-35 -18 -56 -34h151z" />
    <glyph glyph-name="three.numr" horiz-adv-x="344" 
d="M306 438q0 -50 -42.5 -78t-132.5 -28q-49 0 -98 9q0 31 11 79q39 -9 83 -9q40 0 57 7.5t17 25.5t-18.5 25t-57.5 7h-51v76h39q41 0 60 7t19 26q0 16 -15.5 23.5t-48.5 7.5q-45 0 -84 -13q0 43 10 79q36 13 92 13q68 0 108.5 -24t40.5 -74q0 -57 -71 -79q82 -15 82 -80z
" />
    <glyph glyph-name="four.numr" horiz-adv-x="346" 
d="M332.5 441.5q-2.5 -20.5 -7.5 -41.5h-41v-59h-89v59h-177q0 23 1 41t4 37q26 51 71.5 109.5t92.5 100.5q22 4 43.5 5.5t53.5 1.5v-215h52q-1 -18 -3.5 -38.5zM195 480v112q-51 -55 -87 -112h87z" />
    <glyph glyph-name="five.numr" horiz-adv-x="348" 
d="M273 539.5q43 -27.5 43 -83.5q0 -60 -45.5 -92t-135.5 -32q-49 0 -98 9q0 42 11 83q38 -9 80 -9q45 0 64 9t19 30q0 18 -21 27t-70 9q-38 0 -68 -6l15 204h238q-2 -49 -8 -83h-140l-3 -38h3q73 0 116 -27.5z" />
    <glyph glyph-name="six.numr" horiz-adv-x="396" 
d="M296 558.5q28 -13.5 44 -39.5t16 -62t-17 -65t-51 -46t-82 -17q-80 0 -120.5 45.5t-40.5 129.5q0 92 45 143t142 51q31 0 59.5 -5t44.5 -12q0 -30 -9 -81q-18 7 -42 11.5t-49 4.5q-46 0 -66.5 -20t-24.5 -60q13 17 35.5 26.5t50.5 9.5q37 0 65 -13.5zM242.5 420.5
q12.5 12.5 12.5 31.5q0 20 -13.5 32t-37.5 12q-30 0 -59 -19q4 -34 17.5 -51.5t41.5 -17.5q26 0 38.5 12.5z" />
    <glyph glyph-name="seven.numr" horiz-adv-x="314" 
d="M301 686q0 -36 -6 -74q-87 -133 -130 -268h-103q17 61 49.5 128.5t74.5 131.5h-176q0 17 2.5 42t5.5 40h283z" />
    <glyph glyph-name="eight.numr" horiz-adv-x="407" 
d="M348.5 494q16.5 -22 16.5 -53q0 -32 -19.5 -56.5t-56.5 -38.5t-88 -14q-76 0 -117.5 25.5t-41.5 71.5q0 55 67 76q-57 29 -57 86q0 32 18 56t52.5 37.5t83.5 13.5q47 0 80.5 -12t50.5 -33t17 -48q0 -25 -13 -43.5t-42 -30.5q33 -15 49.5 -37zM163.5 616.5
q-12.5 -8.5 -12.5 -22.5q0 -15 14.5 -24t42.5 -15l11 -2q38 13 38 41q0 13 -13 22t-39 9q-29 0 -41.5 -8.5zM251.5 415.5q14.5 9.5 14.5 23.5q0 13 -12.5 21t-41.5 15l-23 5q-47 -13 -47 -40q0 -16 16.5 -25t46.5 -9q32 0 46.5 9.5z" />
    <glyph glyph-name="nine.numr" horiz-adv-x="396" 
d="M310 655q41 -45 41 -129q0 -92 -45 -143t-142 -51q-33 0 -61.5 4.5t-42.5 12.5q0 38 9 80q17 -7 41 -11.5t49 -4.5q46 0 66.5 20t24.5 61q-12 -17 -35 -26.5t-51 -9.5q-36 0 -64 13.5t-44 39.5t-16 62t17 65t51 45.5t82 16.5q79 0 120 -45zM250 551q-3 35 -16.5 53
t-41.5 18q-26 0 -39 -12.5t-13 -32.5t13.5 -32t38.5 -12q30 0 58 18z" />
    <glyph glyph-name="uni2070" unicode="&#x2070;" horiz-adv-x="408" 
d="M85.5 498.5q-40.5 43.5 -40.5 139.5q0 95 40.5 139t118.5 44t119 -44t41 -139t-41 -139t-119 -44t-118.5 43.5zM234.5 547.5q11.5 8.5 16.5 29.5t5 61t-5 61t-16.5 29t-30.5 8t-30 -8.5t-16 -29.5t-5 -60t5 -60.5t16 -30t30 -8.5t30.5 8.5z" />
    <glyph glyph-name="uni00B9" unicode="&#xb9;" horiz-adv-x="278" 
d="M113 810q49 8 98 8v-351h-101v256q-46 -9 -92 -21q0 43 9 86q37 14 86 22z" />
    <glyph glyph-name="uni00B2" unicode="&#xb2;" horiz-adv-x="321" 
d="M291 545q-1 -19 -3.5 -39.5t-5.5 -38.5h-256v25q0 32 6.5 52.5t26 39.5t57.5 40q30 17 44.5 26.5t19.5 18.5t5 22q0 24 -18.5 35t-58.5 11q-20 0 -42 -3.5t-40 -8.5q0 40 9 83q17 5 42 8.5t53 3.5q79 0 118 -31.5t39 -83.5q0 -41 -21.5 -70.5t-69.5 -55.5
q-35 -18 -56 -34h151z" />
    <glyph glyph-name="uni00B3" unicode="&#xb3;" horiz-adv-x="344" 
d="M306 561q0 -50 -42.5 -78t-132.5 -28q-49 0 -98 9q0 31 11 79q39 -9 83 -9q40 0 57 7.5t17 25.5t-18.5 25t-57.5 7h-51v76h39q41 0 60 7t19 26q0 16 -15.5 23.5t-48.5 7.5q-45 0 -84 -13q0 43 10 79q36 13 92 13q68 0 108.5 -24t40.5 -74q0 -57 -71 -79q82 -15 82 -80z
" />
    <glyph glyph-name="uni2074" unicode="&#x2074;" horiz-adv-x="346" 
d="M332.5 564.5q-2.5 -20.5 -7.5 -41.5h-41v-59h-89v59h-177q0 23 1 41t4 37q26 51 71.5 109.5t92.5 100.5q22 4 43.5 5.5t53.5 1.5v-215h52q-1 -18 -3.5 -38.5zM195 603v112q-51 -55 -87 -112h87z" />
    <glyph glyph-name="uni2075" unicode="&#x2075;" horiz-adv-x="348" 
d="M273 662.5q43 -27.5 43 -83.5q0 -60 -45.5 -92t-135.5 -32q-49 0 -98 9q0 42 11 83q38 -9 80 -9q45 0 64 9t19 30q0 18 -21 27t-70 9q-38 0 -68 -6l15 204h238q-2 -49 -8 -83h-140l-3 -38h3q73 0 116 -27.5z" />
    <glyph glyph-name="uni2076" unicode="&#x2076;" horiz-adv-x="396" 
d="M296 681.5q28 -13.5 44 -39.5t16 -62t-17 -65t-51 -46t-82 -17q-80 0 -120.5 45.5t-40.5 129.5q0 92 45 143t142 51q31 0 59.5 -5t44.5 -12q0 -30 -9 -81q-18 7 -42 11.5t-49 4.5q-46 0 -66.5 -20t-24.5 -60q13 17 35.5 26.5t50.5 9.5q37 0 65 -13.5zM242.5 543.5
q12.5 12.5 12.5 31.5q0 20 -13.5 32t-37.5 12q-30 0 -59 -19q4 -34 17.5 -51.5t41.5 -17.5q26 0 38.5 12.5z" />
    <glyph glyph-name="uni2077" unicode="&#x2077;" horiz-adv-x="314" 
d="M301 809q0 -36 -6 -74q-87 -133 -130 -268h-103q17 61 49.5 128.5t74.5 131.5h-176q0 17 2.5 42t5.5 40h283z" />
    <glyph glyph-name="uni2078" unicode="&#x2078;" horiz-adv-x="407" 
d="M348.5 617q16.5 -22 16.5 -53q0 -32 -19.5 -56.5t-56.5 -38.5t-88 -14q-76 0 -117.5 25.5t-41.5 71.5q0 55 67 76q-57 29 -57 86q0 32 18 56t52.5 37.5t83.5 13.5q47 0 80.5 -12t50.5 -33t17 -48q0 -25 -13 -43.5t-42 -30.5q33 -15 49.5 -37zM163.5 739.5
q-12.5 -8.5 -12.5 -22.5q0 -15 14.5 -24t42.5 -15l11 -2q38 13 38 41q0 13 -13 22t-39 9q-29 0 -41.5 -8.5zM251.5 538.5q14.5 9.5 14.5 23.5q0 13 -12.5 21t-41.5 15l-23 5q-47 -13 -47 -40q0 -16 16.5 -25t46.5 -9q32 0 46.5 9.5z" />
    <glyph glyph-name="uni2079" unicode="&#x2079;" horiz-adv-x="396" 
d="M310 778q41 -45 41 -129q0 -92 -45 -143t-142 -51q-33 0 -61.5 4.5t-42.5 12.5q0 38 9 80q17 -7 41 -11.5t49 -4.5q46 0 66.5 20t24.5 61q-12 -17 -35 -26.5t-51 -9.5q-36 0 -64 13.5t-44 39.5t-16 62t17 65t51 45.5t82 16.5q79 0 120 -45zM250 674q-3 35 -16.5 53
t-41.5 18q-26 0 -39 -12.5t-13 -32.5t13.5 -32t38.5 -12q30 0 58 18z" />
    <glyph glyph-name="fraction" unicode="&#x2044;" horiz-adv-x="265" 
d="M256 692q58 9 115 10l-364 -702q-55 -8 -113 -10z" />
    <glyph glyph-name="onehalf" unicode="&#xbd;" horiz-adv-x="763" 
d="M113 687q49 8 98 8v-351h-101v256q-46 -9 -92 -21q0 43 9 86q37 14 86 22zM451 692q58 9 115 10l-364 -702q-55 -8 -113 -10zM695 78q-1 -19 -3.5 -39.5t-5.5 -38.5h-256v25q0 32 6.5 52.5t26 39.5t57.5 40q30 17 44.5 26.5t19.5 18.5t5 22q0 24 -18.5 35t-58.5 11
q-20 0 -42 -3.5t-40 -8.5q0 40 9 83q17 5 42 8.5t53 3.5q79 0 118 -31.5t39 -83.5q0 -41 -21.5 -70.5t-69.5 -55.5q-35 -18 -56 -34h151z" />
    <glyph glyph-name="onequarter" unicode="&#xbc;" horiz-adv-x="749" 
d="M113 687q49 8 98 8v-351h-101v256q-46 -9 -92 -21q0 43 9 86q37 14 86 22zM458 692q58 9 115 10l-364 -702q-55 -8 -113 -10zM678.5 97.5q-2.5 -20.5 -7.5 -41.5h-41v-59h-89v59h-177q0 23 1 41t4 37q26 51 71.5 109.5t92.5 100.5q22 4 43.5 5.5t53.5 1.5v-215h52
q-1 -18 -3.5 -38.5zM541 136v112q-51 -55 -87 -112h87z" />
    <glyph glyph-name="threequarters" unicode="&#xbe;" horiz-adv-x="773" 
d="M306 438q0 -50 -42.5 -78t-132.5 -28q-49 0 -98 9q0 31 11 79q39 -9 83 -9q40 0 57 7.5t17 25.5t-18.5 25t-57.5 7h-51v76h39q41 0 60 7t19 26q0 16 -15.5 23.5t-48.5 7.5q-45 0 -84 -13q0 43 10 79q36 13 92 13q68 0 108.5 -24t40.5 -74q0 -57 -71 -79q82 -15 82 -80z
M519 692q58 9 115 10l-364 -702q-55 -8 -113 -10zM732.5 97.5q-2.5 -20.5 -7.5 -41.5h-41v-59h-89v59h-177q0 23 1 41t4 37q26 51 71.5 109.5t92.5 100.5q22 4 43.5 5.5t53.5 1.5v-215h52q-1 -18 -3.5 -38.5zM595 136v112q-51 -55 -87 -112h87z" />
    <glyph glyph-name="oneeighth" unicode="&#x215b;" horiz-adv-x="817" 
d="M113 687q49 8 98 8v-351h-101v256q-46 -9 -92 -21q0 43 9 86q37 14 86 22zM463 692q58 9 115 10l-364 -702q-55 -8 -113 -10zM732.5 150q16.5 -22 16.5 -53q0 -32 -19.5 -56.5t-56.5 -38.5t-88 -14q-76 0 -117.5 25.5t-41.5 71.5q0 55 67 76q-57 29 -57 86q0 32 18 56
t52.5 37.5t83.5 13.5q47 0 80.5 -12t50.5 -33t17 -48q0 -25 -13 -43.5t-42 -30.5q33 -15 49.5 -37zM547.5 272.5q-12.5 -8.5 -12.5 -22.5q0 -15 14.5 -24t42.5 -15l11 -2q38 13 38 41q0 13 -13 22t-39 9q-29 0 -41.5 -8.5zM635.5 71.5q14.5 9.5 14.5 23.5q0 13 -12.5 21
t-41.5 15l-23 5q-47 -13 -47 -40q0 -16 16.5 -25t46.5 -9q32 0 46.5 9.5z" />
    <glyph glyph-name="threeeighths" unicode="&#x215c;" horiz-adv-x="842" 
d="M306 438q0 -50 -42.5 -78t-132.5 -28q-49 0 -98 9q0 31 11 79q39 -9 83 -9q40 0 57 7.5t17 25.5t-18.5 25t-57.5 7h-51v76h39q41 0 60 7t19 26q0 16 -15.5 23.5t-48.5 7.5q-45 0 -84 -13q0 43 10 79q36 13 92 13q68 0 108.5 -24t40.5 -74q0 -57 -71 -79q82 -15 82 -80z
M521 692q58 9 115 10l-364 -702q-55 -8 -113 -10zM786.5 150q16.5 -22 16.5 -53q0 -32 -19.5 -56.5t-56.5 -38.5t-88 -14q-76 0 -117.5 25.5t-41.5 71.5q0 55 67 76q-57 29 -57 86q0 32 18 56t52.5 37.5t83.5 13.5q47 0 80.5 -12t50.5 -33t17 -48q0 -25 -13 -43.5t-42 -30.5
q33 -15 49.5 -37zM601.5 272.5q-12.5 -8.5 -12.5 -22.5q0 -15 14.5 -24t42.5 -15l11 -2q38 13 38 41q0 13 -13 22t-39 9q-29 0 -41.5 -8.5zM689.5 71.5q14.5 9.5 14.5 23.5q0 13 -12.5 21t-41.5 15l-23 5q-47 -13 -47 -40q0 -16 16.5 -25t46.5 -9q32 0 46.5 9.5z" />
    <glyph glyph-name="fiveeighths" unicode="&#x215d;" horiz-adv-x="847" 
d="M273 539.5q43 -27.5 43 -83.5q0 -60 -45.5 -92t-135.5 -32q-49 0 -98 9q0 42 11 83q38 -9 80 -9q45 0 64 9t19 30q0 18 -21 27t-70 9q-38 0 -68 -6l15 204h238q-2 -49 -8 -83h-140l-3 -38h3q73 0 116 -27.5zM528 692q58 9 115 10l-364 -702q-55 -8 -113 -10zM797.5 150
q16.5 -22 16.5 -53q0 -32 -19.5 -56.5t-56.5 -38.5t-88 -14q-76 0 -117.5 25.5t-41.5 71.5q0 55 67 76q-57 29 -57 86q0 32 18 56t52.5 37.5t83.5 13.5q47 0 80.5 -12t50.5 -33t17 -48q0 -25 -13 -43.5t-42 -30.5q33 -15 49.5 -37zM612.5 272.5q-12.5 -8.5 -12.5 -22.5
q0 -15 14.5 -24t42.5 -15l11 -2q38 13 38 41q0 13 -13 22t-39 9q-29 0 -41.5 -8.5zM700.5 71.5q14.5 9.5 14.5 23.5q0 13 -12.5 21t-41.5 15l-23 5q-47 -13 -47 -40q0 -16 16.5 -25t46.5 -9q32 0 46.5 9.5z" />
    <glyph glyph-name="seveneighths" unicode="&#x215e;" horiz-adv-x="731" 
d="M301 686q0 -36 -6 -74q-87 -133 -130 -268h-103q17 61 49.5 128.5t74.5 131.5h-176q0 17 2.5 42t5.5 40h283zM436 692q58 9 115 10l-364 -702q-55 -8 -113 -10zM701.5 150q16.5 -22 16.5 -53q0 -32 -19.5 -56.5t-56.5 -38.5t-88 -14q-76 0 -117.5 25.5t-41.5 71.5
q0 55 67 76q-57 29 -57 86q0 32 18 56t52.5 37.5t83.5 13.5q47 0 80.5 -12t50.5 -33t17 -48q0 -25 -13 -43.5t-42 -30.5q33 -15 49.5 -37zM516.5 272.5q-12.5 -8.5 -12.5 -22.5q0 -15 14.5 -24t42.5 -15l11 -2q38 13 38 41q0 13 -13 22t-39 9q-29 0 -41.5 -8.5zM604.5 71.5
q14.5 9.5 14.5 23.5q0 13 -12.5 21t-41.5 15l-23 5q-47 -13 -47 -40q0 -16 16.5 -25t46.5 -9q32 0 46.5 9.5z" />
    <glyph glyph-name="period" unicode="." horiz-adv-x="271" 
d="M94.5 0.5q-18.5 10.5 -28.5 28.5t-10 40t10 40t28.5 28.5t41.5 10.5t41 -10.5t28 -28.5t10 -40t-10 -40t-28 -28.5t-41 -10.5t-41.5 10.5z" />
    <glyph glyph-name="comma" unicode="," horiz-adv-x="271" 
d="M66 -23q5 59 7 134q36 10 64 13.5t66 3.5q-6 -92 -20 -155.5t-46 -119.5h-85q9 65 14 124z" />
    <glyph glyph-name="colon" unicode=":" horiz-adv-x="271" 
d="M94.5 0.5q-18.5 10.5 -28.5 28.5t-10 40t10 40t28.5 28.5t41.5 10.5t41 -10.5t28 -28.5t10 -40t-10 -40t-28 -28.5t-41 -10.5t-41.5 10.5zM94.5 328.5q-18.5 10.5 -28.5 28.5t-10 40t10 40t28.5 28.5t41.5 10.5t41 -10.5t28 -28.5t10 -40t-10 -40t-28 -28.5t-41 -10.5
t-41.5 10.5z" />
    <glyph glyph-name="semicolon" unicode=";" horiz-adv-x="271" 
d="M66 -23q5 59 7 134q36 10 64 13.5t66 3.5q-6 -92 -20 -155.5t-46 -119.5h-85q9 65 14 124zM94.5 328.5q-18.5 10.5 -28.5 28.5t-10 40t10 40t28.5 28.5t41.5 10.5t41 -10.5t28 -28.5t10 -40t-10 -40t-28 -28.5t-41 -10.5t-41.5 10.5z" />
    <glyph glyph-name="ellipsis" unicode="&#x2026;" horiz-adv-x="828" 
d="M121 1q-17 10 -27 27t-10 37q0 21 10 38.5t27 27.5t39 10q21 0 38 -10t27 -27.5t10 -38.5q0 -20 -10 -37t-27 -27t-38 -10q-22 0 -39 10zM377 1q-17 10 -27 27t-10 37q0 21 10 38.5t27 27.5t39 10t39 -10t26.5 -27.5t9.5 -38.5q0 -20 -9.5 -37t-26.5 -27t-39 -10t-39 10z
M631 1q-17 10 -27 27t-10 37q0 21 10 38.5t27 27.5t39 10q21 0 38 -10t27 -27.5t10 -38.5q0 -20 -10 -37t-27 -27t-38 -10q-22 0 -39 10z" />
    <glyph glyph-name="exclam" unicode="!" horiz-adv-x="315" 
d="M89 692q29 7 67.5 12.5t67.5 5.5l-15 -474h-106zM120 1q-17 10 -26.5 26.5t-9.5 36.5t9.5 37t26.5 27t38 10t37.5 -10t26 -27t9.5 -37t-9.5 -36.5t-26 -26.5t-37.5 -10t-38 10z" />
    <glyph glyph-name="exclamdown" unicode="&#xa1;" horiz-adv-x="315" 
d="M195 500q17 -10 26.5 -26.5t9.5 -36.5t-9.5 -37t-26.5 -27t-38 -10t-37.5 10t-26 27t-9.5 37t9.5 36.5t26 26.5t37.5 10t38 -10zM226 -191q-28 -7 -67 -12t-68 -5l15 473h106z" />
    <glyph glyph-name="question" unicode="?" horiz-adv-x="442" 
d="M122 258q0 49 19 82t60 65q38 30 55.5 54.5t17.5 57.5q0 81 -111 81q-32 0 -66.5 -7.5t-62.5 -20.5q0 56 9 111q61 28 142 28q73 0 123 -22.5t75 -63t25 -96.5q0 -41 -14 -72.5t-39.5 -56.5t-65.5 -53q-28 -19 -42.5 -32.5t-21 -29.5t-6.5 -39v-16h-95q-2 20 -2 30z
M140 1q-17 10 -26.5 26.5t-9.5 36.5t9.5 37t26.5 27t38 10t38 -10t26.5 -27t9.5 -37t-9.5 -36.5t-26.5 -26.5t-38 -10t-38 10z" />
    <glyph glyph-name="questiondown" unicode="&#xbf;" horiz-adv-x="442" 
d="M302 500q17 -10 26.5 -26.5t9.5 -36.5t-9.5 -37t-26.5 -27t-38 -10t-37.5 10t-26 27t-9.5 37t9.5 36.5t26 26.5t37.5 10t38 -10zM321 243q0 -49 -19.5 -82t-60.5 -65q-38 -30 -55 -54.5t-17 -57.5q0 -37 26 -59t84 -22q32 0 66.5 7.5t62.5 20.5q0 -56 -9 -111
q-59 -28 -142 -28q-73 0 -122.5 22.5t-74.5 63t-25 96.5q0 41 14 72.5t39 56.5t65 53q29 19 43.5 33t21 30t6.5 39v15h95q2 -20 2 -30z" />
    <glyph glyph-name="periodcentered" unicode="&#xb7;" horiz-adv-x="367" 
d="M141 259q-19 11 -30 30t-11 42q0 22 11 41t30 30.5t43 11.5q23 0 42 -11.5t30 -30.5t11 -41q0 -23 -11 -42t-29.5 -30t-42.5 -11t-43 11z" />
    <glyph glyph-name="bullet" unicode="&#x2022;" horiz-adv-x="443" 
d="M159 228q-28 16 -43.5 43t-15.5 60t15.5 61t43.5 44t64 16t63 -16t42 -43.5t15 -61.5q0 -33 -15 -60t-42 -43t-63 -16t-64 16z" />
    <glyph glyph-name="asterisk" unicode="*" horiz-adv-x="458" 
d="M270 506l108 -101q-14 -17 -39 -35q-23 -16 -45 -26l-65 134l-63 -135q-18 7 -45 26q-22 14 -39 35l107 104l-147 18q1 25 11 52q9 28 21 47l131 -70l-28 145q25 6 52 6q28 0 52 -6l-26 -147l130 72q13 -21 21 -47q4 -13 7 -26.5t4 -24.5z" />
    <glyph glyph-name="numbersign" unicode="#" 
d="M445 431l-35 -175h101q0 -18 -4 -44t-9 -46h-106l-33 -166h-91l32 166h-110l-33 -166h-93l32 166h-83q0 20 4 45.5t10 44.5h87l34 175h-98q0 19 4 44.5t10 44.5h102l32 165q17 8 43 12t55 4l-36 -181h108l32 165q17 8 43.5 12t55.5 4l-36 -181h85q0 -18 -4 -43.5
t-9 -45.5h-90zM351 431h-109l-34 -175h109z" />
    <glyph glyph-name="slash" unicode="/" horiz-adv-x="396" 
d="M289 789q65 10 116 11l-302 -1012h-113z" />
    <glyph glyph-name="backslash" unicode="\" horiz-adv-x="396" 
d="M-8 789q21 6 50.5 9t59.5 2l302 -1012h-113z" />
    <glyph glyph-name="glyph374" horiz-adv-x="315" 
d="M195 699q17 -10 26.5 -26.5t9.5 -36.5t-9.5 -37t-26.5 -27t-38 -10t-37.5 10t-26 27t-9.5 37t9.5 36.5t26 26.5t37.5 10t38 -10zM226 8q-28 -7 -67 -12t-68 -5l15 473h106z" />
    <glyph glyph-name="glyph375" horiz-adv-x="442" 
d="M302 698q17 -10 26.5 -26.5t9.5 -36.5t-9.5 -37t-26.5 -27t-38 -10t-37.5 10t-26 27t-9.5 37t9.5 36.5t26 26.5t37.5 10t38 -10zM321 441q0 -49 -19.5 -82t-60.5 -65q-38 -30 -55 -54.5t-17 -57.5q0 -37 26 -59t84 -22q32 0 66.5 7.5t62.5 20.5q0 -56 -9 -111
q-59 -28 -142 -28q-73 0 -122.5 22.5t-74.5 63t-25 96.5q0 41 14 72.5t39 56.5t65 53q29 19 43.5 33t21 30t6.5 39v15h95q2 -20 2 -30z" />
    <glyph glyph-name="colon.aalt" horiz-adv-x="271" 
d="M94.5 95.5q-18.5 10.5 -28.5 28.5t-10 40t10 40t28.5 28.5t41.5 10.5t41 -10.5t28 -28.5t10 -40t-10 -40t-28 -28.5t-41 -10.5t-41.5 10.5zM94.5 448.5q-18.5 10.5 -28.5 28.5t-10 40t10 40t28.5 28.5t41.5 10.5t41 -10.5t28 -28.5t10 -40t-10 -40t-28 -28.5t-41 -10.5
t-41.5 10.5z" />
    <glyph glyph-name="bullet.aalt" horiz-adv-x="443" 
d="M159 226.5q-28 15.5 -43.5 43t-15.5 60.5t15.5 60.5t43.5 43.5t64 16t63 -16t42 -43t15 -61q0 -33 -15 -60.5t-42 -43t-63 -15.5t-64 15.5z" />
    <glyph glyph-name="slash.case" horiz-adv-x="382" 
d="M265 684q65 10 117 11l-261 -695h-113z" />
    <glyph glyph-name="backslash.aalt" horiz-adv-x="365" 
d="M262 0l-255 686q48 12 107 12l261 -698h-113z" />
    <glyph glyph-name="uni208D" unicode="&#x208d;" horiz-adv-x="323" 
d="M97 -171q-16 74 -16 151q0 73 16 145t45 133q26 -2 51 -9t45 -20q-24 -65 -36.5 -125t-12.5 -124q0 -146 53 -268q-25 -10 -48.5 -14.5t-51.5 -6.5q-29 64 -45 138z" />
    <glyph glyph-name="uni208E" unicode="&#x208e;" horiz-adv-x="323" 
d="M129.5 -302.5q-23.5 4.5 -48.5 14.5q52 119 52 268q0 64 -12 124.5t-37 124.5q20 13 45 20t51 9q29 -61 45.5 -133t16.5 -145q0 -78 -16 -152t-46 -137q-27 2 -50.5 6.5z" />
    <glyph glyph-name="parenleft" unicode="(" horiz-adv-x="336" 
d="M113.5 26q-32.5 126 -32.5 274q0 149 33 276.5t93 233.5q25 -1 51 -9t48 -22q-51 -113 -78.5 -228.5t-27.5 -250.5q0 -138 28 -257.5t82 -231.5q-51 -21 -103 -23q-61 112 -93.5 238z" />
    <glyph glyph-name="parenright" unicode=")" horiz-adv-x="336" 
d="M27 -189q54 113 82 232t28 257q0 135 -27.5 250.5t-78.5 228.5q21 14 47.5 22t51.5 9q60 -107 93 -234.5t33 -275.5t-32.5 -274t-93.5 -238q-51 2 -103 23z" />
    <glyph glyph-name="braceleft" unicode="{" horiz-adv-x="360" 
d="M230.5 -85.5q4.5 -15.5 16 -22.5t34.5 -7h63q0 -41 -10 -97h-67q-81 0 -118 45t-37 123v222q0 40 -18.5 57t-53.5 24v90q26 5 41 13t23 24t8 44v222q0 78 37 123t118 45h77q0 -44 -10 -96h-55q-31 0 -42 -17t-11 -58v-219q0 -52 -23 -83.5t-61 -41.5q37 -9 60.5 -41.5
t23.5 -80.5v-225q0 -28 4.5 -43.5z" />
    <glyph glyph-name="braceright" unicode="}" horiz-adv-x="360" 
d="M266.5 374q18.5 -17 53.5 -24v-90q-26 -5 -41 -13t-23 -24t-8 -44v-222q0 -78 -37 -123t-118 -45h-77q1 36 10 96h55q31 0 42.5 17t11.5 58v219q0 52 22.5 83.5t60.5 41.5q-37 9 -60.5 41.5t-23.5 80.5v225q0 28 -4.5 43.5t-16 22.5t-33.5 7h-64q1 24 3.5 50t6.5 46h67
q81 0 118 -44.5t37 -122.5v-222q0 -40 18.5 -57z" />
    <glyph glyph-name="bracketleft" unicode="[" horiz-adv-x="342" 
d="M81 820h240q0 -43 -10 -97h-116v-839h126q0 -38 -10 -96h-230v1032z" />
    <glyph glyph-name="bracketright" unicode="]" horiz-adv-x="342" 
d="M261 -212h-241q1 45 11 97h115v840h-126q1 41 11 95h230v-1032z" />
    <glyph glyph-name="uni207D" unicode="&#x207d;" horiz-adv-x="323" 
d="M97 499q-16 74 -16 151q0 73 16 145t45 133q26 -2 51 -9t45 -20q-24 -65 -36.5 -125t-12.5 -124q0 -146 53 -268q-25 -10 -48.5 -14.5t-51.5 -6.5q-29 64 -45 138z" />
    <glyph glyph-name="uni207E" unicode="&#x207e;" horiz-adv-x="323" 
d="M129.5 367.5q-23.5 4.5 -48.5 14.5q52 119 52 268q0 64 -12 124.5t-37 124.5q20 13 45 20t51 9q29 -61 45.5 -133t16.5 -145q0 -78 -16 -152t-46 -137q-27 2 -50.5 6.5z" />
    <glyph glyph-name="parenleft.case" horiz-adv-x="331" 
d="M111 95q-30 111 -30 255q0 96 14 174.5t40 146.5t66 139q50 -1 101 -27q-37 -73 -59 -136.5t-32.5 -135t-10.5 -161.5q0 -94 10.5 -168.5t32.5 -140t59 -136.5q-50 -24 -101 -26q-60 105 -90 216z" />
    <glyph glyph-name="parenright.case" horiz-adv-x="331" 
d="M220 593q30 -111 30 -255q0 -95 -14 -173.5t-40 -146t-66 -139.5q-54 2 -102 27q37 73 59 136.5t33 134.5t11 161q0 94 -10.5 168.5t-32.5 140t-59 136.5q24 13 50 19.5t51 7.5q60 -106 90 -217z" />
    <glyph glyph-name="braceleft.aalt" horiz-adv-x="360" 
d="M230.5 6.5q4.5 -15.5 16 -22.5t34.5 -7h63q0 -41 -10 -97h-67q-81 0 -118 45t-37 123v175q0 40 -18.5 57t-53.5 24v90q26 5 41.5 12.5t23 23.5t7.5 45v167q0 78 37 123t118 45h77q0 -44 -10 -96h-55q-31 0 -42 -17t-11 -58v-164q0 -52 -23 -83.5t-61 -42.5
q37 -9 60.5 -41t23.5 -80v-178q0 -28 4.5 -43.5z" />
    <glyph glyph-name="braceright.aalt" horiz-adv-x="360" 
d="M266.5 411q18.5 -17 53.5 -24v-90q-26 -5 -41.5 -12.5t-23 -23.5t-7.5 -45v-167q0 -78 -37 -123t-118 -45h-77q1 36 10 96h55q31 0 42.5 17t11.5 58v164q0 53 23 84t62 41q-39 8 -62.5 40.5t-23.5 81.5v178q0 28 -4.5 43.5t-16 22.5t-33.5 7h-64q1 24 3.5 49t6.5 48h67
q81 0 118 -45t37 -123v-175q0 -40 18.5 -57z" />
    <glyph glyph-name="bracketleft.aalt" horiz-adv-x="337" 
d="M81 810h236q0 -44 -10 -98h-112v-716h122q0 -38 -10 -96h-226v910z" />
    <glyph glyph-name="bracketright.aalt" horiz-adv-x="337" 
d="M257 -100h-237q1 46 11 98h111v716h-122q1 40 11 96h226v-910z" />
    <glyph glyph-name="hyphen" unicode="-" horiz-adv-x="374" 
d="M49 354h287q-1 -39 -11 -112h-287q0 46 11 112z" />
    <glyph glyph-name="uni00AD" unicode="&#xad;" horiz-adv-x="374" 
d="M49 354h287q-1 -39 -11 -112h-287q0 46 11 112z" />
    <glyph glyph-name="endash" unicode="&#x2013;" horiz-adv-x="519" 
d="M49 354h432q-1 -42 -12 -112h-431q2 56 11 112z" />
    <glyph glyph-name="emdash" unicode="&#x2014;" horiz-adv-x="915" 
d="M49 354h828q-1 -46 -12 -112h-827q2 54 11 112z" />
    <glyph glyph-name="uni2011" unicode="&#x2011;" horiz-adv-x="374" 
d="M49 354h287q-1 -39 -11 -112h-287q0 46 11 112z" />
    <glyph glyph-name="underscore" unicode="_" horiz-adv-x="521" 
d="M47 -103h436q-1 -42 -10 -81h-435q2 47 9 81z" />
    <glyph glyph-name="hyphen.aalt" horiz-adv-x="374" 
d="M49 414h287q-1 -39 -11 -112h-287q0 46 11 112z" />
    <glyph glyph-name="endash.aalt" horiz-adv-x="519" 
d="M49 414h432q-1 -42 -12 -112h-431q2 56 11 112z" />
    <glyph glyph-name="emdash.aalt" horiz-adv-x="915" 
d="M49 414h828q-1 -46 -12 -112h-827q2 54 11 112z" />
    <glyph glyph-name="quotesinglbase" unicode="&#x201a;" horiz-adv-x="264" 
d="M69.5 -11q5.5 55 7.5 125q37 10 60.5 13.5t59.5 3.5q-4 -82 -18.5 -140.5t-43.5 -125.5h-83q12 69 17.5 124z" />
    <glyph glyph-name="quotedblbase" unicode="&#x201e;" horiz-adv-x="439" 
d="M69.5 -15q5.5 55 7.5 125q37 10 60.5 13.5t59.5 3.5q-4 -82 -18.5 -140.5t-43.5 -125.5h-83q12 69 17.5 124zM244.5 -14q5.5 55 7.5 125q37 10 60.5 13.5t59.5 3.5q-4 -82 -18.5 -140.5t-43.5 -125.5h-83q12 69 17.5 124z" />
    <glyph glyph-name="quotedblleft" unicode="&#x201c;" horiz-adv-x="439" 
d="M192.5 582.5q-6.5 -60.5 -8.5 -134.5h-117q4 60 10 98.5t18 73.5t34 77q46 13 83 13q-13 -67 -19.5 -127.5zM367.5 582.5q-6.5 -60.5 -8.5 -134.5h-117q4 60 10 98.5t18 73.5t34 77q46 13 83 13q-13 -67 -19.5 -127.5z" />
    <glyph glyph-name="quotedblright" unicode="&#x201d;" horiz-adv-x="439" 
d="M69.5 567q5.5 55 7.5 125q37 10 60.5 13.5t59.5 3.5q-4 -82 -18.5 -140.5t-43.5 -125.5h-83q12 69 17.5 124zM244.5 567q5.5 55 7.5 125q37 10 60.5 13.5t59.5 3.5q-4 -82 -18.5 -140.5t-43.5 -125.5h-83q12 69 17.5 124z" />
    <glyph glyph-name="quoteleft" unicode="&#x2018;" horiz-adv-x="264" 
d="M192.5 582.5q-6.5 -60.5 -8.5 -134.5h-117q4 60 10 98.5t18 73.5t34 77q46 13 83 13q-13 -67 -19.5 -127.5z" />
    <glyph glyph-name="quoteright" unicode="&#x2019;" horiz-adv-x="224" 
d="M69.5 567q5.5 55 7.5 125q37 10 60.5 13.5t59.5 3.5q-4 -82 -18.5 -140.5t-43.5 -125.5h-83q12 69 17.5 124z" />
    <glyph glyph-name="guillemotleft" unicode="&#xab;" horiz-adv-x="548" 
d="M262 275l160 234q40 -11 96 -42l-130 -192l132 -194q-21 -12 -48.5 -23.5t-49.5 -17.5zM37 275l160 234q40 -11 96 -42l-130 -192l132 -194q-21 -12 -48.5 -23.5t-49.5 -17.5z" />
    <glyph glyph-name="guillemotright" unicode="&#xbb;" horiz-adv-x="548" 
d="M77 58q-28 12 -48 23l131 194l-129 192q54 30 95 42l160 -234l-160 -235q-21 6 -49 18zM302 58q-28 12 -48 23l131 194l-129 192q54 30 95 42l160 -234l-160 -235q-21 6 -49 18z" />
    <glyph glyph-name="guilsinglleft" unicode="&#x2039;" horiz-adv-x="324" 
d="M37 275l160 234q40 -11 96 -42l-130 -192l132 -194q-21 -12 -48.5 -23.5t-49.5 -17.5z" />
    <glyph glyph-name="guilsinglright" unicode="&#x203a;" horiz-adv-x="323" 
d="M77 58q-28 12 -48 23l131 194l-129 192q54 30 95 42l160 -234l-160 -235q-21 6 -49 18z" />
    <glyph glyph-name="quotedbl" unicode="&#x22;" horiz-adv-x="435" 
d="M77 692q25 8 53.5 13t53.5 5l-11 -259h-85zM252 692q25 8 53.5 13t53.5 5l-11 -259h-85z" />
    <glyph glyph-name="quotesingle" unicode="'" horiz-adv-x="261" 
d="M77 692q25 8 53.5 13t53.5 5l-11 -259h-85z" />
    <glyph glyph-name="guillemotleft.aalt" horiz-adv-x="540" 
d="M254 364l160 234q40 -11 96 -42l-130 -192l132 -194q-21 -12 -48.5 -23.5t-49.5 -17.5zM37 364l160 234q40 -11 96 -42l-130 -192l132 -194q-21 -12 -48.5 -23.5t-49.5 -17.5z" />
    <glyph glyph-name="guillemotright.aalt" horiz-adv-x="540" 
d="M77 147q-28 12 -48 23l131 194l-129 192q54 30 95 42l160 -234l-160 -235q-21 6 -49 18zM294 147q-28 12 -48 23l131 194l-129 192q54 30 95 42l160 -234l-160 -235q-21 6 -49 18z" />
    <glyph glyph-name="guilsinglleft.aalt" horiz-adv-x="323" 
d="M37 364l160 234q40 -11 96 -42l-130 -192l132 -194q-21 -12 -48.5 -23.5t-49.5 -17.5z" />
    <glyph glyph-name="guilsinglright.aalt" horiz-adv-x="323" 
d="M77 147q-28 12 -48 23l131 194l-129 192q54 30 95 42l160 -234l-160 -235q-21 6 -49 18z" />
    <glyph glyph-name="uni00A0" unicode="&#xa0;" horiz-adv-x="233" 
 />
    <glyph glyph-name="uniFEFF" unicode="&#xfeff;" horiz-adv-x="0" 
 />
    <glyph glyph-name="uni20A8" unicode="&#x20a8;" 
d="M276.5 356q-17.5 -47 -55.5 -72l92 -284h-102l-76 258h-10v-258h-97v689q18 8 50.5 14t59.5 6q89 0 122.5 -61t33.5 -161q0 -84 -17.5 -131zM125 360h20q16 0 26 9t16 35t6 76q0 46 -4.5 72.5t-15.5 39t-30 12.5q-11 0 -18 -1v-243zM504.5 214.5q18.5 -34.5 18.5 -83.5
q0 -66 -31.5 -104.5t-92.5 -38.5q-17 0 -37 6t-36 17q0 55 9 97q23 -20 48 -20q43 0 43 47q0 17 -8.5 31t-23.5 29l-17 17q-32 32 -49 66.5t-17 85.5q0 44 14 77t40.5 51.5t62.5 18.5q18 0 37.5 -5t34.5 -14q-2 -60 -8 -99q-24 16 -48 16q-18 0 -30 -11t-12 -32
q0 -33 32 -65l18 -18q34 -34 52.5 -68.5z" />
    <glyph glyph-name="uni0E3F" unicode="&#xe3f;" 
d="M473.5 99q-22.5 -42 -67 -68t-109.5 -30v-134h-80v133h-163v692q32 7 75.5 11.5t87.5 5.5v92q16 8 38 13t42 5v-114q91 -11 135.5 -58t44.5 -122q0 -56 -25.5 -96t-69.5 -61q58 -20 86 -65t28 -109q0 -53 -22.5 -95zM217 605q-16 0 -27.5 -1t-18.5 -2v-194h46v197z
M297 598v-184q60 18 60 93q0 71 -60 91zM217 102v205h-46v-205h46zM375 203q0 83 -78 100v-198q78 12 78 98z" />
    <glyph glyph-name="uni20BF" unicode="&#x20bf;" 
d="M457.5 74.5q-38.5 -49.5 -111.5 -66.5v-141h-85v133h-46v-133h-85v133h-76v692q31 7 76 12v97q17 8 40.5 13t44.5 5v-110h21q17 0 25 -1v93q16 8 40 13t45 5v-123q66 -19 98.5 -63t32.5 -108q0 -56 -25.5 -96t-69.5 -61q58 -20 86 -65t28 -109q0 -70 -38.5 -119.5z
M176 602v-194h70q48 0 77.5 21.5t29.5 77.5q0 47 -28 73t-85 26q-36 0 -64 -4zM371 203q0 104 -121 104h-74v-205h84q111 0 111 101z" />
    <glyph glyph-name="uni20B5" unicode="&#x20b5;" 
d="M223 198q18 -55 53.5 -79t89.5 -24q28 0 56.5 7t51.5 19q-3 -53 -17 -118q-32 -14 -75 -19v-117h-93v120q-104 20 -160 110t-56 249q0 161 56 249.5t160 108.5v97q18 8 44 13t49 5v-110q55 -5 94 -22q0 -27 -4.5 -58t-10.5 -54q-43 23 -95 23q-55 0 -90 -24.5t-53 -80
t-18 -149.5q0 -91 18 -146z" />
    <glyph glyph-name="cent" unicode="&#xa2;" 
d="M405 106q-28 -16 -78 -21v-97h-93v103q-83 19 -129 83t-46 171q0 109 46 172.5t129 82.5v84q15 8 43 12.5t50 4.5v-94q49 -3 92 -17q0 -24 -3.5 -53t-8.5 -50q-39 14 -84 14q-66 0 -100 -40t-34 -117q0 -76 36 -116.5t97 -40.5q25 0 50.5 6.5t47.5 17.5q-6 -59 -15 -105z
" />
    <glyph glyph-name="colonmonetary" unicode="&#x20a1;" 
d="M462 588l-80 -497q28 1 53.5 8t54.5 18q-4 -50 -18 -114q-45 -19 -108 -21l-19 -117h-78l20 123q-29 5 -56 15l-22 -137h-78l28 176q-58 45 -91 118.5t-33 175.5q0 159 59.5 249t171.5 115l15 95q14 6 39.5 11t42.5 5l-16 -101h12q15 0 43 -2l14 86q12 7 38.5 11.5
t43.5 4.5l-19 -115q11 -2 29 -8q-2 -58 -17 -109q-9 5 -29 10zM385 601q-7 1 -22 1q-12 0 -34 -2l-78 -477q21 -14 54 -24zM185 201l60 374q-44 -27 -65 -85t-21 -153q0 -79 26 -136z" />
    <glyph glyph-name="currency" unicode="&#xa4;" 
d="M455 243l68 -67l-73 -74l-68 68q-52 -29 -107 -29t-107 29l-68 -68l-73 74l68 67q-29 52 -29 107t29 107l-68 67l73 74l69 -68q50 29 106 29t106 -29l69 68l73 -74l-68 -67q29 -52 29 -107t-29 -107zM185 296.5q13 -23.5 36.5 -37t53.5 -13.5q29 0 52.5 13.5t37 37
t13.5 53.5t-13.5 53.5t-37 37t-52.5 13.5q-30 0 -53.5 -13.5t-36.5 -37t-13 -53.5t13 -53.5z" />
    <glyph glyph-name="dollar" unicode="$" 
d="M449 59q-43 -53 -128 -70v-122h-93v116q-47 2 -90.5 13t-69.5 29q1 33 4.5 56.5t10.5 49.5q32 -19 78 -30t87 -11q117 0 117 91q0 35 -25 59.5t-84 48.5l-46 19q-153 62 -153 209q0 73 44 122.5t127 64.5v97q18 8 43.5 13t49.5 5v-111q74 -3 136 -29q-2 -32 -5.5 -55.5
t-10.5 -49.5q-32 14 -71 21.5t-74 7.5q-57 0 -84.5 -23.5t-27.5 -60.5q0 -38 22.5 -60.5t70.5 -42.5l48 -19q85 -34 126 -84.5t41 -125.5t-43 -128z" />
    <glyph glyph-name="Euro" unicode="&#x20ac;" 
d="M307 123.5q37 -28.5 95 -28.5q28 0 56.5 7t51.5 19q-3 -53 -17 -118q-24 -10 -52 -15.5t-55 -5.5q-105 0 -173 58.5t-92 174.5h-88v93h77q-1 12 -1 38q0 21 1 31h-77v93h87q23 122 92.5 181t178.5 59q33 0 65 -6t57 -17q-1 -28 -5.5 -58.5t-10.5 -53.5q-19 11 -44 17
t-51 6q-61 0 -97.5 -30t-51.5 -98h214q-1 -41 -11 -93h-214q-1 -11 -1 -33q0 -25 1 -36h211q-1 -22 -4 -48t-7 -45h-188q16 -63 53 -91.5z" />
    <glyph glyph-name="florin" unicode="&#x192;" 
d="M332 461h123q-3 -52 -12 -98h-111v-197q0 -92 -46.5 -136.5t-138.5 -44.5q-45 0 -79 11q0 47 11 102q30 -9 54 -9q35 0 51.5 20t16.5 62v192h-106v98h106v68q0 92 46 136.5t137 44.5q41 0 80 -12q-1 -50 -12 -101q-32 8 -54 8q-36 0 -51 -19t-15 -63v-62z" />
    <glyph glyph-name="franc" unicode="&#x20a3;" 
d="M250 584v-179h213q-1 -25 -4 -56.5t-7 -51.5h-202v-91h149q-4 -51 -13 -90h-136v-116h-125v116h-92v90h92v486h364q-2 -56 -10 -108h-229z" />
    <glyph glyph-name="uni20B2" unicode="&#x20b2;" 
d="M508 20q-28 -13 -66.5 -22t-78.5 -12v-119h-91v121q-119 17 -179 111t-60 248t58.5 246.5t180.5 110.5v97q18 8 43.5 13t47.5 5v-111q82 -3 140 -27q-5 -54 -18 -108q-36 14 -68.5 21t-73.5 7q-181 0 -181 -254q0 -256 167 -256q29 0 56 6v258h123v-335z" />
    <glyph glyph-name="uni20B4" unicode="&#x20b4;" 
d="M516 470q0 -21 -2.5 -46.5t-6.5 -46.5h-474v93h309q12 20 12 49q0 37 -26.5 60.5t-84.5 23.5q-33 0 -70.5 -7.5t-71.5 -21.5q-5 25 -9 50.5t-6 54.5q73 30 163 30q117 0 173 -46t56 -123q0 -37 -14 -70h52zM33 308h471q-1 -22 -4 -48t-7 -45h-300q-6 -15 -6 -34
q0 -44 31 -67.5t87 -23.5q40 0 83 11t76 31q7 -27 10 -51t4 -56q-30 -20 -77 -31t-98 -11q-118 0 -179 44.5t-61 122.5q0 35 16 65h-46v93z" />
    <glyph glyph-name="uni20AD" unicode="&#x20ad;" 
d="M235 302h-15v-302h-125v302h-79v90h79v292q24 7 59 12t66 5v-309h12l148 300h130l-151 -300h132q-5 -51 -12 -90h-114l154 -302h-138z" />
    <glyph glyph-name="uni20BA" unicode="&#x20ba;" 
d="M523 268q-2 -127 -62 -197.5t-186 -70.5h-174v224l-78 -32v93l78 32v82l-79 -33v93l79 32v193q25 7 62.5 12t70.5 5v-155l156 64q0 -58 -6 -94l-150 -62v-83l156 64q0 -58 -6 -93l-150 -62v-169h42q45 0 72.5 16t41 48t16.5 83q42 8 117 10z" />
    <glyph glyph-name="uni20BC" unicode="&#x20bc;" 
d="M429 504q44 -32 66 -82.5t22 -113.5v-308h-118v307q0 57 -18.5 90.5t-60.5 43.5v-297h-90v297q-41 -10 -60 -43.5t-19 -91.5v-306h-118v308q0 62 22.5 112.5t66.5 82.5t108 41v148q16 8 42.5 13t47.5 5v-166q65 -8 109 -40z" />
    <glyph glyph-name="uni20A5" unicode="&#x20a5;" 
d="M484.5 548.5q25.5 -41.5 25.5 -116.5v-353h-112v341q0 32 -10 46.5t-32 14.5q-11 0 -22 -6l-6 -36v-13v-347h-65l-16 -91h-86l57 321v112q0 31 -9.5 45.5t-30.5 14.5q-17 0 -30 -10v-392h-113v499h102l5 -44q25 56 79 56q23 0 45 -10l19 106q15 7 42.5 11.5t47.5 4.5
l-22 -122q20 10 48 10q58 0 83.5 -41.5z" />
    <glyph glyph-name="uni20A6" unicode="&#x20a6;" 
d="M547 345.5q-3 -24.5 -7 -43.5h-57v-302h-113l-128 302h-61v-47v-255h-114v302h-69v90h69v292q31 8 65 12.5t63 4.5l129 -297q1 -4 5 -12h43q-1 29 -1 82v210q25 9 50 13t62 4v-309h69q-2 -22 -5 -46.5zM179 392h27q-24 72 -32 100zM374 302h-16l6 -20q2 -6 5 -16t7 -24z
" />
    <glyph glyph-name="uni20B1" unicode="&#x20b1;" 
d="M477 404h66q-1 -21 -4 -45t-7 -42h-72q-24 -76 -76.5 -119.5t-127.5 -43.5h-66v-153h-120v316h-69v87h69v62h-69v87h69v137q71 19 156 19q197 0 240 -156h85q-1 -39 -11 -87h-61v-17q0 -15 -2 -45zM190 553h141q-14 29 -40 41.5t-67 12.5q-8 0 -34 -2v-52zM190 404h159
q1 12 1 39v23h-160v-62zM298 272.5q22 14.5 34 44.5h-142v-59h53q33 0 55 14.5z" />
    <glyph glyph-name="uni20BD" unicode="&#x20bd;" 
d="M226 256v-75h205q-6 -56 -13 -90h-192v-90h-124v90h-78v90h78v75h-77v90h77v346q35 7 79.5 12t86.5 5q134 0 190.5 -58t56.5 -160q0 -114 -59 -174.5t-175 -60.5h-55zM226 604v-246h42q44 0 69.5 13.5t37 42t11.5 75.5q0 59 -26.5 88.5t-88.5 29.5q-21 0 -45 -3z" />
    <glyph glyph-name="uni20B9" unicode="&#x20b9;" 
d="M418 518h75q-5 -44 -14 -91h-59q-12 -71 -65 -115.5t-147 -53.5l234 -257h-160l-219 253v90h91q58 0 91.5 20.5t43.5 62.5h-226v91h226q-20 84 -128 84h-98v90h442q-4 -38 -14 -90h-115q33 -34 42 -84z" />
    <glyph glyph-name="sterling" unicode="&#xa3;" 
d="M484 107q-1 -26 -4 -57t-7 -50h-400v103q34 3 56.5 12.5t34.5 31.5t12 62l-3 50l-5 61h-97v95h89l-1 10q0 8 -2 30q-1 11 -2 26t-1 32q0 98 59.5 147t170.5 49q51 0 90 -11q-1 -27 -4 -56t-7 -50q-41 9 -71 9q-52 0 -81 -23.5t-29 -75.5q0 -14 1 -30.5t3 -31.5l2 -25h159
q-4 -51 -11 -95h-140l4 -44q3 -22 3 -42q0 -44 -13.5 -74.5t-40.5 -52.5h235z" />
    <glyph glyph-name="uni20B8" unicode="&#x20b8;" 
d="M511 692q-2 -48 -10 -93h-462v93h472zM39 530h459q-1 -23 -4 -48t-7 -45h-150v-437h-125v437h-173v93z" />
    <glyph glyph-name="uni20AE" unicode="&#x20ae;" 
d="M337 583v-128l123 41q0 -58 -6 -94l-117 -39v-75l124 41q0 -48 -6 -93l-118 -40v-196h-125v154l-120 -40v93l120 40v73l-120 -40v93l120 40v170h-169q1 22 4 53t6 56h452q-1 -27 -4 -56t-6 -53h-158z" />
    <glyph glyph-name="uni20A9" unicode="&#x20a9;" 
d="M534 330h-51l-35 -330h-134l-32 330h-15l-31 -330h-135l-38 330h-57v90h47l-31 272h103l22 -272h45l20 272h128l21 -272h43l17 272h100l-29 -272h54q-3 -46 -12 -90zM186 330h-32l17 -209zM398 330h-30l16 -212z" />
    <glyph glyph-name="yen" unicode="&#xa5;" 
d="M340 303v-66h149q-2 -21 -5.5 -46t-8.5 -43h-135v-148h-130v148h-150v89h150v66h-150v89h117l-172 300h143l129 -255l132 255h135l-172 -300h121q-2 -21 -5.5 -46t-8.5 -43h-139z" />
    <glyph glyph-name="cent.aalt" horiz-adv-x="431" 
d="M198.5 227.5q35.5 -40.5 97.5 -40.5q25 0 50.5 6.5t46.5 17.5q-3 -53 -14 -105q-28 -16 -78 -21v-97h-93v103q-83 18 -129 82.5t-46 171.5q0 109 46 172.5t129 82.5v84q15 8 43 12.5t50 4.5v-94q49 -3 92 -17q-1 -26 -4.5 -55t-7.5 -48q-39 14 -84 14q-66 0 -100 -40
t-34 -117q0 -76 35.5 -116.5z" />
    <glyph glyph-name="currency.aalt" horiz-adv-x="618" 
d="M489 244l69 -68l-74 -74l-68 68q-50 -29 -106 -29t-108 29l-68 -68l-73 74l69 68q-29 47 -29 106t29 106l-69 68l73 74l69 -68q50 29 107 29q28 0 55 -7.5t51 -21.5l69 68l73 -74l-69 -68q29 -47 29 -106q0 -56 -29 -106zM219.5 296.5q13.5 -23.5 37 -37t53.5 -13.5
q29 0 52.5 13.5t37 37t13.5 53.5t-13.5 53.5t-37 37t-52.5 13.5q-30 0 -53.5 -13.5t-37 -37t-13.5 -53.5t13.5 -53.5z" />
    <glyph glyph-name="dollar.aalt" horiz-adv-x="508" 
d="M431.5 59q-43.5 -53 -129.5 -70v-122h-93v116q-47 2 -90.5 13.5t-69.5 28.5q1 33 4.5 56.5t10.5 49.5q33 -19 80 -30t88 -11q116 0 116 91q0 25 -9.5 43t-32.5 33.5t-65 32.5l-46 19q-157 65 -157 202q0 76 44 127t127 66v97q18 8 44 13t49 5v-111q75 -3 137 -29
q-2 -30 -6 -53.5t-10 -51.5q-32 14 -72 21.5t-75 7.5q-57 0 -84.5 -23.5t-27.5 -60.5q0 -38 24 -62t71 -44l49 -19q82 -33 124.5 -83.5t42.5 -123.5q0 -75 -43.5 -128z" />
    <glyph glyph-name="Euro.aalt" horiz-adv-x="565" 
d="M306 123.5q37 -28.5 95 -28.5q27 0 56 7t52 19q-4 -50 -17 -118q-25 -10 -53 -15.5t-55 -5.5q-105 0 -173 58.5t-92 174.5h-87v93h76q-1 12 -1 38q0 21 1 31h-76v93h86q23 122 93 181t179 59q32 0 64 -6t57 -17q-1 -28 -5.5 -58.5t-10.5 -53.5q-19 11 -43.5 17t-50.5 6
q-61 0 -97.5 -30t-51.5 -98h213q0 -21 -3 -46.5t-8 -46.5h-213q-1 -11 -1 -33q0 -25 1 -36h211q-1 -21 -4 -47t-8 -46h-187q16 -63 53 -91.5z" />
    <glyph glyph-name="florin.aalt" horiz-adv-x="438" 
d="M285 461h123q-3 -52 -12 -98h-111v-197q0 -92 -46.5 -136.5t-138.5 -44.5q-45 0 -79 11q2 55 11 102q31 -9 54 -9q35 0 52 20t17 62v192h-107v98h107v68q0 92 45.5 136.5t136.5 44.5q43 0 80 -12q-2 -58 -12 -101q-32 8 -53 8q-36 0 -51.5 -19.5t-15.5 -62.5v-62z" />
    <glyph glyph-name="uni20BA.aalt" horiz-adv-x="577" 
d="M551 263q-1 -77 -27 -136t-81 -93t-139 -34h-175v236l-78 -28v93l78 27v78l-78 -27v93l78 27v185q25 7 63 12t70 5v-156l157 55q0 -58 -6 -94l-151 -53v-79l158 55q0 -57 -6 -93l-152 -54v-175h43q67 0 98.5 36t31.5 111q42 7 116 9z" />
    <glyph glyph-name="uni20BC.aalt" horiz-adv-x="656" 
d="M494 501.5q47 -32.5 72 -84t25 -115.5v-302h-118v291q0 58 -23.5 92.5t-68.5 45.5v-285h-106v285q-44 -12 -68 -46t-24 -92v-291h-118v302q0 64 25.5 115t73 83.5t111.5 42.5v149q19 8 50 13t56 5v-167q66 -9 113 -41.5z" />
    <glyph glyph-name="uni20B9.aalt" horiz-adv-x="557" 
d="M448 518h81q-5 -47 -15 -92h-64q-24 -151 -220 -170l250 -255h-161l-238 252v91h99q61 0 94.5 20t44.5 62h-238v92h238q-10 43 -43 63.5t-89 20.5h-106v90h460q-4 -41 -14 -90h-123q33 -35 44 -84z" />
    <glyph glyph-name="sterling.aalt" horiz-adv-x="497" 
d="M441 107q-1 -26 -4 -57t-7 -50h-400v103q34 3 56.5 12.5t34.5 31.5t12 62l-3 50l-5 61h-97v95h89l-1 10q0 8 -2 30q-1 11 -2 26t-1 32q0 98 59.5 147t170.5 49q51 0 90 -11q-1 -27 -4 -56t-7 -50q-41 9 -71 9q-52 0 -81 -23.5t-29 -75.5q0 -14 1 -30.5t3 -31.5l2 -25h159
q-4 -51 -11 -95h-140l4 -44q3 -22 3 -42q0 -44 -13.5 -74.5t-40.5 -52.5h235z" />
    <glyph glyph-name="uni20A9.aalt" horiz-adv-x="807" 
d="M788 330h-87l-70 -330h-137l-65 330h-55l-64 -330h-144l-71 330h-89v90h70l-59 272h133l46 -272h97l52 272h117l53 -272h92l45 272h125l-57 -272h80q-3 -46 -12 -90zM411 420l-9 49l-10 -49h19zM276 330h-65l30 -182zM592 330h-60l32 -166z" />
    <glyph glyph-name="yen.aalt" horiz-adv-x="555" 
d="M343 303v-66h149q-2 -21 -5.5 -46t-8.5 -43h-135v-148h-130v148h-150v89h150v66h-150v89h117l-172 300h143l129 -255l132 255h135l-172 -300h121q-2 -21 -5.5 -46t-8.5 -43h-139z" />
    <glyph glyph-name="uni2219" unicode="&#x2219;" 
d="M218 291q-22 22 -22 56q0 35 22 57.5t57 22.5q34 0 56 -22.5t22 -57.5q0 -34 -22 -56t-56 -22q-35 0 -57 22z" />
    <glyph glyph-name="uni2215" unicode="&#x2215;" 
d="M349 789q65 10 116 11l-302 -1012h-113z" />
    <glyph glyph-name="plus" unicode="+" 
d="M478 288h-150v-156h-106v156h-160q1 45 10 103h150v151h106v-151h160q-1 -44 -10 -103z" />
    <glyph glyph-name="minus" unicode="&#x2212;" 
d="M72 391h416q-1 -44 -10 -103h-416q1 45 10 103z" />
    <glyph glyph-name="multiply" unicode="&#xd7;" 
d="M406 142l-131 129l-132 -130l-69 69l131 130l-131 129l69 68l131 -129l131 129l68 -69l-130 -128l132 -130z" />
    <glyph glyph-name="divide" unicode="&#xf7;" 
d="M238.5 443.5q-16.5 9.5 -26 26t-9.5 36.5t9.5 36.5t26 26t37.5 9.5t37 -9.5t25.5 -26t9.5 -36.5t-9.5 -36.5t-25.5 -26t-37 -9.5t-37.5 9.5zM72 391h416q-1 -44 -10 -103h-416q1 45 10 103zM238.5 111.5q-16.5 9.5 -26 26t-9.5 36.5t9.5 36.5t26 26t37.5 9.5t37 -9.5
t25.5 -26t9.5 -36.5t-9.5 -36.5t-25.5 -26t-37 -9.5t-37.5 9.5z" />
    <glyph glyph-name="equal" unicode="=" 
d="M77 482h405q0 -42 -9 -103h-406q1 44 10 103zM77 298h405q0 -41 -9 -104h-406q1 44 10 104z" />
    <glyph glyph-name="notequal" unicode="&#x2260;" 
d="M303 298h179q-1 -43 -10 -104h-215l-64 -144l-79 35l48 109h-95q1 44 10 104h131l36 81h-177q1 44 10 103h213l66 150l80 -36l-51 -114h97q-1 -44 -10 -103h-133z" />
    <glyph glyph-name="greater" unicode="&#x3e;" 
d="M480 387q0 -27 -8 -93l-393 -166q0 61 8 112l259 102l-263 105q1 51 12 109z" />
    <glyph glyph-name="less" unicode="&#x3c;" 
d="M204 342l262 -105q0 -26 -3 -53.5t-8 -55.5l-386 168q0 35 9 94l393 166q0 -51 -8 -112z" />
    <glyph glyph-name="greaterequal" unicode="&#x2265;" 
d="M80 311l243 79l-251 80q1 52 12 110l390 -143q0 -35 -9 -94l-393 -144q0 51 8 112zM487 164q-1 -44 -10 -103h-416q1 45 10 103h416z" />
    <glyph glyph-name="lessequal" unicode="&#x2264;" 
d="M470 254.5q-3 -27.5 -8 -55.5l-390 143q0 27 8 93l394 145q-2 -66 -9 -112l-243 -80l251 -80q0 -26 -3 -53.5zM487 164q-1 -44 -10 -103h-416q1 45 10 103h416z" />
    <glyph glyph-name="plusminus" unicode="&#xb1;" 
d="M224 375h-163q1 44 10 103h153v149h102v-149h161q-1 -44 -10 -103h-151v-144h-102v144zM71 166h416q-1 -43 -10 -104h-416q1 46 10 104z" />
    <glyph glyph-name="approxequal" unicode="&#x2248;" 
d="M314.5 374.5q-20.5 7.5 -50.5 21.5q-24 11 -37.5 16t-26.5 5q-16 0 -25 -11t-16 -36q-51 5 -94 15q12 52 30 80.5t40 38.5t51 10q23 0 45 -7.5t53 -22.5q23 -11 37.5 -16t25.5 -5q15 0 24.5 12t17.5 44q40 -3 93 -15q-18 -76 -49 -106.5t-76 -30.5q-22 0 -42.5 7.5z
M314.5 179.5q-20.5 7.5 -50.5 21.5q-24 11 -37.5 16t-26.5 5q-16 0 -25 -11t-16 -36q-51 5 -94 15q12 52 30 80.5t40 38.5t51 10q23 0 45 -7.5t53 -22.5q23 -11 37.5 -16t25.5 -5q15 0 24.5 12t17.5 44q40 -3 93 -15q-18 -76 -49 -106.5t-76 -30.5q-22 0 -42.5 7.5z" />
    <glyph glyph-name="asciitilde" unicode="~" 
d="M315.5 277.5q-20.5 7.5 -50.5 21.5q-24 11 -37.5 16t-26.5 5q-16 0 -25 -11t-16 -36q-51 5 -94 15q12 52 30 80.5t40 38.5t51 10q23 0 45 -7.5t53 -22.5q23 -11 37.5 -16t25.5 -5q15 0 24.5 12t17.5 44q40 -3 93 -15q-18 -76 -49 -106.5t-76 -30.5q-22 0 -42.5 7.5z" />
    <glyph glyph-name="logicalnot" unicode="&#xac;" 
d="M488 391v-259h-106v156h-320q1 45 10 103h416z" />
    <glyph glyph-name="asciicircum" unicode="^" 
d="M365 267l-89 316l-96 -316h-117l137 415q58 16 146 16l140 -431h-121z" />
    <glyph glyph-name="infinity" unicode="&#x221e;" horiz-adv-x="632" 
d="M514.5 502.5q30.5 -21.5 46.5 -60t16 -89.5q0 -49 -16 -89.5t-46.5 -64t-73.5 -23.5q-44 0 -73.5 18.5t-55.5 64.5q-27 -42 -56.5 -61t-69.5 -19q-41 0 -71 21.5t-46 60.5t-16 90q0 49 15.5 89t45.5 63t71 23q43 0 73.5 -18.5t57.5 -62.5q26 43 54.5 61t71.5 18
q42 0 72.5 -21.5zM223 281.5q10 7.5 20.5 24t25.5 47.5q-20 45 -35 63t-36 18q-25 0 -40 -23.5t-15 -58.5q0 -33 14.5 -55.5t42.5 -22.5q13 0 23 7.5zM472 293q13 23 13 58q0 34 -13.5 56.5t-38.5 22.5q-19 0 -34 -16.5t-38 -61.5q15 -33 25.5 -50t21.5 -24.5t26 -7.5
q25 0 38 23z" />
    <glyph glyph-name="emptyset" unicode="&#x2205;" horiz-adv-x="840" 
d="M707 575q38 -47 59 -105t21 -124q0 -103 -49.5 -186t-133.5 -130t-184 -47q-64 0 -122 19.5t-105 55.5l-92 -92l-61 59l92 92q-38 47 -59 105.5t-21 123.5q0 103 49.5 186t134 130t184.5 47q64 0 122 -19.5t105 -56.5l92 92l61 -57zM216 201l348 349q-30 22 -67 33.5
t-77 11.5q-68 0 -125 -32.5t-90.5 -89.5t-33.5 -127q0 -83 45 -145zM656.5 424q-11.5 37 -32.5 67l-348 -350q30 -21 67 -32.5t77 -11.5q68 0 124.5 32t90 89t33.5 128q0 41 -11.5 78z" />
    <glyph glyph-name="integral" unicode="&#x222b;" 
d="M75 -213q1 49 12 100q29 -9 54 -9q34 0 52 20.5t18 61.5v574q0 88 46.5 131.5t137.5 43.5q46 0 79 -10q-2 -57 -11 -100q-14 4 -28 6.5t-26 2.5q-35 0 -52.5 -19.5t-17.5 -60.5v-572q0 -180 -184 -180q-42 0 -80 11z" />
    <glyph glyph-name="Omega" unicode="&#x2126;" 
d="M394 112h125q-2 -67 -9 -112h-203v166q44 14 66 62.5t22 149.5q0 111 -31 165.5t-88 54.5q-56 0 -86.5 -54.5t-30.5 -162.5q0 -101 22 -150t66 -64v-167h-218q1 27 3 57.5t5 54.5h124v6q-127 77 -127 279q0 96 29 166t84 108t130 38q76 0 131 -38.5t83.5 -109
t28.5 -164.5q0 -106 -34 -174.5t-92 -102.5v-8z" />
    <glyph glyph-name="Delta" unicode="&#x2206;" 
d="M547 0h-544l191 682q78 16 152 16zM386 108l-112 439l-118 -439h230z" />
    <glyph glyph-name="product" unicode="&#x220f;" 
d="M53 692h443v-904h-128v791h-186v-791h-129v904z" />
    <glyph glyph-name="summation" unicode="&#x2211;" 
d="M218 -102h282q-1 -26 -4 -58t-7 -52h-438q0 35 7 86l246 385l-251 344q4 56 13 89h434q-1 -27 -4 -58.5t-7 -52.5h-275l228 -321z" />
    <glyph glyph-name="radical" unicode="&#x221a;" horiz-adv-x="900" 
d="M842 580h-243l-263 -792h-140l-172 462h131l112 -323l237 765h352q-3 -54 -14 -112z" />
    <glyph glyph-name="partialdiff" unicode="&#x2202;" 
d="M457.5 632.5q58.5 -77.5 58.5 -210.5q0 -104 -29.5 -203.5t-95 -165t-166.5 -65.5q-69 0 -111.5 29.5t-61 77.5t-18.5 107q0 78 26.5 149t79.5 115.5t128 44.5q74 0 116 -55q-6 78 -37.5 112.5t-93.5 34.5q-57 0 -113 -22q0 23 5.5 53t14.5 57q62 19 112 19
q127 0 185.5 -77.5zM311.5 136q30.5 34 48.5 91t24 127q-42 52 -101 52q-38 0 -65 -27t-40.5 -70.5t-13.5 -93.5q0 -55 17.5 -84t58.5 -29t71.5 34z" />
    <glyph glyph-name="mu" unicode="&#xb5;" 
d="M488 499v-499h-117l-9 78q-22 -45 -55.5 -67.5t-83.5 -22.5q-24 0 -47 5q11 -94 11 -160v-45h-125v351q-1 8 -1 25v335h129v-308q0 -51 18.5 -75.5t62.5 -24.5q27 0 50 11.5t39 28.5v368h128z" />
    <glyph glyph-name="percent" unicode="%" horiz-adv-x="872" 
d="M87.5 386.5q-42.5 49.5 -42.5 138.5q0 92 42.5 139t119.5 47q76 0 117.5 -47t41.5 -139q0 -89 -41.5 -138.5t-117.5 -49.5q-77 0 -119.5 49.5zM558 692q55 10 115 11l-363 -703q-60 -9 -113 -9zM237 431.5q11 9.5 16.5 31.5t5.5 61q0 55 -12.5 78.5t-39.5 23.5
q-28 0 -41 -23t-13 -79t12.5 -79t41.5 -23q19 0 30 9.5zM549.5 32q-42.5 50 -42.5 139q0 91 42.5 138t119.5 47q76 0 117.5 -47t41.5 -138q0 -89 -41.5 -139t-117.5 -50q-77 0 -119.5 50zM699 76.5q11 9.5 16.5 32t5.5 61.5q0 55 -12 78t-40 23t-41 -23t-13 -78
q0 -57 13 -80t41 -23q19 0 30 9.5z" />
    <glyph glyph-name="perthousand" unicode="&#x2030;" horiz-adv-x="1252" 
d="M87.5 386.5q-42.5 49.5 -42.5 138.5q0 92 42.5 139t119.5 47q76 0 117.5 -47t41.5 -139q0 -89 -41.5 -138.5t-117.5 -49.5q-77 0 -119.5 49.5zM558 692q55 10 115 11l-363 -703q-60 -9 -113 -9zM237 431.5q11 9.5 16.5 31.5t5.5 61q0 55 -12.5 78.5t-39.5 23.5
q-28 0 -41 -23t-13 -79t12.5 -79t41.5 -23q19 0 30 9.5zM549.5 32q-42.5 50 -42.5 139q0 91 42.5 138t119.5 47q76 0 117.5 -47t41.5 -138q0 -89 -41.5 -139t-117.5 -50q-77 0 -119.5 50zM972.5 4.5q-36.5 22.5 -55.5 65t-19 101.5q0 91 42.5 138t119.5 47q76 0 117.5 -47
t41.5 -138q0 -89 -41.5 -139t-117.5 -50q-51 0 -87.5 22.5zM699 76.5q11 9.5 16.5 32t5.5 61.5q0 55 -12 78t-40 23t-41 -23t-13 -78q0 -57 13 -80t41 -23q19 0 30 9.5zM1090 76.5q11 9.5 16.5 32t5.5 61.5q0 55 -12 78t-40 23t-41 -23t-13 -78q0 -57 13 -80t41 -23
q19 0 30 9.5z" />
    <glyph glyph-name="arrowup" unicode="&#x2191;" horiz-adv-x="665" 
d="M629 418q-11 -22 -27 -42t-33 -35l-187 160l2 -464h-103l2 462l-185 -158q-34 29 -61 77l296 248z" />
    <glyph glyph-name="uni2197" unicode="&#x2197;" horiz-adv-x="640" 
d="M482 173l-41 242l-296 -357l-79 67l298 353l-244 -3q-3 20 -3 40q0 30 6 58l386 1l68 -380q-45 -19 -95 -21z" />
    <glyph glyph-name="arrowright" unicode="&#x2192;" horiz-adv-x="640" 
d="M630 366l-248 -296q-42 22 -77 60l159 186l-463 -2v103l463 -2l-159 186q34 39 77 61z" />
    <glyph glyph-name="uni2198" unicode="&#x2198;" horiz-adv-x="640" 
d="M568 486l-68 -380l-387 1q-6 26 -6 53q0 16 4 44l243 -3l-298 354l80 66l296 -357l40 242q48 0 96 -20z" />
    <glyph glyph-name="arrowdown" unicode="&#x2193;" horiz-adv-x="640" 
d="M589 345q16 -20 28 -42l-296 -248l-296 248q11 22 27 42t33 35l186 -159l-3 463h104l-3 -464l187 160q17 -15 33 -35z" />
    <glyph glyph-name="uni2199" unicode="&#x2199;" horiz-adv-x="640" 
d="M518 249q3 -19 3 -40q0 -29 -6 -58l-386 -1l-68 380q22 9 47 14.5t48 6.5l41 -243l296 358l79 -67l-298 -353z" />
    <glyph glyph-name="arrowleft" unicode="&#x2190;" horiz-adv-x="640" 
d="M635 299l-463 2l158 -185q-29 -35 -76 -61l-249 296l249 296q43 -22 76 -60l-159 -187l464 2v-103z" />
    <glyph glyph-name="uni2196" unicode="&#x2196;" horiz-adv-x="640" 
d="M492 58l-296 357l-41 -242q-23 1 -48 6.5t-47 14.5l68 380l386 -1q6 -28 6 -58q0 -20 -3 -40l-244 3l298 -353z" />
    <glyph glyph-name="arrowboth" unicode="&#x2194;" horiz-adv-x="780" 
d="M774 351l-248 -296q-48 27 -77 61l157 183h-432l156 -183q-29 -35 -76 -61l-249 296l249 296q43 -22 76 -60l-158 -185h436l-159 185q15 17 35 33t42 27z" />
    <glyph glyph-name="arrowupdn" unicode="&#x2195;" horiz-adv-x="640" 
d="M589 274q16 -20 28 -42l-296 -248l-296 248q11 22 27 42t33 35l183 -157l1 192l-1 192l-183 -157q-38 33 -60 76l296 249l296 -249q-24 -44 -61 -76l-184 158l-1 -193l1 -193l184 158q17 -15 33 -35z" />
    <glyph glyph-name="lozenge" unicode="&#x25ca;" horiz-adv-x="461" 
d="M8 351l152 341h142l151 -341l-150 -351h-140zM329 351l-97 235l-100 -235l100 -249z" />
    <glyph glyph-name="at" unicode="@" horiz-adv-x="864" 
d="M530 508q37 -6 75 -18v-285q0 -22 8 -35.5t23 -13.5q23 0 43 18.5t32.5 59t12.5 102.5q0 91 -34 157t-99 100.5t-155 34.5q-87 0 -154.5 -40t-105.5 -113.5t-38 -172.5q0 -110 39.5 -186.5t109.5 -115t162 -38.5q56 0 109 12t98 33q-2 -48 -9 -87q-48 -21 -96 -30.5
t-105 -9.5q-118 0 -207.5 50.5t-139.5 144.5t-50 220q0 120 49.5 214.5t138 147t201.5 52.5t198.5 -47t132 -130.5t46.5 -190.5q0 -79 -24.5 -139.5t-69 -94.5t-101.5 -34q-44 0 -72.5 20.5t-38.5 58.5q-15 -36 -42.5 -55t-67.5 -19q-46 0 -81 24.5t-55 74t-20 121.5
q0 104 48 160t158 56q44 0 81 -6zM472.5 169q17.5 8 31.5 23v1v239q-25 6 -58 6q-57 0 -79.5 -35.5t-22.5 -101.5q0 -69 22.5 -104.5t65.5 -35.5q23 0 40.5 8z" />
    <glyph glyph-name="ampersand" unicode="&#x26;" horiz-adv-x="714" 
d="M563 0l-57 62q-85 -77 -209 -77q-74 0 -130.5 28t-87.5 77.5t-31 112.5q0 69 34 121.5t110 82.5q-25 37 -35 69.5t-10 63.5q0 51 24.5 89t73 59t119.5 21q74 0 150 -28q-1 -33 -6 -61t-13 -48q-61 28 -124 28q-101 0 -101 -65q0 -49 48 -102l174 -189q26 69 36 166
q29 7 57 9.5t60 2.5q-4 -73 -21 -142.5t-49 -127.5l140 -152h-152zM430 143l-176 191q-39 -16 -61.5 -47.5t-22.5 -73.5q0 -34 15 -61.5t45 -43.5t73 -16q74 0 127 51z" />
    <glyph glyph-name="paragraph" unicode="&#xb6;" horiz-adv-x="632" 
d="M288 203h-28q-111 0 -172.5 55.5t-61.5 186.5q0 93 32 147.5t89 77t140 22.5h264v-819h-86v731h-90v-731h-87v330z" />
    <glyph glyph-name="section" unicode="&#xa7;" horiz-adv-x="538" 
d="M475 190q18 -27 18 -63q0 -69 -60 -107t-176 -38q-55 0 -106 10.5t-86 27.5q0 23 4.5 52.5t11.5 50.5q45 -21 88 -31.5t92 -10.5q59 0 85.5 10t26.5 34q0 15 -11 25t-40.5 19t-85.5 21q-63 13 -106 30.5t-67.5 47t-24.5 73.5q0 36 21 64t65 44q-33 18 -51 45.5t-18 68.5
q0 73 58 110t164 37q54 0 92 -5t88 -18q0 -22 -4.5 -52t-11.5 -46q-43 12 -80.5 18t-86.5 6q-51 0 -76 -10.5t-25 -36.5q0 -16 12.5 -26.5t39 -18.5t73.5 -16q61 -11 106 -28t73 -48t28 -79q0 -36 -21 -65.5t-63 -46.5q36 -21 54 -48zM163 326q12 -14 39.5 -25t75.5 -19
q23 -3 55 -11q31 8 44.5 22t13.5 36q0 19 -11 33t-37 24.5t-71 19.5q-8 2 -26 5t-31 7q-64 -14 -64 -58q0 -20 12 -34z" />
    <glyph glyph-name="copyright" unicode="&#xa9;" horiz-adv-x="885" 
d="M236.5 -18.5q-91.5 53.5 -144 148t-52.5 211.5q0 116 52.5 210t144 147.5t204.5 53.5q114 0 206 -53.5t144.5 -147.5t52.5 -210q0 -117 -52.5 -211.5t-144.5 -148t-206 -53.5q-113 0 -204.5 53.5zM605.5 49q73.5 44 115 120.5t41.5 171.5q0 94 -41.5 170.5t-115 120
t-164.5 43.5q-90 0 -163 -44t-114.5 -120t-41.5 -170q0 -95 41.5 -171.5t114.5 -120.5t163 -44q91 0 164.5 44zM339.5 150.5q-50.5 27.5 -79 77t-28.5 113.5t28.5 113t79 76t115.5 27q33 0 61.5 -5t48.5 -14q-2 -54 -12 -82q-17 9 -41.5 14t-50.5 5q-39 0 -69.5 -16
t-47.5 -46t-17 -71t17.5 -71.5t48.5 -47.5t70 -17q58 0 101 20q-4 -48 -13 -88q-50 -15 -97 -15q-64 0 -114.5 27.5z" />
    <glyph glyph-name="registered" unicode="&#xae;" horiz-adv-x="464" 
d="M336.5 683.5q47.5 -26.5 74.5 -73.5t27 -105t-27 -104.5t-74.5 -73t-104.5 -26.5t-104 26.5t-74.5 73t-27.5 104.5t27.5 105t74.5 73.5t104 26.5t104.5 -26.5zM312.5 368q35.5 20 55.5 56t20 81q0 46 -20 82t-55.5 56t-80.5 20q-44 0 -79.5 -20t-55.5 -56t-20 -82
q0 -45 20 -81t55.5 -56t79.5 -20q45 0 80.5 20zM277 486l54 -81h-56l-44 71h-17v-72h-49v202q29 7 64 7q40 0 63 -18t23 -48q0 -43 -38 -61zM214 517h15q20 0 28.5 6.5t8.5 20.5q0 28 -36 28h-16v-55z" />
    <glyph glyph-name="trademark" unicode="&#x2122;" horiz-adv-x="675" 
d="M614 381h-78l-5 76q-2 33 -4 115q-13 -54 -33 -125l-20 -66h-61l-20 60q-24 78 -38 134q-2 -89 -4 -116l-6 -78h-74l27 304q32 6 49 8.5t44 2.5l54 -212l45 201q29 7 46 9t47 2zM13 692h246q0 -24 -6 -66h-82v-245h-75v245h-90q0 31 7 66z" />
    <glyph glyph-name="degree" unicode="&#xb0;" horiz-adv-x="384" 
d="M108 416q-37 19 -58 54.5t-21 82.5t20.5 82.5t57.5 54.5t85 19q47 0 84 -19.5t58 -55t21 -81.5q0 -47 -21 -82.5t-58 -54.5t-84 -19t-84 19zM243.5 498.5q20.5 20.5 20.5 54.5q0 23 -9.5 40.5t-26 27t-36.5 9.5q-31 0 -51.5 -20.5t-20.5 -56.5q0 -34 20.5 -54.5
t51.5 -20.5t51.5 20.5z" />
    <glyph glyph-name="bar" unicode="|" horiz-adv-x="310" 
d="M101 782q20 7 51 12t58 5v-1011h-109v994z" />
    <glyph glyph-name="brokenbar" unicode="&#xa6;" horiz-adv-x="309" 
d="M101 781q21 8 51 13t56 5v-444h-107v426zM101 187h107v-399h-107v399z" />
    <glyph glyph-name="dagger" unicode="&#x2020;" horiz-adv-x="557" 
d="M482 450q-3 -29 -7 -49h-144v-401h-107v401h-153q0 22 3 50t7 52h143v189h107v-189h155q-1 -24 -4 -53z" />
    <glyph glyph-name="uni2113" unicode="&#x2113;" horiz-adv-x="424" 
d="M226.5 116q18.5 -19 59.5 -19q20 0 41 4.5t39 13.5q-9 -70 -19 -109q-22 -10 -48.5 -14t-50.5 -4q-84 0 -125.5 43.5t-41.5 132.5v367q0 82 38 130t121 48q70 0 108 -38t38 -105q0 -78 -49.5 -142.5t-128.5 -111.5v-133q0 -44 18.5 -63zM216 595.5q-8 -17.5 -8 -57.5
v-127q69 60 69 135q0 35 -8.5 51t-25.5 16q-19 0 -27 -17.5z" />
    <glyph glyph-name="daggerdbl" unicode="&#x2021;" horiz-adv-x="559" 
d="M332 261h155q-1 -25 -4 -53t-7 -49h-144v-159h-107v159h-154q1 22 4.5 51.5t7.5 50.5h142v170h-153q1 25 3.5 53t6.5 49h143v159h107v-159h155q-1 -24 -4 -53t-7 -49h-144v-170z" />
    <glyph glyph-name="estimated" unicode="&#x212e;" horiz-adv-x="831" 
d="M204.5 38q-89.5 47 -137 126.5t-47.5 173.5q0 95 48 179t138 135t209 51q143 0 231.5 -53.5t126.5 -136.5t38 -177h-641q-3 0 -4 -1t-1 -3v-183q0 -22 7 -30q41 -48 103.5 -75t138.5 -27q78 0 139.5 29t118.5 82h70q-41 -48 -85 -78t-102 -44.5t-139 -14.5
q-122 0 -211.5 47zM660 358q3 0 4.5 1t1.5 4v187q0 7 -3 14t-8 12q-52 52 -118.5 77.5t-124.5 25.5q-62 0 -125 -25.5t-113 -75.5q-4 -4 -6.5 -12t-2.5 -16v-187q0 -3 1 -4t4 -1h490z" />
    <glyph glyph-name="uni02C9" unicode="&#x2c9;" horiz-adv-x="394" 
d="M62 701h282q-1 -24 -3.5 -47t-8.5 -46h-282q1 42 12 93z" />
    <glyph glyph-name="uni0308" unicode="&#x308;" horiz-adv-x="0" 
d="M-363.5 607q-19.5 20 -19.5 50q0 31 19 50.5t50 19.5q30 0 49.5 -19.5t19.5 -50.5t-19.5 -50.5t-49.5 -19.5t-49.5 20zM-168.5 606q-19.5 20 -19.5 50q0 31 19.5 51t50.5 20q29 0 48.5 -20t19.5 -51q0 -30 -19.5 -50t-48.5 -20q-31 0 -50.5 20z" />
    <glyph glyph-name="uni0307" unicode="&#x307;" horiz-adv-x="0" 
d="M-177 603q-21 21 -21 54t21 54t54 21q32 0 52.5 -21t20.5 -54q0 -32 -21 -53.5t-52 -21.5q-33 0 -54 21z" />
    <glyph glyph-name="gravecomb" unicode="&#x300;" horiz-adv-x="0" 
d="M-54 573q-43 3 -80.5 26t-64 60.5t-34.5 80.5q32 0 74 -5.5t71 -15.5l38 -146h-4z" />
    <glyph glyph-name="acutecomb" unicode="&#x301;" horiz-adv-x="0" 
d="M-196 719q30 10 71.5 15.5t74.5 5.5q-9 -43 -35 -80.5t-64 -60.5t-81 -26h-3z" />
    <glyph glyph-name="uni030B" unicode="&#x30b;" horiz-adv-x="0" 
d="M-351 720q22 8 61 12t72 4q-38 -88 -85.5 -126t-102.5 -39h-7zM-180 720q21 8 59 11.5t71 3.5q-34 -86 -83 -124.5t-104 -39.5h-6z" />
    <glyph glyph-name="glyph520" horiz-adv-x="0" 
d="M-172.5 605q2.5 38 2.5 87q34 10 60.5 14t59.5 4q-4 -61 -31 -109t-72 -78h-27q5 44 7.5 82z" />
    <glyph glyph-name="uni0302" unicode="&#x302;" horiz-adv-x="0" 
d="M-50 580h-68q-21 9 -38.5 23t-51.5 51q-33 -37 -54 -51.5t-45 -22.5h-56l93 150q24 5 63 5t60 -5z" />
    <glyph glyph-name="uni030C" unicode="&#x30c;" horiz-adv-x="0" 
d="M-50 733l-93 -150q-30 -6 -63 -6q-15 0 -30.5 1.5t-29.5 3.5l-97 151h67q22 -10 39.5 -24t51.5 -51q33 37 54 52t45 23h56z" />
    <glyph glyph-name="uni0306" unicode="&#x306;" horiz-adv-x="0" 
d="M-320.5 612.5q-37.5 39.5 -47.5 101.5q19 4 43 6.5t47 2.5q14 -66 69 -66q56 0 70 66q23 0 47 -2.5t42 -6.5q-9 -61 -47.5 -101t-111.5 -40q-74 0 -111.5 39.5z" />
    <glyph glyph-name="uni030A" unicode="&#x30a;" horiz-adv-x="0" 
d="M-231 574q-28 14 -43.5 40t-15.5 59q0 34 15.5 60t43.5 40t62 14q33 0 60.5 -14t43 -40t15.5 -60q0 -33 -15.5 -59t-43 -40t-60.5 -14q-34 0 -62 14zM-135.5 637q12.5 14 12.5 36q0 23 -12.5 37t-33.5 14q-22 0 -34.5 -14t-12.5 -37q0 -22 13 -36t34 -14t33.5 14z" />
    <glyph glyph-name="tildecomb" unicode="&#x303;" horiz-adv-x="0" 
d="M-158.5 594q-20.5 10 -44.5 26q-11 7 -21.5 13t-15.5 6q-8 0 -11 -6t-3 -19v-30h-72v58q0 40 18 59t49 19q21 0 42 -10.5t45 -27.5q11 -7 20.5 -12.5t14.5 -5.5q15 0 15 25v30h72v-58q0 -40 -18.5 -58.5t-51.5 -18.5q-18 0 -38.5 10z" />
    <glyph glyph-name="uni0304" unicode="&#x304;" horiz-adv-x="0" 
d="M-332 701h282q-1 -24 -3.5 -47t-8.5 -46h-282q1 42 12 93z" />
    <glyph glyph-name="uni0313" unicode="&#x313;" horiz-adv-x="0" 
d="M-172.5 608q2.5 38 2.5 87q34 10 60.5 14t59.5 4q-4 -61 -31 -109t-72 -78h-27q5 44 7.5 82z" />
    <glyph glyph-name="uni0326" unicode="&#x326;" horiz-adv-x="0" 
d="M-172.5 -165q2.5 38 2.5 87q34 10 60.5 14t59.5 4q-4 -61 -31 -109t-72 -78h-27q5 44 7.5 82z" />
    <glyph glyph-name="uni0327" unicode="&#x327;" horiz-adv-x="0" 
d="M-50 -128q0 -43 -29.5 -67.5t-86.5 -24.5q-40 0 -69 11q2 40 11 64q27 -9 50 -9q42 0 42 29q0 17 -20 25t-62 9l34 106h73l-19 -59q76 -22 76 -84z" />
    <glyph glyph-name="uni0328" unicode="&#x328;" horiz-adv-x="0" 
d="M-209.5 -193q-33.5 28 -33.5 81q0 81 101 133l57 -21q-29 -16 -43 -41.5t-14 -48.5q0 -48 49 -48q18 0 43 10q-3 -46 -10 -84q-23 -9 -58 -9q-58 0 -91.5 28z" />
    <glyph glyph-name="acute" unicode="&#xb4;" horiz-adv-x="283" 
d="M87 719q30 10 71.5 15.5t74.5 5.5q-9 -43 -35 -80.5t-64 -60.5t-81 -26h-3z" />
    <glyph glyph-name="breve" unicode="&#x2d8;" horiz-adv-x="418" 
d="M97.5 612.5q-37.5 39.5 -47.5 101.5q19 4 43 6.5t47 2.5q14 -66 69 -66q56 0 70 66q23 0 47 -2.5t42 -6.5q-9 -61 -47.5 -101t-111.5 -40q-74 0 -111.5 39.5z" />
    <glyph glyph-name="caron" unicode="&#x2c7;" horiz-adv-x="413" 
d="M363 733l-93 -150q-30 -6 -63 -6q-15 0 -30.5 1.5t-29.5 3.5l-97 151h67q22 -10 39.5 -24t51.5 -51q33 37 54 52t45 23h56z" />
    <glyph glyph-name="cedilla" unicode="&#xb8;" horiz-adv-x="285" 
d="M235 -128q0 -43 -29.5 -67.5t-86.5 -24.5q-40 0 -69 11q2 40 11 64q27 -9 50 -9q42 0 42 29q0 17 -20 25t-62 9l34 106h73l-19 -59q76 -22 76 -84z" />
    <glyph glyph-name="circumflex" unicode="&#x2c6;" horiz-adv-x="413" 
d="M363 580h-68q-21 9 -38.5 23t-51.5 51q-33 -37 -54 -51.5t-45 -22.5h-56l93 150q24 5 63 5t60 -5z" />
    <glyph glyph-name="dieresis" unicode="&#xa8;" horiz-adv-x="433" 
d="M69.5 607q-19.5 20 -19.5 50q0 31 19 50.5t50 19.5q30 0 49.5 -19.5t19.5 -50.5t-19.5 -50.5t-49.5 -19.5t-49.5 20zM264.5 606q-19.5 20 -19.5 50q0 31 19.5 51t50.5 20q29 0 48.5 -20t19.5 -51q0 -30 -19.5 -50t-48.5 -20q-31 0 -50.5 20z" />
    <glyph glyph-name="dotaccent" unicode="&#x2d9;" horiz-adv-x="248" 
d="M71 603q-21 21 -21 54t21 54t54 21q32 0 52.5 -21t20.5 -54q0 -32 -21 -53.5t-52 -21.5q-33 0 -54 21z" />
    <glyph glyph-name="grave" unicode="`" horiz-adv-x="283" 
d="M229 573q-43 3 -80.5 26t-64 60.5t-34.5 80.5q32 0 74 -5.5t71 -15.5l38 -146h-4z" />
    <glyph glyph-name="hungarumlaut" unicode="&#x2dd;" horiz-adv-x="463" 
d="M112 720q22 8 61 12t72 4q-38 -88 -85.5 -126t-102.5 -39h-7zM283 720q21 8 59 11.5t71 3.5q-34 -86 -83 -124.5t-104 -39.5h-6z" />
    <glyph glyph-name="macron" unicode="&#xaf;" horiz-adv-x="394" 
d="M62 701h282q-1 -24 -3.5 -47t-8.5 -46h-282q1 42 12 93z" />
    <glyph glyph-name="ogonek" unicode="&#x2db;" horiz-adv-x="293" 
d="M83.5 -193q-33.5 28 -33.5 81q0 81 101 133l57 -21q-29 -16 -43 -41.5t-14 -48.5q0 -48 49 -48q18 0 43 10q-3 -46 -10 -84q-23 -9 -58 -9q-58 0 -91.5 28z" />
    <glyph glyph-name="ring" unicode="&#x2da;" horiz-adv-x="340" 
d="M109 574q-28 14 -43.5 40t-15.5 59q0 34 15.5 60t43.5 40t62 14q33 0 60.5 -14t43 -40t15.5 -60q0 -33 -15.5 -59t-43 -40t-60.5 -14q-34 0 -62 14zM204.5 637q12.5 14 12.5 36q0 23 -12.5 37t-33.5 14q-22 0 -34.5 -14t-12.5 -37q0 -22 13 -36t34 -14t33.5 14z" />
    <glyph glyph-name="tilde" unicode="&#x2dc;" horiz-adv-x="376" 
d="M217.5 594q-20.5 10 -44.5 26q-11 7 -21.5 13t-15.5 6q-8 0 -11 -6t-3 -19v-30h-72v58q0 40 18 59t49 19q21 0 42 -10.5t45 -27.5q11 -7 20.5 -12.5t14.5 -5.5q15 0 15 25v30h72v-58q0 -40 -18.5 -58.5t-51.5 -18.5q-18 0 -38.5 10z" />
    <glyph glyph-name="uni0308.aalt" horiz-adv-x="0" 
d="M-375.5 777q-19.5 20 -19.5 51t20 50.5t50 19.5t50 -19.5t20 -50.5t-20 -51t-50 -20q-31 0 -50.5 20zM-169 777q-20 20 -20 51q0 30 20 50t51 20q29 0 48.5 -20t19.5 -50q0 -31 -19.5 -51t-48.5 -20q-31 0 -51 20z" />
    <glyph glyph-name="uni0307.aalt" horiz-adv-x="0" 
d="M-175 773.5q-20 20.5 -20 52.5t20 52t53 20q31 0 51.5 -20t20.5 -52q0 -33 -20.5 -53t-51.5 -20q-33 0 -53 20.5z" />
    <glyph glyph-name="gravecomb.aalt" horiz-adv-x="0" 
d="M-71 761q-62 0 -116.5 32.5t-88.5 84.5q14 4 38 7t48 3q20 0 43 -2t36 -5l61 -120h-21z" />
    <glyph glyph-name="acutecomb.aalt" horiz-adv-x="0" 
d="M-215 881q13 3 36.5 5t43.5 2q24 0 47.5 -3t37.5 -7q-34 -52 -88.5 -84.5t-116.5 -32.5h-21z" />
    <glyph glyph-name="uni030B.aalt" horiz-adv-x="0" 
d="M-364 882q31 6 78 6q38 0 61 -3q-11 -33 -40.5 -62t-69.5 -46t-81 -17h-13zM-189 882q30 6 77 6q40 0 62 -3q-11 -33 -41 -62t-70 -46t-80 -17h-13z" />
    <glyph glyph-name="uni0302.aalt" horiz-adv-x="0" 
d="M-300 888q35 9 79 9q42 0 78 -9l93 -127h-63q-62 19 -108 68q-29 -28 -56 -43.5t-55 -24.5h-61z" />
    <glyph glyph-name="uni030C.aalt" horiz-adv-x="0" 
d="M-143 768q-35 -9 -79 -9q-42 0 -78 9l-93 127h63q62 -19 108 -68q28 28 55 43.5t56 24.5h61z" />
    <glyph glyph-name="uni0306.aalt" horiz-adv-x="0" 
d="M-328.5 794q-39.5 36 -48.5 91q21 2 45.5 4t45.5 2q8 -26 25.5 -39.5t47.5 -13.5q58 0 73 53q20 0 44.5 -2t45.5 -4q-8 -56 -47 -91.5t-116 -35.5q-76 0 -115.5 36z" />
    <glyph glyph-name="uni030A.aalt" horiz-adv-x="0" 
d="M-232.5 755.5q-27.5 14.5 -43.5 39.5t-16 57q0 31 15.5 56t43 39.5t62.5 14.5t62.5 -14t43 -39t15.5 -57t-16 -57t-43.5 -39.5t-61.5 -14.5t-61.5 14.5zM-136 817.5q13 12.5 13 34.5q0 20 -13 33t-35 13t-35 -13t-13 -33q0 -21 13 -34t35 -13t35 12.5z" />
    <glyph glyph-name="tildecomb.aalt" horiz-adv-x="0" 
d="M-175 755q-24 10 -56 28q-5 3 -14 7.5t-17.5 8t-12.5 3.5q-9 0 -12.5 -6t-3.5 -20v-30h-85v53q0 46 20.5 68t55.5 22q24 0 49 -10.5t61 -28.5q5 -3 13 -7t15 -7t11 -3q8 0 12 5.5t4 18.5v31h85v-55q0 -88 -80 -88q-21 0 -45 10z" />
    <glyph glyph-name="uni0304.aalt" horiz-adv-x="0" 
d="M-340.5 825q2.5 21 8.5 46h282q-3 -49 -12 -92h-282q1 25 3.5 46z" />
    <glyph glyph-name="glyph555" horiz-adv-x="0" 
d="M-346.5 776.5q-19.5 20.5 -19.5 50.5t19.5 50t49.5 20t49.5 -20t19.5 -50t-19.5 -50.5t-49.5 -20.5t-49.5 20.5zM-168.5 776.5q-19.5 20.5 -19.5 50.5t19.5 50t49.5 20t49.5 -20t19.5 -50t-19.5 -50.5t-49.5 -20.5t-49.5 20.5z" />
    <glyph glyph-name="glyph556" horiz-adv-x="0" 
d="M-268 881q30 9 67 9q17 0 35 -2.5t32 -6.5l84 -119h-51q-30 8 -53.5 21t-46.5 42q-23 -29 -46.5 -42t-51.5 -21h-53z" />
    <glyph glyph-name="glyph557" horiz-adv-x="0" 
d="M-298 794q-35 35 -42 84q15 3 40 4.5t45 1.5q12 -44 61 -44q26 0 40 11.5t20 32.5q19 0 41.5 -2t42.5 -4q-7 -48 -41.5 -83.5t-102.5 -35.5q-69 0 -104 35z" />
    <glyph glyph-name="glyph558" horiz-adv-x="0" 
d="M-159.5 755.5q-18.5 9.5 -42.5 27.5q-9 7 -17.5 12t-13.5 5q-9 0 -12 -5.5t-3 -20.5v-27h-78v56q0 44 16 65.5t50 21.5q24 0 44.5 -10.5t42.5 -27.5q20 -16 27 -16q9 0 13 5.5t4 18.5v29h79v-49q0 -48 -17 -71t-53 -23q-21 0 -39.5 9.5z" />
    <glyph glyph-name="glyph559" horiz-adv-x="0" 
d="M-303 870h253q-1 -26 -3.5 -46.5t-8.5 -45.5h-253q1 47 12 92z" />
    <glyph glyph-name="glyph560" horiz-adv-x="0" 
d="M-334 608q-19 20 -19 50q0 31 18.5 50.5t49.5 19.5q29 0 48.5 -19.5t19.5 -50.5q0 -30 -19.5 -50t-48.5 -20q-30 0 -49 20zM-167 607.5q-19 19.5 -19 50.5q0 30 19 50t49 20t49 -20t19 -50q0 -31 -19 -50.5t-49 -19.5t-49 19.5z" />
    <glyph glyph-name="glyph561" horiz-adv-x="0" 
d="M-50 578h-48q-21 7 -43.5 24.5t-52.5 51.5q-32 -36 -53 -52.5t-44 -23.5h-45l87 150q19 6 54 6q36 0 55 -5z" />
    <glyph glyph-name="glyph562" horiz-adv-x="0" 
d="M-50 733l-87 -150q-19 -6 -55 -6q-34 0 -54 4l-90 152h48q21 -7 43 -24.5t53 -51.5q32 37 53 53t44 23h45z" />
    <glyph glyph-name="glyph563" horiz-adv-x="0" 
d="M-288.5 611.5q-34.5 37.5 -39.5 95.5q17 4 41.5 6.5t46.5 2.5q3 -27 15 -42t37 -15q23 0 35.5 14.5t17.5 42.5q53 0 85 -9q-3 -36 -19 -66t-46 -48.5t-73 -18.5q-66 0 -100.5 37.5z" />
    <glyph glyph-name="glyph564" horiz-adv-x="0" 
d="M-157 594.5q-18 10.5 -38 27.5q-7 6 -13.5 10.5t-9.5 4.5q-8 0 -11 -5.5t-3 -18.5v-29h-74v51q0 43 18 64t49 21q22 0 40 -11t40 -29q16 -14 21 -14q14 0 14 23v30h74v-53q0 -42 -18.5 -62t-51.5 -20q-19 0 -37 10.5z" />
    <glyph glyph-name="glyph565" horiz-adv-x="0" 
d="M-296 703h246q-1 -24 -4 -46t-8 -46h-246q1 42 12 92z" />
    <glyph glyph-name="glyph566" horiz-adv-x="0" 
d="M-194.5 -192q-31.5 28 -31.5 80q0 29 10 51.5t27.5 41t46.5 40.5l66 -21q-53 -45 -53 -92q0 -22 11 -33t30 -11q11 0 21.5 2.5t16.5 7.5q-1 -39 -9 -85q-7 -4 -21 -6.5t-31 -2.5q-52 0 -83.5 28z" />
    </font>
</defs>
</svg>
