<?xml version="1.0" standalone="no"?>
<!DOCTYPE svg PUBLIC "-//W3C//DTD SVG 1.1//EN" "http://www.w3.org/Graphics/SVG/1.1/DTD/svg11.dtd" >
<svg xmlns="http://www.w3.org/2000/svg" xmlns:xlink="http://www.w3.org/1999/xlink" version="1.1">
<metadata>
Created by FontForge 20170924 at Mon Oct 15 14:17:32 2018
 By www-data
(c) 2018 Banco Santander, S.A. All rights reserved.
</metadata>
<defs>
<font id="SantanderTextW05-BoldItalic" horiz-adv-x="550" >
  <font-face 
    font-family="SantanderTextW05-BoldItalic"
    font-weight="700"
    font-style="italic"
    font-stretch="normal"
    units-per-em="1000"
    panose-1="2 11 5 4 2 2 1 1 1 4"
    ascent="800"
    descent="-200"
    x-height="499"
    cap-height="701"
    bbox="-361 -309 1177 1132"
    underline-thickness="50"
    underline-position="-125"
    slope="-8"
    unicode-range="U+000D-FEFF"
  />
<missing-glyph horiz-adv-x="771" 
d="M141 0v692h516v-692h-516zM230 82h338v528h-338v-528z" />
    <glyph glyph-name="f_f.liga" unicode="ff" horiz-adv-x="630" 
d="M542 588.5q-21 -19.5 -27 -62.5l-4 -27h147q-9 -49 -26 -101h-135l-56 -398h-126l57 398h-163l-56 -398h-125l74 528q25 182 199 182q47 0 91 -14q-7 -45 -25 -97q-27 9 -56 9q-36 0 -57 -19t-27 -59l-4 -31h163l4 29q12 90 62 136t144 46q51 0 96 -12q-7 -44 -25 -98
q-30 8 -62 8q-42 0 -63 -19.5z" />
    <glyph glyph-name="f_f_i.liga" unicode="ffi" horiz-adv-x="849" 
d="M834 711q21 -21 21 -54q0 -21 -9.5 -38t-26.5 -27t-38 -10q-32 0 -53.5 21t-21.5 54t21.5 54t53.5 21t53 -21zM621 398h-120l-56 -398h-125l56 398h-167l-56 -398h-125l74 528q25 182 199 182q47 0 91 -14q-7 -45 -25 -97q-27 9 -56 9q-36 0 -57 -19t-27 -59l-4 -31h167
l4 29q12 88 63 135t138 47q44 0 85 -11q-10 -54 -24 -99q-29 8 -56 8q-69 0 -81 -78l-4 -31h132q-10 -56 -26 -101zM696 499h125l-70 -499h-125z" />
    <glyph glyph-name="f_f_l.liga" unicode="ffl" horiz-adv-x="888" 
d="M621 398h-120l-56 -398h-125l56 398h-167l-56 -398h-125l74 528q25 182 199 182q47 0 91 -14q-7 -45 -25 -97q-27 9 -56 9q-36 0 -57 -19t-27 -59l-4 -31h167l4 29q12 88 63 135t138 47q44 0 85 -11q-10 -54 -24 -99q-29 8 -56 8q-69 0 -81 -78l-4 -31h132
q-10 -56 -26 -101zM849 101q-4 -25 -11.5 -52.5t-16.5 -49.5q-35 -11 -78 -11q-52 0 -79 28t-27 83q0 18 3 37l79 556q64 18 128 18l-80 -561q-1 -6 -1 -17q0 -19 8.5 -29t27.5 -10q26 0 47 8z" />
    <glyph glyph-name="uniFB01" unicode="fi" horiz-adv-x="557" 
d="M542 711q21 -21 21 -54q0 -21 -9.5 -38t-26.5 -27t-38 -10q-32 0 -53.5 21t-21.5 54t21.5 54t53.5 21t53 -21zM329 398h-120l-56 -398h-125l74 528q12 88 63 135t138 47q44 0 85 -11q-10 -54 -24 -99q-29 8 -56 8q-69 0 -81 -78l-4 -31h132q-10 -56 -26 -101zM404 499
h125l-70 -499h-125z" />
    <glyph glyph-name="uniFB02" unicode="fl" horiz-adv-x="596" 
d="M329 398h-120l-56 -398h-125l74 528q12 88 63 135t138 47q44 0 85 -11q-10 -54 -24 -99q-29 8 -56 8q-69 0 -81 -78l-4 -31h132q-10 -56 -26 -101zM557 101q-4 -25 -11.5 -52.5t-16.5 -49.5q-35 -11 -78 -11q-52 0 -79 28t-27 83q0 18 3 37l79 556q64 18 128 18l-80 -561
q-1 -6 -1 -17q0 -19 8.5 -29t27.5 -10q26 0 47 8z" />
    <glyph glyph-name="exclam_L.liga" unicode="&#x21;L" horiz-adv-x="1315" 
d="M991.5 453.5q67.5 -39.5 105.5 -90.5t38 -107q0 -79 -71.5 -145.5t-193.5 -105.5t-266 -39t-266 39t-193.5 105.5t-71.5 145.5q0 56 38 107t106 90.5t157 63.5q0 -75 31 -126l167 -288q18 -31 25 -72l6 14q27 64 27 123t-27 106l-132 231q-33 58 -33 111t33 120l6 12
q3 -18 9.5 -34t17.5 -36l199 -345q18 -32 25 -71l8 12q30 54 30 116q0 63 -30 115l-133 231q-30 53 -30 115q0 63 30 115l7 12q4 -17 11 -36.5t15 -33.5l169 -288q25 -43 30 -103q89 -24 156.5 -63.5z" />
    <glyph glyph-name=".notdef" horiz-adv-x="771" 
d="M141 0v692h516v-692h-516zM230 82h338v528h-338v-528z" />
    <glyph glyph-name="glyph1" horiz-adv-x="0" 
 />
    <glyph glyph-name="glyph1" horiz-adv-x="0" 
 />
    <glyph glyph-name="uni000D" unicode="&#xd;" horiz-adv-x="233" 
 />
    <glyph glyph-name="space" unicode=" " horiz-adv-x="233" 
 />
    <glyph glyph-name="A" unicode="A" horiz-adv-x="599" 
d="M406 144h-242l-62 -144h-129l304 682q33 8 78 12t86 4l115 -698h-131zM391 252l-43 323l-138 -323h181z" />
    <glyph glyph-name="Aacute" unicode="&#xc1;" horiz-adv-x="599" 
d="M406 144h-242l-62 -144h-129l304 682q33 8 78 12t86 4l115 -698h-131zM391 252l-43 323l-138 -323h181zM369 881q14 3 37 5t43 2q23 0 46 -3t36 -7q-41 -52 -98.5 -84.5t-118.5 -32.5h-21z" />
    <glyph glyph-name="Abreve" unicode="&#x102;" horiz-adv-x="599" 
d="M406 144h-242l-62 -144h-129l304 682q33 8 78 12t86 4l115 -698h-131zM391 252l-43 323l-138 -323h181zM288 775.5q-34 17.5 -50.5 46.5t-17.5 63q21 2 45.5 4t45.5 2q3 -26 18.5 -39.5t45.5 -13.5t48.5 13.5t28.5 39.5q20 0 44 -1.5t44 -4.5q-15 -58 -54 -92.5
t-113 -34.5q-51 0 -85 17.5z" />
    <glyph glyph-name="Acircumflex" unicode="&#xc2;" horiz-adv-x="599" 
d="M406 144h-242l-62 -144h-129l304 682q33 8 78 12t86 4l115 -698h-131zM391 252l-43 323l-138 -323h181zM322 888q36 9 78 9t75 -9l74 -127h-37q-40 0 -68.5 16.5t-52.5 50.5q-37 -35 -70.5 -51t-72.5 -16h-35z" />
    <glyph glyph-name="Adieresis" unicode="&#xc4;" horiz-adv-x="599" 
d="M406 144h-242l-62 -144h-129l304 682q33 8 78 12t86 4l115 -698h-131zM391 252l-43 323l-138 -323h181zM228.5 777q-19.5 20 -19.5 51t19.5 50.5t50.5 19.5q30 0 50 -19.5t20 -50.5t-20 -51t-50 -20q-31 0 -50.5 20zM434.5 777q-19.5 20 -19.5 51q0 30 19.5 50t50.5 20
q30 0 49.5 -20t19.5 -50q0 -31 -19.5 -51t-49.5 -20q-31 0 -50.5 20z" />
    <glyph glyph-name="Agrave" unicode="&#xc0;" horiz-adv-x="599" 
d="M406 144h-242l-62 -144h-129l304 682q33 8 78 12t86 4l115 -698h-131zM391 252l-43 323l-138 -323h181zM448 761q-61 0 -119 32.5t-99 84.5q13 4 36.5 7t46.5 3q20 0 42.5 -2t36.5 -5l77 -120h-21z" />
    <glyph glyph-name="Amacron" unicode="&#x100;" horiz-adv-x="599" 
d="M406 144h-242l-62 -144h-129l304 682q33 8 78 12t86 4l115 -698h-131zM391 252l-43 323l-138 -323h181zM240.5 823.5q5.5 20.5 14.5 47.5h277q-9 -44 -25 -92h-276q4 24 9.5 44.5z" />
    <glyph glyph-name="Aogonek" unicode="&#x104;" horiz-adv-x="599" 
d="M508 -138q12 0 24 3.5t21 6.5q-6 -37 -22 -84q-23 -9 -62 -9q-48 0 -76.5 24.5t-28.5 72.5q0 34 20 65.5t61 58.5h-20l-19 144h-242l-62 -144h-129l304 682q33 8 78 12t86 4l115 -698h-20q-30 -16 -49.5 -45t-19.5 -56q0 -37 41 -37zM391 252l-43 323l-138 -323h181z" />
    <glyph glyph-name="Aring" unicode="&#xc5;" horiz-adv-x="599" 
d="M406 144h-242l-62 -144h-129l304 682q33 8 78 12t86 4l115 -698h-131zM391 252l-43 323l-138 -323h181zM322.5 755.5q-27.5 14.5 -43.5 39.5t-16 57q0 31 15.5 56t43 39.5t62.5 14.5t62.5 -14t43 -39t15.5 -57t-16 -57t-43.5 -39.5t-61.5 -14.5t-61.5 14.5zM418.5 818
q13.5 13 13.5 34q0 20 -13.5 33t-34.5 13q-22 0 -35 -13t-13 -33q0 -21 13 -34t35 -13q21 0 34.5 13z" />
    <glyph glyph-name="Aringacute" unicode="&#x1fa;" horiz-adv-x="599" 
d="M406 144h-242l-62 -144h-129l304 682q33 8 78 12t86 4l115 -698h-131zM391 252l-43 323l-138 -323h181zM322.5 755.5q-27.5 14.5 -43.5 39.5t-16 57q0 31 15.5 56t43 39.5t62.5 14.5t62.5 -14t43 -39t15.5 -57t-16 -57t-43.5 -39.5t-61.5 -14.5t-61.5 14.5zM418.5 818
q13.5 13 13.5 34q0 20 -13.5 33t-34.5 13q-22 0 -35 -13t-13 -33q0 -21 13 -34t35 -13q21 0 34.5 13zM407 1125q14 3 37 5t43 2q23 0 46 -3t36 -7q-41 -52 -98.5 -84.5t-118.5 -32.5h-21z" />
    <glyph glyph-name="Atilde" unicode="&#xc3;" horiz-adv-x="599" 
d="M406 144h-242l-62 -144h-129l304 682q33 8 78 12t86 4l115 -698h-131zM391 252l-43 323l-138 -323h181zM412.5 754q-20.5 9 -48.5 26q-14 9 -27.5 15.5t-20.5 6.5q-9 0 -12.5 -6t-5.5 -20l-4 -29h-84l7 52q7 46 28.5 68t57.5 22q23 0 45.5 -10t51.5 -27q3 -2 13.5 -7.5
t17.5 -8.5t11 -3q17 0 20 24l3 30h84l-7 -54q-7 -46 -29 -67t-60 -21q-20 0 -40.5 9z" />
    <glyph glyph-name="AE" unicode="&#xc6;" horiz-adv-x="853" 
d="M553 405h256q-3 -26 -10.5 -58t-15.5 -53h-245l-26 -183h285q-2 -24 -10 -56.5t-16 -54.5h-402l21 152h-215q-45 -82 -80 -152h-137q86 170 201.5 355.5t227.5 336.5h493q-3 -26 -10.5 -58.5t-15.5 -52.5h-276zM406 261l44 320h-8q-94 -126 -206 -320h170z" />
    <glyph glyph-name="AEacute" unicode="&#x1fc;" horiz-adv-x="853" 
d="M553 405h256q-3 -26 -10.5 -58t-15.5 -53h-245l-26 -183h285q-2 -24 -10 -56.5t-16 -54.5h-402l21 152h-215q-45 -82 -80 -152h-137q86 170 201.5 355.5t227.5 336.5h493q-3 -26 -10.5 -58.5t-15.5 -52.5h-276zM406 261l44 320h-8q-94 -126 -206 -320h170zM624 881
q14 3 37 5t43 2q23 0 46 -3t36 -7q-41 -52 -98.5 -84.5t-118.5 -32.5h-21z" />
    <glyph glyph-name="B" unicode="B" horiz-adv-x="601" 
d="M534 303.5q23 -37.5 23 -88.5q0 -70 -33.5 -118t-93 -72.5t-139.5 -24.5h-247l97 693q40 7 94 12t101 5q123 0 183 -44t60 -126q0 -63 -30 -108t-85 -70q47 -21 70 -58.5zM421.5 583.5q-26.5 19.5 -89.5 19.5q-37 0 -75 -5l-27 -192h81q43 0 74 14.5t47 41t16 61.5
q0 41 -26.5 60.5zM389.5 136q37.5 30 37.5 84q0 43 -26.5 62.5t-83.5 19.5h-102l-28 -196h99q66 0 103.5 30z" />
    <glyph glyph-name="C" unicode="C" horiz-adv-x="545" 
d="M175.5 18.5q-63.5 36.5 -95.5 103t-32 156.5q0 121 45 219.5t129.5 155.5t198.5 57q100 0 155 -36q-7 -55 -27 -108q-24 15 -54 23t-63 8q-79 0 -136 -42.5t-86 -112t-29 -151.5q0 -97 44.5 -146t125.5 -49q75 0 144 24q-8 -64 -30 -119q-71 -19 -136 -19
q-90 0 -153.5 36.5z" />
    <glyph glyph-name="Cacute" unicode="&#x106;" horiz-adv-x="545" 
d="M175.5 18.5q-63.5 36.5 -95.5 103t-32 156.5q0 121 45 219.5t129.5 155.5t198.5 57q100 0 155 -36q-7 -55 -27 -108q-24 15 -54 23t-63 8q-79 0 -136 -42.5t-86 -112t-29 -151.5q0 -97 44.5 -146t125.5 -49q75 0 144 24q-8 -64 -30 -119q-71 -19 -136 -19
q-90 0 -153.5 36.5zM411 881q14 3 37 5t43 2q23 0 46 -3t36 -7q-41 -52 -98.5 -84.5t-118.5 -32.5h-21z" />
    <glyph glyph-name="Ccaron" unicode="&#x10c;" horiz-adv-x="545" 
d="M175.5 18.5q-63.5 36.5 -95.5 103t-32 156.5q0 121 45 219.5t129.5 155.5t198.5 57q100 0 155 -36q-7 -55 -27 -108q-24 15 -54 23t-63 8q-79 0 -136 -42.5t-86 -112t-29 -151.5q0 -97 44.5 -146t125.5 -49q75 0 144 24q-8 -64 -30 -119q-71 -19 -136 -19
q-90 0 -153.5 36.5zM481 768q-36 -9 -79 -9q-41 0 -74 9l-75 127h38q40 0 68.5 -16.5t52.5 -50.5q36 35 69.5 51t73.5 16h35z" />
    <glyph glyph-name="Ccedilla" unicode="&#xc7;" horiz-adv-x="545" 
d="M296 554.5q-57 -42.5 -86 -112t-29 -151.5q0 -97 44.5 -146t125.5 -49q75 0 144 24q-8 -64 -30 -119q-64 -16 -116 -19l-13 -28q34 -10 50 -29t16 -48q0 -47 -32.5 -72t-84.5 -25q-20 0 -41 4t-36 10q3 32 20 61q25 -9 47 -9t33.5 8t11.5 22q0 16 -18 24t-57 9l34 76
q-74 10 -126 48.5t-78.5 101t-26.5 143.5q0 121 45 219.5t129.5 155.5t198.5 57q100 0 155 -36q-7 -55 -27 -108q-24 15 -54 23t-63 8q-79 0 -136 -42.5z" />
    <glyph glyph-name="Ccircumflex" unicode="&#x108;" horiz-adv-x="545" 
d="M175.5 18.5q-63.5 36.5 -95.5 103t-32 156.5q0 121 45 219.5t129.5 155.5t198.5 57q100 0 155 -36q-7 -55 -27 -108q-24 15 -54 23t-63 8q-79 0 -136 -42.5t-86 -112t-29 -151.5q0 -97 44.5 -146t125.5 -49q75 0 144 24q-8 -64 -30 -119q-71 -19 -136 -19
q-90 0 -153.5 36.5zM364 888q36 9 78 9t75 -9l74 -127h-37q-40 0 -68.5 16.5t-52.5 50.5q-37 -35 -70.5 -51t-72.5 -16h-35z" />
    <glyph glyph-name="Cdotaccent" unicode="&#x10a;" horiz-adv-x="545" 
d="M175.5 18.5q-63.5 36.5 -95.5 103t-32 156.5q0 121 45 219.5t129.5 155.5t198.5 57q100 0 155 -36q-7 -55 -27 -108q-24 15 -54 23t-63 8q-79 0 -136 -42.5t-86 -112t-29 -151.5q0 -97 44.5 -146t125.5 -49q75 0 144 24q-8 -64 -30 -119q-71 -19 -136 -19
q-90 0 -153.5 36.5zM370 773.5q-20 20.5 -20 52.5t20 52t53 20q31 0 51 -20t20 -52q0 -33 -20 -53t-51 -20q-33 0 -53 20.5z" />
    <glyph glyph-name="D" unicode="D" horiz-adv-x="660" 
d="M507 673q68 -37 100 -102.5t32 -153.5q0 -128 -44.5 -222t-132 -144.5t-213.5 -50.5h-205l97 692q92 18 195 18t171 -37zM400 152q55 40 81 108.5t26 155.5q0 93 -41.5 137.5t-131.5 44.5q-34 0 -77 -5l-69 -481h74q83 0 138 40z" />
    <glyph glyph-name="Eth" unicode="&#xd0;" horiz-adv-x="677" 
d="M524 673q68 -37 100.5 -102.5t32.5 -153.5q0 -128 -45 -222t-132.5 -144.5t-212.5 -50.5h-206l42 298h-86q11 59 28 97h71l42 297q92 18 195 18t171 -37zM417.5 152q55.5 40 81.5 108.5t26 155.5q0 93 -41.5 137.5t-131.5 44.5q-34 0 -77 -5l-29 -198h136q-9 -54 -27 -97
h-123l-27 -186h74q83 0 138.5 40z" />
    <glyph glyph-name="Dcaron" unicode="&#x10e;" horiz-adv-x="660" 
d="M507 673q68 -37 100 -102.5t32 -153.5q0 -128 -44.5 -222t-132 -144.5t-213.5 -50.5h-205l97 692q92 18 195 18t171 -37zM400 152q55 40 81 108.5t26 155.5q0 93 -41.5 137.5t-131.5 44.5q-34 0 -77 -5l-69 -481h74q83 0 138 40zM434 768q-36 -9 -79 -9q-41 0 -74 9
l-75 127h38q40 0 68.5 -16.5t52.5 -50.5q36 35 69.5 51t73.5 16h35z" />
    <glyph glyph-name="Dcroat" unicode="&#x110;" horiz-adv-x="677" 
d="M524 673q68 -37 100.5 -102.5t32.5 -153.5q0 -128 -45 -222t-132.5 -144.5t-212.5 -50.5h-206l42 298h-86q11 59 28 97h71l42 297q92 18 195 18t171 -37zM417.5 152q55.5 40 81.5 108.5t26 155.5q0 93 -41.5 137.5t-131.5 44.5q-34 0 -77 -5l-29 -198h136q-9 -54 -27 -97
h-123l-27 -186h74q83 0 138.5 40z" />
    <glyph glyph-name="E" unicode="E" horiz-adv-x="528" 
d="M253 581l-25 -176h256q-3 -26 -10.5 -58t-15.5 -53h-245l-26 -183h285q-2 -24 -10 -56.5t-16 -54.5h-402l97 692h414q-2 -24 -10 -57t-16 -54h-276z" />
    <glyph glyph-name="Eacute" unicode="&#xc9;" horiz-adv-x="528" 
d="M253 581l-25 -176h256q-3 -26 -10.5 -58t-15.5 -53h-245l-26 -183h285q-2 -24 -10 -56.5t-16 -54.5h-402l97 692h414q-2 -24 -10 -57t-16 -54h-276zM364 881q14 3 37 5t43 2q23 0 46 -3t36 -7q-41 -52 -98.5 -84.5t-118.5 -32.5h-21z" />
    <glyph glyph-name="Ebreve" unicode="&#x114;" horiz-adv-x="528" 
d="M253 581l-25 -176h256q-3 -26 -10.5 -58t-15.5 -53h-245l-26 -183h285q-2 -24 -10 -56.5t-16 -54.5h-402l97 692h414q-2 -24 -10 -57t-16 -54h-276zM283 775.5q-34 17.5 -50.5 46.5t-17.5 63q21 2 45.5 4t45.5 2q3 -26 18.5 -39.5t45.5 -13.5t48.5 13.5t28.5 39.5
q20 0 44 -1.5t44 -4.5q-15 -58 -54 -92.5t-113 -34.5q-51 0 -85 17.5z" />
    <glyph glyph-name="Ecaron" unicode="&#x11a;" horiz-adv-x="528" 
d="M253 581l-25 -176h256q-3 -26 -10.5 -58t-15.5 -53h-245l-26 -183h285q-2 -24 -10 -56.5t-16 -54.5h-402l97 692h414q-2 -24 -10 -57t-16 -54h-276zM434 768q-36 -9 -79 -9q-41 0 -74 9l-75 127h38q40 0 68.5 -16.5t52.5 -50.5q36 35 69.5 51t73.5 16h35z" />
    <glyph glyph-name="Ecircumflex" unicode="&#xca;" horiz-adv-x="528" 
d="M253 581l-25 -176h256q-3 -26 -10.5 -58t-15.5 -53h-245l-26 -183h285q-2 -24 -10 -56.5t-16 -54.5h-402l97 692h414q-2 -24 -10 -57t-16 -54h-276zM317 888q36 9 78 9t75 -9l74 -127h-37q-40 0 -68.5 16.5t-52.5 50.5q-37 -35 -70.5 -51t-72.5 -16h-35z" />
    <glyph glyph-name="Edieresis" unicode="&#xcb;" horiz-adv-x="528" 
d="M253 581l-25 -176h256q-3 -26 -10.5 -58t-15.5 -53h-245l-26 -183h285q-2 -24 -10 -56.5t-16 -54.5h-402l97 692h414q-2 -24 -10 -57t-16 -54h-276zM223.5 777q-19.5 20 -19.5 51t19.5 50.5t50.5 19.5q30 0 50 -19.5t20 -50.5t-20 -51t-50 -20q-31 0 -50.5 20zM429.5 777
q-19.5 20 -19.5 51q0 30 19.5 50t50.5 20q30 0 49.5 -20t19.5 -50q0 -31 -19.5 -51t-49.5 -20q-31 0 -50.5 20z" />
    <glyph glyph-name="Edotaccent" unicode="&#x116;" horiz-adv-x="528" 
d="M253 581l-25 -176h256q-3 -26 -10.5 -58t-15.5 -53h-245l-26 -183h285q-2 -24 -10 -56.5t-16 -54.5h-402l97 692h414q-2 -24 -10 -57t-16 -54h-276zM323 773.5q-20 20.5 -20 52.5t20 52t53 20q31 0 51 -20t20 -52q0 -33 -20 -53t-51 -20q-33 0 -53 20.5z" />
    <glyph glyph-name="Egrave" unicode="&#xc8;" horiz-adv-x="528" 
d="M253 581l-25 -176h256q-3 -26 -10.5 -58t-15.5 -53h-245l-26 -183h285q-2 -24 -10 -56.5t-16 -54.5h-402l97 692h414q-2 -24 -10 -57t-16 -54h-276zM442 761q-61 0 -119 32.5t-99 84.5q13 4 36.5 7t46.5 3q20 0 42.5 -2t36.5 -5l77 -120h-21z" />
    <glyph glyph-name="Emacron" unicode="&#x112;" horiz-adv-x="528" 
d="M253 581l-25 -176h256q-3 -26 -10.5 -58t-15.5 -53h-245l-26 -183h285q-2 -24 -10 -56.5t-16 -54.5h-402l97 692h414q-2 -24 -10 -57t-16 -54h-276zM235.5 823.5q5.5 20.5 14.5 47.5h277q-9 -44 -25 -92h-276q4 24 9.5 44.5z" />
    <glyph glyph-name="Eogonek" unicode="&#x118;" horiz-adv-x="528" 
d="M253 581l-25 -176h256q-3 -26 -10.5 -58t-15.5 -53h-245l-26 -183h285q-2 -24 -10 -56.5t-16 -54.5h-16q-30 -16 -49.5 -45t-19.5 -56q0 -37 42 -37q11 0 23 3.5t21 6.5q-3 -21 -8 -40t-14 -44q-22 -9 -62 -9q-48 0 -76 24.5t-28 72.5q0 34 20 65.5t61 58.5h-296l97 692
h414q-2 -24 -10 -57t-16 -54h-276z" />
    <glyph glyph-name="F" unicode="F" horiz-adv-x="502" 
d="M253 581l-25 -179h245q-3 -26 -10.5 -58.5t-15.5 -53.5h-235l-40 -290h-128l97 692h398q-3 -26 -10.5 -58.5t-16.5 -52.5h-259z" />
    <glyph glyph-name="G" unicode="G" horiz-adv-x="637" 
d="M300 556q-59 -41 -89.5 -109.5t-30.5 -151.5q0 -198 174 -198q30 0 72 7l37 262h128l-48 -346q-42 -18 -97 -27t-111 -9q-91 0 -155.5 35.5t-98 101t-33.5 155.5q0 130 46.5 228t136.5 152t218 54q105 0 179 -33q-7 -50 -30 -110q-39 16 -76.5 23t-79.5 7q-83 0 -142 -41
z" />
    <glyph glyph-name="Gbreve" unicode="&#x11e;" horiz-adv-x="637" 
d="M300 556q-59 -41 -89.5 -109.5t-30.5 -151.5q0 -198 174 -198q30 0 72 7l37 262h128l-48 -346q-42 -18 -97 -27t-111 -9q-91 0 -155.5 35.5t-98 101t-33.5 155.5q0 130 46.5 228t136.5 152t218 54q105 0 179 -33q-7 -50 -30 -110q-39 16 -76.5 23t-79.5 7q-83 0 -142 -41
zM358 775.5q-34 17.5 -50.5 46.5t-17.5 63q21 2 45.5 4t45.5 2q3 -26 18.5 -39.5t45.5 -13.5t48.5 13.5t28.5 39.5q20 0 44 -1.5t44 -4.5q-15 -58 -54 -92.5t-113 -34.5q-51 0 -85 17.5z" />
    <glyph glyph-name="Gcircumflex" unicode="&#x11c;" horiz-adv-x="637" 
d="M300 556q-59 -41 -89.5 -109.5t-30.5 -151.5q0 -198 174 -198q30 0 72 7l37 262h128l-48 -346q-42 -18 -97 -27t-111 -9q-91 0 -155.5 35.5t-98 101t-33.5 155.5q0 130 46.5 228t136.5 152t218 54q105 0 179 -33q-7 -50 -30 -110q-39 16 -76.5 23t-79.5 7q-83 0 -142 -41
zM392 888q36 9 78 9t75 -9l74 -127h-37q-40 0 -68.5 16.5t-52.5 50.5q-37 -35 -70.5 -51t-72.5 -16h-35z" />
    <glyph glyph-name="uni0122" unicode="&#x122;" horiz-adv-x="637" 
d="M300 556q-59 -41 -89.5 -109.5t-30.5 -151.5q0 -198 174 -198q30 0 72 7l37 262h128l-48 -346q-42 -18 -97 -27t-111 -9q-91 0 -155.5 35.5t-98 101t-33.5 155.5q0 130 46.5 228t136.5 152t218 54q105 0 179 -33q-7 -50 -30 -110q-39 16 -76.5 23t-79.5 7q-83 0 -142 -41
zM253 -164.5q7 38.5 14 86.5q36 10 62.5 14t58.5 4q-13 -60 -46 -108.5t-81 -78.5h-26q11 44 18 82.5z" />
    <glyph glyph-name="Gdotaccent" unicode="&#x120;" horiz-adv-x="637" 
d="M300 556q-59 -41 -89.5 -109.5t-30.5 -151.5q0 -198 174 -198q30 0 72 7l37 262h128l-48 -346q-42 -18 -97 -27t-111 -9q-91 0 -155.5 35.5t-98 101t-33.5 155.5q0 130 46.5 228t136.5 152t218 54q105 0 179 -33q-7 -50 -30 -110q-39 16 -76.5 23t-79.5 7q-83 0 -142 -41
zM398 773.5q-20 20.5 -20 52.5t20 52t53 20q31 0 51 -20t20 -52q0 -33 -20 -53t-51 -20q-33 0 -53 20.5z" />
    <glyph glyph-name="H" unicode="H" horiz-adv-x="676" 
d="M591.5 696q36.5 5 68.5 5l-98 -701h-128l42 296h-263l-41 -296h-128l96 684q25 7 61.5 12t68.5 5l-41 -291h263l38 274q25 7 61.5 12z" />
    <glyph glyph-name="Hbar" unicode="&#x126;" horiz-adv-x="696" 
d="M723 546.5q-7 -25.5 -14 -44.5h-67l-70 -502h-128l42 296h-263l-41 -296h-128l70 502h-78q3 20 9.5 45t14.5 46h67l13 91q25 7 61.5 12t68.5 5l-15 -108h262l13 91q25 7 61.5 12t68.5 5l-15 -108h79q-4 -21 -11 -46.5zM514 502h-262l-13 -92h263z" />
    <glyph glyph-name="Hcircumflex" unicode="&#x124;" horiz-adv-x="676" 
d="M591.5 696q36.5 5 68.5 5l-98 -701h-128l42 296h-263l-41 -296h-128l96 684q25 7 61.5 12t68.5 5l-41 -291h263l38 274q25 7 61.5 12zM361 888q36 9 78 9t75 -9l74 -127h-37q-40 0 -68.5 16.5t-52.5 50.5q-37 -35 -70.5 -51t-72.5 -16h-35z" />
    <glyph glyph-name="I" unicode="I" horiz-adv-x="286" 
d="M140 684q25 7 61.5 12t68.5 5l-98 -701h-128z" />
    <glyph glyph-name="IJ" unicode="&#x132;" horiz-adv-x="632" 
d="M140 684q25 7 61.5 12t68.5 5l-98 -701h-128zM257 5q8 52 24 105q28 -6 55 -6q46 0 68.5 25.5t30.5 79.5l67 475q25 7 62 12t69 5l-70 -496q-14 -104 -68 -158t-148 -54q-54 0 -90 12z" />
    <glyph glyph-name="Iacute" unicode="&#xcd;" horiz-adv-x="286" 
d="M140 684q25 7 61.5 12t68.5 5l-98 -701h-128zM213 881q14 3 37 5t43 2q23 0 46 -3t36 -7q-41 -52 -98.5 -84.5t-118.5 -32.5h-21z" />
    <glyph glyph-name="Ibreve" unicode="&#x12c;" horiz-adv-x="286" 
d="M140 684q25 7 61.5 12t68.5 5l-98 -701h-128zM140 776.5q-30 17.5 -44 45t-15 56.5q16 3 40.5 4.5t44.5 1.5q4 -21 17 -32.5t38 -11.5q26 0 40.5 11t21.5 33q19 0 41 -1.5t41 -4.5q-15 -50 -48.5 -84.5t-99.5 -34.5q-47 0 -77 17.5z" />
    <glyph glyph-name="Icircumflex" unicode="&#xce;" horiz-adv-x="286" 
d="M140 684q25 7 61.5 12t68.5 5l-98 -701h-128zM166 881q14 4 32.5 6.5t34.5 2.5t33.5 -2.5t30.5 -6.5l66 -119h-44q-29 8 -51 21.5t-40 41.5q-26 -29 -50.5 -42t-52.5 -21h-58z" />
    <glyph glyph-name="Idieresis" unicode="&#xcf;" horiz-adv-x="286" 
d="M140 684q25 7 61.5 12t68.5 5l-98 -701h-128zM86.5 776.5q-19.5 20.5 -19.5 50.5t19.5 50t49.5 20t49.5 -20t19.5 -50t-19.5 -50.5t-49.5 -20.5t-49.5 20.5zM264 776.5q-20 20.5 -20 50.5t19.5 50t50.5 20q30 0 49 -20t19 -50t-19 -50.5t-49 -20.5t-50 20.5z" />
    <glyph glyph-name="Idotaccent" unicode="&#x130;" horiz-adv-x="286" 
d="M140 684q25 7 61.5 12t68.5 5l-98 -701h-128zM173 773.5q-20 20.5 -20 52.5t20 52t53 20q31 0 51 -20t20 -52q0 -33 -20 -53t-51 -20q-33 0 -53 20.5z" />
    <glyph glyph-name="Igrave" unicode="&#xcc;" horiz-adv-x="286" 
d="M140 684q25 7 61.5 12t68.5 5l-98 -701h-128zM291 761q-61 0 -119 32.5t-99 84.5q13 4 36.5 7t46.5 3q20 0 42.5 -2t36.5 -5l77 -120h-21z" />
    <glyph glyph-name="Imacron" unicode="&#x12a;" horiz-adv-x="286" 
d="M140 684q25 7 61.5 12t68.5 5l-98 -701h-128zM112 870h248q-5 -27 -10.5 -47t-14.5 -45h-247q7 43 24 92z" />
    <glyph glyph-name="Iogonek" unicode="&#x12e;" horiz-adv-x="286" 
d="M112.5 -51q-16.5 -25 -16.5 -51q0 -17 9.5 -25.5t26.5 -8.5q22 0 39 10q-6 -44 -20 -85q-7 -3 -23.5 -6t-32.5 -3q-45 0 -71 24.5t-26 67.5q0 42 19 71.5t55 56.5h-28l96 684q25 7 61.5 12t68.5 5l-98 -701h-10q-33 -26 -49.5 -51z" />
    <glyph glyph-name="Itilde" unicode="&#x128;" horiz-adv-x="286" 
d="M140 684q25 7 61.5 12t68.5 5l-98 -701h-128zM244.5 753.5q-17.5 10.5 -37.5 28.5q-8 7 -16 12.5t-13 5.5q-7 0 -11 -5.5t-6 -17.5l-5 -30h-77l8 58q6 44 27.5 64.5t51.5 20.5q21 0 38.5 -10.5t37.5 -28.5t28 -18q7 0 11 5.5t6 18.5l5 29h77l-8 -58q-6 -44 -27 -64.5
t-51 -20.5q-21 0 -38.5 10.5z" />
    <glyph glyph-name="J" unicode="J" horiz-adv-x="346" 
d="M-29 5q8 52 24 105q28 -6 55 -6q46 0 68.5 25.5t30.5 79.5l67 475q25 7 62 12t69 5l-70 -496q-14 -104 -68 -158t-148 -54q-54 0 -90 12z" />
    <glyph glyph-name="Jcircumflex" unicode="&#x134;" horiz-adv-x="346" 
d="M-29 5q8 52 24 105q28 -6 55 -6q46 0 68.5 25.5t30.5 79.5l67 475q25 7 62 12t69 5l-70 -496q-14 -104 -68 -158t-148 -54q-54 0 -90 12zM242 881q14 4 32.5 6.5t34.5 2.5t33.5 -2.5t30.5 -6.5l66 -119h-44q-29 8 -51 21.5t-40 41.5q-26 -29 -50.5 -42t-52.5 -21h-58z
" />
    <glyph glyph-name="K" unicode="K" horiz-adv-x="584" 
d="M353 344l197 -344h-144l-187 336l-47 -336h-128l96 684q25 7 62 12t69 5l-48 -342l264 333h144z" />
    <glyph glyph-name="uni0136" unicode="&#x136;" horiz-adv-x="584" 
d="M353 344l197 -344h-144l-187 336l-47 -336h-128l96 684q25 7 62 12t69 5l-48 -342l264 333h144zM199 -164.5q7 38.5 14 86.5q36 10 62.5 14t58.5 4q-13 -60 -46 -108.5t-81 -78.5h-26q11 44 18 82.5z" />
    <glyph glyph-name="L" unicode="L" horiz-adv-x="452" 
d="M140 684q25 7 61.5 12t68.5 5l-82 -588h239q-2 -27 -9.5 -59.5t-16.5 -53.5h-357z" />
    <glyph glyph-name="Lacute" unicode="&#x139;" horiz-adv-x="452" 
d="M140 684q25 7 61.5 12t68.5 5l-82 -588h239q-2 -27 -9.5 -59.5t-16.5 -53.5h-357zM228 881q14 3 37 5t43 2q23 0 46 -3t36 -7q-41 -52 -98.5 -84.5t-118.5 -32.5h-21z" />
    <glyph glyph-name="Lcaron" unicode="&#x13d;" horiz-adv-x="452" 
d="M140 684q25 7 61.5 12t68.5 5l-82 -588h239q-2 -27 -9.5 -59.5t-16.5 -53.5h-357zM360 605.5q7 38.5 14 86.5q36 10 62.5 14t58.5 4q-13 -60 -46 -108.5t-81 -78.5h-26q11 44 18 82.5z" />
    <glyph glyph-name="uni013B" unicode="&#x13b;" horiz-adv-x="452" 
d="M140 684q25 7 61.5 12t68.5 5l-82 -588h239q-2 -27 -9.5 -59.5t-16.5 -53.5h-357zM148 -164.5q7 38.5 14 86.5q36 10 62.5 14t58.5 4q-13 -60 -46 -108.5t-81 -78.5h-26q11 44 18 82.5z" />
    <glyph glyph-name="Ldot" unicode="&#x13f;" horiz-adv-x="452" 
d="M140 684q25 7 61.5 12t68.5 5l-82 -588h239q-2 -27 -9.5 -59.5t-16.5 -53.5h-357zM366.5 350.5q-18.5 10.5 -29 28.5t-10.5 40t10.5 40.5t29 29t41.5 10.5q22 0 40.5 -10.5t28.5 -29t10 -40.5t-10 -40t-28 -28.5t-41 -10.5t-41.5 10.5z" />
    <glyph glyph-name="Lslash" unicode="&#x141;" horiz-adv-x="457" 
d="M432 113q-2 -27 -9.5 -59.5t-16.5 -53.5h-357l36 260l-81 -40q3 28 9.5 60.5t13.5 52.5l74 36l44 315q25 7 61.5 12t68.5 5l-37 -265l154 75q-3 -29 -10 -61.5t-15 -51.5l-144 -71l-30 -214h239z" />
    <glyph glyph-name="M" unicode="M" horiz-adv-x="860" 
d="M730.5 697q43.5 4 85.5 4l-50 -701h-122l22 274q11 140 23 232q-48 -110 -131 -276l-113 -230h-103l-49 233q-32 147 -52 268q-20 -127 -43 -240l-52 -261h-122l145 684q32 8 72.5 12.5t76.5 4.5l99 -532l238 515q32 9 75.5 13z" />
    <glyph glyph-name="N" unicode="N" horiz-adv-x="671" 
d="M656 701l-99 -701h-111l-170 381q-29 67 -44 117q-13 -127 -31 -246l-36 -252h-121l96 684q28 8 60.5 12.5t61.5 4.5l163 -354q27 -62 47 -129q11 116 31 263l29 203q58 17 124 17z" />
    <glyph glyph-name="Nacute" unicode="&#x143;" horiz-adv-x="671" 
d="M656 701l-99 -701h-111l-170 381q-29 67 -44 117q-13 -127 -31 -246l-36 -252h-121l96 684q28 8 60.5 12.5t61.5 4.5l163 -354q27 -62 47 -129q11 116 31 263l29 203q58 17 124 17zM406 881q14 3 37 5t43 2q23 0 46 -3t36 -7q-41 -52 -98.5 -84.5t-118.5 -32.5h-21z" />
    <glyph glyph-name="Ncaron" unicode="&#x147;" horiz-adv-x="671" 
d="M656 701l-99 -701h-111l-170 381q-29 67 -44 117q-13 -127 -31 -246l-36 -252h-121l96 684q28 8 60.5 12.5t61.5 4.5l163 -354q27 -62 47 -129q11 116 31 263l29 203q58 17 124 17zM476 768q-36 -9 -79 -9q-41 0 -74 9l-75 127h38q40 0 68.5 -16.5t52.5 -50.5
q36 35 69.5 51t73.5 16h35z" />
    <glyph glyph-name="uni0145" unicode="&#x145;" horiz-adv-x="671" 
d="M656 701l-99 -701h-111l-170 381q-29 67 -44 117q-13 -127 -31 -246l-36 -252h-121l96 684q28 8 60.5 12.5t61.5 4.5l163 -354q27 -62 47 -129q11 116 31 263l29 203q58 17 124 17zM222 -164.5q7 38.5 14 86.5q36 10 62.5 14t58.5 4q-13 -60 -46 -108.5t-81 -78.5h-26
q11 44 18 82.5z" />
    <glyph glyph-name="Eng" unicode="&#x14a;" horiz-adv-x="671" 
d="M656 701l-99 -701q-17 -119 -70.5 -171.5t-145.5 -52.5q-25 0 -50.5 3.5t-42.5 8.5q13 71 25 110q24 -7 54 -7q34 0 55 12.5t33.5 39.5t18.5 71l1 10l-159 357q-29 67 -44 117q-13 -127 -31 -246l-36 -252h-121l96 684q28 8 60.5 12.5t61.5 4.5l163 -354q27 -62 47 -129
q11 116 31 263l29 203q58 17 124 17z" />
    <glyph glyph-name="Ntilde" unicode="&#xd1;" horiz-adv-x="671" 
d="M656 701l-99 -701h-111l-170 381q-29 67 -44 117q-13 -127 -31 -246l-36 -252h-121l96 684q28 8 60.5 12.5t61.5 4.5l163 -354q27 -62 47 -129q11 116 31 263l29 203q58 17 124 17zM448.5 754q-20.5 9 -48.5 26q-14 9 -27.5 15.5t-20.5 6.5q-9 0 -12.5 -6t-5.5 -20
l-4 -29h-84l7 52q7 46 28.5 68t57.5 22q23 0 45.5 -10t51.5 -27q3 -2 13.5 -7.5t17.5 -8.5t11 -3q17 0 20 24l3 30h84l-7 -54q-7 -46 -29 -67t-60 -21q-20 0 -40.5 9z" />
    <glyph glyph-name="O" unicode="O" horiz-adv-x="696" 
d="M170.5 17q-60.5 35 -91.5 101.5t-31 159.5q0 119 42 217.5t123 156.5t192 58q88 0 148.5 -35.5t91 -102t30.5 -160.5q0 -118 -41.5 -216t-122 -156t-193.5 -58q-87 0 -147.5 35zM446 140.5q49 45.5 73 118.5t24 155q0 91 -36.5 136.5t-108.5 45.5t-121 -45.5t-73 -117.5
t-24 -153q0 -185 144 -185q73 0 122 45.5z" />
    <glyph glyph-name="Oacute" unicode="&#xd3;" horiz-adv-x="696" 
d="M170.5 17q-60.5 35 -91.5 101.5t-31 159.5q0 119 42 217.5t123 156.5t192 58q88 0 148.5 -35.5t91 -102t30.5 -160.5q0 -118 -41.5 -216t-122 -156t-193.5 -58q-87 0 -147.5 35zM446 140.5q49 45.5 73 118.5t24 155q0 91 -36.5 136.5t-108.5 45.5t-121 -45.5t-73 -117.5
t-24 -153q0 -185 144 -185q73 0 122 45.5zM412 881q14 3 37 5t43 2q23 0 46 -3t36 -7q-41 -52 -98.5 -84.5t-118.5 -32.5h-21z" />
    <glyph glyph-name="Obreve" unicode="&#x14e;" horiz-adv-x="696" 
d="M170.5 17q-60.5 35 -91.5 101.5t-31 159.5q0 119 42 217.5t123 156.5t192 58q88 0 148.5 -35.5t91 -102t30.5 -160.5q0 -118 -41.5 -216t-122 -156t-193.5 -58q-87 0 -147.5 35zM446 140.5q49 45.5 73 118.5t24 155q0 91 -36.5 136.5t-108.5 45.5t-121 -45.5t-73 -117.5
t-24 -153q0 -185 144 -185q73 0 122 45.5zM331 775.5q-34 17.5 -50.5 46.5t-17.5 63q21 2 45.5 4t45.5 2q3 -26 18.5 -39.5t45.5 -13.5t48.5 13.5t28.5 39.5q20 0 44 -1.5t44 -4.5q-15 -58 -54 -92.5t-113 -34.5q-51 0 -85 17.5z" />
    <glyph glyph-name="Ocircumflex" unicode="&#xd4;" horiz-adv-x="696" 
d="M170.5 17q-60.5 35 -91.5 101.5t-31 159.5q0 119 42 217.5t123 156.5t192 58q88 0 148.5 -35.5t91 -102t30.5 -160.5q0 -118 -41.5 -216t-122 -156t-193.5 -58q-87 0 -147.5 35zM446 140.5q49 45.5 73 118.5t24 155q0 91 -36.5 136.5t-108.5 45.5t-121 -45.5t-73 -117.5
t-24 -153q0 -185 144 -185q73 0 122 45.5zM365 888q36 9 78 9t75 -9l74 -127h-37q-40 0 -68.5 16.5t-52.5 50.5q-37 -35 -70.5 -51t-72.5 -16h-35z" />
    <glyph glyph-name="Odieresis" unicode="&#xd6;" horiz-adv-x="696" 
d="M170.5 17q-60.5 35 -91.5 101.5t-31 159.5q0 119 42 217.5t123 156.5t192 58q88 0 148.5 -35.5t91 -102t30.5 -160.5q0 -118 -41.5 -216t-122 -156t-193.5 -58q-87 0 -147.5 35zM446 140.5q49 45.5 73 118.5t24 155q0 91 -36.5 136.5t-108.5 45.5t-121 -45.5t-73 -117.5
t-24 -153q0 -185 144 -185q73 0 122 45.5zM271.5 777q-19.5 20 -19.5 51t19.5 50.5t50.5 19.5q30 0 50 -19.5t20 -50.5t-20 -51t-50 -20q-31 0 -50.5 20zM477.5 777q-19.5 20 -19.5 51q0 30 19.5 50t50.5 20q30 0 49.5 -20t19.5 -50q0 -31 -19.5 -51t-49.5 -20
q-31 0 -50.5 20z" />
    <glyph glyph-name="Ograve" unicode="&#xd2;" horiz-adv-x="696" 
d="M170.5 17q-60.5 35 -91.5 101.5t-31 159.5q0 119 42 217.5t123 156.5t192 58q88 0 148.5 -35.5t91 -102t30.5 -160.5q0 -118 -41.5 -216t-122 -156t-193.5 -58q-87 0 -147.5 35zM446 140.5q49 45.5 73 118.5t24 155q0 91 -36.5 136.5t-108.5 45.5t-121 -45.5t-73 -117.5
t-24 -153q0 -185 144 -185q73 0 122 45.5zM490 761q-61 0 -119 32.5t-99 84.5q13 4 36.5 7t46.5 3q20 0 42.5 -2t36.5 -5l77 -120h-21z" />
    <glyph glyph-name="Ohungarumlaut" unicode="&#x150;" horiz-adv-x="696" 
d="M170.5 17q-60.5 35 -91.5 101.5t-31 159.5q0 119 42 217.5t123 156.5t192 58q88 0 148.5 -35.5t91 -102t30.5 -160.5q0 -118 -41.5 -216t-122 -156t-193.5 -58q-87 0 -147.5 35zM446 140.5q49 45.5 73 118.5t24 155q0 91 -36.5 136.5t-108.5 45.5t-121 -45.5t-73 -117.5
t-24 -153q0 -185 144 -185q73 0 122 45.5zM343 882q32 6 77 6q38 0 59 -3q-15 -33 -48.5 -62t-75 -46t-80.5 -17h-13zM514 882q30 6 77 6q38 0 59 -3q-15 -33 -48.5 -62t-75 -46t-80.5 -17h-13z" />
    <glyph glyph-name="Omacron" unicode="&#x14c;" horiz-adv-x="696" 
d="M170.5 17q-60.5 35 -91.5 101.5t-31 159.5q0 119 42 217.5t123 156.5t192 58q88 0 148.5 -35.5t91 -102t30.5 -160.5q0 -118 -41.5 -216t-122 -156t-193.5 -58q-87 0 -147.5 35zM446 140.5q49 45.5 73 118.5t24 155q0 91 -36.5 136.5t-108.5 45.5t-121 -45.5t-73 -117.5
t-24 -153q0 -185 144 -185q73 0 122 45.5zM282.5 823.5q5.5 20.5 14.5 47.5h277q-9 -44 -25 -92h-276q4 24 9.5 44.5z" />
    <glyph glyph-name="Oslash" unicode="&#xd8;" horiz-adv-x="696" 
d="M640 582q35 -70 35 -170q0 -118 -41.5 -216t-122 -156t-193.5 -58q-114 0 -181 59l-96 -103q-14 20 -22.5 39.5t-11.5 43.5l78 84q-37 71 -37 173q0 119 42 217.5t123 156.5t192 58q115 0 185 -62l91 98q12 -20 20 -43t9 -46zM186 213l317 342q-36 41 -105 41
q-72 0 -121 -45.5t-73 -117.5t-24 -153q0 -37 6 -67zM538 473l-315 -340q36 -38 101 -38q73 0 122 45.5t73 118.5t24 155q0 29 -5 59z" />
    <glyph glyph-name="Oslashacute" unicode="&#x1fe;" horiz-adv-x="696" 
d="M640 582q35 -70 35 -170q0 -118 -41.5 -216t-122 -156t-193.5 -58q-114 0 -181 59l-96 -103q-14 20 -22.5 39.5t-11.5 43.5l78 84q-37 71 -37 173q0 119 42 217.5t123 156.5t192 58q115 0 185 -62l91 98q12 -20 20 -43t9 -46zM186 213l317 342q-36 41 -105 41
q-72 0 -121 -45.5t-73 -117.5t-24 -153q0 -37 6 -67zM538 473l-315 -340q36 -38 101 -38q73 0 122 45.5t73 118.5t24 155q0 29 -5 59zM418 881q14 3 37 5t43 2q23 0 46 -3t36 -7q-41 -52 -98.5 -84.5t-118.5 -32.5h-21z" />
    <glyph glyph-name="Otilde" unicode="&#xd5;" horiz-adv-x="696" 
d="M170.5 17q-60.5 35 -91.5 101.5t-31 159.5q0 119 42 217.5t123 156.5t192 58q88 0 148.5 -35.5t91 -102t30.5 -160.5q0 -118 -41.5 -216t-122 -156t-193.5 -58q-87 0 -147.5 35zM446 140.5q49 45.5 73 118.5t24 155q0 91 -36.5 136.5t-108.5 45.5t-121 -45.5t-73 -117.5
t-24 -153q0 -185 144 -185q73 0 122 45.5zM454.5 754q-20.5 9 -48.5 26q-14 9 -27.5 15.5t-20.5 6.5q-9 0 -12.5 -6t-5.5 -20l-4 -29h-84l7 52q7 46 28.5 68t57.5 22q23 0 45.5 -10t51.5 -27q3 -2 13.5 -7.5t17.5 -8.5t11 -3q17 0 20 24l3 30h84l-7 -54q-7 -46 -29 -67
t-60 -21q-20 0 -40.5 9z" />
    <glyph glyph-name="OE" unicode="&#x152;" horiz-adv-x="887" 
d="M612 581l-25 -176h256q-3 -26 -10.5 -58t-15.5 -53h-245l-26 -183h285q-2 -24 -10 -56.5t-16 -54.5h-340v-1h-144q-133 0 -202 74t-69 216q0 119 41 210t122.5 142t199.5 51h501q-3 -26 -10.5 -58.5t-15.5 -52.5h-276zM217.5 154.5q38.5 -41.5 116.5 -41.5h85l65 467h-85
q-77 0 -126 -39t-71.5 -105t-22.5 -151q0 -89 38.5 -130.5z" />
    <glyph glyph-name="P" unicode="P" horiz-adv-x="585" 
d="M521.5 654.5q61.5 -54.5 61.5 -143.5q0 -87 -37 -150.5t-105 -97t-161 -33.5h-76l-32 -230h-128l97 692q40 7 92 12t93 5q134 0 195.5 -54.5zM376 358q37 21 56 57t19 82q0 51 -29.5 78t-93.5 27q-27 0 -72 -5l-37 -261h70q50 1 87 22z" />
    <glyph glyph-name="Thorn" unicode="&#xde;" horiz-adv-x="584" 
d="M457 569q57 -26 83 -70.5t26 -102.5q0 -87 -36.5 -150t-105 -97t-161.5 -34h-75l-16 -115h-128l96 684q25 7 62 12t69 5l-15 -108q36 2 53 2q91 0 148 -26zM359 243q37 21 56 57.5t19 82.5q0 51 -29 78t-94 27q-26 0 -71 -5l-37 -262l69 1q50 0 87 21z" />
    <glyph glyph-name="Q" unicode="Q" horiz-adv-x="696" 
d="M641 214.5q-34 -90.5 -98 -148.5l82 -112q-19 -18 -47 -37.5t-56 -34.5l-84 120q-55 -20 -120 -20q-87 0 -147.5 35t-91.5 101.5t-31 159.5q0 119 42 217.5t123 156.5t192 58q88 0 148.5 -35.5t91 -102t30.5 -160.5q0 -107 -34 -197.5zM324 95q73 0 122 45.5t73 118.5
t24 155q0 91 -36.5 136.5t-108.5 45.5t-121 -45.5t-73 -117.5t-24 -153q0 -185 144 -185z" />
    <glyph glyph-name="R" unicode="R" horiz-adv-x="568" 
d="M545.5 396.5q-23.5 -47.5 -60 -76.5t-80.5 -44l118 -276h-140l-99 256h-76l-36 -256h-128l97 692q40 8 91 12.5t92 4.5q86 0 140.5 -27t79.5 -72t25 -101q0 -65 -23.5 -112.5zM223 361h62q71 0 111.5 34t40.5 106q0 47 -27.5 74t-83.5 27q-37 0 -70 -4z" />
    <glyph glyph-name="Racute" unicode="&#x154;" horiz-adv-x="568" 
d="M545.5 396.5q-23.5 -47.5 -60 -76.5t-80.5 -44l118 -276h-140l-99 256h-76l-36 -256h-128l97 692q40 8 91 12.5t92 4.5q86 0 140.5 -27t79.5 -72t25 -101q0 -65 -23.5 -112.5zM223 361h62q71 0 111.5 34t40.5 106q0 47 -27.5 74t-83.5 27q-37 0 -70 -4zM358 881
q14 3 37 5t43 2q23 0 46 -3t36 -7q-41 -52 -98.5 -84.5t-118.5 -32.5h-21z" />
    <glyph glyph-name="Rcaron" unicode="&#x158;" horiz-adv-x="568" 
d="M545.5 396.5q-23.5 -47.5 -60 -76.5t-80.5 -44l118 -276h-140l-99 256h-76l-36 -256h-128l97 692q40 8 91 12.5t92 4.5q86 0 140.5 -27t79.5 -72t25 -101q0 -65 -23.5 -112.5zM223 361h62q71 0 111.5 34t40.5 106q0 47 -27.5 74t-83.5 27q-37 0 -70 -4zM428 768
q-36 -9 -79 -9q-41 0 -74 9l-75 127h38q40 0 68.5 -16.5t52.5 -50.5q36 35 69.5 51t73.5 16h35z" />
    <glyph glyph-name="uni0156" unicode="&#x156;" horiz-adv-x="568" 
d="M545.5 396.5q-23.5 -47.5 -60 -76.5t-80.5 -44l118 -276h-140l-99 256h-76l-36 -256h-128l97 692q40 8 91 12.5t92 4.5q86 0 140.5 -27t79.5 -72t25 -101q0 -65 -23.5 -112.5zM223 361h62q71 0 111.5 34t40.5 106q0 47 -27.5 74t-83.5 27q-37 0 -70 -4zM187 -164.5
q7 38.5 14 86.5q36 10 62.5 14t58.5 4q-13 -60 -46 -108.5t-81 -78.5h-26q11 44 18 82.5z" />
    <glyph glyph-name="S" unicode="S" horiz-adv-x="517" 
d="M95 -4.5q-52 13.5 -85 35.5q4 29 9.5 53t15.5 52q35 -22 79 -33.5t89 -11.5t77 12.5t49 36t17 54.5q0 24 -8 40t-26.5 28.5t-53.5 27.5l-49 21q-63 27 -99.5 69.5t-36.5 107.5q0 69 33.5 119t92.5 76.5t135 26.5q51 0 95 -9.5t86 -28.5q-4 -27 -10.5 -52t-14.5 -50
q-68 32 -150 32q-44 0 -74.5 -13t-46.5 -35t-16 -49q0 -24 9 -40t28.5 -28t54.5 -27l45 -19q64 -26 100.5 -69t36.5 -113q0 -71 -34.5 -122t-97.5 -78t-148 -27q-50 0 -102 13.5z" />
    <glyph glyph-name="Sacute" unicode="&#x15a;" horiz-adv-x="517" 
d="M95 -4.5q-52 13.5 -85 35.5q4 29 9.5 53t15.5 52q35 -22 79 -33.5t89 -11.5t77 12.5t49 36t17 54.5q0 24 -8 40t-26.5 28.5t-53.5 27.5l-49 21q-63 27 -99.5 69.5t-36.5 107.5q0 69 33.5 119t92.5 76.5t135 26.5q51 0 95 -9.5t86 -28.5q-4 -27 -10.5 -52t-14.5 -50
q-68 32 -150 32q-44 0 -74.5 -13t-46.5 -35t-16 -49q0 -24 9 -40t28.5 -28t54.5 -27l45 -19q64 -26 100.5 -69t36.5 -113q0 -71 -34.5 -122t-97.5 -78t-148 -27q-50 0 -102 13.5zM337 881q14 3 37 5t43 2q23 0 46 -3t36 -7q-41 -52 -98.5 -84.5t-118.5 -32.5h-21z" />
    <glyph glyph-name="Scaron" unicode="&#x160;" horiz-adv-x="517" 
d="M95 -4.5q-52 13.5 -85 35.5q4 29 9.5 53t15.5 52q35 -22 79 -33.5t89 -11.5t77 12.5t49 36t17 54.5q0 24 -8 40t-26.5 28.5t-53.5 27.5l-49 21q-63 27 -99.5 69.5t-36.5 107.5q0 69 33.5 119t92.5 76.5t135 26.5q51 0 95 -9.5t86 -28.5q-4 -27 -10.5 -52t-14.5 -50
q-68 32 -150 32q-44 0 -74.5 -13t-46.5 -35t-16 -49q0 -24 9 -40t28.5 -28t54.5 -27l45 -19q64 -26 100.5 -69t36.5 -113q0 -71 -34.5 -122t-97.5 -78t-148 -27q-50 0 -102 13.5zM408 768q-36 -9 -79 -9q-41 0 -74 9l-75 127h38q40 0 68.5 -16.5t52.5 -50.5q36 35 69.5 51
t73.5 16h35z" />
    <glyph glyph-name="Scedilla" unicode="&#x15e;" horiz-adv-x="517" 
d="M265.5 589q-30.5 -13 -46.5 -35t-16 -49q0 -24 9 -40t28.5 -28t54.5 -27l45 -19q64 -26 100.5 -69t36.5 -113q0 -63 -27.5 -110.5t-78.5 -76.5t-121 -37l-14 -31q65 -19 65 -77q0 -47 -32.5 -72t-84.5 -25q-20 0 -41 4t-36 10q6 36 20 61q25 -9 47 -9t33.5 8t11.5 22
q0 16 -18 24t-57 9l33 74q-46 2 -91.5 15t-75.5 33q4 29 9.5 53t15.5 52q35 -22 79 -33.5t89 -11.5t77 12.5t49 36t17 54.5q0 24 -8 40t-26.5 28.5t-53.5 27.5l-49 21q-63 27 -99.5 69.5t-36.5 107.5q0 69 33.5 119t92.5 76.5t135 26.5q51 0 95 -9.5t86 -28.5
q-4 -27 -10.5 -52t-14.5 -50q-68 32 -150 32q-44 0 -74.5 -13z" />
    <glyph glyph-name="Scircumflex" unicode="&#x15c;" horiz-adv-x="517" 
d="M95 -4.5q-52 13.5 -85 35.5q4 29 9.5 53t15.5 52q35 -22 79 -33.5t89 -11.5t77 12.5t49 36t17 54.5q0 24 -8 40t-26.5 28.5t-53.5 27.5l-49 21q-63 27 -99.5 69.5t-36.5 107.5q0 69 33.5 119t92.5 76.5t135 26.5q51 0 95 -9.5t86 -28.5q-4 -27 -10.5 -52t-14.5 -50
q-68 32 -150 32q-44 0 -74.5 -13t-46.5 -35t-16 -49q0 -24 9 -40t28.5 -28t54.5 -27l45 -19q64 -26 100.5 -69t36.5 -113q0 -71 -34.5 -122t-97.5 -78t-148 -27q-50 0 -102 13.5zM290 888q36 9 78 9t75 -9l74 -127h-37q-40 0 -68.5 16.5t-52.5 50.5q-37 -35 -70.5 -51
t-72.5 -16h-35z" />
    <glyph glyph-name="uni0218" unicode="&#x218;" horiz-adv-x="517" 
d="M95 -4.5q-52 13.5 -85 35.5q4 29 9.5 53t15.5 52q35 -22 79 -33.5t89 -11.5t77 12.5t49 36t17 54.5q0 24 -8 40t-26.5 28.5t-53.5 27.5l-49 21q-63 27 -99.5 69.5t-36.5 107.5q0 69 33.5 119t92.5 76.5t135 26.5q51 0 95 -9.5t86 -28.5q-4 -27 -10.5 -52t-14.5 -50
q-68 32 -150 32q-44 0 -74.5 -13t-46.5 -35t-16 -49q0 -24 9 -40t28.5 -28t54.5 -27l45 -19q64 -26 100.5 -69t36.5 -113q0 -71 -34.5 -122t-97.5 -78t-148 -27q-50 0 -102 13.5zM139 -164.5q7 38.5 14 86.5q36 10 62.5 14t58.5 4q-13 -60 -46 -108.5t-81 -78.5h-26
q11 44 18 82.5z" />
    <glyph glyph-name="uni1E9E" unicode="&#x1e9e;" horiz-adv-x="684" 
d="M665 603l-163 -189q40 -10 71.5 -35.5t49.5 -64t18 -86.5q0 -74 -33 -128.5t-92.5 -83t-135.5 -28.5q-62 0 -112 15q4 26 12 53.5t17 49.5q36 -9 76 -9q64 0 99 34.5t35 97.5q0 52 -34.5 75t-86.5 23h-40q1 16 6 41t11 39l146 176h-113q-49 0 -82 -13.5t-52.5 -45
t-26.5 -84.5l-63 -440h-128l63 451q16 113 88 177t210 64h281q-8 -46 -21 -89z" />
    <glyph glyph-name="uni018F" unicode="&#x18f;" horiz-adv-x="640" 
d="M548.5 634.5q70.5 -75.5 70.5 -215.5q0 -122 -37 -221t-111.5 -157.5t-181.5 -58.5q-85 0 -140.5 33.5t-81 90.5t-25.5 129q0 33 3.5 68.5t13.5 84.5h427q1 11 1 34q0 62 -18 100t-57.5 56t-104.5 18q-54 0 -106 -12t-93 -32q9 73 31 122q96 36 190 36q149 0 219.5 -75.5
zM408.5 145q43.5 50 63.5 134h-300q-1 -14 -1 -44q0 -140 123 -140q71 0 114.5 50z" />
    <glyph glyph-name="T" unicode="T" horiz-adv-x="516" 
d="M562 635q-8 -33 -16 -55h-177l-82 -580h-128l82 580h-189q3 26 10.5 58.5t15.5 53.5h494q-2 -24 -10 -57z" />
    <glyph glyph-name="Tbar" unicode="&#x166;" horiz-adv-x="516" 
d="M369 580l-27 -194h127q-7 -55 -22 -95h-119l-41 -291h-128l41 291h-123q9 59 22 95h115l27 194h-189q3 26 10.5 58.5t15.5 53.5h494q-2 -24 -10 -57t-16 -55h-177z" />
    <glyph glyph-name="Tcaron" unicode="&#x164;" horiz-adv-x="516" 
d="M562 635q-8 -33 -16 -55h-177l-82 -580h-128l82 580h-189q3 26 10.5 58.5t15.5 53.5h494q-2 -24 -10 -57zM397 768q-36 -9 -79 -9q-41 0 -74 9l-75 127h38q40 0 68.5 -16.5t52.5 -50.5q36 35 69.5 51t73.5 16h35z" />
    <glyph glyph-name="uni0162" unicode="&#x162;" horiz-adv-x="516" 
d="M259 0l-21 -46q34 -10 50 -29t16 -48q0 -47 -32.5 -72t-84.5 -25q-20 0 -41 4t-36 10q3 32 20 61q23 -9 47 -9q22 0 33.5 8t11.5 22q0 16 -18 24t-57 9l41 91h-29l82 580h-189q3 26 10.5 58.5t15.5 53.5h494q-2 -24 -10 -57t-16 -55h-177l-82 -580h-28z" />
    <glyph glyph-name="uni021A" unicode="&#x21a;" horiz-adv-x="516" 
d="M562 635q-8 -33 -16 -55h-177l-82 -580h-128l82 580h-189q3 26 10.5 58.5t15.5 53.5h494q-2 -24 -10 -57zM141 -164.5q7 38.5 14 86.5q36 10 62.5 14t58.5 4q-13 -60 -46 -108.5t-81 -78.5h-26q11 44 18 82.5z" />
    <glyph glyph-name="U" unicode="U" horiz-adv-x="643" 
d="M171.5 8q-54.5 25 -84 71.5t-29.5 111.5q0 22 3 44l63 449q25 7 61.5 12t68.5 5l-67 -471q-2 -20 -2 -29q0 -54 31 -80t87 -26q61 0 99.5 33.5t48.5 102.5l64 453q25 7 61 12t68 5l-67 -475q-16 -115 -87 -179t-192 -64q-72 0 -126.5 25z" />
    <glyph glyph-name="Uacute" unicode="&#xda;" horiz-adv-x="643" 
d="M171.5 8q-54.5 25 -84 71.5t-29.5 111.5q0 22 3 44l63 449q25 7 61.5 12t68.5 5l-67 -471q-2 -20 -2 -29q0 -54 31 -80t87 -26q61 0 99.5 33.5t48.5 102.5l64 453q25 7 61 12t68 5l-67 -475q-16 -115 -87 -179t-192 -64q-72 0 -126.5 25zM394 881q14 3 37 5t43 2
q23 0 46 -3t36 -7q-41 -52 -98.5 -84.5t-118.5 -32.5h-21z" />
    <glyph glyph-name="Ubreve" unicode="&#x16c;" horiz-adv-x="643" 
d="M171.5 8q-54.5 25 -84 71.5t-29.5 111.5q0 22 3 44l63 449q25 7 61.5 12t68.5 5l-67 -471q-2 -20 -2 -29q0 -54 31 -80t87 -26q61 0 99.5 33.5t48.5 102.5l64 453q25 7 61 12t68 5l-67 -475q-16 -115 -87 -179t-192 -64q-72 0 -126.5 25zM313 775.5q-34 17.5 -50.5 46.5
t-17.5 63q21 2 45.5 4t45.5 2q3 -26 18.5 -39.5t45.5 -13.5t48.5 13.5t28.5 39.5q20 0 44 -1.5t44 -4.5q-15 -58 -54 -92.5t-113 -34.5q-51 0 -85 17.5z" />
    <glyph glyph-name="Ucircumflex" unicode="&#xdb;" horiz-adv-x="643" 
d="M171.5 8q-54.5 25 -84 71.5t-29.5 111.5q0 22 3 44l63 449q25 7 61.5 12t68.5 5l-67 -471q-2 -20 -2 -29q0 -54 31 -80t87 -26q61 0 99.5 33.5t48.5 102.5l64 453q25 7 61 12t68 5l-67 -475q-16 -115 -87 -179t-192 -64q-72 0 -126.5 25zM347 888q36 9 78 9t75 -9
l74 -127h-37q-40 0 -68.5 16.5t-52.5 50.5q-37 -35 -70.5 -51t-72.5 -16h-35z" />
    <glyph glyph-name="Udieresis" unicode="&#xdc;" horiz-adv-x="643" 
d="M171.5 8q-54.5 25 -84 71.5t-29.5 111.5q0 22 3 44l63 449q25 7 61.5 12t68.5 5l-67 -471q-2 -20 -2 -29q0 -54 31 -80t87 -26q61 0 99.5 33.5t48.5 102.5l64 453q25 7 61 12t68 5l-67 -475q-16 -115 -87 -179t-192 -64q-72 0 -126.5 25zM253.5 777q-19.5 20 -19.5 51
t19.5 50.5t50.5 19.5q30 0 50 -19.5t20 -50.5t-20 -51t-50 -20q-31 0 -50.5 20zM459.5 777q-19.5 20 -19.5 51q0 30 19.5 50t50.5 20q30 0 49.5 -20t19.5 -50q0 -31 -19.5 -51t-49.5 -20q-31 0 -50.5 20z" />
    <glyph glyph-name="Ugrave" unicode="&#xd9;" horiz-adv-x="643" 
d="M171.5 8q-54.5 25 -84 71.5t-29.5 111.5q0 22 3 44l63 449q25 7 61.5 12t68.5 5l-67 -471q-2 -20 -2 -29q0 -54 31 -80t87 -26q61 0 99.5 33.5t48.5 102.5l64 453q25 7 61 12t68 5l-67 -475q-16 -115 -87 -179t-192 -64q-72 0 -126.5 25zM472 761q-61 0 -119 32.5
t-99 84.5q13 4 36.5 7t46.5 3q20 0 42.5 -2t36.5 -5l77 -120h-21z" />
    <glyph glyph-name="Uhungarumlaut" unicode="&#x170;" horiz-adv-x="643" 
d="M171.5 8q-54.5 25 -84 71.5t-29.5 111.5q0 22 3 44l63 449q25 7 61.5 12t68.5 5l-67 -471q-2 -20 -2 -29q0 -54 31 -80t87 -26q61 0 99.5 33.5t48.5 102.5l64 453q25 7 61 12t68 5l-67 -475q-16 -115 -87 -179t-192 -64q-72 0 -126.5 25zM325 882q32 6 77 6q38 0 59 -3
q-15 -33 -48.5 -62t-75 -46t-80.5 -17h-13zM496 882q30 6 77 6q38 0 59 -3q-15 -33 -48.5 -62t-75 -46t-80.5 -17h-13z" />
    <glyph glyph-name="Umacron" unicode="&#x16a;" horiz-adv-x="643" 
d="M171.5 8q-54.5 25 -84 71.5t-29.5 111.5q0 22 3 44l63 449q25 7 61.5 12t68.5 5l-67 -471q-2 -20 -2 -29q0 -54 31 -80t87 -26q61 0 99.5 33.5t48.5 102.5l64 453q25 7 61 12t68 5l-67 -475q-16 -115 -87 -179t-192 -64q-72 0 -126.5 25zM265.5 823.5q5.5 20.5 14.5 47.5
h277q-9 -44 -25 -92h-276q4 24 9.5 44.5z" />
    <glyph glyph-name="Uogonek" unicode="&#x172;" horiz-adv-x="643" 
d="M576 696q36 5 68 5l-67 -475q-12 -86 -55 -144.5t-116 -82.5q-23 -17 -37.5 -42t-14.5 -48q0 -37 41 -37q12 0 24 3.5t21 6.5q-6 -37 -22 -84q-22 -9 -62 -9q-48 0 -76.5 24.5t-28.5 72.5q0 52 46 97q-72 0 -126 25t-83.5 71.5t-29.5 111.5q0 22 3 44l63 449
q25 7 61.5 12t68.5 5l-67 -471q-2 -20 -2 -29q0 -54 31 -80t87 -26q61 0 99.5 33.5t48.5 102.5l64 453q25 7 61 12z" />
    <glyph glyph-name="Uring" unicode="&#x16e;" horiz-adv-x="643" 
d="M171.5 8q-54.5 25 -84 71.5t-29.5 111.5q0 22 3 44l63 449q25 7 61.5 12t68.5 5l-67 -471q-2 -20 -2 -29q0 -54 31 -80t87 -26q61 0 99.5 33.5t48.5 102.5l64 453q25 7 61 12t68 5l-67 -475q-16 -115 -87 -179t-192 -64q-72 0 -126.5 25zM347.5 755.5
q-27.5 14.5 -43.5 39.5t-16 57q0 31 15.5 56t43 39.5t62.5 14.5t62.5 -14t43 -39t15.5 -57t-16 -57t-43.5 -39.5t-61.5 -14.5t-61.5 14.5zM443.5 818q13.5 13 13.5 34q0 20 -13.5 33t-34.5 13q-22 0 -35 -13t-13 -33q0 -21 13 -34t35 -13q21 0 34.5 13z" />
    <glyph glyph-name="Utilde" unicode="&#x168;" horiz-adv-x="643" 
d="M171.5 8q-54.5 25 -84 71.5t-29.5 111.5q0 22 3 44l63 449q25 7 61.5 12t68.5 5l-67 -471q-2 -20 -2 -29q0 -54 31 -80t87 -26q61 0 99.5 33.5t48.5 102.5l64 453q25 7 61 12t68 5l-67 -475q-16 -115 -87 -179t-192 -64q-72 0 -126.5 25zM436.5 754q-20.5 9 -48.5 26
q-14 9 -27.5 15.5t-20.5 6.5q-9 0 -12.5 -6t-5.5 -20l-4 -29h-84l7 52q7 46 28.5 68t57.5 22q23 0 45.5 -10t51.5 -27q3 -2 13.5 -7.5t17.5 -8.5t11 -3q17 0 20 24l3 30h84l-7 -54q-7 -46 -29 -67t-60 -21q-20 0 -40.5 9z" />
    <glyph glyph-name="V" unicode="V" horiz-adv-x="581" 
d="M635 692l-305 -692h-146l-114 692h134l68 -560l230 560h133z" />
    <glyph glyph-name="W" unicode="W" horiz-adv-x="923" 
d="M967 692l-276 -692h-146l-47 492l-186 -492h-148l-84 692h134l43 -557l202 557h129l48 -560l198 560h133z" />
    <glyph glyph-name="Wacute" unicode="&#x1e82;" horiz-adv-x="923" 
d="M967 692l-276 -692h-146l-47 492l-186 -492h-148l-84 692h134l43 -557l202 557h129l48 -560l198 560h133zM531 881q14 3 37 5t43 2q23 0 46 -3t36 -7q-41 -52 -98.5 -84.5t-118.5 -32.5h-21z" />
    <glyph glyph-name="Wcircumflex" unicode="&#x174;" horiz-adv-x="923" 
d="M967 692l-276 -692h-146l-47 492l-186 -492h-148l-84 692h134l43 -557l202 557h129l48 -560l198 560h133zM484 888q36 9 78 9t75 -9l74 -127h-37q-40 0 -68.5 16.5t-52.5 50.5q-37 -35 -70.5 -51t-72.5 -16h-35z" />
    <glyph glyph-name="Wdieresis" unicode="&#x1e84;" horiz-adv-x="923" 
d="M967 692l-276 -692h-146l-47 492l-186 -492h-148l-84 692h134l43 -557l202 557h129l48 -560l198 560h133zM390.5 777q-19.5 20 -19.5 51t19.5 50.5t50.5 19.5q30 0 50 -19.5t20 -50.5t-20 -51t-50 -20q-31 0 -50.5 20zM596.5 777q-19.5 20 -19.5 51q0 30 19.5 50t50.5 20
q30 0 49.5 -20t19.5 -50q0 -31 -19.5 -51t-49.5 -20q-31 0 -50.5 20z" />
    <glyph glyph-name="Wgrave" unicode="&#x1e80;" horiz-adv-x="923" 
d="M967 692l-276 -692h-146l-47 492l-186 -492h-148l-84 692h134l43 -557l202 557h129l48 -560l198 560h133zM610 761q-61 0 -119 32.5t-99 84.5q13 4 36.5 7t46.5 3q20 0 42.5 -2t36.5 -5l77 -120h-21z" />
    <glyph glyph-name="X" unicode="X" horiz-adv-x="572" 
d="M368 358l171 -358h-137l-112 250l-180 -250h-147l275 360l-157 332h136l98 -227l163 227h144z" />
    <glyph glyph-name="Y" unicode="Y" horiz-adv-x="541" 
d="M339 281l-39 -281h-128l40 284l-162 408h135l105 -296l186 296h139z" />
    <glyph glyph-name="Yacute" unicode="&#xdd;" horiz-adv-x="541" 
d="M339 281l-39 -281h-128l40 284l-162 408h135l105 -296l186 296h139zM341 881q14 3 37 5t43 2q23 0 46 -3t36 -7q-41 -52 -98.5 -84.5t-118.5 -32.5h-21z" />
    <glyph glyph-name="Ycircumflex" unicode="&#x176;" horiz-adv-x="541" 
d="M339 281l-39 -281h-128l40 284l-162 408h135l105 -296l186 296h139zM294 888q36 9 78 9t75 -9l74 -127h-37q-40 0 -68.5 16.5t-52.5 50.5q-37 -35 -70.5 -51t-72.5 -16h-35z" />
    <glyph glyph-name="Ydieresis" unicode="&#x178;" horiz-adv-x="541" 
d="M339 281l-39 -281h-128l40 284l-162 408h135l105 -296l186 296h139zM199.5 777q-19.5 20 -19.5 51t19.5 50.5t50.5 19.5q30 0 50 -19.5t20 -50.5t-20 -51t-50 -20q-31 0 -50.5 20zM405.5 777q-19.5 20 -19.5 51q0 30 19.5 50t50.5 20q30 0 49.5 -20t19.5 -50
q0 -31 -19.5 -51t-49.5 -20q-31 0 -50.5 20z" />
    <glyph glyph-name="Ygrave" unicode="&#x1ef2;" horiz-adv-x="541" 
d="M339 281l-39 -281h-128l40 284l-162 408h135l105 -296l186 296h139zM419 761q-61 0 -119 32.5t-99 84.5q13 4 36.5 7t46.5 3q20 0 42.5 -2t36.5 -5l77 -120h-21z" />
    <glyph glyph-name="Z" unicode="Z" horiz-adv-x="526" 
d="M542 600l-363 -489h305q-4 -26 -11.5 -58t-14.5 -53h-459q5 49 17 90l365 491h-307q4 28 11 59.5t15 51.5h461q-8 -55 -19 -92z" />
    <glyph glyph-name="Zacute" unicode="&#x179;" horiz-adv-x="526" 
d="M542 600l-363 -489h305q-4 -26 -11.5 -58t-14.5 -53h-459q5 49 17 90l365 491h-307q4 28 11 59.5t15 51.5h461q-8 -55 -19 -92zM332 881q14 3 37 5t43 2q23 0 46 -3t36 -7q-41 -52 -98.5 -84.5t-118.5 -32.5h-21z" />
    <glyph glyph-name="Zcaron" unicode="&#x17d;" horiz-adv-x="526" 
d="M542 600l-363 -489h305q-4 -26 -11.5 -58t-14.5 -53h-459q5 49 17 90l365 491h-307q4 28 11 59.5t15 51.5h461q-8 -55 -19 -92zM403 768q-36 -9 -79 -9q-41 0 -74 9l-75 127h38q40 0 68.5 -16.5t52.5 -50.5q36 35 69.5 51t73.5 16h35z" />
    <glyph glyph-name="Zdotaccent" unicode="&#x17b;" horiz-adv-x="526" 
d="M542 600l-363 -489h305q-4 -26 -11.5 -58t-14.5 -53h-459q5 49 17 90l365 491h-307q4 28 11 59.5t15 51.5h461q-8 -55 -19 -92zM292 773.5q-20 20.5 -20 52.5t20 52t53 20q31 0 51 -20t20 -52q0 -33 -20 -53t-51 -20q-33 0 -53 20.5z" />
    <glyph glyph-name="a" unicode="a" horiz-adv-x="539" 
d="M509 483l-68 -483h-114l1 65q-22 -38 -54 -57.5t-77 -19.5q-50 0 -87.5 21t-58 64t-20.5 106q0 100 31.5 174.5t95.5 116t159 41.5q103 0 192 -28zM333 128l39 275q-28 5 -60 5q-54 0 -88 -29t-49.5 -77t-15.5 -107q0 -53 19.5 -78.5t62.5 -25.5q50 0 92 37z" />
    <glyph glyph-name="aacute" unicode="&#xe1;" horiz-adv-x="539" 
d="M509 483l-68 -483h-114l1 65q-22 -38 -54 -57.5t-77 -19.5q-50 0 -87.5 21t-58 64t-20.5 106q0 100 31.5 174.5t95.5 116t159 41.5q103 0 192 -28zM333 128l39 275q-28 5 -60 5q-54 0 -88 -29t-49.5 -77t-15.5 -107q0 -53 19.5 -78.5t62.5 -25.5q50 0 92 37zM293 719
q30 10 71.5 15.5t73.5 5.5q-14 -43 -45 -80.5t-71.5 -60.5t-83.5 -26h-3z" />
    <glyph glyph-name="abreve" unicode="&#x103;" horiz-adv-x="539" 
d="M509 483l-68 -483h-114l1 65q-22 -38 -54 -57.5t-77 -19.5q-50 0 -87.5 21t-58 64t-20.5 106q0 100 31.5 174.5t95.5 116t159 41.5q103 0 192 -28zM333 128l39 275q-28 5 -60 5q-54 0 -88 -29t-49.5 -77t-15.5 -107q0 -53 19.5 -78.5t62.5 -25.5q50 0 92 37zM239.5 592.5
q-32.5 19.5 -47.5 51.5t-16 70q19 4 43 6.5t46 2.5q3 -31 16.5 -48.5t42.5 -17.5q55 0 77 66q22 0 46 -2.5t41 -6.5q-18 -63 -56.5 -102t-109.5 -39q-50 0 -82.5 19.5z" />
    <glyph glyph-name="acircumflex" unicode="&#xe2;" horiz-adv-x="539" 
d="M509 483l-68 -483h-114l1 65q-22 -38 -54 -57.5t-77 -19.5q-50 0 -87.5 21t-58 64t-20.5 106q0 100 31.5 174.5t95.5 116t159 41.5q103 0 192 -28zM333 128l39 275q-28 5 -60 5q-54 0 -88 -29t-49.5 -77t-15.5 -107q0 -53 19.5 -78.5t62.5 -25.5q50 0 92 37zM475 580h-61
q-20 9 -35.5 23t-43.5 51q-38 -37 -60.5 -51.5t-45.5 -22.5h-60l112 150q24 5 62 5t59 -5z" />
    <glyph glyph-name="adieresis" unicode="&#xe4;" horiz-adv-x="539" 
d="M509 483l-68 -483h-114l1 65q-22 -38 -54 -57.5t-77 -19.5q-50 0 -87.5 21t-58 64t-20.5 106q0 100 31.5 174.5t95.5 116t159 41.5q103 0 192 -28zM333 128l39 275q-28 5 -60 5q-54 0 -88 -29t-49.5 -77t-15.5 -107q0 -53 19.5 -78.5t62.5 -25.5q50 0 92 37zM185.5 607
q-19.5 20 -19.5 50q0 31 19 50.5t50 19.5q30 0 49.5 -19.5t19.5 -50.5t-19.5 -50.5t-49.5 -19.5t-49.5 20zM380.5 606q-19.5 20 -19.5 50q0 31 19.5 51t50.5 20q29 0 48.5 -20t19.5 -51q0 -30 -19.5 -50t-48.5 -20q-31 0 -50.5 20z" />
    <glyph glyph-name="agrave" unicode="&#xe0;" horiz-adv-x="539" 
d="M509 483l-68 -483h-114l1 65q-22 -38 -54 -57.5t-77 -19.5q-50 0 -87.5 21t-58 64t-20.5 106q0 100 31.5 174.5t95.5 116t159 41.5q103 0 192 -28zM333 128l39 275q-28 5 -60 5q-54 0 -88 -29t-49.5 -77t-15.5 -107q0 -53 19.5 -78.5t62.5 -25.5q50 0 92 37zM392 573
q-43 3 -83.5 26t-71.5 60.5t-45 80.5q32 0 73.5 -5.5t71.5 -15.5l57 -146h-2z" />
    <glyph glyph-name="amacron" unicode="&#x101;" horiz-adv-x="539" 
d="M509 483l-68 -483h-114l1 65q-22 -38 -54 -57.5t-77 -19.5q-50 0 -87.5 21t-58 64t-20.5 106q0 100 31.5 174.5t95.5 116t159 41.5q103 0 192 -28zM333 128l39 275q-28 5 -60 5q-54 0 -88 -29t-49.5 -77t-15.5 -107q0 -53 19.5 -78.5t62.5 -25.5q50 0 92 37zM206 701h276
q-5 -27 -10 -47.5t-14 -45.5h-276q7 46 24 93z" />
    <glyph glyph-name="aogonek" unicode="&#x105;" horiz-adv-x="539" 
d="M362.5 -44q-19.5 -29 -19.5 -57q0 -37 41 -37q12 0 24 3.5t21 6.5q-6 -37 -22 -84q-22 -9 -62 -9q-48 0 -76.5 24.5t-28.5 72.5q0 35 22 68.5t65 59.5l1 61q-22 -38 -54 -57.5t-77 -19.5q-50 0 -87.5 21t-58 64t-20.5 106q0 100 31.5 174.5t95.5 116t159 41.5
q103 0 192 -28l-68 -483h-29q-30 -15 -49.5 -44zM333 128l39 275q-28 5 -60 5q-54 0 -88 -29t-49.5 -77t-15.5 -107q0 -53 19.5 -78.5t62.5 -25.5q50 0 92 37z" />
    <glyph glyph-name="aring" unicode="&#xe5;" horiz-adv-x="539" 
d="M509 483l-68 -483h-114l1 65q-22 -38 -54 -57.5t-77 -19.5q-50 0 -87.5 21t-58 64t-20.5 106q0 100 31.5 174.5t95.5 116t159 41.5q103 0 192 -28zM333 128l39 275q-28 5 -60 5q-54 0 -88 -29t-49.5 -77t-15.5 -107q0 -53 19.5 -78.5t62.5 -25.5q50 0 92 37zM271.5 574
q-27.5 14 -43.5 40t-16 59q0 34 16 60t43.5 40t61.5 14t61.5 -14t43 -40t15.5 -60q0 -33 -15.5 -59t-43 -40t-61.5 -14t-61.5 14zM366.5 637q12.5 14 12.5 36q0 23 -12.5 37t-33.5 14q-22 0 -34.5 -14t-12.5 -37q0 -22 13 -36t34 -14t33.5 14z" />
    <glyph glyph-name="aringacute" unicode="&#x1fb;" horiz-adv-x="539" 
d="M509 483l-68 -483h-114l1 65q-22 -38 -54 -57.5t-77 -19.5q-50 0 -87.5 21t-58 64t-20.5 106q0 100 31.5 174.5t95.5 116t159 41.5q103 0 192 -28zM333 128l39 275q-28 5 -60 5q-54 0 -88 -29t-49.5 -77t-15.5 -107q0 -53 19.5 -78.5t62.5 -25.5q50 0 92 37zM271.5 574
q-27.5 14 -43.5 40t-16 59q0 34 16 60t43.5 40t61.5 14t61.5 -14t43 -40t15.5 -60q0 -33 -15.5 -59t-43 -40t-61.5 -14t-61.5 14zM366.5 637q12.5 14 12.5 36q0 23 -12.5 37t-33.5 14q-22 0 -34.5 -14t-12.5 -37q0 -22 13 -36t34 -14t33.5 14zM332 978q30 10 71.5 15.5
t73.5 5.5q-14 -43 -45 -80.5t-71.5 -60.5t-83.5 -26h-3z" />
    <glyph glyph-name="atilde" unicode="&#xe3;" horiz-adv-x="539" 
d="M509 483l-68 -483h-114l1 65q-22 -38 -54 -57.5t-77 -19.5q-50 0 -87.5 21t-58 64t-20.5 106q0 100 31.5 174.5t95.5 116t159 41.5q103 0 192 -28zM333 128l39 275q-28 5 -60 5q-54 0 -88 -29t-49.5 -77t-15.5 -107q0 -53 19.5 -78.5t62.5 -25.5q50 0 92 37zM355.5 593.5
q-17.5 9.5 -37.5 25.5q-11 8 -20.5 14t-15.5 6q-8 0 -12.5 -5.5t-6.5 -18.5l-4 -29h-70l10 67q6 35 23.5 51t46.5 16q19 0 36.5 -9.5t39.5 -26.5q10 -8 19 -14t15 -6q9 0 13 5.5t6 19.5l4 29h70l-10 -67q-5 -35 -22.5 -51t-47.5 -16q-19 0 -36.5 9.5z" />
    <glyph glyph-name="ae" unicode="&#xe6;" horiz-adv-x="789" 
d="M433 212v-7q0 -44 13 -69t39.5 -36t70.5 -11q76 0 163 35q-6 -54 -26 -107q-73 -29 -156 -29q-132 0 -183 76q-34 -39 -76.5 -57.5t-100.5 -18.5q-45 0 -81 15.5t-56.5 46t-20.5 74.5q0 67 37.5 105.5t101.5 55t159 21.5h11q6 27 6 46q0 33 -18 46t-61 13
q-45 0 -86.5 -8.5t-86.5 -23.5q0 21 4 49t11 52q38 14 85 22.5t91 8.5q104 0 140 -53q63 53 154 53q64 0 107.5 -23t65 -63t21.5 -92q0 -28 -6 -62.5t-14 -58.5h-308zM485.5 381.5q-28.5 -29.5 -41.5 -79.5h192q3 20 3 34q0 37 -19.5 56t-58.5 19q-47 0 -75.5 -29.5z
M325 135q-6 30 -6 64v22h-6q-60 -4 -97 -12t-57 -25t-20 -47q0 -25 16.5 -39t46.5 -14q74 0 123 51z" />
    <glyph glyph-name="aeacute" unicode="&#x1fd;" horiz-adv-x="789" 
d="M433 212v-7q0 -44 13 -69t39.5 -36t70.5 -11q76 0 163 35q-6 -54 -26 -107q-73 -29 -156 -29q-132 0 -183 76q-34 -39 -76.5 -57.5t-100.5 -18.5q-45 0 -81 15.5t-56.5 46t-20.5 74.5q0 67 37.5 105.5t101.5 55t159 21.5h11q6 27 6 46q0 33 -18 46t-61 13
q-45 0 -86.5 -8.5t-86.5 -23.5q0 21 4 49t11 52q38 14 85 22.5t91 8.5q104 0 140 -53q63 53 154 53q64 0 107.5 -23t65 -63t21.5 -92q0 -28 -6 -62.5t-14 -58.5h-308zM485.5 381.5q-28.5 -29.5 -41.5 -79.5h192q3 20 3 34q0 37 -19.5 56t-58.5 19q-47 0 -75.5 -29.5z
M325 135q-6 30 -6 64v22h-6q-60 -4 -97 -12t-57 -25t-20 -47q0 -25 16.5 -39t46.5 -14q74 0 123 51zM416 719q30 10 71.5 15.5t73.5 5.5q-14 -43 -45 -80.5t-71.5 -60.5t-83.5 -26h-3z" />
    <glyph glyph-name="b" unicode="b" horiz-adv-x="539" 
d="M428.5 490.5q37.5 -21.5 58.5 -64.5t21 -106q0 -100 -31.5 -174.5t-96 -116t-159.5 -41.5q-104 0 -191 28l95 676q65 18 128 18l-38 -267q23 34 54 51.5t73 17.5q49 0 86.5 -21.5zM314 120.5q34 29.5 49.5 77.5t15.5 106q0 54 -19 79t-63 25q-26 0 -49.5 -9.5
t-41.5 -25.5l-39 -277q28 -5 60 -5q53 0 87 29.5z" />
    <glyph glyph-name="c" unicode="c" horiz-adv-x="423" 
d="M125.5 11.5q-46.5 23.5 -71.5 70.5t-25 115q0 93 31.5 163.5t94 110.5t150.5 40q68 0 112 -22q-2 -24 -8 -52.5t-13 -47.5q-37 16 -82 16q-52 0 -87.5 -25.5t-53 -70.5t-17.5 -103q0 -57 27.5 -86t77.5 -29q24 0 52 6t52 16q-3 -28 -9.5 -57t-15.5 -53q-20 -7 -47.5 -11
t-56.5 -4q-64 0 -110.5 23.5z" />
    <glyph glyph-name="cacute" unicode="&#x107;" horiz-adv-x="423" 
d="M125.5 11.5q-46.5 23.5 -71.5 70.5t-25 115q0 93 31.5 163.5t94 110.5t150.5 40q68 0 112 -22q-2 -24 -8 -52.5t-13 -47.5q-37 16 -82 16q-52 0 -87.5 -25.5t-53 -70.5t-17.5 -103q0 -57 27.5 -86t77.5 -29q24 0 52 6t52 16q-3 -28 -9.5 -57t-15.5 -53q-20 -7 -47.5 -11
t-56.5 -4q-64 0 -110.5 23.5zM271 719q30 10 71.5 15.5t73.5 5.5q-14 -43 -45 -80.5t-71.5 -60.5t-83.5 -26h-3z" />
    <glyph glyph-name="ccaron" unicode="&#x10d;" horiz-adv-x="423" 
d="M125.5 11.5q-46.5 23.5 -71.5 70.5t-25 115q0 93 31.5 163.5t94 110.5t150.5 40q68 0 112 -22q-2 -24 -8 -52.5t-13 -47.5q-37 16 -82 16q-52 0 -87.5 -25.5t-53 -70.5t-17.5 -103q0 -57 27.5 -86t77.5 -29q24 0 52 6t52 16q-3 -28 -9.5 -57t-15.5 -53q-20 -7 -47.5 -11
t-56.5 -4q-64 0 -110.5 23.5zM462 733l-112 -150q-28 -6 -62 -6q-15 0 -30.5 1.5t-28.5 3.5l-73 151h61q14 -7 23.5 -14t23 -21t32.5 -40q39 37 61 52.5t45 22.5h60z" />
    <glyph glyph-name="ccedilla" unicode="&#xe7;" horiz-adv-x="423" 
d="M226.5 379.5q-35.5 -25.5 -53 -70.5t-17.5 -103q0 -57 27.5 -86t77.5 -29q24 0 52 6t52 16q-3 -28 -9.5 -57t-15.5 -53q-18 -6 -42 -10t-50 -5l-16 -34q33 -10 49 -29t16 -48q0 -47 -32 -72t-84 -25q-20 0 -41 4t-37 10q6 36 20 61q25 -9 48 -9q22 0 33.5 8t11.5 22
q0 16 -18 24t-57 9l38 84q-71 15 -110.5 66.5t-39.5 137.5q0 93 31.5 163.5t94 110.5t150.5 40q68 0 112 -22q-2 -24 -8 -52.5t-13 -47.5q-37 16 -82 16q-52 0 -87.5 -25.5z" />
    <glyph glyph-name="ccircumflex" unicode="&#x109;" horiz-adv-x="423" 
d="M253.5 602.5q-21.5 -14.5 -44.5 -22.5h-57l108 150q23 5 59 5q37 0 56 -5l70 -150h-58q-19 10 -34.5 24t-41.5 50q-36 -37 -57.5 -51.5zM60.5 360.5q31.5 70.5 94 110.5t150.5 40q68 0 112 -22q-2 -24 -8 -52.5t-13 -47.5q-37 16 -82 16q-52 0 -87.5 -25.5t-53 -70.5
t-17.5 -103q0 -57 27.5 -86t77.5 -29q24 0 52 6t52 16q-3 -28 -9.5 -57t-15.5 -53q-20 -7 -47.5 -11t-56.5 -4q-64 0 -110.5 23.5t-71.5 70.5t-25 115q0 93 31.5 163.5z" />
    <glyph glyph-name="cdotaccent" unicode="&#x10b;" horiz-adv-x="423" 
d="M125.5 11.5q-46.5 23.5 -71.5 70.5t-25 115q0 93 31.5 163.5t94 110.5t150.5 40q68 0 112 -22q-2 -24 -8 -52.5t-13 -47.5q-37 16 -82 16q-52 0 -87.5 -25.5t-53 -70.5t-17.5 -103q0 -57 27.5 -86t77.5 -29q24 0 52 6t52 16q-3 -28 -9.5 -57t-15.5 -53q-20 -7 -47.5 -11
t-56.5 -4q-64 0 -110.5 23.5zM256.5 603q-21.5 21 -21.5 54t21.5 54t53.5 21t53 -21t21 -54q0 -32 -21 -53.5t-53 -21.5t-53.5 21z" />
    <glyph glyph-name="d" unicode="d" horiz-adv-x="539" 
d="M541 710l-99 -710h-117l2 63q-22 -37 -54 -56t-76 -19q-50 0 -87.5 21t-58 64t-20.5 106q0 100 31.5 174.5t95.5 116t159 41.5q36 0 69 -3l26 184q65 18 129 18zM333 127l38 276q-28 5 -59 5q-54 0 -88 -29t-49.5 -77t-15.5 -107q0 -53 19.5 -78.5t62.5 -25.5q49 0 92 36
z" />
    <glyph glyph-name="eth" unicode="&#xf0;" horiz-adv-x="531" 
d="M421 599q40 -49 60 -112.5t20 -134.5q0 -104 -29 -186t-89 -130t-150 -48q-62 0 -108 24t-70.5 69.5t-24.5 107.5q0 71 27.5 131.5t80.5 96.5t124 36q39 0 67.5 -12.5t44.5 -35.5q-12 78 -60 133l-138 -78q2 19 8.5 45t13.5 46l59 34q-42 26 -95 41q13 24 36 49t42 35
q73 -17 130 -61l137 77q-2 -20 -8 -45t-13 -45zM342.5 158.5q33.5 67.5 36.5 166.5q-40 26 -94 26q-68 0 -98.5 -43.5t-30.5 -119.5q0 -46 21.5 -71.5t63.5 -25.5q68 0 101.5 67.5z" />
    <glyph glyph-name="dcaron" unicode="&#x10f;" horiz-adv-x="539" 
d="M541 710l-99 -710h-117l2 63q-22 -37 -54 -56t-76 -19q-50 0 -87.5 21t-58 64t-20.5 106q0 100 31.5 174.5t95.5 116t159 41.5q36 0 69 -3l26 184q65 18 129 18zM333 127l38 276q-28 5 -59 5q-54 0 -88 -29t-49.5 -77t-15.5 -107q0 -53 19.5 -78.5t62.5 -25.5q49 0 92 36
zM588 605.5q7 38.5 14 86.5q36 10 62.5 14t58.5 4q-13 -60 -46 -108.5t-81 -78.5h-26q11 44 18 82.5z" />
    <glyph glyph-name="dcroat" unicode="&#x111;" horiz-adv-x="539" 
d="M584 561h-64l-78 -561h-117l2 63q-22 -37 -54 -56t-76 -19q-50 0 -87.5 21t-58 64t-20.5 106q0 100 31.5 174.5t95.5 116t159 41.5q36 0 69 -3l8 53h-154q5 46 22 80h143l7 51q65 18 129 18l-10 -69h74q-3 -37 -21 -80zM333 127l38 276q-28 5 -59 5q-54 0 -88 -29
t-49.5 -77t-15.5 -107q0 -53 19.5 -78.5t62.5 -25.5q49 0 92 36z" />
    <glyph glyph-name="e" unicode="e" horiz-adv-x="509" 
d="M474.5 262.5q-6.5 -37.5 -14.5 -61.5h-308q0 -43 13.5 -67t40 -34.5t69.5 -10.5q77 0 164 35q-8 -56 -27 -107q-71 -29 -156 -29q-113 0 -169.5 55t-56.5 156q0 89 29.5 160t87.5 111.5t140 40.5q64 0 107.5 -24t65 -65.5t21.5 -95.5q0 -26 -6.5 -63.5zM202.5 379
q-29.5 -32 -41.5 -85h194q4 20 4 39q0 37 -20 57.5t-59 20.5q-48 0 -77.5 -32z" />
    <glyph glyph-name="eacute" unicode="&#xe9;" horiz-adv-x="509" 
d="M474.5 262.5q-6.5 -37.5 -14.5 -61.5h-308q0 -43 13.5 -67t40 -34.5t69.5 -10.5q77 0 164 35q-8 -56 -27 -107q-71 -29 -156 -29q-113 0 -169.5 55t-56.5 156q0 89 29.5 160t87.5 111.5t140 40.5q64 0 107.5 -24t65 -65.5t21.5 -95.5q0 -26 -6.5 -63.5zM202.5 379
q-29.5 -32 -41.5 -85h194q4 20 4 39q0 37 -20 57.5t-59 20.5q-48 0 -77.5 -32zM277 719q30 10 71.5 15.5t73.5 5.5q-14 -43 -45 -80.5t-71.5 -60.5t-83.5 -26h-3z" />
    <glyph glyph-name="ebreve" unicode="&#x115;" horiz-adv-x="509" 
d="M474.5 262.5q-6.5 -37.5 -14.5 -61.5h-308q0 -43 13.5 -67t40 -34.5t69.5 -10.5q77 0 164 35q-8 -56 -27 -107q-71 -29 -156 -29q-113 0 -169.5 55t-56.5 156q0 89 29.5 160t87.5 111.5t140 40.5q64 0 107.5 -24t65 -65.5t21.5 -95.5q0 -26 -6.5 -63.5zM202.5 379
q-29.5 -32 -41.5 -85h194q4 20 4 39q0 37 -20 57.5t-59 20.5q-48 0 -77.5 -32zM222.5 592.5q-32.5 19.5 -47.5 51.5t-16 70q19 4 43 6.5t46 2.5q3 -31 16.5 -48.5t42.5 -17.5q55 0 77 66q22 0 46 -2.5t41 -6.5q-18 -63 -56.5 -102t-109.5 -39q-50 0 -82.5 19.5z" />
    <glyph glyph-name="ecaron" unicode="&#x11b;" horiz-adv-x="509" 
d="M474.5 262.5q-6.5 -37.5 -14.5 -61.5h-308q0 -43 13.5 -67t40 -34.5t69.5 -10.5q77 0 164 35q-8 -56 -27 -107q-71 -29 -156 -29q-113 0 -169.5 55t-56.5 156q0 89 29.5 160t87.5 111.5t140 40.5q64 0 107.5 -24t65 -65.5t21.5 -95.5q0 -26 -6.5 -63.5zM202.5 379
q-29.5 -32 -41.5 -85h194q4 20 4 39q0 37 -20 57.5t-59 20.5q-48 0 -77.5 -32zM467 733l-112 -150q-28 -6 -62 -6q-15 0 -30.5 1.5t-28.5 3.5l-73 151h61q14 -7 23.5 -14t23 -21t32.5 -40q39 37 61 52.5t45 22.5h60z" />
    <glyph glyph-name="ecircumflex" unicode="&#xea;" horiz-adv-x="509" 
d="M474.5 262.5q-6.5 -37.5 -14.5 -61.5h-308q0 -43 13.5 -67t40 -34.5t69.5 -10.5q77 0 164 35q-8 -56 -27 -107q-71 -29 -156 -29q-113 0 -169.5 55t-56.5 156q0 89 29.5 160t87.5 111.5t140 40.5q64 0 107.5 -24t65 -65.5t21.5 -95.5q0 -26 -6.5 -63.5zM202.5 379
q-29.5 -32 -41.5 -85h194q4 20 4 39q0 37 -20 57.5t-59 20.5q-48 0 -77.5 -32zM458 580h-61q-20 9 -35.5 23t-43.5 51q-38 -37 -60.5 -51.5t-45.5 -22.5h-60l112 150q24 5 62 5t59 -5z" />
    <glyph glyph-name="edieresis" unicode="&#xeb;" horiz-adv-x="509" 
d="M474.5 262.5q-6.5 -37.5 -14.5 -61.5h-308q0 -43 13.5 -67t40 -34.5t69.5 -10.5q77 0 164 35q-8 -56 -27 -107q-71 -29 -156 -29q-113 0 -169.5 55t-56.5 156q0 89 29.5 160t87.5 111.5t140 40.5q64 0 107.5 -24t65 -65.5t21.5 -95.5q0 -26 -6.5 -63.5zM202.5 379
q-29.5 -32 -41.5 -85h194q4 20 4 39q0 37 -20 57.5t-59 20.5q-48 0 -77.5 -32zM168.5 607q-19.5 20 -19.5 50q0 31 19 50.5t50 19.5q30 0 49.5 -19.5t19.5 -50.5t-19.5 -50.5t-49.5 -19.5t-49.5 20zM363.5 606q-19.5 20 -19.5 50q0 31 19.5 51t50.5 20q29 0 48.5 -20
t19.5 -51q0 -30 -19.5 -50t-48.5 -20q-31 0 -50.5 20z" />
    <glyph glyph-name="edotaccent" unicode="&#x117;" horiz-adv-x="509" 
d="M474.5 262.5q-6.5 -37.5 -14.5 -61.5h-308q0 -43 13.5 -67t40 -34.5t69.5 -10.5q77 0 164 35q-8 -56 -27 -107q-71 -29 -156 -29q-113 0 -169.5 55t-56.5 156q0 89 29.5 160t87.5 111.5t140 40.5q64 0 107.5 -24t65 -65.5t21.5 -95.5q0 -26 -6.5 -63.5zM202.5 379
q-29.5 -32 -41.5 -85h194q4 20 4 39q0 37 -20 57.5t-59 20.5q-48 0 -77.5 -32zM262.5 603q-21.5 21 -21.5 54t21.5 54t53.5 21t53 -21t21 -54q0 -32 -21 -53.5t-53 -21.5t-53.5 21z" />
    <glyph glyph-name="egrave" unicode="&#xe8;" horiz-adv-x="509" 
d="M474.5 262.5q-6.5 -37.5 -14.5 -61.5h-308q0 -43 13.5 -67t40 -34.5t69.5 -10.5q77 0 164 35q-8 -56 -27 -107q-71 -29 -156 -29q-113 0 -169.5 55t-56.5 156q0 89 29.5 160t87.5 111.5t140 40.5q64 0 107.5 -24t65 -65.5t21.5 -95.5q0 -26 -6.5 -63.5zM202.5 379
q-29.5 -32 -41.5 -85h194q4 20 4 39q0 37 -20 57.5t-59 20.5q-48 0 -77.5 -32zM375 573q-43 3 -83.5 26t-71.5 60.5t-45 80.5q32 0 73.5 -5.5t71.5 -15.5l57 -146h-2z" />
    <glyph glyph-name="emacron" unicode="&#x113;" horiz-adv-x="509" 
d="M474.5 262.5q-6.5 -37.5 -14.5 -61.5h-308q0 -43 13.5 -67t40 -34.5t69.5 -10.5q77 0 164 35q-8 -56 -27 -107q-71 -29 -156 -29q-113 0 -169.5 55t-56.5 156q0 89 29.5 160t87.5 111.5t140 40.5q64 0 107.5 -24t65 -65.5t21.5 -95.5q0 -26 -6.5 -63.5zM202.5 379
q-29.5 -32 -41.5 -85h194q4 20 4 39q0 37 -20 57.5t-59 20.5q-48 0 -77.5 -32zM189 701h276q-5 -27 -10 -47.5t-14 -45.5h-276q7 46 24 93z" />
    <glyph glyph-name="eogonek" unicode="&#x119;" horiz-adv-x="509" 
d="M474.5 262.5q-6.5 -37.5 -14.5 -61.5h-308q0 -43 13.5 -67t40 -34.5t69.5 -10.5q77 0 164 35q-8 -56 -27 -107q-30 -11 -50 -16q-28 -16 -46.5 -44.5t-18.5 -54.5q0 -37 42 -37q11 0 23 3.5t21 6.5q-3 -22 -8 -41t-14 -43q-23 -9 -62 -9q-48 0 -76 24.5t-28 72.5
q0 59 60 109q-112 0 -168.5 55t-56.5 156q0 89 29.5 160t87.5 111.5t140 40.5q64 0 107.5 -24t65 -65.5t21.5 -95.5q0 -26 -6.5 -63.5zM202.5 379q-29.5 -32 -41.5 -85h194q4 20 4 39q0 37 -20 57.5t-59 20.5q-48 0 -77.5 -32z" />
    <glyph glyph-name="uni0259" unicode="&#x259;" horiz-adv-x="509" 
d="M423 456q56 -55 56 -155q0 -90 -29.5 -161t-87 -111.5t-139.5 -40.5q-64 0 -107.5 24t-65 66t-21.5 95q0 26 6.5 63t13.5 62h308q0 43 -13.5 67.5t-40 35t-69.5 10.5q-72 0 -163 -35q6 53 26 106q73 29 157 29q113 0 169 -55zM306.5 120q29.5 32 41.5 86h-193
q-4 -20 -4 -40q0 -37 19.5 -57.5t58.5 -20.5q48 0 77.5 32z" />
    <glyph glyph-name="f" unicode="f" horiz-adv-x="342" 
d="M254 588.5q-21 -19.5 -27 -62.5l-4 -27h147q-6 -40 -26 -101h-135l-56 -398h-125l74 528q13 90 62.5 136t143.5 46q52 0 96 -12q-5 -47 -25 -98q-30 8 -62 8q-42 0 -63 -19.5z" />
    <glyph glyph-name="g" unicode="g" horiz-adv-x="539" 
d="M509 483l-66 -471q-32 -236 -268 -236q-47 0 -87.5 9.5t-73.5 26.5q1 23 7 51t13 53q27 -18 61.5 -26.5t65.5 -8.5q75 0 111.5 34t45.5 101l6 42q-22 -35 -53 -52.5t-74 -17.5q-50 0 -87.5 21t-58 64t-20.5 106q0 100 31.5 174.5t95.5 116t159 41.5q103 0 192 -28z
M371 403q-28 5 -59 5q-54 0 -88 -29t-49.5 -77t-15.5 -107q0 -53 19.5 -78.5t62.5 -25.5q51 0 92 37z" />
    <glyph glyph-name="gbreve" unicode="&#x11f;" horiz-adv-x="539" 
d="M509 483l-66 -471q-32 -236 -268 -236q-47 0 -87.5 9.5t-73.5 26.5q1 23 7 51t13 53q27 -18 61.5 -26.5t65.5 -8.5q75 0 111.5 34t45.5 101l6 42q-22 -35 -53 -52.5t-74 -17.5q-50 0 -87.5 21t-58 64t-20.5 106q0 100 31.5 174.5t95.5 116t159 41.5q103 0 192 -28z
M371 403q-28 5 -59 5q-54 0 -88 -29t-49.5 -77t-15.5 -107q0 -53 19.5 -78.5t62.5 -25.5q51 0 92 37zM236.5 592.5q-32.5 19.5 -47.5 51.5t-16 70q19 4 43 6.5t46 2.5q3 -31 16.5 -48.5t42.5 -17.5q55 0 77 66q22 0 46 -2.5t41 -6.5q-18 -63 -56.5 -102t-109.5 -39
q-50 0 -82.5 19.5z" />
    <glyph glyph-name="gcircumflex" unicode="&#x11d;" horiz-adv-x="539" 
d="M509 483l-66 -471q-32 -236 -268 -236q-47 0 -87.5 9.5t-73.5 26.5q1 23 7 51t13 53q27 -18 61.5 -26.5t65.5 -8.5q75 0 111.5 34t45.5 101l6 42q-22 -35 -53 -52.5t-74 -17.5q-50 0 -87.5 21t-58 64t-20.5 106q0 100 31.5 174.5t95.5 116t159 41.5q103 0 192 -28z
M371 403q-28 5 -59 5q-54 0 -88 -29t-49.5 -77t-15.5 -107q0 -53 19.5 -78.5t62.5 -25.5q51 0 92 37zM473 580h-61q-20 9 -35.5 23t-43.5 51q-38 -37 -60.5 -51.5t-45.5 -22.5h-60l112 150q24 5 62 5t59 -5z" />
    <glyph glyph-name="uni0123" unicode="&#x123;" horiz-adv-x="539" 
d="M389.5 665.5q-7.5 -38.5 -14.5 -88.5q-35 -10 -62 -14t-59 -4q14 61 46.5 109.5t80.5 77.5h27q-11 -42 -18.5 -80.5zM509 483l-66 -471q-32 -236 -268 -236q-47 0 -87.5 9.5t-73.5 26.5q1 23 7 51t13 53q27 -18 61.5 -26.5t65.5 -8.5q75 0 111.5 34t45.5 101l6 42
q-22 -35 -53 -52.5t-74 -17.5q-50 0 -87.5 21t-58 64t-20.5 106q0 100 31.5 174.5t95.5 116t159 41.5q103 0 192 -28zM371 403q-28 5 -59 5q-54 0 -88 -29t-49.5 -77t-15.5 -107q0 -53 19.5 -78.5t62.5 -25.5q51 0 92 37z" />
    <glyph glyph-name="gdotaccent" unicode="&#x121;" horiz-adv-x="539" 
d="M509 483l-66 -471q-32 -236 -268 -236q-47 0 -87.5 9.5t-73.5 26.5q1 23 7 51t13 53q27 -18 61.5 -26.5t65.5 -8.5q75 0 111.5 34t45.5 101l6 42q-22 -35 -53 -52.5t-74 -17.5q-50 0 -87.5 21t-58 64t-20.5 106q0 100 31.5 174.5t95.5 116t159 41.5q103 0 192 -28z
M371 403q-28 5 -59 5q-54 0 -88 -29t-49.5 -77t-15.5 -107q0 -53 19.5 -78.5t62.5 -25.5q51 0 92 37zM276.5 603q-21.5 21 -21.5 54t21.5 54t53.5 21t53 -21t21 -54q0 -32 -21 -53.5t-53 -21.5t-53.5 21z" />
    <glyph glyph-name="h" unicode="h" horiz-adv-x="534" 
d="M455.5 471.5q34.5 -39.5 34.5 -107.5q0 -20 -3 -41l-45 -323h-126l44 312q3 18 3 33q0 33 -15 48t-49 15q-28 0 -53 -12.5t-42 -29.5l-51 -366h-125l97 692q63 18 127 18l-39 -281q29 40 64 61t79 21q65 0 99.5 -39.5z" />
    <glyph glyph-name="hbar" unicode="&#x127;" horiz-adv-x="546" 
d="M467 471.5q35 -39.5 35 -107.5q0 -20 -3 -41l-45 -323h-126l44 312q3 18 3 33q0 33 -15 48t-49 15q-27 0 -52 -12t-43 -29l-51 -367h-125l79 561h-70q5 44 22 80h59l7 51q63 18 127 18l-10 -69h161q-5 -44 -22 -80h-150l-18 -132q29 40 63.5 61t78.5 21q65 0 100 -39.5z
" />
    <glyph glyph-name="hcircumflex" unicode="&#x125;" horiz-adv-x="534" 
d="M455.5 471.5q34.5 -39.5 34.5 -107.5q0 -20 -3 -41l-45 -323h-126l44 312q3 18 3 33q0 33 -15 48t-49 15q-28 0 -53 -12.5t-42 -29.5l-51 -366h-125l97 692q63 18 127 18l-39 -281q29 40 64 61t79 21q65 0 99.5 -39.5zM294 888q36 9 78 9t75 -9l74 -127h-37
q-40 0 -68.5 16.5t-52.5 50.5q-37 -35 -70.5 -51t-72.5 -16h-35z" />
    <glyph glyph-name="i" unicode="i" horiz-adv-x="250" 
d="M129 603q-21 21 -21 54t21 54t54 21q32 0 52.5 -21t20.5 -54q0 -32 -21 -53.5t-52 -21.5q-33 0 -54 21zM98 499h125l-70 -499h-125z" />
    <glyph glyph-name="dotlessi" unicode="&#x131;" horiz-adv-x="250" 
d="M98 499h125l-70 -499h-125z" />
    <glyph glyph-name="iacute" unicode="&#xed;" horiz-adv-x="250" 
d="M98 499h125l-70 -499h-125zM143 719q30 10 71.5 15.5t73.5 5.5q-14 -43 -45 -80.5t-71.5 -60.5t-83.5 -26h-3z" />
    <glyph glyph-name="ibreve" unicode="&#x12d;" horiz-adv-x="250" 
d="M98 499h125l-70 -499h-125zM99.5 592.5q-29.5 18.5 -43 48.5t-11.5 66q18 4 42.5 6.5t45.5 2.5q1 -27 11 -42t34 -15q44 0 57 57q52 0 82 -9q-13 -58 -47.5 -95.5t-96.5 -37.5q-44 0 -73.5 18.5z" />
    <glyph glyph-name="icircumflex" unicode="&#xee;" horiz-adv-x="250" 
d="M98 499h125l-70 -499h-125zM310 578h-41q-20 7 -40 24.5t-45 51.5q-37 -37 -59 -53t-46 -23h-49l106 150q20 6 55 6q34 0 52 -5z" />
    <glyph glyph-name="idieresis" unicode="&#xef;" horiz-adv-x="250" 
d="M98 499h125l-70 -499h-125zM49.5 608q-19.5 20 -19.5 50q0 31 19 50.5t50 19.5q29 0 48 -19.5t19 -50.5q0 -30 -19 -50t-48 -20q-30 0 -49.5 20zM217 607.5q-19 19.5 -19 50.5q0 30 19 50t49 20q29 0 48 -20t19 -50q0 -31 -19 -50.5t-48 -19.5q-30 0 -49 19.5z" />
    <glyph glyph-name="igrave" unicode="&#xec;" horiz-adv-x="250" 
d="M98 499h125l-70 -499h-125zM242 573q-43 3 -83.5 26t-71.5 60.5t-45 80.5q32 0 73.5 -5.5t71.5 -15.5l57 -146h-2z" />
    <glyph glyph-name="ij" unicode="&#x133;" horiz-adv-x="501" 
d="M129 603q-21 21 -21 54t21 54t54 21q32 0 52.5 -21t20.5 -54q0 -32 -21 -53.5t-52 -21.5q-33 0 -54 21zM98 499h125l-70 -499h-125zM379 603q-21 21 -21 54t21 54t54 21q32 0 52.5 -21t20.5 -54q0 -32 -21 -53.5t-52 -21.5q-33 0 -54 21zM144 -216q9 52 27 98
q16 -4 36 -4q28 0 43 14.5t19 47.5l79 559h125l-79 -553q-12 -88 -53 -130.5t-118 -42.5q-37 0 -79 11z" />
    <glyph glyph-name="imacron" unicode="&#x12b;" horiz-adv-x="250" 
d="M98 499h125l-70 -499h-125zM75 703h241q-5 -24 -10.5 -46t-14.5 -46h-241q9 48 25 92z" />
    <glyph glyph-name="iogonek" unicode="&#x12f;" horiz-adv-x="250" 
d="M235.5 711q20.5 -21 20.5 -54q0 -32 -21 -53.5t-52 -21.5q-33 0 -54 21t-21 54t21 54t54 21q32 0 52.5 -21zM98 499h125l-70 -499h-14q-33 -26 -49.5 -51t-16.5 -51q0 -34 36 -34q10 0 20.5 2.5t17.5 7.5q-4 -38 -20 -85q-6 -3 -22.5 -6t-32.5 -3q-45 0 -71 24.5
t-26 67.5q0 42 19 71.5t55 56.5h-21z" />
    <glyph glyph-name="itilde" unicode="&#x129;" horiz-adv-x="250" 
d="M98 499h125l-70 -499h-125zM197.5 593.5q-15.5 9.5 -33.5 26.5q-2 1 -7.5 6.5t-10 8t-7.5 2.5q-7 0 -11 -5t-6 -19l-4 -27h-72l8 55q12 79 73 79q20 0 35.5 -10t33.5 -27q2 -1 7.5 -6.5t10 -8t7.5 -2.5q7 0 11 5.5t6 18.5l4 28h72l-8 -56q-12 -78 -73 -78
q-20 0 -35.5 9.5z" />
    <glyph glyph-name="j" unicode="j" horiz-adv-x="250" 
d="M129 603q-21 21 -21 54t21 54t54 21q32 0 52.5 -21t20.5 -54q0 -32 -21 -53.5t-52 -21.5q-33 0 -54 21zM-106 -216q9 52 27 98q16 -4 36 -4q28 0 43 14.5t19 47.5l79 559h125l-79 -553q-12 -88 -53 -130.5t-118 -42.5q-37 0 -79 11z" />
    <glyph glyph-name="uni0237" unicode="&#x237;" horiz-adv-x="250" 
d="M-106 -216q9 52 27 98q16 -4 36 -4q28 0 43 14.5t19 47.5l79 559h125l-79 -553q-12 -88 -53 -130.5t-118 -42.5q-37 0 -79 11z" />
    <glyph glyph-name="jcircumflex" unicode="&#x135;" horiz-adv-x="250" 
d="M-106 -216q9 52 27 98q16 -4 36 -4q28 0 43 14.5t19 47.5l79 559h125l-79 -553q-12 -88 -53 -130.5t-118 -42.5q-37 0 -79 11zM310 578h-41q-20 7 -40 24.5t-45 51.5q-37 -37 -59 -53t-46 -23h-49l106 150q20 6 55 6q34 0 52 -5z" />
    <glyph glyph-name="k" unicode="k" horiz-adv-x="509" 
d="M252 710l-99 -710h-125l97 692q63 18 127 18zM332 267l138 -267h-141l-128 266l1 7l181 226h140z" />
    <glyph glyph-name="uni0137" unicode="&#x137;" horiz-adv-x="509" 
d="M252 710l-99 -710h-125l97 692q63 18 127 18zM332 267l138 -267h-141l-128 266l1 7l181 226h140zM147 -164.5q7 38.5 14 86.5q36 10 62.5 14t58.5 4q-13 -60 -46 -108.5t-81 -78.5h-26q11 44 18 82.5z" />
    <glyph glyph-name="kgreenlandic" unicode="&#x138;" horiz-adv-x="509" 
d="M223 499l-70 -499h-125l70 499h125zM332 267l138 -267h-141l-128 266l1 7l181 226h140z" />
    <glyph glyph-name="l" unicode="l" horiz-adv-x="290" 
d="M66 16q-27 28 -27 83q0 18 3 37l78 556q65 18 128 18l-79 -561q-2 -14 -2 -18q0 -38 36 -38q28 0 47 8q-3 -24 -10.5 -51t-17.5 -51q-33 -11 -77 -11q-52 0 -79 28z" />
    <glyph glyph-name="lacute" unicode="&#x13a;" horiz-adv-x="290" 
d="M66 16q-27 28 -27 83q0 18 3 37l78 556q65 18 128 18l-79 -561q-2 -14 -2 -18q0 -38 36 -38q28 0 47 8q-3 -24 -10.5 -51t-17.5 -51q-33 -11 -77 -11q-52 0 -79 28zM217 881q14 3 37 5t43 2q23 0 46 -3t36 -7q-41 -52 -98.5 -84.5t-118.5 -32.5h-21z" />
    <glyph glyph-name="lcaron" unicode="&#x13e;" horiz-adv-x="290" 
d="M66 16q-27 28 -27 83q0 18 3 37l78 556q65 18 128 18l-79 -561q-2 -14 -2 -18q0 -38 36 -38q28 0 47 8q-3 -24 -10.5 -51t-17.5 -51q-33 -11 -77 -11q-52 0 -79 28zM281 605.5q7 38.5 14 86.5q36 10 62.5 14t58.5 4q-13 -60 -46 -108.5t-81 -78.5h-26q11 44 18 82.5z" />
    <glyph glyph-name="uni013C" unicode="&#x13c;" horiz-adv-x="290" 
d="M66 16q-27 28 -27 83q0 18 3 37l78 556q65 18 128 18l-79 -561q-2 -14 -2 -18q0 -38 36 -38q28 0 47 8q-3 -24 -10.5 -51t-17.5 -51q-33 -11 -77 -11q-52 0 -79 28zM63 -164.5q7 38.5 14 86.5q36 10 62.5 14t58.5 4q-13 -60 -46 -108.5t-81 -78.5h-26q11 44 18 82.5z" />
    <glyph glyph-name="ldot" unicode="&#x140;" horiz-adv-x="403" 
d="M66 16q-27 28 -27 83q0 18 3 37l78 556q65 18 128 18l-79 -561q-2 -14 -2 -18q0 -38 36 -38q28 0 47 8q-3 -24 -10.5 -51t-17.5 -51q-33 -11 -77 -11q-52 0 -79 28zM292.5 335q-21.5 21 -21.5 54t21.5 54t53.5 21t53 -21t21 -54q0 -32 -21 -53.5t-53 -21.5t-53.5 21z" />
    <glyph glyph-name="lslash" unicode="&#x142;" horiz-adv-x="290" 
d="M169 149q-2 -14 -2 -18q0 -38 36 -38q28 0 47 8q-3 -24 -10.5 -51t-17.5 -51q-33 -11 -77 -11q-52 0 -79 28t-27 83q0 18 3 37l23 165l-66 -39q2 25 9 55t15 51l56 33l41 291q65 18 128 18l-32 -229l96 57q-3 -26 -9 -55.5t-15 -49.5l-86 -51z" />
    <glyph glyph-name="m" unicode="m" horiz-adv-x="823" 
d="M744 471q35 -40 35 -108q0 -19 -3 -40l-46 -323h-125l44 312q3 18 3 33q0 33 -15 48t-49 15q-50 0 -98 -45q0 -19 -3 -40l-45 -323h-126l44 312q3 18 3 33q0 33 -15 48t-49 15q-28 0 -53 -12.5t-42 -29.5l-51 -366h-125l70 499h113l-2 -75q30 43 65.5 65t81.5 22
q49 0 81.5 -23.5t44.5 -65.5q34 44 73.5 66.5t88.5 22.5q65 0 100 -40z" />
    <glyph glyph-name="n" unicode="n" horiz-adv-x="534" 
d="M455.5 471.5q34.5 -39.5 34.5 -107.5q0 -20 -3 -41l-45 -323h-126l44 312q3 18 3 33q0 33 -15 48t-49 15q-28 0 -53 -12.5t-42 -29.5l-51 -366h-125l70 499h113l-2 -75q30 43 65.5 65t81.5 22q65 0 99.5 -39.5z" />
    <glyph glyph-name="nacute" unicode="&#x144;" horiz-adv-x="534" 
d="M455.5 471.5q34.5 -39.5 34.5 -107.5q0 -20 -3 -41l-45 -323h-126l44 312q3 18 3 33q0 33 -15 48t-49 15q-28 0 -53 -12.5t-42 -29.5l-51 -366h-125l70 499h113l-2 -75q30 43 65.5 65t81.5 22q65 0 99.5 -39.5zM300 719q30 10 71.5 15.5t73.5 5.5q-14 -43 -45 -80.5
t-71.5 -60.5t-83.5 -26h-3z" />
    <glyph glyph-name="napostrophe" unicode="&#x149;" horiz-adv-x="682" 
d="M603.5 471.5q34.5 -39.5 34.5 -107.5q0 -20 -3 -41l-45 -323h-126l44 312q3 18 3 33q0 33 -15 48t-49 15q-28 0 -53 -12.5t-42 -29.5l-51 -366h-125l70 499h113l-2 -75q30 43 65.5 65t81.5 22q65 0 99.5 -39.5zM112.5 567q13.5 55 25.5 124q37 10 61 13.5t58 3.5
q-15 -82 -37 -140.5t-61 -125.5h-81q21 70 34.5 125z" />
    <glyph glyph-name="ncaron" unicode="&#x148;" horiz-adv-x="534" 
d="M455.5 471.5q34.5 -39.5 34.5 -107.5q0 -20 -3 -41l-45 -323h-126l44 312q3 18 3 33q0 33 -15 48t-49 15q-28 0 -53 -12.5t-42 -29.5l-51 -366h-125l70 499h113l-2 -75q30 43 65.5 65t81.5 22q65 0 99.5 -39.5zM491 733l-112 -150q-28 -6 -62 -6q-15 0 -30.5 1.5
t-28.5 3.5l-73 151h61q14 -7 23.5 -14t23 -21t32.5 -40q39 37 61 52.5t45 22.5h60z" />
    <glyph glyph-name="uni0146" unicode="&#x146;" horiz-adv-x="534" 
d="M455.5 471.5q34.5 -39.5 34.5 -107.5q0 -20 -3 -41l-45 -323h-126l44 312q3 18 3 33q0 33 -15 48t-49 15q-28 0 -53 -12.5t-42 -29.5l-51 -366h-125l70 499h113l-2 -75q30 43 65.5 65t81.5 22q65 0 99.5 -39.5zM156 -164.5q7 38.5 14 86.5q36 10 62.5 14t58.5 4
q-13 -60 -46 -108.5t-81 -78.5h-26q11 44 18 82.5z" />
    <glyph glyph-name="eng" unicode="&#x14b;" horiz-adv-x="534" 
d="M455.5 471.5q34.5 -39.5 34.5 -107.5q0 -20 -3 -41l-45 -323l-9 -58q-12 -86 -49.5 -126t-110.5 -40q-37 0 -76 11q5 27 10.5 48.5t15.5 47.5q20 -4 32 -4q23 0 35 13.5t17 44.5l9 63l44 312q3 18 3 33q0 33 -15 48t-49 15q-28 0 -53 -12.5t-42 -29.5l-51 -366h-125
l70 499h113l-2 -75q30 43 65.5 65t81.5 22q65 0 99.5 -39.5z" />
    <glyph glyph-name="ntilde" unicode="&#xf1;" horiz-adv-x="534" 
d="M455.5 471.5q34.5 -39.5 34.5 -107.5q0 -20 -3 -41l-45 -323h-126l44 312q3 18 3 33q0 33 -15 48t-49 15q-28 0 -53 -12.5t-42 -29.5l-51 -366h-125l70 499h113l-2 -75q30 43 65.5 65t81.5 22q65 0 99.5 -39.5zM362.5 593.5q-17.5 9.5 -37.5 25.5q-11 8 -20.5 14t-15.5 6
q-8 0 -12.5 -5.5t-6.5 -18.5l-4 -29h-70l10 67q6 35 23.5 51t46.5 16q19 0 36.5 -9.5t39.5 -26.5q10 -8 19 -14t15 -6q9 0 13 5.5t6 19.5l4 29h70l-10 -67q-5 -35 -22.5 -51t-47.5 -16q-19 0 -36.5 9.5z" />
    <glyph glyph-name="o" unicode="o" horiz-adv-x="535" 
d="M124 13q-47 25 -71 71.5t-24 111.5q0 91 31.5 162.5t92 112t145.5 40.5q66 0 113 -25t71 -71.5t24 -110.5q0 -92 -31.5 -163.5t-92.5 -112t-145 -40.5q-66 0 -113 25zM320.5 121q30.5 30 45 77t14.5 99q0 57 -22 84t-66 27q-47 0 -77.5 -29.5t-45 -76t-14.5 -98.5
q0 -57 22 -85t66 -28q47 0 77.5 30z" />
    <glyph glyph-name="oacute" unicode="&#xf3;" horiz-adv-x="535" 
d="M124 13q-47 25 -71 71.5t-24 111.5q0 91 31.5 162.5t92 112t145.5 40.5q66 0 113 -25t71 -71.5t24 -110.5q0 -92 -31.5 -163.5t-92.5 -112t-145 -40.5q-66 0 -113 25zM320.5 121q30.5 30 45 77t14.5 99q0 57 -22 84t-66 27q-47 0 -77.5 -29.5t-45 -76t-14.5 -98.5
q0 -57 22 -85t66 -28q47 0 77.5 30zM281 719q30 10 71.5 15.5t73.5 5.5q-14 -43 -45 -80.5t-71.5 -60.5t-83.5 -26h-3z" />
    <glyph glyph-name="obreve" unicode="&#x14f;" horiz-adv-x="535" 
d="M124 13q-47 25 -71 71.5t-24 111.5q0 91 31.5 162.5t92 112t145.5 40.5q66 0 113 -25t71 -71.5t24 -110.5q0 -92 -31.5 -163.5t-92.5 -112t-145 -40.5q-66 0 -113 25zM320.5 121q30.5 30 45 77t14.5 99q0 57 -22 84t-66 27q-47 0 -77.5 -29.5t-45 -76t-14.5 -98.5
q0 -57 22 -85t66 -28q47 0 77.5 30zM226.5 592.5q-32.5 19.5 -47.5 51.5t-16 70q19 4 43 6.5t46 2.5q3 -31 16.5 -48.5t42.5 -17.5q55 0 77 66q22 0 46 -2.5t41 -6.5q-18 -63 -56.5 -102t-109.5 -39q-50 0 -82.5 19.5z" />
    <glyph glyph-name="ocircumflex" unicode="&#xf4;" horiz-adv-x="535" 
d="M124 13q-47 25 -71 71.5t-24 111.5q0 91 31.5 162.5t92 112t145.5 40.5q66 0 113 -25t71 -71.5t24 -110.5q0 -92 -31.5 -163.5t-92.5 -112t-145 -40.5q-66 0 -113 25zM320.5 121q30.5 30 45 77t14.5 99q0 57 -22 84t-66 27q-47 0 -77.5 -29.5t-45 -76t-14.5 -98.5
q0 -57 22 -85t66 -28q47 0 77.5 30zM463 580h-61q-20 9 -35.5 23t-43.5 51q-38 -37 -60.5 -51.5t-45.5 -22.5h-60l112 150q24 5 62 5t59 -5z" />
    <glyph glyph-name="odieresis" unicode="&#xf6;" horiz-adv-x="535" 
d="M124 13q-47 25 -71 71.5t-24 111.5q0 91 31.5 162.5t92 112t145.5 40.5q66 0 113 -25t71 -71.5t24 -110.5q0 -92 -31.5 -163.5t-92.5 -112t-145 -40.5q-66 0 -113 25zM320.5 121q30.5 30 45 77t14.5 99q0 57 -22 84t-66 27q-47 0 -77.5 -29.5t-45 -76t-14.5 -98.5
q0 -57 22 -85t66 -28q47 0 77.5 30zM173.5 607q-19.5 20 -19.5 50q0 31 19 50.5t50 19.5q30 0 49.5 -19.5t19.5 -50.5t-19.5 -50.5t-49.5 -19.5t-49.5 20zM368.5 606q-19.5 20 -19.5 50q0 31 19.5 51t50.5 20q29 0 48.5 -20t19.5 -51q0 -30 -19.5 -50t-48.5 -20
q-31 0 -50.5 20z" />
    <glyph glyph-name="ograve" unicode="&#xf2;" horiz-adv-x="535" 
d="M124 13q-47 25 -71 71.5t-24 111.5q0 91 31.5 162.5t92 112t145.5 40.5q66 0 113 -25t71 -71.5t24 -110.5q0 -92 -31.5 -163.5t-92.5 -112t-145 -40.5q-66 0 -113 25zM320.5 121q30.5 30 45 77t14.5 99q0 57 -22 84t-66 27q-47 0 -77.5 -29.5t-45 -76t-14.5 -98.5
q0 -57 22 -85t66 -28q47 0 77.5 30zM380 573q-43 3 -83.5 26t-71.5 60.5t-45 80.5q32 0 73.5 -5.5t71.5 -15.5l57 -146h-2z" />
    <glyph glyph-name="ohungarumlaut" unicode="&#x151;" horiz-adv-x="535" 
d="M124 13q-47 25 -71 71.5t-24 111.5q0 91 31.5 162.5t92 112t145.5 40.5q66 0 113 -25t71 -71.5t24 -110.5q0 -92 -31.5 -163.5t-92.5 -112t-145 -40.5q-66 0 -113 25zM320.5 121q30.5 30 45 77t14.5 99q0 57 -22 84t-66 27q-47 0 -77.5 -29.5t-45 -76t-14.5 -98.5
q0 -57 22 -85t66 -28q47 0 77.5 30zM246 720q23 8 61.5 12t70.5 4q-49 -88 -101 -126t-106 -39h-7zM413 720q22 8 60 11.5t70 3.5q-46 -86 -99 -124.5t-107 -39.5h-6z" />
    <glyph glyph-name="omacron" unicode="&#x14d;" horiz-adv-x="535" 
d="M124 13q-47 25 -71 71.5t-24 111.5q0 91 31.5 162.5t92 112t145.5 40.5q66 0 113 -25t71 -71.5t24 -110.5q0 -92 -31.5 -163.5t-92.5 -112t-145 -40.5q-66 0 -113 25zM320.5 121q30.5 30 45 77t14.5 99q0 57 -22 84t-66 27q-47 0 -77.5 -29.5t-45 -76t-14.5 -98.5
q0 -57 22 -85t66 -28q47 0 77.5 30zM194 701h276q-5 -27 -10 -47.5t-14 -45.5h-276q7 46 24 93z" />
    <glyph glyph-name="oslash" unicode="&#xf8;" horiz-adv-x="536" 
d="M479 423q29 -49 29 -119q0 -92 -32 -163.5t-92.5 -112t-144.5 -40.5q-77 0 -126 32l-80 -87q-13 15 -23 34t-12 39l62 69q-29 49 -29 121q0 92 31 163t91.5 111.5t145.5 40.5q75 0 127 -33l78 86q12 -17 20.5 -40t10.5 -40zM150 174l200 220q-23 14 -57 14
q-50 0 -82.5 -29.5t-47.5 -76t-15 -98.5q0 -12 2 -30zM388 322l-199 -218q22 -13 55 -13q50 0 82.5 30t47.5 77t15 99q0 17 -1 25z" />
    <glyph glyph-name="oslashacute" unicode="&#x1ff;" horiz-adv-x="536" 
d="M479 423q29 -49 29 -119q0 -92 -32 -163.5t-92.5 -112t-144.5 -40.5q-77 0 -126 32l-80 -87q-13 15 -23 34t-12 39l62 69q-29 49 -29 121q0 92 31 163t91.5 111.5t145.5 40.5q75 0 127 -33l78 86q12 -17 20.5 -40t10.5 -40zM150 174l200 220q-23 14 -57 14
q-50 0 -82.5 -29.5t-47.5 -76t-15 -98.5q0 -12 2 -30zM388 322l-199 -218q22 -13 55 -13q50 0 82.5 30t47.5 77t15 99q0 17 -1 25zM290 719q30 10 71.5 15.5t73.5 5.5q-14 -43 -45 -80.5t-71.5 -60.5t-83.5 -26h-3z" />
    <glyph glyph-name="otilde" unicode="&#xf5;" horiz-adv-x="535" 
d="M124 13q-47 25 -71 71.5t-24 111.5q0 91 31.5 162.5t92 112t145.5 40.5q66 0 113 -25t71 -71.5t24 -110.5q0 -92 -31.5 -163.5t-92.5 -112t-145 -40.5q-66 0 -113 25zM320.5 121q30.5 30 45 77t14.5 99q0 57 -22 84t-66 27q-47 0 -77.5 -29.5t-45 -76t-14.5 -98.5
q0 -57 22 -85t66 -28q47 0 77.5 30zM343.5 593.5q-17.5 9.5 -37.5 25.5q-11 8 -20.5 14t-15.5 6q-8 0 -12.5 -5.5t-6.5 -18.5l-4 -29h-70l10 67q6 35 23.5 51t46.5 16q19 0 36.5 -9.5t39.5 -26.5q10 -8 19 -14t15 -6q9 0 13 5.5t6 19.5l4 29h70l-10 -67q-5 -35 -22.5 -51
t-47.5 -16q-19 0 -36.5 9.5z" />
    <glyph glyph-name="oe" unicode="&#x153;" horiz-adv-x="847" 
d="M811.5 262.5q-6.5 -37.5 -14.5 -61.5h-307q0 -43 13.5 -67t39.5 -34.5t69 -10.5q77 0 164 35q-8 -60 -26 -107q-72 -29 -157 -29q-134 0 -179 87q-34 -42 -80 -64.5t-101 -22.5q-64 0 -110 25t-70 71.5t-24 111.5q0 91 31.5 162.5t92 112t145.5 40.5q115 0 160 -83
q31 40 73.5 61.5t93.5 21.5q64 0 107 -24t64.5 -65.5t21.5 -95.5q0 -26 -6.5 -63.5zM540 379q-29 -32 -41 -85h193q4 20 4 39q0 38 -19.5 58t-59.5 20q-48 0 -77 -32zM320.5 121q30.5 30 45 77t14.5 99q0 57 -22 84t-66 27q-47 0 -77.5 -29.5t-45 -76t-14.5 -98.5
q0 -57 22 -85t66 -28q47 0 77.5 30z" />
    <glyph glyph-name="p" unicode="p" horiz-adv-x="540" 
d="M429.5 490q37.5 -21 58.5 -64t21 -106q0 -100 -31.5 -174.5t-96 -116t-159.5 -41.5q-36 0 -71 3l-28 -203h-125l100 711h115l-3 -66q23 38 55.5 58t77.5 20q49 0 86.5 -21zM315 120q34 29 49.5 77t15.5 107q0 53 -19 78.5t-63 25.5q-48 0 -94 -37l-38 -275q30 -5 62 -5
q53 0 87 29z" />
    <glyph glyph-name="thorn" unicode="&#xfe;" horiz-adv-x="539" 
d="M429.5 490q37.5 -21 58 -64t20.5 -106q0 -100 -31.5 -174.5t-95.5 -116t-159 -41.5q-36 0 -71 3l-28 -203h-125l32 228l95 676q63 18 127 18l-38 -270q22 35 53.5 53t74.5 18q50 0 87.5 -21zM315 120q34 29 49.5 77t15.5 107q0 53 -19.5 78.5t-62.5 25.5q-49 0 -93 -37
l-39 -275q28 -5 61 -5q54 0 88 29z" />
    <glyph glyph-name="q" unicode="q" horiz-adv-x="539" 
d="M509 483l-98 -695h-126l37 268q-22 -34 -52.5 -51t-72.5 -17q-50 0 -87.5 21t-58 64t-20.5 106q0 100 31.5 174.5t95.5 116t159 41.5q103 0 192 -28zM332 127l39 276q-28 5 -59 5q-54 0 -88 -29t-49.5 -77t-15.5 -107q0 -53 19.5 -78.5t62.5 -25.5q50 0 91 36z" />
    <glyph glyph-name="r" unicode="r" horiz-adv-x="354" 
d="M388 502q-3 -28 -10.5 -58.5t-16.5 -51.5q-30 4 -55 4t-52.5 -8t-49.5 -24l-51 -364h-125l70 499h116l-3 -68q23 39 54 59t69 20q34 0 54 -8z" />
    <glyph glyph-name="racute" unicode="&#x155;" horiz-adv-x="354" 
d="M388 502q-3 -28 -10.5 -58.5t-16.5 -51.5q-30 4 -55 4t-52.5 -8t-49.5 -24l-51 -364h-125l70 499h116l-3 -68q23 39 54 59t69 20q34 0 54 -8zM232 719q30 10 71.5 15.5t73.5 5.5q-14 -43 -45 -80.5t-71.5 -60.5t-83.5 -26h-3z" />
    <glyph glyph-name="rcaron" unicode="&#x159;" horiz-adv-x="354" 
d="M388 502q-3 -28 -10.5 -58.5t-16.5 -51.5q-30 4 -55 4t-52.5 -8t-49.5 -24l-51 -364h-125l70 499h116l-3 -68q23 39 54 59t69 20q34 0 54 -8zM410 733l-106 -150q-20 -6 -55 -6q-32 0 -52 4l-67 152h41q20 -7 40 -24.5t45 -51.5q37 37 59 53t46 23h49z" />
    <glyph glyph-name="uni0157" unicode="&#x157;" horiz-adv-x="354" 
d="M388 502q-3 -28 -10.5 -58.5t-16.5 -51.5q-30 4 -55 4t-52.5 -8t-49.5 -24l-51 -364h-125l70 499h116l-3 -68q23 39 54 59t69 20q34 0 54 -8zM5 -164.5q7 38.5 14 86.5q36 10 62.5 14t58.5 4q-13 -60 -46 -108.5t-81 -78.5h-26q11 44 18 82.5z" />
    <glyph glyph-name="s" unicode="s" horiz-adv-x="439" 
d="M9 27q8 48 30 95q65 -35 133 -35q86 0 86 55q0 18 -12 31t-40 23l-41 14q-53 19 -82 52t-29 88q0 52 25 88t71.5 54.5t109.5 18.5q41 0 81 -7t74 -20q-7 -43 -27 -95q-61 23 -123 23q-45 0 -64 -13.5t-19 -38.5q0 -34 56 -53l44 -16q56 -20 82 -52t26 -84q0 -49 -26 -87
t-74 -59t-113 -21q-97 0 -168 39z" />
    <glyph glyph-name="sacute" unicode="&#x15b;" horiz-adv-x="439" 
d="M9 27q8 48 30 95q65 -35 133 -35q86 0 86 55q0 18 -12 31t-40 23l-41 14q-53 19 -82 52t-29 88q0 52 25 88t71.5 54.5t109.5 18.5q41 0 81 -7t74 -20q-7 -43 -27 -95q-61 23 -123 23q-45 0 -64 -13.5t-19 -38.5q0 -34 56 -53l44 -16q56 -20 82 -52t26 -84q0 -49 -26 -87
t-74 -59t-113 -21q-97 0 -168 39zM240 719q30 10 71.5 15.5t73.5 5.5q-14 -43 -45 -80.5t-71.5 -60.5t-83.5 -26h-3z" />
    <glyph glyph-name="scaron" unicode="&#x161;" horiz-adv-x="439" 
d="M9 27q8 48 30 95q65 -35 133 -35q86 0 86 55q0 18 -12 31t-40 23l-41 14q-53 19 -82 52t-29 88q0 52 25 88t71.5 54.5t109.5 18.5q41 0 81 -7t74 -20q-7 -43 -27 -95q-61 23 -123 23q-45 0 -64 -13.5t-19 -38.5q0 -34 56 -53l44 -16q56 -20 82 -52t26 -84q0 -49 -26 -87
t-74 -59t-113 -21q-97 0 -168 39zM431 733l-112 -150q-28 -6 -62 -6q-15 0 -30.5 1.5t-28.5 3.5l-73 151h61q14 -7 23.5 -14t23 -21t32.5 -40q39 37 61 52.5t45 22.5h60z" />
    <glyph glyph-name="scedilla" unicode="&#x15f;" horiz-adv-x="439" 
d="M364 239q26 -32 26 -84q0 -44 -21 -79.5t-60 -57.5t-93 -28l-17 -36q33 -10 49 -29t16 -48q0 -47 -32.5 -72t-84.5 -25q-20 0 -41 4t-36 10q6 36 20 61q25 -9 47 -9t33.5 8t11.5 22q0 16 -18 24t-57 9l36 80q-75 7 -134 38q8 48 30 95q65 -35 133 -35q86 0 86 55
q0 18 -12 31t-40 23l-41 14q-53 19 -82 52t-29 88q0 52 25 88t71.5 54.5t109.5 18.5q41 0 81 -7t74 -20q-7 -43 -27 -95q-61 23 -123 23q-45 0 -64 -13.5t-19 -38.5q0 -34 56 -53l44 -16q56 -20 82 -52z" />
    <glyph glyph-name="scircumflex" unicode="&#x15d;" horiz-adv-x="439" 
d="M9 27q8 48 30 95q65 -35 133 -35q86 0 86 55q0 18 -12 31t-40 23l-41 14q-53 19 -82 52t-29 88q0 52 25 88t71.5 54.5t109.5 18.5q41 0 81 -7t74 -20q-7 -43 -27 -95q-61 23 -123 23q-45 0 -64 -13.5t-19 -38.5q0 -34 56 -53l44 -16q56 -20 82 -52t26 -84q0 -49 -26 -87
t-74 -59t-113 -21q-97 0 -168 39zM421 580h-61q-20 9 -35.5 23t-43.5 51q-38 -37 -60.5 -51.5t-45.5 -22.5h-60l112 150q24 5 62 5t59 -5z" />
    <glyph glyph-name="uni0219" unicode="&#x219;" horiz-adv-x="439" 
d="M9 27q8 48 30 95q65 -35 133 -35q86 0 86 55q0 18 -12 31t-40 23l-41 14q-53 19 -82 52t-29 88q0 52 25 88t71.5 54.5t109.5 18.5q41 0 81 -7t74 -20q-7 -43 -27 -95q-61 23 -123 23q-45 0 -64 -13.5t-19 -38.5q0 -34 56 -53l44 -16q56 -20 82 -52t26 -84q0 -49 -26 -87
t-74 -59t-113 -21q-97 0 -168 39zM102 -164.5q7 38.5 14 86.5q36 10 62.5 14t58.5 4q-13 -60 -46 -108.5t-81 -78.5h-26q11 44 18 82.5z" />
    <glyph glyph-name="germandbls" unicode="&#xdf;" horiz-adv-x="571" 
d="M506.5 315q24.5 -39 24.5 -97q0 -66 -25 -118t-75 -81.5t-123 -29.5q-28 0 -55.5 4.5t-43.5 11.5q6 51 26 100q27 -9 58 -9q56 0 81 33.5t25 91.5q0 47 -26.5 70t-80.5 23h-24l14 101h20q55 0 84 30t29 81q0 35 -21.5 56t-61.5 21q-49 0 -75.5 -27t-34.5 -85l-69 -491
h-125l70 503q14 98 73.5 152.5t167.5 54.5q62 0 108 -22t70.5 -62t24.5 -92q0 -58 -27.5 -99.5t-78.5 -61.5q46 -19 70.5 -58z" />
    <glyph glyph-name="longs" unicode="&#x17f;" horiz-adv-x="332" 
d="M102 528q13 90 62.5 136t143.5 46q52 0 96 -12q-5 -47 -25 -98q-30 8 -62 8q-42 0 -63 -19.5t-27 -62.5l-74 -526h-125z" />
    <glyph glyph-name="t" unicode="t" horiz-adv-x="347" 
d="M171 163q-2 -14 -2 -20q0 -26 13 -38t38 -12q19 0 39.5 4.5t36.5 11.5q-10 -64 -32 -108q-39 -13 -88 -13q-65 0 -99.5 32.5t-34.5 97.5q0 19 3 41l67 478q61 17 128 17l-22 -155h138q-8 -53 -26 -101h-126z" />
    <glyph glyph-name="tbar" unicode="&#x167;" horiz-adv-x="347" 
d="M204 398l-12 -84h118q-7 -46 -22 -79h-107l-10 -72q-2 -14 -2 -20q0 -26 13 -38t38 -12q19 0 39.5 4.5t36.5 11.5q-10 -64 -32 -108q-39 -13 -88 -13q-65 0 -99.5 32.5t-34.5 97.5q0 19 3 41l11 76h-76q7 43 21 79h66l45 323q61 17 128 17l-22 -155h138q-8 -53 -26 -101
h-126z" />
    <glyph glyph-name="tcaron" unicode="&#x165;" horiz-adv-x="347" 
d="M400 696.5q27 3.5 59 3.5q-13 -57 -46 -103t-81 -75h-26q11 41 18.5 78t13.5 84q35 9 62 12.5zM218 499h138q-8 -53 -26 -101h-126l-33 -235q-2 -14 -2 -20q0 -26 13 -38t38 -12q19 0 39.5 4.5t36.5 11.5q-10 -64 -32 -108q-39 -13 -88 -13q-65 0 -99.5 32.5t-34.5 97.5
q0 19 3 41l67 478q61 17 128 17z" />
    <glyph glyph-name="uni0163" unicode="&#x163;" horiz-adv-x="347" 
d="M171 163q-2 -14 -2 -20q0 -26 13 -38t38 -12q19 0 39.5 4.5t36.5 11.5q-10 -64 -32 -108q-33 -11 -74 -13l-16 -34q33 -10 49 -29t16 -48q0 -47 -32 -72t-84 -25q-21 0 -42 4t-36 10q6 36 20 61q25 -9 47 -9t34 8t12 22q0 16 -18.5 24t-57.5 9l39 86q-39 12 -59 43
t-20 80q0 19 3 41l67 478q61 17 128 17l-22 -155h138q-8 -53 -26 -101h-126z" />
    <glyph glyph-name="uni021B" unicode="&#x21b;" horiz-adv-x="347" 
d="M171 163q-2 -14 -2 -20q0 -26 13 -38t38 -12q19 0 39.5 4.5t36.5 11.5q-10 -64 -32 -108q-39 -13 -88 -13q-65 0 -99.5 32.5t-34.5 97.5q0 19 3 41l67 478q61 17 128 17l-22 -155h138q-8 -53 -26 -101h-126zM77 -164.5q7 38.5 14 86.5q36 10 62.5 14t58.5 4
q-13 -60 -46 -108.5t-81 -78.5h-26q11 44 18 82.5z" />
    <glyph glyph-name="u" unicode="u" horiz-adv-x="534" 
d="M507 499l-70 -499h-114l2 75q-30 -43 -65 -65t-81 -22q-65 0 -100 40t-35 108q0 19 3 40l46 323h125l-44 -312q-3 -18 -3 -33q0 -33 15 -48t49 -15q27 0 52 12t43 29l51 367h126z" />
    <glyph glyph-name="uacute" unicode="&#xfa;" horiz-adv-x="534" 
d="M507 499l-70 -499h-114l2 75q-30 -43 -65 -65t-81 -22q-65 0 -100 40t-35 108q0 19 3 40l46 323h125l-44 -312q-3 -18 -3 -33q0 -33 15 -48t49 -15q27 0 52 12t43 29l51 367h126zM285 719q30 10 71.5 15.5t73.5 5.5q-14 -43 -45 -80.5t-71.5 -60.5t-83.5 -26h-3z" />
    <glyph glyph-name="ubreve" unicode="&#x16d;" horiz-adv-x="534" 
d="M507 499l-70 -499h-114l2 75q-30 -43 -65 -65t-81 -22q-65 0 -100 40t-35 108q0 19 3 40l46 323h125l-44 -312q-3 -18 -3 -33q0 -33 15 -48t49 -15q27 0 52 12t43 29l51 367h126zM230.5 592.5q-32.5 19.5 -47.5 51.5t-16 70q19 4 43 6.5t46 2.5q3 -31 16.5 -48.5
t42.5 -17.5q55 0 77 66q22 0 46 -2.5t41 -6.5q-18 -63 -56.5 -102t-109.5 -39q-50 0 -82.5 19.5z" />
    <glyph glyph-name="ucircumflex" unicode="&#xfb;" horiz-adv-x="534" 
d="M507 499l-70 -499h-114l2 75q-30 -43 -65 -65t-81 -22q-65 0 -100 40t-35 108q0 19 3 40l46 323h125l-44 -312q-3 -18 -3 -33q0 -33 15 -48t49 -15q27 0 52 12t43 29l51 367h126zM467 580h-61q-20 9 -35.5 23t-43.5 51q-38 -37 -60.5 -51.5t-45.5 -22.5h-60l112 150
q24 5 62 5t59 -5z" />
    <glyph glyph-name="udieresis" unicode="&#xfc;" horiz-adv-x="534" 
d="M507 499l-70 -499h-114l2 75q-30 -43 -65 -65t-81 -22q-65 0 -100 40t-35 108q0 19 3 40l46 323h125l-44 -312q-3 -18 -3 -33q0 -33 15 -48t49 -15q27 0 52 12t43 29l51 367h126zM177.5 607q-19.5 20 -19.5 50q0 31 19 50.5t50 19.5q30 0 49.5 -19.5t19.5 -50.5
t-19.5 -50.5t-49.5 -19.5t-49.5 20zM372.5 606q-19.5 20 -19.5 50q0 31 19.5 51t50.5 20q29 0 48.5 -20t19.5 -51q0 -30 -19.5 -50t-48.5 -20q-31 0 -50.5 20z" />
    <glyph glyph-name="ugrave" unicode="&#xf9;" horiz-adv-x="534" 
d="M507 499l-70 -499h-114l2 75q-30 -43 -65 -65t-81 -22q-65 0 -100 40t-35 108q0 19 3 40l46 323h125l-44 -312q-3 -18 -3 -33q0 -33 15 -48t49 -15q27 0 52 12t43 29l51 367h126zM384 573q-43 3 -83.5 26t-71.5 60.5t-45 80.5q32 0 73.5 -5.5t71.5 -15.5l57 -146h-2z" />
    <glyph glyph-name="uhungarumlaut" unicode="&#x171;" horiz-adv-x="534" 
d="M507 499l-70 -499h-114l2 75q-30 -43 -65 -65t-81 -22q-65 0 -100 40t-35 108q0 19 3 40l46 323h125l-44 -312q-3 -18 -3 -33q0 -33 15 -48t49 -15q27 0 52 12t43 29l51 367h126zM250 720q23 8 61.5 12t70.5 4q-49 -88 -101 -126t-106 -39h-7zM417 720q22 8 60 11.5
t70 3.5q-46 -86 -99 -124.5t-107 -39.5h-6z" />
    <glyph glyph-name="umacron" unicode="&#x16b;" horiz-adv-x="534" 
d="M507 499l-70 -499h-114l2 75q-30 -43 -65 -65t-81 -22q-65 0 -100 40t-35 108q0 19 3 40l46 323h125l-44 -312q-3 -18 -3 -33q0 -33 15 -48t49 -15q27 0 52 12t43 29l51 367h126zM198 701h276q-5 -27 -10 -47.5t-14 -45.5h-276q7 46 24 93z" />
    <glyph glyph-name="uogonek" unicode="&#x173;" horiz-adv-x="534" 
d="M354.5 -45q-19.5 -29 -19.5 -56q0 -37 42 -37q11 0 23 3.5t21 6.5q-3 -21 -8 -40t-14 -44q-22 -9 -62 -9q-48 0 -76 24.5t-28 72.5q0 36 22.5 69.5t67.5 60.5l2 69q-30 -43 -65 -65t-81 -22q-65 0 -100 40t-35 108q0 19 3 40l46 323h125l-44 -312q-3 -18 -3 -33
q0 -33 15 -48t49 -15q27 0 52 12t43 29l51 367h126l-70 -499h-33q-30 -16 -49.5 -45z" />
    <glyph glyph-name="uring" unicode="&#x16f;" horiz-adv-x="534" 
d="M507 499l-70 -499h-114l2 75q-30 -43 -65 -65t-81 -22q-65 0 -100 40t-35 108q0 19 3 40l46 323h125l-44 -312q-3 -18 -3 -33q0 -33 15 -48t49 -15q27 0 52 12t43 29l51 367h126zM263.5 574q-27.5 14 -43.5 40t-16 59q0 34 16 60t43.5 40t61.5 14t61.5 -14t43 -40
t15.5 -60q0 -33 -15.5 -59t-43 -40t-61.5 -14t-61.5 14zM358.5 637q12.5 14 12.5 36q0 23 -12.5 37t-33.5 14q-22 0 -34.5 -14t-12.5 -37q0 -22 13 -36t34 -14t33.5 14z" />
    <glyph glyph-name="utilde" unicode="&#x169;" horiz-adv-x="534" 
d="M507 499l-70 -499h-114l2 75q-30 -43 -65 -65t-81 -22q-65 0 -100 40t-35 108q0 19 3 40l46 323h125l-44 -312q-3 -18 -3 -33q0 -33 15 -48t49 -15q27 0 52 12t43 29l51 367h126zM347.5 593.5q-17.5 9.5 -37.5 25.5q-11 8 -20.5 14t-15.5 6q-8 0 -12.5 -5.5t-6.5 -18.5
l-4 -29h-70l10 67q6 35 23.5 51t46.5 16q19 0 36.5 -9.5t39.5 -26.5q10 -8 19 -14t15 -6q9 0 13 5.5t6 19.5l4 29h70l-10 -67q-5 -35 -22.5 -51t-47.5 -16q-19 0 -36.5 9.5z" />
    <glyph glyph-name="v" unicode="v" horiz-adv-x="482" 
d="M509 499l-242 -499h-123l-102 499h129l53 -366l153 366h132z" />
    <glyph glyph-name="w" unicode="w" horiz-adv-x="780" 
d="M803 499l-223 -499h-122l-53 339l-150 -339h-117l-91 499h125l42 -360l148 360h122l55 -363l135 363h129z" />
    <glyph glyph-name="wacute" unicode="&#x1e83;" horiz-adv-x="780" 
d="M803 499l-223 -499h-122l-53 339l-150 -339h-117l-91 499h125l42 -360l148 360h122l55 -363l135 363h129zM405 719q30 10 71.5 15.5t73.5 5.5q-14 -43 -45 -80.5t-71.5 -60.5t-83.5 -26h-3z" />
    <glyph glyph-name="wcircumflex" unicode="&#x175;" horiz-adv-x="780" 
d="M803 499l-223 -499h-122l-53 339l-150 -339h-117l-91 499h125l42 -360l148 360h122l55 -363l135 363h129zM586 580h-61q-20 9 -35.5 23t-43.5 51q-38 -37 -60.5 -51.5t-45.5 -22.5h-60l112 150q24 5 62 5t59 -5z" />
    <glyph glyph-name="wdieresis" unicode="&#x1e85;" horiz-adv-x="780" 
d="M803 499l-223 -499h-122l-53 339l-150 -339h-117l-91 499h125l42 -360l148 360h122l55 -363l135 363h129zM297.5 607q-19.5 20 -19.5 50q0 31 19 50.5t50 19.5q30 0 49.5 -19.5t19.5 -50.5t-19.5 -50.5t-49.5 -19.5t-49.5 20zM492.5 606q-19.5 20 -19.5 50q0 31 19.5 51
t50.5 20q29 0 48.5 -20t19.5 -51q0 -30 -19.5 -50t-48.5 -20q-31 0 -50.5 20z" />
    <glyph glyph-name="wgrave" unicode="&#x1e81;" horiz-adv-x="780" 
d="M803 499l-223 -499h-122l-53 339l-150 -339h-117l-91 499h125l42 -360l148 360h122l55 -363l135 363h129zM503 573q-43 3 -83.5 26t-71.5 60.5t-45 80.5q32 0 73.5 -5.5t71.5 -15.5l57 -146h-2z" />
    <glyph glyph-name="x" unicode="x" horiz-adv-x="481" 
d="M305 252l137 -252h-136l-76 154l-117 -154h-143l203 249l-131 250h136l72 -151l116 151h141z" />
    <glyph glyph-name="y" unicode="y" horiz-adv-x="498" 
d="M525 499l-250 -544q-40 -88 -93 -133.5t-132 -45.5q-20 0 -38 3t-31 8q9 54 27 99q22 -4 41 -4q37 0 63.5 19.5t50.5 70.5l-121 527h124l68 -379l163 379h128z" />
    <glyph glyph-name="yacute" unicode="&#xfd;" horiz-adv-x="498" 
d="M525 499l-250 -544q-40 -88 -93 -133.5t-132 -45.5q-20 0 -38 3t-31 8q9 54 27 99q22 -4 41 -4q37 0 63.5 19.5t50.5 70.5l-121 527h124l68 -379l163 379h128zM266 719q30 10 71.5 15.5t73.5 5.5q-14 -43 -45 -80.5t-71.5 -60.5t-83.5 -26h-3z" />
    <glyph glyph-name="ycircumflex" unicode="&#x177;" horiz-adv-x="498" 
d="M525 499l-250 -544q-40 -88 -93 -133.5t-132 -45.5q-20 0 -38 3t-31 8q9 54 27 99q22 -4 41 -4q37 0 63.5 19.5t50.5 70.5l-121 527h124l68 -379l163 379h128zM448 580h-61q-20 9 -35.5 23t-43.5 51q-38 -37 -60.5 -51.5t-45.5 -22.5h-60l112 150q24 5 62 5t59 -5z" />
    <glyph glyph-name="ydieresis" unicode="&#xff;" horiz-adv-x="498" 
d="M525 499l-250 -544q-40 -88 -93 -133.5t-132 -45.5q-20 0 -38 3t-31 8q9 54 27 99q22 -4 41 -4q37 0 63.5 19.5t50.5 70.5l-121 527h124l68 -379l163 379h128zM158.5 607q-19.5 20 -19.5 50q0 31 19 50.5t50 19.5q30 0 49.5 -19.5t19.5 -50.5t-19.5 -50.5t-49.5 -19.5
t-49.5 20zM353.5 606q-19.5 20 -19.5 50q0 31 19.5 51t50.5 20q29 0 48.5 -20t19.5 -51q0 -30 -19.5 -50t-48.5 -20q-31 0 -50.5 20z" />
    <glyph glyph-name="ygrave" unicode="&#x1ef3;" horiz-adv-x="498" 
d="M525 499l-250 -544q-40 -88 -93 -133.5t-132 -45.5q-20 0 -38 3t-31 8q9 54 27 99q22 -4 41 -4q37 0 63.5 19.5t50.5 70.5l-121 527h124l68 -379l163 379h128zM365 573q-43 3 -83.5 26t-71.5 60.5t-45 80.5q32 0 73.5 -5.5t71.5 -15.5l57 -146h-2z" />
    <glyph glyph-name="z" unicode="z" horiz-adv-x="464" 
d="M446.5 463q-4.5 -20 -12.5 -37l-256 -322h228q-4 -25 -11.5 -53t-16.5 -51h-376q1 32 15 75l255 320h-212q11 63 29 104h363q-1 -16 -5.5 -36z" />
    <glyph glyph-name="zacute" unicode="&#x17a;" horiz-adv-x="464" 
d="M446.5 463q-4.5 -20 -12.5 -37l-256 -322h228q-4 -25 -11.5 -53t-16.5 -51h-376q1 32 15 75l255 320h-212q11 63 29 104h363q-1 -16 -5.5 -36zM246 719q30 10 71.5 15.5t73.5 5.5q-14 -43 -45 -80.5t-71.5 -60.5t-83.5 -26h-3z" />
    <glyph glyph-name="zcaron" unicode="&#x17e;" horiz-adv-x="464" 
d="M446.5 463q-4.5 -20 -12.5 -37l-256 -322h228q-4 -25 -11.5 -53t-16.5 -51h-376q1 32 15 75l255 320h-212q11 63 29 104h363q-1 -16 -5.5 -36zM437 733l-112 -150q-28 -6 -62 -6q-15 0 -30.5 1.5t-28.5 3.5l-73 151h61q14 -7 23.5 -14t23 -21t32.5 -40q39 37 61 52.5
t45 22.5h60z" />
    <glyph glyph-name="zdotaccent" unicode="&#x17c;" horiz-adv-x="464" 
d="M446.5 463q-4.5 -20 -12.5 -37l-256 -322h228q-4 -25 -11.5 -53t-16.5 -51h-376q1 32 15 75l255 320h-212q11 63 29 104h363q-1 -16 -5.5 -36zM232.5 603q-21.5 21 -21.5 54t21.5 54t53.5 21t53 -21t21 -54q0 -32 -21 -53.5t-53 -21.5t-53.5 21z" />
    <glyph glyph-name="f_b.dlig" horiz-adv-x="845" 
d="M329 398h-120l-56 -398h-125l74 528q12 88 63 135t138 47q44 0 85 -11q-10 -54 -24 -99q-29 8 -56 8q-69 0 -81 -78l-4 -31h132q-10 -56 -26 -101zM735 490.5q37 -21.5 58 -64.5t21 -106q0 -100 -31.5 -174.5t-95.5 -116t-159 -41.5q-103 0 -192 28l95 676q64 18 128 18
l-37 -267q22 34 53 51.5t73 17.5q50 0 87 -21.5zM621 120.5q34 29.5 49.5 77.5t15.5 106q0 53 -19 78.5t-63 25.5q-51 0 -92 -36l-39 -276q28 -5 60 -5q54 0 88 29.5z" />
    <glyph glyph-name="f_f_b.dlig" horiz-adv-x="1137" 
d="M621 398h-120l-56 -398h-125l56 398h-167l-56 -398h-125l74 528q25 182 199 182q47 0 91 -14q-7 -45 -25 -97q-27 9 -56 9q-36 0 -57 -19t-27 -59l-4 -31h167l4 29q12 88 63 135t138 47q44 0 85 -11q-10 -54 -24 -99q-29 8 -56 8q-69 0 -81 -78l-4 -31h132
q-10 -56 -26 -101zM1027 490.5q37 -21.5 58 -64.5t21 -106q0 -100 -31.5 -174.5t-95.5 -116t-159 -41.5q-103 0 -192 28l95 676q65 18 128 18l-37 -267q22 34 53 51.5t73 17.5q50 0 87 -21.5zM913 120.5q34 29.5 49.5 77.5t15.5 106q0 53 -19 78.5t-63 25.5q-51 0 -92 -36
l-39 -276q28 -5 60 -5q54 0 88 29.5z" />
    <glyph glyph-name="f_f_h.dlig" horiz-adv-x="1133" 
d="M621 398h-120l-56 -398h-125l56 398h-167l-56 -398h-125l74 528q25 182 199 182q47 0 91 -14q-7 -45 -25 -97q-27 9 -56 9q-36 0 -57 -19t-27 -59l-4 -31h167l4 29q12 88 63 135t138 47q44 0 85 -11q-10 -54 -24 -99q-29 8 -56 8q-69 0 -81 -78l-4 -31h132
q-10 -56 -26 -101zM1054 471q35 -40 35 -108q0 -19 -3 -40l-46 -323h-125l43 312q3 20 3 34q0 32 -14.5 47t-48.5 15q-50 0 -95 -41l-52 -367h-125l97 692q63 18 128 18l-40 -281q30 41 64.5 61.5t78.5 20.5q65 0 100 -40z" />
    <glyph glyph-name="f_f_j.dlig" horiz-adv-x="849" 
d="M834.5 711q20.5 -21 20.5 -54q0 -32 -21 -53.5t-52 -21.5q-33 0 -54 21t-21 54t21 54t54 21q32 0 52.5 -21zM501 398l-56 -398h-124l55 398h-167l-56 -398h-125l74 528q25 182 199 182q47 0 91 -14q-7 -45 -25 -97q-27 9 -56 9q-36 0 -57 -19t-27 -59l-4 -31h167l4 29
q13 88 64 135t138 47q45 0 84 -11q-8 -54 -24 -99q-27 8 -56 8q-68 0 -81 -78l-4 -31h132q-10 -56 -26 -101h-120zM697 499h125l-79 -553q-12 -88 -53 -130.5t-118 -42.5q-37 0 -79 11q9 52 27 98q16 -4 36 -4q28 0 43 14.5t19 47.5z" />
    <glyph glyph-name="f_f_k.dlig" horiz-adv-x="1108" 
d="M621 398h-120l-56 -398h-125l56 398h-167l-56 -398h-125l74 528q25 182 199 182q47 0 91 -14q-7 -45 -25 -97q-27 9 -56 9q-36 0 -57 -19t-27 -59l-4 -31h167l4 29q12 88 63 135t138 47q44 0 85 -11q-10 -54 -24 -99q-29 8 -56 8q-69 0 -81 -78l-4 -31h132
q-10 -56 -26 -101zM851 710l-100 -710h-125l97 692q63 18 128 18zM931 267l138 -267h-141l-128 266l1 7l181 226h140z" />
    <glyph glyph-name="f_h.dlig" horiz-adv-x="841" 
d="M329 398h-120l-56 -398h-125l74 528q12 88 63 135t138 47q44 0 85 -11q-10 -54 -24 -99q-29 8 -56 8q-69 0 -81 -78l-4 -31h132q-10 -56 -26 -101zM762 471q35 -40 35 -108q0 -19 -3 -40l-46 -323h-125l43 312q3 20 3 34q0 32 -14.5 47t-48.5 15q-50 0 -95 -41l-52 -367
h-125l97 692q63 18 128 18l-40 -281q30 41 64.5 61.5t78.5 20.5q65 0 100 -40z" />
    <glyph glyph-name="f_j.dlig" horiz-adv-x="557" 
d="M542 711q21 -21 21 -54q0 -21 -9.5 -38t-26.5 -27t-38 -10q-32 0 -53.5 21t-21.5 54t21.5 54t53.5 21t53 -21zM209 398l-56 -398h-125l74 528q12 88 63 135t138 47q44 0 85 -11q-10 -54 -24 -99q-29 8 -56 8q-69 0 -81 -78l-4 -31h132q-10 -56 -26 -101h-120zM404 499
h125l-78 -553q-13 -88 -54 -130.5t-118 -42.5q-38 0 -78 11q9 50 26 98q16 -4 36 -4q28 0 43 14.5t19 47.5z" />
    <glyph glyph-name="f_k.dlig" horiz-adv-x="816" 
d="M329 398h-120l-56 -398h-125l74 528q12 88 63 135t138 47q44 0 85 -11q-10 -54 -24 -99q-29 8 -56 8q-69 0 -81 -78l-4 -31h132q-10 -56 -26 -101zM559 710l-100 -710h-125l97 692q63 18 128 18zM639 267l138 -267h-141l-128 266l1 7l181 226h140z" />
    <glyph glyph-name="t_f.dlig" horiz-adv-x="652" 
d="M171 163q-2 -14 -2 -20q0 -26 13 -38t38 -12q19 0 39.5 4.5t36.5 11.5q-10 -64 -32 -108q-39 -13 -88 -13q-65 0 -99.5 32.5t-34.5 97.5q0 19 3 41l67 478q61 17 128 17l-22 -155h138q-8 -53 -26 -101h-126zM564 588.5q-21 -19.5 -27 -62.5l-4 -27h147q-6 -40 -26 -101
h-135l-56 -398h-125l74 528q13 90 62.5 136t143.5 46q52 0 96 -12q-5 -47 -25 -98q-30 8 -62 8q-42 0 -63 -19.5z" />
    <glyph glyph-name="t_t.dlig" horiz-adv-x="665" 
d="M171 163q-2 -14 -2 -20q0 -26 13 -38t38 -12q19 0 39.5 4.5t36.5 11.5q-10 -64 -32 -108q-39 -13 -88 -13q-65 0 -99.5 32.5t-34.5 97.5q0 19 3 41l67 478q61 17 128 17l-22 -155h138q-8 -53 -26 -101h-126zM488 163q-2 -14 -2 -20q0 -26 13 -38t38 -12q19 0 39.5 4.5
t36.5 11.5q-10 -64 -32 -108q-39 -13 -88 -13q-65 0 -99.5 32.5t-34.5 97.5q0 19 3 41l67 478q61 17 128 17l-22 -155h138q-8 -53 -26 -101h-126z" />
    <glyph glyph-name="ordfeminine" unicode="&#xaa;" horiz-adv-x="403" 
d="M349 694.5q32 -5.5 72 -16.5l-55 -387h-100v36q-17 -23 -38.5 -34.5t-50.5 -11.5q-35 0 -63 18t-44 52.5t-16 81.5q0 85 28 145t78 91t115 31q42 0 74 -5.5zM244.5 371q13.5 7 25.5 21l31 224q-15 3 -31 3q-30 0 -54 -20.5t-37.5 -60.5t-13.5 -94q0 -39 10.5 -59.5
t35.5 -20.5q20 0 33.5 7z" />
    <glyph glyph-name="ordmasculine" unicode="&#xba;" horiz-adv-x="414" 
d="M97 326.5q-42 44.5 -42 123.5q0 71 24.5 128.5t72 90.5t113.5 33q78 0 119.5 -44.5t41.5 -125.5q0 -71 -25 -128t-72.5 -89.5t-112.5 -32.5q-77 0 -119 44.5zM274.5 400.5q20.5 23.5 29.5 59t9 72.5q0 40 -13 57.5t-41 17.5q-32 0 -52.5 -23.5t-29 -58.5t-8.5 -72
q0 -40 13 -58t40 -18q32 0 52.5 23.5z" />
    <glyph glyph-name="uni207F" unicode="&#x207f;" horiz-adv-x="407" 
d="M385 672q25 -30 25 -83q0 -19 -3 -40l-36 -258h-111l35 250q2 20 2 26q0 20 -8.5 29.5t-29.5 9.5q-17 0 -33.5 -8t-27.5 -20l-40 -287h-110l56 401h99v-54q18 32 44 48t60 16q53 0 78 -30z" />
    <glyph glyph-name="uni0394" unicode="&#x394;" 
d="M507 0h-533l283 682q78 16 151 16zM366 108l-48 441l-178 -441h226z" />
    <glyph glyph-name="uni0394" unicode="&#x3b4;" 
d="M507 0h-533l283 682q78 16 151 16zM366 108l-48 441l-178 -441h226z" />
    <glyph glyph-name="uni03A9" unicode="&#x3a9;" 
d="M373 112h123q-3 -26 -9.5 -57.5t-15.5 -54.5h-199l1 8l2 13l12 91l8 54q44 14 71.5 58.5t39.5 102.5t12 116q0 81 -24 118t-69 37q-51 0 -85.5 -44t-50.5 -109.5t-16 -129.5q0 -70 15.5 -103t47.5 -45l-8 -55h1l-16 -112h-214q1 23 8.5 57t15.5 55h122l1 7q-44 32 -68 84
t-24 133q0 98 33 183.5t97 137.5t153 52q65 0 111 -30t70 -86.5t24 -135.5q0 -67 -19 -134.5t-57.5 -123t-92.5 -85.5v-2z" />
    <glyph glyph-name="uni03A9" unicode="&#x3c9;" 
d="M373 112h123q-3 -26 -9.5 -57.5t-15.5 -54.5h-199l1 8l2 13l12 91l8 54q44 14 71.5 58.5t39.5 102.5t12 116q0 81 -24 118t-69 37q-51 0 -85.5 -44t-50.5 -109.5t-16 -129.5q0 -70 15.5 -103t47.5 -45l-8 -55h1l-16 -112h-214q1 23 8.5 57t15.5 55h122l1 7q-44 32 -68 84
t-24 133q0 98 33 183.5t97 137.5t153 52q65 0 111 -30t70 -86.5t24 -135.5q0 -67 -19 -134.5t-57.5 -123t-92.5 -85.5v-2z" />
    <glyph glyph-name="uni03BC" unicode="&#x3bc;" 
d="M516 499l-70 -499h-114l2 74q-30 -42 -65 -64t-81 -22q-29 0 -49 7q0 -101 -8 -162l-7 -45h-122l100 711h125l-43 -312q-3 -19 -3 -34q0 -32 14.5 -47t48.5 -15q28 0 52.5 12t42.5 29l52 367h125z" />
    <glyph glyph-name="pi" unicode="&#x3c0;" 
d="M434 134q-1 -4 -1 -11q0 -16 8.5 -24t25.5 -8q20 0 36 6q-3 -22 -10.5 -50t-16.5 -50q-33 -9 -75 -9q-47 0 -71.5 26.5t-24.5 72.5q0 7 2 25l40 288h-125l-56 -400h-123l56 400h-66q6 50 24 99h510q-10 -57 -26 -99h-69z" />
    <glyph glyph-name="uni2099" unicode="&#x2099;" horiz-adv-x="407" 
d="M314 169q25 -30 25 -83q0 -19 -3 -40l-36 -258h-111l35 250q2 20 2 26q0 20 -8.5 29.5t-29.5 9.5q-17 0 -33.5 -8t-27.5 -20l-40 -287h-110l56 401h99v-54q18 32 44 48t60 16q53 0 78 -30z" />
    <glyph glyph-name="zero" unicode="0" 
d="M45 221q0 134 30 244t95 177.5t165 67.5q99 0 148 -57.5t49 -177.5q0 -133 -29.5 -244.5t-94.5 -179.5t-165 -68q-198 0 -198 238zM344 160.5q34 63.5 51 189.5q10 85 10 131q0 63 -17.5 89t-57.5 26q-62 0 -96 -65t-51 -192q-11 -79 -11 -130q0 -41 8 -65.5t24.5 -35.5
t43.5 -11q62 0 96 63.5z" />
    <glyph glyph-name="zero.pnum" horiz-adv-x="560" 
d="M99 41.5q-51 58.5 -51 179.5q0 134 29 244.5t94 177.5t167 67q100 0 150.5 -58.5t50.5 -181.5q0 -133 -29.5 -243t-94 -177t-164.5 -67q-101 0 -152 58.5zM351.5 163q34.5 66 50.5 196q9 71 9 124q0 61 -18 87t-58 26q-62 0 -97.5 -65.5t-52.5 -192.5q-9 -75 -9 -131
q0 -60 18 -85t59 -25q64 0 98.5 66z" />
    <glyph glyph-name="one" unicode="1" 
d="M291.5 692.5q79.5 16.5 156.5 17.5l-96 -710h-128l82 581q-51 -10 -102.5 -23.5t-89.5 -27.5q5 64 22 119q76 27 155.5 43.5z" />
    <glyph glyph-name="one.pnum" horiz-adv-x="383" 
d="M215.5 691q70.5 15 135.5 19l-98 -710h-126l81 577q-79 -19 -150 -43q6 64 23 121q64 21 134.5 36z" />
    <glyph glyph-name="two" unicode="2" 
d="M220.5 181q-31.5 -30 -45.5 -69h285q-2 -23 -9.5 -56.5t-16.5 -55.5h-412l7 47q9 67 36.5 118t70 91.5t105.5 81.5q46 29 74.5 54t44.5 54t16 66q0 43 -27 63.5t-80 20.5q-70 0 -153 -30q5 64 23 116q32 13 71.5 20.5t81.5 7.5q107 0 161 -49.5t54 -138.5
q0 -86 -50.5 -149.5t-140.5 -120.5q-64 -41 -95.5 -71z" />
    <glyph glyph-name="two.pnum" horiz-adv-x="477" 
d="M188.5 181q-31.5 -30 -45.5 -69h285q-2 -25 -9.5 -58t-16.5 -54h-412l7 47q9 67 36.5 118t70 91.5t105.5 81.5q46 29 74.5 54t44.5 54t16 66q0 43 -27 63.5t-80 20.5q-66 0 -149 -30q5 58 23 116q32 13 70 20.5t79 7.5q107 0 161 -49.5t54 -138.5q0 -86 -50.5 -149.5
t-140.5 -121.5q-64 -40 -95.5 -70z" />
    <glyph glyph-name="three" unicode="3" 
d="M447.5 304q28.5 -37 28.5 -96q0 -74 -38.5 -124.5t-106 -75.5t-153.5 -25q-91 0 -160 24q3 42 25 107q54 -18 124 -18q81 0 131 28.5t50 86.5q0 48 -35 68t-110 20h-84l16 107h76q76 0 120 29t44 86q0 75 -123 75q-67 0 -142 -21q1 20 7 52.5t15 59.5q31 11 69 17t74 6
q108 0 167.5 -45.5t59.5 -131.5q0 -60 -36 -108t-99 -69q52 -15 80.5 -52z" />
    <glyph glyph-name="three.pnum" horiz-adv-x="485" 
d="M411.5 304q27.5 -37 27.5 -96q0 -74 -37.5 -124.5t-102.5 -75.5t-147 -25q-91 0 -158 24q1 24 8 52.5t17 54.5q54 -18 122 -18q75 0 122.5 28.5t47.5 86.5q0 48 -33.5 68t-105.5 20h-79l16 107h71q72 0 115 29t43 86q0 37 -27 56t-85 19q-62 0 -137 -21q1 20 7 52.5
t15 59.5q31 11 68 17t70 6q102 0 159 -45.5t57 -131.5q0 -60 -35.5 -108t-97.5 -69q52 -15 79.5 -52z" />
    <glyph glyph-name="four" unicode="4" 
d="M508 166h-77l-22 -166h-118l23 166h-290q3 33 7 58t12 54q55 100 142.5 211t183.5 207q35 4 67 5t68 1l-58 -429h91q-12 -66 -29 -107zM329 273l39 277q-124 -134 -211 -277h172z" />
    <glyph glyph-name="four.pnum" horiz-adv-x="539" 
d="M519.5 217q-7.5 -29 -17.5 -51h-80l-22 -166h-118l23 166h-298q4 37 8 61t12 51q54 98 143 208t190 210q35 4 67 5t68 1l-58 -429h94q-4 -27 -11.5 -56zM320 273l39 278q-136 -144 -217 -278h178z" />
    <glyph glyph-name="five" unicode="5" 
d="M274 579l-28 -134q5 1 16 1q65 0 114 -22.5t75.5 -67t26.5 -107.5q0 -87 -36 -146.5t-102.5 -89.5t-157.5 -30q-86 0 -152 23q1 26 7.5 51t17.5 56q50 -16 117 -16q81 0 128.5 38t47.5 111q0 48 -33 70.5t-97 22.5q-59 0 -121 -16l75 369h355q-3 -25 -10.5 -58t-14.5 -55
h-228z" />
    <glyph glyph-name="five.pnum" horiz-adv-x="490" 
d="M249 579l-28 -134q5 1 16 1q65 0 114 -22.5t75.5 -67t26.5 -107.5q0 -87 -36 -146.5t-102.5 -89.5t-157.5 -30q-86 0 -152 23q1 26 7.5 51t17.5 56q50 -16 117 -16q81 0 128.5 38t47.5 111q0 48 -33 70.5t-97 22.5q-59 0 -121 -16l75 369h355q-3 -25 -10.5 -58t-14.5 -55
h-228z" />
    <glyph glyph-name="six" unicode="6" 
d="M434.5 431q38.5 -22 60 -65t21.5 -106q0 -78 -31 -141t-89 -99.5t-137 -36.5q-101 0 -156 59.5t-55 176.5q0 59 5 112q12 113 53.5 198t115 133t178.5 48q42 0 76.5 -8.5t56.5 -21.5q0 -21 -5.5 -50.5t-14.5 -57.5q-19 12 -48 18.5t-59 6.5q-66 0 -110 -23.5t-70.5 -71
t-40.5 -122.5q28 36 69 54.5t90 18.5q52 0 90.5 -22zM328 118.5q29 22.5 43.5 60t14.5 80.5t-22.5 63.5t-62.5 20.5q-33 0 -65.5 -15.5t-61.5 -43.5q-3 -34 -3 -59q0 -66 21 -97.5t67 -31.5q40 0 69 22.5z" />
    <glyph glyph-name="six.pnum" horiz-adv-x="555" 
d="M434.5 431q38.5 -22 60 -65t21.5 -106q0 -78 -31 -141t-89 -99.5t-137 -36.5q-101 0 -156 59.5t-55 176.5q0 59 5 112q12 113 53.5 198t115 133t178.5 48q42 0 76.5 -8.5t56.5 -21.5q0 -21 -5.5 -50.5t-14.5 -57.5q-19 12 -48 18.5t-59 6.5q-66 0 -110 -23.5t-70.5 -71
t-40.5 -122.5q28 36 69 54.5t90 18.5q52 0 90.5 -22zM328 118.5q29 22.5 43.5 60t14.5 80.5t-22.5 63.5t-62.5 20.5q-33 0 -65.5 -15.5t-61.5 -43.5q-3 -34 -3 -59q0 -66 21 -97.5t67 -31.5q40 0 69 22.5z" />
    <glyph glyph-name="seven" unicode="7" 
d="M568 692q-7 -60 -21 -101q-104 -136 -186 -286.5t-137 -304.5h-133q51 147 130.5 296t175.5 283h-307q4 27 11.5 60t14.5 53h452z" />
    <glyph glyph-name="seven.pnum" horiz-adv-x="469" 
d="M521 692q-7 -55 -22 -101q-186 -245 -308 -591h-133q53 156 127 304.5t165 274.5h-292q4 27 11.5 60t14.5 53h437z" />
    <glyph glyph-name="eight" unicode="8" 
d="M481 296.5q26 -40.5 26 -101.5q0 -63 -33 -111t-92 -75t-133 -27q-71 0 -122 20.5t-78 60.5t-27 96q0 66 40 114t108 73q-82 55 -82 155q0 64 30 111.5t85 72.5t127 25q65 0 112 -21t71 -58.5t24 -85.5q0 -62 -33.5 -107.5t-94.5 -74.5q46 -26 72 -66.5zM263.5 594
q-25.5 -14 -38 -36.5t-12.5 -49.5q0 -37 21.5 -60.5t62.5 -37.5l5 -2q111 47 111 127q0 32 -23 52.5t-65 20.5q-36 0 -61.5 -14zM319 100.5q30 13.5 46.5 38t16.5 55.5q0 35 -22.5 59.5t-75.5 44.5l-10 4q-59 -22 -91 -56.5t-32 -79.5q0 -39 26.5 -59t72.5 -20q39 0 69 13.5
z" />
    <glyph glyph-name="eight.pnum" horiz-adv-x="566" 
d="M489 296.5q26 -40.5 26 -101.5q0 -63 -33 -111t-92 -75t-133 -27q-71 0 -122 20.5t-78 60.5t-27 96q0 66 40 114t108 73q-82 55 -82 155q0 64 30 111.5t85 72.5t127 25q65 0 112 -21t71 -58.5t24 -85.5q0 -62 -33.5 -107.5t-94.5 -74.5q46 -26 72 -66.5zM271.5 594
q-25.5 -14 -38 -36.5t-12.5 -49.5q0 -37 21.5 -60.5t62.5 -37.5l5 -2q111 47 111 127q0 32 -23 52.5t-65 20.5q-36 0 -61.5 -14zM327 100.5q30 13.5 46.5 38t16.5 55.5q0 35 -22.5 59.5t-75.5 44.5l-10 4q-59 -22 -91 -56.5t-32 -79.5q0 -39 26.5 -59t72.5 -20q39 0 69 13.5
z" />
    <glyph glyph-name="nine" unicode="9" 
d="M474.5 651q54.5 -59 54.5 -177q0 -69 -4 -112q-12 -113 -53.5 -198t-115 -133t-178.5 -48q-42 0 -77 8.5t-57 21.5q1 22 6.5 51t14.5 57q18 -12 47.5 -18.5t59.5 -6.5q66 0 110 23.5t70.5 71.5t40.5 123q-28 -37 -68.5 -55.5t-90.5 -18.5q-52 0 -91 22t-60.5 65
t-21.5 106q0 78 31 141t89.5 99.5t137.5 36.5q101 0 155.5 -59zM404 409q3 35 3 59q0 66 -21.5 97.5t-66.5 31.5q-40 0 -69 -22.5t-44 -60t-15 -80.5t23 -63.5t62 -20.5q66 0 128 59z" />
    <glyph glyph-name="nine.pnum" horiz-adv-x="556" 
d="M480 651.5q55 -59.5 55 -176.5q0 -60 -5 -112q-12 -113 -53.5 -198t-115 -133t-178.5 -48q-42 0 -77 8.5t-57 21.5q1 22 6.5 51t14.5 57q19 -12 48 -18.5t59 -6.5q66 0 110 23.5t70.5 71t40.5 122.5q-28 -37 -69 -55.5t-90 -18.5q-52 0 -90.5 22t-60 65.5t-21.5 106.5
q0 78 30.5 141t89 99.5t137.5 36.5q101 0 156 -59.5zM409 410q3 35 3 59q0 66 -21.5 97.5t-66.5 31.5q-40 0 -69 -22.5t-44 -60t-15 -80.5t23 -63.5t62 -20.5q67 0 128 59z" />
    <glyph glyph-name="uni2080" unicode="&#x2080;" horiz-adv-x="396" 
d="M34 -195q-36 33 -36 101q0 107 45 169.5t134 62.5q67 0 103 -33t36 -101q0 -107 -45 -169.5t-134 -62.5q-67 0 -103 33zM172.5 -134.5q12.5 9.5 21.5 32.5t15 64q4 25 4 47q0 23 -9 33.5t-29 10.5q-19 0 -32.5 -9t-22.5 -32t-15 -64q-1 -7 -2.5 -22.5t-1.5 -24.5
q0 -45 39 -45q20 0 32.5 9.5z" />
    <glyph glyph-name="uni2081" unicode="&#x2081;" horiz-adv-x="271" 
d="M91 131q49 8 95 8l-47 -351h-98l35 256q-39 -8 -89 -21q2 27 5.5 47.5t11.5 40.5q38 12 87 20z" />
    <glyph glyph-name="uni2082" unicode="&#x2082;" horiz-adv-x="315" 
d="M84 -134h146q-2 -18 -7.5 -39.5t-11.5 -38.5h-251l4 28q5 33 13.5 54t29.5 39.5t61 38.5q34 16 50 26t24 21t8 27q0 20 -14.5 28t-51.5 8q-33 0 -84 -11q1 34 13 83q36 11 93 11q73 0 108.5 -28.5t35.5 -79.5q0 -43 -26.5 -75.5t-82.5 -57.5q-40 -19 -57 -34z" />
    <glyph glyph-name="uni2083" unicode="&#x2083;" horiz-adv-x="326" 
d="M220.5 -64.5q15.5 -18.5 15.5 -46.5q0 -56 -44.5 -84.5t-124.5 -28.5q-51 0 -104 14q0 16 4.5 37.5t11.5 38.5q22 -6 41 -8.5t41 -2.5q39 0 57 9t18 28q0 12 -7 18t-21.5 8t-40.5 2h-48l11 76h31q46 0 65.5 7t19.5 29q0 14 -11.5 21t-42.5 7q-25 0 -43.5 -2.5t-42.5 -7.5
q2 46 14 78q36 11 90 11q63 0 100.5 -22t37.5 -67q0 -69 -78 -89q35 -7 50.5 -25.5z" />
    <glyph glyph-name="uni2084" unicode="&#x2084;" horiz-adv-x="339" 
d="M261 -156h-41l-8 -59h-86l8 59h-173q3 24 6 44t9 41q32 48 84 106t101 99q22 3 46.5 4t51.5 1l-29 -215h52q-6 -41 -21 -80zM145 -76l15 109q-60 -57 -98 -109h83z" />
    <glyph glyph-name="uni2085" unicode="&#x2085;" horiz-adv-x="343" 
d="M126 49l-8 -38q66 -1 104.5 -26.5t38.5 -74.5q0 -69 -48.5 -101.5t-134.5 -32.5q-29 0 -56.5 4.5t-47.5 12.5q1 31 18 77q34 -11 77 -11q48 0 68.5 10t20.5 31q0 13 -6.5 20t-23 10.5t-47.5 3.5q-36 0 -73 -7l42 205h232q-2 -19 -7 -43t-12 -40h-137z" />
    <glyph glyph-name="uni2086" unicode="&#x2086;" horiz-adv-x="385" 
d="M267.5 -11.5q31.5 -27.5 31.5 -74.5q0 -40 -16.5 -72t-51 -50.5t-84.5 -18.5q-71 0 -110 38t-39 108q0 12 2 42q27 181 203 181q30 0 57 -6t45 -15q1 -16 -3.5 -37.5t-11.5 -38.5q-17 7 -40.5 11.5t-45.5 4.5q-43 0 -66 -18.5t-33 -55.5q15 14 35.5 21.5t44.5 7.5
q51 0 82.5 -27.5zM186.5 -133q13.5 15 13.5 37q0 17 -11 26.5t-30 9.5q-34 0 -65 -24q-1 -4 -1 -12q0 -25 13.5 -38.5t36.5 -13.5q30 0 43.5 15z" />
    <glyph glyph-name="uni2087" unicode="&#x2087;" horiz-adv-x="308" 
d="M280 130q-1 -17 -5.5 -39t-10.5 -42q-112 -129 -163 -261h-103q23 66 62 133.5t87 126.5h-163q2 18 7 43t11 39h278z" />
    <glyph glyph-name="uni2088" unicode="&#x2088;" horiz-adv-x="399" 
d="M292.5 -65q13.5 -19 13.5 -48q0 -54 -44 -82.5t-121 -28.5q-74 0 -113.5 24t-39.5 67q0 31 18 53t61 33q-22 14 -34 33.5t-12 44.5q0 51 39.5 81t113.5 30q70 0 107 -25.5t37 -68.5q0 -29 -17 -48.5t-50 -31.5q28 -14 41.5 -33zM130.5 59q-13.5 -10 -13.5 -25
q0 -13 12 -22.5t36 -15.5l4 -1q27 7 40.5 18t13.5 27q0 12 -12 20.5t-37 8.5q-30 0 -43.5 -10zM194 -139.5q16 10.5 16 25.5q0 13 -9.5 19.5t-36.5 14.5l-18 5q-28 -8 -43.5 -20t-15.5 -26q0 -29 57 -29q34 0 50 10.5z" />
    <glyph glyph-name="uni2089" unicode="&#x2089;" horiz-adv-x="385" 
d="M265.5 106q39.5 -38 39.5 -107q0 -20 -3 -43q-12 -85 -61 -132.5t-141 -47.5q-31 0 -57.5 5.5t-45.5 14.5q-1 15 3.5 36.5t11.5 40.5q17 -7 40.5 -11.5t45.5 -4.5q44 0 67 18t33 55q-15 -13 -36 -20.5t-45 -7.5q-51 0 -82 27t-31 75q0 39 16.5 71t50.5 50.5t84 18.5
q71 0 110.5 -38zM113 -13.5q11 -9.5 31 -9.5q31 0 65 23v13q0 25 -13 39t-37 14q-29 0 -43 -15.5t-14 -36.5q0 -18 11 -27.5z" />
    <glyph glyph-name="zero.dnom" horiz-adv-x="396" 
d="M64 21q-36 33 -36 101q0 107 45 169.5t134 62.5q67 0 103 -33t36 -101q0 -107 -45 -169.5t-134 -62.5q-67 0 -103 33zM202.5 81.5q12.5 9.5 21.5 32.5t15 64q4 25 4 47q0 23 -9 33.5t-29 10.5q-19 0 -32.5 -9t-22.5 -32t-15 -64q-1 -7 -2.5 -22.5t-1.5 -24.5
q0 -45 39 -45q20 0 32.5 9.5z" />
    <glyph glyph-name="one.dnom" horiz-adv-x="271" 
d="M121 343q49 8 95 8l-47 -351h-98l35 256q-39 -8 -89 -21q2 27 5.5 47.5t11.5 40.5q38 12 87 20z" />
    <glyph glyph-name="two.dnom" horiz-adv-x="315" 
d="M114 78h146q-2 -18 -7.5 -39.5t-11.5 -38.5h-251l4 28q5 33 13.5 54t29.5 39.5t61 38.5q34 16 50 26t24 21t8 27q0 20 -14.5 28t-51.5 8q-33 0 -84 -11q1 34 13 83q36 11 93 11q73 0 108.5 -28.5t35.5 -79.5q0 -43 -26.5 -75.5t-82.5 -57.5q-40 -19 -57 -34z" />
    <glyph glyph-name="three.dnom" horiz-adv-x="326" 
d="M250.5 147.5q15.5 -18.5 15.5 -46.5q0 -56 -44.5 -84.5t-124.5 -28.5q-51 0 -104 14q0 16 4.5 37.5t11.5 38.5q22 -6 41 -8.5t41 -2.5q39 0 57 9t18 28q0 12 -7 18t-21.5 8t-40.5 2h-48l11 76h31q46 0 65.5 7t19.5 29q0 14 -11.5 21t-42.5 7q-25 0 -43.5 -2.5t-42.5 -7.5
q2 46 14 78q36 11 90 11q63 0 100.5 -22t37.5 -67q0 -69 -78 -89q35 -7 50.5 -25.5z" />
    <glyph glyph-name="four.dnom" horiz-adv-x="339" 
d="M291 56h-41l-8 -59h-86l8 59h-173q3 24 6 44t9 41q32 48 84 106t101 99q22 3 46.5 4t51.5 1l-29 -215h52q-6 -41 -21 -80zM175 136l15 109q-60 -57 -98 -109h83z" />
    <glyph glyph-name="five.dnom" horiz-adv-x="343" 
d="M156 261l-8 -38q66 -1 104.5 -26.5t38.5 -74.5q0 -69 -48.5 -101.5t-134.5 -32.5q-29 0 -56.5 4.5t-47.5 12.5q1 31 18 77q34 -11 77 -11q48 0 68.5 10t20.5 31q0 13 -6.5 20t-23 10.5t-47.5 3.5q-36 0 -73 -7l42 205h232q-2 -19 -7 -43t-12 -40h-137z" />
    <glyph glyph-name="six.dnom" horiz-adv-x="385" 
d="M297.5 200.5q31.5 -27.5 31.5 -74.5q0 -40 -16.5 -72t-51 -50.5t-84.5 -18.5q-71 0 -110 38t-39 108q0 12 2 42q27 181 203 181q30 0 57 -6t45 -15q1 -16 -3.5 -37.5t-11.5 -38.5q-17 7 -40.5 11.5t-45.5 4.5q-43 0 -66 -18.5t-33 -55.5q15 14 35.5 21.5t44.5 7.5
q51 0 82.5 -27.5zM216.5 79q13.5 15 13.5 37q0 17 -11 26.5t-30 9.5q-34 0 -65 -24q-1 -4 -1 -12q0 -25 13.5 -38.5t36.5 -13.5q30 0 43.5 15z" />
    <glyph glyph-name="seven.dnom" horiz-adv-x="308" 
d="M310 342q-1 -17 -5.5 -39t-10.5 -42q-112 -129 -163 -261h-103q23 66 62 133.5t87 126.5h-163q2 18 7 43t11 39h278z" />
    <glyph glyph-name="eight.dnom" horiz-adv-x="399" 
d="M322.5 147q13.5 -19 13.5 -48q0 -54 -44 -82.5t-121 -28.5q-74 0 -113.5 24t-39.5 67q0 31 18 53t61 33q-22 14 -34 33.5t-12 44.5q0 51 39.5 81t113.5 30q70 0 107 -25.5t37 -68.5q0 -29 -17 -48.5t-50 -31.5q28 -14 41.5 -33zM160.5 271q-13.5 -10 -13.5 -25
q0 -13 12 -22.5t36 -15.5l4 -1q27 7 40.5 18t13.5 27q0 12 -12 20.5t-37 8.5q-30 0 -43.5 -10zM224 72.5q16 10.5 16 25.5q0 13 -9.5 19.5t-36.5 14.5l-18 5q-28 -8 -43.5 -20t-15.5 -26q0 -29 57 -29q34 0 50 10.5z" />
    <glyph glyph-name="nine.dnom" horiz-adv-x="385" 
d="M295.5 318q39.5 -38 39.5 -107q0 -20 -3 -43q-12 -85 -61 -132.5t-141 -47.5q-31 0 -57.5 5.5t-45.5 14.5q-1 15 3.5 36.5t11.5 40.5q17 -7 40.5 -11.5t45.5 -4.5q44 0 67 18t33 55q-15 -13 -36 -20.5t-45 -7.5q-51 0 -82 27t-31 75q0 39 16.5 71t50.5 50.5t84 18.5
q71 0 110.5 -38zM143 198.5q11 -9.5 31 -9.5q31 0 65 23v13q0 25 -13 39t-37 14q-29 0 -43 -15.5t-14 -36.5q0 -18 11 -27.5z" />
    <glyph glyph-name="zero.numr" horiz-adv-x="396" 
d="M112 365q-36 33 -36 101q0 107 45 169.5t134 62.5q67 0 103 -33t36 -101q0 -107 -45 -169.5t-134 -62.5q-67 0 -103 33zM250.5 425.5q12.5 9.5 21.5 32.5t15 64q4 25 4 47q0 23 -9 33.5t-29 10.5q-19 0 -32.5 -9t-22.5 -32t-15 -64q-1 -7 -2.5 -22.5t-1.5 -24.5
q0 -45 39 -45q20 0 32.5 9.5z" />
    <glyph glyph-name="one.numr" horiz-adv-x="271" 
d="M169 687q49 8 95 8l-47 -351h-98l35 256q-39 -8 -89 -21q2 27 5.5 47.5t11.5 40.5q38 12 87 20z" />
    <glyph glyph-name="two.numr" horiz-adv-x="315" 
d="M162 422h146q-2 -18 -7.5 -39.5t-11.5 -38.5h-251l4 28q5 33 13.5 54t29.5 39.5t61 38.5q34 16 50 26t24 21t8 27q0 20 -14.5 28t-51.5 8q-33 0 -84 -11q1 34 13 83q36 11 93 11q73 0 108.5 -28.5t35.5 -79.5q0 -43 -26.5 -75.5t-82.5 -57.5q-40 -19 -57 -34z" />
    <glyph glyph-name="three.numr" horiz-adv-x="326" 
d="M298.5 491.5q15.5 -18.5 15.5 -46.5q0 -56 -44.5 -84.5t-124.5 -28.5q-51 0 -104 14q0 16 4.5 37.5t11.5 38.5q22 -6 41 -8.5t41 -2.5q39 0 57 9t18 28q0 12 -7 18t-21.5 8t-40.5 2h-48l11 76h31q46 0 65.5 7t19.5 29q0 14 -11.5 21t-42.5 7q-25 0 -43.5 -2.5t-42.5 -7.5
q2 46 14 78q36 11 90 11q63 0 100.5 -22t37.5 -67q0 -69 -78 -89q35 -7 50.5 -25.5z" />
    <glyph glyph-name="four.numr" horiz-adv-x="339" 
d="M336 400h-41l-8 -59h-86l8 59h-173q3 24 6 44t9 41q32 48 84 106t101 99q22 3 46.5 4t51.5 1l-29 -215h52q-6 -41 -21 -80zM220 480l15 109q-60 -57 -98 -109h83z" />
    <glyph glyph-name="five.numr" horiz-adv-x="343" 
d="M204 605l-8 -38q66 -1 104.5 -26.5t38.5 -74.5q0 -69 -48.5 -101.5t-134.5 -32.5q-29 0 -56.5 4.5t-47.5 12.5q1 31 18 77q34 -11 77 -11q48 0 68.5 10t20.5 31q0 13 -6.5 20t-23 10.5t-47.5 3.5q-36 0 -73 -7l42 205h232q-2 -19 -7 -43t-12 -40h-137z" />
    <glyph glyph-name="six.numr" horiz-adv-x="385" 
d="M345.5 544.5q31.5 -27.5 31.5 -74.5q0 -40 -16.5 -72t-51 -50.5t-84.5 -18.5q-71 0 -110 38t-39 108q0 12 2 42q27 181 203 181q30 0 57 -6t45 -15q1 -16 -3.5 -37.5t-11.5 -38.5q-17 7 -40.5 11.5t-45.5 4.5q-43 0 -66 -18.5t-33 -55.5q15 14 35.5 21.5t44.5 7.5
q51 0 82.5 -27.5zM264.5 423q13.5 15 13.5 37q0 17 -11 26.5t-30 9.5q-34 0 -65 -24q-1 -4 -1 -12q0 -25 13.5 -38.5t36.5 -13.5q30 0 43.5 15z" />
    <glyph glyph-name="seven.numr" horiz-adv-x="308" 
d="M358 686q-1 -17 -5.5 -39t-10.5 -42q-112 -129 -163 -261h-103q23 66 62 133.5t87 126.5h-163q2 18 7 43t11 39h278z" />
    <glyph glyph-name="eight.numr" horiz-adv-x="399" 
d="M370.5 491q13.5 -19 13.5 -48q0 -54 -44 -82.5t-121 -28.5q-74 0 -113.5 24t-39.5 67q0 31 18 53t61 33q-22 14 -34 33.5t-12 44.5q0 51 39.5 81t113.5 30q70 0 107 -25.5t37 -68.5q0 -29 -17 -48.5t-50 -31.5q28 -14 41.5 -33zM208.5 615q-13.5 -10 -13.5 -25
q0 -13 12 -22.5t36 -15.5l4 -1q27 7 40.5 18t13.5 27q0 12 -12 20.5t-37 8.5q-30 0 -43.5 -10zM272 416.5q16 10.5 16 25.5q0 13 -9.5 19.5t-36.5 14.5l-18 5q-28 -8 -43.5 -20t-15.5 -26q0 -29 57 -29q34 0 50 10.5z" />
    <glyph glyph-name="nine.numr" horiz-adv-x="385" 
d="M343.5 662q39.5 -38 39.5 -107q0 -20 -3 -43q-12 -85 -61 -132.5t-141 -47.5q-31 0 -57.5 5.5t-45.5 14.5q-1 15 3.5 36.5t11.5 40.5q17 -7 40.5 -11.5t45.5 -4.5q44 0 67 18t33 55q-15 -13 -36 -20.5t-45 -7.5q-51 0 -82 27t-31 75q0 39 16.5 71t50.5 50.5t84 18.5
q71 0 110.5 -38zM191 542.5q11 -9.5 31 -9.5q31 0 65 23v13q0 25 -13 39t-37 14q-29 0 -43 -15.5t-14 -36.5q0 -18 11 -27.5z" />
    <glyph glyph-name="uni2070" unicode="&#x2070;" horiz-adv-x="396" 
d="M130 488q-36 33 -36 101q0 107 45 169.5t134 62.5q67 0 103 -33t36 -101q0 -107 -45 -169.5t-134 -62.5q-67 0 -103 33zM268.5 548.5q12.5 9.5 21.5 32.5t15 64q4 25 4 47q0 23 -9 33.5t-29 10.5q-19 0 -32.5 -9t-22.5 -32t-15 -64q-1 -7 -2.5 -22.5t-1.5 -24.5
q0 -45 39 -45q20 0 32.5 9.5z" />
    <glyph glyph-name="uni00B9" unicode="&#xb9;" horiz-adv-x="271" 
d="M187 810q49 8 95 8l-47 -351h-98l35 256q-39 -8 -89 -21q2 27 5.5 47.5t11.5 40.5q38 12 87 20z" />
    <glyph glyph-name="uni00B2" unicode="&#xb2;" horiz-adv-x="315" 
d="M180 545h146q-2 -18 -7.5 -39.5t-11.5 -38.5h-251l4 28q5 33 13.5 54t29.5 39.5t61 38.5q34 16 50 26t24 21t8 27q0 20 -14.5 28t-51.5 8q-33 0 -84 -11q1 34 13 83q36 11 93 11q73 0 108.5 -28.5t35.5 -79.5q0 -43 -26.5 -75.5t-82.5 -57.5q-40 -19 -57 -34z" />
    <glyph glyph-name="uni00B3" unicode="&#xb3;" horiz-adv-x="326" 
d="M316.5 614.5q15.5 -18.5 15.5 -46.5q0 -56 -44.5 -84.5t-124.5 -28.5q-51 0 -104 14q0 16 4.5 37.5t11.5 38.5q22 -6 41 -8.5t41 -2.5q39 0 57 9t18 28q0 12 -7 18t-21.5 8t-40.5 2h-48l11 76h31q46 0 65.5 7t19.5 29q0 14 -11.5 21t-42.5 7q-25 0 -43.5 -2.5t-42.5 -7.5
q2 46 14 78q36 11 90 11q63 0 100.5 -22t37.5 -67q0 -69 -78 -89q35 -7 50.5 -25.5z" />
    <glyph glyph-name="uni2074" unicode="&#x2074;" horiz-adv-x="339" 
d="M357 523h-41l-8 -59h-86l8 59h-173q3 24 6 44t9 41q32 48 84 106t101 99q22 3 46.5 4t51.5 1l-29 -215h52q-6 -41 -21 -80zM241 603l15 109q-60 -57 -98 -109h83z" />
    <glyph glyph-name="uni2075" unicode="&#x2075;" horiz-adv-x="343" 
d="M222 728l-8 -38q66 -1 104.5 -26.5t38.5 -74.5q0 -69 -48.5 -101.5t-134.5 -32.5q-29 0 -56.5 4.5t-47.5 12.5q1 31 18 77q34 -11 77 -11q48 0 68.5 10t20.5 31q0 13 -6.5 20t-23 10.5t-47.5 3.5q-36 0 -73 -7l42 205h232q-2 -19 -7 -43t-12 -40h-137z" />
    <glyph glyph-name="uni2076" unicode="&#x2076;" horiz-adv-x="385" 
d="M363.5 667.5q31.5 -27.5 31.5 -74.5q0 -40 -16.5 -72t-51 -50.5t-84.5 -18.5q-71 0 -110 38t-39 108q0 12 2 42q27 181 203 181q30 0 57 -6t45 -15q1 -16 -3.5 -37.5t-11.5 -38.5q-17 7 -40.5 11.5t-45.5 4.5q-43 0 -66 -18.5t-33 -55.5q15 14 35.5 21.5t44.5 7.5
q51 0 82.5 -27.5zM282.5 546q13.5 15 13.5 37q0 17 -11 26.5t-30 9.5q-34 0 -65 -24q-1 -4 -1 -12q0 -25 13.5 -38.5t36.5 -13.5q30 0 43.5 15z" />
    <glyph glyph-name="uni2077" unicode="&#x2077;" horiz-adv-x="308" 
d="M376 809q-1 -17 -5.5 -39t-10.5 -42q-112 -129 -163 -261h-103q23 66 62 133.5t87 126.5h-163q2 18 7 43t11 39h278z" />
    <glyph glyph-name="uni2078" unicode="&#x2078;" horiz-adv-x="399" 
d="M388.5 614q13.5 -19 13.5 -48q0 -54 -44 -82.5t-121 -28.5q-74 0 -113.5 24t-39.5 67q0 31 18 53t61 33q-22 14 -34 33.5t-12 44.5q0 51 39.5 81t113.5 30q70 0 107 -25.5t37 -68.5q0 -29 -17 -48.5t-50 -31.5q28 -14 41.5 -33zM226.5 738q-13.5 -10 -13.5 -25
q0 -13 12 -22.5t36 -15.5l4 -1q27 7 40.5 18t13.5 27q0 12 -12 20.5t-37 8.5q-30 0 -43.5 -10zM290 539.5q16 10.5 16 25.5q0 13 -9.5 19.5t-36.5 14.5l-18 5q-28 -8 -43.5 -20t-15.5 -26q0 -29 57 -29q34 0 50 10.5z" />
    <glyph glyph-name="uni2079" unicode="&#x2079;" horiz-adv-x="385" 
d="M361.5 785q39.5 -38 39.5 -107q0 -20 -3 -43q-12 -85 -61 -132.5t-141 -47.5q-31 0 -57.5 5.5t-45.5 14.5q-1 15 3.5 36.5t11.5 40.5q17 -7 40.5 -11.5t45.5 -4.5q44 0 67 18t33 55q-15 -13 -36 -20.5t-45 -7.5q-51 0 -82 27t-31 75q0 39 16.5 71t50.5 50.5t84 18.5
q71 0 110.5 -38zM209 665.5q11 -9.5 31 -9.5q31 0 65 23v13q0 25 -13 39t-37 14q-29 0 -43 -15.5t-14 -36.5q0 -18 11 -27.5z" />
    <glyph glyph-name="fraction" unicode="&#x2044;" horiz-adv-x="238" 
d="M257 692q28 4 54 6.5t57 3.5l-362 -702q-56 -9 -109 -10z" />
    <glyph glyph-name="onehalf" unicode="&#xbd;" horiz-adv-x="756" 
d="M169 687q49 8 95 8l-47 -351h-98l35 256q-39 -8 -89 -21q2 27 5.5 47.5t11.5 40.5q38 12 87 20zM452 692q28 4 54 6.5t57 3.5l-362 -702q-56 -9 -109 -10zM518 78h146q-2 -18 -7.5 -39.5t-11.5 -38.5h-251l4 28q5 33 13.5 54t29.5 39.5t61 38.5q34 16 50 26t24 21t8 27
q0 20 -14.5 28t-51.5 8q-33 0 -84 -11q1 34 13 83q36 11 93 11q73 0 108.5 -28.5t35.5 -79.5q0 -43 -26.5 -75.5t-82.5 -57.5q-40 -19 -57 -34z" />
    <glyph glyph-name="onequarter" unicode="&#xbc;" horiz-adv-x="741" 
d="M169 687q49 8 95 8l-47 -351h-98l35 256q-39 -8 -89 -21q2 27 5.5 47.5t11.5 40.5q38 12 87 20zM459 692q28 4 54 6.5t57 3.5l-362 -702q-56 -9 -109 -10zM637 56h-41l-8 -59h-86l8 59h-173q3 24 6 44t9 41q32 48 84 106t101 99q22 3 46.5 4t51.5 1l-29 -215h52
q-6 -41 -21 -80zM521 136l15 109q-60 -57 -98 -109h83z" />
    <glyph glyph-name="threequarters" unicode="&#xbe;" horiz-adv-x="766" 
d="M298.5 491.5q15.5 -18.5 15.5 -46.5q0 -56 -44.5 -84.5t-124.5 -28.5q-51 0 -104 14q0 16 4.5 37.5t11.5 38.5q22 -6 41 -8.5t41 -2.5q39 0 57 9t18 28q0 12 -7 18t-21.5 8t-40.5 2h-48l11 76h31q46 0 65.5 7t19.5 29q0 14 -11.5 21t-42.5 7q-25 0 -43.5 -2.5t-42.5 -7.5
q2 46 14 78q36 11 90 11q63 0 100.5 -22t37.5 -67q0 -69 -78 -89q35 -7 50.5 -25.5zM520 692q28 4 54 6.5t57 3.5l-362 -702q-56 -9 -109 -10zM691 56h-41l-8 -59h-86l8 59h-173q3 24 6 44t9 41q32 48 84 106t101 99q22 3 46.5 4t51.5 1l-29 -215h52q-6 -41 -21 -80z
M575 136l15 109q-60 -57 -98 -109h83z" />
    <glyph glyph-name="oneeighth" unicode="&#x215b;" horiz-adv-x="809" 
d="M169 687q49 8 95 8l-47 -351h-98l35 256q-39 -8 -89 -21q2 27 5.5 47.5t11.5 40.5q38 12 87 20zM461 692q28 4 54 6.5t57 3.5l-362 -702q-56 -9 -109 -10zM706.5 147q13.5 -19 13.5 -48q0 -54 -44 -82.5t-121 -28.5q-74 0 -113.5 24t-39.5 67q0 31 18 53t61 33
q-22 14 -34 33.5t-12 44.5q0 51 39.5 81t113.5 30q70 0 107 -25.5t37 -68.5q0 -29 -17 -48.5t-50 -31.5q28 -14 41.5 -33zM544.5 271q-13.5 -10 -13.5 -25q0 -13 12 -22.5t36 -15.5l4 -1q27 7 40.5 18t13.5 27q0 12 -12 20.5t-37 8.5q-30 0 -43.5 -10zM608 72.5
q16 10.5 16 25.5q0 13 -9.5 19.5t-36.5 14.5l-18 5q-28 -8 -43.5 -20t-15.5 -26q0 -29 57 -29q34 0 50 10.5z" />
    <glyph glyph-name="threeeighths" unicode="&#x215c;" horiz-adv-x="834" 
d="M298.5 491.5q15.5 -18.5 15.5 -46.5q0 -56 -44.5 -84.5t-124.5 -28.5q-51 0 -104 14q0 16 4.5 37.5t11.5 38.5q22 -6 41 -8.5t41 -2.5q39 0 57 9t18 28q0 12 -7 18t-21.5 8t-40.5 2h-48l11 76h31q46 0 65.5 7t19.5 29q0 14 -11.5 21t-42.5 7q-25 0 -43.5 -2.5t-42.5 -7.5
q2 46 14 78q36 11 90 11q63 0 100.5 -22t37.5 -67q0 -69 -78 -89q35 -7 50.5 -25.5zM518 692q28 4 54 6.5t57 3.5l-362 -702q-56 -9 -109 -10zM760.5 147q13.5 -19 13.5 -48q0 -54 -44 -82.5t-121 -28.5q-74 0 -113.5 24t-39.5 67q0 31 18 53t61 33q-22 14 -34 33.5
t-12 44.5q0 51 39.5 81t113.5 30q70 0 107 -25.5t37 -68.5q0 -29 -17 -48.5t-50 -31.5q28 -14 41.5 -33zM598.5 271q-13.5 -10 -13.5 -25q0 -13 12 -22.5t36 -15.5l4 -1q27 7 40.5 18t13.5 27q0 12 -12 20.5t-37 8.5q-30 0 -43.5 -10zM662 72.5q16 10.5 16 25.5
q0 13 -9.5 19.5t-36.5 14.5l-18 5q-28 -8 -43.5 -20t-15.5 -26q0 -29 57 -29q34 0 50 10.5z" />
    <glyph glyph-name="fiveeighths" unicode="&#x215d;" horiz-adv-x="841" 
d="M204 605l-8 -38q66 -1 104.5 -26.5t38.5 -74.5q0 -69 -48.5 -101.5t-134.5 -32.5q-29 0 -56.5 4.5t-47.5 12.5q1 31 18 77q34 -11 77 -11q48 0 68.5 10t20.5 31q0 13 -6.5 20t-23 10.5t-47.5 3.5q-36 0 -73 -7l42 205h232q-2 -19 -7 -43t-12 -40h-137zM529 692
q28 4 54 6.5t57 3.5l-362 -702q-56 -9 -109 -10zM771.5 147q13.5 -19 13.5 -48q0 -54 -44 -82.5t-121 -28.5q-74 0 -113.5 24t-39.5 67q0 31 18 53t61 33q-22 14 -34 33.5t-12 44.5q0 51 39.5 81t113.5 30q70 0 107 -25.5t37 -68.5q0 -29 -17 -48.5t-50 -31.5
q28 -14 41.5 -33zM609.5 271q-13.5 -10 -13.5 -25q0 -13 12 -22.5t36 -15.5l4 -1q27 7 40.5 18t13.5 27q0 12 -12 20.5t-37 8.5q-30 0 -43.5 -10zM673 72.5q16 10.5 16 25.5q0 13 -9.5 19.5t-36.5 14.5l-18 5q-28 -8 -43.5 -20t-15.5 -26q0 -29 57 -29q34 0 50 10.5z" />
    <glyph glyph-name="seveneighths" unicode="&#x215e;" horiz-adv-x="722" 
d="M358 686q-1 -17 -5.5 -39t-10.5 -42q-112 -129 -163 -261h-103q23 66 62 133.5t87 126.5h-163q2 18 7 43t11 39h278zM453 692q28 4 54 6.5t57 3.5l-362 -702q-56 -9 -109 -10zM675.5 147q13.5 -19 13.5 -48q0 -54 -44 -82.5t-121 -28.5q-74 0 -113.5 24t-39.5 67
q0 31 18 53t61 33q-22 14 -34 33.5t-12 44.5q0 51 39.5 81t113.5 30q70 0 107 -25.5t37 -68.5q0 -29 -17 -48.5t-50 -31.5q28 -14 41.5 -33zM513.5 271q-13.5 -10 -13.5 -25q0 -13 12 -22.5t36 -15.5l4 -1q27 7 40.5 18t13.5 27q0 12 -12 20.5t-37 8.5q-30 0 -43.5 -10z
M577 72.5q16 10.5 16 25.5q0 13 -9.5 19.5t-36.5 14.5l-18 5q-28 -8 -43.5 -20t-15.5 -26q0 -29 57 -29q34 0 50 10.5z" />
    <glyph glyph-name="period" unicode="." horiz-adv-x="271" 
d="M69 0.5q-18 10.5 -28.5 28.5t-10.5 40t10.5 40t28.5 28.5t41 10.5t41 -10.5t28 -28.5t10 -40t-10 -40t-28 -28.5t-41 -10.5t-41 10.5z" />
    <glyph glyph-name="comma" unicode="," horiz-adv-x="271" 
d="M26.5 -17.5q12.5 58.5 23.5 129.5q29 7 50.5 10.5t44.5 3.5q10 0 34 -2q-16 -92 -38 -155.5t-62 -119.5l-84 7q19 68 31.5 126.5z" />
    <glyph glyph-name="colon" unicode=":" horiz-adv-x="271" 
d="M69 0.5q-18 10.5 -28.5 28.5t-10.5 40t10.5 40t28.5 28.5t41 10.5t41 -10.5t28 -28.5t10 -40t-10 -40t-28 -28.5t-41 -10.5t-41 10.5zM115 328.5q-18 10.5 -28.5 28.5t-10.5 40t10.5 40t28.5 28.5t41 10.5t41 -10.5t28 -28.5t10 -40t-10 -40t-28 -28.5t-41 -10.5
t-41 10.5z" />
    <glyph glyph-name="colon.aalt" horiz-adv-x="274" 
d="M85 95.5q-18 10.5 -28.5 28.5t-10.5 40t10.5 40t28.5 28.5t41 10.5t41 -10.5t28 -28.5t10 -40t-10 -40t-28 -28.5t-41 -10.5t-41 10.5zM132 443.5q-18 10.5 -28.5 28.5t-10.5 40t10.5 40t28.5 28.5t41 10.5t41 -10.5t28 -28.5t10 -40t-10 -40t-28 -28.5t-41 -10.5
t-41 10.5z" />
    <glyph glyph-name="semicolon" unicode=";" horiz-adv-x="271" 
d="M35.5 -17.5q12.5 58.5 23.5 129.5q29 7 50.5 10.5t44.5 3.5q10 0 34 -2q-16 -92 -38 -155.5t-62 -119.5l-84 7q19 68 31.5 126.5zM111 328.5q-18 10.5 -28.5 28.5t-10.5 40t10.5 40t28.5 28.5t41 10.5t41 -10.5t28 -28.5t10 -40t-10 -40t-28 -28.5t-41 -10.5t-41 10.5z
" />
    <glyph glyph-name="ellipsis" unicode="&#x2026;" horiz-adv-x="828" 
d="M94 1q-17 10 -27 27t-10 37q0 21 10 38.5t27 27.5t39 10t39 -10t27 -27.5t10 -38.5q0 -20 -10 -37t-27 -27t-39 -10t-39 10zM351 1q-17 10 -27 27t-10 37q0 21 10 38.5t27 27.5t39 10q21 0 38 -10t27 -27.5t10 -38.5q0 -20 -10 -37t-27 -27t-38 -10q-22 0 -39 10zM604 1
q-17 10 -27 27t-10 37q0 21 10 38.5t27 27.5t39 10t39 -10t26.5 -27.5t9.5 -38.5q0 -20 -9.5 -37t-26.5 -27t-39 -10t-39 10z" />
    <glyph glyph-name="exclam" unicode="!" horiz-adv-x="317" 
d="M148 693q29 7 67.5 12t66.5 5l-78 -474h-104zM95 1q-17 10 -26.5 26.5t-9.5 36.5t9.5 37t26.5 27t38 10t38 -10t26.5 -27t9.5 -37t-9.5 -36.5t-26.5 -26.5t-38 -10t-38 10z" />
    <glyph glyph-name="exclamdown" unicode="&#xa1;" horiz-adv-x="316" 
d="M220 500q17 -10 26.5 -26.5t9.5 -36.5t-9.5 -37t-26.5 -27t-38 -10t-37.5 10t-26 27t-9.5 37t9.5 36.5t26 26.5t37.5 10t38 -10zM168 -192q-28 -7 -67 -11.5t-68 -4.5l79 473h104z" />
    <glyph glyph-name="glyph367" horiz-adv-x="317" 
d="M248 699q17 -10 26.5 -26.5t9.5 -36.5t-9.5 -37t-26.5 -27t-38 -10t-37.5 10t-26 27t-9.5 37t9.5 36.5t26 26.5t37.5 10t38 -10zM196 7q-28 -7 -67 -11.5t-68 -4.5l79 473h104z" />
    <glyph glyph-name="question" unicode="?" horiz-adv-x="433" 
d="M121 265q6 47 28.5 79t65.5 65q43 28 65 54t27 62q1 4 1 13q0 60 -93 60q-32 0 -67.5 -7t-65.5 -18q1 18 5.5 44t8 43t5.5 26q61 23 140 23q98 0 148.5 -41.5t50.5 -114.5q0 -22 -2 -33q-6 -39 -23.5 -69.5t-44.5 -55.5t-69 -54q-33 -18 -49.5 -31t-25.5 -29t-11 -41
q-1 -2 -2.5 -6t-2.5 -6h-91q0 24 2 37zM89 1q-16 10 -25.5 27t-9.5 37t9.5 37t25.5 27t37 10t37 -10t25.5 -27t9.5 -37t-9.5 -37t-25.5 -27t-37 -10t-37 10z" />
    <glyph glyph-name="questiondown" unicode="&#xbf;" horiz-adv-x="433" 
d="M345 500q16 -10 25.5 -27t9.5 -37t-9.5 -37t-25.5 -27t-37 -10t-37 10t-25.5 27t-9.5 37t9.5 37t25.5 27t37 10t37 -10zM313 236q-7 -47 -29.5 -79.5t-65.5 -64.5q-43 -28 -64.5 -53.5t-26.5 -61.5q-1 -5 -1 -13q0 -61 93 -61q32 0 67 7.5t66 18.5q-1 -21 -7 -52.5
t-13 -60.5q-62 -24 -139 -24q-98 0 -148.5 41.5t-50.5 114.5q0 22 2 33q6 39 23.5 69.5t44.5 55.5t69 54q34 19 50 31.5t25 28.5t11 41q0 2 1.5 6t2.5 6h92q0 -24 -2 -37z" />
    <glyph glyph-name="glyph370" horiz-adv-x="433" 
d="M373 698q16 -10 25.5 -27t9.5 -37t-9.5 -37t-25.5 -27t-37 -10t-37 10t-25.5 27t-9.5 37t9.5 37t25.5 27t37 10t37 -10zM341 434q-7 -47 -29.5 -79.5t-65.5 -64.5q-43 -28 -64.5 -53.5t-26.5 -61.5q-1 -5 -1 -13q0 -61 93 -61q32 0 67 7.5t66 18.5q-1 -21 -7 -52.5
t-13 -60.5q-62 -24 -139 -24q-98 0 -148.5 41.5t-50.5 114.5q0 22 2 33q6 39 23.5 69.5t44.5 55.5t69 54q34 19 50 31.5t25 28.5t11 41q0 2 1.5 6t2.5 6h92q0 -24 -2 -37z" />
    <glyph glyph-name="periodcentered" unicode="&#xb7;" horiz-adv-x="369" 
d="M153 259q-19 11 -30 30t-11 42q0 22 11 41t30.5 30.5t42.5 11.5q24 0 43 -11.5t30 -30.5t11 -41q0 -23 -11 -42t-30 -30t-43 -11t-43 11z" />
    <glyph glyph-name="bullet" unicode="&#x2022;" horiz-adv-x="446" 
d="M172 228q-28 16 -43.5 43t-15.5 60t15.5 61t43.5 44t64 16t63 -16t42 -43.5t15 -61.5q0 -33 -15 -60t-42 -43t-63 -16t-64 16z" />
    <glyph glyph-name="bullet.aalt" horiz-adv-x="446" 
d="M172 226.5q-28 15.5 -43.5 43t-15.5 60.5t15.5 60.5t43.5 43.5t64 16t63 -16t42 -43t15 -61q0 -33 -15 -60.5t-42 -43t-63 -15.5t-64 15.5z" />
    <glyph glyph-name="asterisk" unicode="*" horiz-adv-x="440" 
d="M301 506l100 -96q-14 -15 -37 -33q-28 -18 -43 -24l-62 123l-60 -124q-22 9 -43 25q-23 17 -37 33l98 97l-137 19q1 17 11 49q8 24 20 45l122 -63l-23 135q19 5 49 5t49 -5l-22 -135l120 64q6 -9 11.5 -21.5t9.5 -24.5q8 -24 11 -48z" />
    <glyph glyph-name="numbersign" unicode="#" 
d="M461 431l-58 -175h99q-3 -19 -10 -44.5t-15 -45.5h-104l-55 -166h-91l54 166h-106l-55 -166h-93l54 166h-80q2 19 9.5 45t15.5 45h85l57 175h-94q3 20 10.5 45.5t16.5 43.5h97l54 166q34 15 99 15l-60 -181h106l54 166q33 15 99 15l-60 -181h85q-3 -20 -10 -45t-15 -44
h-89zM368 431h-106l-58 -175h107z" />
    <glyph glyph-name="slash" unicode="/" horiz-adv-x="388" 
d="M357 789q65 10 117 11l-436 -1012h-113z" />
    <glyph glyph-name="slash.case" horiz-adv-x="374" 
d="M317 684q64 10 120 11l-350 -695h-114z" />
    <glyph glyph-name="backslash" unicode="\" horiz-adv-x="388" 
d="M68 789q21 6 49.5 9t57.5 2l155 -1012h-108z" />
    <glyph glyph-name="backslash.aalt" horiz-adv-x="358" 
d="M223 0l-155 686q49 12 105 12l159 -698h-109z" />
    <glyph glyph-name="uni208D" unicode="&#x208d;" horiz-adv-x="316" 
d="M34 -115q0 94 27.5 191.5t79.5 181.5q52 -3 90 -29q-46 -89 -68.5 -173.5t-22.5 -170.5q0 -51 5 -93t16 -80q-26 -10 -47.5 -14.5t-44.5 -6.5q-35 96 -35 194z" />
    <glyph glyph-name="uni208E" unicode="&#x208e;" horiz-adv-x="316" 
d="M195 164q9 -47 9 -100q0 -94 -27.5 -191.5t-79.5 -181.5q-55 3 -89 29q45 90 67.5 174t22.5 170q0 51 -5 93t-16 80q26 10 47.5 14.5t45.5 6.5q16 -47 25 -94z" />
    <glyph glyph-name="parenleft" unicode="(" horiz-adv-x="330" 
d="M92.5 -41q-18.5 83 -18.5 182q0 113 24 230.5t70.5 230t113.5 208.5q24 -1 48.5 -9t43.5 -22q-90 -153 -136.5 -314.5t-46.5 -323.5q0 -96 12.5 -175t38.5 -155q-28 -12 -50.5 -17t-46.5 -6q-34 88 -52.5 171z" />
    <glyph glyph-name="parenleft.case" horiz-adv-x="326" 
d="M100.5 35q-18.5 75 -18.5 160q0 172 48.5 322.5t146.5 292.5q24 -1 49 -8t47 -19q-90 -139 -132.5 -284.5t-42.5 -303.5q0 -84 12.5 -151.5t38.5 -138.5q-28 -13 -50 -19t-46 -7q-34 81 -52.5 156z" />
    <glyph glyph-name="parenright" unicode=")" horiz-adv-x="330" 
d="M250.5 639q18.5 -83 18.5 -182q0 -113 -24 -230.5t-70.5 -230t-112.5 -208.5q-24 1 -48.5 9t-44.5 22q91 153 137.5 314.5t46.5 323.5q0 95 -13 174t-39 156q30 12 51.5 17t45.5 6q34 -88 52.5 -171z" />
    <glyph glyph-name="parenright.case" horiz-adv-x="326" 
d="M251.5 654q18.5 -75 18.5 -161q0 -171 -48.5 -322t-146.5 -292q-52 2 -95 27q89 139 131.5 284.5t42.5 302.5q0 85 -12 152.5t-38 137.5q26 13 48.5 19.5t46.5 7.5q34 -81 52.5 -156z" />
    <glyph glyph-name="braceleft" unicode="{" horiz-adv-x="352" 
d="M415 820q-1 -23 -7.5 -49.5t-15.5 -46.5h-54q-30 0 -44 -17t-19 -58l-30 -219q-14 -104 -100 -125q30 -9 48.5 -36t18.5 -64q0 -8 -2 -22l-32 -225q-2 -22 -2 -29q0 -24 10 -34t36 -10h63q-2 -22 -9 -49t-15 -48h-66q-67 0 -98 33.5t-31 99.5q0 28 4 55l28 202q1 7 1 18
q0 30 -15.5 43.5t-44.5 19.5l13 90q37 2 56 20.5t25 60.5l32 222q12 81 51 124.5t124 43.5h75z" />
    <glyph glyph-name="braceleft.aalt" horiz-adv-x="352" 
d="M414 810q-1 -23 -7.5 -49.5t-15.5 -46.5h-54q-31 0 -44.5 -17t-18.5 -58l-23 -164q-8 -57 -33.5 -86.5t-66.5 -39.5q30 -8 48.5 -35.5t18.5 -64.5q0 -7 -2 -21l-25 -178q-2 -12 -2 -30q0 -24 10 -33.5t36 -9.5h62q-1 -22 -7.5 -48.5t-15.5 -48.5h-66q-67 0 -98 33.5
t-31 99.5q0 28 4 55l21 155q1 7 1 18q0 30 -15.5 43.5t-44.5 19.5l13 90q37 2 56.5 20t25.5 61l23 167q12 81 51.5 124.5t124.5 43.5h75z" />
    <glyph glyph-name="braceright" unicode="}" horiz-adv-x="353" 
d="M269 413q0 -30 15.5 -43.5t44.5 -19.5l-13 -90q-37 -2 -56 -20.5t-25 -60.5l-32 -222q-12 -81 -51 -124.5t-124 -43.5h-75q1 23 7.5 48.5t15.5 47.5h54q30 0 44 17t19 58l30 219q14 104 100 125q-30 9 -48.5 36t-18.5 64q0 8 2 22l32 225q2 22 2 29q0 24 -10 34t-36 10
h-63q2 22 9 48.5t15 47.5h66q67 0 98 -33.5t31 -98.5q0 -28 -4 -55l-28 -202q-1 -7 -1 -18z" />
    <glyph glyph-name="braceright.aalt" horiz-adv-x="353" 
d="M274 450q0 -30 15.5 -43.5t44.5 -19.5l-12 -90q-37 -2 -56.5 -20t-25.5 -61l-24 -167q-12 -81 -51.5 -124.5t-123.5 -43.5h-76q3 41 23 96h54q31 0 44.5 17t18.5 58l23 164q8 58 34.5 87t66.5 39q-30 8 -49 35.5t-19 64.5q0 7 2 21l25 178q2 12 2 31q0 23 -10 32.5
t-35 9.5h-63q1 22 8 49t16 48h65q67 0 98 -33.5t31 -99.5q0 -28 -4 -55l-21 -155q-1 -7 -1 -18z" />
    <glyph glyph-name="bracketleft" unicode="[" horiz-adv-x="335" 
d="M159 820h236q-2 -23 -8.5 -49.5t-15.5 -47.5h-114l-118 -839h124q-1 -22 -8 -47.5t-16 -48.5h-225z" />
    <glyph glyph-name="bracketleft.aalt" horiz-adv-x="331" 
d="M158 810h231q-1 -23 -7.5 -50t-15.5 -48h-109l-101 -716h119q-1 -21 -7.5 -47t-15.5 -49h-222z" />
    <glyph glyph-name="bracketright" unicode="]" horiz-adv-x="335" 
d="M191 -212h-236q2 23 8.5 49.5t15.5 47.5h114l118 840h-124q1 21 8 47.5t16 47.5h225z" />
    <glyph glyph-name="bracketright.aalt" horiz-adv-x="331" 
d="M203 -100h-231q1 23 7.5 50t15.5 48h109l101 716h-119q1 21 7.5 47t15.5 49h222z" />
    <glyph glyph-name="uni207D" unicode="&#x207d;" horiz-adv-x="316" 
d="M128 555q0 94 27.5 191.5t79.5 181.5q52 -3 90 -29q-46 -89 -68.5 -173.5t-22.5 -170.5q0 -51 5 -93t16 -80q-26 -10 -47.5 -14.5t-44.5 -6.5q-35 96 -35 194z" />
    <glyph glyph-name="uni207E" unicode="&#x207e;" horiz-adv-x="315" 
d="M289 834q9 -47 9 -100q0 -94 -27.5 -191.5t-79.5 -181.5q-55 3 -89 29q45 90 67.5 174t22.5 170q0 51 -5 93t-16 80q26 10 47.5 14.5t45.5 6.5q16 -47 25 -94z" />
    <glyph glyph-name="hyphen" unicode="-" horiz-adv-x="367" 
d="M45.5 296q7.5 30 17.5 58h281q-6 -54 -28 -112h-280q2 24 9.5 54z" />
    <glyph glyph-name="hyphen.aalt" horiz-adv-x="354" 
d="M49 414h287q-1 -39 -11 -112h-287q0 46 11 112z" />
    <glyph glyph-name="uni00AD" unicode="&#xad;" horiz-adv-x="371" 
d="M45.5 296q7.5 30 17.5 58h281q-6 -54 -28 -112h-280q2 24 9.5 54z" />
    <glyph glyph-name="endash" unicode="&#x2013;" horiz-adv-x="509" 
d="M45.5 296q7.5 30 17.5 58h423q-6 -54 -27 -112h-423q2 24 9.5 54z" />
    <glyph glyph-name="endash.aalt" horiz-adv-x="510" 
d="M60 414h432q-3 -54 -12 -112h-431q2 56 11 112z" />
    <glyph glyph-name="emdash" unicode="&#x2014;" horiz-adv-x="896" 
d="M45.5 296.5q7.5 29.5 17.5 57.5h811q-4 -47 -27 -112h-811q2 25 9.5 54.5z" />
    <glyph glyph-name="emdash.aalt" horiz-adv-x="905" 
d="M60 414h827q-2 -54 -11 -112h-827q2 54 11 112z" />
    <glyph glyph-name="uni2011" unicode="&#x2011;" horiz-adv-x="367" 
d="M45.5 296q7.5 30 17.5 58h281q-6 -54 -28 -112h-280q2 24 9.5 54z" />
    <glyph glyph-name="underscore" unicode="_" horiz-adv-x="510" 
d="M-4 -103h427q-7 -47 -20 -81h-427q4 41 20 81z" />
    <glyph glyph-name="quotesinglbase" unicode="&#x201a;" horiz-adv-x="268" 
d="M31.5 -10q13.5 55 25.5 124q37 10 61 13.5t58 3.5q-15 -82 -37 -140.5t-61 -125.5h-81q21 70 34.5 125z" />
    <glyph glyph-name="quotedblbase" unicode="&#x201e;" horiz-adv-x="442" 
d="M30.5 -14q13.5 55 25.5 124q37 10 61 13.5t58 3.5q-15 -82 -37 -140.5t-61 -125.5h-81q21 70 34.5 125zM205.5 -13q13.5 55 25.5 124q37 10 61 13.5t58 3.5q-15 -82 -37 -140.5t-61 -125.5h-81q21 70 34.5 125z" />
    <glyph glyph-name="quotedblleft" unicode="&#x201c;" horiz-adv-x="442" 
d="M244 581.5q-15 -60.5 -27 -133.5h-114q12 60 23.5 98.5t27.5 73.5t43 77q50 13 83 13q-21 -68 -36 -128.5zM420 581.5q-15 -60.5 -27 -133.5h-114q12 60 23.5 98.5t27.5 73.5t43 77q50 13 83 13q-21 -68 -36 -128.5z" />
    <glyph glyph-name="quotedblright" unicode="&#x201d;" horiz-adv-x="442" 
d="M112.5 568q13.5 55 25.5 124q37 10 61 13.5t58 3.5q-15 -82 -37 -140.5t-61 -125.5h-81q21 70 34.5 125zM287.5 568q13.5 55 25.5 124q37 10 61 13.5t58 3.5q-15 -82 -37 -140.5t-61 -125.5h-81q21 70 34.5 125z" />
    <glyph glyph-name="quoteleft" unicode="&#x2018;" horiz-adv-x="266" 
d="M244 581.5q-15 -60.5 -27 -133.5h-114q12 60 23.5 98.5t27.5 73.5t43 77q50 13 83 13q-21 -68 -36 -128.5z" />
    <glyph glyph-name="quoteright" unicode="&#x2019;" horiz-adv-x="227" 
d="M112.5 568q13.5 55 25.5 124q37 10 61 13.5t58 3.5q-15 -82 -37 -140.5t-61 -125.5h-81q21 70 34.5 125z" />
    <glyph glyph-name="guillemotleft" unicode="&#xab;" horiz-adv-x="544" 
d="M267 275l189 234q23 -7 45.5 -20t41.5 -30l-155 -189l101 -188q-20 -12 -47.5 -24t-50.5 -18zM40 275l189 234q23 -7 45.5 -20t41.5 -30l-155 -189l101 -188q-20 -12 -47.5 -24t-50.5 -18z" />
    <glyph glyph-name="guillemotleft.aalt" horiz-adv-x="534" 
d="M269 364l189 234q23 -7 45.5 -20t41.5 -30l-155 -189l101 -188q-20 -12 -47.5 -24t-50.5 -18zM52 364l189 234q23 -7 45.5 -20t41.5 -30l-155 -189l101 -188q-20 -12 -47.5 -24t-50.5 -18z" />
    <glyph glyph-name="guillemotright" unicode="&#xbb;" horiz-adv-x="544" 
d="M511 274l-190 -234q-22 7 -44.5 20t-42.5 30l156 189l-101 188q20 12 47.5 24t50.5 18zM284 274l-190 -234q-22 7 -44.5 20t-42.5 30l156 189l-101 188q20 12 47.5 24t50.5 18z" />
    <glyph glyph-name="guillemotright.aalt" horiz-adv-x="534" 
d="M297 363l-190 -234q-22 7 -44.5 20t-42.5 30l156 189l-101 188q20 12 47.5 24t50.5 18zM513 363l-190 -234q-22 7 -44.5 20t-42.5 30l156 189l-101 188q20 12 47.5 24t50.5 18z" />
    <glyph glyph-name="guilsinglleft" unicode="&#x2039;" horiz-adv-x="317" 
d="M40 275l189 234q23 -7 45.5 -20t41.5 -30l-155 -189l101 -188q-20 -12 -47.5 -24t-50.5 -18z" />
    <glyph glyph-name="guilsinglleft.aalt" horiz-adv-x="317" 
d="M52 364l189 234q23 -7 45.5 -20t41.5 -30l-155 -189l101 -188q-20 -12 -47.5 -24t-50.5 -18z" />
    <glyph glyph-name="guilsinglright" unicode="&#x203a;" horiz-adv-x="317" 
d="M284 274l-190 -234q-22 7 -44.5 20t-42.5 30l156 189l-101 188q20 12 47.5 24t50.5 18z" />
    <glyph glyph-name="guilsinglright.aalt" horiz-adv-x="317" 
d="M297 362l-190 -234q-22 7 -44.5 20t-42.5 30l156 189l-101 188q20 12 47.5 24t50.5 18z" />
    <glyph glyph-name="quotedbl" unicode="&#x22;" horiz-adv-x="430" 
d="M138 692q26 8 54.5 13t52.5 5l-47 -259h-83zM313 692q26 8 54.5 13t52.5 5l-47 -259h-83z" />
    <glyph glyph-name="quotesingle" unicode="'" horiz-adv-x="256" 
d="M138 692q26 8 54.5 13t52.5 5l-47 -259h-83z" />
    <glyph glyph-name="uni00A0" unicode="&#xa0;" horiz-adv-x="233" 
 />
    <glyph glyph-name="uniFEFF" unicode="&#xfeff;" horiz-adv-x="0" 
 />
    <glyph glyph-name="uni20A8" unicode="&#x20a8;" 
d="M307 388q-25 -71 -80 -107l50 -281h-99l-38 258h-10l-36 -258h-96l95 691q18 7 50 12.5t57 5.5q132 0 132 -157q0 -93 -25 -164zM144 360h17q27 0 43.5 30t23.5 72t7 81q0 32 -8 46.5t-26 14.5q-6 0 -24 -2zM429 394.5q-14 -14.5 -14 -41.5q0 -36 23 -60l15 -17
q24 -26 37 -55t13 -68q0 -47 -15.5 -84.5t-45.5 -59t-73 -21.5q-19 0 -39.5 8t-34.5 22q3 46 17 91q9 -11 21 -16t25 -5q23 0 36.5 15.5t13.5 40.5q0 20 -5.5 34.5t-18.5 28.5l-14 15q-22 23 -33.5 52t-11.5 71q0 46 16 84t45.5 60t69.5 22q20 0 38.5 -6t32.5 -18
q-1 -21 -6 -48t-10 -47q-18 17 -45 17q-23 0 -37 -14.5z" />
    <glyph glyph-name="uni0E3F" unicode="&#xe3f;" 
d="M467 300.5q23 -38.5 23 -86.5q0 -94 -60 -149t-168 -63l-19 -135h-78l19 133h-159l97 693q73 14 161 15l13 93q17 8 39.5 13t41.5 5l-16 -115q73 -11 112.5 -51.5t39.5 -109.5q0 -65 -30.5 -112t-89.5 -71q51 -21 74 -59.5zM269 606q-31 -2 -46 -4l-27 -195h45zM346 599
l-26 -183q37 13 56 40.5t19 66.5q0 58 -49 76zM198 102l29 206h-45l-29 -206h45zM346 146q22 29 22 72q0 35 -15.5 56t-48.5 29l-27 -196q47 10 69 39z" />
    <glyph glyph-name="uni20BF" unicode="&#x20bf;" 
d="M467 300.5q23 -38.5 23 -86.5q0 -82 -46.5 -135t-132.5 -71l-20 -141h-83l18 133h-4h-41l-18 -133h-83l19 133h-74l97 693q42 8 75 10l14 98q18 8 41.5 13t44.5 5l-16 -111h25h20l13 93q18 8 41.5 13t44.5 5l-18 -126q51 -18 78.5 -55.5t27.5 -94.5q0 -65 -30.5 -112
t-89.5 -71q51 -21 74 -59.5zM296 606q-45 0 -73 -4l-27 -195h59q69 0 104.5 30.5t35.5 85.5q0 83 -99 83zM333.5 133q34.5 31 34.5 85q0 47 -28 68.5t-88 21.5h-70l-29 -206h72q74 0 108.5 31z" />
    <glyph glyph-name="uni20B5" unicode="&#x20b5;" 
d="M294 550.5q-44 -47.5 -62.5 -123.5t-18.5 -166q0 -61 14.5 -97.5t43 -52.5t72.5 -16q27 0 56.5 7t52.5 19q-10 -53 -33 -121q-39 -13 -76 -16l-17 -117h-90l17 121q-82 17 -126 85t-44 186q0 113 29.5 207.5t90 158t150.5 80.5l14 96q19 8 45 13t48 5l-15 -111
q25 -2 48.5 -8t40.5 -15q-5 -29 -13 -58.5t-18 -51.5q-17 11 -42 17t-51 6q-72 0 -116 -47.5z" />
    <glyph glyph-name="cent" unicode="&#xa2;" 
d="M306.5 475.5q-35.5 -25.5 -53 -70.5t-17.5 -103q0 -57 27 -86t77 -29q24 0 52.5 6t51.5 16q-7 -64 -24 -110q-38 -13 -82 -14l-14 -97h-91l15 104q-66 17 -102.5 68t-36.5 133q0 80 24 144.5t71 107t115 56.5l12 83q16 8 44 12.5t50 4.5l-14 -95q52 -3 85 -21
q-1 -23 -7 -50t-13 -49q-40 15 -82 15q-52 0 -87.5 -25.5z" />
    <glyph glyph-name="cent.aalt" horiz-adv-x="422" 
d="M240.5 475.5q-35.5 -25.5 -53 -70.5t-17.5 -103q0 -57 27 -86t77 -29q24 0 52 6t52 16q-3 -27 -9.5 -56.5t-15.5 -53.5q-38 -13 -81 -14l-14 -97h-92l15 104q-66 17 -102.5 68t-36.5 133q0 80 24 144.5t71 107t115 56.5l12 83q16 8 44 12.5t50 4.5l-13 -95q50 -3 85 -21
q-2 -24 -8 -52t-13 -47q-38 15 -81 15q-52 0 -87.5 -25.5z" />
    <glyph glyph-name="colonmonetary" unicode="&#x20a1;" 
d="M543 693q9 -3 15.5 -5.5t12.5 -4.5q-7 -46 -32 -109q-6 3 -28 11l-146 -490q28 1 53.5 8t54.5 18q-11 -55 -33 -120q-46 -17 -109 -19l-35 -117h-77l37 123q-29 6 -52 16l-41 -138h-79l53 179q-43 37 -66.5 95.5t-23.5 137.5q0 108 32 197t96.5 148t158.5 78l28 94
q14 6 41 11t43 5l-30 -101h7q23 0 46 -3l26 87q13 7 39.5 11.5t43.5 4.5zM437 597q-9 1 -25 1q-21 0 -30 -1l-142 -474q23 -15 49 -21zM184 201l111 370q-63 -35 -92.5 -109.5t-29.5 -176.5q0 -48 11 -84z" />
    <glyph glyph-name="currency" unicode="&#xa4;" 
d="M468 244l69 -68l-74 -74l-68 68q-50 -29 -106 -29q-57 0 -107 29l-69 -68l-73 74l69 68q-29 47 -29 106t29 106l-69 68l73 74l69 -68q52 29 107 29q56 0 106 -29l69 68l73 -74l-69 -68q29 -47 29 -106q0 -56 -29 -106zM198.5 296.5q13.5 -23.5 37 -37t53.5 -13.5
q29 0 52.5 13.5t37 37t13.5 53.5t-13.5 53.5t-37 37t-52.5 13.5q-30 0 -53.5 -13.5t-37 -37t-13.5 -53.5t13.5 -53.5z" />
    <glyph glyph-name="currency.aalt" horiz-adv-x="618" 
d="M503 244l68 -68l-73 -74l-68 68q-52 -29 -107 -29t-107 29l-68 -68l-73 74l68 67q-29 52 -29 107t29 107l-68 67l73 74l69 -68q50 29 106 29t106 -29l69 68l73 -74l-68 -67q29 -52 29 -107q0 -56 -29 -106zM233 296.5q13 -23.5 36.5 -37t53.5 -13.5q29 0 52.5 13.5t37 37
t13.5 53.5t-13.5 53.5t-37 37t-52.5 13.5q-30 0 -53.5 -13.5t-36.5 -37t-13 -53.5t13 -53.5z" />
    <glyph glyph-name="dollar" unicode="$" 
d="M250 575.5q-30 -27.5 -30 -70.5q0 -31 20.5 -52.5t59.5 -39.5l45 -20q69 -30 103 -74t34 -114q0 -57 -23 -102.5t-68 -75.5t-109 -40l-17 -120h-91l16 117q-42 4 -82 16t-69 29q6 31 12.5 53t17.5 49q28 -19 73.5 -30t85.5 -11q60 0 93.5 26.5t33.5 73.5q0 24 -8.5 40.5
t-28 31t-54.5 31.5l-44 21q-63 30 -94 70.5t-31 104.5q0 58 23.5 103.5t68 74.5t105.5 38l13 96q19 8 45 13t48 5l-16 -111q72 -6 131 -32q-5 -28 -12 -51t-18 -51q-30 14 -68 21.5t-73 7.5q-62 0 -92 -27.5z" />
    <glyph glyph-name="dollar.aalt" horiz-adv-x="500" 
d="M229 575.5q-30 -27.5 -30 -70.5q0 -31 20 -52.5t59 -39.5l45 -20q69 -30 103 -74t34 -114q0 -57 -23 -103t-68 -76t-109 -39l-17 -120h-91l17 117q-42 4 -82 16t-69 29q5 29 11.5 50.5t17.5 51.5q29 -19 74.5 -30t84.5 -11q61 0 94.5 26.5t33.5 73.5q0 24 -8.5 40.5
t-28 31t-54.5 31.5l-45 21q-63 30 -94 70.5t-31 104.5q0 58 23.5 103t68 74.5t105.5 38.5l14 96q18 8 44.5 13t48.5 5l-16 -111q72 -6 130 -32q-5 -28 -12 -51t-18 -51q-30 14 -68 21.5t-72 7.5q-62 0 -92 -27.5z" />
    <glyph glyph-name="Euro" unicode="&#x20ac;" 
d="M345.5 564q-41.5 -34 -65.5 -94h213q-1 -21 -7.5 -46.5t-15.5 -46.5h-214q-6 -44 -7 -69h208q-2 -22 -8.5 -47.5t-15.5 -45.5h-184q7 -64 39 -92t90 -28q27 0 56 7t53 19q-11 -57 -34 -121q-24 -9 -52.5 -13.5t-55.5 -4.5q-98 0 -156.5 58t-68.5 175h-87l13 93h74
q1 23 7 69h-72l13 93h82q36 110 110.5 175t184.5 65q36 0 68.5 -7.5t55.5 -19.5q-4 -26 -13 -55.5t-18 -52.5q-18 11 -41 17t-49 6q-61 0 -102.5 -34z" />
    <glyph glyph-name="Euro.aalt" horiz-adv-x="554" 
d="M274 470h213q-2 -21 -9 -46.5t-15 -46.5h-213q-5 -29 -7 -69h207q-1 -21 -8 -47t-16 -46h-183q7 -64 38.5 -92t89.5 -28q27 0 56 7t53 19q-11 -57 -34 -121q-24 -9 -52.5 -13.5t-55.5 -4.5q-98 0 -156.5 58t-68.5 175h-87l13 93h74q1 23 7 69h-71l12 93h82
q36 110 110.5 175t184.5 65q36 0 68.5 -7.5t55.5 -19.5q-4 -26 -13 -55.5t-18 -52.5q-18 11 -41 17t-49 6q-116 0 -167 -128z" />
    <glyph glyph-name="florin" unicode="&#x192;" 
d="M393 586q-17 -19 -23 -63l-9 -62h121q-8 -50 -26 -98h-109l-28 -197q-13 -92 -60.5 -136.5t-132.5 -44.5q-51 0 -90 13q4 44 26 99q14 -4 27 -6t27 -2q34 0 52 19.5t24 62.5l27 192h-105l15 98h104l9 68q13 92 61 136.5t130 44.5q49 0 91 -14q-5 -45 -26 -99q-30 8 -53 8
q-35 0 -52 -19z" />
    <glyph glyph-name="florin.aalt" horiz-adv-x="431" 
d="M342 585.5q-17 -19.5 -23 -62.5l-9 -62h121q-9 -56 -26 -98h-108l-28 -197q-13 -93 -61 -137t-133 -44q-52 0 -89 13q2 24 9 50t17 49q14 -4 27 -6t27 -2q34 0 52 20t24 62l27 192h-105l14 98h105l9 68q13 92 60.5 136.5t129.5 44.5q51 0 91 -14q-6 -49 -25 -99
q-32 8 -54 8q-35 0 -52 -19.5z" />
    <glyph glyph-name="franc" unicode="&#x20a3;" 
d="M299 584l-26 -179h209q-2 -22 -10 -54t-16 -54h-198l-13 -91h146q-6 -45 -25 -90h-134l-16 -116h-123l16 116h-89l12 90h90l69 486h357q-3 -26 -9.5 -55t-15.5 -53h-224z" />
    <glyph glyph-name="uni20B2" unicode="&#x20b2;" 
d="M267.5 554.5q-49.5 -46.5 -72 -122.5t-22.5 -168q0 -173 133 -173q28 0 56 6l37 258h120l-48 -335q-29 -13 -68 -22t-79 -12l-16 -119h-89l17 121q-96 14 -143.5 84.5t-47.5 191.5q0 115 32.5 209.5t98 155.5t161.5 76l13 96q19 8 44 13t48 5l-16 -111q79 -4 134 -29
q-13 -52 -33 -106q-33 14 -64.5 21t-70.5 7q-75 0 -124.5 -46.5z" />
    <glyph glyph-name="uni20B4" unicode="&#x20b4;" 
d="M543 470q-3 -22 -9.5 -47.5t-13.5 -45.5h-463l12 93h304q19 28 19 62q0 32 -22.5 51.5t-73.5 19.5q-32 0 -70.5 -7.5t-71.5 -21.5q-5 42 -5 74q0 22 1 31q76 30 164 30q104 0 154 -38t50 -104q0 -54 -26 -97h51zM47 308h461q-9 -52 -23 -93h-295q-12 -21 -12 -49
q0 -37 25.5 -56.5t75.5 -19.5q39 0 81.5 11t77.5 31q6 -36 6 -74q0 -22 -1 -33q-32 -20 -81 -31t-101 -11q-68 0 -115 18t-70.5 51t-23.5 77q0 48 26 86h-44z" />
    <glyph glyph-name="uni20AD" unicode="&#x20ad;" 
d="M382 392h125q-14 -58 -25 -90h-112l109 -302h-126l-108 302h-15l-43 -302h-123l42 302h-77l13 90h77l41 292q25 7 60 12t66 5l-44 -309h12l187 300h127z" />
    <glyph glyph-name="uni20BA" unicode="&#x20ba;" 
d="M458.5 265q32.5 3 62.5 4q-40 -269 -284 -269h-167l32 225l-82 -33l13 93l81 32l12 81l-81 -32l13 93l81 32l27 193q25 7 62.5 12t69.5 5l-22 -155l163 64q-6 -47 -19 -94l-156 -63l-12 -82l163 64q-7 -50 -19 -93l-157 -62l-23 -169h37q47 0 76.5 15.5t47 47.5t27.5 84
q22 4 54.5 7z" />
    <glyph glyph-name="uni20BA.aalt" horiz-adv-x="565" 
d="M541 264q-19 -127 -87 -195.5t-197 -68.5h-167l33 234l-80 -28l13 93l80 27l11 80l-79 -27l13 93l79 27l26 185q26 7 63 12t69 5l-21 -155l162 56q-8 -57 -19 -94l-156 -54l-11 -81l162 56q-6 -47 -19 -94l-156 -54l-24 -174h37q47 0 77 15.5t48 47t28 83.5q46 7 115 11z
" />
    <glyph glyph-name="uni20BC" unicode="&#x20bc;" 
d="M482 478.5q42 -51.5 42 -128.5q0 -19 -3 -42l-44 -308h-115l44 307q3 21 3 39q0 39 -15 63t-48 32l-41 -297h-88l41 297q-42 -10 -65 -43.5t-31 -91.5l-44 -306h-115l44 308q9 65 37.5 115.5t76 82.5t112.5 39l20 147q17 8 44 13t47 5l-23 -167q79 -13 121 -64.5z" />
    <glyph glyph-name="uni20BC.aalt" horiz-adv-x="641" 
d="M543 474q46 -53 46 -132q0 -19 -3 -40l-42 -302h-115l41 291q2 22 2 31q0 87 -74 107l-40 -285h-103l40 285q-94 -24 -110 -138l-41 -291h-116l42 302q10 66 41.5 117.5t82.5 84t117 40.5l20 148q20 8 51.5 13t55.5 5l-24 -168q83 -15 129 -68z" />
    <glyph glyph-name="uni20A5" unicode="&#x20a5;" 
d="M535 484q0 -28 -4 -52l-49 -353h-110l48 341q2 16 2 21q0 40 -34 40q-12 0 -23 -6l-11 -37l-2 -12l-49 -347h-63l-29 -91h-84l101 322l16 111q2 16 2 21q0 39 -33 39q-15 0 -31 -11l-55 -391h-110l70 499h99l-1 -45q16 28 37 42.5t49 14.5q23 0 43 -10l33 106
q15 7 42.5 11.5t47.5 4.5l-39 -122q21 10 49 10q88 0 88 -106z" />
    <glyph glyph-name="uni20A6" unicode="&#x20a6;" 
d="M542 302h-55l-43 -302h-111l-81 302h-62l-6 -47l-35 -255h-112l42 302h-68l13 90h68l41 292q31 8 65 12.5t62 4.5l84 -297l3 -12h43q2 11 4 33l7 49l30 210q24 8 49.5 12.5t62.5 4.5l-44 -309h68q-14 -58 -25 -90zM209 479q-2 -31 -8 -87h29l-19 107zM380 302h-17
q3 -19 10 -67q4 47 7 67z" />
    <glyph glyph-name="uni20B1" unicode="&#x20b1;" 
d="M507 466q-1 -29 -8 -62h61q-2 -19 -8.5 -43t-14.5 -44h-65q-32 -75 -90 -119t-138 -44h-65l-21 -153h-118l44 316h-68l13 87h68l8 62h-68l12 87h69l19 137q71 19 155 19q98 0 149 -41t63 -115h84q-2 -20 -8 -44t-14 -43h-59zM235 553h138q-10 29 -33.5 41.5t-63.5 12.5
q-8 0 -34 -2zM380 466h-157l-9 -62h158q7 33 8 62zM341 317h-139l-8 -59h52q61 0 95 59z" />
    <glyph glyph-name="uni20BD" unicode="&#x20bd;" 
d="M229 256l-11 -75h201q-9 -48 -26 -90h-187l-13 -90h-122l13 90h-77l13 90h76l11 75h-75l12 90h75l49 346q36 7 80 12t85 5q115 0 165 -48t50 -136q0 -80 -31.5 -140.5t-91.5 -94.5t-143 -34h-53zM397 585.5q-23 21.5 -75 21.5q-22 0 -44 -3l-35 -246h41q70 0 103 42.5
t33 120.5q0 43 -23 64.5z" />
    <glyph glyph-name="uni20B9" unicode="&#x20b9;" 
d="M409 602q33 -33 38 -84h85q-8 -48 -27 -91h-68q-20 -75 -79.5 -118t-158.5 -52l206 -256h-150l-201 253l12 90h90q119 0 152 83h-230l13 91h229q-4 43 -34.5 63.5t-87.5 20.5h-96l13 90h453q-7 -41 -26 -90h-133z" />
    <glyph glyph-name="uni20B9.aalt" horiz-adv-x="542" 
d="M435 602q33 -33 38 -84h79q-8 -48 -27 -91h-62q-20 -75 -79.5 -118t-158.5 -52l206 -256h-150l-201 253l13 90h89q119 0 152 83h-230l13 91h229q-4 43 -34 63.5t-87 20.5h-96l12 90h447q-7 -41 -26 -90h-127z" />
    <glyph glyph-name="sterling" unicode="&#xa3;" 
d="M362 583.5q-26 -17.5 -35.5 -48.5t-12.5 -84l-2 -36h155q-6 -42 -24 -95h-136l-3 -44q-5 -65 -21.5 -104t-50.5 -65h228q-4 -27 -11 -57.5t-15 -49.5h-392l15 103q49 5 74 22.5t34 47.5t12 86l3 61h-94l13 95h86l2 30q5 89 29.5 146.5t76.5 87.5t138 30q62 0 102 -12
q-3 -24 -10 -52.5t-15 -52.5q-40 9 -70 9q-50 0 -76 -17.5z" />
    <glyph glyph-name="sterling.aalt" horiz-adv-x="486" 
d="M314 583.5q-26 -17.5 -35.5 -48.5t-12.5 -84l-2 -36h155q-6 -42 -24 -95h-136l-3 -44q-5 -65 -21.5 -104t-50.5 -65h228q-4 -27 -11 -57.5t-15 -49.5h-392l15 103q49 5 74 22.5t34 47.5t12 86l3 61h-94l13 95h86l2 30q5 89 29.5 146.5t76.5 87.5t138 30q62 0 102 -12
q-3 -24 -10 -52.5t-15 -52.5q-40 9 -70 9q-50 0 -76 -17.5z" />
    <glyph glyph-name="uni20B8" unicode="&#x20b8;" 
d="M568 692q-1 -21 -7.5 -46.5t-14.5 -46.5h-453l13 93h462zM84 530h450q-3 -23 -9.5 -48t-14.5 -45h-147l-61 -437h-123l61 437h-170z" />
    <glyph glyph-name="uni20AE" unicode="&#x20ae;" 
d="M383 583l-18 -128l127 41q-6 -47 -19 -94l-120 -39l-11 -75l127 41q-8 -57 -19 -93l-121 -39l-27 -197h-123l22 154l-124 -40l13 93l124 40l10 74l-124 -41l13 93l124 40l24 170h-166q7 42 25 109h443q-4 -23 -11 -54t-14 -55h-155z" />
    <glyph glyph-name="uni20A9" unicode="&#x20a9;" 
d="M513 420h53q-13 -54 -25 -90h-50l-81 -330h-129l15 330h-18l-74 -330h-134l9 330h-55l12 90h46l7 272h101l-17 -272h45l58 272h125l-18 -272h42l56 272h98zM299 420l1 8l-2 -8h1zM199 330h-31l-13 -208zM407 330h-30l-14 -212z" />
    <glyph glyph-name="uni20A9.aalt" horiz-adv-x="790" 
d="M730 420h78q-10 -47 -24 -90h-86l-114 -330h-135l-17 330h-54l-110 -330h-140l-23 330h-87l12 90h68l-19 272h130l7 -272h95l89 272h114l14 -272h90l83 272h123zM428 420l-3 51l-17 -51h20zM282 330h-64l5 -181zM591 330h-58l8 -165z" />
    <glyph glyph-name="yen" unicode="&#xa5;" 
d="M346 303l-9 -66h147q-4 -22 -11.5 -46.5t-15.5 -42.5h-132l-21 -148h-127l21 148h-147l12 89h147l10 66h-147l12 89h115l-127 300h137l91 -254l164 254h136l-211 -300h119q-4 -21 -11 -46t-15 -43h-137z" />
    <glyph glyph-name="yen.aalt" horiz-adv-x="545" 
d="M343 303l-9 -66h147q-4 -22 -11.5 -46.5t-15.5 -42.5h-132l-21 -148h-127l21 148h-147l12 89h147l10 66h-147l12 89h115l-127 300h137l91 -254l164 254h136l-211 -300h119q-4 -21 -11 -46t-15 -43h-137z" />
    <glyph glyph-name="uni2219" unicode="&#x2219;" 
d="M232 291q-22 22 -22 56q0 35 22 57.5t57 22.5t57 -22.5t22 -57.5q0 -34 -22 -56t-57 -22t-57 22z" />
    <glyph glyph-name="uni2215" unicode="&#x2215;" 
d="M422 789q65 10 117 11l-436 -1012h-113z" />
    <glyph glyph-name="plus" unicode="+" 
d="M480 288h-147l-22 -156h-105l22 156h-156q5 48 24 103h147l21 151h105l-21 -151h156q-4 -40 -24 -103z" />
    <glyph glyph-name="minus" unicode="&#x2212;" 
d="M96 391h408q-6 -46 -24 -103h-408q6 48 24 103z" />
    <glyph glyph-name="multiply" unicode="&#xd7;" 
d="M359 335l107 -125l-77 -69l-108 126l-140 -124l-66 75l142 125l-108 126l77 68l108 -126l141 124l64 -76z" />
    <glyph glyph-name="divide" unicode="&#xf7;" 
d="M274 443.5q-16 9.5 -25.5 26t-9.5 35.5q0 30 20.5 50.5t51.5 20.5t51 -20.5t20 -50.5q0 -19 -9 -35.5t-25.5 -26t-36.5 -9.5q-21 0 -37 9.5zM96 391h408q-6 -46 -24 -103h-408q6 48 24 103zM227 111.5q-16 9.5 -25.5 26t-9.5 35.5q0 20 9.5 36.5t25.5 26t37 9.5
q20 0 36.5 -9.5t25.5 -26t9 -36.5q0 -19 -9 -35.5t-25.5 -26t-36.5 -9.5q-21 0 -37 9.5z" />
    <glyph glyph-name="equal" unicode="=" 
d="M113 482h398q-9 -56 -24 -103h-397q5 43 23 103zM87 298h397q-5 -41 -23 -104h-397q5 42 23 104z" />
    <glyph glyph-name="notequal" unicode="&#x2260;" 
d="M357 379l-47 -81h174q-5 -41 -23 -104h-210l-83 -144l-75 35l63 109h-92q5 42 23 104h128l47 81h-172q9 56 24 103h207l86 150l74 -36l-65 -114h94q-5 -43 -23 -103h-130z" />
    <glyph glyph-name="greater" unicode="&#x3e;" 
d="M491 387q-6 -37 -21 -93l-409 -166q8 57 23 116l268 102l-242 105q3 26 10 52t16 53z" />
    <glyph glyph-name="less" unicode="&#x3c;" 
d="M496 440l-268 -102l242 -105q-4 -25 -11 -51.5t-15 -53.5l-355 168q6 37 21 94l409 166q-8 -57 -23 -116z" />
    <glyph glyph-name="greaterequal" unicode="&#x2265;" 
d="M496 437q-4 -39 -21 -94l-405 -144q7 55 23 115l248 80l-233 80q8 51 27 106zM63 164h409q-7 -44 -24 -103h-409q8 47 24 103z" />
    <glyph glyph-name="lessequal" unicode="&#x2264;" 
d="M505.5 520.5q-6.5 -30.5 -13.5 -55.5l-249 -80l234 -80q-4 -27 -10 -51.5t-16 -54.5l-361 143q4 37 21 93l406 145q-5 -29 -11.5 -59.5zM63 164h409q-7 -44 -24 -103h-409q8 47 24 103z" />
    <glyph glyph-name="plusminus" unicode="&#xb1;" 
d="M515 478q-6 -47 -24 -103h-148l-20 -144h-100l20 144h-160q6 47 24 103h151l21 149h100l-21 -149h157zM63 166h409q-6 -43 -24 -104h-409q7 48 24 104z" />
    <glyph glyph-name="approxequal" unicode="&#x2248;" 
d="M330.5 374.5q-20.5 7.5 -44.5 21.5q-21 11 -33.5 16t-24.5 5q-15 0 -26.5 -11t-22.5 -36q-58 6 -90 21q20 50 41 76.5t44 36.5t52 10q22 0 42.5 -8t48.5 -22q23 -11 35 -16t23 -5q15 0 26 11.5t25 44.5q51 -3 89 -22q-28 -71 -63.5 -100.5t-78.5 -29.5q-22 0 -42.5 7.5z
M302.5 179.5q-20.5 7.5 -44.5 21.5q-21 11 -33.5 16t-24.5 5q-15 0 -26.5 -11t-22.5 -36q-58 6 -90 21q20 50 41 76.5t44 36.5t52 10q22 0 42.5 -8t48.5 -22q23 -11 35 -16t23 -5q15 0 26 11.5t25 44.5q51 -3 89 -22q-28 -71 -63.5 -100.5t-78.5 -29.5q-22 0 -42.5 7.5z" />
    <glyph glyph-name="asciitilde" unicode="~" 
d="M317.5 277.5q-20.5 7.5 -44.5 21.5q-21 11 -33.5 16t-24.5 5q-15 0 -26.5 -11t-22.5 -36q-58 6 -90 21q20 50 41 76.5t44 36.5t52 10q22 0 42.5 -8t48.5 -22q23 -11 35 -16t23 -5q15 0 26 11.5t25 44.5q51 -3 89 -22q-28 -71 -63.5 -100.5t-78.5 -29.5q-22 0 -42.5 7.5z
" />
    <glyph glyph-name="logicalnot" unicode="&#xac;" 
d="M501 378l-34 -246h-105l22 156h-313q6 48 24 103h408z" />
    <glyph glyph-name="asciicircum" unicode="^" 
d="M369 267l-44 313l-138 -313h-116l192 415q60 16 145 16l76 -431h-115z" />
    <glyph glyph-name="infinity" unicode="&#x221e;" horiz-adv-x="632" 
d="M529.5 502.5q30.5 -21.5 46.5 -60t16 -89.5q0 -49 -16 -89.5t-46.5 -64t-73.5 -23.5q-44 0 -73.5 18.5t-55.5 64.5q-27 -42 -56.5 -61t-69.5 -19q-41 0 -71 21.5t-46 60.5t-16 90q0 49 15.5 89t45.5 63t71 23q43 0 73.5 -18.5t57.5 -62.5q26 43 54.5 61t71.5 18
q42 0 72.5 -21.5zM238 281.5q10 7.5 20.5 24t25.5 47.5q-20 45 -35 63t-36 18q-25 0 -40 -23.5t-15 -58.5q0 -33 14.5 -55.5t42.5 -22.5q13 0 23 7.5zM487 293q13 23 13 58q0 34 -13.5 56.5t-38.5 22.5q-19 0 -34 -16.5t-38 -61.5q15 -33 25.5 -50t21.5 -24.5t26 -7.5
q25 0 38 23z" />
    <glyph glyph-name="emptyset" unicode="&#x2205;" horiz-adv-x="817" 
d="M709 575q38 -47 59 -105t21 -124q0 -103 -49.5 -186t-133.5 -130t-184 -47q-64 0 -122 19.5t-105 55.5l-92 -92l-61 59l92 92q-38 47 -58.5 105.5t-20.5 123.5q0 103 49.5 186t133.5 130t184 47q64 0 122 -19.5t105 -56.5l92 92l61 -57zM218 201l348 349q-30 22 -67 33.5
t-77 11.5q-68 0 -125 -32.5t-90.5 -89.5t-33.5 -127q0 -83 45 -145zM658.5 424q-11.5 37 -32.5 67l-348 -350q30 -21 67 -32.5t77 -11.5q68 0 124.5 32t90 89t33.5 128q0 41 -11.5 78z" />
    <glyph glyph-name="integral" unicode="&#x222b;" 
d="M56.5 -220q-21.5 4 -41.5 11q8 50 25 96q27 -9 51 -9q34 0 54.5 20.5t26.5 61.5l81 574q12 87 61.5 131t131.5 44q49 0 88 -13q-7 -47 -25 -97q-32 9 -52 9q-34 0 -54 -19.5t-26 -60.5l-81 -572q-12 -90 -61.5 -135t-124.5 -45q-32 0 -53.5 4z" />
    <glyph glyph-name="Omega" unicode="&#x2126;" 
d="M373 112h123q-3 -26 -9.5 -57.5t-15.5 -54.5h-199l1 8l2 13l12 91l8 54q44 14 71.5 58.5t39.5 102.5t12 116q0 81 -24 118t-69 37q-51 0 -85.5 -44t-50.5 -109.5t-16 -129.5q0 -70 15.5 -103t47.5 -45l-8 -55h1l-16 -112h-214q1 23 8.5 57t15.5 55h122l1 7q-44 32 -68 84
t-24 133q0 98 33 183.5t97 137.5t153 52q65 0 111 -30t70 -86.5t24 -135.5q0 -67 -19 -134.5t-57.5 -123t-92.5 -85.5v-2z" />
    <glyph glyph-name="Delta" unicode="&#x2206;" 
d="M507 0h-533l283 682q78 16 151 16zM366 108l-48 441l-178 -441h226z" />
    <glyph glyph-name="product" unicode="&#x220f;" 
d="M120 692h435l-128 -904h-125l111 791h-183l-110 -791h-127z" />
    <glyph glyph-name="summation" unicode="&#x2211;" 
d="M547.5 636q-7.5 -32 -15.5 -55h-275l183 -321l-266 -362h273q-3 -25 -10.5 -57t-15.5 -53h-430q8 49 19 86l295 391l-197 338q8 49 25 89h426q-4 -24 -11.5 -56z" />
    <glyph glyph-name="radical" unicode="&#x221a;" horiz-adv-x="882" 
d="M871 580h-238l-369 -792h-137l-104 462h125l64 -324l339 766h353q-8 -53 -33 -112z" />
    <glyph glyph-name="partialdiff" unicode="&#x2202;" 
d="M488.5 651.5q50.5 -58.5 50.5 -161.5q0 -127 -40.5 -243t-115 -187.5t-171.5 -71.5q-62 0 -103 24.5t-61 68.5t-20 101q0 81 33.5 157t94 124t136.5 48q80 0 118 -60q1 13 1 36q0 62 -25 89t-79 27q-62 0 -116 -18q1 24 9 54t21 57q27 5 56.5 9.5t52.5 4.5
q108 0 158.5 -58.5zM294 138.5q35 36.5 60.5 94.5t40.5 125q-16 25 -38 36.5t-51 11.5q-43 0 -77.5 -36t-53.5 -89t-19 -101q0 -40 15.5 -59t48.5 -19q39 0 74 36.5z" />
    <glyph glyph-name="mu" unicode="&#xb5;" 
d="M516 499l-70 -499h-114l2 74q-30 -42 -65 -64t-81 -22q-29 0 -49 7q0 -101 -8 -162l-7 -45h-122l100 711h125l-43 -312q-3 -19 -3 -34q0 -32 14.5 -47t48.5 -15q28 0 52.5 12t42.5 29l52 367h125z" />
    <glyph glyph-name="percent" unicode="%" horiz-adv-x="856" 
d="M141.5 355q-31.5 17 -48 48t-16.5 72q0 70 21 123.5t62 83.5t100 30q65 0 100.5 -35t35.5 -99q0 -70 -20.5 -124t-61 -85t-97.5 -31q-44 0 -75.5 17zM612 692q31 5 55 7.5t55 3.5l-453 -703q-58 -9 -108 -9zM265 447q16 24 25 84q4 36 4 47q0 25 -9.5 37t-28.5 12
q-29 0 -46.5 -25.5t-25.5 -83.5q-4 -23 -4 -44q0 -51 40 -51q29 0 45 24zM552 -1q-32 17 -48.5 48t-16.5 73q0 70 21 123.5t62.5 83t100.5 29.5q65 0 100.5 -35t35.5 -98q0 -70 -20.5 -124.5t-61 -85.5t-97.5 -31q-44 0 -76 17zM675.5 91.5q16.5 24.5 25.5 84.5q4 34 4 46
q0 25 -9.5 37t-29.5 12q-29 0 -46 -25t-25 -83q-4 -24 -4 -45q0 -51 40 -51q28 0 44.5 24.5z" />
    <glyph glyph-name="perthousand" unicode="&#x2030;" horiz-adv-x="1215" 
d="M141.5 355q-31.5 17 -48 48t-16.5 72q0 70 21 123.5t62 83.5t100 30q65 0 100.5 -35t35.5 -99q0 -70 -20.5 -124t-61 -85t-97.5 -31q-44 0 -75.5 17zM612 692q31 5 55 7.5t55 3.5l-453 -703q-58 -9 -108 -9zM265 447q16 24 25 84q4 36 4 47q0 25 -9.5 37t-28.5 12
q-29 0 -46.5 -25.5t-25.5 -83.5q-4 -23 -4 -44q0 -51 40 -51q29 0 45 24zM552 -1q-32 17 -48.5 48t-16.5 73q0 70 21 123.5t62.5 83t100.5 29.5q65 0 100.5 -35t35.5 -98q0 -70 -20.5 -124.5t-61 -85.5t-97.5 -31q-44 0 -76 17zM922.5 -1q-31.5 17 -48 48t-16.5 73
q0 70 21 123.5t62 83t100 29.5q65 0 100.5 -35t35.5 -98q0 -70 -20.5 -124.5t-61 -85.5t-97.5 -31q-44 0 -75.5 17zM675.5 91.5q16.5 24.5 25.5 84.5q4 34 4 46q0 25 -9.5 37t-29.5 12q-29 0 -46 -25t-25 -83q-4 -24 -4 -45q0 -51 40 -51q28 0 44.5 24.5zM1046 91
q16 24 25 85q4 23 4 46q0 25 -9.5 37t-28.5 12q-29 0 -46.5 -25t-25.5 -83q-3 -27 -3 -45q0 -51 39 -51q29 0 45 24z" />
    <glyph glyph-name="arrowup" unicode="&#x2191;" horiz-adv-x="665" 
d="M629 418q-11 -22 -27 -42t-33 -35l-187 160l2 -464h-103l2 462l-185 -158q-34 29 -61 77l296 248z" />
    <glyph glyph-name="uni2197" unicode="&#x2197;" horiz-adv-x="640" 
d="M482 173l-41 242l-296 -357l-79 67l298 353l-244 -3q-3 20 -3 40q0 30 6 58l386 1l68 -380q-45 -19 -95 -21z" />
    <glyph glyph-name="arrowright" unicode="&#x2192;" horiz-adv-x="640" 
d="M630 366l-248 -296q-42 22 -77 60l159 186l-463 -2v103l463 -2l-159 186q34 39 77 61z" />
    <glyph glyph-name="uni2198" unicode="&#x2198;" horiz-adv-x="640" 
d="M568 486l-68 -380l-387 1q-6 26 -6 53q0 16 4 44l243 -3l-298 354l80 66l296 -357l40 242q48 0 96 -20z" />
    <glyph glyph-name="arrowdown" unicode="&#x2193;" horiz-adv-x="640" 
d="M589 345q16 -20 28 -42l-296 -248l-296 248q11 22 27 42t33 35l186 -159l-3 463h104l-3 -464l187 160q17 -15 33 -35z" />
    <glyph glyph-name="uni2199" unicode="&#x2199;" horiz-adv-x="640" 
d="M518 249q3 -19 3 -40q0 -29 -6 -58l-386 -1l-68 380q22 9 47 14.5t48 6.5l41 -243l296 358l79 -67l-298 -353z" />
    <glyph glyph-name="arrowleft" unicode="&#x2190;" horiz-adv-x="640" 
d="M635 299l-463 2l158 -185q-29 -35 -76 -61l-249 296l249 296q43 -22 76 -60l-159 -187l464 2v-103z" />
    <glyph glyph-name="uni2196" unicode="&#x2196;" horiz-adv-x="640" 
d="M492 58l-296 357l-41 -242q-23 1 -48 6.5t-47 14.5l68 380l386 -1q6 -28 6 -58q0 -20 -3 -40l-244 3l298 -353z" />
    <glyph glyph-name="arrowboth" unicode="&#x2194;" horiz-adv-x="773" 
d="M774 351l-248 -296q-48 27 -77 61l157 183h-432l156 -183q-29 -35 -76 -61l-249 296l249 296q43 -22 76 -60l-158 -185h436l-159 185q15 17 35 33t42 27z" />
    <glyph glyph-name="arrowupdn" unicode="&#x2195;" horiz-adv-x="672" 
d="M638 232l-296 -248l-296 248q11 22 27 42t33 35l183 -157l1 192l-1 192l-183 -157q-38 33 -60 76l296 249l296 -249q-26 -47 -61 -76l-184 158l-1 -193l1 -193l184 158q34 -29 61 -77z" />
    <glyph glyph-name="lozenge" unicode="&#x25ca;" horiz-adv-x="452" 
d="M22 351l197 341h139l100 -341l-196 -351h-138zM337 354l-60 232l-134 -238l61 -246z" />
    <glyph glyph-name="at" unicode="@" horiz-adv-x="843" 
d="M585 206q-1 -6 -1 -16q0 -34 31 -34q34 0 58.5 38.5t37.5 95.5t13 109q0 113 -61 171t-179 58q-103 0 -183 -54.5t-123.5 -147t-43.5 -203.5q0 -85 32 -143.5t90.5 -88t136.5 -29.5q105 0 212 42q-1 -38 -16 -86q-49 -19 -97.5 -28.5t-101.5 -9.5q-104 0 -181.5 41
t-119.5 118.5t-42 183.5q0 134 56 245t156.5 176t227.5 65q100 0 173.5 -38.5t113 -109t39.5 -163.5q0 -84 -24.5 -158.5t-72 -120.5t-114.5 -46q-48 0 -77.5 19t-37.5 54q-41 -68 -115 -68q-39 0 -69 19.5t-46.5 58t-16.5 93.5q0 127 57.5 196t173.5 69q43 0 79 -7t75 -19z
M518 433q-25 5 -51 5q-66 0 -97.5 -52.5t-31.5 -134.5q0 -90 66 -90q40 0 81 32v4z" />
    <glyph glyph-name="ampersand" unicode="&#x26;" horiz-adv-x="699" 
d="M518 0l-44 58q-88 -73 -207 -73q-69 0 -120 25t-79 70t-28 106q0 79 45 137t127 89q-30 54 -30 110q0 58 28 100t79.5 64.5t119.5 22.5q80 0 153 -33q-6 -54 -27 -105q-25 14 -56.5 21.5t-63.5 7.5q-54 0 -83 -22.5t-29 -61.5q0 -21 8.5 -42.5t31.5 -52.5l140 -183
q38 73 56 175q59 11 116 9q-14 -76 -39 -146.5t-63 -128.5l113 -147h-148zM411 142l-145 192q-48 -18 -76.5 -56.5t-28.5 -85.5q0 -45 28.5 -72.5t82.5 -27.5q79 0 139 50z" />
    <glyph glyph-name="paragraph" unicode="&#xb6;" horiz-adv-x="632" 
d="M288 203h-28q-95 0 -147 43.5t-52 148.5q0 144 74 220.5t221 76.5h259l-115 -819h-85l103 731h-88l-103 -731h-85z" />
    <glyph glyph-name="section" unicode="&#xa7;" horiz-adv-x="525" 
d="M483 285.5q-25 -31.5 -74 -48.5q26 -17 40 -41.5t14 -59.5q0 -51 -29 -85.5t-80.5 -51.5t-118.5 -17q-56 0 -102 9.5t-98 30.5q1 19 8 48.5t15 44.5q46 -18 87.5 -26.5t88.5 -8.5q51 0 81.5 12.5t30.5 38.5q0 18 -10.5 28.5t-34.5 18t-72 15.5q-80 14 -129.5 46t-49.5 93
q0 44 25 76.5t74 48.5q-54 36 -54 101q0 76 62.5 114t165.5 38q51 0 94 -7t87 -23q-1 -18 -8 -47.5t-15 -45.5q-37 14 -74 20t-84 6q-111 0 -111 -50q0 -18 10.5 -28t34.5 -17.5t72 -16.5q80 -14 129.5 -46t49.5 -95q0 -43 -25 -74.5zM321 273q35 9 54 27t19 45
q0 15 -9.5 26t-31.5 20t-61 18l-55 12q-36 -9 -55 -27.5t-19 -46.5q0 -21 23.5 -35.5t79.5 -25.5q34 -7 55 -13z" />
    <glyph glyph-name="copyright" unicode="&#xa9;" horiz-adv-x="889" 
d="M251.5 -18.5q-91.5 53.5 -144 148t-52.5 211.5q0 116 52.5 210t144 147.5t204.5 53.5t205 -53.5t145 -147.5t53 -210q0 -117 -53 -211.5t-145 -148t-205 -53.5t-204.5 53.5zM620.5 49q73.5 44 115 120.5t41.5 171.5q0 94 -41.5 170.5t-115 120t-164.5 43.5t-163.5 -43.5
t-114 -120t-41.5 -170.5q0 -95 41.5 -171.5t114 -120.5t163.5 -44t164.5 44zM354.5 150.5q-50.5 27.5 -79 77t-28.5 113.5t28.5 113t79 76t114.5 27q67 0 111 -19q-2 -54 -12 -82q-17 9 -41.5 14t-50.5 5q-39 0 -69.5 -16t-47.5 -46t-17 -71t17.5 -71.5t48.5 -47.5t70 -17
q29 0 55 5.5t45 14.5q-2 -43 -12 -88q-50 -15 -97 -15q-64 0 -114.5 27.5z" />
    <glyph glyph-name="registered" unicode="&#xae;" horiz-adv-x="467" 
d="M374.5 683.5q47.5 -26.5 74.5 -73.5t27 -105t-27 -104.5t-74.5 -73t-104.5 -26.5t-104.5 26.5t-74.5 73t-27 104.5t27 105t74.5 73.5t104.5 26.5t104.5 -26.5zM350.5 368q35.5 20 55.5 56t20 81q0 46 -20 82t-55.5 56t-80.5 20t-80.5 -20t-55.5 -56t-20 -82q0 -45 20 -81
t55.5 -56t80.5 -20t80.5 20zM343 511q-10 -16 -28 -25l53 -81h-56l-43 71h-18v-72h-48v202q28 7 64 7q40 0 63 -18t23 -48q0 -20 -10 -36zM251 517h15q20 0 29 6.5t9 20.5q0 28 -37 28h-16v-55z" />
    <glyph glyph-name="trademark" unicode="&#x2122;" horiz-adv-x="661" 
d="M585 693.5q19 2.5 49 2.5l-14 -315h-77l6 76q2 29 5 50.5t4 34.5l3 30q-16 -44 -49 -125l-30 -66h-59l-12 60q-12 70 -19 137q-9 -66 -20 -119l-16 -78h-73l70 304q23 5 43.5 8t45.5 3l23 -211l73 200q28 6 47 8.5zM220 626l-35 -245h-73l35 245h-89q6 36 16 66h241
q-2 -16 -6 -33t-9 -33h-80z" />
    <glyph glyph-name="degree" unicode="&#xb0;" horiz-adv-x="388" 
d="M152.5 416q-37.5 19 -58.5 54.5t-21 82.5t21 82t58 54.5t84 19.5t84.5 -19.5t58.5 -55t21 -81.5q0 -47 -21 -82.5t-58 -54.5t-84 -19t-84.5 19zM288.5 498.5q20.5 20.5 20.5 54.5q0 23 -9.5 40.5t-26 27t-36.5 9.5q-31 0 -51.5 -20.5t-20.5 -56.5q0 -34 20.5 -54.5
t51.5 -20.5t51.5 20.5z" />
    <glyph glyph-name="bar" unicode="|" horiz-adv-x="302" 
d="M173 781q22 8 52 13t56 5l-142 -1011h-105z" />
    <glyph glyph-name="brokenbar" unicode="&#xa6;" horiz-adv-x="303" 
d="M173 781q22 8 52 13t56 5l-62 -444h-105zM90 187h105l-56 -399h-105z" />
    <glyph glyph-name="dagger" unicode="&#x2020;" horiz-adv-x="545" 
d="M501.5 452.5q-7.5 -29.5 -15.5 -51.5h-141l-56 -401h-105l57 401h-151q3 25 9.5 53t14.5 49h141l27 189h104l-26 -189h151q-2 -21 -9.5 -50.5z" />
    <glyph glyph-name="uni2113" unicode="&#x2113;" horiz-adv-x="417" 
d="M192 149q0 -28 12.5 -40t42.5 -12q46 0 90 16q-7 -55 -29 -112q-48 -13 -104 -13q-66 0 -101.5 37.5t-35.5 108.5q0 21 3 45l49 356q12 82 52.5 128t119.5 46q64 0 98.5 -34.5t34.5 -98.5q0 -80 -60.5 -151.5t-151.5 -123.5l-18 -126q-2 -20 -2 -26zM261 594.5
q-11 -18.5 -17 -59.5l-17 -121q89 70 89 165q0 16 -6.5 25t-18.5 9q-19 0 -30 -18.5z" />
    <glyph glyph-name="daggerdbl" unicode="&#x2021;" horiz-adv-x="546" 
d="M350 431l-23 -170h151q-3 -24 -10 -52.5t-15 -49.5h-141l-22 -159h-105l23 159h-151q2 21 9.5 50.5t15.5 51.5h140l24 170h-150q2 23 9 51.5t15 50.5h140l23 159h104l-22 -159h152q-3 -24 -10.5 -53t-15.5 -49h-141z" />
    <glyph glyph-name="estimated" unicode="&#x212e;" horiz-adv-x="831" 
d="M204.5 38q-89.5 47 -137 126.5t-47.5 173.5q0 95 48 179t138 135t209 51q143 0 231.5 -53.5t126.5 -136.5t38 -177h-641q-3 0 -4 -1t-1 -3v-183q0 -22 7 -30q41 -48 103.5 -75t138.5 -27q78 0 139.5 29t118.5 82h70q-41 -48 -85 -78t-102 -44.5t-139 -14.5
q-122 0 -211.5 47zM660 358q3 0 4.5 1t1.5 4v187q0 7 -3 14t-8 12q-52 52 -118.5 77.5t-124.5 25.5q-62 0 -125 -25.5t-113 -75.5q-4 -4 -6.5 -12t-2.5 -16v-187q0 -3 1 -4t4 -1h490z" />
    <glyph glyph-name="uni02C9" unicode="&#x2c9;" horiz-adv-x="388" 
d="M125 701h276q-5 -27 -10 -47.5t-14 -45.5h-276q7 46 24 93z" />
    <glyph glyph-name="uni0308" unicode="&#x308;" horiz-adv-x="0" 
d="M-307.5 607q-19.5 20 -19.5 50q0 31 19 50.5t50 19.5q30 0 49.5 -19.5t19.5 -50.5t-19.5 -50.5t-49.5 -19.5t-49.5 20zM-112.5 606q-19.5 20 -19.5 50q0 31 19.5 51t50.5 20q29 0 48.5 -20t19.5 -51q0 -30 -19.5 -50t-48.5 -20q-31 0 -50.5 20z" />
    <glyph glyph-name="uni0308.aalt" horiz-adv-x="0" 
d="M-294.5 777q-19.5 20 -19.5 51t19.5 50.5t50.5 19.5q30 0 50 -19.5t20 -50.5t-20 -51t-50 -20q-31 0 -50.5 20zM-88.5 777q-19.5 20 -19.5 51q0 30 19.5 50t50.5 20q30 0 49.5 -20t19.5 -50q0 -31 -19.5 -51t-49.5 -20q-31 0 -50.5 20z" />
    <glyph glyph-name="glyph517" horiz-adv-x="0" 
d="M-277.5 608q-19.5 20 -19.5 50q0 31 19 50.5t50 19.5q29 0 48 -19.5t19 -50.5q0 -30 -19 -50t-48 -20q-30 0 -49.5 20zM-110 607.5q-19 19.5 -19 50.5q0 30 19 50t49 20q29 0 48 -20t19 -50q0 -31 -19 -50.5t-48 -19.5q-30 0 -49 19.5z" />
    <glyph glyph-name="glyph518" horiz-adv-x="0" 
d="M-265.5 776.5q-19.5 20.5 -19.5 50.5t19.5 50t49.5 20t49.5 -20t19.5 -50t-19.5 -50.5t-49.5 -20.5t-49.5 20.5zM-88 776.5q-20 20.5 -20 50.5t19.5 50t50.5 20q30 0 49 -20t19 -50t-19 -50.5t-49 -20.5t-50 20.5z" />
    <glyph glyph-name="uni0307" unicode="&#x307;" horiz-adv-x="0" 
d="M-120.5 603q-21.5 21 -21.5 54t21.5 54t53.5 21t53 -21t21 -54q0 -32 -21 -53.5t-53 -21.5t-53.5 21z" />
    <glyph glyph-name="uni0307.aalt" horiz-adv-x="0" 
d="M-94 773.5q-20 20.5 -20 52.5t20 52t53 20q31 0 51 -20t20 -52q0 -33 -20 -53t-51 -20q-33 0 -53 20.5z" />
    <glyph glyph-name="gravecomb" unicode="&#x300;" horiz-adv-x="0" 
d="M-7 573q-43 3 -83.5 26t-71.5 60.5t-45 80.5q32 0 73.5 -5.5t71.5 -15.5l57 -146h-2z" />
    <glyph glyph-name="gravecomb.aalt" horiz-adv-x="0" 
d="M1 761q-61 0 -119 32.5t-99 84.5q13 4 36.5 7t46.5 3q20 0 42.5 -2t36.5 -5l77 -120h-21z" />
    <glyph glyph-name="acutecomb" unicode="&#x301;" horiz-adv-x="0" 
d="M-126 719q30 10 71.5 15.5t73.5 5.5q-14 -43 -45 -80.5t-71.5 -60.5t-83.5 -26h-3z" />
    <glyph glyph-name="acutecomb.aalt" horiz-adv-x="0" 
d="M-124 881q14 3 37 5t43 2q23 0 46 -3t36 -7q-41 -52 -98.5 -84.5t-118.5 -32.5h-21z" />
    <glyph glyph-name="uni030B" unicode="&#x30b;" horiz-adv-x="0" 
d="M-279 720q23 8 61.5 12t70.5 4q-49 -88 -101 -126t-106 -39h-7zM-112 720q22 8 60 11.5t70 3.5q-46 -86 -99 -124.5t-107 -39.5h-6z" />
    <glyph glyph-name="uni030B.aalt" horiz-adv-x="0" 
d="M-268 882q32 6 77 6q38 0 59 -3q-15 -33 -48.5 -62t-75 -46t-80.5 -17h-13zM-97 882q30 6 77 6q38 0 59 -3q-15 -33 -48.5 -62t-75 -46t-80.5 -17h-13z" />
    <glyph glyph-name="glyph527" horiz-adv-x="0" 
d="M-120 605.5q7 38.5 14 86.5q36 10 62.5 14t58.5 4q-13 -60 -46 -108.5t-81 -78.5h-26q11 44 18 82.5z" />
    <glyph glyph-name="uni0302" unicode="&#x302;" horiz-adv-x="0" 
d="M-3 580h-61q-20 9 -35.5 23t-43.5 51q-38 -37 -60.5 -51.5t-45.5 -22.5h-60l112 150q24 5 62 5t59 -5z" />
    <glyph glyph-name="uni0302.aalt" horiz-adv-x="0" 
d="M-205 888q36 9 78 9t75 -9l74 -127h-37q-40 0 -68.5 16.5t-52.5 50.5q-37 -35 -70.5 -51t-72.5 -16h-35z" />
    <glyph glyph-name="glyph530" horiz-adv-x="0" 
d="M-4 578h-41q-20 7 -40 24.5t-45 51.5q-37 -37 -59 -53t-46 -23h-49l106 150q20 6 55 6q34 0 52 -5z" />
    <glyph glyph-name="glyph531" horiz-adv-x="0" 
d="M-175 881q14 4 32.5 6.5t34.5 2.5t33.5 -2.5t30.5 -6.5l66 -119h-44q-29 8 -51 21.5t-40 41.5q-26 -29 -50.5 -42t-52.5 -21h-58z" />
    <glyph glyph-name="uni030C" unicode="&#x30c;" horiz-adv-x="0" 
d="M18 733l-112 -150q-28 -6 -62 -6q-15 0 -30.5 1.5t-28.5 3.5l-73 151h61q14 -7 23.5 -14t23 -21t32.5 -40q39 37 61 52.5t45 22.5h60z" />
    <glyph glyph-name="uni030C.aalt" horiz-adv-x="0" 
d="M-68 768q-36 -9 -79 -9q-41 0 -74 9l-75 127h38q40 0 68.5 -16.5t52.5 -50.5q36 35 69.5 51t73.5 16h35z" />
    <glyph glyph-name="glyph534" horiz-adv-x="0" 
d="M18 733l-106 -150q-20 -6 -55 -6q-32 0 -52 4l-67 152h41q20 -7 40 -24.5t45 -51.5q37 37 59 53t46 23h49z" />
    <glyph glyph-name="uni0306" unicode="&#x306;" horiz-adv-x="0" 
d="M-232.5 592.5q-32.5 19.5 -47.5 51.5t-16 70q19 4 43 6.5t46 2.5q3 -31 16.5 -48.5t42.5 -17.5q55 0 77 66q22 0 46 -2.5t41 -6.5q-18 -63 -56.5 -102t-109.5 -39q-50 0 -82.5 19.5z" />
    <glyph glyph-name="uni0306.aalt" horiz-adv-x="0" 
d="M-213 775.5q-34 17.5 -50.5 46.5t-17.5 63q21 2 45.5 4t45.5 2q3 -26 18.5 -39.5t45.5 -13.5t48.5 13.5t28.5 39.5q20 0 44 -1.5t44 -4.5q-15 -58 -54 -92.5t-113 -34.5q-51 0 -85 17.5z" />
    <glyph glyph-name="glyph537" horiz-adv-x="0" 
d="M-203.5 592.5q-29.5 18.5 -43 48.5t-11.5 66q18 4 42.5 6.5t45.5 2.5q1 -27 11 -42t34 -15q44 0 57 57q52 0 82 -9q-13 -58 -47.5 -95.5t-96.5 -37.5q-44 0 -73.5 18.5z" />
    <glyph glyph-name="glyph538" horiz-adv-x="0" 
d="M-187 776.5q-30 17.5 -44 45t-15 56.5q16 3 40.5 4.5t44.5 1.5q4 -21 17 -32.5t38 -11.5q26 0 40.5 11t21.5 33q19 0 41 -1.5t41 -4.5q-15 -50 -48.5 -84.5t-99.5 -34.5q-47 0 -77 17.5z" />
    <glyph glyph-name="uni030A" unicode="&#x30a;" horiz-adv-x="0" 
d="M-173.5 574q-27.5 14 -43.5 40t-16 59q0 34 16 60t43.5 40t61.5 14t61.5 -14t43 -40t15.5 -60q0 -33 -15.5 -59t-43 -40t-61.5 -14t-61.5 14zM-78.5 637q12.5 14 12.5 36q0 23 -12.5 37t-33.5 14q-22 0 -34.5 -14t-12.5 -37q0 -22 13 -36t34 -14t33.5 14z" />
    <glyph glyph-name="uni030A.aalt" horiz-adv-x="0" 
d="M-148.5 755.5q-27.5 14.5 -43.5 39.5t-16 57q0 31 15.5 56t43 39.5t62.5 14.5t62.5 -14t43 -39t15.5 -57t-16 -57t-43.5 -39.5t-61.5 -14.5t-61.5 14.5zM-52.5 818q13.5 13 13.5 34q0 20 -13.5 33t-34.5 13q-22 0 -35 -13t-13 -33q0 -21 13 -34t35 -13q21 0 34.5 13z" />
    <glyph glyph-name="tildecomb" unicode="&#x303;" horiz-adv-x="0" 
d="M-101.5 593.5q-17.5 9.5 -37.5 25.5q-11 8 -20.5 14t-15.5 6q-8 0 -12.5 -5.5t-6.5 -18.5l-4 -29h-70l10 67q6 35 23.5 51t46.5 16q19 0 36.5 -9.5t39.5 -26.5q10 -8 19 -14t15 -6q9 0 13 5.5t6 19.5l4 29h70l-10 -67q-5 -35 -22.5 -51t-47.5 -16q-19 0 -36.5 9.5z" />
    <glyph glyph-name="tildecomb.aalt" horiz-adv-x="0" 
d="M-97.5 754q-20.5 9 -48.5 26q-14 9 -27.5 15.5t-20.5 6.5q-9 0 -12.5 -6t-5.5 -20l-4 -29h-84l7 52q7 46 28.5 68t57.5 22q23 0 45.5 -10t51.5 -27q3 -2 13.5 -7.5t17.5 -8.5t11 -3q17 0 20 24l3 30h84l-7 -54q-7 -46 -29 -67t-60 -21q-20 0 -40.5 9z" />
    <glyph glyph-name="glyph543" horiz-adv-x="0" 
d="M-100.5 593.5q-15.5 9.5 -33.5 26.5q-2 1 -7.5 6.5t-10 8t-7.5 2.5q-7 0 -11 -5t-6 -19l-4 -27h-72l8 55q12 79 73 79q20 0 35.5 -10t33.5 -27q2 -1 7.5 -6.5t10 -8t7.5 -2.5q7 0 11 5.5t6 18.5l4 28h72l-8 -56q-12 -78 -73 -78q-20 0 -35.5 9.5z" />
    <glyph glyph-name="glyph544" horiz-adv-x="0" 
d="M-85.5 753.5q-17.5 10.5 -37.5 28.5q-8 7 -16 12.5t-13 5.5q-7 0 -11 -5.5t-6 -17.5l-5 -30h-77l8 58q6 44 27.5 64.5t51.5 20.5q21 0 38.5 -10.5t37.5 -28.5t28 -18q7 0 11 5.5t6 18.5l5 29h77l-8 -58q-6 -44 -27 -64.5t-51 -20.5q-21 0 -38.5 10.5z" />
    <glyph glyph-name="uni0304" unicode="&#x304;" horiz-adv-x="0" 
d="M-263 701h276q-5 -27 -10 -47.5t-14 -45.5h-276q7 46 24 93z" />
    <glyph glyph-name="uni0304.aalt" horiz-adv-x="0" 
d="M-253.5 823.5q5.5 20.5 14.5 47.5h277q-9 -44 -25 -92h-276q4 24 9.5 44.5z" />
    <glyph glyph-name="glyph547" horiz-adv-x="0" 
d="M-227 703h241q-5 -24 -10.5 -46t-14.5 -46h-241q9 48 25 92z" />
    <glyph glyph-name="glyph548" horiz-adv-x="0" 
d="M-211 870h248q-5 -27 -10.5 -47t-14.5 -45h-247q7 43 24 92z" />
    <glyph glyph-name="uni0313" unicode="&#x313;" horiz-adv-x="0" 
d="M-120 608.5q7 38.5 14 86.5q36 10 62.5 14t58.5 4q-13 -60 -46 -108.5t-81 -78.5h-26q11 44 18 82.5z" />
    <glyph glyph-name="uni0326" unicode="&#x326;" horiz-adv-x="0" 
d="M-229 -164.5q7 38.5 14 86.5q36 10 62.5 14t58.5 4q-13 -60 -46 -108.5t-81 -78.5h-26q11 44 18 82.5z" />
    <glyph glyph-name="uni0327" unicode="&#x327;" horiz-adv-x="0" 
d="M-119 -75q16 -19 16 -48q0 -47 -32.5 -72t-84.5 -25q-20 0 -41 4t-36 10q6 36 20 61q25 -9 47 -9t33.5 8t11.5 22q0 16 -18 24t-57 9l48 106h72l-28 -61q33 -10 49 -29z" />
    <glyph glyph-name="uni0328" unicode="&#x328;" horiz-adv-x="0" 
d="M-263.5 -196.5q-28.5 24.5 -28.5 72.5q0 41 30 78.5t89 66.5l53 -21q-30 -16 -49.5 -45t-19.5 -56q0 -37 42 -37q11 0 23 3.5t21 6.5q-3 -21 -8 -40t-14 -44q-23 -9 -62 -9q-48 0 -76.5 24.5z" />
    <glyph glyph-name="glyph553" horiz-adv-x="0" 
d="M-250 -195.5q-26 24.5 -26 67.5q0 34 13.5 60t34.5 45.5t55 43.5l62 -21q-33 -25 -49.5 -50t-16.5 -52q0 -17 9 -25.5t26 -8.5q22 0 39 10q-6 -44 -20 -85q-7 -3 -23.5 -6t-32.5 -3q-45 0 -71 24.5z" />
    <glyph glyph-name="acute" unicode="&#xb4;" horiz-adv-x="279" 
d="M153 719q30 10 71.5 15.5t73.5 5.5q-14 -43 -45 -80.5t-71.5 -60.5t-83.5 -26h-3z" />
    <glyph glyph-name="breve" unicode="&#x2d8;" horiz-adv-x="411" 
d="M178.5 592.5q-32.5 19.5 -47.5 51.5t-16 70q19 4 43 6.5t46 2.5q3 -31 16.5 -48.5t42.5 -17.5q55 0 77 66q22 0 46 -2.5t41 -6.5q-18 -63 -56.5 -102t-109.5 -39q-50 0 -82.5 19.5z" />
    <glyph glyph-name="caron" unicode="&#x2c7;" horiz-adv-x="406" 
d="M424 733l-112 -150q-28 -6 -62 -6q-15 0 -30.5 1.5t-28.5 3.5l-73 151h61q14 -7 23.5 -14t23 -21t32.5 -40q39 37 61 52.5t45 22.5h60z" />
    <glyph glyph-name="cedilla" unicode="&#xb8;" horiz-adv-x="283" 
d="M164 -75q16 -19 16 -48q0 -47 -32.5 -72t-84.5 -25q-20 0 -41 4t-36 10q6 36 20 61q25 -9 47 -9t33.5 8t11.5 22q0 16 -18 24t-57 9l48 106h72l-28 -61q33 -10 49 -29z" />
    <glyph glyph-name="circumflex" unicode="&#x2c6;" horiz-adv-x="406" 
d="M403 580h-61q-20 9 -35.5 23t-43.5 51q-38 -37 -60.5 -51.5t-45.5 -22.5h-60l112 150q24 5 62 5t59 -5z" />
    <glyph glyph-name="dieresis" unicode="&#xa8;" horiz-adv-x="435" 
d="M127.5 607q-19.5 20 -19.5 50q0 31 19 50.5t50 19.5q30 0 49.5 -19.5t19.5 -50.5t-19.5 -50.5t-49.5 -19.5t-49.5 20zM322.5 606q-19.5 20 -19.5 50q0 31 19.5 51t50.5 20q29 0 48.5 -20t19.5 -51q0 -30 -19.5 -50t-48.5 -20q-31 0 -50.5 20z" />
    <glyph glyph-name="dotaccent" unicode="&#x2d9;" horiz-adv-x="250" 
d="M129.5 603q-21.5 21 -21.5 54t21.5 54t53.5 21t53 -21t21 -54q0 -32 -21 -53.5t-53 -21.5t-53.5 21z" />
    <glyph glyph-name="grave" unicode="`" horiz-adv-x="326" 
d="M319 573q-43 3 -83.5 26t-71.5 60.5t-45 80.5q32 0 73.5 -5.5t71.5 -15.5l57 -146h-2z" />
    <glyph glyph-name="hungarumlaut" unicode="&#x2dd;" horiz-adv-x="456" 
d="M177 720q23 8 61.5 12t70.5 4q-49 -88 -101 -126t-106 -39h-7zM344 720q22 8 60 11.5t70 3.5q-46 -86 -99 -124.5t-107 -39.5h-6z" />
    <glyph glyph-name="macron" unicode="&#xaf;" horiz-adv-x="388" 
d="M125 701h276q-5 -27 -10 -47.5t-14 -45.5h-276q7 46 24 93z" />
    <glyph glyph-name="ogonek" unicode="&#x2db;" horiz-adv-x="290" 
d="M26.5 -196.5q-28.5 24.5 -28.5 72.5q0 41 30 78.5t89 66.5l53 -21q-30 -16 -49.5 -45t-19.5 -56q0 -37 42 -37q11 0 23 3.5t21 6.5q-3 -21 -8 -40t-14 -44q-23 -9 -62 -9q-48 0 -76.5 24.5z" />
    <glyph glyph-name="ring" unicode="&#x2da;" horiz-adv-x="343" 
d="M169.5 574q-27.5 14 -43.5 40t-16 59q0 34 16 60t43.5 40t61.5 14t61.5 -14t43 -40t15.5 -60q0 -33 -15.5 -59t-43 -40t-61.5 -14t-61.5 14zM264.5 637q12.5 14 12.5 36q0 23 -12.5 37t-33.5 14q-22 0 -34.5 -14t-12.5 -37q0 -22 13 -36t34 -14t33.5 14z" />
    <glyph glyph-name="tilde" unicode="&#x2dc;" horiz-adv-x="365" 
d="M263.5 593.5q-17.5 9.5 -37.5 25.5q-11 8 -20.5 14t-15.5 6q-8 0 -12.5 -5.5t-6.5 -18.5l-4 -29h-70l10 67q6 35 23.5 51t46.5 16q19 0 36.5 -9.5t39.5 -26.5q10 -8 19 -14t15 -6q9 0 13 5.5t6 19.5l4 29h70l-10 -67q-5 -35 -22.5 -51t-47.5 -16q-19 0 -36.5 9.5z" />
    </font>
</defs>
</svg>
