<?xml version="1.0" standalone="no"?>
<!DOCTYPE svg PUBLIC "-//W3C//DTD SVG 1.1//EN" "http://www.w3.org/Graphics/SVG/1.1/DTD/svg11.dtd" >
<svg xmlns="http://www.w3.org/2000/svg" xmlns:xlink="http://www.w3.org/1999/xlink" version="1.1">
<metadata>
Created by FontForge 20170924 at Mon Oct 15 14:16:33 2018
 By www-data
(c) 2018 Banco Santander, S.A. All rights reserved.
</metadata>
<defs>
<font id="SantanderHeadlineW05-BoldIt" horiz-adv-x="550" >
  <font-face 
    font-family="SantanderHeadlineW05-BoldIt"
    font-weight="700"
    font-style="italic"
    font-stretch="normal"
    units-per-em="1000"
    panose-1="2 11 5 4 2 2 1 1 1 4"
    ascent="800"
    descent="-200"
    x-height="499"
    cap-height="701"
    bbox="-357 -309 1159 1132"
    underline-thickness="50"
    underline-position="-125"
    slope="-8"
    unicode-range="U+000D-FEFF"
  />
<missing-glyph horiz-adv-x="753" 
d="M132 0v692h516v-692h-516zM221 82h338v528h-338v-528z" />
    <glyph glyph-name="f_f.liga" unicode="ff" horiz-adv-x="608" 
d="M531 588q-21 -20 -27 -62l-4 -27h139q-12 -57 -26 -101h-127l-56 -398h-125l57 398h-163l-56 -398h-125l74 528q25 182 196 182q50 0 90 -14q-7 -44 -25 -97q-27 9 -55 9q-71 0 -81 -78l-4 -31h163l4 29q12 90 61 136t142 46q50 0 94 -12q-3 -22 -10 -49.5t-15 -48.5
q-30 8 -61 8q-39 0 -60 -20z" />
    <glyph glyph-name="f_f_i.liga" unicode="ffi" horiz-adv-x="829" 
d="M823.5 711q20.5 -21 20.5 -54q0 -32 -21 -53.5t-52 -21.5q-33 0 -54 21t-21 54t21 54t54 21q32 0 52.5 -21zM605.5 447.5q-6.5 -26.5 -14.5 -49.5h-100l-56 -398h-125l56 398h-167l-56 -398h-125l74 528q25 182 196 182q50 0 90 -14q-7 -44 -25 -97q-27 9 -55 9
q-71 0 -81 -78l-4 -31h167l4 29q12 87 62.5 134.5t135.5 47.5q24 0 43.5 -2.5t40.5 -8.5q-14 -68 -25 -99q-27 8 -54 8q-33 0 -53 -19.5t-25 -58.5l-4 -31h112q-5 -25 -11.5 -51.5zM686 499h125l-70 -499h-125z" />
    <glyph glyph-name="f_f_l.liga" unicode="ffl" horiz-adv-x="830" 
d="M605.5 447.5q-6.5 -26.5 -14.5 -49.5h-100l-56 -398h-125l56 398h-167l-56 -398h-125l74 528q25 182 196 182q50 0 90 -14q-7 -44 -25 -97q-27 9 -55 9q-71 0 -81 -78l-4 -31h167l4 29q12 87 62.5 134.5t135.5 47.5q24 0 43.5 -2.5t40.5 -8.5q-14 -68 -25 -99
q-27 8 -54 8q-33 0 -53 -19.5t-25 -58.5l-4 -31h112q-5 -25 -11.5 -51.5zM841 710l-98 -710h-127l97 692q65 18 128 18z" />
    <glyph glyph-name="uniFB01" unicode="fi" horiz-adv-x="537" 
d="M531.5 711q20.5 -21 20.5 -54q0 -32 -21 -53.5t-52 -21.5q-33 0 -54 21t-21 54t21 54t54 21q32 0 52.5 -21zM313.5 447.5q-6.5 -26.5 -14.5 -49.5h-100l-56 -398h-125l74 528q12 87 62.5 134.5t135.5 47.5q24 0 43.5 -2.5t40.5 -8.5q-14 -68 -25 -99q-27 8 -54 8
q-33 0 -53 -19.5t-25 -58.5l-4 -31h112q-5 -25 -11.5 -51.5zM394 499h125l-70 -499h-125z" />
    <glyph glyph-name="uniFB02" unicode="fl" horiz-adv-x="538" 
d="M313.5 447.5q-6.5 -26.5 -14.5 -49.5h-100l-56 -398h-125l74 528q12 87 62.5 134.5t135.5 47.5q24 0 43.5 -2.5t40.5 -8.5q-14 -68 -25 -99q-27 8 -54 8q-33 0 -53 -19.5t-25 -58.5l-4 -31h112q-5 -25 -11.5 -51.5zM549 710l-98 -710h-127l97 692q65 18 128 18z" />
    <glyph glyph-name="exclam_L.liga" unicode="&#x21;L" horiz-adv-x="1315" 
d="M991.5 453.5q67.5 -39.5 105.5 -90.5t38 -107q0 -79 -71.5 -145.5t-193.5 -105.5t-266 -39t-266 39t-193.5 105.5t-71.5 145.5q0 56 38 107t106 90.5t157 63.5q0 -75 31 -126l167 -288q18 -31 25 -72l6 14q27 64 27 123t-27 106l-132 231q-33 58 -33 111t33 120l6 12
q3 -18 9.5 -34t17.5 -36l199 -345q18 -32 25 -71l8 12q30 54 30 116q0 63 -30 115l-133 231q-30 53 -30 115q0 63 30 115l7 12q4 -17 11 -36.5t15 -33.5l169 -288q25 -43 30 -103q89 -24 156.5 -63.5z" />
    <glyph glyph-name=".notdef" horiz-adv-x="753" 
d="M132 0v692h516v-692h-516zM221 82h338v528h-338v-528z" />
    <glyph glyph-name="glyph1" horiz-adv-x="0" 
 />
    <glyph glyph-name="glyph1" horiz-adv-x="0" 
 />
    <glyph glyph-name="uni000D" unicode="&#xd;" horiz-adv-x="200" 
 />
    <glyph glyph-name="space" unicode=" " horiz-adv-x="200" 
 />
    <glyph glyph-name="A" unicode="A" horiz-adv-x="582" 
d="M395 136h-240l-57 -136h-129l300 682q34 8 79 12t85 4l110 -698h-131zM381 244l-41 330l-139 -330h180z" />
    <glyph glyph-name="Aacute" unicode="&#xc1;" horiz-adv-x="582" 
d="M395 136h-240l-57 -136h-129l300 682q34 8 79 12t85 4l110 -698h-131zM381 244l-41 330l-139 -330h180zM361 881q14 3 36.5 5t42.5 2q23 0 46 -3t36 -7q-39 -51 -97 -84t-118 -33h-21z" />
    <glyph glyph-name="Abreve" unicode="&#x102;" horiz-adv-x="582" 
d="M395 136h-240l-57 -136h-129l300 682q34 8 79 12t85 4l110 -698h-131zM381 244l-41 330l-139 -330h180zM280.5 775.5q-33.5 17.5 -49.5 46t-17 63.5q21 2 45.5 4t45.5 2q6 -53 62 -53q29 0 46.5 14t28.5 39q20 0 44 -1.5t44 -4.5q-16 -58 -54 -92.5t-111 -34.5
q-51 0 -84.5 17.5z" />
    <glyph glyph-name="Acircumflex" unicode="&#xc2;" horiz-adv-x="582" 
d="M395 136h-240l-57 -136h-129l300 682q34 8 79 12t85 4l110 -698h-131zM381 244l-41 330l-139 -330h180zM314 888q36 9 78 9t75 -9l72 -127h-36q-38 0 -67 15.5t-53 51.5q-37 -35 -70 -51t-71 -16h-35z" />
    <glyph glyph-name="Adieresis" unicode="&#xc4;" horiz-adv-x="582" 
d="M395 136h-240l-57 -136h-129l300 682q34 8 79 12t85 4l110 -698h-131zM381 244l-41 330l-139 -330h180zM220.5 777q-19.5 20 -19.5 51t19.5 50.5t50.5 19.5q30 0 50 -19.5t20 -50.5t-20 -51t-50 -20q-31 0 -50.5 20zM426.5 777q-19.5 20 -19.5 51q0 30 19.5 50t50.5 20
q30 0 49.5 -20t19.5 -50q0 -31 -19.5 -51t-49.5 -20q-31 0 -50.5 20z" />
    <glyph glyph-name="Agrave" unicode="&#xc0;" horiz-adv-x="582" 
d="M395 136h-240l-57 -136h-129l300 682q34 8 79 12t85 4l110 -698h-131zM381 244l-41 330l-139 -330h180zM440 761q-60 0 -118 33t-98 84q13 4 36.5 7t46.5 3q19 0 41.5 -2t36.5 -5l76 -120h-21z" />
    <glyph glyph-name="Amacron" unicode="&#x100;" horiz-adv-x="582" 
d="M395 136h-240l-57 -136h-129l300 682q34 8 79 12t85 4l110 -698h-131zM381 244l-41 330l-139 -330h180zM248 871h273q-5 -24 -11 -46t-14 -46h-272q10 53 24 92z" />
    <glyph glyph-name="Aogonek" unicode="&#x104;" horiz-adv-x="582" 
d="M496 -138q11 0 23 3.5t21 6.5q-3 -21 -8 -40t-14 -44q-22 -9 -62 -9q-48 0 -76.5 24.5t-28.5 72.5q0 34 20.5 65.5t61.5 58.5h-21l-17 136h-240l-57 -136h-129l300 682q34 8 79 12t85 4l110 -698h-20q-30 -16 -49.5 -45t-19.5 -56q0 -37 42 -37zM381 244l-41 330
l-139 -330h180z" />
    <glyph glyph-name="Aring" unicode="&#xc5;" horiz-adv-x="582" 
d="M395 136h-240l-57 -136h-129l300 682q34 8 79 12t85 4l110 -698h-131zM381 244l-41 330l-139 -330h180zM307.5 755.5q-27.5 14.5 -43.5 39.5t-16 57q0 31 15.5 56t43 39.5t62.5 14.5t62.5 -14t43 -39t15.5 -57t-16 -57t-43.5 -39.5t-61.5 -14.5t-61.5 14.5zM403.5 818
q13.5 13 13.5 34q0 20 -13.5 33t-34.5 13q-22 0 -35 -13t-13 -33q0 -21 13 -34t35 -13q21 0 34.5 13z" />
    <glyph glyph-name="Aringacute" unicode="&#x1fa;" horiz-adv-x="582" 
d="M395 136h-240l-57 -136h-129l300 682q34 8 79 12t85 4l110 -698h-131zM381 244l-41 330l-139 -330h180zM307.5 755.5q-27.5 14.5 -43.5 39.5t-16 57q0 31 15.5 56t43 39.5t62.5 14.5t62.5 -14t43 -39t15.5 -57t-16 -57t-43.5 -39.5t-61.5 -14.5t-61.5 14.5zM403.5 818
q13.5 13 13.5 34q0 20 -13.5 33t-34.5 13q-22 0 -35 -13t-13 -33q0 -21 13 -34t35 -13q21 0 34.5 13zM391 1125q14 3 36.5 5t42.5 2q23 0 46 -3t36 -7q-39 -51 -97 -84t-118 -33h-21z" />
    <glyph glyph-name="Atilde" unicode="&#xc3;" horiz-adv-x="582" 
d="M395 136h-240l-57 -136h-129l300 682q34 8 79 12t85 4l110 -698h-131zM381 244l-41 330l-139 -330h180zM404.5 754q-19.5 9 -48.5 26q-14 9 -27 15.5t-20 6.5q-8 0 -12 -6t-6 -20l-4 -29h-83l7 52q13 90 85 90q23 0 45.5 -10t49.5 -27q3 -2 13.5 -7.5t17.5 -8.5t11 -3
q16 0 19 24l3 30h84l-8 -54q-7 -46 -29 -67t-58 -21q-20 0 -39.5 9z" />
    <glyph glyph-name="AE" unicode="&#xc6;" horiz-adv-x="826" 
d="M540 405h251q-3 -25 -10.5 -57.5t-15.5 -53.5h-240l-26 -183h279q-3 -27 -10 -58.5t-16 -52.5h-396l21 152h-208q-36 -68 -78 -152h-137q86 171 199.5 357t220.5 335h487q-3 -26 -10.5 -58.5t-15.5 -52.5h-270zM393 261l44 320h-7q-96 -135 -201 -320h164z" />
    <glyph glyph-name="AEacute" unicode="&#x1fc;" horiz-adv-x="826" 
d="M540 405h251q-3 -25 -10.5 -57.5t-15.5 -53.5h-240l-26 -183h279q-3 -27 -10 -58.5t-16 -52.5h-396l21 152h-208q-36 -68 -78 -152h-137q86 171 199.5 357t220.5 335h487q-3 -26 -10.5 -58.5t-15.5 -52.5h-270zM393 261l44 320h-7q-96 -135 -201 -320h164zM608 881
q14 3 36.5 5t42.5 2q23 0 46 -3t36 -7q-39 -51 -97 -84t-118 -33h-21z" />
    <glyph glyph-name="B" unicode="B" horiz-adv-x="573" 
d="M518.5 303.5q22.5 -37.5 22.5 -87.5q0 -70 -33 -118.5t-92 -73t-138 -24.5h-243l97 693q39 7 92.5 12t100.5 5q120 0 179 -44t59 -125q0 -63 -29.5 -108.5t-82.5 -70.5q45 -21 67.5 -58.5zM406.5 583.5q-25.5 19.5 -85.5 19.5q-35 0 -73 -5l-27 -192h79q41 0 70.5 14.5
t45.5 41t16 61.5q0 41 -25.5 60.5zM374.5 136q36.5 30 36.5 84q0 45 -27 63.5t-79 18.5h-99l-28 -196h96q64 0 100.5 30z" />
    <glyph glyph-name="C" unicode="C" horiz-adv-x="519" 
d="M164 18q-62 36 -93.5 102.5t-31.5 156.5q0 122 44.5 220.5t127.5 155.5t196 57q98 0 151 -36q-7 -58 -26 -108q-23 15 -52.5 23t-61.5 8q-77 0 -133 -42.5t-84.5 -112.5t-28.5 -152q0 -96 43.5 -145t121.5 -49q75 0 141 24q-9 -66 -31 -119q-68 -19 -133 -19
q-88 0 -150 36z" />
    <glyph glyph-name="Cacute" unicode="&#x106;" horiz-adv-x="519" 
d="M164 18q-62 36 -93.5 102.5t-31.5 156.5q0 122 44.5 220.5t127.5 155.5t196 57q98 0 151 -36q-7 -58 -26 -108q-23 15 -52.5 23t-61.5 8q-77 0 -133 -42.5t-84.5 -112.5t-28.5 -152q0 -96 43.5 -145t121.5 -49q75 0 141 24q-9 -66 -31 -119q-68 -19 -133 -19
q-88 0 -150 36zM396 881q14 3 36.5 5t42.5 2q23 0 46 -3t36 -7q-39 -51 -97 -84t-118 -33h-21z" />
    <glyph glyph-name="Ccaron" unicode="&#x10c;" horiz-adv-x="519" 
d="M164 18q-62 36 -93.5 102.5t-31.5 156.5q0 122 44.5 220.5t127.5 155.5t196 57q98 0 151 -36q-7 -58 -26 -108q-23 15 -52.5 23t-61.5 8q-77 0 -133 -42.5t-84.5 -112.5t-28.5 -152q0 -96 43.5 -145t121.5 -49q75 0 141 24q-9 -66 -31 -119q-68 -19 -133 -19
q-88 0 -150 36zM469 768q-36 -9 -79 -9q-41 0 -74 9l-73 127h37q38 0 66.5 -15.5t53.5 -51.5q36 35 69 51t72 16h35z" />
    <glyph glyph-name="Ccedilla" unicode="&#xc7;" horiz-adv-x="519" 
d="M285 554.5q-56 -42.5 -84.5 -112.5t-28.5 -152q0 -96 43.5 -145t121.5 -49q75 0 141 24q-9 -66 -31 -119q-60 -17 -111 -18l-13 -29q33 -10 49 -29t16 -48q0 -47 -32 -72t-84 -25q-21 0 -42 4t-36 10q6 36 20 61q25 -9 47 -9t34 8t12 22q0 16 -18.5 24t-57.5 9l35 76
q-73 9 -124 47.5t-77 101t-26 143.5q0 122 44.5 220.5t127.5 155.5t196 57q98 0 151 -36q-7 -58 -26 -108q-23 15 -52.5 23t-61.5 8q-77 0 -133 -42.5z" />
    <glyph glyph-name="Ccircumflex" unicode="&#x108;" horiz-adv-x="519" 
d="M164 18q-62 36 -93.5 102.5t-31.5 156.5q0 122 44.5 220.5t127.5 155.5t196 57q98 0 151 -36q-7 -58 -26 -108q-23 15 -52.5 23t-61.5 8q-77 0 -133 -42.5t-84.5 -112.5t-28.5 -152q0 -96 43.5 -145t121.5 -49q75 0 141 24q-9 -66 -31 -119q-68 -19 -133 -19
q-88 0 -150 36zM349 888q36 9 78 9t75 -9l72 -127h-36q-38 0 -67 15.5t-53 51.5q-37 -35 -70 -51t-71 -16h-35z" />
    <glyph glyph-name="Cdotaccent" unicode="&#x10a;" horiz-adv-x="519" 
d="M164 18q-62 36 -93.5 102.5t-31.5 156.5q0 122 44.5 220.5t127.5 155.5t196 57q98 0 151 -36q-7 -58 -26 -108q-23 15 -52.5 23t-61.5 8q-77 0 -133 -42.5t-84.5 -112.5t-28.5 -152q0 -96 43.5 -145t121.5 -49q75 0 141 24q-9 -66 -31 -119q-68 -19 -133 -19
q-88 0 -150 36zM356 773.5q-20 20.5 -20 52.5t20 52t53 20q31 0 51 -20t20 -52q0 -33 -20 -53t-51 -20q-33 0 -53 20.5z" />
    <glyph glyph-name="D" unicode="D" horiz-adv-x="633" 
d="M491.5 673q66.5 -37 98 -102t31.5 -153q0 -128 -44.5 -222t-130.5 -145t-209 -51h-202l97 692q88 18 192 18q101 0 167.5 -37zM384.5 152q53.5 40 79 108.5t25.5 156.5q0 92 -40 136.5t-127 44.5q-32 0 -74 -5l-69 -481h71q81 0 134.5 40z" />
    <glyph glyph-name="Eth" unicode="&#xd0;" horiz-adv-x="654" 
d="M513.5 673q66.5 -37 98 -102t31.5 -153q0 -128 -44.5 -222t-130.5 -145t-209 -51h-203l42 298h-84q11 57 28 97h69l42 297q90 18 193 18q101 0 167.5 -37zM406 152q54 40 79.5 108.5t25.5 156.5q0 92 -40.5 136.5t-127.5 44.5q-31 0 -73 -5l-29 -198h132q-13 -63 -28 -97
h-118l-27 -186h71q81 0 135 40z" />
    <glyph glyph-name="Dcaron" unicode="&#x10e;" horiz-adv-x="633" 
d="M491.5 673q66.5 -37 98 -102t31.5 -153q0 -128 -44.5 -222t-130.5 -145t-209 -51h-202l97 692q88 18 192 18q101 0 167.5 -37zM384.5 152q53.5 40 79 108.5t25.5 156.5q0 92 -40 136.5t-127 44.5q-32 0 -74 -5l-69 -481h71q81 0 134.5 40zM420 768q-36 -9 -79 -9
q-41 0 -74 9l-73 127h37q38 0 66.5 -15.5t53.5 -51.5q36 35 69 51t72 16h35z" />
    <glyph glyph-name="Dcroat" unicode="&#x110;" horiz-adv-x="654" 
d="M513.5 673q66.5 -37 98 -102t31.5 -153q0 -128 -44.5 -222t-130.5 -145t-209 -51h-203l42 298h-84q11 57 28 97h69l42 297q90 18 193 18q101 0 167.5 -37zM406 152q54 40 79.5 108.5t25.5 156.5q0 92 -40.5 136.5t-127.5 44.5q-31 0 -73 -5l-29 -198h132q-13 -63 -28 -97
h-118l-27 -186h71q81 0 135 40z" />
    <glyph glyph-name="E" unicode="E" horiz-adv-x="505" 
d="M244 581l-25 -176h251q-3 -26 -10.5 -58t-16.5 -53h-239l-26 -183h279q-3 -26 -10.5 -58t-15.5 -53h-396l97 692h408q-3 -26 -10.5 -58.5t-16.5 -52.5h-269z" />
    <glyph glyph-name="Eacute" unicode="&#xc9;" horiz-adv-x="505" 
d="M244 581l-25 -176h251q-3 -26 -10.5 -58t-16.5 -53h-239l-26 -183h279q-3 -26 -10.5 -58t-15.5 -53h-396l97 692h408q-3 -26 -10.5 -58.5t-16.5 -52.5h-269zM351 881q14 3 36.5 5t42.5 2q23 0 46 -3t36 -7q-39 -51 -97 -84t-118 -33h-21z" />
    <glyph glyph-name="Ebreve" unicode="&#x114;" horiz-adv-x="505" 
d="M244 581l-25 -176h251q-3 -26 -10.5 -58t-16.5 -53h-239l-26 -183h279q-3 -26 -10.5 -58t-15.5 -53h-396l97 692h408q-3 -26 -10.5 -58.5t-16.5 -52.5h-269zM271.5 775.5q-33.5 17.5 -49.5 46t-17 63.5q21 2 45.5 4t45.5 2q6 -53 62 -53q29 0 46.5 14t28.5 39
q20 0 44 -1.5t44 -4.5q-16 -58 -54 -92.5t-111 -34.5q-51 0 -84.5 17.5z" />
    <glyph glyph-name="Ecaron" unicode="&#x11a;" horiz-adv-x="505" 
d="M244 581l-25 -176h251q-3 -26 -10.5 -58t-16.5 -53h-239l-26 -183h279q-3 -26 -10.5 -58t-15.5 -53h-396l97 692h408q-3 -26 -10.5 -58.5t-16.5 -52.5h-269zM424 768q-36 -9 -79 -9q-41 0 -74 9l-73 127h37q38 0 66.5 -15.5t53.5 -51.5q36 35 69 51t72 16h35z" />
    <glyph glyph-name="Ecircumflex" unicode="&#xca;" horiz-adv-x="505" 
d="M244 581l-25 -176h251q-3 -26 -10.5 -58t-16.5 -53h-239l-26 -183h279q-3 -26 -10.5 -58t-15.5 -53h-396l97 692h408q-3 -26 -10.5 -58.5t-16.5 -52.5h-269zM305 888q36 9 78 9t75 -9l72 -127h-36q-38 0 -67 15.5t-53 51.5q-37 -35 -70 -51t-71 -16h-35z" />
    <glyph glyph-name="Edieresis" unicode="&#xcb;" horiz-adv-x="505" 
d="M244 581l-25 -176h251q-3 -26 -10.5 -58t-16.5 -53h-239l-26 -183h279q-3 -26 -10.5 -58t-15.5 -53h-396l97 692h408q-3 -26 -10.5 -58.5t-16.5 -52.5h-269zM211.5 777q-19.5 20 -19.5 51t19.5 50.5t50.5 19.5q30 0 50 -19.5t20 -50.5t-20 -51t-50 -20q-31 0 -50.5 20z
M417.5 777q-19.5 20 -19.5 51q0 30 19.5 50t50.5 20q30 0 49.5 -20t19.5 -50q0 -31 -19.5 -51t-49.5 -20q-31 0 -50.5 20z" />
    <glyph glyph-name="Edotaccent" unicode="&#x116;" horiz-adv-x="505" 
d="M244 581l-25 -176h251q-3 -26 -10.5 -58t-16.5 -53h-239l-26 -183h279q-3 -26 -10.5 -58t-15.5 -53h-396l97 692h408q-3 -26 -10.5 -58.5t-16.5 -52.5h-269zM311 773.5q-20 20.5 -20 52.5t20 52t53 20q31 0 51 -20t20 -52q0 -33 -20 -53t-51 -20q-33 0 -53 20.5z" />
    <glyph glyph-name="Egrave" unicode="&#xc8;" horiz-adv-x="505" 
d="M244 581l-25 -176h251q-3 -26 -10.5 -58t-16.5 -53h-239l-26 -183h279q-3 -26 -10.5 -58t-15.5 -53h-396l97 692h408q-3 -26 -10.5 -58.5t-16.5 -52.5h-269zM430 761q-60 0 -118 33t-98 84q13 4 36.5 7t46.5 3q19 0 41.5 -2t36.5 -5l76 -120h-21z" />
    <glyph glyph-name="Emacron" unicode="&#x112;" horiz-adv-x="505" 
d="M244 581l-25 -176h251q-3 -26 -10.5 -58t-16.5 -53h-239l-26 -183h279q-3 -26 -10.5 -58t-15.5 -53h-396l97 692h408q-3 -26 -10.5 -58.5t-16.5 -52.5h-269zM239 871h273q-5 -24 -11 -46t-14 -46h-272q10 53 24 92z" />
    <glyph glyph-name="Eogonek" unicode="&#x118;" horiz-adv-x="505" 
d="M244 581l-25 -176h251q-3 -26 -10.5 -58t-16.5 -53h-239l-26 -183h279q-3 -26 -10.5 -58t-15.5 -53h-14q-30 -16 -49.5 -45t-19.5 -56q0 -37 42 -37q11 0 23 3.5t21 6.5q-3 -21 -8 -40t-14 -44q-22 -9 -62 -9q-48 0 -76 24.5t-28 72.5q0 34 20 65.5t61 58.5h-292l97 692
h408q-3 -26 -10.5 -58.5t-16.5 -52.5h-269z" />
    <glyph glyph-name="F" unicode="F" horiz-adv-x="482" 
d="M244 581l-25 -179h240q-2 -23 -10 -57t-16 -55h-230l-40 -290h-128l97 692h393q-3 -27 -10.5 -59t-16.5 -52h-254z" />
    <glyph glyph-name="G" unicode="G" horiz-adv-x="610" 
d="M289 556q-58 -41 -88 -110t-30 -152q0 -99 42.5 -148t126.5 -49q30 0 69 7l36 252h128l-48 -336q-42 -18 -96 -27t-108 -9q-90 0 -153.5 35t-96 100.5t-32.5 155.5q0 130 46 228t135 152.5t214 54.5q103 0 177 -33q-9 -52 -31 -110q-37 16 -73.5 23t-78.5 7
q-81 0 -139 -41z" />
    <glyph glyph-name="Gbreve" unicode="&#x11e;" horiz-adv-x="610" 
d="M289 556q-58 -41 -88 -110t-30 -152q0 -99 42.5 -148t126.5 -49q30 0 69 7l36 252h128l-48 -336q-42 -18 -96 -27t-108 -9q-90 0 -153.5 35t-96 100.5t-32.5 155.5q0 130 46 228t135 152.5t214 54.5q103 0 177 -33q-9 -52 -31 -110q-37 16 -73.5 23t-78.5 7
q-81 0 -139 -41zM343.5 775.5q-33.5 17.5 -49.5 46t-17 63.5q21 2 45.5 4t45.5 2q6 -53 62 -53q29 0 46.5 14t28.5 39q20 0 44 -1.5t44 -4.5q-16 -58 -54 -92.5t-111 -34.5q-51 0 -84.5 17.5z" />
    <glyph glyph-name="Gcircumflex" unicode="&#x11c;" horiz-adv-x="610" 
d="M289 556q-58 -41 -88 -110t-30 -152q0 -99 42.5 -148t126.5 -49q30 0 69 7l36 252h128l-48 -336q-42 -18 -96 -27t-108 -9q-90 0 -153.5 35t-96 100.5t-32.5 155.5q0 130 46 228t135 152.5t214 54.5q103 0 177 -33q-9 -52 -31 -110q-37 16 -73.5 23t-78.5 7
q-81 0 -139 -41zM377 888q36 9 78 9t75 -9l72 -127h-36q-38 0 -67 15.5t-53 51.5q-37 -35 -70 -51t-71 -16h-35z" />
    <glyph glyph-name="uni0122" unicode="&#x122;" horiz-adv-x="610" 
d="M289 556q-58 -41 -88 -110t-30 -152q0 -99 42.5 -148t126.5 -49q30 0 69 7l36 252h128l-48 -336q-42 -18 -96 -27t-108 -9q-90 0 -153.5 35t-96 100.5t-32.5 155.5q0 130 46 228t135 152.5t214 54.5q103 0 177 -33q-9 -52 -31 -110q-37 16 -73.5 23t-78.5 7
q-81 0 -139 -41zM238 -164.5q7 38.5 14 86.5q36 10 62.5 14t58.5 4q-13 -60 -46 -108.5t-81 -78.5h-26q11 44 18 82.5z" />
    <glyph glyph-name="Gdotaccent" unicode="&#x120;" horiz-adv-x="610" 
d="M289 556q-58 -41 -88 -110t-30 -152q0 -99 42.5 -148t126.5 -49q30 0 69 7l36 252h128l-48 -336q-42 -18 -96 -27t-108 -9q-90 0 -153.5 35t-96 100.5t-32.5 155.5q0 130 46 228t135 152.5t214 54.5q103 0 177 -33q-9 -52 -31 -110q-37 16 -73.5 23t-78.5 7
q-81 0 -139 -41zM383 773.5q-20 20.5 -20 52.5t20 52t53 20q31 0 51 -20t20 -52q0 -33 -20 -53t-51 -20q-33 0 -53 20.5z" />
    <glyph glyph-name="H" unicode="H" horiz-adv-x="650" 
d="M574.5 696q36.5 5 68.5 5l-98 -701h-128l42 296h-255l-41 -296h-128l96 684q24 7 61.5 12t68.5 5l-41 -291h255l38 274q25 7 61.5 12z" />
    <glyph glyph-name="Hbar" unicode="&#x126;" horiz-adv-x="670" 
d="M685 502h-64l-70 -502h-128l42 296h-255l-41 -296h-128l70 502h-68q3 20 10 45.5t14 45.5h57l13 91q25 7 62 12t68 5l-15 -108h254l13 91q25 7 61.5 12t68.5 5l-15 -108h76q-10 -51 -25 -91zM493 502h-254l-13 -92h255z" />
    <glyph glyph-name="Hcircumflex" unicode="&#x124;" horiz-adv-x="650" 
d="M574.5 696q36.5 5 68.5 5l-98 -701h-128l42 296h-255l-41 -296h-128l96 684q24 7 61.5 12t68.5 5l-41 -291h255l38 274q25 7 61.5 12zM348 888q36 9 78 9t75 -9l72 -127h-36q-38 0 -67 15.5t-53 51.5q-37 -35 -70 -51t-71 -16h-35z" />
    <glyph glyph-name="I" unicode="I" horiz-adv-x="268" 
d="M131 684q25 7 62 12t68 5l-98 -701h-128z" />
    <glyph glyph-name="IJ" unicode="&#x132;" horiz-adv-x="603" 
d="M131 684q25 7 62 12t68 5l-98 -701h-128zM240 5q11 61 24 105q27 -6 54 -6q44 0 66 25t30 80l67 475q25 7 62 12t68 5l-69 -496q-14 -104 -67.5 -158t-145.5 -54q-55 0 -89 12z" />
    <glyph glyph-name="Iacute" unicode="&#xcd;" horiz-adv-x="268" 
d="M131 684q25 7 62 12t68 5l-98 -701h-128zM203 881q14 3 36.5 5t42.5 2q23 0 46 -3t36 -7q-39 -51 -97 -84t-118 -33h-21z" />
    <glyph glyph-name="Ibreve" unicode="&#x12c;" horiz-adv-x="268" 
d="M131 684q25 7 62 12t68 5l-98 -701h-128zM132 776.5q-30 17.5 -43.5 44.5t-14.5 57q16 3 40.5 4.5t44.5 1.5q3 -20 15 -32t38 -12q25 0 39.5 11t21.5 33q19 0 41 -1.5t41 -4.5q-15 -50 -48 -84.5t-99 -34.5q-46 0 -76 17.5z" />
    <glyph glyph-name="Icircumflex" unicode="&#xce;" horiz-adv-x="268" 
d="M131 684q25 7 62 12t68 5l-98 -701h-128zM157 881q14 4 32.5 6.5t34.5 2.5t33.5 -2.5t30.5 -6.5l64 -119h-44q-28 9 -49.5 22t-39.5 41q-26 -29 -50 -42t-52 -21h-57z" />
    <glyph glyph-name="Idieresis" unicode="&#xcf;" horiz-adv-x="268" 
d="M131 684q25 7 62 12t68 5l-98 -701h-128zM77.5 776.5q-19.5 20.5 -19.5 50.5t19.5 50t49.5 20t49.5 -20t19.5 -50t-19.5 -50.5t-49.5 -20.5t-49.5 20.5zM255 776.5q-20 20.5 -20 50.5t19.5 50t50.5 20q30 0 49 -20t19 -50t-19 -50.5t-49 -20.5t-50 20.5z" />
    <glyph glyph-name="Idotaccent" unicode="&#x130;" horiz-adv-x="268" 
d="M131 684q25 7 62 12t68 5l-98 -701h-128zM163 773.5q-20 20.5 -20 52.5t20 52t53 20q31 0 51 -20t20 -52q0 -33 -20 -53t-51 -20q-33 0 -53 20.5z" />
    <glyph glyph-name="Igrave" unicode="&#xcc;" horiz-adv-x="268" 
d="M131 684q25 7 62 12t68 5l-98 -701h-128zM282 761q-60 0 -118 33t-98 84q13 4 36.5 7t46.5 3q19 0 41.5 -2t36.5 -5l76 -120h-21z" />
    <glyph glyph-name="Imacron" unicode="&#x12a;" horiz-adv-x="268" 
d="M131 684q25 7 62 12t68 5l-98 -701h-128zM90 823.5q6 23.5 14 46.5h246q-5 -27 -10.5 -47.5t-15.5 -44.5h-244q4 22 10 45.5z" />
    <glyph glyph-name="Iogonek" unicode="&#x12e;" horiz-adv-x="268" 
d="M103.5 -50q-16.5 -25 -16.5 -52q0 -17 9 -25.5t26 -8.5q11 0 21.5 2.5t17.5 7.5q-6 -44 -20 -85q-7 -3 -23.5 -6t-32.5 -3q-45 0 -70.5 24.5t-25.5 67.5q0 42 19 71.5t55 56.5h-28l96 684q25 7 62 12t68 5l-98 -701h-10q-33 -25 -49.5 -50z" />
    <glyph glyph-name="Itilde" unicode="&#x128;" horiz-adv-x="268" 
d="M131 684q25 7 62 12t68 5l-98 -701h-128zM235 753q-17 10 -38 28q-19 19 -28 19q-8 0 -11 -5.5t-6 -17.5l-4 -30h-77l8 58q6 44 27.5 64.5t50.5 20.5q20 0 37.5 -10.5t37.5 -28.5q8 -7 15 -12.5t12 -5.5q8 0 12 5.5t5 18.5l5 29h76l-8 -58q-6 -44 -27 -64.5t-50 -20.5
q-20 0 -37 10z" />
    <glyph glyph-name="J" unicode="J" horiz-adv-x="335" 
d="M-28 5q11 61 24 105q27 -6 54 -6q44 0 66 25t30 80l67 475q25 7 62 12t68 5l-69 -496q-14 -104 -67.5 -158t-145.5 -54q-55 0 -89 12z" />
    <glyph glyph-name="Jcircumflex" unicode="&#x134;" horiz-adv-x="335" 
d="M-28 5q11 61 24 105q27 -6 54 -6q44 0 66 25t30 80l67 475q25 7 62 12t68 5l-69 -496q-14 -104 -67.5 -158t-145.5 -54q-55 0 -89 12zM239 881q14 4 32.5 6.5t34.5 2.5t33.5 -2.5t30.5 -6.5l64 -119h-44q-28 9 -49.5 22t-39.5 41q-26 -29 -50 -42t-52 -21h-57z" />
    <glyph glyph-name="K" unicode="K" horiz-adv-x="567" 
d="M343 343l191 -343h-144l-180 336l-47 -336h-128l96 684q25 7 62.5 12t68.5 5l-48 -342l258 333h144z" />
    <glyph glyph-name="uni0136" unicode="&#x136;" horiz-adv-x="567" 
d="M343 343l191 -343h-144l-180 336l-47 -336h-128l96 684q25 7 62.5 12t68.5 5l-48 -342l258 333h144zM187 -164.5q7 38.5 14 86.5q36 10 62.5 14t58.5 4q-13 -60 -46 -108.5t-81 -78.5h-26q11 44 18 82.5z" />
    <glyph glyph-name="L" unicode="L" horiz-adv-x="438" 
d="M131 684q24 7 61.5 12t68.5 5l-82 -588h233q-2 -25 -10 -58t-16 -55h-351z" />
    <glyph glyph-name="Lacute" unicode="&#x139;" horiz-adv-x="438" 
d="M131 684q24 7 61.5 12t68.5 5l-82 -588h233q-2 -25 -10 -58t-16 -55h-351zM218 881q14 3 36.5 5t42.5 2q23 0 46 -3t36 -7q-39 -51 -97 -84t-118 -33h-21z" />
    <glyph glyph-name="Lcaron" unicode="&#x13d;" horiz-adv-x="438" 
d="M131 684q24 7 61.5 12t68.5 5l-82 -588h233q-2 -25 -10 -58t-16 -55h-351zM347 605.5q7 38.5 14 86.5q36 10 62.5 14t58.5 4q-13 -60 -46 -108.5t-81 -78.5h-26q11 44 18 82.5z" />
    <glyph glyph-name="uni013B" unicode="&#x13b;" horiz-adv-x="438" 
d="M131 684q24 7 61.5 12t68.5 5l-82 -588h233q-2 -25 -10 -58t-16 -55h-351zM136 -164.5q7 38.5 14 86.5q36 10 62.5 14t58.5 4q-13 -60 -46 -108.5t-81 -78.5h-26q11 44 18 82.5z" />
    <glyph glyph-name="Ldot" unicode="&#x13f;" horiz-adv-x="438" 
d="M131 684q24 7 61.5 12t68.5 5l-82 -588h233q-2 -25 -10 -58t-16 -55h-351zM366 350.5q-18 10.5 -28.5 28.5t-10.5 40t10.5 40t28.5 29t41 11t41 -11t28.5 -29t10.5 -40t-10.5 -40t-28.5 -28.5t-41 -10.5t-41 10.5z" />
    <glyph glyph-name="Lslash" unicode="&#x141;" horiz-adv-x="448" 
d="M422 113q-2 -25 -10 -58t-16 -55h-351l36 259l-79 -39q3 27 9.5 59t13.5 54l72 35l44 316q24 7 61.5 12t68.5 5l-37 -265l152 75q-3 -28 -10 -60.5t-15 -52.5l-142 -70l-30 -215h233z" />
    <glyph glyph-name="M" unicode="M" horiz-adv-x="830" 
d="M710 697q43 4 85 4l-50 -701h-122l22 274q11 138 23 230q-53 -124 -126 -274l-112 -230h-103l-47 233q-31 154 -49 266q-16 -101 -42 -238l-52 -261h-122l144 684q32 8 72.5 12.5t76.5 4.5l95 -528l232 511q32 9 75 13z" />
    <glyph glyph-name="N" unicode="N" horiz-adv-x="645" 
d="M639 701l-99 -701h-112l-163 381q-27 64 -43 119q-11 -120 -30 -248l-36 -252h-121l96 684q28 8 60.5 12.5t61.5 4.5l156 -354q25 -59 46 -130q13 131 31 264l29 203q58 17 124 17z" />
    <glyph glyph-name="Nacute" unicode="&#x143;" horiz-adv-x="645" 
d="M639 701l-99 -701h-112l-163 381q-27 64 -43 119q-11 -120 -30 -248l-36 -252h-121l96 684q28 8 60.5 12.5t61.5 4.5l156 -354q25 -59 46 -130q13 131 31 264l29 203q58 17 124 17zM393 881q14 3 36.5 5t42.5 2q23 0 46 -3t36 -7q-39 -51 -97 -84t-118 -33h-21z" />
    <glyph glyph-name="Ncaron" unicode="&#x147;" horiz-adv-x="645" 
d="M639 701l-99 -701h-112l-163 381q-27 64 -43 119q-11 -120 -30 -248l-36 -252h-121l96 684q28 8 60.5 12.5t61.5 4.5l156 -354q25 -59 46 -130q13 131 31 264l29 203q58 17 124 17zM465 768q-36 -9 -79 -9q-41 0 -74 9l-73 127h37q38 0 66.5 -15.5t53.5 -51.5
q36 35 69 51t72 16h35z" />
    <glyph glyph-name="uni0145" unicode="&#x145;" horiz-adv-x="645" 
d="M639 701l-99 -701h-112l-163 381q-27 64 -43 119q-11 -120 -30 -248l-36 -252h-121l96 684q28 8 60.5 12.5t61.5 4.5l156 -354q25 -59 46 -130q13 131 31 264l29 203q58 17 124 17zM209 -164.5q7 38.5 14 86.5q36 10 62.5 14t58.5 4q-13 -60 -46 -108.5t-81 -78.5h-26
q11 44 18 82.5z" />
    <glyph glyph-name="Eng" unicode="&#x14a;" horiz-adv-x="645" 
d="M639 701l-99 -701q-17 -120 -69.5 -172t-143.5 -52q-25 0 -50 3.5t-42 8.5q11 65 25 110q22 -7 53 -7q32 0 52.5 12.5t32.5 39t19 71.5l1 9l-153 358q-27 64 -43 119q-11 -120 -30 -248l-36 -252h-121l96 684q28 8 60.5 12.5t61.5 4.5l156 -354q25 -59 46 -130
q13 131 31 264l29 203q58 17 124 17z" />
    <glyph glyph-name="Ntilde" unicode="&#xd1;" horiz-adv-x="645" 
d="M639 701l-99 -701h-112l-163 381q-27 64 -43 119q-11 -120 -30 -248l-36 -252h-121l96 684q28 8 60.5 12.5t61.5 4.5l156 -354q25 -59 46 -130q13 131 31 264l29 203q58 17 124 17zM436.5 754q-19.5 9 -48.5 26q-14 9 -27 15.5t-20 6.5q-8 0 -12 -6t-6 -20l-4 -29h-83
l7 52q13 90 85 90q23 0 45.5 -10t49.5 -27q3 -2 13.5 -7.5t17.5 -8.5t11 -3q16 0 19 24l3 30h84l-8 -54q-7 -46 -29 -67t-58 -21q-20 0 -39.5 9z" />
    <glyph glyph-name="O" unicode="O" horiz-adv-x="668" 
d="M160 16.5q-60 34.5 -90.5 100.5t-30.5 159q0 119 41.5 218t121.5 157.5t189 58.5q86 0 145.5 -35t89.5 -101.5t30 -159.5q0 -119 -41 -217.5t-120.5 -156.5t-189.5 -58q-85 0 -145 34.5zM429 141q48 46 71.5 119t23.5 155q0 181 -141 181q-70 0 -117.5 -45.5t-71 -118
t-23.5 -153.5q0 -91 35 -137.5t104 -46.5q71 0 119 46z" />
    <glyph glyph-name="Oacute" unicode="&#xd3;" horiz-adv-x="668" 
d="M160 16.5q-60 34.5 -90.5 100.5t-30.5 159q0 119 41.5 218t121.5 157.5t189 58.5q86 0 145.5 -35t89.5 -101.5t30 -159.5q0 -119 -41 -217.5t-120.5 -156.5t-189.5 -58q-85 0 -145 34.5zM429 141q48 46 71.5 119t23.5 155q0 181 -141 181q-70 0 -117.5 -45.5t-71 -118
t-23.5 -153.5q0 -91 35 -137.5t104 -46.5q71 0 119 46zM398 881q14 3 36.5 5t42.5 2q23 0 46 -3t36 -7q-39 -51 -97 -84t-118 -33h-21z" />
    <glyph glyph-name="Obreve" unicode="&#x14e;" horiz-adv-x="668" 
d="M160 16.5q-60 34.5 -90.5 100.5t-30.5 159q0 119 41.5 218t121.5 157.5t189 58.5q86 0 145.5 -35t89.5 -101.5t30 -159.5q0 -119 -41 -217.5t-120.5 -156.5t-189.5 -58q-85 0 -145 34.5zM429 141q48 46 71.5 119t23.5 155q0 181 -141 181q-70 0 -117.5 -45.5t-71 -118
t-23.5 -153.5q0 -91 35 -137.5t104 -46.5q71 0 119 46zM317.5 775.5q-33.5 17.5 -49.5 46t-17 63.5q21 2 45.5 4t45.5 2q6 -53 62 -53q29 0 46.5 14t28.5 39q20 0 44 -1.5t44 -4.5q-16 -58 -54 -92.5t-111 -34.5q-51 0 -84.5 17.5z" />
    <glyph glyph-name="Ocircumflex" unicode="&#xd4;" horiz-adv-x="668" 
d="M160 16.5q-60 34.5 -90.5 100.5t-30.5 159q0 119 41.5 218t121.5 157.5t189 58.5q86 0 145.5 -35t89.5 -101.5t30 -159.5q0 -119 -41 -217.5t-120.5 -156.5t-189.5 -58q-85 0 -145 34.5zM429 141q48 46 71.5 119t23.5 155q0 181 -141 181q-70 0 -117.5 -45.5t-71 -118
t-23.5 -153.5q0 -91 35 -137.5t104 -46.5q71 0 119 46zM351 888q36 9 78 9t75 -9l72 -127h-36q-38 0 -67 15.5t-53 51.5q-37 -35 -70 -51t-71 -16h-35z" />
    <glyph glyph-name="Odieresis" unicode="&#xd6;" horiz-adv-x="668" 
d="M160 16.5q-60 34.5 -90.5 100.5t-30.5 159q0 119 41.5 218t121.5 157.5t189 58.5q86 0 145.5 -35t89.5 -101.5t30 -159.5q0 -119 -41 -217.5t-120.5 -156.5t-189.5 -58q-85 0 -145 34.5zM429 141q48 46 71.5 119t23.5 155q0 181 -141 181q-70 0 -117.5 -45.5t-71 -118
t-23.5 -153.5q0 -91 35 -137.5t104 -46.5q71 0 119 46zM257.5 777q-19.5 20 -19.5 51t19.5 50.5t50.5 19.5q30 0 50 -19.5t20 -50.5t-20 -51t-50 -20q-31 0 -50.5 20zM463.5 777q-19.5 20 -19.5 51q0 30 19.5 50t50.5 20q30 0 49.5 -20t19.5 -50q0 -31 -19.5 -51t-49.5 -20
q-31 0 -50.5 20z" />
    <glyph glyph-name="Ograve" unicode="&#xd2;" horiz-adv-x="668" 
d="M160 16.5q-60 34.5 -90.5 100.5t-30.5 159q0 119 41.5 218t121.5 157.5t189 58.5q86 0 145.5 -35t89.5 -101.5t30 -159.5q0 -119 -41 -217.5t-120.5 -156.5t-189.5 -58q-85 0 -145 34.5zM429 141q48 46 71.5 119t23.5 155q0 181 -141 181q-70 0 -117.5 -45.5t-71 -118
t-23.5 -153.5q0 -91 35 -137.5t104 -46.5q71 0 119 46zM476 761q-60 0 -118 33t-98 84q13 4 36.5 7t46.5 3q19 0 41.5 -2t36.5 -5l76 -120h-21z" />
    <glyph glyph-name="Ohungarumlaut" unicode="&#x150;" horiz-adv-x="668" 
d="M160 16.5q-60 34.5 -90.5 100.5t-30.5 159q0 119 41.5 218t121.5 157.5t189 58.5q86 0 145.5 -35t89.5 -101.5t30 -159.5q0 -119 -41 -217.5t-120.5 -156.5t-189.5 -58q-85 0 -145 34.5zM429 141q48 46 71.5 119t23.5 155q0 181 -141 181q-70 0 -117.5 -45.5t-71 -118
t-23.5 -153.5q0 -91 35 -137.5t104 -46.5q71 0 119 46zM328 882q31 6 77 6q38 0 59 -3q-15 -33 -47.5 -61.5t-73.5 -46t-81 -17.5h-13zM498 882q30 6 77 6q38 0 59 -3q-15 -33 -48 -62t-74.5 -46t-80.5 -17h-12z" />
    <glyph glyph-name="Omacron" unicode="&#x14c;" horiz-adv-x="668" 
d="M160 16.5q-60 34.5 -90.5 100.5t-30.5 159q0 119 41.5 218t121.5 157.5t189 58.5q86 0 145.5 -35t89.5 -101.5t30 -159.5q0 -119 -41 -217.5t-120.5 -156.5t-189.5 -58q-85 0 -145 34.5zM429 141q48 46 71.5 119t23.5 155q0 181 -141 181q-70 0 -117.5 -45.5t-71 -118
t-23.5 -153.5q0 -91 35 -137.5t104 -46.5q71 0 119 46zM285 871h273q-5 -24 -11 -46t-14 -46h-272q10 53 24 92z" />
    <glyph glyph-name="Oslash" unicode="&#xd8;" horiz-adv-x="668" 
d="M622 581q34 -67 34 -167q0 -119 -41 -217.5t-120.5 -156.5t-189.5 -58q-111 0 -178 58l-94 -102q-13 19 -22 39t-12 44l77 84q-37 69 -37 171q0 119 41.5 218t121.5 157.5t189 58.5q115 0 183 -63l90 99q12 -20 19.5 -43.5t8.5 -45.5zM176 214l311 339q-36 43 -104 43
q-70 0 -117.5 -45.5t-71 -118t-23.5 -153.5q0 -32 5 -65zM520 470l-308 -336q35 -39 98 -39q71 0 119 46t71.5 119t23.5 155q0 32 -4 55z" />
    <glyph glyph-name="Oslashacute" unicode="&#x1fe;" horiz-adv-x="668" 
d="M622 581q34 -67 34 -167q0 -119 -41 -217.5t-120.5 -156.5t-189.5 -58q-111 0 -178 58l-94 -102q-13 19 -22 39t-12 44l77 84q-37 69 -37 171q0 119 41.5 218t121.5 157.5t189 58.5q115 0 183 -63l90 99q12 -20 19.5 -43.5t8.5 -45.5zM176 214l311 339q-36 43 -104 43
q-70 0 -117.5 -45.5t-71 -118t-23.5 -153.5q0 -32 5 -65zM520 470l-308 -336q35 -39 98 -39q71 0 119 46t71.5 119t23.5 155q0 32 -4 55zM405 881q14 3 36.5 5t42.5 2q23 0 46 -3t36 -7q-39 -51 -97 -84t-118 -33h-21z" />
    <glyph glyph-name="Otilde" unicode="&#xd5;" horiz-adv-x="668" 
d="M160 16.5q-60 34.5 -90.5 100.5t-30.5 159q0 119 41.5 218t121.5 157.5t189 58.5q86 0 145.5 -35t89.5 -101.5t30 -159.5q0 -119 -41 -217.5t-120.5 -156.5t-189.5 -58q-85 0 -145 34.5zM429 141q48 46 71.5 119t23.5 155q0 181 -141 181q-70 0 -117.5 -45.5t-71 -118
t-23.5 -153.5q0 -91 35 -137.5t104 -46.5q71 0 119 46zM441.5 754q-19.5 9 -48.5 26q-14 9 -27 15.5t-20 6.5q-8 0 -12 -6t-6 -20l-4 -29h-83l7 52q13 90 85 90q23 0 45.5 -10t49.5 -27q3 -2 13.5 -7.5t17.5 -8.5t11 -3q16 0 19 24l3 30h84l-8 -54q-7 -46 -29 -67t-58 -21
q-20 0 -39.5 9z" />
    <glyph glyph-name="OE" unicode="&#x152;" horiz-adv-x="856" 
d="M595 581l-24 -176h250q-3 -25 -10.5 -57.5t-15.5 -53.5h-240l-25 -183h279q-3 -26 -10.5 -58t-16.5 -53h-334v-1h-141q-130 0 -198.5 74t-68.5 214q0 120 40.5 211t121 142.5t196.5 51.5h493q-3 -26 -10.5 -58.5t-15.5 -52.5h-270zM208 154.5q38 -41.5 111 -41.5h83
l65 467h-83q-74 0 -122 -39t-70 -105.5t-22 -151.5q0 -88 38 -129.5z" />
    <glyph glyph-name="P" unicode="P" horiz-adv-x="557" 
d="M506 654.5q60 -54.5 60 -143.5q0 -86 -36 -149.5t-103 -97.5t-158 -34h-74l-32 -230h-128l97 692q39 7 90.5 12t92.5 5q131 0 191 -54.5zM361.5 358q35.5 21 54 57.5t18.5 82.5q0 51 -28 77.5t-90 26.5q-34 0 -69 -4l-37 -261h68q48 0 83.5 21z" />
    <glyph glyph-name="Thorn" unicode="&#xde;" horiz-adv-x="557" 
d="M443 569q56 -26 81.5 -70.5t25.5 -101.5q0 -86 -36 -150t-103.5 -98t-158.5 -34h-73l-16 -115h-128l96 684q25 7 62.5 12t68.5 5l-15 -108q36 2 51 2q89 0 145 -26zM345.5 243.5q35.5 21.5 54 58t18.5 82.5q0 51 -28 77.5t-90 26.5q-26 0 -69 -5l-37 -262l67 1
q49 0 84.5 21.5z" />
    <glyph glyph-name="Q" unicode="Q" horiz-adv-x="668" 
d="M622.5 216.5q-33.5 -91.5 -96.5 -150.5l81 -112q-21 -18 -48.5 -38t-54.5 -34l-82 120q-54 -20 -117 -20q-85 0 -145 34.5t-90.5 100.5t-30.5 159q0 119 41.5 218t121.5 157.5t189 58.5q86 0 145.5 -35t89.5 -101.5t30 -159.5q0 -106 -33.5 -197.5zM206 141.5
q35 -46.5 104 -46.5q71 0 119 46t71.5 119t23.5 155q0 181 -141 181q-70 0 -117.5 -45.5t-71 -118t-23.5 -153.5q0 -91 35 -137.5z" />
    <glyph glyph-name="R" unicode="R" horiz-adv-x="545" 
d="M531 397.5q-23 -47.5 -59 -77t-79 -44.5l114 -276h-139l-96 256h-73l-36 -256h-128l97 692q39 7 90 12t91 5q85 0 138.5 -27t78 -71.5t24.5 -100.5q0 -65 -23 -112.5zM214 361h59q67 0 108 33.5t41 107.5q0 46 -27 73t-82 27q-33 0 -66 -4z" />
    <glyph glyph-name="Racute" unicode="&#x154;" horiz-adv-x="545" 
d="M531 397.5q-23 -47.5 -59 -77t-79 -44.5l114 -276h-139l-96 256h-73l-36 -256h-128l97 692q39 7 90 12t91 5q85 0 138.5 -27t78 -71.5t24.5 -100.5q0 -65 -23 -112.5zM214 361h59q67 0 108 33.5t41 107.5q0 46 -27 73t-82 27q-33 0 -66 -4zM346 881q14 3 36.5 5t42.5 2
q23 0 46 -3t36 -7q-39 -51 -97 -84t-118 -33h-21z" />
    <glyph glyph-name="Rcaron" unicode="&#x158;" horiz-adv-x="545" 
d="M531 397.5q-23 -47.5 -59 -77t-79 -44.5l114 -276h-139l-96 256h-73l-36 -256h-128l97 692q39 7 90 12t91 5q85 0 138.5 -27t78 -71.5t24.5 -100.5q0 -65 -23 -112.5zM214 361h59q67 0 108 33.5t41 107.5q0 46 -27 73t-82 27q-33 0 -66 -4zM418 768q-36 -9 -79 -9
q-41 0 -74 9l-73 127h37q38 0 66.5 -15.5t53.5 -51.5q36 35 69 51t72 16h35z" />
    <glyph glyph-name="uni0156" unicode="&#x156;" horiz-adv-x="545" 
d="M531 397.5q-23 -47.5 -59 -77t-79 -44.5l114 -276h-139l-96 256h-73l-36 -256h-128l97 692q39 7 90 12t91 5q85 0 138.5 -27t78 -71.5t24.5 -100.5q0 -65 -23 -112.5zM214 361h59q67 0 108 33.5t41 107.5q0 46 -27 73t-82 27q-33 0 -66 -4zM175 -164.5q7 38.5 14 86.5
q36 10 62.5 14t58.5 4q-13 -60 -46 -108.5t-81 -78.5h-26q11 44 18 82.5z" />
    <glyph glyph-name="S" unicode="S" horiz-adv-x="493" 
d="M84.5 -4.5q-51.5 13.5 -82.5 35.5q7 50 25 105q34 -22 77.5 -33.5t86.5 -11.5q65 0 102 27.5t37 76.5q0 25 -8.5 41.5t-26.5 28.5t-50 25l-48 21q-132 55 -132 176q0 69 33 119.5t91 77t133 26.5q51 0 94 -9.5t84 -28.5q-4 -26 -10.5 -51t-14.5 -51q-67 32 -147 32
q-43 0 -73 -13t-45 -35t-15 -49q0 -24 9 -40.5t27.5 -28.5t52.5 -26l44 -19q63 -26 98.5 -68.5t35.5 -112.5q0 -71 -34 -122.5t-96.5 -78.5t-145.5 -27q-50 0 -101.5 13.5z" />
    <glyph glyph-name="Sacute" unicode="&#x15a;" horiz-adv-x="493" 
d="M84.5 -4.5q-51.5 13.5 -82.5 35.5q7 50 25 105q34 -22 77.5 -33.5t86.5 -11.5q65 0 102 27.5t37 76.5q0 25 -8.5 41.5t-26.5 28.5t-50 25l-48 21q-132 55 -132 176q0 69 33 119.5t91 77t133 26.5q51 0 94 -9.5t84 -28.5q-4 -26 -10.5 -51t-14.5 -51q-67 32 -147 32
q-43 0 -73 -13t-45 -35t-15 -49q0 -24 9 -40.5t27.5 -28.5t52.5 -26l44 -19q63 -26 98.5 -68.5t35.5 -112.5q0 -71 -34 -122.5t-96.5 -78.5t-145.5 -27q-50 0 -101.5 13.5zM325 881q14 3 36.5 5t42.5 2q23 0 46 -3t36 -7q-39 -51 -97 -84t-118 -33h-21z" />
    <glyph glyph-name="Scaron" unicode="&#x160;" horiz-adv-x="493" 
d="M84.5 -4.5q-51.5 13.5 -82.5 35.5q7 50 25 105q34 -22 77.5 -33.5t86.5 -11.5q65 0 102 27.5t37 76.5q0 25 -8.5 41.5t-26.5 28.5t-50 25l-48 21q-132 55 -132 176q0 69 33 119.5t91 77t133 26.5q51 0 94 -9.5t84 -28.5q-4 -26 -10.5 -51t-14.5 -51q-67 32 -147 32
q-43 0 -73 -13t-45 -35t-15 -49q0 -24 9 -40.5t27.5 -28.5t52.5 -26l44 -19q63 -26 98.5 -68.5t35.5 -112.5q0 -71 -34 -122.5t-96.5 -78.5t-145.5 -27q-50 0 -101.5 13.5zM397 768q-36 -9 -79 -9q-41 0 -74 9l-73 127h37q38 0 66.5 -15.5t53.5 -51.5q36 35 69 51t72 16h35z
" />
    <glyph glyph-name="Scedilla" unicode="&#x15e;" horiz-adv-x="493" 
d="M255 589q-30 -13 -45 -35t-15 -49q0 -24 9 -40.5t27.5 -28.5t52.5 -26l44 -19q63 -26 98.5 -68.5t35.5 -112.5q0 -63 -27.5 -111t-77.5 -77t-119 -37l-14 -31q33 -10 49 -29t16 -48q0 -47 -32 -72t-84 -25q-20 0 -41 4t-37 10q6 36 20 61q25 -9 48 -9q22 0 33.5 8
t11.5 22q0 16 -18 24t-57 9l33 74q-46 2 -91 15.5t-73 32.5q7 50 25 105q34 -22 77.5 -33.5t86.5 -11.5q65 0 102 27.5t37 76.5q0 25 -8.5 41.5t-26.5 28.5t-50 25l-48 21q-132 55 -132 176q0 69 33 119.5t91 77t133 26.5q51 0 94 -9.5t84 -28.5q-4 -26 -10.5 -51t-14.5 -51
q-67 32 -147 32q-43 0 -73 -13z" />
    <glyph glyph-name="Scircumflex" unicode="&#x15c;" horiz-adv-x="493" 
d="M84.5 -4.5q-51.5 13.5 -82.5 35.5q7 50 25 105q34 -22 77.5 -33.5t86.5 -11.5q65 0 102 27.5t37 76.5q0 25 -8.5 41.5t-26.5 28.5t-50 25l-48 21q-132 55 -132 176q0 69 33 119.5t91 77t133 26.5q51 0 94 -9.5t84 -28.5q-4 -26 -10.5 -51t-14.5 -51q-67 32 -147 32
q-43 0 -73 -13t-45 -35t-15 -49q0 -24 9 -40.5t27.5 -28.5t52.5 -26l44 -19q63 -26 98.5 -68.5t35.5 -112.5q0 -71 -34 -122.5t-96.5 -78.5t-145.5 -27q-50 0 -101.5 13.5zM278 888q36 9 78 9t75 -9l72 -127h-36q-38 0 -67 15.5t-53 51.5q-37 -35 -70 -51t-71 -16h-35z" />
    <glyph glyph-name="uni0218" unicode="&#x218;" horiz-adv-x="493" 
d="M84.5 -4.5q-51.5 13.5 -82.5 35.5q7 50 25 105q34 -22 77.5 -33.5t86.5 -11.5q65 0 102 27.5t37 76.5q0 25 -8.5 41.5t-26.5 28.5t-50 25l-48 21q-132 55 -132 176q0 69 33 119.5t91 77t133 26.5q51 0 94 -9.5t84 -28.5q-4 -26 -10.5 -51t-14.5 -51q-67 32 -147 32
q-43 0 -73 -13t-45 -35t-15 -49q0 -24 9 -40.5t27.5 -28.5t52.5 -26l44 -19q63 -26 98.5 -68.5t35.5 -112.5q0 -71 -34 -122.5t-96.5 -78.5t-145.5 -27q-50 0 -101.5 13.5zM127 -164.5q7 38.5 14 86.5q36 10 62.5 14t58.5 4q-13 -60 -46 -108.5t-81 -78.5h-26q11 44 18 82.5
z" />
    <glyph glyph-name="uni1E9E" unicode="&#x1e9e;" horiz-adv-x="654" 
d="M647 603l-160 -189q40 -10 70.5 -36t48 -64t17.5 -85q0 -74 -32.5 -128.5t-91 -83.5t-133.5 -29q-62 0 -110 15q13 64 29 103q34 -9 74 -9q62 0 96.5 34.5t34.5 97.5q0 51 -34 74.5t-84 23.5h-39q1 15 6 41t11 39l144 176h-113q-46 0 -78 -13t-51.5 -44.5t-26.5 -85.5
l-62 -440h-128l63 451q15 110 85 175.5t207 65.5h278q-7 -48 -21 -89z" />
    <glyph glyph-name="uni018F" unicode="&#x18f;" horiz-adv-x="613" 
d="M531.5 635q69.5 -75 69.5 -214q0 -122 -37 -221.5t-110.5 -158.5t-179.5 -59q-83 0 -137 33.5t-79 90t-25 128.5q0 33 4 69.5t13 84.5h417q1 12 1 35q0 62 -17.5 99.5t-56 55.5t-101.5 18q-52 0 -103 -12.5t-91 -31.5q3 31 11 63.5t20 58.5q37 15 84.5 25.5t101.5 10.5
q146 0 215.5 -75zM391.5 145q42.5 50 61.5 134h-290q-2 -30 -2 -45q0 -69 30.5 -104t89.5 -35q68 0 110.5 50z" />
    <glyph glyph-name="T" unicode="T" horiz-adv-x="509" 
d="M554.5 633.5q-7.5 -32.5 -16.5 -53.5h-173l-81 -580h-129l82 580h-184q3 26 10.5 58.5t15.5 53.5h486q-3 -26 -10.5 -58.5z" />
    <glyph glyph-name="Tbar" unicode="&#x166;" horiz-adv-x="509" 
d="M365 580l-27 -194h117q-7 -55 -23 -95h-107l-41 -291h-129l41 291h-126q4 23 9 49t13 46h118l27 194h-184q3 26 10.5 58.5t15.5 53.5h486q-3 -26 -10.5 -58.5t-16.5 -53.5h-173z" />
    <glyph glyph-name="Tcaron" unicode="&#x164;" horiz-adv-x="509" 
d="M554.5 633.5q-7.5 -32.5 -16.5 -53.5h-173l-81 -580h-129l82 580h-184q3 26 10.5 58.5t15.5 53.5h486q-3 -26 -10.5 -58.5zM396 768q-36 -9 -79 -9q-41 0 -74 9l-73 127h37q38 0 66.5 -15.5t53.5 -51.5q36 35 69 51t72 16h35z" />
    <glyph glyph-name="uni0162" unicode="&#x162;" horiz-adv-x="509" 
d="M256 0l-21 -46q33 -10 49 -29t16 -48q0 -47 -32 -72t-84 -25q-20 0 -41 4t-37 10q6 36 20 61q25 -9 48 -9q22 0 33.5 8t11.5 22q0 16 -18 24t-57 9l41 91h-30l82 580h-184q3 26 10.5 58.5t15.5 53.5h486q-3 -26 -10.5 -58.5t-16.5 -53.5h-173l-81 -580h-28z" />
    <glyph glyph-name="uni021A" unicode="&#x21a;" horiz-adv-x="509" 
d="M554.5 633.5q-7.5 -32.5 -16.5 -53.5h-173l-81 -580h-129l82 580h-184q3 26 10.5 58.5t15.5 53.5h486q-3 -26 -10.5 -58.5zM138 -164.5q7 38.5 14 86.5q36 10 62.5 14t58.5 4q-13 -60 -46 -108.5t-81 -78.5h-26q11 44 18 82.5z" />
    <glyph glyph-name="U" unicode="U" horiz-adv-x="620" 
d="M161.5 8q-53.5 25 -82.5 72.5t-29 112.5q0 21 3 42l63 449q26 7 63 12t67 5l-66 -471q-2 -22 -2 -30q0 -54 30 -79.5t84 -25.5q58 0 95.5 33.5t47.5 102.5l64 453q24 7 61 12t68 5l-67 -475q-16 -114 -86.5 -178.5t-188.5 -64.5q-71 0 -124.5 25z" />
    <glyph glyph-name="Uacute" unicode="&#xda;" horiz-adv-x="620" 
d="M161.5 8q-53.5 25 -82.5 72.5t-29 112.5q0 21 3 42l63 449q26 7 63 12t67 5l-66 -471q-2 -22 -2 -30q0 -54 30 -79.5t84 -25.5q58 0 95.5 33.5t47.5 102.5l64 453q24 7 61 12t68 5l-67 -475q-16 -114 -86.5 -178.5t-188.5 -64.5q-71 0 -124.5 25zM383 881q14 3 36.5 5
t42.5 2q23 0 46 -3t36 -7q-39 -51 -97 -84t-118 -33h-21z" />
    <glyph glyph-name="Ubreve" unicode="&#x16c;" horiz-adv-x="620" 
d="M161.5 8q-53.5 25 -82.5 72.5t-29 112.5q0 21 3 42l63 449q26 7 63 12t67 5l-66 -471q-2 -22 -2 -30q0 -54 30 -79.5t84 -25.5q58 0 95.5 33.5t47.5 102.5l64 453q24 7 61 12t68 5l-67 -475q-16 -114 -86.5 -178.5t-188.5 -64.5q-71 0 -124.5 25zM302.5 775.5
q-33.5 17.5 -49.5 46t-17 63.5q21 2 45.5 4t45.5 2q6 -53 62 -53q29 0 46.5 14t28.5 39q20 0 44 -1.5t44 -4.5q-16 -58 -54 -92.5t-111 -34.5q-51 0 -84.5 17.5z" />
    <glyph glyph-name="Ucircumflex" unicode="&#xdb;" horiz-adv-x="620" 
d="M161.5 8q-53.5 25 -82.5 72.5t-29 112.5q0 21 3 42l63 449q26 7 63 12t67 5l-66 -471q-2 -22 -2 -30q0 -54 30 -79.5t84 -25.5q58 0 95.5 33.5t47.5 102.5l64 453q24 7 61 12t68 5l-67 -475q-16 -114 -86.5 -178.5t-188.5 -64.5q-71 0 -124.5 25zM336 888q36 9 78 9
t75 -9l72 -127h-36q-38 0 -67 15.5t-53 51.5q-37 -35 -70 -51t-71 -16h-35z" />
    <glyph glyph-name="Udieresis" unicode="&#xdc;" horiz-adv-x="620" 
d="M161.5 8q-53.5 25 -82.5 72.5t-29 112.5q0 21 3 42l63 449q26 7 63 12t67 5l-66 -471q-2 -22 -2 -30q0 -54 30 -79.5t84 -25.5q58 0 95.5 33.5t47.5 102.5l64 453q24 7 61 12t68 5l-67 -475q-16 -114 -86.5 -178.5t-188.5 -64.5q-71 0 -124.5 25zM242.5 777
q-19.5 20 -19.5 51t19.5 50.5t50.5 19.5q30 0 50 -19.5t20 -50.5t-20 -51t-50 -20q-31 0 -50.5 20zM448.5 777q-19.5 20 -19.5 51q0 30 19.5 50t50.5 20q30 0 49.5 -20t19.5 -50q0 -31 -19.5 -51t-49.5 -20q-31 0 -50.5 20z" />
    <glyph glyph-name="Ugrave" unicode="&#xd9;" horiz-adv-x="620" 
d="M161.5 8q-53.5 25 -82.5 72.5t-29 112.5q0 21 3 42l63 449q26 7 63 12t67 5l-66 -471q-2 -22 -2 -30q0 -54 30 -79.5t84 -25.5q58 0 95.5 33.5t47.5 102.5l64 453q24 7 61 12t68 5l-67 -475q-16 -114 -86.5 -178.5t-188.5 -64.5q-71 0 -124.5 25zM461 761q-60 0 -118 33
t-98 84q13 4 36.5 7t46.5 3q19 0 41.5 -2t36.5 -5l76 -120h-21z" />
    <glyph glyph-name="Uhungarumlaut" unicode="&#x170;" horiz-adv-x="620" 
d="M161.5 8q-53.5 25 -82.5 72.5t-29 112.5q0 21 3 42l63 449q26 7 63 12t67 5l-66 -471q-2 -22 -2 -30q0 -54 30 -79.5t84 -25.5q58 0 95.5 33.5t47.5 102.5l64 453q24 7 61 12t68 5l-67 -475q-16 -114 -86.5 -178.5t-188.5 -64.5q-71 0 -124.5 25zM313 882q31 6 77 6
q38 0 59 -3q-15 -33 -47.5 -61.5t-73.5 -46t-81 -17.5h-13zM483 882q30 6 77 6q38 0 59 -3q-15 -33 -48 -62t-74.5 -46t-80.5 -17h-12z" />
    <glyph glyph-name="Umacron" unicode="&#x16a;" horiz-adv-x="620" 
d="M161.5 8q-53.5 25 -82.5 72.5t-29 112.5q0 21 3 42l63 449q26 7 63 12t67 5l-66 -471q-2 -22 -2 -30q0 -54 30 -79.5t84 -25.5q58 0 95.5 33.5t47.5 102.5l64 453q24 7 61 12t68 5l-67 -475q-16 -114 -86.5 -178.5t-188.5 -64.5q-71 0 -124.5 25zM270 871h273
q-5 -24 -11 -46t-14 -46h-272q10 53 24 92z" />
    <glyph glyph-name="Uogonek" unicode="&#x172;" horiz-adv-x="620" 
d="M560 696q37 5 68 5l-67 -475q-12 -85 -55 -143.5t-114 -83.5q-23 -17 -37 -42t-14 -48q0 -37 41 -37q12 0 23.5 3.5t20.5 6.5q-3 -21 -8 -41t-13 -43q-22 -9 -62 -9q-48 0 -76.5 24.5t-28.5 72.5q0 52 46 97q-71 0 -123.5 25.5t-81.5 72.5t-29 112q0 21 3 42l63 449
q26 7 63 12t67 5l-66 -471q-2 -22 -2 -30q0 -54 30 -79.5t84 -25.5q58 0 95.5 33.5t47.5 102.5l64 453q24 7 61 12z" />
    <glyph glyph-name="Uring" unicode="&#x16e;" horiz-adv-x="620" 
d="M161.5 8q-53.5 25 -82.5 72.5t-29 112.5q0 21 3 42l63 449q26 7 63 12t67 5l-66 -471q-2 -22 -2 -30q0 -54 30 -79.5t84 -25.5q58 0 95.5 33.5t47.5 102.5l64 453q24 7 61 12t68 5l-67 -475q-16 -114 -86.5 -178.5t-188.5 -64.5q-71 0 -124.5 25zM329.5 755.5
q-27.5 14.5 -43.5 39.5t-16 57q0 31 15.5 56t43 39.5t62.5 14.5t62.5 -14t43 -39t15.5 -57t-16 -57t-43.5 -39.5t-61.5 -14.5t-61.5 14.5zM425.5 818q13.5 13 13.5 34q0 20 -13.5 33t-34.5 13q-22 0 -35 -13t-13 -33q0 -21 13 -34t35 -13q21 0 34.5 13z" />
    <glyph glyph-name="Utilde" unicode="&#x168;" horiz-adv-x="620" 
d="M161.5 8q-53.5 25 -82.5 72.5t-29 112.5q0 21 3 42l63 449q26 7 63 12t67 5l-66 -471q-2 -22 -2 -30q0 -54 30 -79.5t84 -25.5q58 0 95.5 33.5t47.5 102.5l64 453q24 7 61 12t68 5l-67 -475q-16 -114 -86.5 -178.5t-188.5 -64.5q-71 0 -124.5 25zM426.5 754
q-19.5 9 -48.5 26q-14 9 -27 15.5t-20 6.5q-8 0 -12 -6t-6 -20l-4 -29h-83l7 52q13 90 85 90q23 0 45.5 -10t49.5 -27q3 -2 13.5 -7.5t17.5 -8.5t11 -3q16 0 19 24l3 30h84l-8 -54q-7 -46 -29 -67t-58 -21q-20 0 -39.5 9z" />
    <glyph glyph-name="V" unicode="V" horiz-adv-x="565" 
d="M623 692l-302 -692h-145l-110 692h134l64 -561l226 561h133z" />
    <glyph glyph-name="W" unicode="W" horiz-adv-x="899" 
d="M947 692l-271 -692h-146l-45 491l-182 -491h-147l-80 692h134l39 -556l197 556h131l44 -556l192 556h134z" />
    <glyph glyph-name="Wacute" unicode="&#x1e82;" horiz-adv-x="899" 
d="M947 692l-271 -692h-146l-45 491l-182 -491h-147l-80 692h134l39 -556l197 556h131l44 -556l192 556h134zM519 881q14 3 36.5 5t42.5 2q23 0 46 -3t36 -7q-39 -51 -97 -84t-118 -33h-21z" />
    <glyph glyph-name="Wcircumflex" unicode="&#x174;" horiz-adv-x="899" 
d="M947 692l-271 -692h-146l-45 491l-182 -491h-147l-80 692h134l39 -556l197 556h131l44 -556l192 556h134zM473 888q36 9 78 9t75 -9l72 -127h-36q-38 0 -67 15.5t-53 51.5q-37 -35 -70 -51t-71 -16h-35z" />
    <glyph glyph-name="Wdieresis" unicode="&#x1e84;" horiz-adv-x="899" 
d="M947 692l-271 -692h-146l-45 491l-182 -491h-147l-80 692h134l39 -556l197 556h131l44 -556l192 556h134zM378.5 777q-19.5 20 -19.5 51t19.5 50.5t50.5 19.5q30 0 50 -19.5t20 -50.5t-20 -51t-50 -20q-31 0 -50.5 20zM584.5 777q-19.5 20 -19.5 51q0 30 19.5 50t50.5 20
q30 0 49.5 -20t19.5 -50q0 -31 -19.5 -51t-49.5 -20q-31 0 -50.5 20z" />
    <glyph glyph-name="Wgrave" unicode="&#x1e80;" horiz-adv-x="899" 
d="M947 692l-271 -692h-146l-45 491l-182 -491h-147l-80 692h134l39 -556l197 556h131l44 -556l192 556h134zM598 761q-60 0 -118 33t-98 84q13 4 36.5 7t46.5 3q19 0 41.5 -2t36.5 -5l76 -120h-21z" />
    <glyph glyph-name="X" unicode="X" horiz-adv-x="562" 
d="M364 358l165 -358h-137l-107 250l-176 -250h-146l270 360l-152 332h135l95 -227l158 227h144z" />
    <glyph glyph-name="Y" unicode="Y" horiz-adv-x="531" 
d="M335 281l-40 -281h-128l39 282l-156 410h135l100 -295l182 295h138z" />
    <glyph glyph-name="Yacute" unicode="&#xdd;" horiz-adv-x="531" 
d="M335 281l-40 -281h-128l39 282l-156 410h135l100 -295l182 295h138zM336 881q14 3 36.5 5t42.5 2q23 0 46 -3t36 -7q-39 -51 -97 -84t-118 -33h-21z" />
    <glyph glyph-name="Ycircumflex" unicode="&#x176;" horiz-adv-x="531" 
d="M335 281l-40 -281h-128l39 282l-156 410h135l100 -295l182 295h138zM289 888q36 9 78 9t75 -9l72 -127h-36q-38 0 -67 15.5t-53 51.5q-37 -35 -70 -51t-71 -16h-35z" />
    <glyph glyph-name="Ydieresis" unicode="&#x178;" horiz-adv-x="531" 
d="M335 281l-40 -281h-128l39 282l-156 410h135l100 -295l182 295h138zM195.5 777q-19.5 20 -19.5 51t19.5 50.5t50.5 19.5q30 0 50 -19.5t20 -50.5t-20 -51t-50 -20q-31 0 -50.5 20zM401.5 777q-19.5 20 -19.5 51q0 30 19.5 50t50.5 20q30 0 49.5 -20t19.5 -50
q0 -31 -19.5 -51t-49.5 -20q-31 0 -50.5 20z" />
    <glyph glyph-name="Ygrave" unicode="&#x1ef2;" horiz-adv-x="531" 
d="M335 281l-40 -281h-128l39 282l-156 410h135l100 -295l182 295h138zM414 761q-60 0 -118 33t-98 84q13 4 36.5 7t46.5 3q19 0 41.5 -2t36.5 -5l76 -120h-21z" />
    <glyph glyph-name="Z" unicode="Z" horiz-adv-x="501" 
d="M526 600l-354 -489h296q-3 -23 -11 -57t-15 -54h-452q4 43 18 90l357 491h-299q3 25 10.5 57.5t15.5 53.5h452q-6 -51 -18 -92z" />
    <glyph glyph-name="Zacute" unicode="&#x179;" horiz-adv-x="501" 
d="M526 600l-354 -489h296q-3 -23 -11 -57t-15 -54h-452q4 43 18 90l357 491h-299q3 25 10.5 57.5t15.5 53.5h452q-6 -51 -18 -92zM320 881q14 3 36.5 5t42.5 2q23 0 46 -3t36 -7q-39 -51 -97 -84t-118 -33h-21z" />
    <glyph glyph-name="Zcaron" unicode="&#x17d;" horiz-adv-x="501" 
d="M526 600l-354 -489h296q-3 -23 -11 -57t-15 -54h-452q4 43 18 90l357 491h-299q3 25 10.5 57.5t15.5 53.5h452q-6 -51 -18 -92zM392 768q-36 -9 -79 -9q-41 0 -74 9l-73 127h37q38 0 66.5 -15.5t53.5 -51.5q36 35 69 51t72 16h35z" />
    <glyph glyph-name="Zdotaccent" unicode="&#x17b;" horiz-adv-x="501" 
d="M526 600l-354 -489h296q-3 -23 -11 -57t-15 -54h-452q4 43 18 90l357 491h-299q3 25 10.5 57.5t15.5 53.5h452q-6 -51 -18 -92zM280 773.5q-20 20.5 -20 52.5t20 52t53 20q31 0 51 -20t20 -52q0 -33 -20 -53t-51 -20q-33 0 -53 20.5z" />
    <glyph glyph-name="a" unicode="a" horiz-adv-x="513" 
d="M493 483l-68 -483h-114l1 65q-22 -38 -53.5 -57.5t-74.5 -19.5q-49 0 -85.5 21.5t-56.5 64t-20 104.5q0 101 31.5 175.5t94.5 116t156 41.5q102 0 189 -28zM317 127l40 276q-28 5 -59 5q-52 0 -85 -29.5t-48 -77.5t-15 -107q0 -52 18.5 -77.5t60.5 -25.5q48 0 88 36z" />
    <glyph glyph-name="aacute" unicode="&#xe1;" horiz-adv-x="513" 
d="M493 483l-68 -483h-114l1 65q-22 -38 -53.5 -57.5t-74.5 -19.5q-49 0 -85.5 21.5t-56.5 64t-20 104.5q0 101 31.5 175.5t94.5 116t156 41.5q102 0 189 -28zM317 127l40 276q-28 5 -59 5q-52 0 -85 -29.5t-48 -77.5t-15 -107q0 -52 18.5 -77.5t60.5 -25.5q48 0 88 36z
M276 719q29 10 71 15.5t74 5.5q-15 -43 -45.5 -80.5t-71 -60.5t-82.5 -26h-3z" />
    <glyph glyph-name="abreve" unicode="&#x103;" horiz-adv-x="513" 
d="M493 483l-68 -483h-114l1 65q-22 -38 -53.5 -57.5t-74.5 -19.5q-49 0 -85.5 21.5t-56.5 64t-20 104.5q0 101 31.5 175.5t94.5 116t156 41.5q102 0 189 -28zM317 127l40 276q-28 5 -59 5q-52 0 -85 -29.5t-48 -77.5t-15 -107q0 -52 18.5 -77.5t60.5 -25.5q48 0 88 36z
M201.5 613.5q-34.5 40.5 -36.5 100.5q19 4 43.5 6.5t45.5 2.5q3 -31 16.5 -48.5t40.5 -17.5q28 0 46.5 17.5t28.5 48.5q22 0 46 -2.5t41 -6.5q-19 -64 -56.5 -102.5t-107.5 -38.5q-73 0 -107.5 40.5z" />
    <glyph glyph-name="acircumflex" unicode="&#xe2;" horiz-adv-x="513" 
d="M493 483l-68 -483h-114l1 65q-22 -38 -53.5 -57.5t-74.5 -19.5q-49 0 -85.5 21.5t-56.5 64t-20 104.5q0 101 31.5 175.5t94.5 116t156 41.5q102 0 189 -28zM317 127l40 276q-28 5 -59 5q-52 0 -85 -29.5t-48 -77.5t-15 -107q0 -52 18.5 -77.5t60.5 -25.5q48 0 88 36z
M460 580h-61q-19 10 -34.5 24t-43.5 50q-37 -37 -58.5 -51.5t-45.5 -22.5h-59l110 150q24 5 62 5t59 -5z" />
    <glyph glyph-name="adieresis" unicode="&#xe4;" horiz-adv-x="513" 
d="M493 483l-68 -483h-114l1 65q-22 -38 -53.5 -57.5t-74.5 -19.5q-49 0 -85.5 21.5t-56.5 64t-20 104.5q0 101 31.5 175.5t94.5 116t156 41.5q102 0 189 -28zM317 127l40 276q-28 5 -59 5q-52 0 -85 -29.5t-48 -77.5t-15 -107q0 -52 18.5 -77.5t60.5 -25.5q48 0 88 36z
M172.5 607q-19.5 20 -19.5 50q0 31 19 50.5t50 19.5q30 0 49.5 -19.5t19.5 -50.5t-19.5 -50.5t-49.5 -19.5t-49.5 20zM367.5 606q-19.5 20 -19.5 50q0 31 19.5 51t50.5 20q29 0 48.5 -20t19.5 -51q0 -30 -19.5 -50t-48.5 -20q-31 0 -50.5 20z" />
    <glyph glyph-name="agrave" unicode="&#xe0;" horiz-adv-x="513" 
d="M493 483l-68 -483h-114l1 65q-22 -38 -53.5 -57.5t-74.5 -19.5q-49 0 -85.5 21.5t-56.5 64t-20 104.5q0 101 31.5 175.5t94.5 116t156 41.5q102 0 189 -28zM317 127l40 276q-28 5 -59 5q-52 0 -85 -29.5t-48 -77.5t-15 -107q0 -52 18.5 -77.5t60.5 -25.5q48 0 88 36z
M379 573q-42 3 -82.5 26t-71 60.5t-45.5 80.5q32 0 74 -5.5t71 -15.5l56 -146h-2z" />
    <glyph glyph-name="amacron" unicode="&#x101;" horiz-adv-x="513" 
d="M493 483l-68 -483h-114l1 65q-22 -38 -53.5 -57.5t-74.5 -19.5q-49 0 -85.5 21.5t-56.5 64t-20 104.5q0 101 31.5 175.5t94.5 116t156 41.5q102 0 189 -28zM317 127l40 276q-28 5 -59 5q-52 0 -85 -29.5t-48 -77.5t-15 -107q0 -52 18.5 -77.5t60.5 -25.5q48 0 88 36z
M181 654.5q6 23.5 14 46.5h273q-5 -26 -10 -45.5t-15 -47.5h-272q4 23 10 46.5z" />
    <glyph glyph-name="aogonek" unicode="&#x105;" horiz-adv-x="513" 
d="M347 -45q-19 -29 -19 -56q0 -37 41 -37q12 0 23.5 3.5t20.5 6.5q-3 -21 -8 -40t-14 -44q-23 -9 -62 -9q-47 0 -75.5 24.5t-28.5 72.5q0 35 21.5 67.5t64.5 59.5l1 62q-22 -38 -53.5 -57.5t-74.5 -19.5q-49 0 -85.5 21.5t-56.5 64t-20 104.5q0 101 31.5 175.5t94.5 116
t156 41.5q102 0 189 -28l-68 -483h-29q-30 -16 -49 -45zM317 127l40 276q-28 5 -59 5q-52 0 -85 -29.5t-48 -77.5t-15 -107q0 -52 18.5 -77.5t60.5 -25.5q48 0 88 36z" />
    <glyph glyph-name="aring" unicode="&#xe5;" horiz-adv-x="513" 
d="M493 483l-68 -483h-114l1 65q-22 -38 -53.5 -57.5t-74.5 -19.5q-49 0 -85.5 21.5t-56.5 64t-20 104.5q0 101 31.5 175.5t94.5 116t156 41.5q102 0 189 -28zM317 127l40 276q-28 5 -59 5q-52 0 -85 -29.5t-48 -77.5t-15 -107q0 -52 18.5 -77.5t60.5 -25.5q48 0 88 36z
M258.5 574q-27.5 14 -43.5 40t-16 59q0 34 16 60t43.5 40t61.5 14t61.5 -14t43 -40t15.5 -60q0 -33 -15.5 -59t-43 -40t-61.5 -14t-61.5 14zM353.5 637q12.5 14 12.5 36q0 23 -12.5 37t-33.5 14q-22 0 -34.5 -14t-12.5 -37q0 -22 13 -36t34 -14t33.5 14z" />
    <glyph glyph-name="aringacute" unicode="&#x1fb;" horiz-adv-x="513" 
d="M493 483l-68 -483h-114l1 65q-22 -38 -53.5 -57.5t-74.5 -19.5q-49 0 -85.5 21.5t-56.5 64t-20 104.5q0 101 31.5 175.5t94.5 116t156 41.5q102 0 189 -28zM317 127l40 276q-28 5 -59 5q-52 0 -85 -29.5t-48 -77.5t-15 -107q0 -52 18.5 -77.5t60.5 -25.5q48 0 88 36z
M258.5 574q-27.5 14 -43.5 40t-16 59q0 34 16 60t43.5 40t61.5 14t61.5 -14t43 -40t15.5 -60q0 -33 -15.5 -59t-43 -40t-61.5 -14t-61.5 14zM353.5 637q12.5 14 12.5 36q0 23 -12.5 37t-33.5 14q-22 0 -34.5 -14t-12.5 -37q0 -22 13 -36t34 -14t33.5 14zM315 978
q29 10 71 15.5t74 5.5q-15 -43 -45.5 -80.5t-71 -60.5t-82.5 -26h-3z" />
    <glyph glyph-name="atilde" unicode="&#xe3;" horiz-adv-x="513" 
d="M493 483l-68 -483h-114l1 65q-22 -38 -53.5 -57.5t-74.5 -19.5q-49 0 -85.5 21.5t-56.5 64t-20 104.5q0 101 31.5 175.5t94.5 116t156 41.5q102 0 189 -28zM317 127l40 276q-28 5 -59 5q-52 0 -85 -29.5t-48 -77.5t-15 -107q0 -52 18.5 -77.5t60.5 -25.5q48 0 88 36z
M344 593q-16 9 -39 26q-10 8 -19 14t-15 6q-9 0 -13 -5.5t-6 -18.5l-4 -29h-70l10 67q6 35 23.5 51t46.5 16q19 0 36 -9.5t38 -26.5q10 -8 19 -14t15 -6q9 0 13 5.5t6 19.5l4 29h70l-10 -67q-6 -35 -23.5 -51t-46.5 -16q-19 0 -35 9z" />
    <glyph glyph-name="ae" unicode="&#xe6;" horiz-adv-x="760" 
d="M419 212v-8q0 -43 12.5 -68t38.5 -36t68 -11q76 0 161 35q-3 -26 -10 -54.5t-16 -52.5q-72 -29 -154 -29q-129 0 -180 76q-33 -39 -75 -57.5t-99 -18.5q-44 0 -78.5 15.5t-55 46t-20.5 74.5q0 69 38 107.5t100.5 54t153.5 20.5h11q6 27 6 46q0 32 -18 45.5t-59 13.5
q-44 0 -85 -8.5t-85 -23.5q0 20 4 49t10 52q39 14 85.5 22.5t88.5 8.5q52 0 86 -13t52 -40q59 53 151 53q63 0 105.5 -23t63.5 -63t21 -91q0 -27 -6 -63t-14 -59h-301zM470.5 382q-27.5 -29 -40.5 -80h186q3 20 3 35q0 36 -19 55t-57 19q-45 0 -72.5 -29zM311 136
q-6 29 -6 62v23h-7q-55 -3 -90.5 -10.5t-56.5 -25t-21 -48.5q0 -25 16.5 -39t44.5 -14q75 0 120 52z" />
    <glyph glyph-name="aeacute" unicode="&#x1fd;" horiz-adv-x="760" 
d="M419 212v-8q0 -43 12.5 -68t38.5 -36t68 -11q76 0 161 35q-3 -26 -10 -54.5t-16 -52.5q-72 -29 -154 -29q-129 0 -180 76q-33 -39 -75 -57.5t-99 -18.5q-44 0 -78.5 15.5t-55 46t-20.5 74.5q0 69 38 107.5t100.5 54t153.5 20.5h11q6 27 6 46q0 32 -18 45.5t-59 13.5
q-44 0 -85 -8.5t-85 -23.5q0 20 4 49t10 52q39 14 85.5 22.5t88.5 8.5q52 0 86 -13t52 -40q59 53 151 53q63 0 105.5 -23t63.5 -63t21 -91q0 -27 -6 -63t-14 -59h-301zM470.5 382q-27.5 -29 -40.5 -80h186q3 20 3 35q0 36 -19 55t-57 19q-45 0 -72.5 -29zM311 136
q-6 29 -6 62v23h-7q-55 -3 -90.5 -10.5t-56.5 -25t-21 -48.5q0 -25 16.5 -39t44.5 -14q75 0 120 52zM397 719q29 10 71 15.5t74 5.5q-15 -43 -45.5 -80.5t-71 -60.5t-82.5 -26h-3z" />
    <glyph glyph-name="b" unicode="b" horiz-adv-x="513" 
d="M445 462.5q46 -48.5 46 -142.5q0 -102 -30.5 -176.5t-92.5 -115.5t-155 -41q-101 0 -193 29l95 676q64 18 128 18l-31 -221q57 22 106 22q81 0 127 -48.5zM299.5 119.5q33.5 29.5 48.5 78t15 106.5q0 53 -18.5 78t-60.5 25q-43 0 -87 -22l-41 -290q28 -5 59 -5
q51 0 84.5 29.5z" />
    <glyph glyph-name="c" unicode="c" horiz-adv-x="400" 
d="M115.5 11.5q-45.5 23.5 -70 70t-24.5 114.5q0 93 31 164t92.5 111t147.5 40q68 0 110 -22q-2 -24 -8 -51t-13 -49q-37 16 -79 16q-51 0 -85.5 -25.5t-51.5 -70.5t-17 -104q0 -56 26 -85t74 -29q24 0 52 6.5t50 15.5q-2 -25 -8.5 -55.5t-15.5 -54.5q-20 -7 -47 -11t-56 -4
q-62 0 -107.5 23.5z" />
    <glyph glyph-name="cacute" unicode="&#x107;" horiz-adv-x="400" 
d="M115.5 11.5q-45.5 23.5 -70 70t-24.5 114.5q0 93 31 164t92.5 111t147.5 40q68 0 110 -22q-2 -24 -8 -51t-13 -49q-37 16 -79 16q-51 0 -85.5 -25.5t-51.5 -70.5t-17 -104q0 -56 26 -85t74 -29q24 0 52 6.5t50 15.5q-2 -25 -8.5 -55.5t-15.5 -54.5q-20 -7 -47 -11t-56 -4
q-62 0 -107.5 23.5zM254 719q29 10 71 15.5t74 5.5q-15 -43 -45.5 -80.5t-71 -60.5t-82.5 -26h-3z" />
    <glyph glyph-name="ccaron" unicode="&#x10d;" horiz-adv-x="400" 
d="M115.5 11.5q-45.5 23.5 -70 70t-24.5 114.5q0 93 31 164t92.5 111t147.5 40q68 0 110 -22q-2 -24 -8 -51t-13 -49q-37 16 -79 16q-51 0 -85.5 -25.5t-51.5 -70.5t-17 -104q0 -56 26 -85t74 -29q24 0 52 6.5t50 15.5q-2 -25 -8.5 -55.5t-15.5 -54.5q-20 -7 -47 -11t-56 -4
q-62 0 -107.5 23.5zM449 733l-110 -150q-28 -6 -62 -6q-14 0 -29.5 1.5t-29.5 3.5l-71 151h61q14 -8 23 -14.5t22.5 -21t32.5 -39.5q37 38 58.5 52.5t45.5 22.5h59z" />
    <glyph glyph-name="ccedilla" unicode="&#xe7;" horiz-adv-x="400" 
d="M216.5 379.5q-34.5 -25.5 -51.5 -70.5t-17 -104q0 -56 26 -85t74 -29q24 0 52 6.5t50 15.5q-2 -25 -8.5 -55.5t-15.5 -54.5q-18 -6 -41.5 -10t-49.5 -5l-16 -34q34 -10 50 -29t16 -48q0 -47 -32.5 -72t-84.5 -25q-20 0 -41 4t-37 10q6 36 20 61q25 -9 48 -9q22 0 33.5 8
t11.5 22q0 16 -18 24t-57 9l38 85q-69 15 -107 66t-38 136q0 93 31 164t92.5 111t147.5 40q68 0 110 -22q-2 -24 -8 -51t-13 -49q-37 16 -79 16q-51 0 -85.5 -25.5z" />
    <glyph glyph-name="ccircumflex" unicode="&#x109;" horiz-adv-x="400" 
d="M241.5 602.5q-20.5 -14.5 -43.5 -22.5h-57l106 150q23 5 59 5q37 0 57 -5l68 -150h-59q-18 10 -33 24t-41 50q-36 -37 -56.5 -51.5zM52 360q31 71 92.5 111t147.5 40q68 0 110 -22q-2 -24 -8 -51t-13 -49q-37 16 -79 16q-51 0 -85.5 -25.5t-51.5 -70.5t-17 -104
q0 -56 26 -85t74 -29q24 0 52 6.5t50 15.5q-2 -25 -8.5 -55.5t-15.5 -54.5q-20 -7 -47 -11t-56 -4q-62 0 -107.5 23.5t-70 70t-24.5 114.5q0 93 31 164z" />
    <glyph glyph-name="cdotaccent" unicode="&#x10b;" horiz-adv-x="400" 
d="M115.5 11.5q-45.5 23.5 -70 70t-24.5 114.5q0 93 31 164t92.5 111t147.5 40q68 0 110 -22q-2 -24 -8 -51t-13 -49q-37 16 -79 16q-51 0 -85.5 -25.5t-51.5 -70.5t-17 -104q0 -56 26 -85t74 -29q24 0 52 6.5t50 15.5q-2 -25 -8.5 -55.5t-15.5 -54.5q-20 -7 -47 -11t-56 -4
q-62 0 -107.5 23.5zM243.5 603q-21.5 21 -21.5 54t21.5 54t53.5 21t53 -21t21 -54q0 -32 -21 -53.5t-53 -21.5t-53.5 21z" />
    <glyph glyph-name="d" unicode="d" horiz-adv-x="514" 
d="M462.5 705.5q33.5 4.5 63.5 4.5l-100 -710h-117l3 64q-45 -76 -128 -76q-49 0 -85.5 21.5t-56.5 64t-20 104.5q0 101 31.5 175.5t94.5 116t156 41.5q36 0 67 -3l26 184q32 9 65.5 13.5zM318 128l38 275q-27 5 -58 5q-52 0 -85 -29.5t-48 -77.5t-15 -107q0 -52 18.5 -77.5
t60.5 -25.5q48 0 89 37z" />
    <glyph glyph-name="eth" unicode="&#xf0;" horiz-adv-x="506" 
d="M408 599q39 -49 58.5 -112t19.5 -134q0 -103 -29 -185.5t-88.5 -131t-146.5 -48.5q-62 0 -107 24t-69.5 69t-24.5 107q0 71 27.5 131.5t79.5 97t122 36.5q37 0 65 -12.5t45 -35.5q-12 80 -59 133l-136 -78q2 19 9 45.5t14 45.5l58 33q-36 24 -95 42q14 25 36.5 49.5
t41.5 34.5q72 -17 129 -61l135 77q-2 -19 -8 -44.5t-13 -45.5zM303.5 124q29.5 33 44 86t16.5 115q-38 26 -91 26q-65 0 -95.5 -43.5t-30.5 -120.5q0 -45 21 -70.5t61 -25.5q45 0 74.5 33z" />
    <glyph glyph-name="dcaron" unicode="&#x10f;" horiz-adv-x="514" 
d="M462.5 705.5q33.5 4.5 63.5 4.5l-100 -710h-117l3 64q-45 -76 -128 -76q-49 0 -85.5 21.5t-56.5 64t-20 104.5q0 101 31.5 175.5t94.5 116t156 41.5q36 0 67 -3l26 184q32 9 65.5 13.5zM318 128l38 275q-27 5 -58 5q-52 0 -85 -29.5t-48 -77.5t-15 -107q0 -52 18.5 -77.5
t60.5 -25.5q48 0 89 37zM577 605.5q7 38.5 14 86.5q36 10 62.5 14t58.5 4q-13 -60 -46 -108.5t-81 -78.5h-26q11 44 18 82.5z" />
    <glyph glyph-name="dcroat" unicode="&#x111;" horiz-adv-x="514" 
d="M568 561h-63l-79 -561h-117l3 64q-45 -76 -128 -76q-49 0 -85.5 21.5t-56.5 64t-20 104.5q0 101 31.5 175.5t94.5 116t156 41.5q36 0 67 -3l8 53h-150q2 19 8 40.5t14 39.5h139l7 51q32 9 65.5 13.5t63.5 4.5l-10 -69h74q-6 -46 -22 -80zM318 128l38 275q-27 5 -58 5
q-52 0 -85 -29.5t-48 -77.5t-15 -107q0 -52 18.5 -77.5t60.5 -25.5q48 0 89 37z" />
    <glyph glyph-name="e" unicode="e" horiz-adv-x="486" 
d="M144 205v-2q0 -43 12.5 -68t38.5 -35.5t68 -10.5q38 0 79 9.5t81 25.5q-6 -55 -26 -107q-72 -29 -153 -29q-111 0 -166.5 55t-55.5 155q0 90 29 160.5t86 111.5t138 41q63 0 105.5 -24t63.5 -65.5t21 -94.5q0 -25 -6.5 -61t-13.5 -61h-301zM194 380.5
q-28 -30.5 -40 -83.5h186q3 21 3 37q0 37 -19 57t-56 20q-46 0 -74 -30.5z" />
    <glyph glyph-name="eacute" unicode="&#xe9;" horiz-adv-x="486" 
d="M144 205v-2q0 -43 12.5 -68t38.5 -35.5t68 -10.5q38 0 79 9.5t81 25.5q-6 -55 -26 -107q-72 -29 -153 -29q-111 0 -166.5 55t-55.5 155q0 90 29 160.5t86 111.5t138 41q63 0 105.5 -24t63.5 -65.5t21 -94.5q0 -25 -6.5 -61t-13.5 -61h-301zM194 380.5
q-28 -30.5 -40 -83.5h186q3 21 3 37q0 37 -19 57t-56 20q-46 0 -74 -30.5zM260 719q29 10 71 15.5t74 5.5q-15 -43 -45.5 -80.5t-71 -60.5t-82.5 -26h-3z" />
    <glyph glyph-name="ebreve" unicode="&#x115;" horiz-adv-x="486" 
d="M144 205v-2q0 -43 12.5 -68t38.5 -35.5t68 -10.5q38 0 79 9.5t81 25.5q-6 -55 -26 -107q-72 -29 -153 -29q-111 0 -166.5 55t-55.5 155q0 90 29 160.5t86 111.5t138 41q63 0 105.5 -24t63.5 -65.5t21 -94.5q0 -25 -6.5 -61t-13.5 -61h-301zM194 380.5
q-28 -30.5 -40 -83.5h186q3 21 3 37q0 37 -19 57t-56 20q-46 0 -74 -30.5zM185.5 613.5q-34.5 40.5 -36.5 100.5q19 4 43.5 6.5t45.5 2.5q3 -31 16.5 -48.5t40.5 -17.5q28 0 46.5 17.5t28.5 48.5q22 0 46 -2.5t41 -6.5q-19 -64 -56.5 -102.5t-107.5 -38.5q-73 0 -107.5 40.5
z" />
    <glyph glyph-name="ecaron" unicode="&#x11b;" horiz-adv-x="486" 
d="M144 205v-2q0 -43 12.5 -68t38.5 -35.5t68 -10.5q38 0 79 9.5t81 25.5q-6 -55 -26 -107q-72 -29 -153 -29q-111 0 -166.5 55t-55.5 155q0 90 29 160.5t86 111.5t138 41q63 0 105.5 -24t63.5 -65.5t21 -94.5q0 -25 -6.5 -61t-13.5 -61h-301zM194 380.5
q-28 -30.5 -40 -83.5h186q3 21 3 37q0 37 -19 57t-56 20q-46 0 -74 -30.5zM455 733l-110 -150q-28 -6 -62 -6q-14 0 -29.5 1.5t-29.5 3.5l-71 151h61q14 -8 23 -14.5t22.5 -21t32.5 -39.5q37 38 58.5 52.5t45.5 22.5h59z" />
    <glyph glyph-name="ecircumflex" unicode="&#xea;" horiz-adv-x="486" 
d="M144 205v-2q0 -43 12.5 -68t38.5 -35.5t68 -10.5q38 0 79 9.5t81 25.5q-6 -55 -26 -107q-72 -29 -153 -29q-111 0 -166.5 55t-55.5 155q0 90 29 160.5t86 111.5t138 41q63 0 105.5 -24t63.5 -65.5t21 -94.5q0 -25 -6.5 -61t-13.5 -61h-301zM194 380.5
q-28 -30.5 -40 -83.5h186q3 21 3 37q0 37 -19 57t-56 20q-46 0 -74 -30.5zM444 580h-61q-19 10 -34.5 24t-43.5 50q-37 -37 -58.5 -51.5t-45.5 -22.5h-59l110 150q24 5 62 5t59 -5z" />
    <glyph glyph-name="edieresis" unicode="&#xeb;" horiz-adv-x="486" 
d="M144 205v-2q0 -43 12.5 -68t38.5 -35.5t68 -10.5q38 0 79 9.5t81 25.5q-6 -55 -26 -107q-72 -29 -153 -29q-111 0 -166.5 55t-55.5 155q0 90 29 160.5t86 111.5t138 41q63 0 105.5 -24t63.5 -65.5t21 -94.5q0 -25 -6.5 -61t-13.5 -61h-301zM194 380.5
q-28 -30.5 -40 -83.5h186q3 21 3 37q0 37 -19 57t-56 20q-46 0 -74 -30.5zM156.5 607q-19.5 20 -19.5 50q0 31 19 50.5t50 19.5q30 0 49.5 -19.5t19.5 -50.5t-19.5 -50.5t-49.5 -19.5t-49.5 20zM351.5 606q-19.5 20 -19.5 50q0 31 19.5 51t50.5 20q29 0 48.5 -20t19.5 -51
q0 -30 -19.5 -50t-48.5 -20q-31 0 -50.5 20z" />
    <glyph glyph-name="edotaccent" unicode="&#x117;" horiz-adv-x="486" 
d="M144 205v-2q0 -43 12.5 -68t38.5 -35.5t68 -10.5q38 0 79 9.5t81 25.5q-6 -55 -26 -107q-72 -29 -153 -29q-111 0 -166.5 55t-55.5 155q0 90 29 160.5t86 111.5t138 41q63 0 105.5 -24t63.5 -65.5t21 -94.5q0 -25 -6.5 -61t-13.5 -61h-301zM194 380.5
q-28 -30.5 -40 -83.5h186q3 21 3 37q0 37 -19 57t-56 20q-46 0 -74 -30.5zM250.5 603q-21.5 21 -21.5 54t21.5 54t53.5 21t53 -21t21 -54q0 -32 -21 -53.5t-53 -21.5t-53.5 21z" />
    <glyph glyph-name="egrave" unicode="&#xe8;" horiz-adv-x="486" 
d="M144 205v-2q0 -43 12.5 -68t38.5 -35.5t68 -10.5q38 0 79 9.5t81 25.5q-6 -55 -26 -107q-72 -29 -153 -29q-111 0 -166.5 55t-55.5 155q0 90 29 160.5t86 111.5t138 41q63 0 105.5 -24t63.5 -65.5t21 -94.5q0 -25 -6.5 -61t-13.5 -61h-301zM194 380.5
q-28 -30.5 -40 -83.5h186q3 21 3 37q0 37 -19 57t-56 20q-46 0 -74 -30.5zM363 573q-42 3 -82.5 26t-71 60.5t-45.5 80.5q32 0 74 -5.5t71 -15.5l56 -146h-2z" />
    <glyph glyph-name="emacron" unicode="&#x113;" horiz-adv-x="486" 
d="M144 205v-2q0 -43 12.5 -68t38.5 -35.5t68 -10.5q38 0 79 9.5t81 25.5q-6 -55 -26 -107q-72 -29 -153 -29q-111 0 -166.5 55t-55.5 155q0 90 29 160.5t86 111.5t138 41q63 0 105.5 -24t63.5 -65.5t21 -94.5q0 -25 -6.5 -61t-13.5 -61h-301zM194 380.5
q-28 -30.5 -40 -83.5h186q3 21 3 37q0 37 -19 57t-56 20q-46 0 -74 -30.5zM165 654.5q6 23.5 14 46.5h273q-5 -26 -10 -45.5t-15 -47.5h-272q4 23 10 46.5z" />
    <glyph glyph-name="eogonek" unicode="&#x119;" horiz-adv-x="486" 
d="M144 205v-2q0 -43 12.5 -68t38.5 -35.5t68 -10.5q38 0 79 9.5t81 25.5q-6 -55 -26 -107q-23 -9 -46 -15q-29 -16 -47.5 -44.5t-18.5 -55.5q0 -37 41 -37q12 0 23.5 3.5t20.5 6.5q-3 -21 -8 -40t-13 -44q-22 -9 -62 -9q-48 0 -76.5 24.5t-28.5 72.5q0 60 60 109
q-111 1 -165.5 56t-54.5 154q0 90 29 160.5t86 111.5t138 41q63 0 105.5 -24t63.5 -65.5t21 -94.5q0 -25 -6.5 -61t-13.5 -61h-301zM194 380.5q-28 -30.5 -40 -83.5h186q3 21 3 37q0 37 -19 57t-56 20q-46 0 -74 -30.5z" />
    <glyph glyph-name="uni0259" unicode="&#x259;" horiz-adv-x="486" 
d="M408.5 456q55.5 -55 55.5 -154q0 -90 -29 -161t-86 -112t-138 -41q-62 0 -105 24t-64 65.5t-21 94.5q0 25 6.5 61t13.5 61h301v2q0 43 -12.5 68t-38.5 36t-68 11q-71 0 -160 -35q3 26 10 54t16 52q73 29 153 29q111 0 166.5 -55zM292 118.5q28 30.5 40 83.5h-186
q-3 -21 -3 -37q0 -36 19 -56.5t56 -20.5q46 0 74 30.5z" />
    <glyph glyph-name="f" unicode="f" horiz-adv-x="321" 
d="M243.5 588.5q-20.5 -19.5 -26.5 -62.5l-4 -27h138q-8 -44 -26 -101h-126l-56 -398h-125l74 528q13 90 61.5 136t141.5 46q50 0 95 -12q-4 -22 -11 -50t-15 -48q-30 8 -60 8q-40 0 -60.5 -19.5z" />
    <glyph glyph-name="g" unicode="g" horiz-adv-x="514" 
d="M494 483l-66 -471q-16 -113 -81.5 -174.5t-182.5 -61.5q-47 0 -87 9.5t-72 26.5q2 24 7.5 53t12.5 51q26 -18 60 -26.5t65 -8.5q75 0 109.5 35.5t42.5 99.5l6 41q-22 -34 -52.5 -51.5t-71.5 -17.5q-49 0 -85.5 21.5t-56.5 64t-20 104.5q0 101 31.5 175.5t94.5 116
t156 41.5q102 0 189 -28h1zM356 403q-27 5 -58 5q-52 0 -85 -29.5t-48 -77.5t-15 -107q0 -52 18.5 -77.5t60.5 -25.5q48 0 89 37z" />
    <glyph glyph-name="gbreve" unicode="&#x11f;" horiz-adv-x="514" 
d="M494 483l-66 -471q-16 -113 -81.5 -174.5t-182.5 -61.5q-47 0 -87 9.5t-72 26.5q2 24 7.5 53t12.5 51q26 -18 60 -26.5t65 -8.5q75 0 109.5 35.5t42.5 99.5l6 41q-22 -34 -52.5 -51.5t-71.5 -17.5q-49 0 -85.5 21.5t-56.5 64t-20 104.5q0 101 31.5 175.5t94.5 116
t156 41.5q102 0 189 -28h1zM356 403q-27 5 -58 5q-52 0 -85 -29.5t-48 -77.5t-15 -107q0 -52 18.5 -77.5t60.5 -25.5q48 0 89 37zM199.5 613.5q-34.5 40.5 -36.5 100.5q19 4 43.5 6.5t45.5 2.5q3 -31 16.5 -48.5t40.5 -17.5q28 0 46.5 17.5t28.5 48.5q22 0 46 -2.5t41 -6.5
q-19 -64 -56.5 -102.5t-107.5 -38.5q-73 0 -107.5 40.5z" />
    <glyph glyph-name="gcircumflex" unicode="&#x11d;" horiz-adv-x="514" 
d="M494 483l-66 -471q-16 -113 -81.5 -174.5t-182.5 -61.5q-47 0 -87 9.5t-72 26.5q2 24 7.5 53t12.5 51q26 -18 60 -26.5t65 -8.5q75 0 109.5 35.5t42.5 99.5l6 41q-22 -34 -52.5 -51.5t-71.5 -17.5q-49 0 -85.5 21.5t-56.5 64t-20 104.5q0 101 31.5 175.5t94.5 116
t156 41.5q102 0 189 -28h1zM356 403q-27 5 -58 5q-52 0 -85 -29.5t-48 -77.5t-15 -107q0 -52 18.5 -77.5t60.5 -25.5q48 0 89 37zM458 580h-61q-19 10 -34.5 24t-43.5 50q-37 -37 -58.5 -51.5t-45.5 -22.5h-59l110 150q24 5 62 5t59 -5z" />
    <glyph glyph-name="uni0123" unicode="&#x123;" horiz-adv-x="514" 
d="M377 665q-7 -39 -14 -88q-36 -10 -62.5 -14t-58.5 -4q13 61 46 109.5t81 77.5h26q-11 -42 -18 -81zM494 483l-66 -471q-16 -113 -81.5 -174.5t-182.5 -61.5q-47 0 -87 9.5t-72 26.5q2 24 7.5 53t12.5 51q26 -18 60 -26.5t65 -8.5q75 0 109.5 35.5t42.5 99.5l6 41
q-22 -34 -52.5 -51.5t-71.5 -17.5q-49 0 -85.5 21.5t-56.5 64t-20 104.5q0 101 31.5 175.5t94.5 116t156 41.5q102 0 189 -28h1zM356 403q-27 5 -58 5q-52 0 -85 -29.5t-48 -77.5t-15 -107q0 -52 18.5 -77.5t60.5 -25.5q48 0 89 37z" />
    <glyph glyph-name="gdotaccent" unicode="&#x121;" horiz-adv-x="514" 
d="M494 483l-66 -471q-16 -113 -81.5 -174.5t-182.5 -61.5q-47 0 -87 9.5t-72 26.5q2 24 7.5 53t12.5 51q26 -18 60 -26.5t65 -8.5q75 0 109.5 35.5t42.5 99.5l6 41q-22 -34 -52.5 -51.5t-71.5 -17.5q-49 0 -85.5 21.5t-56.5 64t-20 104.5q0 101 31.5 175.5t94.5 116
t156 41.5q102 0 189 -28h1zM356 403q-27 5 -58 5q-52 0 -85 -29.5t-48 -77.5t-15 -107q0 -52 18.5 -77.5t60.5 -25.5q48 0 89 37zM264.5 603q-21.5 21 -21.5 54t21.5 54t53.5 21t53 -21t21 -54q0 -32 -21 -53.5t-53 -21.5t-53.5 21z" />
    <glyph glyph-name="h" unicode="h" horiz-adv-x="509" 
d="M432 473.5q44 -37.5 44 -105.5q0 -18 -3 -38l-47 -330h-125l44 316q2 20 2 28q0 34 -17.5 50t-59.5 16q-34 0 -71 -8l-56 -402h-125l97 692q63 18 127 18l-29 -207q38 8 72 8q103 0 147 -37.5z" />
    <glyph glyph-name="hbar" unicode="&#x127;" horiz-adv-x="516" 
d="M439 473.5q44 -37.5 44 -105.5q0 -18 -3 -38l-47 -330h-125l44 316q2 20 2 28q0 34 -17.5 50t-59.5 16q-34 0 -71 -8l-56 -402h-125l79 561h-60q2 18 7.5 39.5t14.5 40.5h49l7 51q63 18 127 18l-10 -69h166q-6 -46 -22 -80h-155l-8 -58q38 8 72 8q103 0 147 -37.5z" />
    <glyph glyph-name="hcircumflex" unicode="&#x125;" horiz-adv-x="509" 
d="M432 473.5q44 -37.5 44 -105.5q0 -18 -3 -38l-47 -330h-125l44 316q2 20 2 28q0 34 -17.5 50t-59.5 16q-34 0 -71 -8l-56 -402h-125l97 692q63 18 127 18l-29 -207q38 8 72 8q103 0 147 -37.5zM284 888q36 9 78 9t75 -9l72 -127h-36q-38 0 -67 15.5t-53 51.5
q-37 -35 -70 -51t-71 -16h-35z" />
    <glyph glyph-name="i" unicode="i" horiz-adv-x="230" 
d="M119 603q-21 21 -21 54t21 54t54 21q32 0 52.5 -21t20.5 -54q0 -32 -21 -53.5t-52 -21.5q-33 0 -54 21zM88 499h125l-70 -499h-125z" />
    <glyph glyph-name="dotlessi" unicode="&#x131;" horiz-adv-x="230" 
d="M88 499h125l-70 -499h-125z" />
    <glyph glyph-name="iacute" unicode="&#xed;" horiz-adv-x="230" 
d="M88 499h125l-70 -499h-125zM129 719q29 10 71 15.5t74 5.5q-15 -43 -45.5 -80.5t-71 -60.5t-82.5 -26h-3z" />
    <glyph glyph-name="ibreve" unicode="&#x12d;" horiz-adv-x="230" 
d="M88 499h125l-70 -499h-125zM90 592.5q-29 18.5 -42.5 48.5t-11.5 66q18 4 43 6.5t45 2.5q1 -27 11 -42t33 -15q22 0 36 15t20 42q21 0 43.5 -2t38.5 -7q-13 -58 -47.5 -95.5t-95.5 -37.5q-44 0 -73 18.5z" />
    <glyph glyph-name="icircumflex" unicode="&#xee;" horiz-adv-x="230" 
d="M88 499h125l-70 -499h-125zM298 578h-41q-20 7 -39 24.5t-45 52.5q-38 -39 -59 -54.5t-44 -22.5h-49l105 150q20 6 55 6q33 0 51 -5z" />
    <glyph glyph-name="idieresis" unicode="&#xef;" horiz-adv-x="230" 
d="M88 499h125l-70 -499h-125zM39.5 608q-19.5 20 -19.5 50q0 31 19 50.5t50 19.5q29 0 48 -19.5t19 -50.5q0 -30 -19 -50t-48 -20q-30 0 -49.5 20zM207 607.5q-19 19.5 -19 50.5q0 30 19 50t49 20q29 0 48 -20t19 -50q0 -31 -19 -50.5t-48 -19.5q-30 0 -49 19.5z" />
    <glyph glyph-name="igrave" unicode="&#xec;" horiz-adv-x="230" 
d="M88 499h125l-70 -499h-125zM232 573q-42 3 -82.5 26t-71 60.5t-45.5 80.5q32 0 74 -5.5t71 -15.5l56 -146h-2z" />
    <glyph glyph-name="ij" unicode="&#x133;" horiz-adv-x="460" 
d="M119 603q-21 21 -21 54t21 54t54 21q32 0 52.5 -21t20.5 -54q0 -32 -21 -53.5t-52 -21.5q-33 0 -54 21zM88 499h125l-70 -499h-125zM349 603q-21 21 -21 54t21 54t54 21q32 0 52.5 -21t20.5 -54q0 -32 -21 -53.5t-52 -21.5q-33 0 -54 21zM117 -216q9 50 26 98
q16 -4 36 -4q27 0 41.5 14.5t18.5 47.5l79 559h125l-79 -553q-12 -87 -52 -130t-117 -43q-38 0 -78 11z" />
    <glyph glyph-name="imacron" unicode="&#x12b;" horiz-adv-x="230" 
d="M88 499h125l-70 -499h-125zM66 703h238q-5 -24 -10 -44t-15 -48h-238q8 47 25 92z" />
    <glyph glyph-name="iogonek" unicode="&#x12f;" horiz-adv-x="230" 
d="M225.5 711q20.5 -21 20.5 -54q0 -32 -21 -53.5t-52 -21.5q-33 0 -54 21t-21 54t21 54t54 21q32 0 52.5 -21zM88 499h125l-70 -499h-14q-33 -25 -49.5 -50t-16.5 -52q0 -17 9 -25.5t26 -8.5q11 0 21.5 2.5t17.5 7.5q-4 -38 -20 -85q-7 -3 -23.5 -6t-31.5 -3
q-45 0 -71 24.5t-26 67.5q0 42 19 71.5t55 56.5h-21z" />
    <glyph glyph-name="itilde" unicode="&#x129;" horiz-adv-x="230" 
d="M88 499h125l-70 -499h-125zM188 593.5q-15 9.5 -33 26.5q-2 1 -7.5 6.5t-10 8t-7.5 2.5q-8 0 -11 -5.5t-6 -18.5l-4 -27h-72l8 55q11 79 73 79q19 0 34.5 -10t33.5 -27q2 -2 7.5 -7t9.5 -7.5t7 -2.5q8 0 11.5 5.5t5.5 18.5l4 28h72l-7 -56q-6 -42 -25.5 -60t-47.5 -18
q-20 0 -35 9.5z" />
    <glyph glyph-name="j" unicode="j" horiz-adv-x="230" 
d="M119 603q-21 21 -21 54t21 54t54 21q32 0 52.5 -21t20.5 -54q0 -32 -21 -53.5t-52 -21.5q-33 0 -54 21zM-113 -216q9 50 26 98q16 -4 36 -4q27 0 41.5 14.5t18.5 47.5l79 559h125l-79 -553q-12 -87 -52 -130t-117 -43q-38 0 -78 11z" />
    <glyph glyph-name="uni0237" unicode="&#x237;" horiz-adv-x="230" 
d="M-113 -216q9 50 26 98q16 -4 36 -4q27 0 41.5 14.5t18.5 47.5l79 559h125l-79 -553q-12 -87 -52 -130t-117 -43q-38 0 -78 11z" />
    <glyph glyph-name="jcircumflex" unicode="&#x135;" horiz-adv-x="230" 
d="M-113 -216q9 50 26 98q16 -4 36 -4q27 0 41.5 14.5t18.5 47.5l79 559h125l-79 -553q-12 -87 -52 -130t-117 -43q-38 0 -78 11zM298 578h-41q-20 7 -39 24.5t-45 52.5q-38 -39 -59 -54.5t-44 -22.5h-49l105 150q20 6 55 6q33 0 51 -5z" />
    <glyph glyph-name="k" unicode="k" horiz-adv-x="475" 
d="M309 267l134 -267h-140l-123 263l-37 -263h-125l97 692q63 18 127 18l-60 -434l175 223h140z" />
    <glyph glyph-name="uni0137" unicode="&#x137;" horiz-adv-x="475" 
d="M309 267l134 -267h-140l-123 263l-37 -263h-125l97 692q63 18 127 18l-60 -434l175 223h140zM133 -164.5q7 38.5 14 86.5q36 10 62.5 14t58.5 4q-13 -60 -46 -108.5t-81 -78.5h-26q11 44 18 82.5z" />
    <glyph glyph-name="kgreenlandic" unicode="&#x138;" horiz-adv-x="478" 
d="M213 499l-70 -499h-125l70 499h125zM312 267l134 -267h-140l-125 266l1 7l178 226h140z" />
    <glyph glyph-name="l" unicode="l" horiz-adv-x="232" 
d="M115 692q64 18 128 18l-99 -710h-126z" />
    <glyph glyph-name="lacute" unicode="&#x13a;" horiz-adv-x="232" 
d="M115 692q64 18 128 18l-99 -710h-126zM195 881q14 3 36.5 5t42.5 2q23 0 46 -3t36 -7q-39 -51 -97 -84t-118 -33h-21z" />
    <glyph glyph-name="lcaron" unicode="&#x13e;" horiz-adv-x="232" 
d="M115 692q64 18 128 18l-99 -710h-126zM278 605.5q7 38.5 14 86.5q36 10 62.5 14t58.5 4q-13 -60 -46 -108.5t-81 -78.5h-26q11 44 18 82.5z" />
    <glyph glyph-name="uni013C" unicode="&#x13c;" horiz-adv-x="232" 
d="M115 692q64 18 128 18l-99 -710h-126zM-1 -164.5q7 38.5 14 86.5q36 10 62.5 14t58.5 4q-13 -60 -46 -108.5t-81 -78.5h-26q11 44 18 82.5z" />
    <glyph glyph-name="ldot" unicode="&#x140;" horiz-adv-x="381" 
d="M115 692q64 18 128 18l-99 -710h-126zM274.5 335q-21.5 21 -21.5 54t21.5 54t53.5 21t53 -21t21 -54q0 -32 -21 -53.5t-53 -21.5t-53.5 21z" />
    <glyph glyph-name="lslash" unicode="&#x142;" horiz-adv-x="252" 
d="M292.5 481.5q-6.5 -29.5 -14.5 -48.5l-80 -48l-54 -385h-127l43 303l-68 -41q2 23 8.5 54t15.5 52l58 34l41 290q64 18 128 18l-31 -226l90 54q-3 -27 -9.5 -56.5z" />
    <glyph glyph-name="m" unicode="m" horiz-adv-x="796" 
d="M718 474q45 -37 45 -105q0 -19 -3 -39l-46 -330h-125l44 316q2 20 2 26q0 36 -17.5 52t-59.5 16t-84 -11q2 -20 2 -31q0 -18 -3 -38l-46 -330h-125l44 316q2 20 2 28q0 34 -17.5 50t-59.5 16q-34 0 -72 -8l-56 -402h-125l67 479q107 32 198 32q94 0 143 -33q70 33 144 33
q103 0 148 -37z" />
    <glyph glyph-name="n" unicode="n" horiz-adv-x="509" 
d="M431.5 474q44.5 -37 44.5 -105q0 -18 -3 -39l-46 -330h-125l44 316q2 20 2 28q0 34 -17.5 50t-59.5 16q-34 0 -72 -8l-56 -402h-125l67 479q107 32 198 32q104 0 148.5 -37z" />
    <glyph glyph-name="nacute" unicode="&#x144;" horiz-adv-x="509" 
d="M431.5 474q44.5 -37 44.5 -105q0 -18 -3 -39l-46 -330h-125l44 316q2 20 2 28q0 34 -17.5 50t-59.5 16q-34 0 -72 -8l-56 -402h-125l67 479q107 32 198 32q104 0 148.5 -37zM261 719q29 10 71 15.5t74 5.5q-15 -43 -45.5 -80.5t-71 -60.5t-82.5 -26h-3z" />
    <glyph glyph-name="napostrophe" unicode="&#x149;" horiz-adv-x="657" 
d="M579.5 474q44.5 -37 44.5 -105q0 -18 -3 -39l-46 -330h-125l44 316q2 20 2 28q0 34 -17.5 50t-59.5 16q-34 0 -72 -8l-56 -402h-125l67 479q107 32 198 32q104 0 148.5 -37zM105.5 567q13.5 55 25.5 124q37 10 61 13.5t58 3.5q-16 -83 -38 -141.5t-60 -124.5h-81
q21 70 34.5 125z" />
    <glyph glyph-name="ncaron" unicode="&#x148;" horiz-adv-x="509" 
d="M431.5 474q44.5 -37 44.5 -105q0 -18 -3 -39l-46 -330h-125l44 316q2 20 2 28q0 34 -17.5 50t-59.5 16q-34 0 -72 -8l-56 -402h-125l67 479q107 32 198 32q104 0 148.5 -37zM457 733l-110 -150q-28 -6 -62 -6q-14 0 -29.5 1.5t-29.5 3.5l-71 151h61q14 -8 23 -14.5
t22.5 -21t32.5 -39.5q37 38 58.5 52.5t45.5 22.5h59z" />
    <glyph glyph-name="uni0146" unicode="&#x146;" horiz-adv-x="509" 
d="M431.5 474q44.5 -37 44.5 -105q0 -18 -3 -39l-46 -330h-125l44 316q2 20 2 28q0 34 -17.5 50t-59.5 16q-34 0 -72 -8l-56 -402h-125l67 479q107 32 198 32q104 0 148.5 -37zM139 -164.5q7 38.5 14 86.5q36 10 62.5 14t58.5 4q-13 -60 -46 -108.5t-81 -78.5h-26
q11 44 18 82.5z" />
    <glyph glyph-name="eng" unicode="&#x14b;" horiz-adv-x="509" 
d="M431.5 474q44.5 -37 44.5 -105q0 -18 -3 -39l-46 -330l-9 -58q-11 -86 -48 -126t-111 -40q-36 0 -75 11q10 51 26 96q22 -4 32 -4q22 0 33.5 13t16.5 45l10 63l44 316q2 20 2 28q0 34 -17.5 50t-59.5 16q-34 0 -72 -8l-56 -402h-125l67 479q107 32 198 32
q104 0 148.5 -37z" />
    <glyph glyph-name="ntilde" unicode="&#xf1;" horiz-adv-x="509" 
d="M431.5 474q44.5 -37 44.5 -105q0 -18 -3 -39l-46 -330h-125l44 316q2 20 2 28q0 34 -17.5 50t-59.5 16q-34 0 -72 -8l-56 -402h-125l67 479q107 32 198 32q104 0 148.5 -37zM329 593q-16 9 -39 26q-10 8 -19 14t-15 6q-9 0 -13 -5.5t-6 -18.5l-4 -29h-70l10 67
q6 35 23.5 51t46.5 16q19 0 36 -9.5t38 -26.5q10 -8 19 -14t15 -6q9 0 13 5.5t6 19.5l4 29h70l-10 -67q-6 -35 -23.5 -51t-46.5 -16q-19 0 -35 9z" />
    <glyph glyph-name="o" unicode="o" horiz-adv-x="511" 
d="M114.5 13q-45.5 25 -69.5 71.5t-24 110.5q0 92 31 163.5t90.5 112t143.5 40.5q65 0 111 -25t69.5 -71t23.5 -110q0 -92 -31.5 -164t-91.5 -112.5t-142 -40.5q-65 0 -110.5 25zM306 121q30 30 44 77.5t14 99.5q0 110 -84 110q-46 0 -76 -29.5t-43.5 -76.5t-13.5 -99
q0 -112 84 -112q45 0 75 30z" />
    <glyph glyph-name="oacute" unicode="&#xf3;" horiz-adv-x="511" 
d="M114.5 13q-45.5 25 -69.5 71.5t-24 110.5q0 92 31 163.5t90.5 112t143.5 40.5q65 0 111 -25t69.5 -71t23.5 -110q0 -92 -31.5 -164t-91.5 -112.5t-142 -40.5q-65 0 -110.5 25zM306 121q30 30 44 77.5t14 99.5q0 110 -84 110q-46 0 -76 -29.5t-43.5 -76.5t-13.5 -99
q0 -112 84 -112q45 0 75 30zM265 719q29 10 71 15.5t74 5.5q-15 -43 -45.5 -80.5t-71 -60.5t-82.5 -26h-3z" />
    <glyph glyph-name="obreve" unicode="&#x14f;" horiz-adv-x="511" 
d="M114.5 13q-45.5 25 -69.5 71.5t-24 110.5q0 92 31 163.5t90.5 112t143.5 40.5q65 0 111 -25t69.5 -71t23.5 -110q0 -92 -31.5 -164t-91.5 -112.5t-142 -40.5q-65 0 -110.5 25zM306 121q30 30 44 77.5t14 99.5q0 110 -84 110q-46 0 -76 -29.5t-43.5 -76.5t-13.5 -99
q0 -112 84 -112q45 0 75 30zM189.5 613.5q-34.5 40.5 -36.5 100.5q19 4 43.5 6.5t45.5 2.5q3 -31 16.5 -48.5t40.5 -17.5q28 0 46.5 17.5t28.5 48.5q22 0 46 -2.5t41 -6.5q-19 -64 -56.5 -102.5t-107.5 -38.5q-73 0 -107.5 40.5z" />
    <glyph glyph-name="ocircumflex" unicode="&#xf4;" horiz-adv-x="511" 
d="M114.5 13q-45.5 25 -69.5 71.5t-24 110.5q0 92 31 163.5t90.5 112t143.5 40.5q65 0 111 -25t69.5 -71t23.5 -110q0 -92 -31.5 -164t-91.5 -112.5t-142 -40.5q-65 0 -110.5 25zM306 121q30 30 44 77.5t14 99.5q0 110 -84 110q-46 0 -76 -29.5t-43.5 -76.5t-13.5 -99
q0 -112 84 -112q45 0 75 30zM448 580h-61q-19 10 -34.5 24t-43.5 50q-37 -37 -58.5 -51.5t-45.5 -22.5h-59l110 150q24 5 62 5t59 -5z" />
    <glyph glyph-name="odieresis" unicode="&#xf6;" horiz-adv-x="511" 
d="M114.5 13q-45.5 25 -69.5 71.5t-24 110.5q0 92 31 163.5t90.5 112t143.5 40.5q65 0 111 -25t69.5 -71t23.5 -110q0 -92 -31.5 -164t-91.5 -112.5t-142 -40.5q-65 0 -110.5 25zM306 121q30 30 44 77.5t14 99.5q0 110 -84 110q-46 0 -76 -29.5t-43.5 -76.5t-13.5 -99
q0 -112 84 -112q45 0 75 30zM161.5 607q-19.5 20 -19.5 50q0 31 19 50.5t50 19.5q30 0 49.5 -19.5t19.5 -50.5t-19.5 -50.5t-49.5 -19.5t-49.5 20zM356.5 606q-19.5 20 -19.5 50q0 31 19.5 51t50.5 20q29 0 48.5 -20t19.5 -51q0 -30 -19.5 -50t-48.5 -20q-31 0 -50.5 20z
" />
    <glyph glyph-name="ograve" unicode="&#xf2;" horiz-adv-x="511" 
d="M114.5 13q-45.5 25 -69.5 71.5t-24 110.5q0 92 31 163.5t90.5 112t143.5 40.5q65 0 111 -25t69.5 -71t23.5 -110q0 -92 -31.5 -164t-91.5 -112.5t-142 -40.5q-65 0 -110.5 25zM306 121q30 30 44 77.5t14 99.5q0 110 -84 110q-46 0 -76 -29.5t-43.5 -76.5t-13.5 -99
q0 -112 84 -112q45 0 75 30zM367 573q-42 3 -82.5 26t-71 60.5t-45.5 80.5q32 0 74 -5.5t71 -15.5l56 -146h-2z" />
    <glyph glyph-name="ohungarumlaut" unicode="&#x151;" horiz-adv-x="511" 
d="M114.5 13q-45.5 25 -69.5 71.5t-24 110.5q0 92 31 163.5t90.5 112t143.5 40.5q65 0 111 -25t69.5 -71t23.5 -110q0 -92 -31.5 -164t-91.5 -112.5t-142 -40.5q-65 0 -110.5 25zM306 121q30 30 44 77.5t14 99.5q0 110 -84 110q-46 0 -76 -29.5t-43.5 -76.5t-13.5 -99
q0 -112 84 -112q45 0 75 30zM234 720q23 8 61.5 12t70.5 4q-90 -163 -205 -165h-7zM400 720q22 8 59.5 11.5t70.5 3.5q-46 -86 -99 -124.5t-106 -39.5h-6z" />
    <glyph glyph-name="omacron" unicode="&#x14d;" horiz-adv-x="511" 
d="M114.5 13q-45.5 25 -69.5 71.5t-24 110.5q0 92 31 163.5t90.5 112t143.5 40.5q65 0 111 -25t69.5 -71t23.5 -110q0 -92 -31.5 -164t-91.5 -112.5t-142 -40.5q-65 0 -110.5 25zM306 121q30 30 44 77.5t14 99.5q0 110 -84 110q-46 0 -76 -29.5t-43.5 -76.5t-13.5 -99
q0 -112 84 -112q45 0 75 30zM170 654.5q6 23.5 14 46.5h273q-5 -26 -10 -45.5t-15 -47.5h-272q4 23 10 46.5z" />
    <glyph glyph-name="oslash" unicode="&#xf8;" horiz-adv-x="513" 
d="M464 422q27 -48 27 -117q0 -93 -31.5 -164.5t-91 -112t-142.5 -40.5q-74 0 -123 32l-79 -87q-30 35 -34 73l61 68q-29 50 -29 121q0 91 31 163t91 112.5t143 40.5q75 0 125 -33l77 86q11 -18 20.5 -41t10.5 -39zM142 176l195 218q-23 14 -56 14q-49 0 -80.5 -29.5
t-46 -76.5t-14.5 -99q0 -11 2 -27zM372 320l-193 -215q22 -14 53 -14q49 0 80.5 30t46 77.5t14.5 99.5q0 15 -1 22z" />
    <glyph glyph-name="oslashacute" unicode="&#x1ff;" horiz-adv-x="513" 
d="M464 422q27 -48 27 -117q0 -93 -31.5 -164.5t-91 -112t-142.5 -40.5q-74 0 -123 32l-79 -87q-30 35 -34 73l61 68q-29 50 -29 121q0 91 31 163t91 112.5t143 40.5q75 0 125 -33l77 86q11 -18 20.5 -41t10.5 -39zM142 176l195 218q-23 14 -56 14q-49 0 -80.5 -29.5
t-46 -76.5t-14.5 -99q0 -11 2 -27zM372 320l-193 -215q22 -14 53 -14q49 0 80.5 30t46 77.5t14.5 99.5q0 15 -1 22zM274 719q29 10 71 15.5t74 5.5q-15 -43 -45.5 -80.5t-71 -60.5t-82.5 -26h-3z" />
    <glyph glyph-name="otilde" unicode="&#xf5;" horiz-adv-x="511" 
d="M114.5 13q-45.5 25 -69.5 71.5t-24 110.5q0 92 31 163.5t90.5 112t143.5 40.5q65 0 111 -25t69.5 -71t23.5 -110q0 -92 -31.5 -164t-91.5 -112.5t-142 -40.5q-65 0 -110.5 25zM306 121q30 30 44 77.5t14 99.5q0 110 -84 110q-46 0 -76 -29.5t-43.5 -76.5t-13.5 -99
q0 -112 84 -112q45 0 75 30zM333 593q-16 9 -39 26q-10 8 -19 14t-15 6q-9 0 -13 -5.5t-6 -18.5l-4 -29h-70l10 67q6 35 23.5 51t46.5 16q19 0 36 -9.5t38 -26.5q10 -8 19 -14t15 -6q9 0 13 5.5t6 19.5l4 29h70l-10 -67q-6 -35 -23.5 -51t-46.5 -16q-19 0 -35 9z" />
    <glyph glyph-name="oe" unicode="&#x153;" horiz-adv-x="816" 
d="M788.5 263.5q-6.5 -38.5 -13.5 -62.5h-301q0 -42 13 -66.5t38.5 -35t67.5 -10.5q76 0 161 35q-8 -55 -26 -107q-73 -29 -154 -29q-67 0 -110.5 22t-65.5 64q-33 -41 -78 -63.5t-99 -22.5q-63 0 -108 25t-68.5 71.5t-23.5 110.5q0 92 31 163.5t90.5 112t143.5 40.5
q57 0 96 -21t60 -61q31 39 72.5 60.5t91.5 21.5q62 0 104.5 -24t63.5 -65.5t21 -94.5q0 -25 -6.5 -63.5zM523.5 379q-28.5 -32 -40.5 -85h188q3 23 3 40q0 37 -19 57t-57 20q-46 0 -74.5 -32zM306 121q30 30 44 77.5t14 99.5q0 110 -84 110q-46 0 -76 -29.5t-43.5 -76.5
t-13.5 -99q0 -112 84 -112q45 0 75 30z" />
    <glyph glyph-name="p" unicode="p" horiz-adv-x="513" 
d="M438.5 462q52.5 -50 52.5 -146q0 -101 -30.5 -174.5t-92.5 -113.5t-155 -40q-40 0 -71 4l-29 -204h-126l98 691q72 19 119 26t89 7q93 0 145.5 -50zM299.5 120.5q33.5 29.5 48.5 77.5t15 107q0 52 -21 77.5t-69 25.5q-36 0 -74 -12l-43 -300q28 -5 59 -5q51 0 84.5 29.5z
" />
    <glyph glyph-name="thorn" unicode="&#xfe;" horiz-adv-x="514" 
d="M445.5 462.5q46.5 -48.5 46.5 -142.5q0 -102 -30.5 -176.5t-93 -115.5t-155.5 -41q-41 0 -72 4l-28 -203h-125l32 228l95 676q63 18 127 18l-31 -222q55 23 107 23q81 0 127.5 -48.5zM300 119.5q33 29.5 48 77.5t15 107q0 53 -18.5 78t-59.5 25q-43 0 -89 -22l-40 -290
q28 -5 59 -5q52 0 85 29.5z" />
    <glyph glyph-name="q" unicode="q" horiz-adv-x="513" 
d="M494 483l-98 -695h-126l38 269q-22 -34 -52.5 -51.5t-71.5 -17.5q-49 0 -85.5 21.5t-56.5 64t-20 104.5q0 101 31.5 175.5t94.5 116t156 41.5q102 0 189 -28h1zM317 128l39 275q-28 5 -58 5q-52 0 -85 -29.5t-48 -77.5t-15 -107q0 -52 18.5 -77.5t60.5 -25.5q49 0 88 37z
" />
    <glyph glyph-name="r" unicode="r" horiz-adv-x="339" 
d="M363 501q-9 -60 -25 -104q-36 6 -84 6q-28 0 -55 -4l-56 -399h-125l68 483q42 12 87 19t85 7q51 0 105 -8z" />
    <glyph glyph-name="racute" unicode="&#x155;" horiz-adv-x="339" 
d="M363 501q-9 -60 -25 -104q-36 6 -84 6q-28 0 -55 -4l-56 -399h-125l68 483q42 12 87 19t85 7q51 0 105 -8zM226 719q29 10 71 15.5t74 5.5q-15 -43 -45.5 -80.5t-71 -60.5t-82.5 -26h-3z" />
    <glyph glyph-name="rcaron" unicode="&#x159;" horiz-adv-x="339" 
d="M363 501q-9 -60 -25 -104q-36 6 -84 6q-28 0 -55 -4l-56 -399h-125l68 483q42 12 87 19t85 7q51 0 105 -8zM408 733l-105 -150q-20 -6 -55 -6q-32 0 -51 4l-66 152h41q20 -7 39 -24.5t45 -52.5q38 39 59 54.5t44 22.5h49z" />
    <glyph glyph-name="uni0157" unicode="&#x157;" horiz-adv-x="339" 
d="M363 501q-9 -60 -25 -104q-36 6 -84 6q-28 0 -55 -4l-56 -399h-125l68 483q42 12 87 19t85 7q51 0 105 -8zM-2 -164.5q7 38.5 14 86.5q36 10 62.5 14t58.5 4q-13 -60 -46 -108.5t-81 -78.5h-26q11 44 18 82.5z" />
    <glyph glyph-name="s" unicode="s" horiz-adv-x="417" 
d="M1 27q9 49 30 95q62 -35 130 -35q40 0 61 14t21 41q0 19 -11.5 31.5t-37.5 22.5l-40 14q-51 18 -79.5 50.5t-28.5 88.5q0 52 25 88.5t71 55t107 18.5q40 0 79.5 -7t73.5 -20q-9 -45 -27 -95q-30 11 -59 17t-62 6q-81 0 -81 -52q0 -34 55 -53l43 -16q54 -19 79.5 -51
t25.5 -84q0 -50 -26 -88t-73.5 -59t-110.5 -21q-97 0 -165 39z" />
    <glyph glyph-name="sacute" unicode="&#x15b;" horiz-adv-x="417" 
d="M1 27q9 49 30 95q62 -35 130 -35q40 0 61 14t21 41q0 19 -11.5 31.5t-37.5 22.5l-40 14q-51 18 -79.5 50.5t-28.5 88.5q0 52 25 88.5t71 55t107 18.5q40 0 79.5 -7t73.5 -20q-9 -45 -27 -95q-30 11 -59 17t-62 6q-81 0 -81 -52q0 -34 55 -53l43 -16q54 -19 79.5 -51
t25.5 -84q0 -50 -26 -88t-73.5 -59t-110.5 -21q-97 0 -165 39zM224 719q29 10 71 15.5t74 5.5q-15 -43 -45.5 -80.5t-71 -60.5t-82.5 -26h-3z" />
    <glyph glyph-name="scaron" unicode="&#x161;" horiz-adv-x="417" 
d="M1 27q9 49 30 95q62 -35 130 -35q40 0 61 14t21 41q0 19 -11.5 31.5t-37.5 22.5l-40 14q-51 18 -79.5 50.5t-28.5 88.5q0 52 25 88.5t71 55t107 18.5q40 0 79.5 -7t73.5 -20q-9 -45 -27 -95q-30 11 -59 17t-62 6q-81 0 -81 -52q0 -34 55 -53l43 -16q54 -19 79.5 -51
t25.5 -84q0 -50 -26 -88t-73.5 -59t-110.5 -21q-97 0 -165 39zM420 733l-110 -150q-28 -6 -62 -6q-14 0 -29.5 1.5t-29.5 3.5l-71 151h61q14 -8 23 -14.5t22.5 -21t32.5 -39.5q37 38 58.5 52.5t45.5 22.5h59z" />
    <glyph glyph-name="scedilla" unicode="&#x15f;" horiz-adv-x="417" 
d="M350.5 240q25.5 -32 25.5 -84q0 -45 -21 -80.5t-59.5 -57.5t-91.5 -28l-17 -36q34 -10 50 -29t16 -48q0 -47 -32.5 -72t-84.5 -25q-20 0 -41 4t-36 10q3 32 20 61q25 -9 47 -9t33.5 8t11.5 22q0 16 -18 24t-57 9l36 80q-77 7 -131 38q9 49 30 95q62 -35 130 -35
q40 0 61 14t21 41q0 19 -11.5 31.5t-37.5 22.5l-40 14q-51 18 -79.5 50.5t-28.5 88.5q0 52 25 88.5t71 55t107 18.5q40 0 79.5 -7t73.5 -20q-9 -45 -27 -95q-30 11 -59 17t-62 6q-81 0 -81 -52q0 -34 55 -53l43 -16q54 -19 79.5 -51z" />
    <glyph glyph-name="scircumflex" unicode="&#x15d;" horiz-adv-x="417" 
d="M1 27q9 49 30 95q62 -35 130 -35q40 0 61 14t21 41q0 19 -11.5 31.5t-37.5 22.5l-40 14q-51 18 -79.5 50.5t-28.5 88.5q0 52 25 88.5t71 55t107 18.5q40 0 79.5 -7t73.5 -20q-9 -45 -27 -95q-30 11 -59 17t-62 6q-81 0 -81 -52q0 -34 55 -53l43 -16q54 -19 79.5 -51
t25.5 -84q0 -50 -26 -88t-73.5 -59t-110.5 -21q-97 0 -165 39zM408 580h-61q-19 10 -34.5 24t-43.5 50q-37 -37 -58.5 -51.5t-45.5 -22.5h-59l110 150q24 5 62 5t59 -5z" />
    <glyph glyph-name="uni0219" unicode="&#x219;" horiz-adv-x="417" 
d="M1 27q9 49 30 95q62 -35 130 -35q40 0 61 14t21 41q0 19 -11.5 31.5t-37.5 22.5l-40 14q-51 18 -79.5 50.5t-28.5 88.5q0 52 25 88.5t71 55t107 18.5q40 0 79.5 -7t73.5 -20q-9 -45 -27 -95q-30 11 -59 17t-62 6q-81 0 -81 -52q0 -34 55 -53l43 -16q54 -19 79.5 -51
t25.5 -84q0 -50 -26 -88t-73.5 -59t-110.5 -21q-97 0 -165 39zM91 -164.5q7 38.5 14 86.5q36 10 62.5 14t58.5 4q-13 -60 -46 -108.5t-81 -78.5h-26q11 44 18 82.5z" />
    <glyph glyph-name="germandbls" unicode="&#xdf;" horiz-adv-x="545" 
d="M490.5 315q23.5 -39 23.5 -96q0 -66 -24.5 -118t-74 -82t-120.5 -30q-28 0 -55 4.5t-43 11.5q6 48 26 100q25 -9 56 -9q52 0 77.5 32.5t25.5 92.5q0 93 -103 93h-23l14 101h19q54 0 82 30t28 81q0 35 -20.5 56t-59.5 21q-48 0 -73.5 -28t-33.5 -84l-69 -491h-125l70 503
q14 99 73 153t165 54q61 0 106 -22t69.5 -62t24.5 -91q0 -56 -27 -98.5t-77 -63.5q45 -19 68.5 -58z" />
    <glyph glyph-name="longs" unicode="&#x17f;" horiz-adv-x="311" 
d="M92 528q13 90 61.5 136t141.5 46q52 0 95 -12q-3 -22 -10.5 -50t-15.5 -48q-29 8 -60 8q-40 0 -60.5 -19.5t-26.5 -62.5l-74 -526h-125z" />
    <glyph glyph-name="t" unicode="t" horiz-adv-x="334" 
d="M161 163q-2 -14 -2 -20q0 -26 12.5 -38t36.5 -12q18 0 38.5 4.5t35.5 11.5q-10 -64 -32 -108q-38 -13 -86 -13q-65 0 -98.5 33t-33.5 96q0 20 3 42l67 478q61 17 128 17l-22 -155h135q-5 -29 -11 -51.5t-17 -49.5h-121z" />
    <glyph glyph-name="tbar" unicode="&#x167;" horiz-adv-x="334" 
d="M194 398l-12 -84h117q-4 -19 -9.5 -40.5t-12.5 -38.5h-106l-10 -72q-2 -14 -2 -20q0 -26 12.5 -38t36.5 -12q18 0 38.5 4.5t35.5 11.5q-10 -64 -32 -108q-38 -13 -86 -13q-65 0 -98.5 33t-33.5 96q0 20 3 42l11 76h-72q5 37 21 79h62l45 323q61 17 128 17l-22 -155h135
q-5 -29 -11 -51.5t-17 -49.5h-121z" />
    <glyph glyph-name="tcaron" unicode="&#x165;" horiz-adv-x="334" 
d="M388 696.5q27 3.5 60 3.5q-13 -57 -46.5 -103t-81.5 -75h-26q11 41 18.5 77.5t14.5 84.5q34 9 61 12.5zM208 499h135q-5 -29 -11 -51.5t-17 -49.5h-121l-33 -235q-2 -14 -2 -20q0 -26 12.5 -38t36.5 -12q18 0 38.5 4.5t35.5 11.5q-10 -64 -32 -108q-38 -13 -86 -13
q-65 0 -98.5 33t-33.5 96q0 20 3 42l67 478q61 17 128 17z" />
    <glyph glyph-name="uni0163" unicode="&#x163;" horiz-adv-x="334" 
d="M161 163q-2 -14 -2 -20q0 -26 12.5 -38t36.5 -12q18 0 38.5 4.5t35.5 11.5q-10 -64 -32 -108q-31 -11 -72 -13l-16 -34q65 -19 65 -77q0 -47 -32.5 -72t-84.5 -25q-20 0 -41 4t-36 10q6 36 20 61q25 -9 47 -9t33.5 8t11.5 22q0 16 -18 24t-57 9l39 86q-77 26 -77 122
q0 20 3 42l67 478q61 17 128 17l-22 -155h135q-5 -29 -11 -51.5t-17 -49.5h-121z" />
    <glyph glyph-name="uni021B" unicode="&#x21b;" horiz-adv-x="334" 
d="M161 163q-2 -14 -2 -20q0 -26 12.5 -38t36.5 -12q18 0 38.5 4.5t35.5 11.5q-10 -64 -32 -108q-38 -13 -86 -13q-65 0 -98.5 33t-33.5 96q0 20 3 42l67 478q61 17 128 17l-22 -155h135q-5 -29 -11 -51.5t-17 -49.5h-121zM65 -164.5q7 38.5 14 86.5q36 10 62.5 14t58.5 4
q-13 -60 -46 -108.5t-81 -78.5h-26q11 44 18 82.5z" />
    <glyph glyph-name="u" unicode="u" horiz-adv-x="509" 
d="M492 499l-68 -479q-107 -32 -198 -32q-104 0 -148.5 37t-44.5 105q0 18 3 39l47 330h125l-45 -316q-2 -20 -2 -28q0 -33 17.5 -49t59.5 -16q32 0 72 7l57 402h125z" />
    <glyph glyph-name="uacute" unicode="&#xfa;" horiz-adv-x="509" 
d="M492 499l-68 -479q-107 -32 -198 -32q-104 0 -148.5 37t-44.5 105q0 18 3 39l47 330h125l-45 -316q-2 -20 -2 -28q0 -33 17.5 -49t59.5 -16q32 0 72 7l57 402h125zM271 719q29 10 71 15.5t74 5.5q-15 -43 -45.5 -80.5t-71 -60.5t-82.5 -26h-3z" />
    <glyph glyph-name="ubreve" unicode="&#x16d;" horiz-adv-x="509" 
d="M492 499l-68 -479q-107 -32 -198 -32q-104 0 -148.5 37t-44.5 105q0 18 3 39l47 330h125l-45 -316q-2 -20 -2 -28q0 -33 17.5 -49t59.5 -16q32 0 72 7l57 402h125zM196.5 613.5q-34.5 40.5 -36.5 100.5q19 4 43.5 6.5t45.5 2.5q3 -31 16.5 -48.5t40.5 -17.5
q28 0 46.5 17.5t28.5 48.5q22 0 46 -2.5t41 -6.5q-19 -64 -56.5 -102.5t-107.5 -38.5q-73 0 -107.5 40.5z" />
    <glyph glyph-name="ucircumflex" unicode="&#xfb;" horiz-adv-x="509" 
d="M492 499l-68 -479q-107 -32 -198 -32q-104 0 -148.5 37t-44.5 105q0 18 3 39l47 330h125l-45 -316q-2 -20 -2 -28q0 -33 17.5 -49t59.5 -16q32 0 72 7l57 402h125zM455 580h-61q-19 10 -34.5 24t-43.5 50q-37 -37 -58.5 -51.5t-45.5 -22.5h-59l110 150q24 5 62 5t59 -5z
" />
    <glyph glyph-name="udieresis" unicode="&#xfc;" horiz-adv-x="509" 
d="M492 499l-68 -479q-107 -32 -198 -32q-104 0 -148.5 37t-44.5 105q0 18 3 39l47 330h125l-45 -316q-2 -20 -2 -28q0 -33 17.5 -49t59.5 -16q32 0 72 7l57 402h125zM167.5 607q-19.5 20 -19.5 50q0 31 19 50.5t50 19.5q30 0 49.5 -19.5t19.5 -50.5t-19.5 -50.5
t-49.5 -19.5t-49.5 20zM362.5 606q-19.5 20 -19.5 50q0 31 19.5 51t50.5 20q29 0 48.5 -20t19.5 -51q0 -30 -19.5 -50t-48.5 -20q-31 0 -50.5 20z" />
    <glyph glyph-name="ugrave" unicode="&#xf9;" horiz-adv-x="509" 
d="M492 499l-68 -479q-107 -32 -198 -32q-104 0 -148.5 37t-44.5 105q0 18 3 39l47 330h125l-45 -316q-2 -20 -2 -28q0 -33 17.5 -49t59.5 -16q32 0 72 7l57 402h125zM374 573q-42 3 -82.5 26t-71 60.5t-45.5 80.5q32 0 74 -5.5t71 -15.5l56 -146h-2z" />
    <glyph glyph-name="uhungarumlaut" unicode="&#x171;" horiz-adv-x="509" 
d="M492 499l-68 -479q-107 -32 -198 -32q-104 0 -148.5 37t-44.5 105q0 18 3 39l47 330h125l-45 -316q-2 -20 -2 -28q0 -33 17.5 -49t59.5 -16q32 0 72 7l57 402h125zM240 720q23 8 61.5 12t70.5 4q-90 -163 -205 -165h-7zM406 720q22 8 59.5 11.5t70.5 3.5
q-46 -86 -99 -124.5t-106 -39.5h-6z" />
    <glyph glyph-name="umacron" unicode="&#x16b;" horiz-adv-x="509" 
d="M492 499l-68 -479q-107 -32 -198 -32q-104 0 -148.5 37t-44.5 105q0 18 3 39l47 330h125l-45 -316q-2 -20 -2 -28q0 -33 17.5 -49t59.5 -16q32 0 72 7l57 402h125zM176 654.5q6 23.5 14 46.5h273q-5 -26 -10 -45.5t-15 -47.5h-272q4 23 10 46.5z" />
    <glyph glyph-name="uogonek" unicode="&#x173;" horiz-adv-x="509" 
d="M331.5 -37q-17.5 -28 -17.5 -54q0 -37 41 -37q12 0 23.5 3.5t20.5 6.5q-3 -21 -8 -40t-14 -44q-22 -9 -62 -9q-47 0 -75.5 24.5t-28.5 72.5q0 28 13 54t40 49q-12 -1 -38 -1q-104 0 -148.5 37t-44.5 105q0 18 3 39l47 330h125l-45 -316q-2 -20 -2 -28q0 -33 17.5 -49
t59.5 -16q32 0 72 7l57 402h125l-68 -479q-20 -6 -47 -13q-28 -16 -45.5 -44z" />
    <glyph glyph-name="uring" unicode="&#x16f;" horiz-adv-x="509" 
d="M492 499l-68 -479q-107 -32 -198 -32q-104 0 -148.5 37t-44.5 105q0 18 3 39l47 330h125l-45 -316q-2 -20 -2 -28q0 -33 17.5 -49t59.5 -16q32 0 72 7l57 402h125zM253.5 574q-27.5 14 -43.5 40t-16 59q0 34 16 60t43.5 40t61.5 14t61.5 -14t43 -40t15.5 -60
q0 -33 -15.5 -59t-43 -40t-61.5 -14t-61.5 14zM348.5 637q12.5 14 12.5 36q0 23 -12.5 37t-33.5 14q-22 0 -34.5 -14t-12.5 -37q0 -22 13 -36t34 -14t33.5 14z" />
    <glyph glyph-name="utilde" unicode="&#x169;" horiz-adv-x="509" 
d="M492 499l-68 -479q-107 -32 -198 -32q-104 0 -148.5 37t-44.5 105q0 18 3 39l47 330h125l-45 -316q-2 -20 -2 -28q0 -33 17.5 -49t59.5 -16q32 0 72 7l57 402h125zM339 593q-16 9 -39 26q-10 8 -19 14t-15 6q-9 0 -13 -5.5t-6 -18.5l-4 -29h-70l10 67q6 35 23.5 51
t46.5 16q19 0 36 -9.5t38 -26.5q10 -8 19 -14t15 -6q9 0 13 5.5t6 19.5l4 29h70l-10 -67q-6 -35 -23.5 -51t-46.5 -16q-19 0 -35 9z" />
    <glyph glyph-name="v" unicode="v" horiz-adv-x="460" 
d="M496 499l-239 -499h-123l-98 499h129l49 -365l149 365h133z" />
    <glyph glyph-name="w" unicode="w" horiz-adv-x="754" 
d="M784 499l-219 -499h-123l-50 338l-147 -338h-117l-87 499h125l39 -359l144 359h123l51 -362l132 362h129z" />
    <glyph glyph-name="wacute" unicode="&#x1e83;" horiz-adv-x="754" 
d="M784 499l-219 -499h-123l-50 338l-147 -338h-117l-87 499h125l39 -359l144 359h123l51 -362l132 362h129zM389 719q29 10 71 15.5t74 5.5q-15 -43 -45.5 -80.5t-71 -60.5t-82.5 -26h-3z" />
    <glyph glyph-name="wcircumflex" unicode="&#x175;" horiz-adv-x="754" 
d="M784 499l-219 -499h-123l-50 338l-147 -338h-117l-87 499h125l39 -359l144 359h123l51 -362l132 362h129zM573 580h-61q-19 10 -34.5 24t-43.5 50q-37 -37 -58.5 -51.5t-45.5 -22.5h-59l110 150q24 5 62 5t59 -5z" />
    <glyph glyph-name="wdieresis" unicode="&#x1e85;" horiz-adv-x="754" 
d="M784 499l-219 -499h-123l-50 338l-147 -338h-117l-87 499h125l39 -359l144 359h123l51 -362l132 362h129zM285.5 607q-19.5 20 -19.5 50q0 31 19 50.5t50 19.5q30 0 49.5 -19.5t19.5 -50.5t-19.5 -50.5t-49.5 -19.5t-49.5 20zM480.5 606q-19.5 20 -19.5 50q0 31 19.5 51
t50.5 20q29 0 48.5 -20t19.5 -51q0 -30 -19.5 -50t-48.5 -20q-31 0 -50.5 20z" />
    <glyph glyph-name="wgrave" unicode="&#x1e81;" horiz-adv-x="754" 
d="M784 499l-219 -499h-123l-50 338l-147 -338h-117l-87 499h125l39 -359l144 359h123l51 -362l132 362h129zM492 573q-42 3 -82.5 26t-71 60.5t-45.5 80.5q32 0 74 -5.5t71 -15.5l56 -146h-2z" />
    <glyph glyph-name="x" unicode="x" horiz-adv-x="459" 
d="M294 252l133 -252h-135l-73 154l-113 -154h-143l198 249l-127 250h137l68 -151l113 151h140z" />
    <glyph glyph-name="y" unicode="y" horiz-adv-x="476" 
d="M511 499l-245 -544q-39 -85 -91 -132t-133 -47q-19 0 -37 3t-31 8q10 58 27 99q20 -4 40 -4q36 0 62 19.5t49 70.5l-116 527h124l65 -377l157 377h129z" />
    <glyph glyph-name="yacute" unicode="&#xfd;" horiz-adv-x="476" 
d="M511 499l-245 -544q-39 -85 -91 -132t-133 -47q-19 0 -37 3t-31 8q10 58 27 99q20 -4 40 -4q36 0 62 19.5t49 70.5l-116 527h124l65 -377l157 377h129zM254 719q29 10 71 15.5t74 5.5q-15 -43 -45.5 -80.5t-71 -60.5t-82.5 -26h-3z" />
    <glyph glyph-name="ycircumflex" unicode="&#x177;" horiz-adv-x="476" 
d="M511 499l-245 -544q-39 -85 -91 -132t-133 -47q-19 0 -37 3t-31 8q10 58 27 99q20 -4 40 -4q36 0 62 19.5t49 70.5l-116 527h124l65 -377l157 377h129zM438 580h-61q-19 10 -34.5 24t-43.5 50q-37 -37 -58.5 -51.5t-45.5 -22.5h-59l110 150q24 5 62 5t59 -5z" />
    <glyph glyph-name="ydieresis" unicode="&#xff;" horiz-adv-x="476" 
d="M511 499l-245 -544q-39 -85 -91 -132t-133 -47q-19 0 -37 3t-31 8q10 58 27 99q20 -4 40 -4q36 0 62 19.5t49 70.5l-116 527h124l65 -377l157 377h129zM150.5 607q-19.5 20 -19.5 50q0 31 19 50.5t50 19.5q30 0 49.5 -19.5t19.5 -50.5t-19.5 -50.5t-49.5 -19.5t-49.5 20z
M345.5 606q-19.5 20 -19.5 50q0 31 19.5 51t50.5 20q29 0 48.5 -20t19.5 -51q0 -30 -19.5 -50t-48.5 -20q-31 0 -50.5 20z" />
    <glyph glyph-name="ygrave" unicode="&#x1ef3;" horiz-adv-x="476" 
d="M511 499l-245 -544q-39 -85 -91 -132t-133 -47q-19 0 -37 3t-31 8q10 58 27 99q20 -4 40 -4q36 0 62 19.5t49 70.5l-116 527h124l65 -377l157 377h129zM357 573q-42 3 -82.5 26t-71 60.5t-45.5 80.5q32 0 74 -5.5t71 -15.5l56 -146h-2z" />
    <glyph glyph-name="z" unicode="z" horiz-adv-x="441" 
d="M429 464q-5 -20 -12 -38l-249 -322h221q-3 -25 -10.5 -53t-17.5 -51h-369q1 33 15 75l248 320h-206q12 61 29 104h357q-1 -15 -6 -35z" />
    <glyph glyph-name="zacute" unicode="&#x17a;" horiz-adv-x="441" 
d="M429 464q-5 -20 -12 -38l-249 -322h221q-3 -25 -10.5 -53t-17.5 -51h-369q1 33 15 75l248 320h-206q12 61 29 104h357q-1 -15 -6 -35zM231 719q29 10 71 15.5t74 5.5q-15 -43 -45.5 -80.5t-71 -60.5t-82.5 -26h-3z" />
    <glyph glyph-name="zcaron" unicode="&#x17e;" horiz-adv-x="441" 
d="M429 464q-5 -20 -12 -38l-249 -322h221q-3 -25 -10.5 -53t-17.5 -51h-369q1 33 15 75l248 320h-206q12 61 29 104h357q-1 -15 -6 -35zM426 733l-110 -150q-28 -6 -62 -6q-14 0 -29.5 1.5t-29.5 3.5l-71 151h61q14 -8 23 -14.5t22.5 -21t32.5 -39.5q37 38 58.5 52.5
t45.5 22.5h59z" />
    <glyph glyph-name="zdotaccent" unicode="&#x17c;" horiz-adv-x="441" 
d="M429 464q-5 -20 -12 -38l-249 -322h221q-3 -25 -10.5 -53t-17.5 -51h-369q1 33 15 75l248 320h-206q12 61 29 104h357q-1 -15 -6 -35zM221.5 603q-21.5 21 -21.5 54t21.5 54t53.5 21t53 -21t21 -54q0 -32 -21 -53.5t-53 -21.5t-53.5 21z" />
    <glyph glyph-name="f_b.dlig" horiz-adv-x="820" 
d="M213 499h112q-5 -25 -11.5 -51.5t-14.5 -49.5h-100l-56 -398h-125l74 528q12 87 62.5 134.5t135.5 47.5q24 0 43.5 -2.5t40.5 -8.5q-14 -68 -25 -99q-27 8 -54 8q-33 0 -53 -19.5t-25 -58.5zM751.5 462.5q46.5 -48.5 46.5 -142.5q0 -102 -30.5 -176.5t-93 -115.5
t-155.5 -41q-52 0 -101.5 8t-91.5 21l95 676q65 18 128 18l-31 -222q55 23 106 23q81 0 127.5 -48.5zM606 119.5q33 29.5 48 77.5t15 107q0 53 -18.5 78t-59.5 25q-44 0 -88 -22l-41 -290q28 -5 59 -5q52 0 85 29.5z" />
    <glyph glyph-name="f_f_b.dlig" horiz-adv-x="1112" 
d="M505 499h112q-5 -25 -11.5 -51.5t-14.5 -49.5h-100l-56 -398h-125l56 398h-167l-56 -398h-125l74 528q25 182 196 182q50 0 90 -14q-7 -44 -25 -97q-27 9 -55 9q-71 0 -81 -78l-4 -31h167l4 29q12 87 62.5 134.5t135.5 47.5q24 0 43.5 -2.5t40.5 -8.5q-14 -68 -25 -99
q-27 8 -54 8q-33 0 -53 -19.5t-25 -58.5zM1043.5 462.5q46.5 -48.5 46.5 -142.5q0 -102 -30.5 -176.5t-93 -115.5t-155.5 -41q-52 0 -101.5 8t-91.5 21l95 676q65 18 128 18l-31 -222q55 23 106 23q81 0 127.5 -48.5zM898 119.5q33 29.5 48 77.5t15 107q0 53 -18.5 78
t-59.5 25q-44 0 -88 -22l-41 -290q28 -5 59 -5q52 0 85 29.5z" />
    <glyph glyph-name="f_f_h.dlig" horiz-adv-x="1107" 
d="M605.5 447.5q-6.5 -26.5 -14.5 -49.5h-100l-56 -398h-125l56 398h-167l-56 -398h-125l74 528q25 182 196 182q50 0 90 -14q-7 -44 -25 -97q-27 9 -55 9q-71 0 -81 -78l-4 -31h167l4 29q12 87 62.5 134.5t135.5 47.5q24 0 43.5 -2.5t40.5 -8.5q-14 -68 -25 -99
q-27 8 -54 8q-33 0 -53 -19.5t-25 -58.5l-4 -31h112q-5 -25 -11.5 -51.5zM1029.5 474q44.5 -37 44.5 -105q0 -18 -3 -39l-46 -330h-126l45 316q2 20 2 28q0 34 -17.5 50t-59.5 16q-34 0 -71 -8l-57 -402h-125l97 692q63 18 128 18l-29 -207q37 8 71 8q102 0 146.5 -37z" />
    <glyph glyph-name="f_f_j.dlig" horiz-adv-x="829" 
d="M824.5 711q20.5 -21 20.5 -54q0 -32 -21 -53.5t-52 -21.5q-33 0 -54 21t-21 54t21 54t54 21q32 0 52.5 -21zM491 398l-56 -398h-124l55 398h-167l-56 -398h-125l74 528q25 182 196 182q50 0 90 -14q-7 -44 -25 -97q-27 9 -55 9q-71 0 -81 -78l-4 -31h167l4 29
q12 87 62.5 134.5t136.5 47.5q44 0 83 -11q-10 -54 -24 -99q-29 8 -55 8q-32 0 -52.5 -19.5t-25.5 -58.5l-4 -31h112q-11 -61 -26 -101h-100zM687 499h125l-79 -553q-12 -87 -52 -130t-117 -43q-38 0 -78 11q9 52 27 98q15 -4 35 -4q27 0 41.5 14.5t18.5 47.5z" />
    <glyph glyph-name="f_f_k.dlig" horiz-adv-x="1073" 
d="M605.5 447.5q-6.5 -26.5 -14.5 -49.5h-100l-56 -398h-125l56 398h-167l-56 -398h-125l74 528q25 182 196 182q50 0 90 -14q-7 -44 -25 -97q-27 9 -55 9q-71 0 -81 -78l-4 -31h167l4 29q12 87 62.5 134.5t135.5 47.5q24 0 43.5 -2.5t40.5 -8.5q-14 -68 -25 -99
q-27 8 -54 8q-33 0 -53 -19.5t-25 -58.5l-4 -31h112q-5 -25 -11.5 -51.5zM907 267l135 -267h-141l-123 262l-37 -262h-125l97 692q63 18 128 18l-61 -433l175 222h140z" />
    <glyph glyph-name="f_h.dlig" horiz-adv-x="815" 
d="M313.5 447.5q-6.5 -26.5 -14.5 -49.5h-100l-56 -398h-125l74 528q12 87 62.5 134.5t135.5 47.5q24 0 43.5 -2.5t40.5 -8.5q-14 -68 -25 -99q-27 8 -54 8q-33 0 -53 -19.5t-25 -58.5l-4 -31h112q-5 -25 -11.5 -51.5zM737.5 474q44.5 -37 44.5 -105q0 -18 -3 -39l-46 -330
h-126l45 316q2 20 2 28q0 34 -17.5 50t-59.5 16q-34 0 -71 -8l-57 -402h-125l97 692q63 18 128 18l-29 -207q37 8 71 8q102 0 146.5 -37z" />
    <glyph glyph-name="f_j.dlig" horiz-adv-x="537" 
d="M531.5 711q20.5 -21 20.5 -54q0 -32 -21 -53.5t-52 -21.5q-33 0 -54 21t-21 54t21 54t54 21q32 0 52.5 -21zM199 398l-56 -398h-125l74 528q12 87 62.5 134.5t135.5 47.5q24 0 43.5 -2.5t40.5 -8.5q-14 -68 -25 -99q-27 8 -54 8q-33 0 -53 -19.5t-25 -58.5l-4 -31h112
q-5 -25 -11.5 -51.5t-14.5 -49.5h-100zM394 499h125l-79 -553q-12 -87 -51.5 -130t-117.5 -43q-39 0 -77 11q10 57 26 98q16 -4 35 -4q27 0 41.5 14.5t19.5 47.5z" />
    <glyph glyph-name="f_k.dlig" horiz-adv-x="781" 
d="M313.5 447.5q-6.5 -26.5 -14.5 -49.5h-100l-56 -398h-125l74 528q12 87 62.5 134.5t135.5 47.5q24 0 43.5 -2.5t40.5 -8.5q-14 -68 -25 -99q-27 8 -54 8q-33 0 -53 -19.5t-25 -58.5l-4 -31h112q-5 -25 -11.5 -51.5zM615 267l135 -267h-141l-123 262l-37 -262h-125l97 692
q63 18 128 18l-61 -433l175 222h140z" />
    <glyph glyph-name="t_f.dlig" horiz-adv-x="631" 
d="M161 163q-2 -14 -2 -20q0 -26 12.5 -38t36.5 -12q18 0 38.5 4.5t35.5 11.5q-10 -64 -32 -108q-38 -13 -86 -13q-65 0 -98.5 33t-33.5 96q0 20 3 42l67 478q61 17 128 17l-22 -155h135q-5 -29 -11 -51.5t-17 -49.5h-121zM553.5 588.5q-20.5 -19.5 -26.5 -62.5l-4 -27h138
q-8 -44 -26 -101h-126l-56 -398h-125l74 528q13 90 61.5 136t141.5 46q50 0 95 -12q-4 -22 -11 -50t-15 -48q-30 8 -60 8q-40 0 -60.5 -19.5z" />
    <glyph glyph-name="t_t.dlig" horiz-adv-x="651" 
d="M161 163q-2 -14 -2 -20q0 -26 12.5 -38t36.5 -12q18 0 38.5 4.5t35.5 11.5q-10 -64 -32 -108q-38 -13 -86 -13q-65 0 -98.5 33t-33.5 96q0 20 3 42l67 478q61 17 128 17l-22 -155h135q-5 -29 -11 -51.5t-17 -49.5h-121zM478 163q-2 -14 -2 -20q0 -26 12.5 -38t36.5 -12
q18 0 38.5 4.5t35.5 11.5q-10 -64 -32 -108q-38 -13 -86 -13q-65 0 -98.5 33t-33.5 96q0 20 3 42l67 478q61 17 128 17l-22 -155h135q-5 -29 -11 -51.5t-17 -49.5h-121z" />
    <glyph glyph-name="ordfeminine" unicode="&#xaa;" horiz-adv-x="381" 
d="M337 694.5q33 -5.5 71 -16.5l-55 -387h-100v35q-17 -23 -38 -34t-49 -11q-35 0 -62 18.5t-42.5 52.5t-15.5 80q0 84 27.5 144.5t77 92t113.5 31.5q40 0 73 -5.5zM232.5 371q13.5 7 24.5 21l31 224q-13 3 -29 3q-29 0 -52 -21t-36.5 -61t-13.5 -94q0 -38 10 -58.5
t34 -20.5q18 0 31.5 7z" />
    <glyph glyph-name="ordmasculine" unicode="&#xba;" horiz-adv-x="391" 
d="M88 326q-41 44 -41 123q0 72 24.5 129.5t71 90.5t111.5 33q76 0 117 -44.5t41 -124.5q0 -72 -24.5 -129t-71.5 -89.5t-111 -32.5q-76 0 -117 44zM261.5 401q19.5 24 28.5 59.5t9 72.5q0 39 -12.5 56.5t-38.5 17.5q-31 0 -50.5 -23.5t-28 -59t-8.5 -72.5q0 -39 12 -57
t38 -18q31 0 50.5 24z" />
    <glyph glyph-name="uni207F" unicode="&#x207f;" horiz-adv-x="407" 
d="M375.5 670q33.5 -32 33.5 -91q0 -22 -2 -34l-36 -254h-111l36 251q2 18 2 25q0 21 -9 31.5t-32 10.5q-24 0 -55 -9l-44 -309h-110l52 377q56 19 94.5 26.5t77.5 7.5q70 0 103.5 -32z" />
    <glyph glyph-name="uni0394" unicode="&#x394;" 
d="M507 0h-533l283 682q78 16 151 16zM366 108l-48 441l-178 -441h226z" />
    <glyph glyph-name="uni0394" unicode="&#x3b4;" 
d="M507 0h-533l283 682q78 16 151 16zM366 108l-48 441l-178 -441h226z" />
    <glyph glyph-name="uni03A9" unicode="&#x3a9;" 
d="M373 112h123q-3 -26 -9.5 -57.5t-15.5 -54.5h-199l1 8l2 13l12 91l8 54q44 14 71.5 58.5t39.5 102.5t12 116q0 81 -24 118t-69 37q-51 0 -85.5 -44t-50.5 -109.5t-16 -129.5q0 -70 15.5 -103t47.5 -45l-8 -55h1l-16 -112h-214q1 23 8.5 57t15.5 55h122l1 7q-44 32 -68 84
t-24 133q0 98 33 183.5t97 137.5t153 52q65 0 111 -30t70 -86.5t24 -135.5q0 -67 -19 -134.5t-57.5 -123t-92.5 -85.5v-2z" />
    <glyph glyph-name="uni03A9" unicode="&#x3c9;" 
d="M373 112h123q-3 -26 -9.5 -57.5t-15.5 -54.5h-199l1 8l2 13l12 91l8 54q44 14 71.5 58.5t39.5 102.5t12 116q0 81 -24 118t-69 37q-51 0 -85.5 -44t-50.5 -109.5t-16 -129.5q0 -70 15.5 -103t47.5 -45l-8 -55h1l-16 -112h-214q1 23 8.5 57t15.5 55h122l1 7q-44 32 -68 84
t-24 133q0 98 33 183.5t97 137.5t153 52q65 0 111 -30t70 -86.5t24 -135.5q0 -67 -19 -134.5t-57.5 -123t-92.5 -85.5v-2z" />
    <glyph glyph-name="uni03BC" unicode="&#x3bc;" 
d="M501 499l-67 -479q-107 -32 -198 -32q-66 0 -107 15q2 -104 -8 -170l-7 -45h-122l51 363l2 18l47 330h125l-44 -316q-2 -20 -2 -28q0 -33 17.5 -49t59.5 -16q30 0 72 7l56 402h125z" />
    <glyph glyph-name="pi" unicode="&#x3c0;" 
d="M434 134q-1 -4 -1 -11q0 -16 8.5 -24t25.5 -8q20 0 36 6q-3 -22 -10.5 -50t-16.5 -50q-33 -9 -75 -9q-47 0 -71.5 26.5t-24.5 72.5q0 7 2 25l40 288h-125l-56 -400h-123l56 400h-66q6 50 24 99h510q-10 -57 -26 -99h-69z" />
    <glyph glyph-name="uni2099" unicode="&#x2099;" horiz-adv-x="407" 
d="M304.5 167q33.5 -32 33.5 -91q0 -22 -2 -34l-36 -254h-111l36 251q2 18 2 25q0 21 -9 31.5t-32 10.5q-24 0 -55 -9l-44 -309h-110l52 377q56 19 94.5 26.5t77.5 7.5q70 0 103.5 -32z" />
    <glyph glyph-name="zero" unicode="0" 
d="M45 221q0 134 30 244t95 177.5t165 67.5q99 0 148 -57.5t49 -177.5q0 -133 -29.5 -244.5t-94.5 -179.5t-165 -68q-198 0 -198 238zM344 160.5q34 63.5 51 189.5q10 85 10 131q0 63 -17.5 89t-57.5 26q-62 0 -96 -65t-51 -192q-11 -79 -11 -130q0 -41 8 -65.5t24.5 -35.5
t43.5 -11q62 0 96 63.5z" />
    <glyph glyph-name="zero.pnum" horiz-adv-x="540" 
d="M89 41.5q-51 58.5 -51 179.5q0 134 29.5 244.5t94.5 177.5t166 67q100 0 150.5 -58.5t50.5 -181.5q0 -133 -29 -243t-93.5 -177t-165.5 -67t-152 58.5zM341.5 163q34.5 66 51.5 196q8 75 8 124q0 61 -18 87t-58 26q-62 0 -97.5 -65.5t-52.5 -192.5q-9 -75 -9 -131
q0 -60 18 -85t59 -25q64 0 98.5 66z" />
    <glyph glyph-name="one" unicode="1" 
d="M291.5 692.5q79.5 16.5 156.5 17.5l-96 -710h-128l82 581q-51 -10 -102.5 -23.5t-89.5 -27.5q5 64 22 119q76 27 155.5 43.5z" />
    <glyph glyph-name="one.pnum" horiz-adv-x="365" 
d="M208 691q70 15 136 19l-98 -710h-126l81 577q-79 -19 -150 -43q6 64 23 121q64 21 134 36z" />
    <glyph glyph-name="two" unicode="2" 
d="M220.5 181q-31.5 -30 -45.5 -69h285q-2 -23 -9.5 -56.5t-16.5 -55.5h-412l7 47q9 67 36.5 118t70 91.5t105.5 81.5q46 29 74.5 54t44.5 54t16 66q0 43 -27 63.5t-80 20.5q-70 0 -153 -30q5 64 23 116q32 13 71.5 20.5t81.5 7.5q107 0 161 -49.5t54 -138.5
q0 -86 -50.5 -149.5t-140.5 -120.5q-64 -41 -95.5 -71z" />
    <glyph glyph-name="two.pnum" horiz-adv-x="463" 
d="M181.5 180.5q-31.5 -29.5 -45.5 -68.5h285q-2 -25 -10 -58t-17 -54h-411l7 47q9 67 36.5 118t70 91.5t105.5 81.5q46 29 74.5 54t44 54t15.5 66q0 43 -26.5 63.5t-79.5 20.5q-66 0 -149 -30q5 64 23 116q32 13 70 20.5t79 7.5q107 0 161 -49.5t54 -138.5
q0 -86 -50.5 -150t-141.5 -121q-63 -41 -94.5 -70.5z" />
    <glyph glyph-name="three" unicode="3" 
d="M447.5 304q28.5 -37 28.5 -96q0 -74 -38.5 -124.5t-106 -75.5t-153.5 -25q-91 0 -160 24q3 42 25 107q54 -18 124 -18q81 0 131 28.5t50 86.5q0 48 -35 68t-110 20h-84l16 107h76q76 0 120 29t44 86q0 75 -123 75q-67 0 -142 -21q1 20 7 52.5t15 59.5q31 11 69 17t74 6
q108 0 167.5 -45.5t59.5 -131.5q0 -60 -36 -108t-99 -69q52 -15 80.5 -52z" />
    <glyph glyph-name="three.pnum" horiz-adv-x="461" 
d="M399.5 304q27.5 -37 27.5 -96q0 -74 -37.5 -124.5t-102.5 -75.5t-147 -25q-91 0 -158 24q1 24 8 52.5t17 54.5q54 -18 122 -18q75 0 122.5 28.5t47.5 86.5q0 48 -33.5 68t-105.5 20h-79l16 107h71q72 0 115 29t43 86q0 37 -27 56t-85 19q-62 0 -137 -21q1 20 7 52.5
t15 59.5q31 11 68 17t70 6q102 0 159 -45.5t57 -131.5q0 -60 -35.5 -108t-97.5 -69q52 -15 79.5 -52z" />
    <glyph glyph-name="four" unicode="4" 
d="M508 166h-77l-22 -166h-118l23 166h-290q3 33 7 58t12 54q55 100 142.5 211t183.5 207q35 4 67 5t68 1l-58 -429h91q-12 -66 -29 -107zM329 273l39 277q-124 -134 -211 -277h172z" />
    <glyph glyph-name="four.pnum" horiz-adv-x="532" 
d="M499 166h-80l-23 -166h-118l23 166h-297q3 33 7 58t12 54q54 98 143 208t190 210q35 4 67.5 5t68.5 1l-59 -429h95q-12 -66 -29 -107zM316 273l39 278q-134 -143 -216 -278h177z" />
    <glyph glyph-name="five" unicode="5" 
d="M267 579l-28 -133h16q65 0 114 -22.5t75.5 -67t26.5 -107.5q0 -87 -36.5 -146.5t-103 -89.5t-156.5 -30q-86 0 -153 23q2 26 8.5 51t17.5 56q50 -16 117 -16q80 0 128 38t48 111q0 48 -33 70.5t-97 22.5q-59 0 -121 -16l75 369h355q-3 -26 -10.5 -58.5t-15.5 -54.5h-227z
" />
    <glyph glyph-name="five.pnum" horiz-adv-x="476" 
d="M242 579l-28 -133h16q65 0 114 -22.5t75.5 -67t26.5 -107.5q0 -87 -36.5 -146.5t-103 -89.5t-156.5 -30q-86 0 -153 23q2 26 8.5 51t17.5 56q50 -16 117 -16q80 0 128 38t48 111q0 48 -33 70.5t-97 22.5q-59 0 -121 -16l75 369h355q-3 -26 -10.5 -58.5t-15.5 -54.5h-227z
" />
    <glyph glyph-name="six" unicode="6" 
d="M434.5 431q38.5 -22 60 -65t21.5 -106q0 -78 -31 -141t-89 -99.5t-137 -36.5q-101 0 -156 59.5t-55 176.5q0 59 5 112q12 113 53.5 198t115 133t178.5 48q42 0 76.5 -8.5t56.5 -21.5q0 -21 -5.5 -50.5t-14.5 -57.5q-19 12 -48 18.5t-59 6.5q-66 0 -110 -23.5t-70.5 -71
t-40.5 -122.5q28 36 69 54.5t90 18.5q52 0 90.5 -22zM328 118.5q29 22.5 43.5 60t14.5 80.5t-22.5 63.5t-62.5 20.5q-33 0 -65.5 -15.5t-61.5 -43.5q-3 -34 -3 -59q0 -66 21 -97.5t67 -31.5q40 0 69 22.5z" />
    <glyph glyph-name="six.pnum" horiz-adv-x="537" 
d="M424.5 431q38.5 -22 60 -65t21.5 -106q0 -78 -31 -141t-89 -99.5t-137 -36.5q-101 0 -156 59.5t-55 176.5q0 59 5 112q12 113 53.5 198t115 133t178.5 48q42 0 76.5 -8.5t56.5 -21.5q0 -21 -5.5 -50.5t-14.5 -57.5q-19 12 -48 18.5t-59 6.5q-66 0 -110 -23.5t-70.5 -71
t-40.5 -122.5q28 36 69 54.5t90 18.5q52 0 90.5 -22zM318 118.5q29 22.5 43.5 60t14.5 80.5t-22.5 63.5t-62.5 20.5q-33 0 -65.5 -15.5t-61.5 -43.5q-3 -34 -3 -59q0 -66 21 -97.5t67 -31.5q40 0 69 22.5z" />
    <glyph glyph-name="seven" unicode="7" 
d="M568 692q-7 -60 -21 -101q-104 -136 -186 -286.5t-137 -304.5h-133q51 147 130.5 296t175.5 283h-307q4 27 11.5 60t14.5 53h452z" />
    <glyph glyph-name="seven.pnum" horiz-adv-x="454" 
d="M514 692q-7 -55 -22 -101q-185 -244 -309 -591h-132q53 156 127 304.5t165 274.5h-292q3 25 10.5 58.5t15.5 54.5h437z" />
    <glyph glyph-name="eight" unicode="8" 
d="M481 296.5q26 -40.5 26 -101.5q0 -63 -33 -111t-92 -75t-133 -27q-71 0 -122 20.5t-78 60.5t-27 96q0 66 40 114t108 73q-82 55 -82 155q0 64 30 111.5t85 72.5t127 25q65 0 112 -21t71 -58.5t24 -85.5q0 -62 -33.5 -107.5t-94.5 -74.5q46 -26 72 -66.5zM263.5 594
q-25.5 -14 -38 -36.5t-12.5 -49.5q0 -37 21.5 -60.5t62.5 -37.5l5 -2q111 47 111 127q0 32 -23 52.5t-65 20.5q-36 0 -61.5 -14zM319 100.5q30 13.5 46.5 38t16.5 55.5q0 35 -22.5 59.5t-75.5 44.5l-10 4q-59 -22 -91 -56.5t-32 -79.5q0 -39 26.5 -59t72.5 -20q39 0 69 13.5
z" />
    <glyph glyph-name="eight.pnum" horiz-adv-x="539" 
d="M475 296.5q26 -40.5 26 -101.5q0 -63 -33 -111t-92 -75t-133 -27q-71 0 -122 20.5t-78 60.5t-27 96q0 66 40 114t108 73q-82 55 -82 155q0 64 30 111.5t85 72.5t127 25q65 0 112 -21t71 -58.5t24 -85.5q0 -62 -33.5 -107.5t-94.5 -74.5q46 -26 72 -66.5zM257.5 594
q-25.5 -14 -38 -36.5t-12.5 -49.5q0 -37 21.5 -60.5t62.5 -37.5l5 -2q111 47 111 127q0 32 -23 52.5t-65 20.5q-36 0 -61.5 -14zM313 100.5q30 13.5 46.5 38t16.5 55.5q0 35 -22.5 59.5t-75.5 44.5l-10 4q-59 -22 -91 -56.5t-32 -79.5q0 -39 26.5 -59t72.5 -20q39 0 69 13.5
z" />
    <glyph glyph-name="nine" unicode="9" horiz-adv-x="551" 
d="M447 650.5q55 -59.5 55 -176.5q0 -59 -5 -112q-12 -113 -53.5 -198t-115 -133t-178.5 -48q-42 0 -76.5 8.5t-56.5 21.5q0 21 5.5 50.5t14.5 57.5q19 -12 48 -18.5t59 -6.5q66 0 110 23.5t70.5 71t40.5 122.5q-28 -36 -69 -54.5t-90 -18.5q-52 0 -90.5 22t-60 65
t-21.5 106q0 78 31 141t89 99.5t137 36.5q101 0 156 -59.5zM314.5 365.5q32.5 15.5 61.5 43.5q3 35 3 59q0 66 -21 97.5t-67 31.5q-40 0 -69 -22.5t-43.5 -60t-14.5 -80.5t22.5 -63.5t62.5 -20.5q33 0 65.5 15.5z" />
    <glyph glyph-name="nine.pnum" horiz-adv-x="537" 
d="M471 651.5q55 -59.5 55 -176.5q0 -60 -5 -112q-12 -113 -53.5 -198t-115 -133t-178.5 -48q-42 0 -76.5 8.5t-56.5 21.5q0 21 5.5 50.5t14.5 57.5q19 -12 48 -18.5t59 -6.5q66 0 110 23.5t70.5 71t40.5 122.5q-28 -37 -69 -55.5t-90 -18.5q-52 0 -90.5 22t-60 65.5
t-21.5 106.5q0 78 31 141t89 99.5t137 36.5q101 0 156 -59.5zM338.5 366q32.5 15 61.5 43q3 36 3 60q0 66 -21.5 97.5t-66.5 31.5q-40 0 -69 -22.5t-43.5 -60t-14.5 -80.5t22.5 -63.5t62.5 -20.5q33 0 65.5 15z" />
    <glyph glyph-name="uni2080" unicode="&#x2080;" horiz-adv-x="377" 
d="M24 -195q-36 33 -36 101q0 107 45 169.5t134 62.5q68 0 104 -33t36 -101q0 -107 -45.5 -169.5t-134.5 -62.5q-67 0 -103 33zM162.5 -134.5q12.5 9.5 21.5 32.5t15 64q4 25 4 47q0 23 -9 33.5t-28 10.5q-20 0 -33.5 -9t-22.5 -32t-14 -64q-4 -27 -4 -47q0 -23 9.5 -34
t28.5 -11q20 0 32.5 9.5z" />
    <glyph glyph-name="uni2081" unicode="&#x2081;" horiz-adv-x="256" 
d="M83.5 131.5q48.5 7.5 95.5 7.5l-47 -351h-98l35 256q-39 -8 -89 -21q2 26 5.5 47t10.5 41q39 13 87.5 20.5z" />
    <glyph glyph-name="uni2082" unicode="&#x2082;" horiz-adv-x="300" 
d="M77 -134h146q-2 -18 -7.5 -39.5t-11.5 -38.5h-251l4 28q4 33 13 54t29.5 39.5t61.5 38.5q34 16 50 26t24 21t8 27q0 20 -14.5 28t-51.5 8q-33 0 -84 -11q1 34 13 83q36 11 93 11q73 0 108.5 -28.5t35.5 -79.5q0 -43 -26.5 -75.5t-82.5 -57.5q-40 -19 -57 -34z" />
    <glyph glyph-name="uni2083" unicode="&#x2083;" horiz-adv-x="302" 
d="M208.5 -64.5q15.5 -18.5 15.5 -46.5q0 -56 -44.5 -84.5t-124.5 -28.5q-51 0 -104 14q0 16 4.5 37.5t11.5 38.5q22 -6 41 -8.5t41 -2.5q39 0 57 9t18 28q0 12 -7 18t-21.5 8t-40.5 2h-48l11 76h31q46 0 65.5 7t19.5 29q0 14 -11.5 21t-42.5 7q-25 0 -43.5 -2.5t-42.5 -7.5
q2 46 14 78q36 11 90 11q63 0 100.5 -22t37.5 -67q0 -69 -78 -89q35 -7 50.5 -25.5z" />
    <glyph glyph-name="uni2084" unicode="&#x2084;" horiz-adv-x="333" 
d="M270 -116q-5 -21 -12 -40h-41l-8 -59h-87l8 59h-173q3 24 6.5 44t8.5 41q34 49 85.5 107t99.5 98q23 3 47.5 4t51.5 1l-29 -215h52q-4 -19 -9 -40zM142 -76l15 110q-56 -53 -99 -110h84z" />
    <glyph glyph-name="uni2085" unicode="&#x2085;" horiz-adv-x="329" 
d="M118 49l-8 -38q66 0 105 -25.5t39 -75.5q0 -69 -48.5 -101.5t-134.5 -32.5q-29 0 -56.5 4.5t-47.5 12.5q1 28 17 77q36 -11 78 -11q48 0 68.5 10t20.5 31q0 13 -6.5 20t-23.5 10.5t-48 3.5q-35 0 -72 -7l41 205h232q-1 -19 -6 -42.5t-12 -40.5h-138z" />
    <glyph glyph-name="uni2086" unicode="&#x2086;" horiz-adv-x="366" 
d="M258 -11.5q31 -27.5 31 -74.5q0 -40 -16.5 -72t-50.5 -50.5t-84 -18.5q-71 0 -110.5 38.5t-39.5 107.5q0 20 3 42q12 86 61 133.5t141 47.5q31 0 57.5 -5.5t45.5 -15.5q0 -16 -4.5 -37.5t-11.5 -38.5q-17 7 -40 11.5t-46 4.5q-44 0 -66.5 -18.5t-32.5 -55.5
q14 14 35 21.5t45 7.5q52 0 83 -27.5zM176.5 -133q13.5 15 13.5 37q0 17 -10.5 26.5t-30.5 9.5q-31 0 -65 -23v-13q0 -25 13 -38.5t37 -13.5q29 0 42.5 15z" />
    <glyph glyph-name="uni2087" unicode="&#x2087;" horiz-adv-x="294" 
d="M273 130q-1 -17 -5.5 -39t-10.5 -42q-112 -129 -163 -261h-103q23 66 62 133.5t87 126.5h-163q1 17 6.5 42t11.5 40h278z" />
    <glyph glyph-name="uni2088" unicode="&#x2088;" horiz-adv-x="372" 
d="M279 -65q14 -20 14 -48q0 -54 -44 -82.5t-121 -28.5q-74 0 -114 24t-40 67q0 31 18 53t61 33q-22 14 -34 33.5t-12 44.5q0 51 39.5 81t113.5 30q70 0 107.5 -25.5t37.5 -68.5q0 -29 -17 -48t-50 -32q27 -13 41 -33zM117.5 59q-13.5 -10 -13.5 -25q0 -26 47 -38l5 -1
q27 7 40.5 18t13.5 27q0 12 -12 20.5t-37 8.5q-30 0 -43.5 -10zM181 -139.5q16 10.5 16 25.5q0 13 -9.5 19.5t-36.5 14.5l-18 5q-28 -8 -44 -20t-16 -26q0 -29 58 -29q34 0 50 10.5z" />
    <glyph glyph-name="uni2089" unicode="&#x2089;" horiz-adv-x="366" 
d="M256.5 106q39.5 -38 39.5 -107q0 -20 -3 -43q-12 -85 -61 -132.5t-141 -47.5q-31 0 -57.5 5.5t-45.5 14.5q0 16 4.5 38t11.5 39q17 -7 40 -11.5t46 -4.5q44 0 66.5 18t32.5 55q-15 -13 -35.5 -20.5t-44.5 -7.5q-52 0 -83 27t-31 75q0 39 16.5 71t50.5 50.5t84 18.5
q71 0 110.5 -38zM104.5 -13.5q10.5 -9.5 30.5 -9.5q31 0 65 23v13q0 25 -13 39t-36 14q-30 0 -43.5 -15t-13.5 -37q0 -18 10.5 -27.5z" />
    <glyph glyph-name="zero.dnom" horiz-adv-x="377" 
d="M54 21q-36 33 -36 101q0 107 45 169.5t134 62.5q68 0 104 -33t36 -101q0 -107 -45.5 -169.5t-134.5 -62.5q-67 0 -103 33zM192.5 81.5q12.5 9.5 21.5 32.5t15 64q4 25 4 47q0 23 -9 33.5t-28 10.5q-20 0 -33.5 -9t-22.5 -32t-14 -64q-4 -27 -4 -47q0 -23 9.5 -34
t28.5 -11q20 0 32.5 9.5z" />
    <glyph glyph-name="one.dnom" horiz-adv-x="256" 
d="M113.5 343.5q48.5 7.5 95.5 7.5l-47 -351h-98l35 256q-39 -8 -89 -21q2 26 5.5 47t10.5 41q39 13 87.5 20.5z" />
    <glyph glyph-name="two.dnom" horiz-adv-x="300" 
d="M107 78h146q-2 -18 -7.5 -39.5t-11.5 -38.5h-251l4 28q4 33 13 54t29.5 39.5t61.5 38.5q34 16 50 26t24 21t8 27q0 20 -14.5 28t-51.5 8q-33 0 -84 -11q1 34 13 83q36 11 93 11q73 0 108.5 -28.5t35.5 -79.5q0 -43 -26.5 -75.5t-82.5 -57.5q-40 -19 -57 -34z" />
    <glyph glyph-name="three.dnom" horiz-adv-x="302" 
d="M238.5 147.5q15.5 -18.5 15.5 -46.5q0 -56 -44.5 -84.5t-124.5 -28.5q-51 0 -104 14q0 16 4.5 37.5t11.5 38.5q22 -6 41 -8.5t41 -2.5q39 0 57 9t18 28q0 12 -7 18t-21.5 8t-40.5 2h-48l11 76h31q46 0 65.5 7t19.5 29q0 14 -11.5 21t-42.5 7q-25 0 -43.5 -2.5t-42.5 -7.5
q2 46 14 78q36 11 90 11q63 0 100.5 -22t37.5 -67q0 -69 -78 -89q35 -7 50.5 -25.5z" />
    <glyph glyph-name="four.dnom" horiz-adv-x="333" 
d="M300 96q-5 -21 -12 -40h-41l-8 -59h-87l8 59h-173q3 24 6.5 44t8.5 41q34 49 85.5 107t99.5 98q23 3 47.5 4t51.5 1l-29 -215h52q-4 -19 -9 -40zM172 136l15 110q-56 -53 -99 -110h84z" />
    <glyph glyph-name="five.dnom" horiz-adv-x="329" 
d="M148 261l-8 -38q66 0 105 -25.5t39 -75.5q0 -69 -48.5 -101.5t-134.5 -32.5q-29 0 -56.5 4.5t-47.5 12.5q1 28 17 77q36 -11 78 -11q48 0 68.5 10t20.5 31q0 13 -6.5 20t-23.5 10.5t-48 3.5q-35 0 -72 -7l41 205h232q-1 -19 -6 -42.5t-12 -40.5h-138z" />
    <glyph glyph-name="six.dnom" horiz-adv-x="366" 
d="M288 200.5q31 -27.5 31 -74.5q0 -40 -16.5 -72t-50.5 -50.5t-84 -18.5q-71 0 -110.5 38.5t-39.5 107.5q0 20 3 42q12 86 61 133.5t141 47.5q31 0 57.5 -5.5t45.5 -15.5q0 -16 -4.5 -37.5t-11.5 -38.5q-17 7 -40 11.5t-46 4.5q-44 0 -66.5 -18.5t-32.5 -55.5
q14 14 35 21.5t45 7.5q52 0 83 -27.5zM206.5 79q13.5 15 13.5 37q0 17 -10.5 26.5t-30.5 9.5q-31 0 -65 -23v-13q0 -25 13 -38.5t37 -13.5q29 0 42.5 15z" />
    <glyph glyph-name="seven.dnom" horiz-adv-x="294" 
d="M303 342q-1 -17 -5.5 -39t-10.5 -42q-112 -129 -163 -261h-103q23 66 62 133.5t87 126.5h-163q1 17 6.5 42t11.5 40h278z" />
    <glyph glyph-name="eight.dnom" horiz-adv-x="372" 
d="M309 147q14 -20 14 -48q0 -54 -44 -82.5t-121 -28.5q-74 0 -114 24t-40 67q0 31 18 53t61 33q-22 14 -34 33.5t-12 44.5q0 51 39.5 81t113.5 30q70 0 107.5 -25.5t37.5 -68.5q0 -29 -17 -48t-50 -32q27 -13 41 -33zM147.5 271q-13.5 -10 -13.5 -25q0 -26 47 -38l5 -1
q27 7 40.5 18t13.5 27q0 12 -12 20.5t-37 8.5q-30 0 -43.5 -10zM211 72.5q16 10.5 16 25.5q0 13 -9.5 19.5t-36.5 14.5l-18 5q-28 -8 -44 -20t-16 -26q0 -29 58 -29q34 0 50 10.5z" />
    <glyph glyph-name="nine.dnom" horiz-adv-x="366" 
d="M286.5 318q39.5 -38 39.5 -107q0 -20 -3 -43q-12 -85 -61 -132.5t-141 -47.5q-31 0 -57.5 5.5t-45.5 14.5q0 16 4.5 38t11.5 39q17 -7 40 -11.5t46 -4.5q44 0 66.5 18t32.5 55q-15 -13 -35.5 -20.5t-44.5 -7.5q-52 0 -83 27t-31 75q0 39 16.5 71t50.5 50.5t84 18.5
q71 0 110.5 -38zM134.5 198.5q10.5 -9.5 30.5 -9.5q31 0 65 23v13q0 25 -13 39t-36 14q-30 0 -43.5 -15t-13.5 -37q0 -18 10.5 -27.5z" />
    <glyph glyph-name="zero.numr" horiz-adv-x="377" 
d="M102 365q-36 33 -36 101q0 107 45 169.5t134 62.5q68 0 104 -33t36 -101q0 -107 -45.5 -169.5t-134.5 -62.5q-67 0 -103 33zM240.5 425.5q12.5 9.5 21.5 32.5t15 64q4 25 4 47q0 23 -9 33.5t-28 10.5q-20 0 -33.5 -9t-22.5 -32t-14 -64q-4 -27 -4 -47q0 -23 9.5 -34
t28.5 -11q20 0 32.5 9.5z" />
    <glyph glyph-name="one.numr" horiz-adv-x="256" 
d="M161.5 687.5q48.5 7.5 95.5 7.5l-47 -351h-98l35 256q-39 -8 -89 -21q2 26 5.5 47t10.5 41q39 13 87.5 20.5z" />
    <glyph glyph-name="two.numr" horiz-adv-x="300" 
d="M155 422h146q-2 -18 -7.5 -39.5t-11.5 -38.5h-251l4 28q4 33 13 54t29.5 39.5t61.5 38.5q34 16 50 26t24 21t8 27q0 20 -14.5 28t-51.5 8q-33 0 -84 -11q1 34 13 83q36 11 93 11q73 0 108.5 -28.5t35.5 -79.5q0 -43 -26.5 -75.5t-82.5 -57.5q-40 -19 -57 -34z" />
    <glyph glyph-name="three.numr" horiz-adv-x="302" 
d="M286.5 491.5q15.5 -18.5 15.5 -46.5q0 -56 -44.5 -84.5t-124.5 -28.5q-51 0 -104 14q0 16 4.5 37.5t11.5 38.5q22 -6 41 -8.5t41 -2.5q39 0 57 9t18 28q0 12 -7 18t-21.5 8t-40.5 2h-48l11 76h31q46 0 65.5 7t19.5 29q0 14 -11.5 21t-42.5 7q-25 0 -43.5 -2.5t-42.5 -7.5
q2 46 14 78q36 11 90 11q63 0 100.5 -22t37.5 -67q0 -69 -78 -89q35 -7 50.5 -25.5z" />
    <glyph glyph-name="four.numr" horiz-adv-x="333" 
d="M348 440q-5 -21 -12 -40h-41l-8 -59h-87l8 59h-173q3 24 6.5 44t8.5 41q34 49 85.5 107t99.5 98q23 3 47.5 4t51.5 1l-29 -215h52q-4 -19 -9 -40zM220 480l15 110q-56 -53 -99 -110h84z" />
    <glyph glyph-name="five.numr" horiz-adv-x="329" 
d="M196 605l-8 -38q66 0 105 -25.5t39 -75.5q0 -69 -48.5 -101.5t-134.5 -32.5q-29 0 -56.5 4.5t-47.5 12.5q1 28 17 77q36 -11 78 -11q48 0 68.5 10t20.5 31q0 13 -6.5 20t-23.5 10.5t-48 3.5q-35 0 -72 -7l41 205h232q-1 -19 -6 -42.5t-12 -40.5h-138z" />
    <glyph glyph-name="six.numr" horiz-adv-x="366" 
d="M336 544.5q31 -27.5 31 -74.5q0 -40 -16.5 -72t-50.5 -50.5t-84 -18.5q-71 0 -110.5 38.5t-39.5 107.5q0 20 3 42q12 86 61 133.5t141 47.5q31 0 57.5 -5.5t45.5 -15.5q0 -16 -4.5 -37.5t-11.5 -38.5q-17 7 -40 11.5t-46 4.5q-44 0 -66.5 -18.5t-32.5 -55.5
q14 14 35 21.5t45 7.5q52 0 83 -27.5zM254.5 423q13.5 15 13.5 37q0 17 -10.5 26.5t-30.5 9.5q-31 0 -65 -23v-13q0 -25 13 -38.5t37 -13.5q29 0 42.5 15z" />
    <glyph glyph-name="seven.numr" horiz-adv-x="294" 
d="M351 686q-1 -17 -5.5 -39t-10.5 -42q-112 -129 -163 -261h-103q23 66 62 133.5t87 126.5h-163q1 17 6.5 42t11.5 40h278z" />
    <glyph glyph-name="eight.numr" horiz-adv-x="372" 
d="M357 491q14 -20 14 -48q0 -54 -44 -82.5t-121 -28.5q-74 0 -114 24t-40 67q0 31 18 53t61 33q-22 14 -34 33.5t-12 44.5q0 51 39.5 81t113.5 30q70 0 107.5 -25.5t37.5 -68.5q0 -29 -17 -48t-50 -32q27 -13 41 -33zM195.5 615q-13.5 -10 -13.5 -25q0 -26 47 -38l5 -1
q27 7 40.5 18t13.5 27q0 12 -12 20.5t-37 8.5q-30 0 -43.5 -10zM259 416.5q16 10.5 16 25.5q0 13 -9.5 19.5t-36.5 14.5l-18 5q-28 -8 -44 -20t-16 -26q0 -29 58 -29q34 0 50 10.5z" />
    <glyph glyph-name="nine.numr" horiz-adv-x="366" 
d="M334.5 662q39.5 -38 39.5 -107q0 -20 -3 -43q-12 -85 -61 -132.5t-141 -47.5q-31 0 -57.5 5.5t-45.5 14.5q0 16 4.5 38t11.5 39q17 -7 40 -11.5t46 -4.5q44 0 66.5 18t32.5 55q-15 -13 -35.5 -20.5t-44.5 -7.5q-52 0 -83 27t-31 75q0 39 16.5 71t50.5 50.5t84 18.5
q71 0 110.5 -38zM182.5 542.5q10.5 -9.5 30.5 -9.5q31 0 65 23v13q0 25 -13 39t-36 14q-30 0 -43.5 -15t-13.5 -37q0 -18 10.5 -27.5z" />
    <glyph glyph-name="uni2070" unicode="&#x2070;" horiz-adv-x="377" 
d="M120 488q-36 33 -36 101q0 107 45 169.5t134 62.5q68 0 104 -33t36 -101q0 -107 -45.5 -169.5t-134.5 -62.5q-67 0 -103 33zM258.5 548.5q12.5 9.5 21.5 32.5t15 64q4 25 4 47q0 23 -9 33.5t-28 10.5q-20 0 -33.5 -9t-22.5 -32t-14 -64q-4 -27 -4 -47q0 -23 9.5 -34
t28.5 -11q20 0 32.5 9.5z" />
    <glyph glyph-name="uni00B9" unicode="&#xb9;" horiz-adv-x="256" 
d="M179.5 810.5q48.5 7.5 95.5 7.5l-47 -351h-98l35 256q-39 -8 -89 -21q2 26 5.5 47t10.5 41q39 13 87.5 20.5z" />
    <glyph glyph-name="uni00B2" unicode="&#xb2;" horiz-adv-x="300" 
d="M173 545h146q-2 -18 -7.5 -39.5t-11.5 -38.5h-251l4 28q4 33 13 54t29.5 39.5t61.5 38.5q34 16 50 26t24 21t8 27q0 20 -14.5 28t-51.5 8q-33 0 -84 -11q1 34 13 83q36 11 93 11q73 0 108.5 -28.5t35.5 -79.5q0 -43 -26.5 -75.5t-82.5 -57.5q-40 -19 -57 -34z" />
    <glyph glyph-name="uni00B3" unicode="&#xb3;" horiz-adv-x="302" 
d="M304.5 614.5q15.5 -18.5 15.5 -46.5q0 -56 -44.5 -84.5t-124.5 -28.5q-51 0 -104 14q0 16 4.5 37.5t11.5 38.5q22 -6 41 -8.5t41 -2.5q39 0 57 9t18 28q0 12 -7 18t-21.5 8t-40.5 2h-48l11 76h31q46 0 65.5 7t19.5 29q0 14 -11.5 21t-42.5 7q-25 0 -43.5 -2.5t-42.5 -7.5
q2 46 14 78q36 11 90 11q63 0 100.5 -22t37.5 -67q0 -69 -78 -89q35 -7 50.5 -25.5z" />
    <glyph glyph-name="uni2074" unicode="&#x2074;" horiz-adv-x="333" 
d="M366 563q-5 -21 -12 -40h-41l-8 -59h-87l8 59h-173q3 24 6.5 44t8.5 41q34 49 85.5 107t99.5 98q23 3 47.5 4t51.5 1l-29 -215h52q-4 -19 -9 -40zM238 603l15 110q-56 -53 -99 -110h84z" />
    <glyph glyph-name="uni2075" unicode="&#x2075;" horiz-adv-x="329" 
d="M214 728l-8 -38q66 0 105 -25.5t39 -75.5q0 -69 -48.5 -101.5t-134.5 -32.5q-29 0 -56.5 4.5t-47.5 12.5q1 28 17 77q36 -11 78 -11q48 0 68.5 10t20.5 31q0 13 -6.5 20t-23.5 10.5t-48 3.5q-35 0 -72 -7l41 205h232q-1 -19 -6 -42.5t-12 -40.5h-138z" />
    <glyph glyph-name="uni2076" unicode="&#x2076;" horiz-adv-x="366" 
d="M354 667.5q31 -27.5 31 -74.5q0 -40 -16.5 -72t-50.5 -50.5t-84 -18.5q-71 0 -110.5 38.5t-39.5 107.5q0 20 3 42q12 86 61 133.5t141 47.5q31 0 57.5 -5.5t45.5 -15.5q0 -16 -4.5 -37.5t-11.5 -38.5q-17 7 -40 11.5t-46 4.5q-44 0 -66.5 -18.5t-32.5 -55.5
q14 14 35 21.5t45 7.5q52 0 83 -27.5zM272.5 546q13.5 15 13.5 37q0 17 -10.5 26.5t-30.5 9.5q-31 0 -65 -23v-13q0 -25 13 -38.5t37 -13.5q29 0 42.5 15z" />
    <glyph glyph-name="uni2077" unicode="&#x2077;" horiz-adv-x="294" 
d="M369 809q-1 -17 -5.5 -39t-10.5 -42q-112 -129 -163 -261h-103q23 66 62 133.5t87 126.5h-163q1 17 6.5 42t11.5 40h278z" />
    <glyph glyph-name="uni2078" unicode="&#x2078;" horiz-adv-x="372" 
d="M375 614q14 -20 14 -48q0 -54 -44 -82.5t-121 -28.5q-74 0 -114 24t-40 67q0 31 18 53t61 33q-22 14 -34 33.5t-12 44.5q0 51 39.5 81t113.5 30q70 0 107.5 -25.5t37.5 -68.5q0 -29 -17 -48t-50 -32q27 -13 41 -33zM213.5 738q-13.5 -10 -13.5 -25q0 -26 47 -38l5 -1
q27 7 40.5 18t13.5 27q0 12 -12 20.5t-37 8.5q-30 0 -43.5 -10zM277 539.5q16 10.5 16 25.5q0 13 -9.5 19.5t-36.5 14.5l-18 5q-28 -8 -44 -20t-16 -26q0 -29 58 -29q34 0 50 10.5z" />
    <glyph glyph-name="uni2079" unicode="&#x2079;" horiz-adv-x="366" 
d="M352.5 785q39.5 -38 39.5 -107q0 -20 -3 -43q-12 -85 -61 -132.5t-141 -47.5q-31 0 -57.5 5.5t-45.5 14.5q0 16 4.5 38t11.5 39q17 -7 40 -11.5t46 -4.5q44 0 66.5 18t32.5 55q-15 -13 -35.5 -20.5t-44.5 -7.5q-52 0 -83 27t-31 75q0 39 16.5 71t50.5 50.5t84 18.5
q71 0 110.5 -38zM200.5 665.5q10.5 -9.5 30.5 -9.5q31 0 65 23v13q0 25 -13 39t-36 14q-30 0 -43.5 -15t-13.5 -37q0 -18 10.5 -27.5z" />
    <glyph glyph-name="fraction" unicode="&#x2044;" horiz-adv-x="238" 
d="M257 692q28 4 54 6.5t57 3.5l-362 -702q-56 -9 -109 -10z" />
    <glyph glyph-name="onehalf" unicode="&#xbd;" horiz-adv-x="746" 
d="M161.5 687.5q48.5 7.5 95.5 7.5l-47 -351h-98l35 256q-39 -8 -89 -21q2 26 5.5 47t10.5 41q39 13 87.5 20.5zM457 692q28 4 54 6.5t57 3.5l-362 -702q-56 -9 -109 -10zM516 78h146q-2 -18 -7.5 -39.5t-11.5 -38.5h-251l4 28q4 33 13 54t29.5 39.5t61.5 38.5q34 16 50 26
t24 21t8 27q0 20 -14.5 28t-51.5 8q-33 0 -84 -11q1 34 13 83q36 11 93 11q73 0 108.5 -28.5t35.5 -79.5q0 -43 -26.5 -75.5t-82.5 -57.5q-40 -19 -57 -34z" />
    <glyph glyph-name="onequarter" unicode="&#xbc;" horiz-adv-x="730" 
d="M161.5 687.5q48.5 7.5 95.5 7.5l-47 -351h-98l35 256q-39 -8 -89 -21q2 26 5.5 47t10.5 41q39 13 87.5 20.5zM459 692q28 4 54 6.5t57 3.5l-362 -702q-56 -9 -109 -10zM646 96q-5 -21 -12 -40h-41l-8 -59h-87l8 59h-173q3 24 6.5 44t8.5 41q34 49 85.5 107t99.5 98
q23 3 47.5 4t51.5 1l-29 -215h52q-4 -19 -9 -40zM518 136l15 110q-56 -53 -99 -110h84z" />
    <glyph glyph-name="threequarters" unicode="&#xbe;" horiz-adv-x="750" 
d="M286.5 491.5q15.5 -18.5 15.5 -46.5q0 -56 -44.5 -84.5t-124.5 -28.5q-51 0 -104 14q0 16 4.5 37.5t11.5 38.5q22 -6 41 -8.5t41 -2.5q39 0 57 9t18 28q0 12 -7 18t-21.5 8t-40.5 2h-48l11 76h31q46 0 65.5 7t19.5 29q0 14 -11.5 21t-42.5 7q-25 0 -43.5 -2.5t-42.5 -7.5
q2 46 14 78q36 11 90 11q63 0 100.5 -22t37.5 -67q0 -69 -78 -89q35 -7 50.5 -25.5zM520 692q28 4 54 6.5t57 3.5l-362 -702q-56 -9 -109 -10zM700 96q-5 -21 -12 -40h-41l-8 -59h-87l8 59h-173q3 24 6.5 44t8.5 41q34 49 85.5 107t99.5 98q23 3 47.5 4t51.5 1l-29 -215h52
q-4 -19 -9 -40zM572 136l15 110q-56 -53 -99 -110h84z" />
    <glyph glyph-name="oneeighth" unicode="&#x215b;" horiz-adv-x="788" 
d="M161.5 687.5q48.5 7.5 95.5 7.5l-47 -351h-98l35 256q-39 -8 -89 -21q2 26 5.5 47t10.5 41q39 13 87.5 20.5zM461 692q28 4 54 6.5t57 3.5l-362 -702q-56 -9 -109 -10zM693 147q14 -20 14 -48q0 -54 -44 -82.5t-121 -28.5q-74 0 -114 24t-40 67q0 31 18 53t61 33
q-22 14 -34 33.5t-12 44.5q0 51 39.5 81t113.5 30q70 0 107.5 -25.5t37.5 -68.5q0 -29 -17 -48t-50 -32q27 -13 41 -33zM531.5 271q-13.5 -10 -13.5 -25q0 -26 47 -38l5 -1q27 7 40.5 18t13.5 27q0 12 -12 20.5t-37 8.5q-30 0 -43.5 -10zM595 72.5q16 10.5 16 25.5
q0 13 -9.5 19.5t-36.5 14.5l-18 5q-28 -8 -44 -20t-16 -26q0 -29 58 -29q34 0 50 10.5z" />
    <glyph glyph-name="threeeighths" unicode="&#x215c;" horiz-adv-x="809" 
d="M286.5 491.5q15.5 -18.5 15.5 -46.5q0 -56 -44.5 -84.5t-124.5 -28.5q-51 0 -104 14q0 16 4.5 37.5t11.5 38.5q22 -6 41 -8.5t41 -2.5q39 0 57 9t18 28q0 12 -7 18t-21.5 8t-40.5 2h-48l11 76h31q46 0 65.5 7t19.5 29q0 14 -11.5 21t-42.5 7q-25 0 -43.5 -2.5t-42.5 -7.5
q2 46 14 78q36 11 90 11q63 0 100.5 -22t37.5 -67q0 -69 -78 -89q35 -7 50.5 -25.5zM518 692q28 4 54 6.5t57 3.5l-362 -702q-56 -9 -109 -10zM747 147q14 -20 14 -48q0 -54 -44 -82.5t-121 -28.5q-74 0 -114 24t-40 67q0 31 18 53t61 33q-22 14 -34 33.5t-12 44.5
q0 51 39.5 81t113.5 30q70 0 107.5 -25.5t37.5 -68.5q0 -29 -17 -48t-50 -32q27 -13 41 -33zM585.5 271q-13.5 -10 -13.5 -25q0 -26 47 -38l5 -1q27 7 40.5 18t13.5 27q0 12 -12 20.5t-37 8.5q-30 0 -43.5 -10zM649 72.5q16 10.5 16 25.5q0 13 -9.5 19.5t-36.5 14.5l-18 5
q-28 -8 -44 -20t-16 -26q0 -29 58 -29q34 0 50 10.5z" />
    <glyph glyph-name="fiveeighths" unicode="&#x215d;" horiz-adv-x="820" 
d="M196 605l-8 -38q66 0 105 -25.5t39 -75.5q0 -69 -48.5 -101.5t-134.5 -32.5q-29 0 -56.5 4.5t-47.5 12.5q1 28 17 77q36 -11 78 -11q48 0 68.5 10t20.5 31q0 13 -6.5 20t-23.5 10.5t-48 3.5q-35 0 -72 -7l41 205h232q-1 -19 -6 -42.5t-12 -40.5h-138zM529 692
q28 4 54 6.5t57 3.5l-362 -702q-56 -9 -109 -10zM758 147q14 -20 14 -48q0 -54 -44 -82.5t-121 -28.5q-74 0 -114 24t-40 67q0 31 18 53t61 33q-22 14 -34 33.5t-12 44.5q0 51 39.5 81t113.5 30q70 0 107.5 -25.5t37.5 -68.5q0 -29 -17 -48t-50 -32q27 -13 41 -33z
M596.5 271q-13.5 -10 -13.5 -25q0 -26 47 -38l5 -1q27 7 40.5 18t13.5 27q0 12 -12 20.5t-37 8.5q-30 0 -43.5 -10zM660 72.5q16 10.5 16 25.5q0 13 -9.5 19.5t-36.5 14.5l-18 5q-28 -8 -44 -20t-16 -26q0 -29 58 -29q34 0 50 10.5z" />
    <glyph glyph-name="seveneighths" unicode="&#x215e;" horiz-adv-x="701" 
d="M351 686q-1 -17 -5.5 -39t-10.5 -42q-112 -129 -163 -261h-103q23 66 62 133.5t87 126.5h-163q1 17 6.5 42t11.5 40h278zM453 692q28 4 54 6.5t57 3.5l-362 -702q-56 -9 -109 -10zM662 147q14 -20 14 -48q0 -54 -44 -82.5t-121 -28.5q-74 0 -114 24t-40 67q0 31 18 53
t61 33q-22 14 -34 33.5t-12 44.5q0 51 39.5 81t113.5 30q70 0 107.5 -25.5t37.5 -68.5q0 -29 -17 -48t-50 -32q27 -13 41 -33zM500.5 271q-13.5 -10 -13.5 -25q0 -26 47 -38l5 -1q27 7 40.5 18t13.5 27q0 12 -12 20.5t-37 8.5q-30 0 -43.5 -10zM564 72.5q16 10.5 16 25.5
q0 13 -9.5 19.5t-36.5 14.5l-18 5q-28 -8 -44 -20t-16 -26q0 -29 58 -29q34 0 50 10.5z" />
    <glyph glyph-name="period" unicode="." horiz-adv-x="256" 
d="M62 0.5q-18 10.5 -28.5 28.5t-10.5 40t10.5 40t28.5 28.5t41 10.5t41 -10.5t28 -28.5t10 -40t-10 -40t-28 -28.5t-41 -10.5t-41 10.5z" />
    <glyph glyph-name="comma" unicode="," horiz-adv-x="256" 
d="M19.5 -17.5q12.5 58.5 23.5 129.5q29 7 50.5 10.5t44.5 3.5q9 0 33 -2q-15 -91 -37 -155t-62 -120l-84 7q19 68 31.5 126.5z" />
    <glyph glyph-name="colon" unicode=":" horiz-adv-x="257" 
d="M62 0.5q-18 10.5 -28.5 28.5t-10.5 40t10.5 40t28.5 28.5t41 10.5t41 -10.5t28 -28.5t10 -40t-10 -40t-28 -28.5t-41 -10.5t-41 10.5zM108 328.5q-18 10.5 -28.5 28.5t-10.5 40t10.5 40t28.5 28.5t41 10.5t41 -10.5t28 -28.5t10 -40t-10 -40t-28 -28.5t-41 -10.5
t-41 10.5z" />
    <glyph glyph-name="colon.aalt" horiz-adv-x="260" 
d="M78 95.5q-18 10.5 -28.5 28.5t-10.5 40t10.5 40t28.5 28.5t41 10.5t41 -10.5t28 -28.5t10 -40t-10 -40t-28 -28.5t-41 -10.5t-41 10.5zM125 443.5q-18 10.5 -28.5 28.5t-10.5 40t10.5 40t28.5 28.5t41 10.5t41 -10.5t28 -28.5t10 -40t-10 -40t-28 -28.5t-41 -10.5
t-41 10.5z" />
    <glyph glyph-name="semicolon" unicode=";" horiz-adv-x="256" 
d="M28.5 -17.5q12.5 58.5 23.5 129.5q29 7 50.5 10.5t44.5 3.5q9 0 33 -2q-15 -91 -37 -155t-62 -120l-84 7q19 68 31.5 126.5zM104 328.5q-18 10.5 -28.5 28.5t-10.5 40t10.5 40t28.5 28.5t41 10.5t41 -10.5t28 -28.5t10 -40t-10 -40t-28 -28.5t-41 -10.5t-41 10.5z" />
    <glyph glyph-name="ellipsis" unicode="&#x2026;" horiz-adv-x="807" 
d="M84 1q-17 10 -27 27t-10 37q0 21 10 38.5t27 27.5t39 10q21 0 38 -10t27 -27.5t10 -38.5q0 -20 -10 -37t-27 -27t-38 -10q-22 0 -39 10zM340 1q-17 10 -27 27t-10 37q0 21 10 38.5t27 27.5t39 10q21 0 38 -10t27 -27.5t10 -38.5q0 -20 -10 -37t-27 -27t-38 -10
q-22 0 -39 10zM593 1q-17 10 -27 27t-10 37q0 21 10 38.5t27 27.5t39 10t39 -10t27 -27.5t10 -38.5q0 -20 -10 -37t-27 -27t-39 -10t-39 10z" />
    <glyph glyph-name="exclam" unicode="!" horiz-adv-x="296" 
d="M138 693q29 7 67.5 12t67.5 5l-79 -474h-104zM85 1q-17 10 -26.5 26.5t-9.5 36.5t9.5 37t26.5 27t38 10t38 -10t26.5 -27t9.5 -37t-9.5 -36.5t-26.5 -26.5t-38 -10t-38 10z" />
    <glyph glyph-name="exclamdown" unicode="&#xa1;" horiz-adv-x="295" 
d="M210 500q17 -10 26.5 -26.5t9.5 -36.5t-9.5 -37t-26.5 -27t-38 -10t-37.5 10t-26 27t-9.5 37t9.5 36.5t26 26.5t37.5 10t38 -10zM158 -192q-28 -7 -67 -11.5t-68 -4.5l79 473h104z" />
    <glyph glyph-name="glyph367" horiz-adv-x="296" 
d="M238 699q17 -10 26.5 -26.5t9.5 -36.5t-9.5 -37t-26.5 -27t-38 -10t-37.5 10t-26 27t-9.5 37t9.5 36.5t26 26.5t37.5 10t38 -10zM186 7q-28 -7 -67 -11.5t-68 -4.5l79 473h104z" />
    <glyph glyph-name="question" unicode="?" horiz-adv-x="433" 
d="M121 265q6 47 28.5 79t65.5 65q43 28 65 54t27 62q1 4 1 13q0 60 -93 60q-32 0 -67.5 -7t-65.5 -18q1 18 5.5 44t8 43t5.5 26q61 23 140 23q98 0 148.5 -41.5t50.5 -114.5q0 -22 -2 -33q-6 -39 -23.5 -69.5t-44.5 -55.5t-69 -54q-33 -18 -49.5 -31t-25.5 -29t-11 -41
q-1 -2 -2.5 -6t-2.5 -6h-91q0 24 2 37zM82.5 1q-16.5 10 -26 27t-9.5 37t9.5 37t26 27t37.5 10q20 0 36.5 -10t26 -27t9.5 -37t-9.5 -37t-26 -27t-36.5 -10q-21 0 -37.5 10z" />
    <glyph glyph-name="questiondown" unicode="&#xbf;" horiz-adv-x="433" 
d="M351.5 500q16.5 -10 26 -27t9.5 -37t-9.5 -37t-26 -27t-37.5 -10t-37 10t-25.5 27t-9.5 37t9.5 37t25.5 27t37 10t37.5 -10zM313 236q-7 -47 -29.5 -79.5t-65.5 -64.5q-43 -28 -64.5 -53.5t-26.5 -61.5q-1 -5 -1 -13q0 -61 93 -61q32 0 67 7.5t66 18.5q-1 -21 -7 -52.5
t-13 -60.5q-62 -24 -139 -24q-98 0 -148.5 41.5t-50.5 114.5q0 22 2 33q6 39 23.5 69.5t44.5 55.5t69 54q34 19 50 31.5t25 28.5t11 41q0 2 1.5 6t2.5 6h92q0 -24 -2 -37z" />
    <glyph glyph-name="glyph370" horiz-adv-x="433" 
d="M379.5 698q16.5 -10 26 -27t9.5 -37t-9.5 -37t-26 -27t-37.5 -10t-37 10t-25.5 27t-9.5 37t9.5 37t25.5 27t37 10t37.5 -10zM341 434q-7 -47 -29.5 -79.5t-65.5 -64.5q-43 -28 -64.5 -53.5t-26.5 -61.5q-1 -5 -1 -13q0 -61 93 -61q32 0 67 7.5t66 18.5q-1 -21 -7 -52.5
t-13 -60.5q-62 -24 -139 -24q-98 0 -148.5 41.5t-50.5 114.5q0 22 2 33q6 39 23.5 69.5t44.5 55.5t69 54q34 19 50 31.5t25 28.5t11 41q0 2 1.5 6t2.5 6h92q0 -24 -2 -37z" />
    <glyph glyph-name="periodcentered" unicode="&#xb7;" horiz-adv-x="369" 
d="M153 259q-19 11 -30 30t-11 42q0 22 11 41t30 30.5t43 11.5q23 0 42 -11.5t30 -30.5t11 -41q0 -23 -11 -42t-29.5 -30t-42.5 -11t-43 11z" />
    <glyph glyph-name="bullet" unicode="&#x2022;" horiz-adv-x="446" 
d="M172 228q-28 16 -43.5 43t-15.5 60t15.5 61t43.5 44t64 16t63 -16t42 -43.5t15 -61.5q0 -33 -15 -60t-42 -43t-63 -16t-64 16z" />
    <glyph glyph-name="bullet.aalt" horiz-adv-x="446" 
d="M172 226.5q-28 15.5 -43.5 43t-15.5 60.5t15.5 60.5t43.5 43.5t64 16t63 -16t42 -43t15 -61q0 -33 -15 -60.5t-42 -43t-63 -15.5t-64 15.5z" />
    <glyph glyph-name="asterisk" unicode="*" horiz-adv-x="425" 
d="M293 506l100 -96q-14 -16 -37 -33q-28 -18 -43 -24l-61 123l-61 -124q-18 7 -43 25q-23 17 -37 33l99 97l-137 19q1 21 10 49q8 24 20 45l123 -64l-24 136q19 5 49 5t50 -5l-23 -136l121 65q11 -19 21 -46q8 -28 10 -48z" />
    <glyph glyph-name="numbersign" unicode="#" 
d="M461 431l-58 -175h99q-3 -19 -10 -44.5t-15 -45.5h-104l-55 -166h-91l54 166h-106l-55 -166h-93l54 166h-80q2 19 9.5 45t15.5 45h85l57 175h-94q3 20 10.5 45.5t16.5 43.5h97l54 166q34 15 99 15l-60 -181h106l54 166q33 15 99 15l-60 -181h85q-3 -20 -10 -45t-15 -44
h-89zM368 431h-106l-58 -175h107z" />
    <glyph glyph-name="slash" unicode="/" horiz-adv-x="374" 
d="M350 789q65 10 117 11l-436 -1012h-113z" />
    <glyph glyph-name="slash.case" horiz-adv-x="360" 
d="M310 684q64 10 120 11l-350 -695h-114z" />
    <glyph glyph-name="backslash" unicode="\" horiz-adv-x="374" 
d="M61 789q21 6 49 9t58 2l155 -1012h-108z" />
    <glyph glyph-name="backslash.aalt" horiz-adv-x="344" 
d="M216 0l-155 686q48 12 105 12l159 -698h-109z" />
    <glyph glyph-name="uni208D" unicode="&#x208d;" horiz-adv-x="297" 
d="M25 -115q0 94 27.5 191.5t79.5 181.5q52 -3 89 -29q-45 -90 -67.5 -174t-22.5 -170q0 -51 5 -93t16 -80q-26 -10 -47.5 -14.5t-44.5 -6.5q-35 96 -35 194z" />
    <glyph glyph-name="uni208E" unicode="&#x208e;" horiz-adv-x="297" 
d="M186 164.5q9 -47.5 9 -100.5q0 -94 -27.5 -191.5t-79.5 -181.5q-54 3 -90 29q46 89 68.5 173.5t22.5 170.5q0 51 -5 93t-16 80q26 10 47.5 14.5t44.5 6.5q17 -46 26 -93.5z" />
    <glyph glyph-name="parenleft" unicode="(" horiz-adv-x="318" 
d="M83.5 -41q-18.5 83 -18.5 182q0 113 24 230.5t70.5 230t113.5 208.5q24 -1 48.5 -9t43.5 -22q-90 -153 -136.5 -314.5t-46.5 -323.5q0 -96 12.5 -175t38.5 -155q-28 -12 -50.5 -17t-46.5 -6q-34 88 -52.5 171z" />
    <glyph glyph-name="parenleft.case" horiz-adv-x="314" 
d="M91.5 35q-18.5 75 -18.5 160q0 172 48.5 322.5t146.5 292.5q48 -1 96 -27q-90 -139 -132.5 -284.5t-42.5 -303.5q0 -84 12 -151.5t38 -138.5q-27 -13 -49 -19t-46 -7q-34 81 -52.5 156z" />
    <glyph glyph-name="parenright" unicode=")" horiz-adv-x="317" 
d="M247.5 639q18.5 -83 18.5 -182q0 -113 -24 -230.5t-70.5 -230t-112.5 -208.5q-24 1 -48.5 9t-44.5 22q90 153 136.5 314.5t46.5 323.5q0 96 -12.5 175t-38.5 155q28 12 50.5 17t46.5 6q34 -88 52.5 -171z" />
    <glyph glyph-name="parenright.case" horiz-adv-x="314" 
d="M248.5 654q18.5 -75 18.5 -161q0 -171 -48.5 -322t-146.5 -292q-51 2 -96 27q90 138 132.5 284t42.5 303q0 85 -12 152.5t-38 137.5q26 13 48.5 19.5t46.5 7.5q34 -81 52.5 -156z" />
    <glyph glyph-name="braceleft" unicode="{" horiz-adv-x="341" 
d="M407 820q-1 -22 -8 -48t-15 -48h-54q-31 0 -44.5 -17t-19.5 -58l-30 -219q-15 -106 -100 -125q30 -9 48.5 -36t18.5 -64q0 -8 -2 -22l-31 -225q-2 -12 -2 -31q0 -23 10 -32.5t35 -9.5h63q-2 -23 -8.5 -50t-15.5 -47h-65q-68 0 -99 34t-31 100q0 29 4 54l28 202q1 7 1 18
q0 30 -15.5 43.5t-44.5 19.5l13 90q37 2 56.5 20.5t25.5 60.5l31 222q12 81 51.5 124.5t124.5 43.5h75z" />
    <glyph glyph-name="braceleft.aalt" horiz-adv-x="341" 
d="M406 810q-2 -23 -8.5 -49t-14.5 -47h-54q-31 0 -44.5 -17t-19.5 -58l-23 -164q-8 -57 -33.5 -86.5t-66.5 -39.5q31 -9 49 -36.5t18 -64.5q0 -13 -1 -20l-25 -178q-3 -18 -3 -31q0 -23 10.5 -32.5t35.5 -9.5h63q-2 -22 -9 -49t-15 -48h-65q-68 0 -99 34t-31 101q0 28 4 53
l22 155q1 7 1 18q0 30 -15.5 43.5t-44.5 19.5l12 90q37 2 56.5 20t25.5 61l24 167q11 81 50.5 124.5t124.5 43.5h76z" />
    <glyph glyph-name="braceright" unicode="}" horiz-adv-x="342" 
d="M267 413q0 -30 15.5 -43.5t44.5 -19.5l-13 -90q-37 -2 -56 -20.5t-25 -60.5l-32 -222q-12 -81 -51 -124.5t-124 -43.5h-75q1 23 7.5 48.5t15.5 47.5h54q30 0 44 17t19 58l30 219q14 104 100 125q-30 9 -48.5 36t-18.5 64q0 8 2 22l32 225q2 22 2 29q0 24 -10 34t-36 10
h-63q2 22 9 48.5t15 47.5h66q67 0 98 -33.5t31 -98.5q0 -28 -4 -55l-28 -202q-1 -7 -1 -18z" />
    <glyph glyph-name="braceright.aalt" horiz-adv-x="342" 
d="M272 450q0 -30 15.5 -43.5t44.5 -19.5l-12 -90q-37 -2 -56.5 -20t-25.5 -61l-24 -167q-12 -81 -51.5 -124.5t-123.5 -43.5h-76q3 41 23 96h54q31 0 44.5 17t18.5 58l23 164q8 58 34.5 87t66.5 39q-30 8 -49 35.5t-19 64.5q0 7 2 21l25 178q2 12 2 31q0 23 -10 32.5
t-35 9.5h-63q1 22 8 49t16 48h65q67 0 98 -33.5t31 -99.5q0 -28 -4 -55l-21 -155q-1 -7 -1 -18z" />
    <glyph glyph-name="bracketleft" unicode="[" horiz-adv-x="323" 
d="M150 820h236q-2 -23 -8.5 -49.5t-15.5 -47.5h-114l-118 -839h124q-1 -22 -8 -47.5t-16 -48.5h-225z" />
    <glyph glyph-name="bracketleft.aalt" horiz-adv-x="320" 
d="M149 810h231q-1 -23 -7.5 -50t-15.5 -48h-110l-100 -716h119q-1 -21 -7.5 -47t-15.5 -49h-222z" />
    <glyph glyph-name="bracketright" unicode="]" horiz-adv-x="323" 
d="M189 -212h-236q1 23 8 49t16 48h113l118 840h-124q1 20 8 46t16 49h226z" />
    <glyph glyph-name="bracketright.aalt" horiz-adv-x="319" 
d="M201 -100h-232q1 24 8 50.5t16 47.5h109l101 716h-120q2 21 8.5 47.5t15.5 48.5h222z" />
    <glyph glyph-name="uni207D" unicode="&#x207d;" horiz-adv-x="297" 
d="M119 555q0 94 27.5 191.5t79.5 181.5q52 -3 89 -29q-45 -90 -67.5 -174t-22.5 -170q0 -51 5 -93t16 -80q-26 -10 -47.5 -14.5t-44.5 -6.5q-35 96 -35 194z" />
    <glyph glyph-name="uni207E" unicode="&#x207e;" horiz-adv-x="297" 
d="M282 845.5q9 -47.5 9 -100.5q0 -94 -28 -191.5t-79 -181.5q-56 3 -90 29q45 90 68 174t23 170q0 97 -22 173q26 10 48 14.5t45 6.5q17 -46 26 -93.5z" />
    <glyph glyph-name="hyphen" unicode="-" horiz-adv-x="352" 
d="M38.5 296q7.5 30 17.5 58h281q-6 -54 -28 -112h-280q2 24 9.5 54z" />
    <glyph glyph-name="hyphen.aalt" horiz-adv-x="340" 
d="M42 414h287q-1 -46 -12 -112h-286q0 46 11 112z" />
    <glyph glyph-name="uni00AD" unicode="&#xad;" horiz-adv-x="366" 
d="M38.5 296q7.5 30 17.5 58h281q-6 -54 -28 -112h-280q2 24 9.5 54z" />
    <glyph glyph-name="endash" unicode="&#x2013;" horiz-adv-x="495" 
d="M38.5 296q7.5 30 17.5 58h423q-6 -54 -27 -112h-423q2 24 9.5 54z" />
    <glyph glyph-name="endash.aalt" horiz-adv-x="495" 
d="M53 414h432q-3 -54 -12 -112h-432q4 63 12 112z" />
    <glyph glyph-name="emdash" unicode="&#x2014;" horiz-adv-x="882" 
d="M38.5 296.5q7.5 29.5 17.5 57.5h810q-3 -46 -26 -112h-811q2 25 9.5 54.5z" />
    <glyph glyph-name="emdash.aalt" horiz-adv-x="891" 
d="M53 414h827q-1 -39 -11 -112h-828q4 61 12 112z" />
    <glyph glyph-name="uni2011" unicode="&#x2011;" horiz-adv-x="352" 
d="M38.5 296q7.5 30 17.5 58h281q-6 -54 -28 -112h-280q2 24 9.5 54z" />
    <glyph glyph-name="underscore" unicode="_" horiz-adv-x="495" 
d="M-11 -103h427q-6 -43 -21 -81h-426q5 46 20 81z" />
    <glyph glyph-name="quotesinglbase" unicode="&#x201a;" horiz-adv-x="253" 
d="M24.5 -10q13.5 55 25.5 124q37 10 61 13.5t58 3.5q-16 -83 -38 -141.5t-60 -124.5h-81q21 70 34.5 125z" />
    <glyph glyph-name="quotedblbase" unicode="&#x201e;" horiz-adv-x="428" 
d="M23.5 -14q13.5 55 25.5 124q37 10 61 13.5t58 3.5q-16 -83 -38 -141.5t-60 -124.5h-81q21 70 34.5 125zM198.5 -13q13.5 55 25.5 124q37 10 61 13.5t58 3.5q-16 -83 -38 -141.5t-60 -124.5h-81q21 70 34.5 125z" />
    <glyph glyph-name="quotedblleft" unicode="&#x201c;" horiz-adv-x="428" 
d="M237 581.5q-15 -60.5 -27 -133.5h-115q12 59 23.5 98t28 74t43.5 77q48 13 83 13q-21 -68 -36 -128.5zM413 581.5q-15 -60.5 -27 -133.5h-115q12 59 23.5 98t28 74t43.5 77q48 13 83 13q-21 -68 -36 -128.5z" />
    <glyph glyph-name="quotedblright" unicode="&#x201d;" horiz-adv-x="428" 
d="M105.5 568q13.5 55 25.5 124q37 10 61 13.5t58 3.5q-16 -83 -38 -141.5t-60 -124.5h-81q21 70 34.5 125zM280.5 568q13.5 55 25.5 124q37 10 61 13.5t58 3.5q-16 -83 -38 -141.5t-60 -124.5h-81q21 70 34.5 125z" />
    <glyph glyph-name="quoteleft" unicode="&#x2018;" horiz-adv-x="252" 
d="M237 581.5q-15 -60.5 -27 -133.5h-115q12 59 23.5 98t28 74t43.5 77q48 13 83 13q-21 -68 -36 -128.5z" />
    <glyph glyph-name="quoteright" unicode="&#x2019;" horiz-adv-x="213" 
d="M105.5 568q13.5 55 25.5 124q37 10 61 13.5t58 3.5q-16 -83 -38 -141.5t-60 -124.5h-81q21 70 34.5 125z" />
    <glyph glyph-name="guillemotleft" unicode="&#xab;" horiz-adv-x="530" 
d="M260 275l189 234q23 -7 45.5 -20t41.5 -30l-155 -189l101 -188q-20 -12 -47.5 -24t-50.5 -18zM33 275l189 234q23 -7 45.5 -20t41.5 -30l-155 -189l101 -188q-20 -12 -47.5 -24t-50.5 -18z" />
    <glyph glyph-name="guillemotleft.aalt" horiz-adv-x="519" 
d="M262 364l189 234q23 -7 45.5 -20t41.5 -30l-155 -189l101 -188q-20 -12 -47.5 -24t-50.5 -18zM45 364l189 234q23 -7 45.5 -20t41.5 -30l-155 -189l101 -188q-20 -12 -47.5 -24t-50.5 -18z" />
    <glyph glyph-name="guillemotright" unicode="&#xbb;" horiz-adv-x="530" 
d="M277 274l-190 -234q-22 7 -44.5 20t-42.5 30l156 189l-101 188q20 13 47.5 24.5t50.5 17.5zM504 274l-189 -234q-23 7 -45.5 20t-41.5 30l155 189l-101 188q20 12 47.5 24t50.5 18z" />
    <glyph glyph-name="guillemotright.aalt" horiz-adv-x="520" 
d="M289 362l-189 -233q-22 7 -44.5 20t-42.5 30l156 189l-101 187q19 13 46.5 25t51.5 17zM506 362l-189 -233q-22 7 -44.5 20t-42.5 30l156 189l-101 187q19 13 46.5 25t51.5 17z" />
    <glyph glyph-name="guilsinglleft" unicode="&#x2039;" horiz-adv-x="303" 
d="M33 275l189 234q23 -7 45.5 -20t41.5 -30l-155 -189l101 -188q-20 -12 -47.5 -24t-50.5 -18z" />
    <glyph glyph-name="guilsinglleft.aalt" horiz-adv-x="302" 
d="M45 364l189 234q23 -7 45.5 -20t41.5 -30l-155 -189l101 -188q-20 -12 -47.5 -24t-50.5 -18z" />
    <glyph glyph-name="guilsinglright" unicode="&#x203a;" horiz-adv-x="302" 
d="M277 274l-190 -234q-22 7 -44.5 20t-42.5 30l156 189l-101 188q20 13 47.5 24.5t50.5 17.5z" />
    <glyph glyph-name="guilsinglright.aalt" horiz-adv-x="303" 
d="M289 362l-189 -233q-22 7 -44.5 20t-42.5 30l156 189l-101 187q19 13 46.5 25t51.5 17z" />
    <glyph glyph-name="quotedbl" unicode="&#x22;" horiz-adv-x="416" 
d="M130 692q26 8 54.5 13t53.5 5l-48 -259h-82zM305 692q26 8 54.5 13t53.5 5l-48 -259h-82z" />
    <glyph glyph-name="quotesingle" unicode="'" horiz-adv-x="241" 
d="M130 692q26 8 54.5 13t53.5 5l-48 -259h-82z" />
    <glyph glyph-name="uni00A0" unicode="&#xa0;" horiz-adv-x="200" 
 />
    <glyph glyph-name="uniFEFF" unicode="&#xfeff;" horiz-adv-x="0" 
 />
    <glyph glyph-name="uni20A8" unicode="&#x20a8;" 
d="M307 388q-25 -71 -80 -107l50 -281h-99l-38 258h-10l-36 -258h-96l95 691q18 7 50 12.5t57 5.5q132 0 132 -157q0 -93 -25 -164zM144 360h17q27 0 43.5 30t23.5 72t7 81q0 32 -8 46.5t-26 14.5q-6 0 -24 -2zM429 394.5q-14 -14.5 -14 -41.5q0 -36 23 -60l15 -17
q24 -26 37 -55t13 -68q0 -47 -15.5 -84.5t-45.5 -59t-73 -21.5q-19 0 -39.5 8t-34.5 22q3 46 17 91q9 -11 21 -16t25 -5q23 0 36.5 15.5t13.5 40.5q0 20 -5.5 34.5t-18.5 28.5l-14 15q-22 23 -33.5 52t-11.5 71q0 46 16 84t45.5 60t69.5 22q20 0 38.5 -6t32.5 -18
q-1 -21 -6 -48t-10 -47q-18 17 -45 17q-23 0 -37 -14.5z" />
    <glyph glyph-name="uni0E3F" unicode="&#xe3f;" 
d="M467 300.5q23 -38.5 23 -86.5q0 -94 -60 -149t-168 -63l-19 -135h-78l19 133h-159l97 693q73 14 161 15l13 93q17 8 39.5 13t41.5 5l-16 -115q73 -11 112.5 -51.5t39.5 -109.5q0 -65 -30.5 -112t-89.5 -71q51 -21 74 -59.5zM269 606q-31 -2 -46 -4l-27 -195h45zM346 599
l-26 -183q37 13 56 40.5t19 66.5q0 58 -49 76zM198 102l29 206h-45l-29 -206h45zM346 146q22 29 22 72q0 35 -15.5 56t-48.5 29l-27 -196q47 10 69 39z" />
    <glyph glyph-name="uni20BF" unicode="&#x20bf;" 
d="M467 300.5q23 -38.5 23 -86.5q0 -82 -46.5 -135t-132.5 -71l-20 -141h-83l18 133h-4h-41l-18 -133h-83l19 133h-74l97 693q42 8 75 10l14 98q18 8 41.5 13t44.5 5l-16 -111h25h20l13 93q18 8 41.5 13t44.5 5l-18 -126q51 -18 78.5 -55.5t27.5 -94.5q0 -65 -30.5 -112
t-89.5 -71q51 -21 74 -59.5zM296 606q-45 0 -73 -4l-27 -195h59q69 0 104.5 30.5t35.5 85.5q0 83 -99 83zM333.5 133q34.5 31 34.5 85q0 47 -28 68.5t-88 21.5h-70l-29 -206h72q74 0 108.5 31z" />
    <glyph glyph-name="uni20B5" unicode="&#x20b5;" 
d="M294 550.5q-44 -47.5 -62.5 -123.5t-18.5 -166q0 -61 14.5 -97.5t43 -52.5t72.5 -16q27 0 56.5 7t52.5 19q-10 -53 -33 -121q-39 -13 -76 -16l-17 -117h-90l17 121q-82 17 -126 85t-44 186q0 113 29.5 207.5t90 158t150.5 80.5l14 96q19 8 45 13t48 5l-15 -111
q25 -2 48.5 -8t40.5 -15q-5 -29 -13 -58.5t-18 -51.5q-17 11 -42 17t-51 6q-72 0 -116 -47.5z" />
    <glyph glyph-name="cent" unicode="&#xa2;" 
d="M296.5 475.5q-34.5 -25.5 -51.5 -70.5t-17 -104q0 -56 26 -85t74 -29q24 0 52 6.5t50 15.5q-8 -67 -24 -110q-30 -10 -68 -13l-14 -98h-91l14 101q-69 15 -107.5 66.5t-38.5 136.5q0 83 25 149t74.5 108t119.5 54l11 81q16 8 44 12.5t50 4.5l-14 -96q39 -4 71 -20
q-2 -25 -8.5 -51.5t-13.5 -47.5q-37 15 -78 15q-51 0 -85.5 -25.5z" />
    <glyph glyph-name="cent.aalt" horiz-adv-x="399" 
d="M229.5 475.5q-34.5 -25.5 -51.5 -70.5t-17 -104q0 -56 26.5 -85t74.5 -29q23 0 51 6.5t51 15.5q-3 -26 -10 -56.5t-15 -53.5q-31 -11 -74 -14l-15 -97h-91l15 103q-67 16 -103.5 67t-36.5 134q0 81 24 146.5t71.5 107.5t115.5 55l12 83q16 8 44 12.5t50 4.5l-13 -95
q45 -4 77 -21q-2 -25 -8 -52t-13 -47q-37 15 -79 15q-51 0 -85.5 -25.5z" />
    <glyph glyph-name="colonmonetary" unicode="&#x20a1;" 
d="M543 693q9 -3 15.5 -5.5t12.5 -4.5q-7 -46 -32 -109q-6 3 -28 11l-146 -490q28 1 53.5 8t54.5 18q-11 -55 -33 -120q-46 -17 -109 -19l-35 -117h-77l37 123q-29 6 -52 16l-41 -138h-79l53 179q-43 37 -66.5 95.5t-23.5 137.5q0 108 32 197t96.5 148t158.5 78l28 94
q14 6 41 11t43 5l-30 -101h7q23 0 46 -3l26 87q13 7 39.5 11.5t43.5 4.5zM437 597q-9 1 -25 1q-21 0 -30 -1l-142 -474q23 -15 49 -21zM184 201l111 370q-63 -35 -92.5 -109.5t-29.5 -176.5q0 -48 11 -84z" />
    <glyph glyph-name="currency" unicode="&#xa4;" 
d="M468 244l69 -68l-74 -74l-68 68q-50 -29 -106 -29q-57 0 -107 29l-69 -68l-73 74l69 68q-29 47 -29 106t29 106l-69 68l73 74l69 -68q52 29 107 29q56 0 106 -29l69 68l73 -74l-69 -68q29 -47 29 -106q0 -56 -29 -106zM198.5 296.5q13.5 -23.5 37 -37t53.5 -13.5
q29 0 52.5 13.5t37 37t13.5 53.5t-13.5 53.5t-37 37t-52.5 13.5q-30 0 -53.5 -13.5t-37 -37t-13.5 -53.5t13.5 -53.5z" />
    <glyph glyph-name="currency.aalt" horiz-adv-x="603" 
d="M495 244l69 -68l-74 -74l-68 68q-50 -29 -106 -29q-55 0 -107 29l-68 -68l-73 74l68 67q-29 52 -29 107t29 107l-68 67l73 74l69 -68q50 29 106 29t106 -29l69 68l73 -74l-69 -68q29 -47 29 -106q0 -56 -29 -106zM225.5 296.5q13.5 -23.5 37 -37t53.5 -13.5
q29 0 52.5 13.5t37 37t13.5 53.5t-13.5 53.5t-37 37t-52.5 13.5q-30 0 -53.5 -13.5t-37 -37t-13.5 -53.5t13.5 -53.5z" />
    <glyph glyph-name="dollar" unicode="$" 
d="M250 575.5q-30 -27.5 -30 -70.5q0 -31 20.5 -52.5t59.5 -39.5l45 -20q69 -30 103 -74t34 -114q0 -57 -23 -102.5t-68 -75.5t-109 -40l-17 -120h-91l16 117q-42 4 -82 16t-69 29q6 31 12.5 53t17.5 49q28 -19 73.5 -30t85.5 -11q60 0 93.5 26.5t33.5 73.5q0 24 -8.5 40.5
t-28 31t-54.5 31.5l-44 21q-63 30 -94 70.5t-31 104.5q0 58 23.5 103.5t68 74.5t105.5 38l13 96q19 8 45 13t48 5l-16 -111q72 -6 131 -32q-5 -28 -12 -51t-18 -51q-30 14 -68 21.5t-73 7.5q-62 0 -92 -27.5z" />
    <glyph glyph-name="dollar.aalt" horiz-adv-x="483" 
d="M221 575.5q-30 -27.5 -30 -70.5q0 -31 20 -52.5t59 -39.5l45 -20q69 -30 103 -74t34 -114q0 -57 -23 -103t-68 -76t-109 -39l-17 -120h-91l16 118q-41 4 -81 15.5t-69 28.5q5 29 11.5 50.5t17.5 51.5q29 -19 74 -30t85 -11q60 0 93.5 26.5t33.5 73.5q0 24 -8.5 40.5
t-27.5 31t-54 31.5l-45 21q-63 30 -94 70.5t-31 104.5q0 58 23.5 103t68 74.5t105.5 38.5l13 96q19 8 45 13t49 5l-16 -111q72 -6 130 -32q-5 -28 -12 -51t-18 -51q-30 14 -68 21.5t-72 7.5q-62 0 -92 -27.5z" />
    <glyph glyph-name="Euro" unicode="&#x20ac;" 
d="M345.5 564q-41.5 -34 -65.5 -94h213q-1 -21 -7.5 -46.5t-15.5 -46.5h-214q-6 -44 -7 -69h208q-2 -22 -8.5 -47.5t-15.5 -45.5h-184q7 -64 39 -92t90 -28q27 0 56 7t53 19q-11 -57 -34 -121q-24 -9 -52.5 -13.5t-55.5 -4.5q-98 0 -156.5 58t-68.5 175h-87l13 93h74
q1 23 7 69h-72l13 93h82q36 110 110.5 175t184.5 65q36 0 68.5 -7.5t55.5 -19.5q-4 -26 -13 -55.5t-18 -52.5q-18 11 -41 17t-49 6q-61 0 -102.5 -34z" />
    <glyph glyph-name="Euro.aalt" horiz-adv-x="539" 
d="M331.5 564q-41.5 -34 -65.5 -94h213q-1 -21 -7.5 -46.5t-15.5 -46.5h-214q-6 -44 -7 -69h208q-2 -22 -8.5 -47.5t-15.5 -45.5h-184q7 -64 39 -92t90 -28q27 0 56 7t53 19q-16 -71 -35 -121q-24 -9 -52 -13.5t-55 -4.5q-98 0 -156.5 58t-68.5 175h-87l12 93h75q1 23 7 69
h-72l13 93h81q37 110 111.5 175t184.5 65q36 0 68.5 -7.5t55.5 -19.5q-4 -26 -13 -55.5t-18 -52.5q-18 11 -41 17t-49 6q-61 0 -102.5 -34z" />
    <glyph glyph-name="florin" unicode="&#x192;" 
d="M393 586q-17 -19 -23 -63l-9 -62h121q-8 -50 -26 -98h-109l-28 -197q-13 -92 -60.5 -136.5t-132.5 -44.5q-51 0 -90 13q4 44 26 99q14 -4 27 -6t27 -2q34 0 52 19.5t24 62.5l27 192h-105l15 98h104l9 68q13 92 61 136.5t130 44.5q49 0 91 -14q-5 -45 -26 -99q-30 8 -53 8
q-35 0 -52 -19z" />
    <glyph glyph-name="florin.aalt" horiz-adv-x="418" 
d="M335.5 586q-17.5 -19 -23.5 -63l-9 -62h121q-6 -48 -25 -98h-109l-28 -197q-13 -93 -61 -137t-133 -44q-50 0 -89 13q2 24 9 50t17 49q14 -4 27 -6t27 -2q34 0 52 19.5t24 62.5l27 192h-105l14 98h105l9 68q13 92 61 136.5t130 44.5q50 0 90 -14q-6 -49 -25 -99
q-30 8 -53 8q-35 0 -52.5 -19z" />
    <glyph glyph-name="franc" unicode="&#x20a3;" 
d="M299 584l-26 -179h209q-2 -22 -10 -54t-16 -54h-198l-13 -91h146q-6 -45 -25 -90h-134l-16 -116h-123l16 116h-89l12 90h90l69 486h357q-3 -26 -9.5 -55t-15.5 -53h-224z" />
    <glyph glyph-name="uni20B2" unicode="&#x20b2;" 
d="M267.5 554.5q-49.5 -46.5 -72 -122.5t-22.5 -168q0 -173 133 -173q28 0 56 6l37 258h120l-48 -335q-29 -13 -68 -22t-79 -12l-16 -119h-89l17 121q-96 14 -143.5 84.5t-47.5 191.5q0 115 32.5 209.5t98 155.5t161.5 76l13 96q19 8 44 13t48 5l-16 -111q79 -4 134 -29
q-13 -52 -33 -106q-33 14 -64.5 21t-70.5 7q-75 0 -124.5 -46.5z" />
    <glyph glyph-name="uni20B4" unicode="&#x20b4;" 
d="M543 470q-3 -22 -9.5 -47.5t-13.5 -45.5h-463l12 93h304q19 28 19 62q0 32 -22.5 51.5t-73.5 19.5q-32 0 -70.5 -7.5t-71.5 -21.5q-5 42 -5 74q0 22 1 31q76 30 164 30q104 0 154 -38t50 -104q0 -54 -26 -97h51zM47 308h461q-9 -52 -23 -93h-295q-12 -21 -12 -49
q0 -37 25.5 -56.5t75.5 -19.5q39 0 81.5 11t77.5 31q6 -36 6 -74q0 -22 -1 -33q-32 -20 -81 -31t-101 -11q-68 0 -115 18t-70.5 51t-23.5 77q0 48 26 86h-44z" />
    <glyph glyph-name="uni20AD" unicode="&#x20ad;" 
d="M382 392h125q-14 -58 -25 -90h-112l109 -302h-126l-108 302h-15l-43 -302h-123l42 302h-77l13 90h77l41 292q25 7 60 12t66 5l-44 -309h12l187 300h127z" />
    <glyph glyph-name="uni20BA" unicode="&#x20ba;" 
d="M458.5 265q32.5 3 62.5 4q-40 -269 -284 -269h-167l32 225l-82 -33l13 93l81 32l12 81l-81 -32l13 93l81 32l27 193q25 7 62.5 12t69.5 5l-22 -155l163 64q-6 -47 -19 -94l-156 -63l-12 -82l163 64q-7 -50 -19 -93l-157 -62l-23 -169h37q47 0 76.5 15.5t47 47.5t27.5 84
q22 4 54.5 7z" />
    <glyph glyph-name="uni20BA.aalt" horiz-adv-x="556" 
d="M532 264q-19 -127 -87 -195.5t-197 -68.5h-167l33 234l-80 -28l13 93l80 27l11 80l-79 -27l12 93l80 27l26 185q25 7 62.5 12t69.5 5l-22 -155l163 56q-6 -47 -19 -94l-157 -54l-11 -81l163 56q-7 -51 -20 -94l-156 -54l-24 -174h37q47 0 77.5 15.5t48.5 47t28 83.5
q43 7 115 11z" />
    <glyph glyph-name="uni20BC" unicode="&#x20bc;" 
d="M482 478.5q42 -51.5 42 -128.5q0 -19 -3 -42l-44 -308h-115l44 307q3 21 3 39q0 39 -15 63t-48 32l-41 -297h-88l41 297q-42 -10 -65 -43.5t-31 -91.5l-44 -306h-115l44 308q9 65 37.5 115.5t76 82.5t112.5 39l20 147q17 8 44 13t47 5l-23 -167q79 -13 121 -64.5z" />
    <glyph glyph-name="uni20BC.aalt" horiz-adv-x="627" 
d="M536 474q46 -53 46 -132q0 -19 -3 -40l-42 -302h-115l41 291q2 22 2 31q0 87 -74 107l-40 -285h-104l40 285q-93 -24 -109 -138l-41 -291h-116l42 302q10 66 41.5 117.5t82 84t116.5 40.5l21 148q20 8 51.5 13t55.5 5l-24 -168q83 -15 129 -68z" />
    <glyph glyph-name="uni20A5" unicode="&#x20a5;" 
d="M509 559.5q25 -30.5 25 -84.5q0 -20 -3 -43l-49 -353h-110l48 341q2 16 2 21q0 40 -34 40q-12 0 -23 -6l-12 -37q0 -8 -1 -12l-49 -347h-63l-29 -91h-84l101 322l16 111q2 16 2 21q0 39 -33 39q-16 0 -30 -8l-56 -394h-110l66 468q43 24 76 33.5t72 9.5q47 0 78 -25
l38 121q15 7 42.5 11.5t47.5 4.5l-36 -115q15 3 31 3q52 0 77 -30.5z" />
    <glyph glyph-name="uni20A6" unicode="&#x20a6;" 
d="M542 302h-55l-43 -302h-111l-81 302h-62l-6 -47l-35 -255h-112l42 302h-68l13 90h68l41 292q31 8 65 12.5t62 4.5l84 -297l3 -12h43q2 11 4 33l7 49l30 210q24 8 49.5 12.5t62.5 4.5l-44 -309h68q-14 -58 -25 -90zM209 479q-2 -31 -8 -87h29l-19 107zM380 302h-17
q3 -19 10 -67q4 47 7 67z" />
    <glyph glyph-name="uni20B1" unicode="&#x20b1;" 
d="M507 466q-1 -29 -8 -62h61q-2 -19 -8.5 -43t-14.5 -44h-65q-32 -75 -90 -119t-138 -44h-65l-21 -153h-118l44 316h-68l13 87h68l8 62h-68l12 87h69l19 137q71 19 155 19q98 0 149 -41t63 -115h84q-2 -20 -8 -44t-14 -43h-59zM235 553h138q-10 29 -33.5 41.5t-63.5 12.5
q-8 0 -34 -2zM380 466h-157l-9 -62h158q7 33 8 62zM341 317h-139l-8 -59h52q61 0 95 59z" />
    <glyph glyph-name="uni20BD" unicode="&#x20bd;" 
d="M229 256l-11 -75h201q-9 -48 -26 -90h-187l-13 -90h-122l13 90h-77l13 90h76l11 75h-75l12 90h75l49 346q36 7 80 12t85 5q115 0 165 -48t50 -136q0 -80 -31.5 -140.5t-91.5 -94.5t-143 -34h-53zM397 585.5q-23 21.5 -75 21.5q-22 0 -44 -3l-35 -246h41q70 0 103 42.5
t33 120.5q0 43 -23 64.5z" />
    <glyph glyph-name="uni20B9" unicode="&#x20b9;" 
d="M409 602q33 -33 38 -84h85q-8 -48 -27 -91h-68q-20 -75 -79.5 -118t-158.5 -52l206 -256h-150l-201 253l12 90h90q119 0 152 83h-230l13 91h229q-4 43 -34.5 63.5t-87.5 20.5h-96l13 90h453q-7 -41 -26 -90h-133z" />
    <glyph glyph-name="uni20B9.aalt" horiz-adv-x="515" 
d="M419 602q35 -34 39 -84h78q-8 -48 -27 -91h-61q-20 -75 -80 -118t-159 -52l206 -256h-149l-201 253l12 90h90q118 0 152 83h-231l13 91h229q-4 44 -34 64t-87 20h-96l13 90h446q-7 -41 -26 -90h-127z" />
    <glyph glyph-name="sterling" unicode="&#xa3;" 
d="M354 583.5q-26 -17.5 -35.5 -48.5t-12.5 -84l-2 -36h155q-6 -42 -24 -95h-136l-3 -44q-5 -65 -21.5 -104t-50.5 -65h228q-4 -27 -11 -57.5t-15 -49.5h-392l15 103q49 5 74 22.5t33.5 47.5t11.5 86l4 61h-95l14 95h86l2 30q5 89 29.5 146.5t76.5 87.5t138 30q61 0 102 -12
q-3 -25 -10 -53.5t-16 -51.5q-38 9 -69 9q-50 0 -76 -17.5z" />
    <glyph glyph-name="sterling.aalt" horiz-adv-x="469" 
d="M306 583.5q-26 -17.5 -35.5 -48.5t-12.5 -84l-2 -36h155q-6 -42 -24 -95h-136l-3 -44q-5 -65 -21.5 -104t-50.5 -65h228q-4 -27 -11 -57.5t-15 -49.5h-392l15 103q49 5 74 22.5t33.5 47.5t11.5 86l4 61h-95l14 95h86l2 30q5 89 29.5 146.5t76.5 87.5t138 30q61 0 102 -12
q-3 -25 -10 -53.5t-16 -51.5q-38 9 -69 9q-50 0 -76 -17.5z" />
    <glyph glyph-name="uni20B8" unicode="&#x20b8;" 
d="M568 692q-1 -21 -7.5 -46.5t-14.5 -46.5h-453l13 93h462zM84 530h450q-3 -23 -9.5 -48t-14.5 -45h-147l-61 -437h-123l61 437h-170z" />
    <glyph glyph-name="uni20AE" unicode="&#x20ae;" 
d="M383 583l-18 -128l127 41q-6 -47 -19 -94l-120 -39l-11 -75l127 41q-8 -57 -19 -93l-121 -39l-27 -197h-123l22 154l-124 -40l13 93l124 40l10 74l-124 -41l13 93l124 40l24 170h-166q7 42 25 109h443q-4 -23 -11 -54t-14 -55h-155z" />
    <glyph glyph-name="uni20A9" unicode="&#x20a9;" 
d="M513 420h53q-13 -54 -25 -90h-50l-81 -330h-129l15 330h-18l-74 -330h-134l9 330h-55l12 90h46l7 272h101l-17 -272h45l58 272h125l-18 -272h42l56 272h98zM299 420l1 8l-2 -8h1zM199 330h-31l-13 -208zM407 330h-30l-14 -212z" />
    <glyph glyph-name="uni20A9.aalt" horiz-adv-x="776" 
d="M722 420h79q-7 -32 -24 -90h-86l-115 -330h-134l-17 330h-54l-110 -330h-140l-23 330h-88l13 90h68l-19 272h130l7 -272h95l89 272h114l14 -272h90l83 272h123zM421 420l-3 53l-18 -53h21zM275 330h-64l5 -181zM584 330h-59l8 -168z" />
    <glyph glyph-name="yen" unicode="&#xa5;" 
d="M346 303l-9 -66h147q-4 -22 -11.5 -46.5t-15.5 -42.5h-132l-21 -148h-127l21 148h-147l12 89h147l10 66h-147l12 89h115l-127 300h137l91 -254l164 254h136l-211 -300h119q-4 -21 -11 -46t-15 -43h-137z" />
    <glyph glyph-name="yen.aalt" horiz-adv-x="544" 
d="M343 303l-9 -66h147q-4 -22 -11.5 -46.5t-15.5 -42.5h-132l-21 -148h-127l21 148h-147l12 89h147l10 66h-147l12 89h115l-127 300h137l91 -254l164 254h136l-211 -300h119q-4 -21 -11 -46t-15 -43h-137z" />
    <glyph glyph-name="uni2219" unicode="&#x2219;" 
d="M232 291q-22 22 -22 56q0 35 22 57.5t57 22.5t57 -22.5t22 -57.5q0 -34 -22 -56t-57 -22t-57 22z" />
    <glyph glyph-name="uni2215" unicode="&#x2215;" 
d="M415 789q65 10 117 11l-436 -1012h-113z" />
    <glyph glyph-name="plus" unicode="+" 
d="M480 288h-147l-22 -156h-105l22 156h-156q5 48 24 103h147l21 151h105l-21 -151h156q-4 -40 -24 -103z" />
    <glyph glyph-name="minus" unicode="&#x2212;" 
d="M96 391h408q-6 -46 -24 -103h-408q6 48 24 103z" />
    <glyph glyph-name="multiply" unicode="&#xd7;" 
d="M359 335l107 -125l-77 -69l-108 126l-140 -124l-66 75l142 125l-108 126l77 68l108 -126l141 124l64 -76z" />
    <glyph glyph-name="divide" unicode="&#xf7;" 
d="M267.5 443.5q-16.5 9.5 -26 26t-9.5 35.5q0 20 9.5 36t26 25.5t36.5 9.5q31 0 51.5 -20.5t20.5 -50.5q0 -19 -9.5 -35.5t-25.5 -26t-37 -9.5q-20 0 -36.5 9.5zM96 391h408q-6 -46 -24 -103h-408q6 48 24 103zM221 111.5q-16 9.5 -25.5 26t-9.5 35.5q0 20 9.5 36.5
t25.5 26t37 9.5q20 0 36.5 -9.5t25.5 -26t9 -36.5q0 -19 -9 -35.5t-25.5 -26t-36.5 -9.5q-21 0 -37 9.5z" />
    <glyph glyph-name="equal" unicode="=" 
d="M113 482h398q-9 -56 -24 -103h-397q5 43 23 103zM87 298h397q-5 -41 -23 -104h-397q5 42 23 104z" />
    <glyph glyph-name="notequal" unicode="&#x2260;" 
d="M357 379l-47 -81h174q-5 -41 -23 -104h-210l-83 -144l-75 35l63 109h-92q5 42 23 104h128l47 81h-172q9 56 24 103h207l86 150l74 -36l-65 -114h94q-5 -43 -23 -103h-130z" />
    <glyph glyph-name="greater" unicode="&#x3e;" 
d="M491 387q-6 -37 -21 -93l-409 -166q8 57 23 116l268 102l-242 105q3 26 10 52t16 53z" />
    <glyph glyph-name="less" unicode="&#x3c;" 
d="M496 440l-268 -102l242 -105q-4 -25 -11 -51.5t-15 -53.5l-355 168q6 37 21 94l409 166q-8 -57 -23 -116z" />
    <glyph glyph-name="greaterequal" unicode="&#x2265;" 
d="M496 437q-4 -39 -21 -94l-405 -144q7 55 23 115l248 80l-233 80q8 51 27 106zM63 164h409q-7 -44 -24 -103h-409q8 47 24 103z" />
    <glyph glyph-name="lessequal" unicode="&#x2264;" 
d="M505.5 520.5q-6.5 -30.5 -13.5 -55.5l-249 -80l234 -80q-4 -27 -10 -51.5t-16 -54.5l-361 143q4 37 21 93l406 145q-5 -29 -11.5 -59.5zM63 164h409q-7 -44 -24 -103h-409q8 47 24 103z" />
    <glyph glyph-name="plusminus" unicode="&#xb1;" 
d="M515 478q-6 -47 -24 -103h-148l-20 -144h-100l20 144h-160q6 47 24 103h151l21 149h100l-21 -149h157zM63 166h409q-6 -43 -24 -104h-409q7 48 24 104z" />
    <glyph glyph-name="approxequal" unicode="&#x2248;" 
d="M330.5 374.5q-20.5 7.5 -44.5 21.5q-21 11 -33.5 16t-24.5 5q-15 0 -26.5 -11t-22.5 -36q-58 6 -90 21q20 50 41 76.5t44 36.5t52 10q22 0 42.5 -8t48.5 -22q23 -11 35 -16t23 -5q15 0 26 11.5t25 44.5q51 -3 89 -22q-28 -71 -63.5 -100.5t-78.5 -29.5q-22 0 -42.5 7.5z
M302.5 179.5q-20.5 7.5 -44.5 21.5q-21 11 -33.5 16t-24.5 5q-15 0 -26.5 -11t-22.5 -36q-58 6 -90 21q20 50 41 76.5t44 36.5t52 10q22 0 42.5 -8t48.5 -22q23 -11 35 -16t23 -5q15 0 26 11.5t25 44.5q51 -3 89 -22q-28 -71 -63.5 -100.5t-78.5 -29.5q-22 0 -42.5 7.5z" />
    <glyph glyph-name="asciitilde" unicode="~" 
d="M317.5 277.5q-20.5 7.5 -44.5 21.5q-21 11 -33.5 16t-24.5 5q-15 0 -26.5 -11t-22.5 -36q-58 6 -90 21q20 50 41 76.5t44 36.5t52 10q22 0 42.5 -8t48.5 -22q23 -11 35 -16t23 -5q15 0 26 11.5t25 44.5q51 -3 89 -22q-28 -71 -63.5 -100.5t-78.5 -29.5q-22 0 -42.5 7.5z
" />
    <glyph glyph-name="logicalnot" unicode="&#xac;" 
d="M501 378l-34 -246h-105l22 156h-313q6 48 24 103h408z" />
    <glyph glyph-name="asciicircum" unicode="^" 
d="M369 267l-44 313l-138 -313h-116l192 415q60 16 145 16l76 -431h-115z" />
    <glyph glyph-name="infinity" unicode="&#x221e;" horiz-adv-x="617" 
d="M522.5 502.5q30.5 -21.5 46.5 -60t16 -89.5q0 -49 -16 -89.5t-47 -64t-73 -23.5q-44 0 -73.5 18.5t-55.5 64.5q-27 -42 -57 -61t-70 -19t-70 21.5t-46 60.5t-16 90q0 49 15.5 89t45.5 63t71 23q43 0 73.5 -18.5t57.5 -62.5q26 43 54.5 61t71.5 18q42 0 72.5 -21.5z
M230.5 281.5q10.5 7.5 21 24t25.5 47.5q-20 45 -35 63t-36 18q-25 0 -40 -23.5t-15 -58.5q0 -33 14 -55.5t42 -22.5q13 0 23.5 7.5zM480 293q13 23 13 58q0 34 -13.5 56.5t-38.5 22.5q-13 0 -23.5 -7t-21.5 -23.5t-27 -47.5q15 -33 25.5 -50t21.5 -24.5t26 -7.5q25 0 38 23z
" />
    <glyph glyph-name="emptyset" unicode="&#x2205;" horiz-adv-x="799" 
d="M701 575q38 -47 58.5 -105.5t20.5 -123.5q0 -103 -49.5 -186t-133.5 -130t-184 -47q-64 0 -122 19.5t-105 55.5l-92 -92l-60 59l91 92q-38 47 -58.5 105.5t-20.5 123.5q0 103 49.5 186t133.5 130t184 47q64 0 122 -19.5t106 -56.5l91 92l61 -57zM209 201l349 349
q-31 22 -68 33.5t-77 11.5q-68 0 -125 -32.5t-90 -89t-33 -127.5q0 -82 44 -145zM650.5 423q-11.5 37 -33.5 68l-348 -350q30 -21 67 -32.5t77 -11.5q68 0 125 32t90.5 89t33.5 128q0 40 -11.5 77z" />
    <glyph glyph-name="integral" unicode="&#x222b;" 
d="M56.5 -220q-21.5 4 -41.5 11q8 50 25 96q27 -9 51 -9q34 0 54.5 20.5t26.5 61.5l81 574q12 87 61.5 131t131.5 44q49 0 88 -13q-7 -47 -25 -97q-32 9 -52 9q-34 0 -54 -19.5t-26 -60.5l-81 -572q-12 -90 -61.5 -135t-124.5 -45q-32 0 -53.5 4z" />
    <glyph glyph-name="Omega" unicode="&#x2126;" 
d="M373 112h123q-3 -26 -9.5 -57.5t-15.5 -54.5h-199l1 8l2 13l12 91l8 54q44 14 71.5 58.5t39.5 102.5t12 116q0 81 -24 118t-69 37q-51 0 -85.5 -44t-50.5 -109.5t-16 -129.5q0 -70 15.5 -103t47.5 -45l-8 -55h1l-16 -112h-214q1 23 8.5 57t15.5 55h122l1 7q-44 32 -68 84
t-24 133q0 98 33 183.5t97 137.5t153 52q65 0 111 -30t70 -86.5t24 -135.5q0 -67 -19 -134.5t-57.5 -123t-92.5 -85.5v-2z" />
    <glyph glyph-name="Delta" unicode="&#x2206;" 
d="M507 0h-533l283 682q78 16 151 16zM366 108l-48 441l-178 -441h226z" />
    <glyph glyph-name="product" unicode="&#x220f;" 
d="M120 692h435l-128 -904h-125l111 791h-183l-110 -791h-127z" />
    <glyph glyph-name="summation" unicode="&#x2211;" 
d="M547.5 636q-7.5 -32 -15.5 -55h-275l183 -321l-266 -362h273q-3 -25 -10.5 -57t-15.5 -53h-430q8 49 19 86l295 391l-197 338q8 49 25 89h426q-4 -24 -11.5 -56z" />
    <glyph glyph-name="radical" unicode="&#x221a;" horiz-adv-x="868" 
d="M864 580h-238l-369 -792h-137l-104 462h125l64 -324l339 766h353q-8 -53 -33 -112z" />
    <glyph glyph-name="partialdiff" unicode="&#x2202;" horiz-adv-x="546" 
d="M484 651.5q50 -58.5 50 -161.5q0 -127 -40 -243t-114.5 -187.5t-171.5 -71.5q-92 0 -138 53t-46 141q0 81 33.5 157t94 124t136.5 48q81 0 117 -60q2 24 2 36q0 62 -25.5 89t-79.5 27q-60 0 -116 -18q2 25 10 55t20 56q28 5 57.5 9.5t52.5 4.5q108 0 158 -58.5z
M290 138.5q35 36.5 60.5 94.5t40.5 125q-16 25 -38 36.5t-51 11.5q-43 0 -77.5 -36t-53.5 -89t-19 -101q0 -40 15.5 -59t48.5 -19q39 0 74 36.5z" />
    <glyph glyph-name="mu" unicode="&#xb5;" 
d="M501 499l-67 -479q-107 -32 -198 -32q-66 0 -107 15q2 -104 -8 -170l-7 -45h-122l51 363l2 18l47 330h125l-44 -316q-2 -20 -2 -28q0 -33 17.5 -49t59.5 -16q30 0 72 7l56 402h125z" />
    <glyph glyph-name="percent" unicode="%" horiz-adv-x="838" 
d="M132 355q-32 17 -48.5 48t-16.5 72q0 70 21 123.5t62 83.5t100 30q65 0 100.5 -35t35.5 -99q0 -70 -20.5 -124t-60.5 -85t-97 -31q-44 0 -76 17zM599 692q31 5 55 7.5t55 3.5l-453 -703q-58 -9 -108 -9zM255.5 447q16.5 24 24.5 84q4 24 4 47q0 25 -9.5 37t-28.5 12
q-29 0 -46.5 -25.5t-25.5 -83.5q-3 -25 -3 -44q0 -26 9.5 -38.5t29.5 -12.5q29 0 45.5 24zM544.5 -1q-31.5 17 -48 48t-16.5 73q0 70 21 123.5t62 83t100 29.5q65 0 100.5 -35t35.5 -98q0 -70 -20.5 -124.5t-61 -85.5t-97.5 -31q-44 0 -75.5 17zM668 91q16 24 25 85
q4 23 4 46q0 25 -9.5 37t-28.5 12q-29 0 -46.5 -25t-25.5 -83q-3 -27 -3 -45q0 -51 39 -51q29 0 45 24z" />
    <glyph glyph-name="perthousand" unicode="&#x2030;" horiz-adv-x="1190" 
d="M132 355q-32 17 -48.5 48t-16.5 72q0 70 21 123.5t62 83.5t100 30q65 0 100.5 -35t35.5 -99q0 -70 -20.5 -124t-60.5 -85t-97 -31q-44 0 -76 17zM599 692q31 5 55 7.5t55 3.5l-453 -703q-58 -9 -108 -9zM255.5 447q16.5 24 24.5 84q4 24 4 47q0 25 -9.5 37t-28.5 12
q-29 0 -46.5 -25.5t-25.5 -83.5q-3 -25 -3 -44q0 -26 9.5 -38.5t29.5 -12.5q29 0 45.5 24zM544.5 -1q-31.5 17 -48 48t-16.5 73q0 70 21 123.5t62 83t100 29.5q65 0 100.5 -35t35.5 -98q0 -70 -20.5 -124.5t-61 -85.5t-97.5 -31q-44 0 -75.5 17zM904 -1q-32 17 -48.5 48
t-16.5 73q0 70 21 123.5t62.5 83t100.5 29.5q65 0 100.5 -35t35.5 -98q0 -70 -20.5 -124.5t-61 -85.5t-97.5 -31q-44 0 -76 17zM668 91q16 24 25 85q4 23 4 46q0 25 -9.5 37t-28.5 12q-29 0 -46.5 -25t-25.5 -83q-3 -27 -3 -45q0 -51 39 -51q29 0 45 24zM1027.5 91.5
q16.5 24.5 25.5 84.5q4 34 4 46q0 25 -9.5 37t-29.5 12q-29 0 -46 -25t-25 -83q-4 -24 -4 -45q0 -51 40 -51q28 0 44.5 24.5z" />
    <glyph glyph-name="arrowup" unicode="&#x2191;" horiz-adv-x="665" 
d="M629 418q-11 -22 -27 -42t-33 -35l-187 160l2 -464h-103l2 462l-185 -158q-34 29 -61 77l296 248z" />
    <glyph glyph-name="uni2197" unicode="&#x2197;" horiz-adv-x="640" 
d="M482 173l-41 242l-296 -357l-79 67l298 353l-244 -3q-3 20 -3 40q0 30 6 58l386 1l68 -380q-45 -19 -95 -21z" />
    <glyph glyph-name="arrowright" unicode="&#x2192;" horiz-adv-x="640" 
d="M630 366l-248 -296q-42 22 -77 60l159 186l-463 -2v103l463 -2l-159 186q34 39 77 61z" />
    <glyph glyph-name="uni2198" unicode="&#x2198;" horiz-adv-x="640" 
d="M568 486l-68 -380l-387 1q-6 26 -6 53q0 16 4 44l243 -3l-298 354l80 66l296 -357l40 242q48 0 96 -20z" />
    <glyph glyph-name="arrowdown" unicode="&#x2193;" horiz-adv-x="640" 
d="M589 345q16 -20 28 -42l-296 -248l-296 248q11 22 27 42t33 35l186 -159l-3 463h104l-3 -464l187 160q17 -15 33 -35z" />
    <glyph glyph-name="uni2199" unicode="&#x2199;" horiz-adv-x="640" 
d="M518 249q3 -19 3 -40q0 -29 -6 -58l-386 -1l-68 380q22 9 47 14.5t48 6.5l41 -243l296 358l79 -67l-298 -353z" />
    <glyph glyph-name="arrowleft" unicode="&#x2190;" horiz-adv-x="640" 
d="M635 299l-463 2l158 -185q-29 -35 -76 -61l-249 296l249 296q43 -22 76 -60l-159 -187l464 2v-103z" />
    <glyph glyph-name="uni2196" unicode="&#x2196;" horiz-adv-x="640" 
d="M492 58l-296 357l-41 -242q-23 1 -48 6.5t-47 14.5l68 380l386 -1q6 -28 6 -58q0 -20 -3 -40l-244 3l298 -353z" />
    <glyph glyph-name="arrowboth" unicode="&#x2194;" horiz-adv-x="773" 
d="M774 351l-248 -296q-48 27 -77 61l157 183h-432l156 -183q-29 -35 -76 -61l-249 296l249 296q43 -22 76 -60l-158 -185h436l-159 185q15 17 35 33t42 27z" />
    <glyph glyph-name="arrowupdn" unicode="&#x2195;" horiz-adv-x="672" 
d="M638 232l-296 -248l-296 248q11 22 27 42t33 35l183 -157l1 192l-1 192l-183 -157q-38 33 -60 76l296 249l296 -249q-26 -47 -61 -76l-184 158l-1 -193l1 -193l184 158q34 -29 61 -77z" />
    <glyph glyph-name="lozenge" unicode="&#x25ca;" horiz-adv-x="444" 
d="M18 351l197 341h139l100 -341l-196 -351h-137zM333 354l-59 232l-134 -238l60 -246z" />
    <glyph glyph-name="at" unicode="@" horiz-adv-x="822" 
d="M574 206q-1 -5 -1 -15q0 -35 32 -35q33 0 58 38.5t38 95.5t13 109q0 113 -61 171t-179 58q-103 0 -183 -54.5t-123.5 -147t-43.5 -203.5q0 -85 32 -143.5t90.5 -88t136.5 -29.5q105 0 212 42q-1 -41 -17 -86q-48 -19 -96.5 -28.5t-101.5 -9.5q-104 0 -181.5 41
t-119.5 118.5t-42 183.5q0 134 55.5 245t156 176t227.5 65q101 0 174.5 -38.5t113 -109t39.5 -163.5q0 -84 -24.5 -158.5t-72 -120.5t-114.5 -46q-48 0 -77.5 19t-37.5 54q-41 -68 -115 -68q-39 0 -69 19.5t-46.5 58t-16.5 93.5q0 127 57.5 196t172.5 69q43 0 79 -7t76 -19z
M507 433q-25 5 -50 5q-66 0 -98 -52.5t-32 -134.5q0 -45 17 -67.5t49 -22.5q22 0 43 9t39 24v3z" />
    <glyph glyph-name="ampersand" unicode="&#x26;" horiz-adv-x="676" 
d="M496 0l-42 57q-88 -72 -203 -72q-68 0 -118.5 24.5t-77.5 70t-27 105.5q0 79 44.5 137.5t124.5 89.5q-28 55 -28 109q0 58 28 100.5t78.5 65t116.5 22.5q79 0 150 -33q-6 -54 -27 -105q-24 14 -55 21.5t-62 7.5q-52 0 -80.5 -23t-28.5 -62q0 -21 8.5 -42.5t30.5 -51.5
l135 -181q36 71 54 173q57 11 115 9q-14 -76 -38.5 -146.5t-61.5 -127.5l111 -148h-147zM391 142l-141 192q-47 -18 -74 -57t-27 -85q0 -45 27.5 -72.5t79.5 -27.5q77 0 135 50z" />
    <glyph glyph-name="paragraph" unicode="&#xb6;" horiz-adv-x="612" 
d="M277 203h-28q-96 0 -147.5 43.5t-51.5 148.5q0 144 74 220.5t221 76.5h259l-115 -819h-85l103 731h-89l-102 -731h-85z" />
    <glyph glyph-name="section" unicode="&#xa7;" horiz-adv-x="501" 
d="M467 285q-25 -32 -72 -48q52 -36 52 -100q0 -51 -28.5 -86t-79 -52t-116.5 -17q-56 0 -101.5 9.5t-94.5 30.5q2 19 9 49t14 44q44 -18 85 -26.5t87 -8.5q53 0 81 12.5t28 41.5q0 16 -11 26t-35 17.5t-67 15.5q-79 14 -127.5 45.5t-48.5 93.5q0 45 25 76.5t72 48.5
q-53 36 -53 101q0 76 61.5 114t163.5 38q50 0 92 -7t85 -23q-1 -20 -8 -48t-14 -45q-36 14 -73 20t-82 6q-55 0 -82 -12t-26 -42q0 -15 11 -25t34.5 -17t67.5 -16q79 -14 127.5 -46t48.5 -95q0 -43 -25 -75zM308 273q34 9 52.5 27t18.5 45q0 23 -22 37t-77 26q-34 7 -54 13
q-71 -19 -71 -74q0 -21 22.5 -35.5t76.5 -25.5q36 -8 54 -13z" />
    <glyph glyph-name="copyright" unicode="&#xa9;" horiz-adv-x="871" 
d="M242.5 -18.5q-91.5 53.5 -144 148t-52.5 211.5q0 116 52.5 210t144 147.5t204.5 53.5q114 0 206 -53.5t144.5 -147.5t52.5 -210q0 -117 -52.5 -211.5t-144.5 -148t-206 -53.5q-113 0 -204.5 53.5zM611.5 49q73.5 44 115 120.5t41.5 171.5q0 94 -41.5 170.5t-115 120
t-164.5 43.5q-90 0 -163 -44t-114.5 -120t-41.5 -170q0 -95 41.5 -171.5t114.5 -120.5t163 -44q91 0 164.5 44zM345.5 150.5q-50.5 27.5 -79 77t-28.5 113.5t28.5 113t79 76t115.5 27q33 0 61.5 -5t48.5 -14q-2 -54 -12 -82q-17 9 -41.5 14t-50.5 5q-39 0 -69.5 -16
t-47.5 -46t-17 -71t17.5 -71.5t48.5 -47.5t70 -17q58 0 101 20q-4 -48 -13 -88q-50 -15 -97 -15q-64 0 -114.5 27.5z" />
    <glyph glyph-name="registered" unicode="&#xae;" horiz-adv-x="455" 
d="M368 683.5q47 -26.5 74.5 -73.5t27.5 -105t-27.5 -104.5t-74.5 -73t-104 -26.5t-104.5 26.5t-74.5 73t-27 104.5t27 105t74.5 73.5t104.5 26.5t104 -26.5zM343.5 368q35.5 20 56 56t20.5 81q0 46 -20.5 82t-56 56t-79.5 20q-45 0 -80.5 -20t-55.5 -56t-20 -82
q0 -45 20 -81t55.5 -56t80.5 -20q44 0 79.5 20zM337 511q-10 -16 -28 -25l53 -81h-56l-43 71h-18v-72h-48v202q28 7 64 7q40 0 63 -18t23 -48q0 -20 -10 -36zM245 517h15q20 0 29 6.5t9 20.5q0 28 -37 28h-16v-55z" />
    <glyph glyph-name="trademark" unicode="&#x2122;" horiz-adv-x="653" 
d="M585 693.5q19 2.5 49 2.5l-13 -315h-78l7 76q2 29 5 50.5t4 34.5l3 30q-21 -58 -50 -125l-29 -66h-60l-11 60q-6 33 -10.5 66t-8.5 70q-9 -66 -20 -118l-16 -78h-73l70 304q23 5 43 8t46 3l22 -212l74 201q27 6 46 8.5zM221 626l-35 -245h-73l35 245h-89q3 30 16 66h241
q-6 -36 -16 -66h-79z" />
    <glyph glyph-name="degree" unicode="&#xb0;" horiz-adv-x="366" 
d="M142.5 416q-36.5 19 -57 54t-20.5 82t20.5 82.5t57.5 55t83 19.5t83 -19.5t57.5 -54.5t20.5 -81q0 -47 -21 -83t-58 -55t-83 -19t-82.5 19zM276 498.5q20 20.5 20 54.5q0 23 -9.5 40.5t-25.5 27t-35 9.5q-30 0 -49.5 -20.5t-19.5 -56.5q0 -34 19.5 -54.5t49.5 -20.5
t50 20.5z" />
    <glyph glyph-name="bar" unicode="|" horiz-adv-x="284" 
d="M164 781q22 8 52 13t55 5l-142 -1011h-104z" />
    <glyph glyph-name="brokenbar" unicode="&#xa6;" horiz-adv-x="284" 
d="M164 781q22 8 52 13t55 5l-62 -444h-104zM81 187h105l-57 -399h-104z" />
    <glyph glyph-name="dagger" unicode="&#x2020;" horiz-adv-x="526" 
d="M492.5 452.5q-7.5 -29.5 -15.5 -51.5h-141l-56 -401h-106l57 401h-150q3 25 9.5 53t14.5 49h140l27 189h105l-26 -189h151q-2 -21 -9.5 -50.5z" />
    <glyph glyph-name="uni2113" unicode="&#x2113;" horiz-adv-x="402" 
d="M183 148q0 -28 12 -39.5t43 -11.5q46 0 90 16q-7 -55 -29 -112q-48 -13 -104 -13q-66 0 -102 37t-36 108q0 14 4 46l49 356q11 82 52 128t120 46q64 0 98.5 -34.5t34.5 -98.5q0 -80 -60.5 -151.5t-151.5 -123.5l-18 -126q-2 -20 -2 -27zM251.5 594.5
q-10.5 -18.5 -16.5 -59.5l-17 -121q89 70 89 165q0 17 -6.5 25.5t-19.5 8.5q-19 0 -29.5 -18.5z" />
    <glyph glyph-name="daggerdbl" unicode="&#x2021;" horiz-adv-x="528" 
d="M341 431l-23 -170h151q-3 -24 -10 -52.5t-15 -49.5h-141l-22 -159h-105l23 159h-151q2 21 9.5 50.5t15.5 51.5h140l24 170h-150q2 23 9 51.5t15 50.5h140l23 159h104l-22 -159h152q-3 -22 -10.5 -51.5t-15.5 -50.5h-141z" />
    <glyph glyph-name="estimated" unicode="&#x212e;" horiz-adv-x="831" 
d="M204.5 38q-89.5 47 -137 126.5t-47.5 173.5q0 95 48 179t138 135t209 51q143 0 231.5 -53.5t126.5 -136.5t38 -177h-641q-3 0 -4 -1t-1 -3v-183q0 -22 7 -30q41 -48 103.5 -75t138.5 -27q78 0 139.5 29t118.5 82h70q-41 -48 -85 -78t-102 -44.5t-139 -14.5
q-122 0 -211.5 47zM660 358q3 0 4.5 1t1.5 4v187q0 7 -3 14t-8 12q-52 52 -118.5 77.5t-124.5 25.5q-62 0 -125 -25.5t-113 -75.5q-4 -4 -6.5 -12t-2.5 -16v-187q0 -3 1 -4t4 -1h490z" />
    <glyph glyph-name="uni02C9" unicode="&#x2c9;" horiz-adv-x="385" 
d="M111 654.5q6 23.5 14 46.5h273q-5 -26 -10 -45.5t-15 -47.5h-272q4 23 10 46.5z" />
    <glyph glyph-name="uni0308" unicode="&#x308;" horiz-adv-x="0" 
d="M-307.5 607q-19.5 20 -19.5 50q0 31 19 50.5t50 19.5q30 0 49.5 -19.5t19.5 -50.5t-19.5 -50.5t-49.5 -19.5t-49.5 20zM-112.5 606q-19.5 20 -19.5 50q0 31 19.5 51t50.5 20q29 0 48.5 -20t19.5 -51q0 -30 -19.5 -50t-48.5 -20q-31 0 -50.5 20z" />
    <glyph glyph-name="uni0308.aalt" horiz-adv-x="0" 
d="M-294.5 777q-19.5 20 -19.5 51t19.5 50.5t50.5 19.5q30 0 50 -19.5t20 -50.5t-20 -51t-50 -20q-31 0 -50.5 20zM-88.5 777q-19.5 20 -19.5 51q0 30 19.5 50t50.5 20q30 0 49.5 -20t19.5 -50q0 -31 -19.5 -51t-49.5 -20q-31 0 -50.5 20z" />
    <glyph glyph-name="glyph517" horiz-adv-x="0" 
d="M-277.5 608q-19.5 20 -19.5 50q0 31 19 50.5t50 19.5q29 0 48 -19.5t19 -50.5q0 -30 -19 -50t-48 -20q-30 0 -49.5 20zM-110 607.5q-19 19.5 -19 50.5q0 30 19 50t49 20q29 0 48 -20t19 -50q0 -31 -19 -50.5t-48 -19.5q-30 0 -49 19.5z" />
    <glyph glyph-name="glyph518" horiz-adv-x="0" 
d="M-265.5 776.5q-19.5 20.5 -19.5 50.5t19.5 50t49.5 20t49.5 -20t19.5 -50t-19.5 -50.5t-49.5 -20.5t-49.5 20.5zM-88 776.5q-20 20.5 -20 50.5t19.5 50t50.5 20q30 0 49 -20t19 -50t-19 -50.5t-49 -20.5t-50 20.5z" />
    <glyph glyph-name="uni0307" unicode="&#x307;" horiz-adv-x="0" 
d="M-120.5 603q-21.5 21 -21.5 54t21.5 54t53.5 21t53 -21t21 -54q0 -32 -21 -53.5t-53 -21.5t-53.5 21z" />
    <glyph glyph-name="uni0307.aalt" horiz-adv-x="0" 
d="M-94 773.5q-20 20.5 -20 52.5t20 52t53 20q31 0 51 -20t20 -52q0 -33 -20 -53t-51 -20q-33 0 -53 20.5z" />
    <glyph glyph-name="gravecomb" unicode="&#x300;" horiz-adv-x="0" 
d="M-7 573q-42 3 -82.5 26t-71 60.5t-45.5 80.5q32 0 74 -5.5t71 -15.5l56 -146h-2z" />
    <glyph glyph-name="gravecomb.aalt" horiz-adv-x="0" 
d="M1 761q-60 0 -118 33t-98 84q13 4 36.5 7t46.5 3q19 0 41.5 -2t36.5 -5l76 -120h-21z" />
    <glyph glyph-name="acutecomb" unicode="&#x301;" horiz-adv-x="0" 
d="M-126 719q29 10 71 15.5t74 5.5q-15 -43 -45.5 -80.5t-71 -60.5t-82.5 -26h-3z" />
    <glyph glyph-name="acutecomb.aalt" horiz-adv-x="0" 
d="M-123 881q14 3 36.5 5t42.5 2q23 0 46 -3t36 -7q-39 -51 -97 -84t-118 -33h-21z" />
    <glyph glyph-name="uni030B" unicode="&#x30b;" horiz-adv-x="0" 
d="M-277 720q23 8 61.5 12t70.5 4q-90 -163 -205 -165h-7zM-111 720q22 8 59.5 11.5t70.5 3.5q-46 -86 -99 -124.5t-106 -39.5h-6z" />
    <glyph glyph-name="uni030B.aalt" horiz-adv-x="0" 
d="M-267 882q31 6 77 6q38 0 59 -3q-15 -33 -47.5 -61.5t-73.5 -46t-81 -17.5h-13zM-97 882q30 6 77 6q38 0 59 -3q-15 -33 -48 -62t-74.5 -46t-80.5 -17h-12z" />
    <glyph glyph-name="glyph527" horiz-adv-x="0" 
d="M-120 605.5q7 38.5 14 86.5q36 10 62.5 14t58.5 4q-13 -60 -46 -108.5t-81 -78.5h-26q11 44 18 82.5z" />
    <glyph glyph-name="uni0302" unicode="&#x302;" horiz-adv-x="0" 
d="M-3 580h-61q-19 10 -34.5 24t-43.5 50q-37 -37 -58.5 -51.5t-45.5 -22.5h-59l110 150q24 5 62 5t59 -5z" />
    <glyph glyph-name="uni0302.aalt" horiz-adv-x="0" 
d="M-203 888q36 9 78 9t75 -9l72 -127h-36q-38 0 -67 15.5t-53 51.5q-37 -35 -70 -51t-71 -16h-35z" />
    <glyph glyph-name="glyph530" horiz-adv-x="0" 
d="M-4 578h-41q-20 7 -39 24.5t-45 52.5q-38 -39 -59 -54.5t-44 -22.5h-49l105 150q20 6 55 6q33 0 51 -5z" />
    <glyph glyph-name="glyph531" horiz-adv-x="0" 
d="M-173 881q14 4 32.5 6.5t34.5 2.5t33.5 -2.5t30.5 -6.5l64 -119h-44q-28 9 -49.5 22t-39.5 41q-26 -29 -50 -42t-52 -21h-57z" />
    <glyph glyph-name="uni030C" unicode="&#x30c;" horiz-adv-x="0" 
d="M18 733l-110 -150q-28 -6 -62 -6q-14 0 -29.5 1.5t-29.5 3.5l-71 151h61q14 -8 23 -14.5t22.5 -21t32.5 -39.5q37 38 58.5 52.5t45.5 22.5h59z" />
    <glyph glyph-name="uni030C.aalt" horiz-adv-x="0" 
d="M-66 768q-36 -9 -79 -9q-41 0 -74 9l-73 127h37q38 0 66.5 -15.5t53.5 -51.5q36 35 69 51t72 16h35z" />
    <glyph glyph-name="glyph534" horiz-adv-x="0" 
d="M18 733l-105 -150q-20 -6 -55 -6q-32 0 -51 4l-66 152h41q20 -7 39 -24.5t45 -52.5q38 39 59 54.5t44 22.5h49z" />
    <glyph glyph-name="uni0306" unicode="&#x306;" horiz-adv-x="0" 
d="M-255.5 613.5q-34.5 40.5 -36.5 100.5q19 4 43.5 6.5t45.5 2.5q3 -31 16.5 -48.5t40.5 -17.5q28 0 46.5 17.5t28.5 48.5q22 0 46 -2.5t41 -6.5q-19 -64 -56.5 -102.5t-107.5 -38.5q-73 0 -107.5 40.5z" />
    <glyph glyph-name="uni0306.aalt" horiz-adv-x="0" 
d="M-210.5 775.5q-33.5 17.5 -49.5 46t-17 63.5q21 2 45.5 4t45.5 2q6 -53 62 -53q29 0 46.5 14t28.5 39q20 0 44 -1.5t44 -4.5q-16 -58 -54 -92.5t-111 -34.5q-51 0 -84.5 17.5z" />
    <glyph glyph-name="glyph537" horiz-adv-x="0" 
d="M-202 592.5q-29 18.5 -42.5 48.5t-11.5 66q18 4 43 6.5t45 2.5q1 -27 11 -42t33 -15q22 0 36 15t20 42q21 0 43.5 -2t38.5 -7q-13 -58 -47.5 -95.5t-95.5 -37.5q-44 0 -73 18.5z" />
    <glyph glyph-name="glyph538" horiz-adv-x="0" 
d="M-185 776.5q-30 17.5 -43.5 44.5t-14.5 57q16 3 40.5 4.5t44.5 1.5q3 -20 15 -32t38 -12q25 0 39.5 11t21.5 33q19 0 41 -1.5t41 -4.5q-15 -50 -48 -84.5t-99 -34.5q-46 0 -76 17.5z" />
    <glyph glyph-name="uni030A" unicode="&#x30a;" horiz-adv-x="0" 
d="M-173.5 574q-27.5 14 -43.5 40t-16 59q0 34 16 60t43.5 40t61.5 14t61.5 -14t43 -40t15.5 -60q0 -33 -15.5 -59t-43 -40t-61.5 -14t-61.5 14zM-78.5 637q12.5 14 12.5 36q0 23 -12.5 37t-33.5 14q-22 0 -34.5 -14t-12.5 -37q0 -22 13 -36t34 -14t33.5 14z" />
    <glyph glyph-name="uni030A.aalt" horiz-adv-x="0" 
d="M-148.5 755.5q-27.5 14.5 -43.5 39.5t-16 57q0 31 15.5 56t43 39.5t62.5 14.5t62.5 -14t43 -39t15.5 -57t-16 -57t-43.5 -39.5t-61.5 -14.5t-61.5 14.5zM-52.5 818q13.5 13 13.5 34q0 20 -13.5 33t-34.5 13q-22 0 -35 -13t-13 -33q0 -21 13 -34t35 -13q21 0 34.5 13z" />
    <glyph glyph-name="tildecomb" unicode="&#x303;" horiz-adv-x="0" 
d="M-99 593q-16 9 -39 26q-10 8 -19 14t-15 6q-9 0 -13 -5.5t-6 -18.5l-4 -29h-70l10 67q6 35 23.5 51t46.5 16q19 0 36 -9.5t38 -26.5q10 -8 19 -14t15 -6q9 0 13 5.5t6 19.5l4 29h70l-10 -67q-6 -35 -23.5 -51t-46.5 -16q-19 0 -35 9z" />
    <glyph glyph-name="tildecomb.aalt" horiz-adv-x="0" 
d="M-94.5 754q-19.5 9 -48.5 26q-14 9 -27 15.5t-20 6.5q-8 0 -12 -6t-6 -20l-4 -29h-83l7 52q13 90 85 90q23 0 45.5 -10t49.5 -27q3 -2 13.5 -7.5t17.5 -8.5t11 -3q16 0 19 24l3 30h84l-8 -54q-7 -46 -29 -67t-58 -21q-20 0 -39.5 9z" />
    <glyph glyph-name="glyph543" horiz-adv-x="0" 
d="M-100 593.5q-15 9.5 -33 26.5q-2 1 -7.5 6.5t-10 8t-7.5 2.5q-8 0 -11 -5.5t-6 -18.5l-4 -27h-72l8 55q11 79 73 79q19 0 34.5 -10t33.5 -27q2 -2 7.5 -7t9.5 -7.5t7 -2.5q8 0 11.5 5.5t5.5 18.5l4 28h72l-7 -56q-6 -42 -25.5 -60t-47.5 -18q-20 0 -35 9.5z" />
    <glyph glyph-name="glyph544" horiz-adv-x="0" 
d="M-83 753q-17 10 -38 28q-19 19 -28 19q-8 0 -11 -5.5t-6 -17.5l-4 -30h-77l8 58q6 44 27.5 64.5t50.5 20.5q20 0 37.5 -10.5t37.5 -28.5q8 -7 15 -12.5t12 -5.5q8 0 12 5.5t5 18.5l5 29h76l-8 -58q-6 -44 -27 -64.5t-50 -20.5q-20 0 -37 10z" />
    <glyph glyph-name="uni0304" unicode="&#x304;" horiz-adv-x="0" 
d="M-274 654.5q6 23.5 14 46.5h273q-5 -26 -10 -45.5t-15 -47.5h-272q4 23 10 46.5z" />
    <glyph glyph-name="uni0304.aalt" horiz-adv-x="0" 
d="M-236 871h273q-5 -24 -11 -46t-14 -46h-272q10 53 24 92z" />
    <glyph glyph-name="glyph547" horiz-adv-x="0" 
d="M-224 703h238q-5 -24 -10 -44t-15 -48h-238q8 47 25 92z" />
    <glyph glyph-name="glyph548" horiz-adv-x="0" 
d="M-223 823.5q6 23.5 14 46.5h246q-5 -27 -10.5 -47.5t-15.5 -44.5h-244q4 22 10 45.5z" />
    <glyph glyph-name="uni0313" unicode="&#x313;" horiz-adv-x="0" 
d="M-120 608.5q7 38.5 14 86.5q36 10 62.5 14t58.5 4q-13 -60 -46 -108.5t-81 -78.5h-26q11 44 18 82.5z" />
    <glyph glyph-name="uni0326" unicode="&#x326;" horiz-adv-x="0" 
d="M-229 -164.5q7 38.5 14 86.5q36 10 62.5 14t58.5 4q-13 -60 -46 -108.5t-81 -78.5h-26q11 44 18 82.5z" />
    <glyph glyph-name="uni0327" unicode="&#x327;" horiz-adv-x="0" 
d="M-119 -75q16 -19 16 -48q0 -47 -32.5 -72t-84.5 -25q-20 0 -41 4t-36 10q6 36 20 61q25 -9 47 -9t33.5 8t11.5 22q0 16 -18 24t-57 9l48 106h72l-28 -61q33 -10 49 -29z" />
    <glyph glyph-name="uni0328" unicode="&#x328;" horiz-adv-x="0" 
d="M-263.5 -196.5q-28.5 24.5 -28.5 72.5q0 41 30 78.5t89 66.5l53 -21q-30 -16 -49.5 -45t-19.5 -56q0 -37 42 -37q11 0 23 3.5t21 6.5q-3 -21 -8 -40t-14 -44q-23 -9 -62 -9q-48 0 -76.5 24.5z" />
    <glyph glyph-name="glyph553" horiz-adv-x="0" 
d="M-250 -195.5q-26 24.5 -26 67.5q0 34 13.5 60t34.5 45.5t55 43.5l62 -21q-33 -25 -49.5 -50t-16.5 -52q0 -17 9 -25.5t26 -8.5q22 0 39 10q-6 -44 -20 -85q-7 -3 -23.5 -6t-32.5 -3q-45 0 -71 24.5z" />
    <glyph glyph-name="acute" unicode="&#xb4;" horiz-adv-x="278" 
d="M152 719q29 10 71 15.5t74 5.5q-15 -43 -45.5 -80.5t-71 -60.5t-82.5 -26h-3z" />
    <glyph glyph-name="breve" unicode="&#x2d8;" horiz-adv-x="407" 
d="M151.5 613.5q-34.5 40.5 -36.5 100.5q19 4 43.5 6.5t45.5 2.5q3 -31 16.5 -48.5t40.5 -17.5q28 0 46.5 17.5t28.5 48.5q22 0 46 -2.5t41 -6.5q-19 -64 -56.5 -102.5t-107.5 -38.5q-73 0 -107.5 40.5z" />
    <glyph glyph-name="caron" unicode="&#x2c7;" horiz-adv-x="402" 
d="M420 733l-110 -150q-28 -6 -62 -6q-14 0 -29.5 1.5t-29.5 3.5l-71 151h61q14 -8 23 -14.5t22.5 -21t32.5 -39.5q37 38 58.5 52.5t45.5 22.5h59z" />
    <glyph glyph-name="cedilla" unicode="&#xb8;" horiz-adv-x="283" 
d="M164 -75q16 -19 16 -48q0 -47 -32.5 -72t-84.5 -25q-20 0 -41 4t-36 10q6 36 20 61q25 -9 47 -9t33.5 8t11.5 22q0 16 -18 24t-57 9l48 106h72l-28 -61q33 -10 49 -29z" />
    <glyph glyph-name="circumflex" unicode="&#x2c6;" horiz-adv-x="402" 
d="M399 580h-61q-19 10 -34.5 24t-43.5 50q-37 -37 -58.5 -51.5t-45.5 -22.5h-59l110 150q24 5 62 5t59 -5z" />
    <glyph glyph-name="dieresis" unicode="&#xa8;" horiz-adv-x="435" 
d="M127.5 607q-19.5 20 -19.5 50q0 31 19 50.5t50 19.5q30 0 49.5 -19.5t19.5 -50.5t-19.5 -50.5t-49.5 -19.5t-49.5 20zM322.5 606q-19.5 20 -19.5 50q0 31 19.5 51t50.5 20q29 0 48.5 -20t19.5 -51q0 -30 -19.5 -50t-48.5 -20q-31 0 -50.5 20z" />
    <glyph glyph-name="dotaccent" unicode="&#x2d9;" horiz-adv-x="250" 
d="M129.5 603q-21.5 21 -21.5 54t21.5 54t53.5 21t53 -21t21 -54q0 -32 -21 -53.5t-53 -21.5t-53.5 21z" />
    <glyph glyph-name="grave" unicode="`" horiz-adv-x="325" 
d="M318 573q-42 3 -82.5 26t-71 60.5t-45.5 80.5q32 0 74 -5.5t71 -15.5l56 -146h-2z" />
    <glyph glyph-name="hungarumlaut" unicode="&#x2dd;" horiz-adv-x="452" 
d="M175 720q23 8 61.5 12t70.5 4q-90 -163 -205 -165h-7zM341 720q22 8 59.5 11.5t70.5 3.5q-46 -86 -99 -124.5t-106 -39.5h-6z" />
    <glyph glyph-name="macron" unicode="&#xaf;" horiz-adv-x="385" 
d="M111 654.5q6 23.5 14 46.5h273q-5 -26 -10 -45.5t-15 -47.5h-272q4 23 10 46.5z" />
    <glyph glyph-name="ogonek" unicode="&#x2db;" horiz-adv-x="290" 
d="M26.5 -196.5q-28.5 24.5 -28.5 72.5q0 41 30 78.5t89 66.5l53 -21q-30 -16 -49.5 -45t-19.5 -56q0 -37 42 -37q11 0 23 3.5t21 6.5q-3 -21 -8 -40t-14 -44q-23 -9 -62 -9q-48 0 -76.5 24.5z" />
    <glyph glyph-name="ring" unicode="&#x2da;" horiz-adv-x="343" 
d="M169.5 574q-27.5 14 -43.5 40t-16 59q0 34 16 60t43.5 40t61.5 14t61.5 -14t43 -40t15.5 -60q0 -33 -15.5 -59t-43 -40t-61.5 -14t-61.5 14zM264.5 637q12.5 14 12.5 36q0 23 -12.5 37t-33.5 14q-22 0 -34.5 -14t-12.5 -37q0 -22 13 -36t34 -14t33.5 14z" />
    <glyph glyph-name="tilde" unicode="&#x2dc;" horiz-adv-x="362" 
d="M263 593q-16 9 -39 26q-10 8 -19 14t-15 6q-9 0 -13 -5.5t-6 -18.5l-4 -29h-70l10 67q6 35 23.5 51t46.5 16q19 0 36 -9.5t38 -26.5q10 -8 19 -14t15 -6q9 0 13 5.5t6 19.5l4 29h70l-10 -67q-6 -35 -23.5 -51t-46.5 -16q-19 0 -35 9z" />
    </font>
</defs>
</svg>
